<svg width="104" height="109" viewBox="0 0 104 109" fill="none" xmlns="http://www.w3.org/2000/svg">
<path d="M43.3628 31.5055C43.3628 31.5055 16.109 13.088 25.5632 2.50436C35.0174 -8.07928 46.8918 18.3065 46.8918 18.3065L43.3628 31.5055Z" fill="black"/>
<path d="M104 107.357C102.891 107.98 101.64 108.322 100.292 108.322H69.4262C69.3427 107.54 69.2712 106.758 69.2235 105.964C67.5306 79.7734 82.9339 71.7928 82.9339 71.7928C82.9339 71.7928 94.5221 92.9846 104 107.357Z" fill="#AF4D04"/>
<path d="M60.3796 13.6511C60.3796 13.6511 46.0612 4.10623 37.37 16.0098C28.9411 27.5589 37.1793 40.6601 37.1793 40.6601L56.6718 25.0902L60.3796 13.6511Z" fill="black"/>
<path d="M89.4887 108.319H16.6091C14.4631 95.1567 13.569 82.8254 15.5361 77.5336C20.5196 64.1146 46.0447 58.6028 46.0447 58.6028C46.0447 58.6028 63.3078 60.6071 68.8635 61.4259C74.4192 62.2447 81.2147 67.6221 85.6259 76.5803C90.049 85.5385 89.0833 101.096 89.4171 106.034C89.4529 106.522 89.4768 107.305 89.4887 108.319Z" fill="#AF4D04"/>
<path d="M42.7999 47.871L42.1919 61.5955C42.1919 61.5955 44.4333 65.653 52.2303 66.6673C58.0483 67.425 60.1584 66.1663 60.1584 66.1663L59.6577 59.1757L59.157 52.3562L45.1486 48.5065L42.7999 47.871Z" fill="#F98875"/>
<path d="M45.1633 48.5216C45.1753 48.9005 45.2945 49.3527 45.4971 49.8659C48.1915 56.8565 56.3104 58.7264 59.6725 59.1908L59.1717 52.3713L45.1633 48.5216Z" fill="black"/>
<path d="M63.5272 21.2124C63.5272 21.2124 69.7862 38.7499 66.5911 48.1848C63.396 57.6196 54.9552 55.5664 49.9599 53.4033C44.9645 51.2279 42.7947 47.867 42.7947 47.867C42.7947 47.867 37.9305 49.2236 35.0096 44.4817C32.0887 39.7399 34.3658 34.6436 37.1555 33.617C39.9453 32.5904 43.0689 34.8147 43.0689 34.8147L40.8276 29.694C40.8395 29.6817 53.0119 5.12916 63.5272 21.2124Z" fill="#F98875"/>
<path d="M43.0646 34.816C43.0646 34.816 50.1225 36.8203 55.6663 29.0109C61.21 21.2014 60.9835 17.8161 60.9835 17.8161L65.3589 26.6033C65.3589 26.6033 66.873 20.8348 64.8463 16.9484C62.8195 13.0498 60.3993 13.6609 60.3993 13.6609L44.3284 16.5574L39.2734 29.2308L43.0646 34.816Z" fill="black"/>
<path d="M54.0437 67.9287C46.1036 67.9287 41.752 62.038 41.7043 61.9647C41.5136 61.6958 41.5613 61.3169 41.8355 61.1092C42.0978 60.9136 42.4673 60.9625 42.67 61.2314C42.9204 61.5736 48.8814 69.603 59.957 65.5944C60.267 65.4844 60.6127 65.6433 60.72 65.9733C60.8273 66.291 60.6723 66.6454 60.3623 66.7554C58.0495 67.5865 55.9512 67.9287 54.0437 67.9287Z" fill="white"/>
<path d="M25.3821 108.321H4.92382C3.05205 108.321 1.34719 107.649 0 106.524C5.01919 85.4303 18.6581 72.4269 18.6581 72.4269C18.6581 72.4269 19.6714 93.5942 25.3821 108.321Z" fill="#AF4D04"/>
<path d="M79.502 108.269C79.4066 108.269 79.3112 108.245 79.2278 108.196C78.9297 108.037 78.8224 107.67 78.9774 107.377C79.0132 107.316 82.0533 101.144 80.6703 91.416C79.0132 79.8425 70.2862 75.8217 70.2028 75.785C69.9047 75.6506 69.7617 75.2961 69.8928 74.9784C70.024 74.6728 70.3816 74.5262 70.6797 74.6606C71.0612 74.8317 80.0981 78.9625 81.8506 91.2327C83.3051 101.376 80.1696 107.67 80.0385 107.939C79.9192 108.159 79.7166 108.269 79.502 108.269Z" fill="white"/>
<path d="M62.2772 42.9476C62.2176 42.9476 62.1461 42.9354 62.0864 42.911C61.7765 42.801 61.6096 42.4588 61.7049 42.141C62.7898 38.8291 60.4173 35.1382 60.3935 35.1016C60.2147 34.8205 60.2862 34.4416 60.5604 34.2583C60.8346 34.0627 61.2042 34.1483 61.383 34.4294C61.4903 34.6005 64.1013 38.6457 62.8256 42.5321C62.7541 42.7888 62.5276 42.9476 62.2772 42.9476Z" fill="black"/>
<path d="M41.9906 42.9459C41.8237 42.9459 41.6687 42.8725 41.5495 42.7381L36.8284 37.373C36.6018 37.1163 36.6257 36.7374 36.876 36.5052C37.1264 36.273 37.496 36.2975 37.7225 36.5541L42.4436 41.9193C42.6702 42.1759 42.6463 42.5548 42.3959 42.787C42.2767 42.897 42.1337 42.9459 41.9906 42.9459Z" fill="black"/>
<path d="M36.8937 41.4204C36.5956 41.4204 36.3453 41.2004 36.2976 40.8827C36.2499 40.5527 36.4883 40.2472 36.8102 40.1983L40.1723 39.7583C40.4822 39.7217 40.7922 39.9539 40.8399 40.2838C40.8876 40.6138 40.6491 40.9194 40.3272 40.9682L36.9652 41.4082C36.9533 41.4204 36.9175 41.4204 36.8937 41.4204Z" fill="black"/>
<path d="M66.0711 28.0856C66.0353 28.0856 65.9876 28.0856 65.9518 28.0734L62.8044 27.4257C62.4825 27.3646 62.2679 27.0346 62.3395 26.7046C62.3991 26.3747 62.721 26.1547 63.0429 26.228L66.1903 26.8757C66.5122 26.9368 66.7268 27.2668 66.6552 27.5968C66.5956 27.8901 66.3453 28.0856 66.0711 28.0856Z" fill="black"/>
<path d="M52.8641 29.8854C52.6375 29.8854 52.423 29.751 52.3276 29.531C52.1845 29.2255 52.3156 28.8588 52.6137 28.7122L56.8341 26.659C57.1322 26.5123 57.4898 26.6468 57.6329 26.9523C57.7759 27.2578 57.6448 27.6245 57.3468 27.7711L53.1263 29.8243C53.0429 29.861 52.9594 29.8854 52.8641 29.8854Z" fill="black"/>
<path d="M64.6279 35.5784C64.3656 35.5784 64.1272 35.4073 64.0556 35.1262L63.1496 31.802C63.1019 31.6065 63.1376 31.3987 63.2688 31.2399L64.2822 30.0299C64.4968 29.7733 64.8783 29.7489 65.1167 29.9688C65.3671 30.1888 65.3909 30.5799 65.1763 30.8366L64.3656 31.802L65.1883 34.8085C65.2717 35.1384 65.0929 35.4684 64.771 35.5662C64.7352 35.5784 64.6756 35.5784 64.6279 35.5784Z" fill="black"/>
<path d="M55.1773 36.2418C54.915 36.2418 54.6766 36.0707 54.605 35.7896L53.6989 32.4654C53.6393 32.2576 53.6989 32.0499 53.8301 31.891L55.2369 30.29C55.4515 30.0456 55.833 30.0211 56.0834 30.2411C56.3218 30.4611 56.3457 30.8522 56.1311 31.1088L54.9507 32.4532L55.7734 35.4474C55.8568 35.7774 55.678 36.1073 55.3561 36.2051C55.2846 36.2296 55.2369 36.2418 55.1773 36.2418Z" fill="black"/>
<path d="M60.1736 47.4423C57.6581 47.4423 55.7267 45.4502 55.6313 45.3524C55.4048 45.108 55.4048 44.7291 55.6432 44.4847C55.8817 44.2525 56.2513 44.2525 56.4897 44.4847C56.5135 44.5091 58.7668 46.7945 61.2109 46.049C61.5328 45.9513 61.8547 46.1346 61.95 46.4646C62.0454 46.7823 61.8666 47.1245 61.5447 47.2223C61.0678 47.3811 60.6147 47.4423 60.1736 47.4423Z" fill="black"/>
</svg>
