<svg width="104" height="97" viewBox="0 0 104 97" fill="none" xmlns="http://www.w3.org/2000/svg">
<path d="M104 96.9725C103.773 96.9838 103.534 96.9952 103.307 96.9952H30.3945C31.0119 76.5526 31.5915 60.6037 31.5915 60.2755C31.5915 59.9359 41.7591 54.6045 54.9003 54.4687C76.0924 54.2536 96.9317 68.7083 102.866 89.5471L104 96.9725Z" fill="#507849"/>
<path d="M57.7843 23.3873C57.7843 23.3873 71.8955 23.9872 72.6893 11.8417C73.5334 -1.09626 60.2159 -2.34137 54.5588 2.88813C48.9017 8.11763 49.9475 13.4377 49.9475 13.4377C49.9475 13.4377 46.0039 10.2457 41.6949 14.1621C38.5324 17.0372 40.1704 21.746 40.1704 21.746C40.1704 21.746 32.8879 21.497 33.5683 27.2019C34.2487 32.9068 38.7844 35.8046 38.7844 35.8046L57.7843 23.3873Z" fill="#AF4D04"/>
<path d="M44.8765 45.7731L46.338 59.243C46.338 59.243 49.4626 62.8765 58.3074 62.752C64.8968 62.6501 67.0387 61.122 67.0387 61.122L65.3882 54.3757L63.7629 47.7992L47.5979 46.0674L44.8765 45.7731Z" fill="#F98575"/>
<path d="M47.5811 46.0623C47.6567 46.4245 47.8582 46.8433 48.1606 47.3187C52.2428 53.748 61.5789 54.3932 65.3839 54.3706L63.7586 47.7941L47.5811 46.0623Z" fill="black"/>
<path d="M63.7904 16.8107C63.7904 16.8107 73.4919 33.0086 71.413 42.6639C69.3341 52.3193 59.6326 51.5382 53.7361 50.1346C47.8396 48.7311 44.8914 45.7767 44.8914 45.7767C44.8914 45.7767 39.6879 47.8029 35.7065 43.5921C31.7251 39.3927 33.4512 34.0952 36.3994 32.6916C39.3477 31.2881 43.1527 33.0086 43.1527 33.0086L39.8643 28.3337C39.8643 28.3337 49.5784 2.63898 63.7904 16.8107Z" fill="#F98575"/>
<path d="M43.3284 40.3565C43.2276 40.3565 43.1142 40.3339 43.0134 40.2773L35.7814 36.508C35.479 36.3495 35.3782 36.0099 35.5546 35.7383C35.731 35.4666 36.1089 35.3761 36.4113 35.5345L43.6433 39.3038C43.9457 39.4623 44.0465 39.8019 43.8701 40.0735C43.7567 40.2547 43.5426 40.3565 43.3284 40.3565Z" fill="black"/>
<path d="M37.191 40.8197C36.939 40.8197 36.687 40.6726 36.5988 40.4462C36.4854 40.1519 36.6492 39.8236 36.9768 39.7218L41.311 38.3068C41.6386 38.205 42.0039 38.3521 42.1173 38.6464C42.2307 38.9407 42.0669 39.269 41.7393 39.3709L37.4052 40.7858C37.3296 40.8084 37.254 40.8197 37.191 40.8197Z" fill="black"/>
<path d="M51.9344 25.0428C51.8211 25.0428 51.7077 25.0201 51.5943 24.9522C51.3045 24.7824 51.2163 24.4315 51.3927 24.1712C53.1818 21.613 55.9536 21.8055 57.1758 22.2696C57.4908 22.3941 57.6419 22.7223 57.516 23.0053C57.3774 23.2883 57.012 23.4241 56.697 23.3109C56.5962 23.277 54.1267 22.4054 52.4636 24.7711C52.3502 24.9522 52.136 25.0428 51.9344 25.0428Z" fill="black"/>
<path d="M66.4264 23.1363C66.3004 23.1363 66.187 23.1023 66.0736 23.0344C64.3853 22.0157 62.8356 22.9778 62.7726 23.0231C62.4954 23.2042 62.1048 23.1476 61.8906 22.8986C61.689 22.6495 61.752 22.2986 62.0292 22.1062C62.1174 22.0496 64.3475 20.6234 66.7791 22.0949C67.0689 22.2647 67.1445 22.6156 66.9555 22.8759C66.8295 23.0457 66.628 23.1363 66.4264 23.1363Z" fill="black"/>
<path d="M64.3933 38.4653C64.3555 38.4653 64.3177 38.4653 64.2673 38.454C63.9271 38.3974 63.7003 38.1031 63.7633 37.7861C64.8469 32.7717 61.5963 29.4665 61.5585 29.4325C61.3191 29.2061 61.3443 28.8439 61.5963 28.6289C61.8482 28.4138 62.2514 28.4364 62.4908 28.6628C62.642 28.81 66.2076 32.3982 64.9981 37.9899C64.9477 38.2842 64.6831 38.4653 64.3933 38.4653Z" fill="black"/>
<path d="M67.021 29.6134C66.769 29.6134 66.5296 29.4775 66.4288 29.2511L65.1563 26.2402C65.0303 25.9459 65.194 25.6177 65.5216 25.5045C65.8492 25.3913 66.2146 25.5384 66.3406 25.8327L67.6131 28.8437C67.7391 29.138 67.5753 29.4662 67.2477 29.5794C67.1722 29.602 67.0966 29.6134 67.021 29.6134Z" fill="black"/>
<path d="M57.5559 30.6118C57.3039 30.6118 57.0645 30.476 56.9637 30.2496L55.6912 27.2386C55.5652 26.9443 55.729 26.6161 56.0565 26.5029C56.3841 26.3897 56.7495 26.5368 56.8755 26.8311L58.148 29.8421C58.274 30.1364 58.1102 30.4646 57.7826 30.5778C57.7071 30.6005 57.6315 30.6118 57.5559 30.6118Z" fill="black"/>
<path d="M65.7888 20.4806C65.7888 20.4806 63.8611 17.9112 60.1191 18.2168C56.3771 18.5224 54.4494 21.0806 54.4494 21.0806C54.4494 21.0806 56.7047 26.593 51.9421 30.0454C47.1796 33.4978 43.1604 32.9997 43.1604 32.9997L39.3428 32.1395L36.1047 27.5325L45.655 16.2585L58.7458 8.49353L66.4062 13.6098L65.7888 20.4806Z" fill="#AF4D04"/>
<path d="M61.2757 41.9197C59.7763 41.9197 57.6345 41.4217 56.3619 39.5087C56.1855 39.2371 56.2863 38.8975 56.5761 38.7277C56.8785 38.5692 57.2565 38.6598 57.4455 38.9201C58.9574 41.2066 61.8678 40.7425 61.9938 40.7199C62.334 40.6633 62.6616 40.867 62.7246 41.1727C62.7876 41.4783 62.5734 41.7726 62.2332 41.8292C61.9812 41.8971 61.6536 41.9197 61.2757 41.9197Z" fill="black"/>
<path d="M70.9095 35.9315C67.7218 35.9315 65.1138 33.2941 65.1138 30.0454C65.1138 26.7968 67.7092 24.1594 70.9095 24.1594C74.0971 24.1594 76.7052 26.7968 76.7052 30.0454C76.7052 33.2941 74.1097 35.9315 70.9095 35.9315ZM70.9095 25.2914C68.4148 25.2914 66.3737 27.4307 66.3737 30.0454C66.3737 32.6715 68.4022 34.7995 70.9095 34.7995C73.4167 34.7995 75.4452 32.6602 75.4452 30.0454C75.4452 27.4194 73.4167 25.2914 70.9095 25.2914Z" fill="white"/>
<path d="M56.5128 37.2558C52.8968 37.2558 49.9612 34.6184 49.9612 31.3698C49.9612 28.1212 52.8968 25.4838 56.5128 25.4838C60.1288 25.4838 63.0645 28.1212 63.0645 31.3698C63.0645 34.6071 60.1288 37.2558 56.5128 37.2558ZM56.5128 26.6044C53.5898 26.6044 51.2211 28.7437 51.2211 31.3585C51.2211 33.9732 53.6024 36.1126 56.5128 36.1126C59.4359 36.1126 61.8046 33.9732 61.8046 31.3585C61.8046 28.7437 59.4359 26.6044 56.5128 26.6044Z" fill="white"/>
<path d="M65.7742 30.6124H62.1456C61.7928 30.6124 61.5156 30.3634 61.5156 30.0464C61.5156 29.7295 61.7928 29.4805 62.1456 29.4805H65.7742C66.127 29.4805 66.4042 29.7295 66.4042 30.0464C66.4042 30.3634 66.1144 30.6124 65.7742 30.6124Z" fill="white"/>
<path d="M39.3323 32.7169C39.0803 32.7169 38.8409 32.581 38.7527 32.366C38.6267 32.0717 38.7779 31.7434 39.1055 31.6302C43.4901 30.0455 50.3693 30.7813 50.6591 30.8152C50.9993 30.8492 51.2513 31.1322 51.2009 31.4491C51.1631 31.7547 50.8355 31.9924 50.4953 31.9358C50.4323 31.9245 43.6539 31.2001 39.5717 32.6829C39.4835 32.6942 39.4079 32.7169 39.3323 32.7169Z" fill="white"/>
<path d="M58.4958 62.8382C54.2624 62.8382 49.3486 61.8761 44.5861 58.7293C44.3089 58.5482 44.2459 58.186 44.4475 57.937C44.6491 57.6879 45.0523 57.6313 45.3294 57.8124C56.9208 65.4529 69.4194 59.499 69.5454 59.4424C69.8478 59.2953 70.2383 59.3971 70.4021 59.6688C70.5659 59.9405 70.4525 60.2914 70.1502 60.4385C70.062 60.4725 65.1104 62.8382 58.4958 62.8382Z" fill="#F9BF30"/>
<path d="M43.4551 97.0001H2.51987C1.63791 97.0001 0.793759 96.8755 0 96.6378C8.75655 66.9587 33.5395 59.1824 33.5395 59.1824L43.4551 97.0001Z" fill="#507849"/>
</svg>
