<svg width="81" height="87" viewBox="0 0 81 87" fill="none" xmlns="http://www.w3.org/2000/svg">
<path d="M35.9594 10.9606C35.9594 10.9606 20.1316 -3.00168 6.1829 24.1189C-7.76579 51.2497 6.15486 68.2954 23.8899 60.9072C41.6249 53.519 36.9411 18.878 36.9411 18.878L35.9594 10.9606Z" fill="black"/>
<path d="M54.0922 19.8194C54.0922 19.8194 56.9343 12.6042 56.3921 9.43924C55.8499 6.27433 44.3225 -3.03724 34.6744 2.02052C25.0169 7.07828 24.5214 20.9795 26.7745 26.6987C32.5802 41.4242 44.2197 34.4634 44.2197 34.4634C44.2197 34.4634 62.8149 28.0217 54.0922 19.8194Z" fill="black"/>
<path d="M72.2928 86.996H22.0139C22.7244 67.7827 23.6874 52.1922 24.9962 49.8515C25.2954 49.302 25.7255 48.7525 26.2677 48.2029C26.3892 48.091 26.4547 48.0401 26.4547 48.0401C31.4377 43.2775 44.975 39.4511 56.2499 45.4247C56.2499 45.4247 56.2686 45.4247 56.2967 45.4451C59.1762 46.9716 61.906 49.1392 64.3087 52.0904C68.3288 57.0464 70.9746 70.8255 72.2928 86.996Z" fill="#FFA63B"/>
<path d="M52.5948 36.5885L52.6041 36.8734L52.6509 42.2874L52.6976 46.531C52.6976 46.531 53.0809 47.4978 48.528 47.4469C42.4324 47.3451 39.5903 44.4448 39.5903 44.4448V34.7058L41.4508 34.9806L52.5948 36.5885Z" fill="#F98875"/>
<path d="M52.5998 36.8727L52.6466 42.2867C49.6736 42.073 44.2418 40.9943 41.8204 36.0688C41.6334 35.6719 41.5026 35.3055 41.4558 35.0002L52.5811 36.7913L52.5998 36.8727Z" fill="black"/>
<path d="M53.2371 10.8887C53.2371 10.8887 59.5757 24.6271 57.9303 32.6462C56.2849 40.6654 49.6097 39.8106 45.5803 38.5181C41.5509 37.2257 39.5782 34.6917 39.5782 34.6917C39.5782 34.6917 35.9508 36.2691 33.2864 32.6768C30.6313 29.0743 31.9401 24.6882 33.9969 23.5891C36.063 22.4798 38.6527 23.9962 38.6527 23.9962L36.4837 20.0273C36.4931 20.0069 43.7385 -1.25194 53.2371 10.8887Z" fill="#F98875"/>
<path d="M38.6847 23.9948C38.6847 23.9948 44.1913 20.5552 46.0424 16.0266C47.8935 11.498 47.8748 9.27952 47.8748 9.27952C47.8748 9.27952 48.8284 12.1391 50.9132 12.7192C52.998 13.2993 54.2788 13.3094 54.2788 13.3094L55.7653 17.3699L54.4845 7.58003C54.4845 7.58003 48.7723 4.61865 48.0244 4.65935C47.2765 4.70006 37.9462 7.02032 37.4226 7.66144C36.9084 8.30257 34.2814 16.4133 34.2814 16.4133L34.2346 20.0158L38.6847 23.9948Z" fill="black"/>
<path d="M26.1271 86.9983H3.55859C11.4398 61.6383 24.5471 49.6706 26.2579 48.2052C26.3795 48.0932 26.4449 48.0424 26.4449 48.0424C26.4449 48.0424 25.8746 68.0292 26.1271 86.9983Z" fill="#FFA63B"/>
<path d="M80.7222 85.8704C80.5726 85.9926 80.4044 86.1045 80.2454 86.1961C79.376 86.7151 78.3943 87 77.3379 87H60.0142L56.2466 45.4287C56.2466 45.4287 56.2653 45.4287 56.2933 45.4491C57.0412 45.6424 72.2707 49.8962 80.7222 85.8704Z" fill="#FFA63B"/>
<path d="M48.4877 47.9323C48.2166 47.9323 47.9361 47.9323 47.6463 47.9221C41.9154 47.739 38.316 44.2077 38.1664 44.0652C37.9795 43.8719 37.9608 43.5564 38.1384 43.3427C38.316 43.1392 38.6058 43.1188 38.8022 43.3122C38.8396 43.3427 42.3081 46.7417 47.6744 46.9045C52.8537 47.0673 54.0036 45.6731 54.013 45.6629C54.1719 45.4492 54.4617 45.4187 54.6674 45.5917C54.8637 45.7647 54.9105 46.07 54.7609 46.2837C54.6394 46.4567 53.4801 47.9323 48.4877 47.9323Z" fill="#507849"/>
<path d="M38.737 31.0277C38.6342 31.0277 38.5313 30.987 38.4378 30.9157L34.0999 27.0588C33.9036 26.8858 33.8662 26.5602 34.0344 26.3465C34.1934 26.1327 34.4925 26.092 34.6889 26.2752L39.0268 30.1321C39.2231 30.3051 39.2605 30.6308 39.0922 30.8445C39.0081 30.9666 38.8679 31.0277 38.737 31.0277Z" fill="black"/>
<path d="M34.7258 30.2747C34.5107 30.2747 34.3144 30.1119 34.2677 29.8677C34.2209 29.5929 34.3798 29.3283 34.6323 29.2673L37.0443 28.7381C37.2967 28.677 37.5398 28.8602 37.5959 29.135C37.6426 29.4097 37.4837 29.6743 37.2313 29.7354L34.8192 30.2646C34.7912 30.2747 34.7538 30.2747 34.7258 30.2747Z" fill="black"/>
<path d="M47.5589 23.771C47.3438 23.771 47.1475 23.598 47.1008 23.3639L46.5959 20.5857C46.5679 20.4229 46.6146 20.2499 46.7174 20.1379L47.7271 18.9982C47.9048 18.7946 48.2039 18.7845 48.3909 18.988C48.5779 19.1813 48.5872 19.507 48.4003 19.7105L47.5682 20.6569L48.0263 23.1807C48.0731 23.4555 47.9141 23.7201 47.6617 23.7812C47.6243 23.7608 47.5869 23.771 47.5589 23.771Z" fill="black"/>
<path d="M54.5305 22.9484C54.3154 22.9484 54.1191 22.7754 54.0724 22.5413L53.5769 19.7631C53.5488 19.6003 53.5956 19.4273 53.6984 19.3153L54.7081 18.1756C54.8857 17.972 55.1849 17.972 55.3719 18.1654C55.5588 18.3587 55.5682 18.6844 55.3812 18.8879L54.5492 19.8343L55.0073 22.3581C55.054 22.6329 54.8951 22.8975 54.6426 22.9585C54.5959 22.9484 54.5679 22.9484 54.5305 22.9484Z" fill="black"/>
<path d="M51.1212 34.5262C49.6066 34.5262 47.9706 31.3104 47.6434 30.6489C47.5592 30.4759 47.5779 30.2622 47.6901 30.0994C47.8023 29.9366 47.9893 29.8653 48.1669 29.9162L52.7573 31.056C52.9816 31.1069 53.1312 31.3409 53.1219 31.5852C53.1125 31.6971 52.9349 34.3023 51.2521 34.516C51.2147 34.5262 51.1679 34.5262 51.1212 34.5262ZM49.0083 31.1679C49.7656 32.4604 50.6631 33.5594 51.1492 33.5085C51.7663 33.4271 52.028 32.5112 52.1309 31.9413L49.0083 31.1679Z" fill="black"/>
<path d="M53.4032 29.3589C53.3565 29.3589 53.3191 29.3488 53.2723 29.3386C53.0199 29.2674 52.8797 28.9824 52.9451 28.7076C53.8987 25.0441 51.6362 22.6831 51.5428 22.5813C51.3558 22.388 51.3464 22.0725 51.5241 21.8588C51.7017 21.6553 51.9915 21.6451 52.1878 21.8283C52.3 21.9402 54.9645 24.6981 53.8613 28.9722C53.7959 29.2063 53.6089 29.3589 53.4032 29.3589Z" fill="black"/>
<path d="M44.9811 19.5104C44.925 19.5104 44.8783 19.5003 44.8222 19.4799C44.5791 19.3883 44.4576 19.0932 44.5417 18.8286C44.8315 17.9432 45.9628 16.376 48.1504 16.8238C48.4029 16.8747 48.5711 17.1393 48.5244 17.414C48.4777 17.6888 48.2346 17.872 47.9822 17.8211C46.0843 17.4242 45.486 18.9914 45.4299 19.1644C45.3457 19.3883 45.1681 19.5104 44.9811 19.5104Z" fill="black"/>
<path d="M52.8169 17.5333C52.7327 17.5333 52.6392 17.5027 52.5644 17.4518C52.3494 17.2992 52.284 16.9939 52.4242 16.7497C52.4429 16.709 52.9945 15.7829 53.9574 15.6404C54.5745 15.5488 55.2102 15.7931 55.8179 16.3833C56.0142 16.5665 56.0329 16.8921 55.8553 17.1058C55.687 17.3195 55.3878 17.3399 55.1915 17.1465C54.7988 16.77 54.4249 16.6072 54.0883 16.6479C53.5554 16.7293 53.2095 17.2992 53.2095 17.2992C53.116 17.4518 52.9664 17.5333 52.8169 17.5333Z" fill="black"/>
<path d="M64.2007 86.9581C64.0978 86.9581 64.0044 86.9275 63.9109 86.8563C63.7052 86.6833 63.6678 86.3678 63.8267 86.1439C69.8101 77.7381 63.8361 63.7249 63.7706 63.5825C63.6584 63.328 63.7613 63.0227 63.995 62.9006C64.2287 62.7785 64.5092 62.8904 64.6214 63.1449C64.8832 63.7453 70.9039 77.8602 64.5653 86.7647C64.4811 86.897 64.3409 86.9581 64.2007 86.9581Z" fill="#507849"/>
</svg>
