<svg width="104" height="108" viewBox="0 0 104 108" fill="none" xmlns="http://www.w3.org/2000/svg">
<path d="M66.0208 107.367H28.3652L36.5544 54.3213L62.779 50.6416L66.0208 107.367Z" fill="#507849"/>
<path d="M42.0894 50.6416C41.8837 51.198 41.7144 51.6911 41.6177 52.159C41.6177 52.159 38.2307 63.3752 34.2268 94.7982C33.6825 99.0975 33.1866 103.321 32.7511 107.367H15.8647C18.0542 86.3007 21.0419 62.0727 23.4854 58.6712C26.836 54.0178 37.2388 51.552 42.0894 50.6416Z" fill="#FFA63B"/>
<path d="M104 106.647C103.02 107.115 101.919 107.368 100.77 107.368H56.4617L58.5785 55.1184L58.2761 48.6568C71.4005 48.2016 81.2832 52.7917 93.7907 70.7224C99.9235 79.5107 102.754 93.5973 104 106.647Z" fill="#FFA63B"/>
<path d="M59.8531 41.5137L58.5829 55.1198C58.5829 55.1198 55.8734 58.7868 48.1923 58.6604C42.4708 58.5592 40.6079 57.0165 40.6079 57.0165L42.0474 50.2008L43.4505 43.5622L57.4943 41.8045L59.8531 41.5137Z" fill="#F98875"/>
<path d="M57.4843 41.8125C57.4117 42.1792 57.2423 42.6091 56.9883 43.0897C53.4441 49.5892 45.3396 50.2468 42.0374 50.2088L43.4405 43.5702L57.4843 41.8125Z" fill="black"/>
<path d="M43.4496 12.2521C43.4496 12.2521 35.0186 28.6148 36.833 38.3768C38.6353 48.1262 47.0664 47.3422 52.1831 45.9259C57.2998 44.5097 59.8642 41.5255 59.8642 41.5255C59.8642 41.5255 64.3761 43.5739 67.8356 39.3252C71.2952 35.0765 69.7952 29.7276 67.2308 28.3114C64.6664 26.8951 61.3642 28.6275 61.3642 28.6275L64.2189 23.9109C64.2189 23.8982 55.7878 -2.06209 43.4496 12.2521Z" fill="#F98875"/>
<path d="M61.1926 36.1032C60.9869 36.1032 60.7813 35.9894 60.6724 35.7871C60.5031 35.4836 60.5999 35.1042 60.8902 34.9272L67.1681 31.121C67.4584 30.944 67.8213 31.0452 67.9906 31.3487C68.16 31.6521 68.0632 32.0315 67.7729 32.2085L61.495 36.0147C61.4103 36.0779 61.3014 36.1032 61.1926 36.1032Z" fill="black"/>
<path d="M66.5448 36.5713C66.4722 36.5713 66.4118 36.5587 66.3392 36.5334L62.5772 35.1045C62.2627 34.9907 62.1055 34.624 62.2143 34.2952C62.3232 33.9664 62.674 33.802 62.9885 33.9158L66.7504 35.3447C67.0649 35.4585 67.2222 35.8253 67.1133 36.154C67.0286 36.4196 66.7867 36.5713 66.5448 36.5713Z" fill="black"/>
<path d="M53.7198 20.6392C53.5142 20.6392 53.3206 20.538 53.2118 20.3484C51.8086 17.9964 49.7039 18.8562 49.6071 18.8942C49.3047 19.0333 48.9418 18.8689 48.8208 18.5528C48.6999 18.2366 48.833 17.8699 49.1475 17.7308C50.224 17.263 52.6675 17.0606 54.24 19.6782C54.4214 19.969 54.3367 20.361 54.0464 20.5507C53.9376 20.6139 53.8287 20.6392 53.7198 20.6392Z" fill="black"/>
<path d="M41.1602 18.702C40.9667 18.702 40.7731 18.6008 40.6642 18.4238C40.4828 18.1329 40.5554 17.7409 40.8336 17.5513C42.9746 16.0339 44.9463 17.5007 45.0189 17.5639C45.285 17.7662 45.3455 18.1709 45.1519 18.4491C44.9584 18.7273 44.5834 18.7905 44.3052 18.5882C44.2447 18.5376 42.9262 17.6018 41.4989 18.6008C41.39 18.6767 41.2691 18.702 41.1602 18.702Z" fill="black"/>
<path d="M42.9009 34.2033C42.6226 34.2033 42.3686 33.9884 42.3081 33.6975C41.2558 28.0199 44.3645 24.3781 44.4976 24.2264C44.7274 23.9735 45.1023 23.9482 45.3563 24.1885C45.5983 24.4161 45.6225 24.8207 45.3927 25.0863C45.3685 25.1242 42.5621 28.4372 43.4936 33.4699C43.554 33.8113 43.3484 34.1401 43.0097 34.216C42.9855 34.1907 42.9371 34.2033 42.9009 34.2033Z" fill="black"/>
<path d="M40.5937 25.2503C40.5211 25.2503 40.4485 25.2377 40.3759 25.2124C40.0614 25.0859 39.9042 24.7192 40.0252 24.3904L41.138 21.3556C41.259 21.0269 41.6098 20.8625 41.9122 20.9889C42.2267 21.1154 42.3839 21.4821 42.2629 21.8109L41.1501 24.8457C41.0654 25.0986 40.8356 25.2503 40.5937 25.2503Z" fill="black"/>
<path d="M48.8268 26.2667C48.7542 26.2667 48.6817 26.254 48.6091 26.2287C48.2946 26.1023 48.1374 25.7356 48.2583 25.4068L49.359 22.372C49.48 22.0432 49.8308 21.8788 50.1332 22.0053C50.4477 22.1317 50.6049 22.4984 50.484 22.8272L49.3833 25.862C49.2986 26.1149 49.0687 26.2667 48.8268 26.2667Z" fill="black"/>
<path d="M41.712 15.9563C41.712 15.9563 43.3813 13.3641 46.6352 13.6676C49.889 13.9711 51.5583 16.5633 51.5583 16.5633C51.5583 16.5633 49.5987 22.1398 53.7356 25.6172C57.8725 29.1072 61.3684 28.6014 61.3684 28.6014L64.6828 27.7415L67.489 23.0881L59.2032 11.7076L48.2923 5.7644L41.6394 10.9362L41.712 15.9563Z" fill="black"/>
<path d="M45.6191 37.682C45.1232 37.682 44.7965 37.6188 44.7481 37.6061C44.4215 37.5429 44.2039 37.2141 44.2764 36.8727C44.3369 36.5313 44.6635 36.3037 44.978 36.3669C45.0868 36.3922 47.5787 36.8474 48.873 34.5713C49.0423 34.2678 49.4173 34.1667 49.6955 34.3564C49.9858 34.5334 50.0826 34.9254 49.9011 35.2289C48.7036 37.3532 46.7441 37.682 45.6191 37.682Z" fill="black"/>
<path d="M40.0623 20.0031C40.0623 20.0031 41.6349 15.4761 43.8243 12.7701C46.0258 10.0641 54.5658 14.414 57.493 20.0031C60.4082 25.6048 61.3517 28.6144 61.3517 28.6144C61.3517 28.6144 65.6217 26.667 67.2184 28.2982C68.8272 29.9295 68.8272 29.9295 68.8272 29.9295C68.8272 29.9295 72.5165 24.2898 72.8189 23.0885C73.1093 21.8872 73.1092 21.8872 73.1092 21.8872C73.1092 21.8872 73.9923 22.5953 75.468 20.6986C76.9438 18.8018 75.7946 7.35801 63.5653 1.79419C51.3239 -3.76964 44.0178 5.01867 41.151 9.02716C38.2963 13.0609 40.0623 20.0031 40.0623 20.0031Z" fill="#507849"/>
<path d="M47.5195 59.4712C43.1406 59.4712 40.3948 57.6503 40.2617 57.5491C39.9835 57.3594 39.8988 56.9674 40.0802 56.6766C40.2617 56.3858 40.6367 56.2972 40.9149 56.4869C40.9512 56.5122 44.6163 58.9148 50.108 57.979C55.7932 56.9927 58.1278 54.097 58.152 54.0717C58.3697 53.8062 58.7447 53.7556 58.9988 53.9832C59.2528 54.1982 59.3012 54.6028 59.0835 54.8684C58.9746 55.0074 56.4707 58.1561 50.3016 59.2183C49.3218 59.3953 48.3904 59.4712 47.5195 59.4712Z" fill="white"/>
<path d="M73.0998 22.5327C72.8578 22.5327 72.628 22.3809 72.5313 22.1154L71.5273 19.2576C71.4063 18.9288 71.5756 18.5621 71.8901 18.4483C72.2046 18.3345 72.5554 18.4989 72.6643 18.8277L73.6683 21.6854C73.7893 22.0142 73.6199 22.3809 73.3054 22.4947C73.2449 22.52 73.1723 22.5327 73.0998 22.5327Z" fill="#FFA63B"/>
<path d="M23.0917 107.368H4.00385C2.54021 107.368 1.17333 106.951 0 106.217C4.02804 93.6606 13.4873 66.929 23.4788 58.6717C32.938 50.8444 27.1319 86.5288 23.0917 107.368Z" fill="#FFA63B"/>
<path d="M74.2633 108C74.2271 108 74.2028 108 74.1666 107.987C73.9004 107.949 73.6948 107.722 73.6585 107.444C73.465 105.952 71.9046 92.8639 76.8277 91.8776C77.7592 91.6879 78.2914 92.0799 78.5696 92.4466C80.4203 94.9503 75.7633 105.534 74.8077 107.633C74.7109 107.861 74.4932 108 74.2633 108ZM77.2995 93.0915C77.239 93.0915 77.1543 93.1041 77.0576 93.1168C74.4085 93.6605 74.3359 100.615 74.6383 104.965C76.61 100.236 78.497 94.4192 77.614 93.2179C77.5898 93.18 77.5172 93.0915 77.2995 93.0915Z" fill="white"/>
</svg>
