<svg width="104" height="108" viewBox="0 0 104 108" fill="none" xmlns="http://www.w3.org/2000/svg">
<path d="M42.9966 75.2756C42.9966 75.2756 28.1344 65.612 29.9803 60.018C31.8142 54.424 43.0323 47.6835 54.5601 47.6835C66.0879 47.6835 78.8304 53.7814 79.1281 59.8794C79.4258 65.9648 42.9966 75.2756 42.9966 75.2756Z" fill="#AF4D04"/>
<path d="M104 103.011C103.226 104.926 101.785 106.463 99.9867 107.294C99.8914 107.345 99.7962 107.383 99.689 107.42C98.8077 107.798 97.855 108 96.8428 108H1.57194C1.03604 108 0.512081 107.937 0 107.836C2.84622 90.7392 11.8255 68.2119 21.7098 63.1093C32.9041 57.2885 35.9885 59.0902 40.0971 58.75C44.2056 58.4224 55.8406 57.4019 63.8671 58.9264C71.9056 60.4383 75.3949 54.3529 87.4824 65.6543C98.6172 76.0612 102.309 89.7816 104 103.011Z" fill="#F9BF30"/>
<path d="M62.1835 45.5781L60.8735 59.7143C60.8735 59.7143 58.0869 63.5319 50.2032 63.3933C44.3321 63.2925 42.4148 61.6924 42.4148 61.6924L43.8915 54.6117L45.3324 47.7074L59.7541 45.8805L62.1835 45.5781Z" fill="#F98575"/>
<path d="M59.7483 45.8912C59.6769 46.2692 59.4982 46.7102 59.2362 47.2141C55.5921 53.9673 47.2798 54.6476 43.8857 54.6098L45.3267 47.7055L59.7483 45.8912Z" fill="black"/>
<path d="M45.3169 15.1803C45.3169 15.1803 36.6591 32.1892 38.5169 42.3188C40.3747 52.4611 49.0205 51.6422 54.2842 50.1681C59.536 48.694 62.1679 45.5946 62.1679 45.5946C62.1679 45.5946 66.8004 47.7239 70.3612 43.3016C73.9219 38.8793 72.3738 33.3231 69.7419 31.8616C67.1101 30.3875 63.716 32.1891 63.716 32.1891L66.6575 27.2881C66.6456 27.2755 57.9998 0.300769 45.3169 15.1803Z" fill="#F98575"/>
<path d="M63.7146 32.1764C63.7146 32.1764 57.26 30.2992 55.3546 24.4154C53.4372 18.5316 55.3546 15.092 55.3546 15.092C55.3546 15.092 52.9728 13.051 49.15 14.1093C45.3273 15.1676 43.3743 19.4261 43.3743 19.4261C43.3743 19.4261 34.6808 10.9217 38.2654 4.78593C41.8499 -1.34984 48.3402 4.78593 48.3402 4.78593C48.3402 4.78593 47.8758 -1.58923 57.3791 0.376235C66.8823 2.3417 66.8823 15.092 66.8823 15.092C66.8823 15.092 70.586 11.4131 73.3726 19.9931C76.1593 28.5731 70.8122 32.7434 70.8122 32.7434C70.8122 32.7434 68.4186 31.1181 63.7146 32.1764Z" fill="black"/>
<path d="M63.5602 39.9363C63.3577 39.9363 63.1553 39.8229 63.0481 39.6213C62.8814 39.319 62.9766 38.941 63.2625 38.7646L69.7051 34.8085C69.991 34.6321 70.3483 34.7329 70.515 35.0353C70.6817 35.3376 70.5864 35.7156 70.3006 35.892L63.8579 39.8481C63.7626 39.9111 63.6674 39.9363 63.5602 39.9363Z" fill="black"/>
<path d="M69.0597 40.4281C68.9882 40.4281 68.9287 40.4155 68.8572 40.3903L64.9868 38.9036C64.6772 38.7902 64.5224 38.4249 64.6296 38.0973C64.7367 37.7697 65.0821 37.6059 65.3917 37.7193L69.2621 39.206C69.5717 39.3194 69.7266 39.6848 69.6194 40.0123C69.5241 40.2643 69.2978 40.4281 69.0597 40.4281Z" fill="black"/>
<path d="M55.8942 23.8611C55.6917 23.8611 55.5012 23.7603 55.394 23.5713C53.9411 21.1145 51.7618 22.009 51.6665 22.0594C51.3688 22.198 51.0115 22.0342 50.8924 21.7192C50.7733 21.4042 50.9043 21.0389 51.214 20.9003C52.3096 20.4089 54.8104 20.2073 56.4062 22.9161C56.5849 23.2059 56.5015 23.5965 56.2157 23.7855C56.1085 23.8359 56.0013 23.8611 55.8942 23.8611Z" fill="black"/>
<path d="M43.0022 21.855C42.8117 21.855 42.6211 21.7542 42.502 21.5778C42.3234 21.2881 42.3948 20.8975 42.6687 20.7085C44.86 19.1462 46.8607 20.6581 46.944 20.7211C47.206 20.9227 47.2656 21.3259 47.075 21.603C46.8845 21.8802 46.5034 21.9432 46.2414 21.7416C46.17 21.6912 44.8004 20.7085 43.3356 21.7542C43.2285 21.8172 43.1094 21.855 43.0022 21.855Z" fill="black"/>
<path d="M54.8422 29.996C54.6516 29.996 54.4611 29.8952 54.342 29.7062C54.342 29.6936 53.6394 28.5975 52.4485 28.2699C51.4839 28.0053 50.9123 29.1015 50.8884 29.1392C50.7336 29.4416 50.3645 29.555 50.0786 29.3912C49.7928 29.2274 49.6856 28.8495 49.8405 28.5471C50.1977 27.8415 51.2576 26.632 52.7581 27.0478C54.4016 27.5014 55.3066 28.9503 55.3423 29.0133C55.521 29.303 55.4376 29.6936 55.1637 29.8826C55.0684 29.9582 54.9494 29.996 54.8422 29.996Z" fill="black"/>
<path d="M43.8968 28.6708C43.6586 28.6708 43.4324 28.5196 43.349 28.2803C43.2418 28.0031 42.8369 27.2345 42.2534 27.0455C41.8128 26.9069 41.1101 27.6251 40.8481 27.9905C40.6457 28.2677 40.2765 28.3181 40.0145 28.1165C39.7525 27.9023 39.7049 27.5117 39.8954 27.2345C40.0264 27.0455 41.2292 25.4077 42.5987 25.8486C43.8254 26.2518 44.397 27.6629 44.4565 27.8267C44.5756 28.1543 44.4327 28.5196 44.1231 28.6456C44.0397 28.6582 43.9683 28.6708 43.8968 28.6708Z" fill="black"/>
<path d="M49.4497 43.1264C48.4493 43.1264 47.6276 42.7737 47.5681 42.7485C47.3657 42.6603 47.2227 42.4461 47.1989 42.2193C47.187 41.9799 47.2942 41.7531 47.4847 41.6271L51.9863 38.7671C52.1887 38.6411 52.4269 38.6537 52.6174 38.7797C52.808 38.9057 52.9152 39.1451 52.8914 39.3845C52.7246 40.9594 52.1649 42.0681 51.2122 42.6603C50.6525 43.013 50.0213 43.1264 49.4497 43.1264ZM49.4259 41.8665C49.807 41.8539 50.2476 41.7909 50.6168 41.5641C50.9383 41.3626 51.1884 41.0476 51.3789 40.6318L49.4259 41.8665Z" fill="black"/>
<path d="M44.7883 37.9578C44.5144 37.9578 44.2644 37.7436 44.2048 37.4538C43.1211 31.57 46.3127 27.7903 46.4437 27.6265C46.67 27.3745 47.0391 27.3493 47.2892 27.5887C47.5274 27.8281 47.5512 28.2187 47.3249 28.4833C47.3011 28.5211 44.4073 31.9732 45.3719 37.2145C45.4314 37.5546 45.229 37.8822 44.8955 37.9578C44.8717 37.9452 44.8241 37.9578 44.7883 37.9578Z" fill="black"/>
<path d="M30.1371 59.5769C30.1371 59.5769 28.8509 65.2717 35.3293 69.3161C41.8197 73.3478 50.0487 75.2754 50.0487 75.2754C50.0487 75.2754 63.7082 71.7225 72.4493 67.1868C79.1301 63.722 80.9641 59.9549 78.094 56.9941C75.224 54.0333 65.1968 54.0333 65.1968 54.0333C65.1968 54.0333 58.5992 56.2886 55.36 58.3926C52.1208 60.5093 50.0487 61.4668 50.0487 61.4668C50.0487 61.4668 44.5706 57.1957 40.3668 56.2382C36.163 55.2806 36.163 55.2806 36.163 55.2806L30.1371 59.5769Z" fill="#AF4D04"/>
<path d="M40.5399 87.4491C40.4804 87.4491 40.4209 87.4365 40.3613 87.4239C40.0517 87.3231 39.873 86.9577 39.9802 86.6301L43.1361 76.3241C43.2313 75.9965 43.5648 75.8075 43.8863 75.9209C44.196 76.0217 44.3746 76.3871 44.2674 76.7146L41.1115 87.0207C41.0163 87.2853 40.79 87.4491 40.5399 87.4491Z" fill="#AF4D04"/>
<path d="M62.183 88.105C61.9091 88.105 61.6709 87.9034 61.5995 87.6136L59.182 76.6524C59.1105 76.3122 59.301 75.972 59.6226 75.8964C59.9441 75.8209 60.2657 76.0224 60.3371 76.3626L62.7546 87.3239C62.8261 87.664 62.6355 88.0042 62.314 88.0798C62.2664 88.105 62.2306 88.105 62.183 88.105Z" fill="#AF4D04"/>
</svg>
