<svg width="58" height="58" viewBox="0 0 58 58" fill="none" xmlns="http://www.w3.org/2000/svg">
<path d="M55.951 13.7139C47.957 18.168 39.9982 22.7042 32.0276 27.2287C31.887 27.299 31.3947 27.592 30.7617 27.9554C30.1757 28.2953 29.4607 28.7056 28.816 29.0806C28.7339 29.0338 28.6753 28.9986 28.6636 28.9869C28.1361 28.6704 27.4915 28.2953 26.9288 27.9671C26.3545 27.6272 25.8622 27.3342 25.6629 27.2287C17.6924 22.7159 9.73355 18.168 1.73956 13.7139C0.649466 13.1044 0.227497 12.3777 0.321269 10.8304C0.438482 9.09568 0.344707 7.33746 0.344707 5.57925C0.356429 1.53537 2.44284 -0.281449 5.25597 1.31266C12.2302 5.28621 19.1693 9.34182 26.1904 13.1864C27.2805 13.7842 28.1596 14.5227 28.8511 15.4018C29.5427 14.5227 30.4335 13.7842 31.5236 13.1864C38.533 9.34182 45.4838 5.28621 52.4463 1.31266C55.2594 -0.281449 57.3459 1.53537 57.3576 5.57925C57.3576 7.32574 57.2638 9.08396 57.381 10.8304C57.4748 12.3777 57.0411 13.1044 55.951 13.7139Z" fill="#F69E1E"/>
<path d="M57.3667 47.5652C57.2495 50.8706 57.3433 54.1878 57.3433 57.8331C52.1507 54.8793 47.2395 52.0896 42.3282 49.2999C37.8389 46.7447 33.3496 44.166 28.8486 41.6459C24.3476 44.1542 19.8583 46.733 15.3573 49.2999C10.446 52.0896 5.53472 54.8793 0.342139 57.8331C0.342139 54.1878 0.435914 50.8706 0.3187 47.5652C0.213208 44.6817 1.06887 42.9235 3.14355 41.8568C5.98013 40.4034 8.7581 38.7038 11.7236 37.0042C11.2665 36.7229 11.0086 36.5353 10.739 36.3712C8.00794 34.824 5.26513 33.2651 2.52232 31.7296C1.0337 30.9091 0.330418 29.4673 0.342139 27.3692C0.353861 24.3802 0.353863 21.3913 0.353863 18.4023V16.2573C0.365584 16.269 0.389028 16.2808 0.40075 16.2808C0.576571 16.9958 1.01026 17.4646 1.73699 17.8632C9.73098 22.3173 17.6898 26.8535 25.6604 31.3779C25.8596 31.4951 26.3519 31.7764 26.9263 32.1164C27.4889 32.4446 28.1336 32.8197 28.661 33.1361C28.6728 33.1479 28.7314 33.1713 28.8134 33.2299C29.4581 32.8548 30.1731 32.4446 30.7592 32.1047C31.3921 31.7413 31.8844 31.46 32.0251 31.3779C39.9956 26.8652 47.9545 22.3173 55.9484 17.8632C56.6752 17.4646 57.1089 17.0075 57.273 16.2925C57.2847 16.2808 57.3081 16.2691 57.3316 16.2691V18.4141C57.3316 21.403 57.3316 24.392 57.3433 27.3809C57.355 29.4791 56.64 30.9208 55.1631 31.7413C52.4203 33.2651 49.6892 34.824 46.9464 36.383C46.6768 36.5353 46.4189 36.7229 45.9618 37.0159C48.9273 38.7038 51.6936 40.4151 54.5302 41.8686C56.6166 42.9118 57.4722 44.6817 57.3667 47.5652Z" fill="#EB1D25"/>
</svg>
