<svg width="34" height="27" viewBox="0 0 34 27" fill="none" xmlns="http://www.w3.org/2000/svg">
<rect opacity="0.5" x="0.59668" y="0.0957031" width="32.7312" height="26.0827" rx="4.0914" fill="white"/>
<path d="M7.50092 4.04028C7.50092 4.04028 12.1037 2.25002 12.1037 6.5974C12.1037 10.9448 6.9895 9.41024 6.9895 9.41024M6.9895 9.41024H0.59668M6.9895 9.41024V15.8031M6.9895 15.8031H0.59668M6.9895 15.8031C6.9895 15.8031 13.638 15.8031 13.1266 19.8945C12.6152 23.9859 8.77948 23.2187 8.77948 23.2187" stroke="white" stroke-width="2.0457"/>
<path d="M26.5904 22.5531C26.5904 22.5531 22.0199 24.4244 21.9431 20.0776C21.8664 15.7309 27.0069 17.1749 27.0069 17.1749M27.0069 17.1749L33.3987 17.062M27.0069 17.1749L26.894 10.7831M26.894 10.7831L33.2858 10.6702M26.894 10.7831C26.894 10.7831 20.2465 10.9005 20.6856 6.80073C21.1247 2.70093 24.9733 3.4002 24.9733 3.4002" stroke="white" stroke-width="2.0457"/>
</svg>
