<svg width="352" height="100" viewBox="0 0 352 100" fill="none" xmlns="http://www.w3.org/2000/svg">
<g clip-path="url(#clip0_48_5617)">
<path d="M0 37.8387H-1V38.8387V100V101H0H352H353V100V48.9032V47.9032H352C348.365 47.9032 345.484 45.6598 342.269 43.1043L342.149 43.0086C339.085 40.5724 335.688 37.871 331.294 37.871C327.581 37.871 324.661 36.0691 321.472 34.0718L321.383 34.0162C318.287 32.0769 314.919 29.9677 310.588 29.9677C308.895 29.9677 307.316 29.1883 305.718 27.86C304.111 26.5243 302.592 24.7272 301 22.8393L300.965 22.7985C299.413 20.9568 297.788 19.0297 296.031 17.5696C294.253 16.0915 292.232 15 289.882 15C287.431 15 285.38 16.4974 283.634 18.4135C281.888 20.3292 280.272 22.858 278.718 25.2924L278.687 25.3407C277.096 27.8311 275.566 30.2209 273.947 31.9972C272.317 33.7857 270.768 34.7581 269.176 34.7581C265.008 34.7581 261.75 35.5906 258.606 36.3945L258.576 36.4021C255.42 37.2088 252.375 37.9839 248.471 37.9839C244.721 37.9839 241.78 36.38 238.601 34.6246L238.525 34.5829C235.416 32.8661 232.066 31.0161 227.765 31.0161C223.553 31.0161 220.264 32.1555 217.127 33.2421L217.084 33.2567C213.924 34.3512 210.915 35.3871 207.059 35.3871C205.355 35.3871 203.773 34.6276 202.176 33.3425C200.57 32.0494 199.052 30.3096 197.46 28.4806L197.426 28.4411C195.873 26.6569 194.247 24.7889 192.49 23.3738C190.709 21.9401 188.692 20.8871 186.353 20.8871C181.971 20.8871 178.579 23.4673 175.509 25.8029L175.395 25.8895C172.186 28.3299 169.297 30.4839 165.647 30.4839C161.523 30.4839 158.301 31.0109 155.151 31.5262L155.133 31.5292C151.979 32.0452 148.895 32.5484 144.941 32.5484C140.71 32.5484 137.407 33.8319 134.275 35.049L134.226 35.0679C131.063 36.2968 128.069 37.4516 124.235 37.4516C120.071 37.4516 116.818 38.2499 113.672 39.0218L113.644 39.0288C110.488 39.8032 107.439 40.5484 103.529 40.5484C101.867 40.5484 100.299 39.7099 98.6929 38.2482C97.0826 36.7831 95.5604 34.8114 93.9688 32.7447L93.9353 32.7012C92.3821 30.6844 90.7601 28.5781 89.006 26.9821C87.2355 25.3711 85.204 24.1613 82.8235 24.1613C78.4046 24.1613 74.998 27.1228 71.9489 29.7736L71.8146 29.8904C68.5882 32.6944 65.7199 35.129 62.1177 35.129C57.7677 35.129 54.3904 37.4085 51.3032 39.4922L51.2053 39.5582C48.0092 41.715 45.102 43.6452 41.4118 43.6452C39.6611 43.6452 38.0579 42.9786 36.4689 41.8857C34.8654 40.7829 33.3508 39.3001 31.7593 37.738L31.7248 37.704C30.1717 36.1796 28.5425 34.5804 26.7821 33.3696C24.9941 32.1399 22.9983 31.2581 20.7059 31.2581C16.4172 31.2581 13.0749 33.0011 9.96079 34.6251L9.89057 34.6617C6.71479 36.3177 3.76525 37.8387 0 37.8387Z" fill="url(#paint0_linear_48_5617)" fill-opacity="0.05" stroke="#FF3636" strokeWidth="2"/>
</g>
<defs>
<linearGradient id="paint0_linear_48_5617" x1="176" y1="20.2579" x2="176" y2="99.9998" gradientUnits="userSpaceOnUse">
<stop stop-color="#FF3636"/>
<stop offset="1" stop-color="#FE9431" stop-opacity="0"/>
</linearGradient>
<clipPath id="clip0_48_5617">
<rect width="352" height="100" fill="white"/>
</clipPath>
</defs>
</svg>
