<svg width="352" height="100" viewBox="0 0 352 100" fill="none" xmlns="http://www.w3.org/2000/svg">
<g clip-path="url(#clip0_48_6313)">
<path d="M352 11H353V12V100V101H352H0H-1V100V59.6368V58.6368H0C3.74219 58.6368 6.67792 56.9913 9.85928 55.1854L9.93759 55.141C13.0441 53.3774 16.3981 51.4734 20.7059 51.4734C24.5995 51.4734 27.6371 50.6418 30.7936 49.7734L30.826 49.7645C33.9693 48.8998 37.2336 48.0019 41.4118 48.0019C45.6054 48.0019 48.8814 49.0104 52.022 49.9772L52.0589 49.9885C55.2169 50.9607 58.2415 51.8867 62.1176 51.8867C66.3812 51.8867 69.7073 53.4262 72.8302 54.8717L72.8906 54.8996C76.0601 56.3666 79.0285 57.7276 82.8235 57.7276C86.7701 57.7276 89.8482 57.1848 93.0023 56.6271L93.0222 56.6235C96.1716 56.0666 99.3985 55.4959 103.529 55.4959C107.496 55.4959 110.59 55.0646 113.744 54.6239L113.76 54.6217C116.911 54.1814 120.123 53.7326 124.235 53.7326C128.392 53.7326 131.639 54.477 134.785 55.1983L134.812 55.2044C137.967 55.9276 141.023 56.6255 144.941 56.6255C146.57 56.6255 148.128 55.7234 149.745 54.1107C151.359 52.5006 152.885 50.3339 154.476 48.0689L154.508 48.023C156.062 45.8111 157.681 43.5067 159.431 41.7607C161.191 40.0052 163.233 38.6619 165.647 38.6619C169.8 38.6619 173.044 39.3808 176.191 40.0782L176.216 40.0838C179.371 40.7829 182.431 41.4584 186.353 41.4584C190.307 41.4584 193.391 40.958 196.545 40.445L196.564 40.4421C199.714 39.9297 202.935 39.4058 207.059 39.4058C210.786 39.4058 213.714 37.6814 216.899 35.7795L216.983 35.7296C220.084 33.8775 223.445 31.8704 227.765 31.8704C229.517 31.8704 231.121 31.2077 232.71 30.1225C234.314 29.0272 235.828 27.5548 237.42 26.0034L237.454 25.9697C239.007 24.4558 240.637 22.8674 242.397 21.665C244.185 20.4436 246.18 19.5686 248.471 19.5686C252.712 19.5686 256.023 20.9348 259.153 22.2262L259.205 22.2478C262.37 23.5537 265.356 24.7758 269.176 24.7758C273.112 24.7758 276.182 24.1746 279.337 23.5548L279.359 23.5504C282.507 22.9317 285.742 22.2962 289.882 22.2962C293.828 22.2962 296.905 21.7469 300.059 21.1822L300.079 21.1786C303.229 20.6148 306.456 20.0369 310.588 20.0369C314.315 20.0369 317.242 18.3097 320.428 16.4042L320.512 16.3541C323.613 14.4987 326.974 12.4878 331.294 12.4878C335.273 12.4878 338.376 12.1226 341.53 11.7508L341.543 11.7492C344.695 11.3777 347.898 11 352 11Z" fill="url(#paint0_linear_48_6313)" fill-opacity="0.05" stroke="#15AC77" stroke-width="2"/>
</g>
<defs>
<linearGradient id="paint0_linear_48_6313" x1="176" y1="14.8655" x2="176" y2="100" gradientUnits="userSpaceOnUse">
<stop stop-color="#15AC77"/>
<stop offset="1" stop-color="#15AC77" stop-opacity="0"/>
</linearGradient>
<clipPath id="clip0_48_6313">
<rect width="352" height="100" fill="white"/>
</clipPath>
</defs>
</svg>
