<svg width="352" height="100" viewBox="0 0 352 100" fill="none" xmlns="http://www.w3.org/2000/svg">
<g clip-path="url(#clip0_48_5937)">
<path d="M0 31.5049H-1V32.5049V100V101H0H352H353V100V43.6117V42.6117H352C347.689 42.6117 344.333 44.543 341.228 46.3301L341.148 46.376C337.966 48.2073 335.032 49.8738 331.294 49.8738C329.544 49.8738 327.94 49.2071 326.351 48.1142C324.748 47.0112 323.233 45.5283 321.642 43.966L321.607 43.932C320.054 42.4074 318.425 40.8081 316.664 39.5972C314.876 38.3673 312.881 37.4854 310.588 37.4854C308.286 37.4854 306.286 38.4015 304.499 39.6731C302.739 40.9254 301.11 42.5793 299.558 44.1563L299.523 44.1916C297.931 45.8079 296.416 47.3425 294.812 48.4838C293.222 49.6151 291.623 50.301 289.882 50.301C285.519 50.301 282.135 52.7069 279.055 54.897L278.95 54.9714C275.749 57.2472 272.85 59.2719 269.176 59.2719C265.579 59.2719 262.712 56.8089 259.484 53.9678L259.348 53.8478C256.301 51.1652 252.893 48.1651 248.471 48.1651C244.749 48.1651 241.825 46.4082 238.638 44.4664L238.552 44.4142C235.453 42.5255 232.089 40.4757 227.765 40.4757C223.605 40.4757 220.355 41.2459 217.209 41.9913L217.181 41.9978C214.026 42.7455 210.973 43.466 207.059 43.466C203.304 43.466 200.36 41.8905 197.182 40.1692L197.108 40.1293C193.998 38.4443 190.65 36.6311 186.353 36.6311C184.621 36.6311 183.027 35.9262 181.436 34.7562C179.831 33.5766 178.316 31.9901 176.724 30.3198L176.689 30.2836C175.137 28.6541 173.509 26.9456 171.749 25.6519C169.963 24.3388 167.959 23.3883 165.647 23.3883C163.896 23.3883 162.293 22.7217 160.704 21.6288C159.101 20.5258 157.586 19.0429 155.995 17.4806L155.96 17.4467C154.407 15.9221 152.778 14.3226 151.017 13.1118C149.229 11.8819 147.234 11 144.941 11C142.483 11 140.431 12.525 138.687 14.4694C136.942 16.4153 135.327 18.9843 133.772 21.4585L133.742 21.5067C132.151 24.0371 130.62 26.4668 129 28.2728C127.368 30.093 125.82 31.0777 124.235 31.0777C120.059 31.0777 116.796 31.9612 113.653 32.8126L113.621 32.8212C110.465 33.6759 107.425 34.4951 103.529 34.4951C99.6335 34.4951 96.5942 33.6759 93.4379 32.8212L93.4061 32.8126C90.2624 31.9612 86.9997 31.0777 82.8235 31.0777C78.8912 31.0777 75.8242 30.4568 72.6696 29.8161L72.6465 29.8114C69.4985 29.1721 66.2613 28.5146 62.1177 28.5146C57.7418 28.5146 54.3521 31.0394 51.2783 33.329L51.1674 33.4116C47.9607 35.7996 45.0693 37.9126 41.4118 37.9126C39.6897 37.9126 38.0995 37.189 36.5068 35.9802C34.9019 34.762 33.3854 33.1236 31.7936 31.3994L31.759 31.3619C30.2063 29.6799 28.579 27.9172 26.82 26.5821C25.0357 25.2278 23.0269 24.2427 20.7059 24.2427C16.395 24.2427 13.039 26.1741 9.93386 27.9612L9.85417 28.0071C6.67179 29.8384 3.73832 31.5049 0 31.5049Z" fill="url(#paint0_linear_48_5937)" fill-opacity="0.05" stroke="#F9A000" strokeWidth="2"/>
</g>
<defs>
<linearGradient id="paint0_linear_48_5937" x1="176" y1="12" x2="176" y2="100" gradientUnits="userSpaceOnUse">
<stop stop-color="#8A5CFF"/>
<stop offset="1" stop-color="#8A5CFF" stop-opacity="0"/>
</linearGradient>
<clipPath id="clip0_48_5937">
<rect width="352" height="100" fill="white"/>
</clipPath>
</defs>
</svg>
