<svg width="26" height="29" viewBox="0 0 26 29" fill="none" xmlns="http://www.w3.org/2000/svg">
<path d="M24.5724 6.56333C21.114 8.77744 17.6708 11.0323 14.2225 13.2814C14.1617 13.3164 13.9487 13.462 13.6748 13.6426C13.4213 13.8116 13.112 14.0155 12.8331 14.202C12.7976 14.1787 12.7722 14.1612 12.7671 14.1554C12.5389 13.9981 12.26 13.8116 12.0166 13.6485C11.7682 13.4795 11.5552 13.3338 11.469 13.2814C8.02069 11.0382 4.57749 8.77744 1.11907 6.56333C0.647471 6.26035 0.464916 5.89911 0.505483 5.13C0.556193 4.26766 0.515624 3.39367 0.515624 2.51968C0.520695 0.509503 1.42333 -0.393618 2.64037 0.398798C5.65761 2.37401 8.65964 4.39002 11.6972 6.30114C12.1688 6.59829 12.5491 6.96537 12.8483 7.40236C13.1475 6.96537 13.5329 6.59829 14.0045 6.30114C17.0369 4.39002 20.044 2.37401 23.0562 0.398798C24.2732 -0.393618 25.1759 0.509503 25.1809 2.51968C25.1809 3.38784 25.1404 4.26183 25.1911 5.13C25.2316 5.89911 25.044 6.26035 24.5724 6.56333Z" fill="white"/>
<path d="M25.188 23.3906C25.1373 25.0337 25.1779 26.6826 25.1779 28.4947C22.9314 27.0264 20.8067 25.6397 18.682 24.2529C16.7398 22.9827 14.7976 21.7009 12.8503 20.4482C10.9031 21.695 8.96087 22.9769 7.01361 24.2529C4.88886 25.6397 2.76411 27.0264 0.517663 28.4947C0.517663 26.6826 0.558233 25.0337 0.507523 23.3906C0.461884 21.9572 0.832064 21.0833 1.72963 20.553C2.95681 19.8305 4.15863 18.9857 5.4416 18.1408C5.24383 18.001 5.13227 17.9078 5.01563 17.8262C3.83409 17.0571 2.64748 16.2821 1.46087 15.5189C0.816852 15.111 0.512592 14.3943 0.517663 13.3514C0.522734 11.8656 0.522735 10.3798 0.522735 8.89403V7.82776C0.527806 7.83359 0.537949 7.83941 0.54302 7.83941C0.619084 8.19484 0.806711 8.4279 1.12111 8.62601C4.57953 10.8401 8.02273 13.095 11.471 15.3441C11.5572 15.4023 11.7702 15.5422 12.0187 15.7111C12.2621 15.8743 12.541 16.0607 12.7692 16.2181C12.7743 16.2239 12.7996 16.2355 12.8351 16.2647C13.114 16.0782 13.4233 15.8743 13.6769 15.7053C13.9507 15.5247 14.1637 15.3849 14.2246 15.3441C17.6728 13.1008 21.116 10.8401 24.5744 8.62601C24.8888 8.4279 25.0765 8.20066 25.1475 7.84524C25.1525 7.83941 25.1627 7.83359 25.1728 7.83359V8.89985C25.1728 10.3856 25.1728 11.8714 25.1779 13.3572C25.183 14.4002 24.8736 15.1168 24.2347 15.5247C23.0481 16.2821 21.8665 17.0571 20.6799 17.832C20.5633 17.9078 20.4517 18.001 20.254 18.1467C21.5369 18.9857 22.7337 19.8364 23.9609 20.5589C24.8635 21.0774 25.2337 21.9572 25.188 23.3906Z" fill="white"/>
</svg>
