<svg width="196" height="32" viewBox="0 0 196 32" fill="none" xmlns="http://www.w3.org/2000/svg">
<path fill-rule="evenodd" clip-rule="evenodd" d="M18.852 0.858188C19.2432 0.943806 19.4902 1.33031 19.4022 1.7217C19.3166 2.1131 18.9303 2.36016 18.5391 2.2721C15.5905 1.61652 12.5318 1.94675 9.82526 3.1405C7.18471 4.30245 4.87912 6.28389 3.32901 8.96983C1.39016 12.3309 0.996532 16.1617 1.92806 19.6378C2.8547 23.0942 5.08939 26.1985 8.41697 28.1408C8.4512 28.1555 8.48298 28.175 8.51477 28.1946C11.8644 30.1149 15.676 30.5038 19.1357 29.5743C22.5953 28.6471 25.7004 26.4064 27.6416 23.0673C27.6588 23.0331 27.6783 23.0013 27.6979 22.9719C29.1282 20.467 29.7027 17.7052 29.5145 15.0242C29.3189 12.2404 28.2993 9.54713 26.5585 7.32597C26.3116 7.01041 26.3678 6.55542 26.6832 6.30835C26.9986 6.06128 27.4534 6.11754 27.7003 6.4331C29.6221 8.88665 30.7467 11.8564 30.9619 14.9215C31.1697 17.8838 30.5316 20.9367 28.9448 23.7082C28.9375 23.7229 28.9301 23.7376 28.9228 23.7523C26.7835 27.4607 23.3434 29.951 19.5122 30.9784C15.698 32.0009 11.4952 31.5728 7.80084 29.4568C7.76172 29.4397 7.72505 29.4177 7.69082 29.3908C4.0185 27.2455 1.55154 23.8232 0.529545 20.012C-0.490001 16.2033 -0.064578 12.0031 2.04297 8.30935C2.06253 8.26532 2.08698 8.22373 2.11388 8.18459C3.82779 5.24669 6.35587 3.08179 9.24336 1.80976C12.2262 0.496149 15.5978 0.13411 18.8545 0.858188H18.852Z" fill="#323232"/>
<path fill-rule="evenodd" clip-rule="evenodd" d="M19.2062 10.6135C19.1916 10.5964 19.1769 10.5768 19.1647 10.5573C19.1304 10.5181 19.0938 10.4814 19.0571 10.4496C18.9397 10.3518 18.8102 10.3029 18.683 10.3004C18.5485 10.3004 18.4092 10.3469 18.282 10.4447C18.2307 10.4839 18.1794 10.5328 18.1305 10.5915L15.1745 14.1312L15.2087 14.1605C15.5461 14.4418 15.9349 14.5862 16.3236 14.5911C16.7197 14.5959 17.1231 14.459 17.485 14.1801C17.6219 14.0749 17.7539 13.9477 17.8786 13.7985L19.128 12.3014C19.3212 12.069 19.4263 11.7559 19.4336 11.4379C19.4434 11.1346 19.3676 10.8361 19.2062 10.6111V10.6135ZM19.8004 9.5592C19.9079 9.64971 20.0082 9.7549 20.1035 9.87721C20.4483 10.3249 20.6096 10.9022 20.5925 11.4721C20.5754 12.0397 20.3823 12.6121 20.018 13.0499L18.7686 14.547C18.5926 14.7574 18.3994 14.9433 18.194 15.1023C17.6219 15.5426 16.9667 15.7603 16.3163 15.753C15.6586 15.7457 15.0131 15.5133 14.4655 15.0558C14.2894 14.9091 14.1207 14.7354 13.9667 14.5372C13.7833 14.3244 13.776 14.0064 13.9594 13.7838L17.2429 9.8503C17.3432 9.72799 17.4557 9.6228 17.5755 9.52985C17.9153 9.2681 18.3041 9.1409 18.6952 9.14335C19.0913 9.14824 19.4776 9.28767 19.8053 9.5592H19.8004Z" fill="#FBB010"/>
<path fill-rule="evenodd" clip-rule="evenodd" d="M6.42421 23.946C6.31419 24.2469 5.97923 24.401 5.6785 24.2909C5.37777 24.1808 5.22374 23.8457 5.33376 23.5448C5.3411 23.5252 7.86185 16.5315 13.1919 14.8485C13.4975 14.7531 13.8251 14.9219 13.9204 15.2277C14.0158 15.5335 13.8471 15.8613 13.5415 15.9567C8.75915 17.4684 6.43154 23.9264 6.42421 23.9435V23.946Z" fill="#FBB010"/>
<path fill-rule="evenodd" clip-rule="evenodd" d="M14.8616 6.87345C14.9007 6.87345 14.9373 6.88079 14.9716 6.88813C15.106 6.91015 15.2283 6.94195 15.3432 6.98353C15.7442 7.1303 16.0571 7.39694 16.2576 7.73452C16.4557 8.06965 16.5388 8.47083 16.4826 8.89647C16.463 9.04813 16.4263 9.1998 16.3725 9.34902L14.6097 14.1607C14.5241 14.3956 14.3017 14.5423 14.0645 14.5423C14.0205 14.5423 13.9765 14.5374 13.9349 14.5276C13.6904 14.491 13.463 14.4347 13.2552 14.3564C12.5829 14.1093 12.0596 13.6666 11.7247 13.1015C11.3946 12.5413 11.2528 11.8662 11.3482 11.1494C11.3824 10.8901 11.446 10.6284 11.5413 10.3715L12.2112 8.53932C12.4068 8.00605 12.8053 7.5535 13.287 7.25506C13.7564 6.96396 14.3163 6.81474 14.8567 6.87345H14.8616ZM14.9447 8.07454C14.886 8.05253 14.8273 8.03785 14.7638 8.03051C14.4777 7.99137 14.1672 8.07699 13.8982 8.24088C13.6268 8.40723 13.4068 8.65429 13.3041 8.9405L12.6342 10.7727C12.5682 10.9562 12.5242 11.1323 12.4997 11.3011C12.4386 11.7536 12.5242 12.1719 12.7247 12.512C12.9227 12.8495 13.243 13.1137 13.6537 13.2654L13.6953 13.2801L15.2821 8.94784C15.309 8.87445 15.3261 8.80841 15.3334 8.74725C15.3554 8.58825 15.3261 8.44148 15.2576 8.3265C15.1916 8.21642 15.084 8.12591 14.9422 8.07454H14.9447Z" fill="#FBB010"/>
<path fill-rule="evenodd" clip-rule="evenodd" d="M10.4705 26.5086C10.2651 26.7556 9.90081 26.7874 9.65632 26.5844C9.40938 26.3789 9.37759 26.0144 9.58053 25.7674C9.59275 25.7527 14.0206 20.5031 12.9375 15.6034C12.869 15.2902 13.0646 14.982 13.3775 14.9135C13.6905 14.845 13.9986 15.0407 14.067 15.3538C15.2748 20.8138 10.4827 26.4914 10.4705 26.5086Z" fill="#FBB010"/>
<path fill-rule="evenodd" clip-rule="evenodd" d="M21.5799 11.3841C21.7388 11.1077 22.0933 11.0123 22.3696 11.1713C22.6459 11.3303 22.7437 11.685 22.5823 11.9614L13.333 28.0502C13.1741 28.3266 12.8196 28.422 12.5433 28.263C12.267 28.104 12.1717 27.7493 12.3306 27.4729L21.5799 11.3841Z" fill="#FBB010"/>
<path fill-rule="evenodd" clip-rule="evenodd" d="M21.664 12.5001C21.3877 12.3386 21.2923 11.9839 21.4537 11.7075C21.6151 11.4311 21.9696 11.3357 22.2459 11.4971L25.2898 13.2535C25.5661 13.415 25.6615 13.7697 25.5001 14.0461C25.3387 14.3225 24.9842 14.4179 24.7079 14.2565L21.664 12.4976V12.5001Z" fill="#FBB010"/>
<path fill-rule="evenodd" clip-rule="evenodd" d="M17.0646 20.4765C16.7883 20.3175 16.693 19.9628 16.8519 19.6864C17.0108 19.4099 17.3653 19.3145 17.6416 19.4735L20.6856 21.2324C20.9619 21.3914 21.0597 21.7461 20.8983 22.0225C20.7394 22.2989 20.3849 22.3943 20.1086 22.2353L17.0646 20.4789V20.4765Z" fill="#FBB010"/>
<path fill-rule="evenodd" clip-rule="evenodd" d="M18.3771 18.4118C18.1008 18.2503 18.0055 17.8956 18.1669 17.6192C18.3282 17.3428 18.6827 17.2474 18.959 17.4088L21.915 19.1163C22.1913 19.2777 22.2866 19.6324 22.1252 19.9089C21.9639 20.1853 21.6094 20.2807 21.3331 20.1192L18.3771 18.4118Z" fill="#FBB010"/>
<path fill-rule="evenodd" clip-rule="evenodd" d="M19.4976 16.472C19.2214 16.313 19.1236 15.9583 19.2849 15.6819C19.4439 15.4054 19.7984 15.31 20.0747 15.469L23.0306 17.1765C23.3069 17.3355 23.4022 17.6902 23.2433 17.9666C23.0844 18.243 22.7299 18.3385 22.4536 18.1794L19.4976 16.472Z" fill="#FBB010"/>
<path fill-rule="evenodd" clip-rule="evenodd" d="M20.6756 14.4268C20.3994 14.2653 20.304 13.9106 20.4654 13.6342C20.6267 13.3578 20.9813 13.2624 21.2575 13.4238L24.2135 15.1313C24.4898 15.2927 24.5851 15.6474 24.4238 15.9239C24.2624 16.2003 23.9079 16.2957 23.6316 16.1342L20.6756 14.4268Z" fill="#FBB010"/>
<path fill-rule="evenodd" clip-rule="evenodd" d="M12.7439 28.4147C12.4309 28.3462 12.2353 28.0356 12.3038 27.7249C12.3722 27.4118 12.6828 27.2136 12.9933 27.2846C15.4187 27.8227 17.9296 27.5512 20.1545 26.5727C22.3232 25.6187 24.2181 23.9895 25.4919 21.7782C27.086 19.0164 27.4087 15.8681 26.6434 13.0134C25.8782 10.1587 24.0249 7.59258 21.2645 5.99765C21.2548 5.99275 21.2474 5.98786 21.2376 5.98052C18.4846 4.40027 15.3502 4.08226 12.5043 4.84548C9.64857 5.61115 7.08625 7.46537 5.49214 10.2271C4.29656 12.2966 3.81735 14.5838 3.97382 16.8026C4.13519 19.0898 4.97381 21.3036 6.40166 23.1309C6.5997 23.3829 6.55325 23.7474 6.30142 23.9455C6.04959 24.1436 5.68529 24.0972 5.48725 23.8452C3.9127 21.832 2.99095 19.398 2.81247 16.8857C2.64132 14.4444 3.16943 11.9273 4.48482 9.64495C6.2403 6.60431 9.05933 4.56417 12.2011 3.72267C15.3282 2.88362 18.7756 3.23587 21.8073 4.97513C21.8195 4.98002 21.8318 4.98736 21.844 4.9947C24.8831 6.75108 26.9222 9.57156 27.7632 12.7149C28.6043 15.8559 28.2473 19.3222 26.4919 22.3628C25.0885 24.7943 23.0029 26.5874 20.6166 27.6393C18.1717 28.7156 15.4064 29.014 12.7365 28.4196L12.7439 28.4147Z" fill="#FBB010"/>
<path d="M39.864 24L42.744 7.536H45.432L44.208 14.424H52.584L53.808 7.536H56.472L53.592 24H50.904L52.176 16.728H43.8L42.528 24H39.864ZM61.425 24.288C60.593 24.288 59.865 24.12 59.241 23.784C58.633 23.432 58.161 22.92 57.825 22.248C57.489 21.56 57.321 20.704 57.321 19.68C57.321 19.36 57.337 19.024 57.369 18.672C57.417 18.32 57.473 17.944 57.537 17.544C57.793 16.04 58.193 14.816 58.737 13.872C59.281 12.912 59.945 12.208 60.729 11.76C61.529 11.312 62.425 11.088 63.417 11.088C63.977 11.088 64.481 11.16 64.929 11.304C65.393 11.432 65.801 11.632 66.153 11.904C66.505 12.176 66.785 12.528 66.993 12.96H67.161L67.857 11.376H69.921L69.369 14.424C69.257 15.016 69.137 15.632 69.009 16.272C68.897 16.896 68.785 17.512 68.673 18.12C68.577 18.712 68.481 19.256 68.385 19.752C68.305 20.232 68.241 20.64 68.193 20.976C68.145 21.296 68.121 21.496 68.121 21.576C68.121 21.784 68.185 21.944 68.313 22.056C68.441 22.152 68.609 22.2 68.817 22.2H69.681L69.393 23.904C69.233 23.984 69.009 24.064 68.721 24.144C68.449 24.24 68.121 24.288 67.737 24.288C67.305 24.288 66.945 24.192 66.657 24C66.369 23.824 66.161 23.56 66.033 23.208C65.985 23.064 65.937 22.912 65.889 22.752C65.857 22.576 65.849 22.392 65.865 22.2H65.697C65.169 22.904 64.537 23.432 63.801 23.784C63.081 24.12 62.289 24.288 61.425 24.288ZM62.457 22.128C62.873 22.128 63.281 22.048 63.681 21.888C64.081 21.712 64.449 21.456 64.785 21.12C65.121 20.768 65.417 20.328 65.673 19.8C65.929 19.256 66.129 18.608 66.273 17.856C66.321 17.552 66.353 17.288 66.369 17.064C66.401 16.84 66.425 16.64 66.441 16.464C66.457 16.288 66.465 16.128 66.465 15.984C66.465 15.392 66.377 14.896 66.201 14.496C66.025 14.08 65.753 13.768 65.385 13.56C65.017 13.352 64.545 13.248 63.969 13.248C63.281 13.248 62.681 13.392 62.169 13.68C61.673 13.968 61.257 14.424 60.921 15.048C60.601 15.672 60.345 16.488 60.153 17.496C60.089 17.832 60.041 18.12 60.009 18.36C59.977 18.6 59.953 18.816 59.937 19.008C59.921 19.2 59.913 19.376 59.913 19.536C59.913 20.416 60.121 21.072 60.537 21.504C60.953 21.92 61.593 22.128 62.457 22.128ZM73.6948 9.192L74.1508 6.648H76.6468L76.1908 9.192H73.6948ZM71.1268 24L73.3588 11.376H75.8548L73.6228 24H71.1268ZM76.9656 24L79.1976 11.376H81.1656L81.0936 13.392H81.2376C81.4456 13.008 81.6936 12.648 81.9816 12.312C82.2696 11.96 82.6136 11.672 83.0136 11.448C83.4136 11.208 83.8856 11.088 84.4296 11.088C84.7016 11.088 84.9416 11.112 85.1496 11.16C85.3736 11.208 85.5336 11.248 85.6296 11.28L85.2456 13.632H84.3816C83.8696 13.632 83.3976 13.712 82.9656 13.872C82.5496 14.032 82.1816 14.272 81.8616 14.592C81.5576 14.912 81.3016 15.304 81.0936 15.768C80.8856 16.216 80.7336 16.736 80.6376 17.328L79.4616 24H76.9656ZM90.3264 24.288C89.4944 24.288 88.7584 24.208 88.1184 24.048C87.4784 23.904 86.9344 23.696 86.4864 23.424C86.0544 23.136 85.7264 22.792 85.5024 22.392C85.2944 21.992 85.1904 21.552 85.1904 21.072C85.1904 20.88 85.2064 20.696 85.2384 20.52C85.2864 20.344 85.3264 20.192 85.3584 20.064H87.8064C87.7744 20.16 87.7504 20.264 87.7344 20.376C87.7184 20.488 87.7104 20.576 87.7104 20.64C87.7104 21.04 87.8224 21.368 88.0464 21.624C88.2864 21.864 88.6064 22.04 89.0064 22.152C89.4224 22.248 89.8864 22.296 90.3984 22.296C90.7824 22.296 91.1504 22.264 91.5024 22.2C91.8704 22.12 92.1984 22.008 92.4864 21.864C92.7744 21.72 92.9984 21.528 93.1584 21.288C93.3184 21.048 93.3984 20.752 93.3984 20.4C93.3984 20.096 93.3024 19.848 93.1104 19.656C92.9344 19.448 92.6944 19.28 92.3904 19.152C92.0864 19.008 91.7344 18.88 91.3344 18.768C90.9504 18.656 90.5424 18.536 90.1104 18.408C89.6784 18.28 89.2464 18.136 88.8144 17.976C88.3984 17.816 88.0144 17.624 87.6624 17.4C87.3264 17.16 87.0544 16.864 86.8464 16.512C86.6384 16.144 86.5344 15.704 86.5344 15.192C86.5344 14.52 86.6704 13.928 86.9424 13.416C87.2304 12.904 87.6224 12.48 88.1184 12.144C88.6144 11.792 89.1904 11.528 89.8464 11.352C90.5024 11.176 91.1984 11.088 91.9344 11.088C92.6384 11.088 93.2784 11.152 93.8544 11.28C94.4464 11.408 94.9504 11.6 95.3664 11.856C95.7984 12.112 96.1264 12.424 96.3504 12.792C96.5904 13.144 96.7104 13.552 96.7104 14.016C96.7104 14.24 96.6864 14.456 96.6384 14.664C96.6064 14.856 96.5744 14.984 96.5424 15.048H94.1184C94.1344 14.952 94.1424 14.864 94.1424 14.784C94.1584 14.704 94.1664 14.632 94.1664 14.568C94.1664 14.216 94.0704 13.936 93.8784 13.728C93.7024 13.504 93.4464 13.344 93.1104 13.248C92.7744 13.136 92.3664 13.08 91.8864 13.08C91.4544 13.08 91.0704 13.12 90.7344 13.2C90.4144 13.264 90.1344 13.368 89.8944 13.512C89.6544 13.656 89.4704 13.832 89.3424 14.04C89.2144 14.248 89.1504 14.48 89.1504 14.736C89.1504 15.088 89.2944 15.368 89.5824 15.576C89.8704 15.768 90.2384 15.928 90.6864 16.056C91.1344 16.184 91.6224 16.336 92.1504 16.512C92.6144 16.656 93.0704 16.808 93.5184 16.968C93.9824 17.128 94.4064 17.328 94.7904 17.568C95.1744 17.792 95.4784 18.096 95.7024 18.48C95.9264 18.848 96.0384 19.312 96.0384 19.872C96.0384 20.656 95.8864 21.328 95.5824 21.888C95.2944 22.448 94.8864 22.904 94.3584 23.256C93.8304 23.608 93.2224 23.864 92.5344 24.024C91.8464 24.2 91.1104 24.288 90.3264 24.288ZM104.592 24.288C103.696 24.288 102.92 24.12 102.264 23.784C101.624 23.448 101.144 22.944 100.824 22.272H100.656L100.128 24H98.0884L101.136 6.648H103.632L102.528 12.912H102.696C103.016 12.48 103.376 12.136 103.776 11.88C104.192 11.608 104.632 11.408 105.096 11.28C105.576 11.152 106.072 11.088 106.584 11.088C107.432 11.088 108.16 11.264 108.768 11.616C109.392 11.952 109.872 12.464 110.208 13.152C110.544 13.824 110.712 14.672 110.712 15.696C110.712 16 110.696 16.336 110.664 16.704C110.632 17.056 110.576 17.432 110.496 17.832C110.24 19.336 109.84 20.56 109.296 21.504C108.752 22.448 108.08 23.152 107.28 23.616C106.48 24.064 105.584 24.288 104.592 24.288ZM104.04 22.128C104.744 22.128 105.344 21.984 105.84 21.696C106.352 21.408 106.768 20.952 107.088 20.328C107.424 19.704 107.688 18.888 107.88 17.88C107.944 17.544 107.992 17.256 108.024 17.016C108.056 16.76 108.08 16.544 108.096 16.368C108.112 16.176 108.12 16 108.12 15.84C108.12 15.248 108.032 14.768 107.856 14.4C107.68 14.016 107.4 13.728 107.016 13.536C106.632 13.344 106.144 13.248 105.552 13.248C105.12 13.248 104.704 13.328 104.304 13.488C103.904 13.648 103.528 13.904 103.176 14.256C102.84 14.592 102.544 15.032 102.288 15.576C102.032 16.12 101.84 16.768 101.712 17.52C101.664 17.808 101.624 18.072 101.592 18.312C101.56 18.536 101.536 18.736 101.52 18.912C101.52 19.072 101.52 19.232 101.52 19.392C101.52 19.968 101.608 20.464 101.784 20.88C101.96 21.296 102.232 21.608 102.6 21.816C102.984 22.024 103.464 22.128 104.04 22.128ZM112.827 28.368C112.299 28.368 111.875 28.328 111.555 28.248C111.235 28.184 111.035 28.144 110.955 28.128L111.243 26.304H112.491C112.875 26.304 113.243 26.232 113.595 26.088C113.963 25.96 114.315 25.72 114.651 25.368C114.987 25.032 115.299 24.56 115.587 23.952L112.947 11.376H115.443L116.691 17.448C116.771 17.8 116.851 18.216 116.931 18.696C117.011 19.16 117.083 19.624 117.147 20.088C117.227 20.552 117.283 20.96 117.315 21.312H117.435C117.547 21.056 117.667 20.768 117.795 20.448C117.939 20.128 118.083 19.8 118.227 19.464C118.387 19.128 118.539 18.808 118.683 18.504C118.827 18.184 118.955 17.912 119.067 17.688L122.211 11.376H124.827L118.515 23.52C118.163 24.208 117.795 24.84 117.411 25.416C117.027 26.008 116.611 26.52 116.163 26.952C115.715 27.4 115.219 27.744 114.675 27.984C114.131 28.24 113.515 28.368 112.827 28.368Z" fill="#14181F"/>
</svg>
