<svg width="196" height="32" viewBox="0 0 196 32" fill="none" xmlns="http://www.w3.org/2000/svg">
<path d="M30.2167 7.54381C25.8755 9.96264 21.5535 12.426 17.2251 14.883C17.1487 14.9212 16.8813 15.0803 16.5376 15.2777C16.2193 15.4623 15.8311 15.6851 15.481 15.8887C15.4364 15.8633 15.4046 15.8442 15.3982 15.8378C15.1118 15.666 14.7617 15.4623 14.4562 15.284C14.1443 15.0995 13.8769 14.9403 13.7687 14.883C9.44029 12.4324 5.11823 9.96264 0.777086 7.54381C0.185111 7.21282 -0.0440395 6.81817 0.00688305 5.97795C0.0705362 5.03588 0.0196116 4.08108 0.0196116 3.12628C0.0259769 0.930245 1.15901 -0.0563791 2.68668 0.809304C6.47405 2.96715 10.2423 5.16955 14.0551 7.25738C14.6471 7.58201 15.1245 7.98302 15.5001 8.46042C15.8756 7.98302 16.3594 7.58201 16.9514 7.25738C20.7578 5.16955 24.5325 2.96715 28.3135 0.809304C29.8411 -0.0563791 30.9742 0.930245 30.9805 3.12628C30.9805 4.07471 30.9296 5.02952 30.9933 5.97795C31.0442 6.81817 30.8087 7.21282 30.2167 7.54381Z" fill="#F69E1E"/>
<path d="M30.9847 25.9267C30.9211 27.7218 30.972 29.5231 30.972 31.5028C28.1521 29.8987 25.4851 28.3838 22.818 26.8688C20.3801 25.4812 17.9422 24.0808 15.4979 22.7123C13.0536 24.0744 10.6157 25.4748 8.1714 26.8688C5.50433 28.3838 2.83726 29.8987 0.0174214 31.5028C0.0174214 29.5231 0.0683461 27.7218 0.0046929 25.9267C-0.052595 24.3609 0.412071 23.4061 1.53873 22.8268C3.07914 22.0375 4.58772 21.1146 6.19815 20.1916C5.9499 20.0388 5.80986 19.937 5.66346 19.8479C4.18034 19.0076 2.69086 18.161 1.20137 17.3272C0.392976 16.8816 0.0110561 16.0987 0.0174214 14.9593C0.0237867 13.3361 0.0237881 11.713 0.0237881 10.0898V8.92497C0.0301534 8.93134 0.0428846 8.93771 0.0492499 8.93771C0.14473 9.32599 0.380246 9.58061 0.774896 9.79703C5.11604 12.2158 9.4381 14.6792 13.7665 17.1362C13.8747 17.1999 14.1421 17.3527 14.454 17.5372C14.7595 17.7155 15.1096 17.9192 15.396 18.091C15.4024 18.0974 15.4342 18.1101 15.4788 18.142C15.8289 17.9383 16.2172 17.7155 16.5354 17.5309C16.8792 17.3336 17.1465 17.1808 17.2229 17.1362C21.5513 14.6856 25.8734 12.2158 30.2145 9.79703C30.6091 9.58061 30.8447 9.33235 30.9338 8.94407C30.9401 8.9377 30.9529 8.93134 30.9656 8.93134V10.0962C30.9656 11.7193 30.9656 13.3425 30.972 14.9657C30.9783 16.1051 30.5901 16.888 29.788 17.3336C28.2985 18.1611 26.8154 19.0076 25.3259 19.8542C25.1795 19.937 25.0395 20.0388 24.7912 20.198C26.4017 21.1146 27.9039 22.0439 29.4443 22.8332C30.5773 23.3997 31.042 24.3609 30.9847 25.9267Z" fill="#EB1D25"/>
<path d="M39.264 24L45.192 15.36L39.816 7.536H43.632L47.28 13.032H47.4L51.048 7.536H54.624L49.248 15.336L55.2 24H51.408L47.184 17.64H47.04L42.864 24H39.264ZM57.1331 24V11.376H59.5811L59.8211 13.056H59.9891C60.2611 12.672 60.5731 12.336 60.9251 12.048C61.2771 11.744 61.6771 11.512 62.1251 11.352C62.5891 11.176 63.0931 11.088 63.6371 11.088C64.3731 11.088 65.0291 11.24 65.6051 11.544C66.1811 11.848 66.6291 12.352 66.9491 13.056H67.1171C67.3891 12.672 67.7091 12.336 68.0771 12.048C68.4451 11.744 68.8691 11.512 69.3491 11.352C69.8291 11.176 70.3491 11.088 70.9091 11.088C71.6611 11.088 72.3251 11.224 72.9011 11.496C73.4771 11.768 73.9331 12.216 74.2691 12.84C74.6051 13.464 74.7731 14.296 74.7731 15.336V24H71.8451V15.936C71.8451 15.504 71.7971 15.144 71.7011 14.856C71.6051 14.552 71.4691 14.32 71.2931 14.16C71.1331 13.984 70.9251 13.856 70.6691 13.776C70.4291 13.696 70.1651 13.656 69.8771 13.656C69.4131 13.656 68.9971 13.784 68.6291 14.04C68.2611 14.296 67.9651 14.648 67.7411 15.096C67.5331 15.544 67.4291 16.064 67.4291 16.656V24H64.5011V15.936C64.5011 15.504 64.4531 15.144 64.3571 14.856C64.2611 14.552 64.1251 14.32 63.9491 14.16C63.7891 13.984 63.5811 13.856 63.3251 13.776C63.0851 13.696 62.8211 13.656 62.5331 13.656C62.0691 13.656 61.6451 13.784 61.2611 14.04C60.8931 14.296 60.5971 14.648 60.3731 15.096C60.1651 15.544 60.0611 16.064 60.0611 16.656V24H57.1331ZM81.165 24.288C80.813 24.288 80.405 24.24 79.941 24.144C79.493 24.064 79.053 23.904 78.621 23.664C78.205 23.424 77.861 23.072 77.589 22.608C77.317 22.128 77.181 21.504 77.181 20.736C77.181 19.872 77.373 19.16 77.757 18.6C78.141 18.024 78.677 17.576 79.365 17.256C80.069 16.92 80.901 16.688 81.861 16.56C82.837 16.416 83.901 16.344 85.053 16.344V15.312C85.053 14.944 84.997 14.616 84.885 14.328C84.773 14.04 84.565 13.816 84.261 13.656C83.973 13.48 83.533 13.392 82.941 13.392C82.349 13.392 81.885 13.464 81.549 13.608C81.213 13.752 80.981 13.928 80.853 14.136C80.725 14.344 80.661 14.56 80.661 14.784V15.12H77.829C77.813 15.04 77.805 14.96 77.805 14.88C77.805 14.8 77.805 14.704 77.805 14.592C77.805 13.872 78.021 13.248 78.453 12.72C78.885 12.192 79.485 11.792 80.253 11.52C81.021 11.232 81.909 11.088 82.917 11.088C84.069 11.088 85.013 11.248 85.749 11.568C86.501 11.888 87.061 12.344 87.429 12.936C87.797 13.528 87.981 14.248 87.981 15.096V21.048C87.981 21.352 88.069 21.568 88.245 21.696C88.421 21.824 88.613 21.888 88.821 21.888H89.589V23.904C89.429 23.968 89.197 24.04 88.893 24.12C88.589 24.216 88.213 24.264 87.765 24.264C87.349 24.264 86.973 24.192 86.637 24.048C86.317 23.92 86.045 23.728 85.821 23.472C85.597 23.216 85.437 22.912 85.341 22.56H85.197C84.925 22.896 84.597 23.2 84.213 23.472C83.845 23.728 83.405 23.928 82.893 24.072C82.397 24.216 81.821 24.288 81.165 24.288ZM82.053 21.888C82.533 21.888 82.957 21.816 83.325 21.672C83.709 21.528 84.021 21.328 84.261 21.072C84.517 20.816 84.709 20.504 84.837 20.136C84.981 19.768 85.053 19.368 85.053 18.936V18.36C84.173 18.36 83.357 18.416 82.605 18.528C81.869 18.64 81.277 18.848 80.829 19.152C80.397 19.456 80.181 19.888 80.181 20.448C80.181 20.736 80.245 20.992 80.373 21.216C80.517 21.424 80.725 21.592 80.997 21.72C81.285 21.832 81.637 21.888 82.053 21.888ZM91.3809 24V11.376H93.8289L94.0689 13.368H94.2369C94.3969 12.968 94.5889 12.6 94.8129 12.264C95.0529 11.912 95.3569 11.632 95.7249 11.424C96.0929 11.2 96.5409 11.088 97.0689 11.088C97.3249 11.088 97.5569 11.112 97.7649 11.16C97.9889 11.208 98.1569 11.256 98.2689 11.304V14.064H97.3809C96.8849 14.064 96.4449 14.136 96.0609 14.28C95.6769 14.408 95.3489 14.616 95.0769 14.904C94.8209 15.192 94.6289 15.552 94.5009 15.984C94.3729 16.416 94.3089 16.92 94.3089 17.496V24H91.3809ZM100.196 24V11.376H102.644L102.884 13.368H103.052C103.212 12.968 103.404 12.6 103.628 12.264C103.868 11.912 104.172 11.632 104.54 11.424C104.908 11.2 105.356 11.088 105.884 11.088C106.14 11.088 106.372 11.112 106.58 11.16C106.804 11.208 106.972 11.256 107.084 11.304V14.064H106.196C105.7 14.064 105.26 14.136 104.876 14.28C104.492 14.408 104.164 14.616 103.892 14.904C103.636 15.192 103.444 15.552 103.316 15.984C103.188 16.416 103.124 16.92 103.124 17.496V24H100.196Z" fill="#14181F"/>
</svg>
