<svg width="20" height="20" viewBox="0 0 20 20" fill="none" xmlns="http://www.w3.org/2000/svg">
<path fill-rule="evenodd" clip-rule="evenodd" d="M6.22489 4.55839C5.98081 4.80247 5.98081 5.19819 6.22489 5.44227C6.46897 5.68635 6.8647 5.68635 7.10877 5.44227L9.37513 3.17589V13.3337C9.37513 13.6788 9.65495 13.9587 10.0001 13.9587C10.3453 13.9587 10.6251 13.6788 10.6251 13.3337V3.17587L12.8916 5.44227C13.1356 5.68635 13.5314 5.68635 13.7754 5.44227C14.0195 5.19819 14.0195 4.80246 13.7754 4.55838L10.4421 1.22505C10.3249 1.10784 10.1659 1.04199 10.0001 1.04199C9.83437 1.04199 9.6754 1.10784 9.55819 1.22505L6.22489 4.55839ZM5.28334 7.89127C5.49924 7.62194 5.45593 7.22859 5.1866 7.0127C4.91728 6.7968 4.52393 6.84011 4.30803 7.10943C3.30742 8.35765 2.7085 9.94324 2.7085 11.667C2.7085 15.6941 5.97309 18.9587 10.0002 18.9587C14.0272 18.9587 17.2918 15.6941 17.2918 11.667C17.2918 9.94324 16.6929 8.35765 15.6923 7.10943C15.4764 6.84011 15.083 6.7968 14.8137 7.0127C14.5444 7.22859 14.5011 7.62194 14.717 7.89127C15.5462 8.92572 16.0418 10.2376 16.0418 11.667C16.0418 15.0037 13.3369 17.7087 10.0002 17.7087C6.66344 17.7087 3.9585 15.0037 3.9585 11.667C3.9585 10.2376 4.4541 8.92572 5.28334 7.89127Z" fill="white"/>
</svg>
