<svg width="84" height="99" viewBox="0 0 84 99" fill="none" xmlns="http://www.w3.org/2000/svg">
<path d="M0.747612 98.8924L84 98.7613V0.501953H22.0248L0.604805 19.2617L0.747612 98.8924Z" fill="#D94823"/>
<path opacity="0.6" d="M0.747612 98.8924L84 98.7613V0.501953H22.0248L0.604805 19.2617L0.747612 98.8924Z" fill="white"/>
<path d="M22.0252 0.501953L0.60516 19.2617H22.168L22.0252 0.501953Z" fill="#D94823"/>
<path opacity="0.4" d="M22.0252 0.501953L0.60516 19.2617H22.168L22.0252 0.501953Z" fill="white"/>
<path d="M75.9296 19.4586L29.5195 19.4802L29.5182 16.9877L75.9282 16.966L75.9296 19.4586Z" fill="#D94823"/>
<path d="M75.9364 25.9053L29.5264 25.927L29.525 23.4344L75.935 23.4128L75.9364 25.9053Z" fill="#D94823"/>
<path d="M75.9442 32.2212L29.5342 32.2429L29.5328 29.7504L75.9428 29.7287L75.9442 32.2212Z" fill="#D94823"/>
<path d="M75.9533 38.6735L7.98047 38.7053L7.97909 36.2128L75.9519 36.181L75.9533 38.6735Z" fill="#D94823"/>
<path d="M75.9601 44.9894L7.9873 45.021L7.98593 42.5284L75.9587 42.4968L75.9601 44.9894Z" fill="#D94823"/>
<path d="M75.9669 51.3054L7.99414 51.3372L7.99276 48.8446L75.9655 48.8128L75.9669 51.3054Z" fill="#D94823"/>
<path d="M75.9738 57.7524L8.00098 57.7842L7.9996 55.2916L75.9724 55.2599L75.9738 57.7524Z" fill="#D94823"/>
<path d="M75.9806 64.0682L8.00781 64.0999L8.00644 61.6073L75.9792 61.5756L75.9806 64.0682Z" fill="#D94823"/>
<path d="M75.9884 70.5151L8.01562 70.5469L8.01424 68.0543L75.987 68.0225L75.9884 70.5151Z" fill="#D94823"/>
<path d="M75.9952 76.8313L8.02246 76.863L8.02108 74.3705L75.9939 74.3387L75.9952 76.8313Z" fill="#D94823"/>
<path d="M76.0021 83.278L8.0293 83.3098L8.02792 80.8173L76.0007 80.7855L76.0021 83.278Z" fill="#D94823"/>
<path d="M76.0089 89.5942L8.03613 89.626L8.03475 87.1334L76.0075 87.1016L76.0089 89.5942Z" fill="#D94823"/>
</svg>
