<svg width="127" height="66" viewBox="0 0 127 66" fill="none" xmlns="http://www.w3.org/2000/svg">
<g filter="url(#filter0_i_174_43444)">
<g clip-path="url(#clip0_174_43444)">
<rect x="-0.0078125" width="127" height="66" rx="33" fill="#FFCABD"/>
<path d="M89.1109 -4.60648C89.6714 -4.28026 90.1051 -3.77284 90.3413 -3.16712C90.5774 -2.56141 90.602 -1.8932 90.4109 -1.27167L80.0965 32.3754H99.1275C99.6868 32.3752 100.234 32.5394 100.701 32.8478C101.169 33.1561 101.536 33.5951 101.758 34.1106C101.979 34.6261 102.046 35.1955 101.949 35.7485C101.852 36.3015 101.596 36.8139 101.212 37.2224L55.3956 86.0946C54.9523 86.5679 54.3624 86.8764 53.722 86.97C53.0817 87.0636 52.4286 86.9367 51.8693 86.6099C51.31 86.2831 50.8775 85.7758 50.6421 85.1706C50.4068 84.5654 50.3826 83.898 50.5735 83.2773L60.8879 49.6244H41.8569C41.2976 49.6247 40.7505 49.4604 40.2831 49.1521C39.8157 48.8437 39.4485 48.4047 39.2268 47.8892C39.0051 47.3737 38.9386 46.8044 39.0355 46.2514C39.1324 45.6984 39.3885 45.186 39.7722 44.7775L85.5887 -4.09476C86.0315 -4.56739 86.6205 -4.87575 87.26 -4.9697C87.8994 -5.06365 88.5518 -4.93766 89.1109 -4.61223V-4.60648Z" fill="#FFD5CB"/>
<path d="M44.0179 -10.8873C44.4951 -10.6109 44.8644 -10.1811 45.0654 -9.66791C45.2664 -9.15475 45.2873 -8.58866 45.1247 -8.0621L36.3432 20.4434H52.5459C53.022 20.4432 53.4878 20.5823 53.8857 20.8435C54.2837 21.1048 54.5963 21.4767 54.7851 21.9134C54.9738 22.3501 55.0304 22.8325 54.9479 23.301C54.8654 23.7695 54.6473 24.2036 54.3207 24.5497L15.3133 65.9537C14.9359 66.3547 14.4336 66.6161 13.8884 66.6954C13.3432 66.7747 12.7872 66.6671 12.311 66.3903C11.8349 66.1134 11.4666 65.6836 11.2662 65.1709C11.0659 64.6582 11.0453 64.0928 11.2078 63.5669L19.9893 35.0566H3.78659C3.31043 35.0568 2.84464 34.9176 2.44672 34.6564C2.04879 34.3952 1.73615 34.0232 1.5474 33.5865C1.35864 33.1498 1.30203 32.6674 1.38455 32.1989C1.46707 31.7305 1.68511 31.2964 2.01175 30.9503L41.0192 -10.4538C41.3961 -10.8542 41.8976 -11.1154 42.442 -11.195C42.9865 -11.2746 43.5419 -11.1679 44.0179 -10.8922V-10.8873Z" fill="#FFD5CB"/>
<circle cx="90.9922" cy="33" r="27" fill="#D94823"/>
<path d="M97.2895 16.1431C97.4941 16.2617 97.6525 16.4463 97.7387 16.6665C97.8249 16.8868 97.8338 17.1298 97.7641 17.3558L93.9985 29.5913H100.946C101.151 29.5913 101.35 29.651 101.521 29.7631C101.692 29.8752 101.826 30.0349 101.907 30.2223C101.987 30.4098 102.012 30.6168 101.976 30.8179C101.941 31.019 101.847 31.2053 101.707 31.3539L84.9808 49.126C84.8189 49.2981 84.6035 49.4103 84.3698 49.4443C84.136 49.4784 83.8976 49.4322 83.6934 49.3134C83.4892 49.1945 83.3313 49.0101 83.2453 48.79C83.1594 48.5699 83.1506 48.3272 83.2203 48.1015L86.9859 35.8638H80.038C79.8338 35.8639 79.6341 35.8042 79.4635 35.6921C79.2928 35.5799 79.1588 35.4203 79.0778 35.2328C78.9969 35.0454 78.9726 34.8383 79.008 34.6372C79.0434 34.4362 79.1369 34.2498 79.277 34.1013L96.0036 16.3292C96.1653 16.1573 96.3803 16.0452 96.6138 16.011C96.8472 15.9769 97.0854 16.0227 97.2895 16.141V16.1431Z" fill="#FFEAEA"/>
</g>
</g>
<defs>
<filter id="filter0_i_174_43444" x="-0.0078125" y="0" width="127" height="70" filterUnits="userSpaceOnUse" color-interpolation-filters="sRGB">
<feFlood flood-opacity="0" result="BackgroundImageFix"/>
<feBlend mode="normal" in="SourceGraphic" in2="BackgroundImageFix" result="shape"/>
<feColorMatrix in="SourceAlpha" type="matrix" values="0 0 0 0 0 0 0 0 0 0 0 0 0 0 0 0 0 0 127 0" result="hardAlpha"/>
<feOffset dy="4"/>
<feGaussianBlur stdDeviation="10.9"/>
<feComposite in2="hardAlpha" operator="arithmetic" k2="-1" k3="1"/>
<feColorMatrix type="matrix" values="0 0 0 0 0 0 0 0 0 0 0 0 0 0 0 0 0 0 0.25 0"/>
<feBlend mode="normal" in2="shape" result="effect1_innerShadow_174_43444"/>
</filter>
<clipPath id="clip0_174_43444">
<rect x="-0.0078125" width="127" height="66" rx="33" fill="white"/>
</clipPath>
</defs>
</svg>
