<svg width="330" height="459" viewBox="0 0 330 459" fill="none" xmlns="http://www.w3.org/2000/svg">
<g clip-path="url(#clip0_174_43717)">
<rect width="330" height="459" rx="20" fill="white"/>
<rect x="329" y="458" width="328" height="457" rx="19" transform="rotate(-180 329 458)" fill="url(#paint0_linear_174_43717)" stroke="#FFBAEB" stroke-width="2"/>
<path d="M35.92 70H32.68V49.9H36.16L43.78 61.42L45.91 64.63H46.15V49.9H49.39V70H45.91L38.32 58.66L36.13 55.39H35.92V70ZM59.1761 70.3C54.5861 70.3 51.7361 67.18 51.7361 62.53C51.7361 57.91 54.5861 54.79 59.1761 54.79C63.7361 54.79 66.4961 57.91 66.4961 62.53C66.4961 67.18 63.7361 70.3 59.1761 70.3ZM59.1761 67.42C62.2961 67.42 63.3761 65.89 63.3761 62.53C63.3761 59.2 62.2961 57.67 59.1761 57.67C56.0261 57.67 54.9161 59.2 54.9161 62.53C54.9161 65.89 56.0261 67.42 59.1761 67.42ZM78.0489 70H74.8089V49.9H78.0489V58.42H88.1889V49.9H91.4289V70H88.1889V61.33H78.0489V70ZM97.7001 53.2H94.4901L94.4601 49.9H97.7001V53.2ZM97.7301 70H94.4901V55H97.7301V70ZM106.529 70.3C102.269 70.3 99.9587 67.27 99.9587 62.53C99.9587 57.82 102.239 54.79 106.349 54.79C108.989 54.79 110.579 56.05 111.239 57.4H111.329V49.9H114.539V70H111.569V67.54H111.449C110.729 69.25 109.079 70.3 106.529 70.3ZM103.199 62.53C103.199 66.22 104.369 67.54 107.249 67.54C109.889 67.54 111.329 66.37 111.329 63.88V61.21C111.329 58.72 109.889 57.55 107.249 57.55C104.399 57.55 103.199 58.87 103.199 62.53ZM123.58 70.3C119.32 70.3 117.01 67.27 117.01 62.53C117.01 57.82 119.29 54.79 123.4 54.79C126.04 54.79 127.63 56.05 128.29 57.4H128.38V49.9H131.59V70H128.62V67.54H128.5C127.78 69.25 126.13 70.3 123.58 70.3ZM120.25 62.53C120.25 66.22 121.42 67.54 124.3 67.54C126.94 67.54 128.38 66.37 128.38 63.88V61.21C128.38 58.72 126.94 57.55 124.3 57.55C121.45 57.55 120.25 58.87 120.25 62.53ZM141.29 70.3C136.37 70.3 134.06 67.18 134.06 62.53C134.06 57.91 136.82 54.79 141.26 54.79C145.28 54.79 148.1 57.19 148.1 61.27C148.1 62.05 148.01 62.86 147.92 63.31H137.09C137.21 66.04 138.2 67.42 141.32 67.42C143.81 67.42 144.77 66.58 144.77 65.23V64.99H147.98V65.26C147.98 68.32 145.31 70.3 141.29 70.3ZM141.2 57.52C138.38 57.52 137.3 58.84 137.12 61.15H145.01C145.13 58.6 143.75 57.52 141.2 57.52ZM153.926 70H150.686V55.09H153.656V57.88H153.776C154.466 56.29 156.056 54.79 158.966 54.79C162.836 54.79 164.576 57.25 164.576 60.64V70H161.336V61.36C161.336 58.69 160.496 57.58 157.766 57.58C155.126 57.58 153.926 58.6 153.926 61.39V70ZM35.92 100H32.68V79.9H46.93V82.81H35.92V89.02H46.48V91.96H35.92V100ZM55.802 100.3C50.882 100.3 48.572 97.18 48.572 92.53C48.572 87.91 51.332 84.79 55.772 84.79C59.792 84.79 62.612 87.19 62.612 91.27C62.612 92.05 62.522 92.86 62.432 93.31H51.602C51.722 96.04 52.712 97.42 55.832 97.42C58.322 97.42 59.282 96.58 59.282 95.23V94.99H62.492V95.26C62.492 98.32 59.822 100.3 55.802 100.3ZM55.712 87.52C52.892 87.52 51.812 88.84 51.632 91.15H59.522C59.642 88.6 58.262 87.52 55.712 87.52ZM71.9739 100.3C67.0539 100.3 64.7439 97.18 64.7439 92.53C64.7439 87.91 67.5039 84.79 71.9439 84.79C75.9639 84.79 78.7839 87.19 78.7839 91.27C78.7839 92.05 78.6939 92.86 78.6039 93.31H67.7739C67.8939 96.04 68.8839 97.42 72.0039 97.42C74.4939 97.42 75.4539 96.58 75.4539 95.23V94.99H78.6639V95.26C78.6639 98.32 75.9939 100.3 71.9739 100.3ZM71.8839 87.52C69.0639 87.52 67.9839 88.84 67.8039 91.15H75.6939C75.8139 88.6 74.4339 87.52 71.8839 87.52ZM87.7858 100.3C83.4358 100.3 81.1558 98.59 81.1558 94.96V94.9H84.2758V95.44C84.2758 97.06 84.9958 97.66 87.8458 97.66C90.2458 97.66 90.6958 97.12 90.6958 96.01C90.6958 94.81 89.9758 94.45 87.7858 94.06L85.4758 93.67C82.8058 93.19 81.1258 91.99 81.1258 89.29C81.1258 86.59 83.3458 84.79 87.2458 84.79C90.7558 84.79 93.3958 86.53 93.3958 89.92V90.19H90.3058V89.83C90.3058 88.45 89.8258 87.46 87.1558 87.46C84.7858 87.46 84.2158 88.09 84.2158 89.23C84.2158 90.37 84.7558 90.7 86.8558 91.12L89.3758 91.6C92.2558 92.17 93.7558 93.46 93.7558 95.92C93.7558 98.68 91.5658 100.3 87.7858 100.3Z" fill="white"/>
<path d="M35.354 132H33.898L31.49 122.62H32.61L34.192 128.766L34.64 130.992H34.724L35.326 128.766L37.272 122.62H38.644L40.576 128.766L41.192 130.992H41.262L41.724 128.766L43.306 122.62H44.412L41.99 132H40.548L38.868 126.75L38 123.838H37.902L37.02 126.75L35.354 132ZM47.8083 132.14C45.6803 132.14 44.5743 130.642 44.5743 128.542C44.5743 126.442 45.8203 124.944 47.7943 124.944C49.4603 124.944 50.8323 125.952 50.8323 127.996C50.8323 128.318 50.8043 128.626 50.7623 128.822H45.5263C45.5683 130.348 46.1703 131.244 47.8223 131.244C49.2223 131.244 49.7823 130.614 49.7823 129.774V129.69H50.7763V129.788C50.7763 131.118 49.5723 132.14 47.8083 132.14ZM47.7663 125.812C46.2263 125.812 45.6103 126.694 45.5263 128.094H49.8803C49.9363 126.456 49.1243 125.812 47.7663 125.812ZM57.3841 132.14C55.5781 132.14 54.7381 130.894 54.7381 129.242V125.084H55.7461V129.102C55.7461 130.6 56.3481 131.258 57.7061 131.258C58.9801 131.258 59.8481 130.586 59.8481 128.962V125.084H60.8421V132H59.9321V130.474H59.8901C59.6101 131.272 58.8261 132.14 57.3841 132.14ZM65.1817 132.14C63.2917 132.14 62.2557 131.342 62.2557 129.732V129.704H63.2357V129.872C63.2357 130.824 63.6277 131.286 65.1957 131.286C66.4837 131.286 66.8197 130.922 66.8197 130.222C66.8197 129.522 66.3857 129.27 65.3357 129.074L64.1877 128.878C63.0677 128.668 62.2557 128.15 62.2557 126.932C62.2557 125.742 63.2637 124.944 64.9017 124.944C66.4837 124.944 67.6457 125.756 67.6457 127.31V127.38H66.6797V127.268C66.6797 126.442 66.3577 125.812 64.8737 125.812C63.6137 125.812 63.2217 126.218 63.2217 126.918C63.2217 127.618 63.5717 127.856 64.6077 128.052L65.7837 128.276C66.9877 128.5 67.7857 129.032 67.7857 130.18C67.7857 131.412 66.7777 132.14 65.1817 132.14ZM72.1169 132.14C69.9889 132.14 68.8829 130.642 68.8829 128.542C68.8829 126.442 70.1289 124.944 72.1029 124.944C73.7689 124.944 75.1409 125.952 75.1409 127.996C75.1409 128.318 75.1129 128.626 75.0709 128.822H69.8349C69.8769 130.348 70.4789 131.244 72.1309 131.244C73.5309 131.244 74.0909 130.614 74.0909 129.774V129.69H75.0849V129.788C75.0849 131.118 73.8809 132.14 72.1169 132.14ZM72.0749 125.812C70.5349 125.812 69.9189 126.694 69.8349 128.094H74.1889C74.2449 126.456 73.4329 125.812 72.0749 125.812ZM81.6787 132.014C80.4047 132.014 79.6627 131.51 79.6627 130.04V125.952H78.5007V125.084H79.6767L79.9147 123.32H80.6707V125.084H82.8547V125.952H80.6707V130.096C80.6707 130.908 81.0487 131.09 81.9447 131.09H82.8547V131.902C82.6167 131.944 82.1827 132.014 81.6787 132.014ZM84.9092 132H83.9012V122.62H84.9092V126.372H84.9652C85.2312 125.714 85.9452 124.944 87.3452 124.944C89.1512 124.944 89.9212 126.148 89.9212 127.73V132H88.9272V127.982C88.9272 126.484 88.4232 125.826 87.0232 125.826C85.6372 125.826 84.9092 126.47 84.9092 128.024V132ZM94.4704 132.14C92.3424 132.14 91.2364 130.642 91.2364 128.542C91.2364 126.442 92.4824 124.944 94.4564 124.944C96.1224 124.944 97.4944 125.952 97.4944 127.996C97.4944 128.318 97.4664 128.626 97.4244 128.822H92.1884C92.2304 130.348 92.8324 131.244 94.4844 131.244C95.8844 131.244 96.4444 130.614 96.4444 129.774V129.69H97.4384V129.788C97.4384 131.118 96.2344 132.14 94.4704 132.14ZM94.4284 125.812C92.8884 125.812 92.2724 126.694 92.1884 128.094H96.5424C96.5984 126.456 95.7864 125.812 94.4284 125.812ZM102.352 132H101.442V122.62H102.45V126.4C102.758 125.644 103.612 124.944 104.942 124.944C106.832 124.944 107.854 126.358 107.854 128.542C107.854 130.726 106.776 132.14 104.83 132.14C103.528 132.14 102.702 131.538 102.394 130.67H102.352V132ZM102.45 129.144C102.45 130.558 103.29 131.272 104.662 131.272C106.02 131.272 106.846 130.656 106.846 128.542C106.846 126.428 106.006 125.812 104.662 125.812C103.29 125.812 102.45 126.526 102.45 127.954V129.144ZM112.093 132.14C109.965 132.14 108.859 130.642 108.859 128.542C108.859 126.442 110.105 124.944 112.079 124.944C113.745 124.944 115.117 125.952 115.117 127.996C115.117 128.318 115.089 128.626 115.047 128.822H109.811C109.853 130.348 110.455 131.244 112.107 131.244C113.507 131.244 114.067 130.614 114.067 129.774V129.69H115.061V129.788C115.061 131.118 113.857 132.14 112.093 132.14ZM112.051 125.812C110.511 125.812 109.895 126.694 109.811 128.094H114.165C114.221 126.456 113.409 125.812 112.051 125.812ZM119.281 132.14C117.391 132.14 116.355 131.342 116.355 129.732V129.704H117.335V129.872C117.335 130.824 117.727 131.286 119.295 131.286C120.583 131.286 120.919 130.922 120.919 130.222C120.919 129.522 120.485 129.27 119.435 129.074L118.287 128.878C117.167 128.668 116.355 128.15 116.355 126.932C116.355 125.742 117.363 124.944 119.001 124.944C120.583 124.944 121.745 125.756 121.745 127.31V127.38H120.779V127.268C120.779 126.442 120.457 125.812 118.973 125.812C117.713 125.812 117.321 126.218 117.321 126.918C117.321 127.618 117.671 127.856 118.707 128.052L119.883 128.276C121.087 128.5 121.885 129.032 121.885 130.18C121.885 131.412 120.877 132.14 119.281 132.14ZM125.77 132.014C124.496 132.014 123.754 131.51 123.754 130.04V125.952H122.592V125.084H123.768L124.006 123.32H124.762V125.084H126.946V125.952H124.762V130.096C124.762 130.908 125.14 131.09 126.036 131.09H126.946V131.902C126.708 131.944 126.274 132.014 125.77 132.014ZM131.544 132H130.536V125.084H131.446V126.512H131.488C131.754 125.784 132.482 124.944 133.91 124.944C135.17 124.944 135.926 125.546 136.234 126.526H136.276C136.556 125.784 137.27 124.944 138.698 124.944C140.476 124.944 141.288 126.092 141.288 127.744V132H140.294V127.982C140.294 126.484 139.79 125.826 138.39 125.826C137.074 125.826 136.416 126.47 136.416 128.01V132H135.422V127.982C135.422 126.484 134.932 125.826 133.532 125.826C132.216 125.826 131.544 126.47 131.544 128.01V132ZM144.69 132.14C143.43 132.14 142.478 131.496 142.478 130.334C142.478 129.13 143.374 128.598 144.886 128.388L147.322 128.052V127.548C147.322 126.33 146.804 125.84 145.502 125.84C144.242 125.84 143.654 126.33 143.654 127.436V127.646H142.688V127.534C142.688 126.092 143.794 124.944 145.586 124.944C147.434 124.944 148.274 126.134 148.274 127.674V132H147.364V130.726L147.294 130.712C146.888 131.51 146.006 132.14 144.69 132.14ZM143.458 130.264C143.458 130.978 143.906 131.3 144.97 131.3C146.16 131.3 147.322 130.684 147.322 129.046V128.808L144.97 129.144C143.864 129.298 143.458 129.522 143.458 130.264ZM150.821 132H149.813V125H150.723V126.162H150.793C151.017 125.518 151.689 124.944 152.711 124.944C154.139 124.944 154.685 125.966 154.685 127.156V127.548H153.677V127.31C153.677 126.232 153.341 125.812 152.347 125.812C151.269 125.812 150.821 126.302 150.821 127.422V132ZM156.714 132H155.706V122.62H156.714V127.982H158.45L160.55 125.084H161.726L159.262 128.36L161.67 132H160.494L158.45 128.892H156.714V132ZM165.25 132.14C163.122 132.14 162.016 130.642 162.016 128.542C162.016 126.442 163.262 124.944 165.236 124.944C166.902 124.944 168.274 125.952 168.274 127.996C168.274 128.318 168.246 128.626 168.204 128.822H162.968C163.01 130.348 163.612 131.244 165.264 131.244C166.664 131.244 167.224 130.614 167.224 129.774V129.69H168.218V129.788C168.218 131.118 167.014 132.14 165.25 132.14ZM165.208 125.812C163.668 125.812 163.052 126.694 162.968 128.094H167.322C167.378 126.456 166.566 125.812 165.208 125.812ZM172.091 132.014C170.817 132.014 170.075 131.51 170.075 130.04V125.952H168.913V125.084H170.089L170.327 123.32H171.083V125.084H173.267V125.952H171.083V130.096C171.083 130.908 171.461 131.09 172.357 131.09H173.267V131.902C173.029 131.944 172.595 132.014 172.091 132.014ZM177.864 132H176.856V125H177.766V126.162H177.836C178.06 125.518 178.732 124.944 179.754 124.944C181.182 124.944 181.728 125.966 181.728 127.156V127.548H180.72V127.31C180.72 126.232 180.384 125.812 179.39 125.812C178.312 125.812 177.864 126.302 177.864 127.422V132ZM184.461 132.14C183.201 132.14 182.249 131.496 182.249 130.334C182.249 129.13 183.145 128.598 184.657 128.388L187.093 128.052V127.548C187.093 126.33 186.575 125.84 185.273 125.84C184.013 125.84 183.425 126.33 183.425 127.436V127.646H182.459V127.534C182.459 126.092 183.565 124.944 185.357 124.944C187.205 124.944 188.045 126.134 188.045 127.674V132H187.135V130.726L187.065 130.712C186.659 131.51 185.777 132.14 184.461 132.14ZM183.229 130.264C183.229 130.978 183.677 131.3 184.741 131.3C185.931 131.3 187.093 130.684 187.093 129.046V128.808L184.741 129.144C183.635 129.298 183.229 129.522 183.229 130.264ZM192.065 132.014C190.791 132.014 190.049 131.51 190.049 130.04V125.952H188.887V125.084H190.063L190.301 123.32H191.057V125.084H193.241V125.952H191.057V130.096C191.057 130.908 191.435 131.09 192.331 131.09H193.241V131.902C193.003 131.944 192.569 132.014 192.065 132.014ZM196.886 132.14C194.758 132.14 193.652 130.642 193.652 128.542C193.652 126.442 194.898 124.944 196.872 124.944C198.538 124.944 199.91 125.952 199.91 127.996C199.91 128.318 199.882 128.626 199.84 128.822H194.604C194.646 130.348 195.248 131.244 196.9 131.244C198.3 131.244 198.86 130.614 198.86 129.774V129.69H199.854V129.788C199.854 131.118 198.65 132.14 196.886 132.14ZM196.844 125.812C195.304 125.812 194.688 126.694 194.604 128.094H198.958C199.014 126.456 198.202 125.812 196.844 125.812ZM204.074 132.14C202.184 132.14 201.148 131.342 201.148 129.732V129.704H202.128V129.872C202.128 130.824 202.52 131.286 204.088 131.286C205.376 131.286 205.712 130.922 205.712 130.222C205.712 129.522 205.278 129.27 204.228 129.074L203.08 128.878C201.96 128.668 201.148 128.15 201.148 126.932C201.148 125.742 202.156 124.944 203.794 124.944C205.376 124.944 206.538 125.756 206.538 127.31V127.38H205.572V127.268C205.572 126.442 205.25 125.812 203.766 125.812C202.506 125.812 202.114 126.218 202.114 126.918C202.114 127.618 202.464 127.856 203.5 128.052L204.676 128.276C205.88 128.5 206.678 129.032 206.678 130.18C206.678 131.412 205.67 132.14 204.074 132.14ZM211.983 132H210.989V125.952H209.967V125.084H210.989V124.818C210.989 123.39 211.787 122.62 213.313 122.62H213.929V123.446H213.131C212.333 123.446 211.969 123.782 211.969 124.482V125.084H213.929V125.952H211.983V132ZM217.466 132.14C215.436 132.14 214.106 130.642 214.106 128.542C214.106 126.442 215.436 124.944 217.466 124.944C219.482 124.944 220.77 126.442 220.77 128.542C220.77 130.642 219.482 132.14 217.466 132.14ZM217.466 131.244C219.132 131.244 219.79 130.264 219.79 128.542C219.79 126.82 219.132 125.854 217.466 125.854C215.772 125.854 215.1 126.82 215.1 128.542C215.1 130.264 215.772 131.244 217.466 131.244ZM222.995 132H221.987V125H222.897V126.162H222.967C223.191 125.518 223.863 124.944 224.885 124.944C226.313 124.944 226.859 125.966 226.859 127.156V127.548H225.851V127.31C225.851 126.232 225.515 125.812 224.521 125.812C223.443 125.812 222.995 126.302 222.995 127.422V132ZM231.553 134.38C231.217 134.38 230.853 134.324 230.657 134.282V133.47H231.441C232.071 133.47 232.281 133.344 232.533 132.798L232.925 131.902L229.957 125.084H231.049L232.673 128.934L233.401 130.628H233.485L234.171 128.934L235.697 125.084H236.789L233.415 133.106C232.967 134.156 232.309 134.38 231.553 134.38ZM240.38 132.14C238.35 132.14 237.02 130.642 237.02 128.542C237.02 126.442 238.35 124.944 240.38 124.944C242.396 124.944 243.684 126.442 243.684 128.542C243.684 130.642 242.396 132.14 240.38 132.14ZM240.38 131.244C242.046 131.244 242.704 130.264 242.704 128.542C242.704 126.82 242.046 125.854 240.38 125.854C238.686 125.854 238.014 126.82 238.014 128.542C238.014 130.264 238.686 131.244 240.38 131.244ZM247.505 132.14C245.699 132.14 244.859 130.894 244.859 129.242V125.084H245.867V129.102C245.867 130.6 246.469 131.258 247.827 131.258C249.101 131.258 249.969 130.586 249.969 128.962V125.084H250.963V132H250.053V130.474H250.011C249.731 131.272 248.947 132.14 247.505 132.14ZM253.552 132H252.544V125H253.454V126.162H253.524C253.748 125.518 254.42 124.944 255.442 124.944C256.87 124.944 257.416 125.966 257.416 127.156V127.548H256.408V127.31C256.408 126.232 256.072 125.812 255.078 125.812C254 125.812 253.552 126.302 253.552 127.422V132ZM34.374 150.014C33.1 150.014 32.358 149.51 32.358 148.04V143.952H31.196V143.084H32.372L32.61 141.32H33.366V143.084H35.55V143.952H33.366V148.096C33.366 148.908 33.744 149.09 34.64 149.09H35.55V149.902C35.312 149.944 34.878 150.014 34.374 150.014ZM37.5635 150H36.5555V143H37.4655V144.162H37.5355C37.7595 143.518 38.4315 142.944 39.4535 142.944C40.8815 142.944 41.4275 143.966 41.4275 145.156V145.548H40.4195V145.31C40.4195 144.232 40.0835 143.812 39.0895 143.812C38.0115 143.812 37.5635 144.302 37.5635 145.422V150ZM44.1603 150.14C42.9003 150.14 41.9483 149.496 41.9483 148.334C41.9483 147.13 42.8443 146.598 44.3563 146.388L46.7923 146.052V145.548C46.7923 144.33 46.2743 143.84 44.9723 143.84C43.7123 143.84 43.1243 144.33 43.1243 145.436V145.646H42.1583V145.534C42.1583 144.092 43.2643 142.944 45.0563 142.944C46.9043 142.944 47.7443 144.134 47.7443 145.674V150H46.8343V148.726L46.7643 148.712C46.3583 149.51 45.4763 150.14 44.1603 150.14ZM42.9283 148.264C42.9283 148.978 43.3763 149.3 44.4403 149.3C45.6303 149.3 46.7923 148.684 46.7923 147.046V146.808L44.4403 147.144C43.3343 147.298 42.9283 147.522 42.9283 148.264ZM50.292 150H49.284V143.084H50.194V144.512H50.236C50.502 143.784 51.286 142.944 52.714 142.944C54.492 142.944 55.304 144.092 55.304 145.758V150H54.31V145.982C54.31 144.484 53.82 143.826 52.406 143.826C51.034 143.826 50.292 144.47 50.292 146.01V150ZM59.5899 150.14C57.6999 150.14 56.6639 149.342 56.6639 147.732V147.704H57.6439V147.872C57.6439 148.824 58.0359 149.286 59.6039 149.286C60.8919 149.286 61.2279 148.922 61.2279 148.222C61.2279 147.522 60.7939 147.27 59.7439 147.074L58.5959 146.878C57.4759 146.668 56.6639 146.15 56.6639 144.932C56.6639 143.742 57.6719 142.944 59.3099 142.944C60.8919 142.944 62.0539 143.756 62.0539 145.31V145.38H61.0879V145.268C61.0879 144.442 60.7659 143.812 59.2819 143.812C58.0219 143.812 57.6299 144.218 57.6299 144.918C57.6299 145.618 57.9799 145.856 59.0159 146.052L60.1919 146.276C61.3959 146.5 62.1939 147.032 62.1939 148.18C62.1939 149.412 61.1859 150.14 59.5899 150.14ZM64.8331 150H63.8391V143.952H62.8171V143.084H63.8391V142.818C63.8391 141.39 64.6371 140.62 66.1631 140.62H66.7791V141.446H65.9811C65.1831 141.446 64.8191 141.782 64.8191 142.482V143.084H66.7791V143.952H64.8331V150ZM70.1892 150.14C68.0612 150.14 66.9552 148.642 66.9552 146.542C66.9552 144.442 68.2012 142.944 70.1752 142.944C71.8412 142.944 73.2132 143.952 73.2132 145.996C73.2132 146.318 73.1852 146.626 73.1432 146.822H67.9072C67.9492 148.348 68.5512 149.244 70.2032 149.244C71.6032 149.244 72.1632 148.614 72.1632 147.774V147.69H73.1572V147.788C73.1572 149.118 71.9532 150.14 70.1892 150.14ZM70.1472 143.812C68.6072 143.812 67.9912 144.694 67.9072 146.094H72.2612C72.3172 144.456 71.5052 143.812 70.1472 143.812ZM75.5166 150H74.5086V143H75.4186V144.162H75.4886C75.7126 143.518 76.3846 142.944 77.4066 142.944C78.8346 142.944 79.3806 143.966 79.3806 145.156V145.548H78.3726V145.31C78.3726 144.232 78.0366 143.812 77.0426 143.812C75.9646 143.812 75.5166 144.302 75.5166 145.422V150ZM83.3242 150.14C81.4342 150.14 80.3982 149.342 80.3982 147.732V147.704H81.3782V147.872C81.3782 148.824 81.7702 149.286 83.3382 149.286C84.6262 149.286 84.9622 148.922 84.9622 148.222C84.9622 147.522 84.5282 147.27 83.4782 147.074L82.3302 146.878C81.2102 146.668 80.3982 146.15 80.3982 144.932C80.3982 143.742 81.4062 142.944 83.0442 142.944C84.6262 142.944 85.7882 143.756 85.7882 145.31V145.38H84.8222V145.268C84.8222 144.442 84.5002 143.812 83.0162 143.812C81.7562 143.812 81.3642 144.218 81.3642 144.918C81.3642 145.618 81.7142 145.856 82.7502 146.052L83.9262 146.276C85.1302 146.5 85.9282 147.032 85.9282 148.18C85.9282 149.412 84.9202 150.14 83.3242 150.14ZM87.2355 151.288H86.9275V150.63H87.2075C87.4035 150.63 87.5015 150.588 87.5015 150.35V150H86.9555V148.054H88.1875V150.336C88.1875 150.994 87.8235 151.288 87.2355 151.288ZM93.8849 150.14C92.6249 150.14 91.6729 149.496 91.6729 148.334C91.6729 147.13 92.5689 146.598 94.0809 146.388L96.5169 146.052V145.548C96.5169 144.33 95.9989 143.84 94.6969 143.84C93.4369 143.84 92.8489 144.33 92.8489 145.436V145.646H91.8829V145.534C91.8829 144.092 92.9889 142.944 94.7809 142.944C96.6289 142.944 97.4689 144.134 97.4689 145.674V150H96.5589V148.726L96.4889 148.712C96.0829 149.51 95.2009 150.14 93.8849 150.14ZM92.6529 148.264C92.6529 148.978 93.1009 149.3 94.1649 149.3C95.3549 149.3 96.5169 148.684 96.5169 147.046V146.808L94.1649 147.144C93.0589 147.298 92.6529 147.522 92.6529 148.264ZM100.017 150H99.0086V143.084H99.9186V144.512H99.9606C100.227 143.784 101.011 142.944 102.439 142.944C104.217 142.944 105.029 144.092 105.029 145.758V150H104.035V145.982C104.035 144.484 103.545 143.826 102.131 143.826C100.759 143.826 100.017 144.47 100.017 146.01V150ZM109.286 150.14C107.34 150.14 106.248 148.726 106.248 146.542C106.248 144.358 107.284 142.944 109.174 142.944C110.504 142.944 111.358 143.644 111.652 144.4V140.62H112.66V150H111.764V148.67H111.708C111.4 149.538 110.588 150.14 109.286 150.14ZM107.256 146.542C107.256 148.656 108.082 149.272 109.454 149.272C110.826 149.272 111.652 148.558 111.652 147.144V145.954C111.652 144.526 110.826 143.812 109.454 143.812C108.096 143.812 107.256 144.428 107.256 146.542ZM117.775 152.38C117.439 152.38 117.075 152.324 116.879 152.282V151.47H117.663C118.293 151.47 118.503 151.344 118.755 150.798L119.147 149.902L116.179 143.084H117.271L118.895 146.934L119.623 148.628H119.707L120.393 146.934L121.919 143.084H123.011L119.637 151.106C119.189 152.156 118.531 152.38 117.775 152.38ZM126.602 150.14C124.572 150.14 123.242 148.642 123.242 146.542C123.242 144.442 124.572 142.944 126.602 142.944C128.618 142.944 129.906 144.442 129.906 146.542C129.906 148.642 128.618 150.14 126.602 150.14ZM126.602 149.244C128.268 149.244 128.926 148.264 128.926 146.542C128.926 144.82 128.268 143.854 126.602 143.854C124.908 143.854 124.236 144.82 124.236 146.542C124.236 148.264 124.908 149.244 126.602 149.244ZM133.728 150.14C131.922 150.14 131.082 148.894 131.082 147.242V143.084H132.09V147.102C132.09 148.6 132.692 149.258 134.05 149.258C135.324 149.258 136.192 148.586 136.192 146.962V143.084H137.186V150H136.276V148.474H136.234C135.954 149.272 135.17 150.14 133.728 150.14ZM138.682 143.854H138.374V143.196H138.654C138.85 143.196 138.948 143.154 138.948 142.916V142.566H138.402V140.62H139.634V142.902C139.634 143.56 139.27 143.854 138.682 143.854ZM141.88 150H140.872V140.62H141.88V150ZM144.532 150H143.524V140.62H144.532V150ZM151.479 150.14C149.589 150.14 148.553 149.342 148.553 147.732V147.704H149.533V147.872C149.533 148.824 149.925 149.286 151.493 149.286C152.781 149.286 153.117 148.922 153.117 148.222C153.117 147.522 152.683 147.27 151.633 147.074L150.485 146.878C149.365 146.668 148.553 146.15 148.553 144.932C148.553 143.742 149.561 142.944 151.199 142.944C152.781 142.944 153.943 143.756 153.943 145.31V145.38H152.977V145.268C152.977 144.442 152.655 143.812 151.171 143.812C149.911 143.812 149.519 144.218 149.519 144.918C149.519 145.618 149.869 145.856 150.905 146.052L152.081 146.276C153.285 146.5 154.083 147.032 154.083 148.18C154.083 149.412 153.075 150.14 151.479 150.14ZM158.414 150.14C156.286 150.14 155.18 148.642 155.18 146.542C155.18 144.442 156.426 142.944 158.4 142.944C160.066 142.944 161.438 143.952 161.438 145.996C161.438 146.318 161.41 146.626 161.368 146.822H156.132C156.174 148.348 156.776 149.244 158.428 149.244C159.828 149.244 160.388 148.614 160.388 147.774V147.69H161.382V147.788C161.382 149.118 160.178 150.14 158.414 150.14ZM158.372 143.812C156.832 143.812 156.216 144.694 156.132 146.094H160.486C160.542 144.456 159.73 143.812 158.372 143.812ZM165.756 150.14C163.628 150.14 162.522 148.642 162.522 146.542C162.522 144.442 163.768 142.944 165.742 142.944C167.408 142.944 168.78 143.952 168.78 145.996C168.78 146.318 168.752 146.626 168.71 146.822H163.474C163.516 148.348 164.118 149.244 165.77 149.244C167.17 149.244 167.73 148.614 167.73 147.774V147.69H168.724V147.788C168.724 149.118 167.52 150.14 165.756 150.14ZM165.714 143.812C164.174 143.812 163.558 144.694 163.474 146.094H167.828C167.884 144.456 167.072 143.812 165.714 143.812ZM175.219 150H173.903L172.125 143.084H173.189L174.281 147.592L174.561 149.09H174.645L175.107 147.592L176.689 143.084H178.019L179.629 147.592L180.063 149.09H180.147L180.427 147.592L181.519 143.084H182.555L180.777 150H179.461L177.907 145.632L177.389 143.994H177.305L176.787 145.632L175.219 150ZM184.399 150H183.391V140.62H184.399V144.372H184.455C184.721 143.714 185.435 142.944 186.835 142.944C188.641 142.944 189.411 144.148 189.411 145.73V150H188.417V145.982C188.417 144.484 187.913 143.826 186.513 143.826C185.127 143.826 184.399 144.47 184.399 146.024V150ZM192.897 150.14C191.637 150.14 190.685 149.496 190.685 148.334C190.685 147.13 191.581 146.598 193.093 146.388L195.529 146.052V145.548C195.529 144.33 195.011 143.84 193.709 143.84C192.449 143.84 191.861 144.33 191.861 145.436V145.646H190.895V145.534C190.895 144.092 192.001 142.944 193.793 142.944C195.641 142.944 196.481 144.134 196.481 145.674V150H195.571V148.726L195.501 148.712C195.095 149.51 194.213 150.14 192.897 150.14ZM191.665 148.264C191.665 148.978 192.113 149.3 193.177 149.3C194.367 149.3 195.529 148.684 195.529 147.046V146.808L193.177 147.144C192.071 147.298 191.665 147.522 191.665 148.264ZM200.501 150.014C199.227 150.014 198.485 149.51 198.485 148.04V143.952H197.323V143.084H198.499L198.737 141.32H199.493V143.084H201.677V143.952H199.493V148.096C199.493 148.908 199.871 149.09 200.767 149.09H201.677V149.902C201.439 149.944 201.005 150.014 200.501 150.014ZM207.758 150H206.442L204.664 143.084H205.728L206.82 147.592L207.1 149.09H207.184L207.646 147.592L209.228 143.084H210.558L212.168 147.592L212.602 149.09H212.686L212.966 147.592L214.058 143.084H215.094L213.316 150H212L210.446 145.632L209.928 143.994H209.844L209.326 145.632L207.758 150ZM218.666 150.14C216.538 150.14 215.432 148.642 215.432 146.542C215.432 144.442 216.678 142.944 218.652 142.944C220.318 142.944 221.69 143.952 221.69 145.996C221.69 146.318 221.662 146.626 221.62 146.822H216.384C216.426 148.348 217.028 149.244 218.68 149.244C220.08 149.244 220.64 148.614 220.64 147.774V147.69H221.634V147.788C221.634 149.118 220.43 150.14 218.666 150.14ZM218.624 143.812C217.084 143.812 216.468 144.694 216.384 146.094H220.738C220.794 144.456 219.982 143.812 218.624 143.812ZM228.634 150.154C226.59 150.154 225.358 148.656 225.358 146.556C225.358 144.442 226.59 142.944 228.634 142.944C230.398 142.944 231.588 144.078 231.588 145.702V145.8H230.594V145.716C230.594 144.512 229.95 143.854 228.592 143.854C227.01 143.854 226.352 144.848 226.352 146.556C226.352 148.25 227.01 149.244 228.592 149.244C229.95 149.244 230.594 148.586 230.594 147.382V147.298H231.588V147.396C231.588 149.02 230.398 150.154 228.634 150.154ZM233.837 150H232.829V140.62H233.837V144.372H233.893C234.159 143.714 234.873 142.944 236.273 142.944C238.079 142.944 238.849 144.148 238.849 145.73V150H237.855V145.982C237.855 144.484 237.351 143.826 235.951 143.826C234.565 143.826 233.837 144.47 233.837 146.024V150ZM242.334 150.14C241.074 150.14 240.122 149.496 240.122 148.334C240.122 147.13 241.018 146.598 242.53 146.388L244.966 146.052V145.548C244.966 144.33 244.448 143.84 243.146 143.84C241.886 143.84 241.298 144.33 241.298 145.436V145.646H240.332V145.534C240.332 144.092 241.438 142.944 243.23 142.944C245.078 142.944 245.918 144.134 245.918 145.674V150H245.008V148.726L244.938 148.712C244.532 149.51 243.65 150.14 242.334 150.14ZM241.102 148.264C241.102 148.978 241.55 149.3 242.614 149.3C243.804 149.3 244.966 148.684 244.966 147.046V146.808L242.614 147.144C241.508 147.298 241.102 147.522 241.102 148.264ZM248.466 150H247.458V143H248.368V144.162H248.438C248.662 143.518 249.334 142.944 250.356 142.944C251.784 142.944 252.33 143.966 252.33 145.156V145.548H251.322V145.31C251.322 144.232 250.986 143.812 249.992 143.812C248.914 143.812 248.466 144.302 248.466 145.422V150ZM256.066 149.384C254.162 149.384 253.07 148.124 253.07 146.164C253.07 144.204 254.148 142.944 256.08 142.944C257.298 142.944 258.222 143.546 258.53 144.428H258.586V143.084H259.482V149.706C259.482 151.582 258.278 152.52 256.458 152.52C254.694 152.52 253.448 151.596 253.448 150H254.442C254.442 151.134 255.016 151.624 256.472 151.624C257.956 151.624 258.474 151.092 258.474 149.706V147.942H258.46C258.138 148.74 257.27 149.384 256.066 149.384ZM254.078 146.164C254.078 147.998 254.96 148.516 256.304 148.516C257.55 148.516 258.474 147.802 258.474 146.374V145.954C258.474 144.526 257.536 143.812 256.248 143.812C254.932 143.812 254.078 144.344 254.078 146.164ZM263.933 150.14C261.805 150.14 260.699 148.642 260.699 146.542C260.699 144.442 261.945 142.944 263.919 142.944C265.585 142.944 266.957 143.952 266.957 145.996C266.957 146.318 266.929 146.626 266.887 146.822H261.651C261.693 148.348 262.295 149.244 263.947 149.244C265.347 149.244 265.907 148.614 265.907 147.774V147.69H266.901V147.788C266.901 149.118 265.697 150.14 263.933 150.14ZM263.891 143.812C262.351 143.812 261.735 144.694 261.651 146.094H266.005C266.061 144.456 265.249 143.812 263.891 143.812ZM34.388 168.14C32.582 168.14 31.742 166.894 31.742 165.242V161.084H32.75V165.102C32.75 166.6 33.352 167.258 34.71 167.258C35.984 167.258 36.852 166.586 36.852 164.962V161.084H37.846V168H36.936V166.474H36.894C36.614 167.272 35.83 168.14 34.388 168.14ZM40.4346 170.436H39.4266V161.084H40.3366V162.428H40.3786C40.6866 161.546 41.5126 160.944 42.8146 160.944C44.7606 160.944 45.8386 162.358 45.8386 164.556C45.8386 166.726 44.8166 168.14 42.9266 168.14C41.5966 168.14 40.7426 167.44 40.4346 166.684V170.436ZM40.4346 165.144C40.4346 166.558 41.2746 167.272 42.6466 167.272C43.9906 167.272 44.8306 166.656 44.8306 164.556C44.8306 162.428 44.0046 161.812 42.6466 161.812C41.2746 161.812 40.4346 162.526 40.4346 163.954V165.144ZM48.3311 168H47.3371V161.952H46.3151V161.084H47.3371V160.818C47.3371 159.39 48.1351 158.62 49.6611 158.62H50.2771V159.446H49.4791C48.6811 159.446 48.3171 159.782 48.3171 160.482V161.084H50.2771V161.952H48.3311V168ZM52.0693 168H51.0613V161H51.9713V162.162H52.0413C52.2653 161.518 52.9373 160.944 53.9593 160.944C55.3873 160.944 55.9333 161.966 55.9333 163.156V163.548H54.9253V163.31C54.9253 162.232 54.5893 161.812 53.5953 161.812C52.5173 161.812 52.0693 162.302 52.0693 163.422V168ZM60.0339 168.14C58.0039 168.14 56.6739 166.642 56.6739 164.542C56.6739 162.442 58.0039 160.944 60.0339 160.944C62.0499 160.944 63.3379 162.442 63.3379 164.542C63.3379 166.642 62.0499 168.14 60.0339 168.14ZM60.0339 167.244C61.6999 167.244 62.3579 166.264 62.3579 164.542C62.3579 162.82 61.6999 161.854 60.0339 161.854C58.3399 161.854 57.6679 162.82 57.6679 164.542C57.6679 166.264 58.3399 167.244 60.0339 167.244ZM65.5635 168H64.5555V161.084H65.4655V162.512H65.5075C65.7735 161.784 66.5575 160.944 67.9855 160.944C69.7635 160.944 70.5755 162.092 70.5755 163.758V168H69.5815V163.982C69.5815 162.484 69.0915 161.826 67.6775 161.826C66.3055 161.826 65.5635 162.47 65.5635 164.01V168ZM74.583 168.014C73.309 168.014 72.567 167.51 72.567 166.04V161.952H71.405V161.084H72.581L72.819 159.32H73.575V161.084H75.759V161.952H73.575V166.096C73.575 166.908 73.953 167.09 74.849 167.09H75.759V167.902C75.521 167.944 75.087 168.014 74.583 168.014ZM77.8789 168H76.6469V166.054H77.8789V168Z" fill="white"/>
<g filter="url(#filter0_d_174_43717)">
<rect x="45" y="278" width="239.43" height="232.247" rx="23.943" fill="white"/>
<rect x="46.1971" y="279.197" width="237.035" height="229.853" rx="22.7458" stroke="#F4F4F4" stroke-width="2.3943"/>
</g>
<path d="M267.738 398.912C267.738 456.433 221.108 503.064 163.586 503.064C106.065 503.064 59.4346 456.433 59.4346 398.912C59.4346 341.39 106.065 294.76 163.586 294.76C221.108 294.76 267.738 341.39 267.738 398.912ZM75.0574 398.912C75.0574 447.805 114.693 487.441 163.586 487.441C212.48 487.441 252.116 447.805 252.116 398.912C252.116 350.018 212.48 310.383 163.586 310.383C114.693 310.383 75.0574 350.018 75.0574 398.912Z" fill="#C9F0FF"/>
<path d="M163.586 302.576C163.586 298.262 167.089 294.734 171.391 295.057C184.034 296.007 196.42 299.26 207.932 304.677C221.804 311.205 234.064 320.715 243.837 332.528C253.609 344.341 260.653 358.165 264.466 373.015C268.279 387.865 268.766 403.373 265.894 418.433C263.021 433.492 256.859 447.732 247.847 460.135C238.836 472.539 227.197 482.8 213.762 490.185C200.327 497.571 185.427 501.9 170.126 502.863C157.429 503.662 144.715 502.126 132.61 498.355C128.491 497.072 126.533 492.503 128.121 488.492C129.709 484.48 134.242 482.552 138.377 483.78C148.329 486.737 158.744 487.925 169.145 487.271C182.151 486.453 194.816 482.773 206.236 476.495C217.655 470.217 227.548 461.495 235.208 450.953C242.868 440.41 248.106 428.306 250.547 415.505C252.989 402.704 252.575 389.522 249.334 376.9C246.093 364.278 240.106 352.527 231.799 342.486C223.493 332.445 213.072 324.361 201.28 318.813C191.85 314.375 181.729 311.647 171.388 310.732C167.091 310.352 163.586 306.89 163.586 302.576Z" fill="#62CAFF"/>
<circle cx="171.416" cy="302.572" r="4.68684" fill="white"/>
<path d="M233.371 398.913C233.371 437.452 202.129 468.694 163.589 468.694C125.05 468.694 93.8076 437.452 93.8076 398.913C93.8076 360.373 125.05 329.131 163.589 329.131C202.129 329.131 233.371 360.373 233.371 398.913ZM109.16 398.913C109.16 428.973 133.529 453.342 163.589 453.342C193.65 453.342 218.019 428.973 218.019 398.913C218.019 368.852 193.65 344.483 163.589 344.483C133.529 344.483 109.16 368.852 109.16 398.913Z" fill="#FFE5E5"/>
<path d="M163.589 336.81C163.589 332.57 167.036 329.09 171.25 329.555C181.245 330.659 190.915 333.914 199.582 339.132C210.448 345.674 219.325 355.054 225.26 366.263C231.195 377.471 233.963 390.086 233.266 402.75C232.569 415.414 228.434 427.649 221.305 438.139C214.176 448.629 204.322 456.977 192.804 462.287C181.286 467.597 168.539 469.668 155.932 468.276C143.325 466.884 131.336 462.083 121.254 454.388C113.212 448.251 106.626 440.458 101.92 431.571C99.9363 427.825 101.903 423.339 105.845 421.778C109.787 420.218 114.202 422.184 116.301 425.867C119.902 432.185 124.746 437.741 130.568 442.184C138.432 448.186 147.783 451.931 157.617 453.017C167.45 454.102 177.393 452.487 186.377 448.346C195.361 444.204 203.047 437.692 208.607 429.51C214.168 421.327 217.393 411.784 217.937 401.906C218.481 392.028 216.322 382.189 211.693 373.446C207.063 364.703 200.139 357.387 191.664 352.285C185.389 348.507 178.44 346.048 171.24 345.026C167.043 344.43 163.589 341.049 163.589 336.81Z" fill="#D94823"/>
<circle cx="171.417" cy="336.943" r="4.68684" fill="white"/>
<g filter="url(#filter1_d_174_43717)">
<rect x="160.015" y="311.178" width="101.746" height="44.2375" rx="11.0594" fill="white"/>
</g>
<path d="M185.053 343.053H183.025V341.147C180.044 340.782 178.726 339.099 178.726 336.807V336.462H180.876V336.685C180.876 338.369 181.585 339.22 184.425 339.22C186.433 339.22 187.163 338.673 187.163 337.415C187.163 336.178 186.757 335.732 184.668 335.306L182.356 334.84C180.024 334.394 178.767 333.258 178.767 331.108C178.767 329.263 180.085 327.539 183.025 327.275V325.409H185.053V327.316C187.913 327.721 189.089 329.628 189.089 331.757V332.001H186.94V331.777C186.94 330.114 186.209 329.242 183.776 329.242C181.768 329.242 180.957 329.81 180.957 331.007C180.957 332.244 181.504 332.589 183.37 332.994L185.682 333.481C188.238 334.008 189.353 335.286 189.353 337.334C189.353 339.322 188.014 340.985 185.053 341.208V343.053ZM201.369 341.025H191.351V339.667C191.351 337.091 193.095 335.915 195.001 334.941L197.09 333.866C198.55 333.096 199.139 332.487 199.139 331.331C199.139 330.074 198.672 329.242 196.421 329.242C193.947 329.242 193.44 330.054 193.44 331.919V332.203H191.249V331.879C191.249 329.344 192.831 327.235 196.583 327.235C199.93 327.235 201.329 328.999 201.329 331.25C201.329 333.481 199.808 334.678 198.064 335.57L196.076 336.584C194.697 337.294 193.643 337.943 193.643 339.058H201.369V341.025ZM204.095 343.418H203.365V341.979H204.034C204.379 341.979 204.562 341.897 204.562 341.451V341.025H203.324V337.882H206.103V341.411C206.103 342.77 205.373 343.418 204.095 343.418ZM213.124 341.228C209.25 341.228 207.77 339.464 207.77 336.868V336.543H209.92V336.848C209.92 338.551 210.487 339.22 213.164 339.22C215.314 339.22 216.166 338.693 216.166 337.111C216.166 335.408 215.416 334.901 213.53 334.901H210.812V333.075H213.225C215.01 333.075 215.7 332.629 215.7 331.21C215.7 329.79 214.888 329.242 212.982 329.242C210.629 329.242 209.92 329.912 209.92 331.615V331.777H207.77V331.595C207.77 328.999 209.595 327.235 213.002 327.235C216.065 327.235 217.89 328.492 217.89 330.865C217.89 332.426 217.099 333.582 215.375 333.826V333.907C217.241 334.171 218.377 335.387 218.377 337.334C218.377 339.951 216.267 341.228 213.124 341.228ZM225.811 341.228C222.282 341.228 220.457 339.667 220.457 337.172V337.05H222.627V337.172C222.627 338.693 223.641 339.22 225.892 339.22C228.285 339.22 229.076 338.551 229.076 336.645C229.076 334.82 228.204 334.11 225.912 334.11C224.249 334.11 223.276 334.576 222.606 334.962L220.68 334.657L221.146 327.437H230.516V329.405H223.073L222.748 333.359H222.809C223.519 332.771 224.797 332.224 226.581 332.224C229.481 332.224 231.246 333.846 231.246 336.584C231.246 339.403 229.563 341.228 225.811 341.228ZM239.334 341.228C235.684 341.228 233.473 338.531 233.473 334.231C233.473 329.932 235.684 327.235 239.334 327.235C242.985 327.235 245.216 329.932 245.216 334.231C245.216 338.531 242.985 341.228 239.334 341.228ZM239.334 339.119C241.748 339.119 242.884 337.821 242.884 334.231C242.884 330.642 241.748 329.344 239.334 329.344C236.921 329.344 235.806 330.642 235.806 334.231C235.806 337.821 236.921 339.119 239.334 339.119Z" fill="#212020"/>
<path d="M205.252 398.913C205.252 421.921 186.6 440.573 163.591 440.573C140.583 440.573 121.931 421.921 121.931 398.913C121.931 375.904 140.583 357.252 163.591 357.252C186.6 357.252 205.252 375.904 205.252 398.913ZM136.095 398.913C136.095 414.098 148.406 426.409 163.591 426.409C178.777 426.409 191.088 414.098 191.088 398.913C191.088 383.727 178.777 371.417 163.591 371.417C148.406 371.417 136.095 383.727 136.095 398.913Z" fill="#FFEFD7"/>
<path d="M163.591 364.337C163.591 360.426 166.785 357.193 170.64 357.855C176.371 358.839 181.859 361.016 186.737 364.276C193.588 368.853 198.928 375.36 202.081 382.973C205.234 390.585 206.059 398.962 204.452 407.043C202.844 415.124 198.876 422.548 193.05 428.374C187.224 434.2 179.8 438.168 171.719 439.776C163.638 441.383 155.261 440.558 147.649 437.405C140.036 434.252 133.53 428.912 128.952 422.061C125.692 417.183 123.515 411.695 122.531 405.964C121.869 402.109 125.102 398.915 129.013 398.915C132.924 398.915 136.006 402.137 137.002 405.92C137.774 408.849 139.028 411.646 140.729 414.191C143.751 418.713 148.045 422.237 153.069 424.318C158.093 426.4 163.622 426.944 168.956 425.883C174.289 424.822 179.189 422.203 183.034 418.358C186.88 414.513 189.498 409.613 190.559 404.28C191.62 398.946 191.076 393.417 188.995 388.393C186.913 383.369 183.389 379.075 178.867 376.053C176.322 374.352 173.525 373.098 170.596 372.326C166.813 371.33 163.591 368.248 163.591 364.337Z" fill="#F69E1E"/>
<circle cx="171.416" cy="365.064" r="4.68684" fill="white"/>
<g filter="url(#filter2_d_174_43717)">
<rect x="62" y="217" width="195" height="86" rx="11.0594" fill="#FFEAE5"/>
</g>
<path d="M143.807 255.35C137.507 255.35 133.692 250.695 133.692 243.275C133.692 235.855 137.507 231.2 143.807 231.2C150.107 231.2 153.957 235.855 153.957 243.275C153.957 250.695 150.107 255.35 143.807 255.35ZM143.807 251.71C147.972 251.71 149.932 249.47 149.932 243.275C149.932 237.08 147.972 234.84 143.807 234.84C139.642 234.84 137.717 237.08 137.717 243.275C137.717 249.47 139.642 251.71 143.807 251.71ZM162.726 242.82C159.086 242.82 156.986 240.335 156.986 237.01C156.986 233.685 159.086 231.2 162.726 231.2C166.401 231.2 168.466 233.685 168.466 237.01C168.466 240.335 166.401 242.82 162.726 242.82ZM162.621 255H158.911L176.866 231.55H180.541L162.621 255ZM162.726 240.16C164.791 240.16 165.561 239.285 165.561 237.01C165.561 234.735 164.791 233.86 162.726 233.86C160.661 233.86 159.926 234.735 159.926 237.01C159.926 239.285 160.661 240.16 162.726 240.16ZM176.691 255.35C173.051 255.35 170.951 252.9 170.951 249.54C170.951 246.215 173.051 243.73 176.691 243.73C180.366 243.73 182.431 246.215 182.431 249.54C182.431 252.9 180.366 255.35 176.691 255.35ZM176.691 252.69C178.756 252.69 179.526 251.815 179.526 249.54C179.526 247.265 178.756 246.39 176.691 246.39C174.626 246.39 173.891 247.265 173.891 249.54C173.891 251.815 174.626 252.69 176.691 252.69ZM110.185 284H107.994V270.412H110.185V276.172H117.039V270.412H119.23V284H117.039V278.139H110.185V284ZM123.672 272.643H121.502L121.482 270.412H123.672V272.643ZM123.692 284H121.502V273.86H123.692V284ZM129.843 284.203C126.963 284.203 125.402 282.154 125.402 278.95C125.402 275.766 126.943 273.718 129.721 273.718C131.506 273.718 132.581 274.57 133.027 275.482H133.088V270.412H135.258V284H133.25V282.337H133.169C132.682 283.493 131.567 284.203 129.843 284.203ZM127.592 278.95C127.592 281.445 128.383 282.337 130.33 282.337C132.114 282.337 133.088 281.546 133.088 279.863V278.058C133.088 276.375 132.114 275.584 130.33 275.584C128.403 275.584 127.592 276.476 127.592 278.95ZM141.572 284.203C138.693 284.203 137.131 282.154 137.131 278.95C137.131 275.766 138.672 273.718 141.451 273.718C143.235 273.718 144.31 274.57 144.756 275.482H144.817V270.412H146.987V284H144.98V282.337H144.898C144.412 283.493 143.296 284.203 141.572 284.203ZM139.321 278.95C139.321 281.445 140.112 282.337 142.059 282.337C143.844 282.337 144.817 281.546 144.817 279.863V278.058C144.817 276.375 143.844 275.584 142.059 275.584C140.133 275.584 139.321 276.476 139.321 278.95ZM153.748 284.203C150.422 284.203 148.86 282.094 148.86 278.95C148.86 275.827 150.726 273.718 153.728 273.718C156.445 273.718 158.352 275.34 158.352 278.098C158.352 278.626 158.291 279.173 158.23 279.477H150.909C150.99 281.323 151.659 282.256 153.768 282.256C155.452 282.256 156.101 281.688 156.101 280.775V280.613H158.271V280.796C158.271 282.864 156.466 284.203 153.748 284.203ZM153.687 275.563C151.781 275.563 151.051 276.456 150.929 278.017H156.263C156.344 276.293 155.411 275.563 153.687 275.563ZM162.493 284H160.302V273.921H162.31V275.807H162.391C162.858 274.732 163.933 273.718 165.9 273.718C168.516 273.718 169.692 275.381 169.692 277.672V284H167.502V278.159C167.502 276.354 166.934 275.604 165.089 275.604C163.304 275.604 162.493 276.293 162.493 278.179V284ZM180.54 284.223C177.396 284.223 175.612 282.094 175.612 278.97C175.612 275.827 177.457 273.718 180.621 273.718C183.278 273.718 185.103 275.36 185.103 277.774V277.956H182.933V277.835C182.933 276.354 182.162 275.685 180.479 275.685C178.532 275.685 177.782 276.78 177.782 278.97C177.782 281.161 178.532 282.236 180.479 282.236C182.162 282.236 182.933 281.587 182.933 280.106V279.984H185.103V280.167C185.103 282.56 183.257 284.223 180.54 284.223ZM191.678 284.203C188.575 284.203 186.648 282.094 186.648 278.95C186.648 275.827 188.575 273.718 191.678 273.718C194.76 273.718 196.626 275.827 196.626 278.95C196.626 282.094 194.76 284.203 191.678 284.203ZM191.678 282.256C193.787 282.256 194.517 281.222 194.517 278.95C194.517 276.699 193.787 275.665 191.678 275.665C189.548 275.665 188.798 276.699 188.798 278.95C188.798 281.222 189.548 282.256 191.678 282.256ZM202.804 284.203C199.863 284.203 198.322 283.047 198.322 280.593V280.552H200.431V280.917C200.431 282.013 200.918 282.418 202.844 282.418C204.467 282.418 204.771 282.053 204.771 281.303C204.771 280.491 204.284 280.248 202.804 279.984L201.242 279.721C199.437 279.396 198.301 278.585 198.301 276.76C198.301 274.935 199.802 273.718 202.439 273.718C204.812 273.718 206.596 274.894 206.596 277.186V277.368H204.507V277.125C204.507 276.192 204.183 275.523 202.378 275.523C200.776 275.523 200.39 275.949 200.39 276.719C200.39 277.49 200.755 277.713 202.175 277.997L203.879 278.321C205.826 278.707 206.84 279.579 206.84 281.242C206.84 283.108 205.359 284.203 202.804 284.203ZM212.909 284C210.658 284 209.481 283.168 209.481 280.897V275.746H207.798V273.921H209.522L209.988 271.426H211.672V273.921H214.714V275.746H211.672V280.796C211.672 281.85 212.118 282.033 213.477 282.033H214.714V283.817C214.288 283.919 213.598 284 212.909 284Z" fill="#EB1D25"/>
</g>
<rect x="1" y="1" width="328" height="457" rx="19" stroke="#FFBAEB" stroke-width="2"/>
<defs>
<filter id="filter0_d_174_43717" x="-18.1932" y="218.318" width="362.305" height="355.122" filterUnits="userSpaceOnUse" color-interpolation-filters="sRGB">
<feFlood flood-opacity="0" result="BackgroundImageFix"/>
<feColorMatrix in="SourceAlpha" type="matrix" values="0 0 0 0 0 0 0 0 0 0 0 0 0 0 0 0 0 0 127 0" result="hardAlpha"/>
<feOffset dx="-1.75537" dy="1.75537"/>
<feGaussianBlur stdDeviation="30.7189"/>
<feComposite in2="hardAlpha" operator="out"/>
<feColorMatrix type="matrix" values="0 0 0 0 0.971154 0 0 0 0 0.971154 0 0 0 0 0.971154 0 0 0 0.25 0"/>
<feBlend mode="normal" in2="BackgroundImageFix" result="effect1_dropShadow_174_43717"/>
<feBlend mode="normal" in="SourceGraphic" in2="effect1_dropShadow_174_43717" result="shape"/>
</filter>
<filter id="filter1_d_174_43717" x="101.636" y="256.042" width="215.26" height="157.752" filterUnits="userSpaceOnUse" color-interpolation-filters="sRGB">
<feFlood flood-opacity="0" result="BackgroundImageFix"/>
<feColorMatrix in="SourceAlpha" type="matrix" values="0 0 0 0 0 0 0 0 0 0 0 0 0 0 0 0 0 0 127 0" result="hardAlpha"/>
<feOffset dx="-1.62163" dy="1.62163"/>
<feGaussianBlur stdDeviation="28.3784"/>
<feComposite in2="hardAlpha" operator="out"/>
<feColorMatrix type="matrix" values="0 0 0 0 0 0 0 0 0 0 0 0 0 0 0 0 0 0 0.25 0"/>
<feBlend mode="normal" in2="BackgroundImageFix" result="effect1_dropShadow_174_43717"/>
<feBlend mode="normal" in="SourceGraphic" in2="effect1_dropShadow_174_43717" result="shape"/>
</filter>
<filter id="filter2_d_174_43717" x="3.62149" y="161.865" width="308.514" height="199.514" filterUnits="userSpaceOnUse" color-interpolation-filters="sRGB">
<feFlood flood-opacity="0" result="BackgroundImageFix"/>
<feColorMatrix in="SourceAlpha" type="matrix" values="0 0 0 0 0 0 0 0 0 0 0 0 0 0 0 0 0 0 127 0" result="hardAlpha"/>
<feOffset dx="-1.62163" dy="1.62163"/>
<feGaussianBlur stdDeviation="28.3784"/>
<feComposite in2="hardAlpha" operator="out"/>
<feColorMatrix type="matrix" values="0 0 0 0 0 0 0 0 0 0 0 0 0 0 0 0 0 0 0.25 0"/>
<feBlend mode="normal" in2="BackgroundImageFix" result="effect1_dropShadow_174_43717"/>
<feBlend mode="normal" in="SourceGraphic" in2="effect1_dropShadow_174_43717" result="shape"/>
</filter>
<linearGradient id="paint0_linear_174_43717" x1="311" y1="473" x2="719.225" y2="668.312" gradientUnits="userSpaceOnUse">
<stop offset="0.00329564" stop-color="#C454A6"/>
<stop offset="0.320402" stop-color="#FF69D6"/>
<stop offset="1" stop-color="#B60081"/>
</linearGradient>
<clipPath id="clip0_174_43717">
<rect width="330" height="459" rx="20" fill="white"/>
</clipPath>
</defs>
</svg>
