<svg width="332" height="461" viewBox="0 0 332 461" fill="none" xmlns="http://www.w3.org/2000/svg">
<g clip-path="url(#clip0_174_43641)">
<rect x="331" y="460" width="330" height="459" rx="20" transform="rotate(-180 331 460)" fill="white"/>
<path d="M41.93 70.3C36.23 70.3 32.99 66.34 32.99 59.95C32.99 53.68 36.59 49.6 42.56 49.6C47.93 49.6 51.2 52.48 51.2 57.1V57.31H47.78V57.1C47.78 54.07 46.25 52.72 42.41 52.72C38.18 52.72 36.44 54.73 36.44 59.95C36.44 65.17 38.24 67.18 42.68 67.18C46.37 67.18 48.11 66.1 48.11 62.95V62.47H41.84V59.68H51.23V70H48.26V66.85H48.14C47.39 68.68 45.29 70.3 41.93 70.3ZM57.8066 70H54.5666V49.9H57.8066V70ZM67.7054 70.3C63.1154 70.3 60.2654 67.18 60.2654 62.53C60.2654 57.91 63.1154 54.79 67.7054 54.79C72.2654 54.79 75.0254 57.91 75.0254 62.53C75.0254 67.18 72.2654 70.3 67.7054 70.3ZM67.7054 67.42C70.8254 67.42 71.9054 65.89 71.9054 62.53C71.9054 59.2 70.8254 57.67 67.7054 57.67C64.5554 57.67 63.4454 59.2 63.4454 62.53C63.4454 65.89 64.5554 67.42 67.7054 67.42ZM80.4467 70H77.4767V49.9H80.7167V57.46H80.7767C81.4367 56.11 83.1467 54.79 85.7867 54.79C89.8967 54.79 92.0567 57.82 92.0567 62.53C92.0567 67.27 89.7767 70.3 85.6067 70.3C83.0267 70.3 81.2867 69.28 80.5667 67.54H80.4467V70ZM80.7167 63.88C80.7167 66.37 82.1567 67.54 84.7667 67.54C87.6467 67.54 88.8467 66.22 88.8467 62.53C88.8467 58.87 87.6167 57.55 84.7667 57.55C82.1567 57.55 80.7167 58.72 80.7167 61.21V63.88ZM98.6954 70.3C96.0254 70.3 93.9554 68.92 93.9554 66.31C93.9554 63.85 95.7554 62.56 98.9354 62.11L104.155 61.33V60.52C104.155 58.3 103.135 57.64 100.795 57.64C98.4254 57.64 97.4954 58.39 97.4954 60.37V60.82H94.3754V60.52C94.3754 57.19 96.9854 54.79 100.975 54.79C105.145 54.79 107.245 57.31 107.245 60.94V70H104.245V67.66H104.095C103.225 69.07 101.515 70.3 98.6954 70.3ZM97.1054 66.07C97.1054 67.24 97.8554 67.72 99.7454 67.72C101.845 67.72 104.155 66.88 104.155 63.88V63.61L99.4154 64.33C97.7054 64.57 97.1054 64.96 97.1054 66.07ZM113.588 70H110.348V49.9H113.588V70ZM42.23 100H39.02V82.81H32.18V79.9H49.07V82.81H42.23V100ZM52.8847 100H49.6447V85H52.6147V87.37H52.7647C53.3647 85.99 54.7447 84.79 56.9347 84.79C60.0547 84.79 61.2547 87.07 61.2547 89.86V90.85H58.0147V90.25C58.0147 88.27 57.4447 87.55 55.5547 87.55C53.6047 87.55 52.8847 88.3 52.8847 90.28V100ZM67.0548 100.3C64.3848 100.3 62.3148 98.92 62.3148 96.31C62.3148 93.85 64.1148 92.56 67.2948 92.11L72.5148 91.33V90.52C72.5148 88.3 71.4948 87.64 69.1548 87.64C66.7848 87.64 65.8548 88.39 65.8548 90.37V90.82H62.7348V90.52C62.7348 87.19 65.3448 84.79 69.3348 84.79C73.5048 84.79 75.6048 87.31 75.6048 90.94V100H72.6048V97.66H72.4548C71.5848 99.07 69.8748 100.3 67.0548 100.3ZM65.4648 96.07C65.4648 97.24 66.2148 97.72 68.1048 97.72C70.2048 97.72 72.5148 96.88 72.5148 93.88V93.61L67.7748 94.33C66.0648 94.57 65.4648 94.96 65.4648 96.07ZM81.9472 100H78.7072V85.09H81.6772V87.88H81.7972C82.4872 86.29 84.0772 84.79 86.9872 84.79C90.8572 84.79 92.5972 87.25 92.5972 90.64V100H89.3572V91.36C89.3572 88.69 88.5172 87.58 85.7872 87.58C83.1472 87.58 81.9472 88.6 81.9472 91.39V100ZM101.881 100.3C97.5315 100.3 95.2515 98.59 95.2515 94.96V94.9H98.3715V95.44C98.3715 97.06 99.0915 97.66 101.941 97.66C104.341 97.66 104.791 97.12 104.791 96.01C104.791 94.81 104.071 94.45 101.881 94.06L99.5715 93.67C96.9015 93.19 95.2215 91.99 95.2215 89.29C95.2215 86.59 97.4415 84.79 101.341 84.79C104.851 84.79 107.491 86.53 107.491 89.92V90.19H104.401V89.83C104.401 88.45 103.921 87.46 101.251 87.46C98.8815 87.46 98.3115 88.09 98.3115 89.23C98.3115 90.37 98.8515 90.7 100.951 91.12L103.471 91.6C106.351 92.17 107.851 93.46 107.851 95.92C107.851 98.68 105.661 100.3 101.881 100.3ZM114.309 100H111.069V87.79H108.879V85.09H111.069C111.129 81.73 113.139 79.9 116.919 79.9H118.119V82.48H116.319C114.879 82.48 114.219 83.02 114.219 84.28V85.09H118.119V87.79H114.309V100ZM125.855 100.3C120.935 100.3 118.625 97.18 118.625 92.53C118.625 87.91 121.385 84.79 125.825 84.79C129.845 84.79 132.665 87.19 132.665 91.27C132.665 92.05 132.575 92.86 132.485 93.31H121.655C121.775 96.04 122.765 97.42 125.885 97.42C128.375 97.42 129.335 96.58 129.335 95.23V94.99H132.545V95.26C132.545 98.32 129.875 100.3 125.855 100.3ZM125.765 87.52C122.945 87.52 121.865 88.84 121.685 91.15H129.575C129.695 88.6 128.315 87.52 125.765 87.52ZM138.49 100H135.25V85H138.22V87.37H138.37C138.97 85.99 140.35 84.79 142.54 84.79C145.66 84.79 146.86 87.07 146.86 89.86V90.85H143.62V90.25C143.62 88.27 143.05 87.55 141.16 87.55C139.21 87.55 138.49 88.3 138.49 90.28V100ZM155.407 100.3C151.057 100.3 148.777 98.59 148.777 94.96V94.9H151.897V95.44C151.897 97.06 152.617 97.66 155.467 97.66C157.867 97.66 158.317 97.12 158.317 96.01C158.317 94.81 157.597 94.45 155.407 94.06L153.097 93.67C150.427 93.19 148.747 91.99 148.747 89.29C148.747 86.59 150.967 84.79 154.867 84.79C158.377 84.79 161.017 86.53 161.017 89.92V90.19H157.927V89.83C157.927 88.45 157.447 87.46 154.777 87.46C152.407 87.46 151.837 88.09 151.837 89.23C151.837 90.37 152.377 90.7 154.477 91.12L156.997 91.6C159.877 92.17 161.377 93.46 161.377 95.92C161.377 98.68 159.187 100.3 155.407 100.3Z" fill="#232323"/>
<path d="M36.41 132.14C33.806 132.14 32.672 130.768 32.672 129.158V128.948H33.666V129.102C33.666 130.404 34.352 131.216 36.438 131.216C37.992 131.216 38.72 130.698 38.72 129.62C38.72 128.57 38.244 128.178 36.83 127.87L35.206 127.506C33.736 127.198 32.728 126.526 32.728 125.014C32.728 123.656 33.848 122.48 36.074 122.48C38.51 122.48 39.574 123.964 39.574 125.49V125.672H38.58V125.518C38.58 124.23 37.908 123.404 36.06 123.404C34.506 123.404 33.736 123.922 33.736 124.944C33.736 126.008 34.254 126.316 35.626 126.638L37.25 127.016C38.804 127.366 39.728 128.094 39.728 129.564C39.728 130.992 38.622 132.14 36.41 132.14ZM42.8498 132.14C41.5898 132.14 40.6378 131.496 40.6378 130.334C40.6378 129.13 41.5338 128.598 43.0458 128.388L45.4818 128.052V127.548C45.4818 126.33 44.9638 125.84 43.6618 125.84C42.4018 125.84 41.8138 126.33 41.8138 127.436V127.646H40.8478V127.534C40.8478 126.092 41.9538 124.944 43.7458 124.944C45.5938 124.944 46.4338 126.134 46.4338 127.674V132H45.5238V130.726L45.4538 130.712C45.0478 131.51 44.1658 132.14 42.8498 132.14ZM41.6178 130.264C41.6178 130.978 42.0658 131.3 43.1298 131.3C44.3198 131.3 45.4818 130.684 45.4818 129.046V128.808L43.1298 129.144C42.0238 129.298 41.6178 129.522 41.6178 130.264ZM51.143 132H49.897L47.069 125.084H48.161L50.499 131.02H50.569L52.893 125.084H53.971L51.143 132ZM57.4626 132.14C55.3346 132.14 54.2286 130.642 54.2286 128.542C54.2286 126.442 55.4746 124.944 57.4486 124.944C59.1146 124.944 60.4866 125.952 60.4866 127.996C60.4866 128.318 60.4586 128.626 60.4166 128.822H55.1806C55.2226 130.348 55.8246 131.244 57.4766 131.244C58.8766 131.244 59.4366 130.614 59.4366 129.774V129.69H60.4306V129.788C60.4306 131.118 59.2266 132.14 57.4626 132.14ZM57.4206 125.812C55.8806 125.812 55.2646 126.694 55.1806 128.094H59.5346C59.5906 126.456 58.7786 125.812 57.4206 125.812ZM67.0244 132.014C65.7504 132.014 65.0084 131.51 65.0084 130.04V125.952H63.8464V125.084H65.0224L65.2604 123.32H66.0164V125.084H68.2004V125.952H66.0164V130.096C66.0164 130.908 66.3944 131.09 67.2904 131.09H68.2004V131.902C67.9624 131.944 67.5284 132.014 67.0244 132.014ZM70.2139 132H69.2059V125H70.1159V126.162H70.1859C70.4099 125.518 71.0819 124.944 72.1039 124.944C73.5319 124.944 74.0779 125.966 74.0779 127.156V127.548H73.0699V127.31C73.0699 126.232 72.7339 125.812 71.7399 125.812C70.6619 125.812 70.2139 126.302 70.2139 127.422V132ZM76.8107 132.14C75.5507 132.14 74.5987 131.496 74.5987 130.334C74.5987 129.13 75.4947 128.598 77.0067 128.388L79.4427 128.052V127.548C79.4427 126.33 78.9247 125.84 77.6227 125.84C76.3627 125.84 75.7747 126.33 75.7747 127.436V127.646H74.8087V127.534C74.8087 126.092 75.9147 124.944 77.7067 124.944C79.5547 124.944 80.3947 126.134 80.3947 127.674V132H79.4847V130.726L79.4147 130.712C79.0087 131.51 78.1267 132.14 76.8107 132.14ZM75.5787 130.264C75.5787 130.978 76.0267 131.3 77.0907 131.3C78.2807 131.3 79.4427 130.684 79.4427 129.046V128.808L77.0907 129.144C75.9847 129.298 75.5787 129.522 75.5787 130.264ZM82.9424 132H81.9344V125.084H82.8444V126.512H82.8864C83.1524 125.784 83.9364 124.944 85.3644 124.944C87.1424 124.944 87.9544 126.092 87.9544 127.758V132H86.9604V127.982C86.9604 126.484 86.4704 125.826 85.0564 125.826C83.6844 125.826 82.9424 126.47 82.9424 128.01V132ZM92.2403 132.14C90.3503 132.14 89.3143 131.342 89.3143 129.732V129.704H90.2943V129.872C90.2943 130.824 90.6863 131.286 92.2542 131.286C93.5423 131.286 93.8783 130.922 93.8783 130.222C93.8783 129.522 93.4443 129.27 92.3943 129.074L91.2463 128.878C90.1263 128.668 89.3143 128.15 89.3143 126.932C89.3143 125.742 90.3223 124.944 91.9603 124.944C93.5423 124.944 94.7043 125.756 94.7043 127.31V127.38H93.7383V127.268C93.7383 126.442 93.4163 125.812 91.9323 125.812C90.6723 125.812 90.2803 126.218 90.2803 126.918C90.2803 127.618 90.6303 127.856 91.6663 128.052L92.8423 128.276C94.0463 128.5 94.8443 129.032 94.8443 130.18C94.8443 131.412 93.8363 132.14 92.2403 132.14ZM97.4835 132H96.4895V125.952H95.4675V125.084H96.4895V124.818C96.4895 123.39 97.2875 122.62 98.8135 122.62H99.4295V123.446H98.6315C97.8335 123.446 97.4695 123.782 97.4695 124.482V125.084H99.4295V125.952H97.4835V132ZM102.84 132.14C100.712 132.14 99.6056 130.642 99.6056 128.542C99.6056 126.442 100.852 124.944 102.826 124.944C104.492 124.944 105.864 125.952 105.864 127.996C105.864 128.318 105.836 128.626 105.794 128.822H100.558C100.6 130.348 101.202 131.244 102.854 131.244C104.254 131.244 104.814 130.614 104.814 129.774V129.69H105.808V129.788C105.808 131.118 104.604 132.14 102.84 132.14ZM102.798 125.812C101.258 125.812 100.642 126.694 100.558 128.094H104.912C104.968 126.456 104.156 125.812 102.798 125.812ZM108.167 132H107.159V125H108.069V126.162H108.139C108.363 125.518 109.035 124.944 110.057 124.944C111.485 124.944 112.031 125.966 112.031 127.156V127.548H111.023V127.31C111.023 126.232 110.687 125.812 109.693 125.812C108.615 125.812 108.167 126.302 108.167 127.422V132ZM117.103 132H116.109V125.952H115.087V125.084H116.109V124.818C116.109 123.39 116.907 122.62 118.433 122.62H119.049V123.446H118.251C117.453 123.446 117.089 123.782 117.089 124.482V125.084H119.049V125.952H117.103V132ZM122.459 132.14C120.331 132.14 119.225 130.642 119.225 128.542C119.225 126.442 120.471 124.944 122.445 124.944C124.111 124.944 125.483 125.952 125.483 127.996C125.483 128.318 125.455 128.626 125.413 128.822H120.177C120.219 130.348 120.821 131.244 122.473 131.244C123.873 131.244 124.433 130.614 124.433 129.774V129.69H125.427V129.788C125.427 131.118 124.223 132.14 122.459 132.14ZM122.417 125.812C120.877 125.812 120.261 126.694 120.177 128.094H124.531C124.587 126.456 123.775 125.812 122.417 125.812ZM129.801 132.14C127.673 132.14 126.567 130.642 126.567 128.542C126.567 126.442 127.812 124.944 129.787 124.944C131.453 124.944 132.825 125.952 132.825 127.996C132.825 128.318 132.797 128.626 132.755 128.822H127.519C127.561 130.348 128.163 131.244 129.815 131.244C131.215 131.244 131.775 130.614 131.775 129.774V129.69H132.769V129.788C132.769 131.118 131.565 132.14 129.801 132.14ZM129.758 125.812C128.219 125.812 127.603 126.694 127.519 128.094H131.873C131.929 126.456 131.117 125.812 129.758 125.812ZM136.988 132.14C135.098 132.14 134.062 131.342 134.062 129.732V129.704H135.042V129.872C135.042 130.824 135.434 131.286 137.002 131.286C138.29 131.286 138.626 130.922 138.626 130.222C138.626 129.522 138.192 129.27 137.142 129.074L135.994 128.878C134.874 128.668 134.062 128.15 134.062 126.932C134.062 125.742 135.07 124.944 136.708 124.944C138.29 124.944 139.452 125.756 139.452 127.31V127.38H138.486V127.268C138.486 126.442 138.164 125.812 136.68 125.812C135.42 125.812 135.028 126.218 135.028 126.918C135.028 127.618 135.378 127.856 136.414 128.052L137.59 128.276C138.794 128.5 139.592 129.032 139.592 130.18C139.592 131.412 138.584 132.14 136.988 132.14ZM145.444 132.14C144.184 132.14 143.232 131.496 143.232 130.334C143.232 129.13 144.128 128.598 145.64 128.388L148.076 128.052V127.548C148.076 126.33 147.558 125.84 146.256 125.84C144.996 125.84 144.408 126.33 144.408 127.436V127.646H143.442V127.534C143.442 126.092 144.548 124.944 146.34 124.944C148.188 124.944 149.028 126.134 149.028 127.674V132H148.118V130.726L148.048 130.712C147.642 131.51 146.76 132.14 145.444 132.14ZM144.212 130.264C144.212 130.978 144.66 131.3 145.724 131.3C146.914 131.3 148.076 130.684 148.076 129.046V128.808L145.724 129.144C144.618 129.298 144.212 129.522 144.212 130.264ZM151.575 132H150.567V125.084H151.477V126.512H151.519C151.785 125.784 152.569 124.944 153.997 124.944C155.775 124.944 156.587 126.092 156.587 127.758V132H155.593V127.982C155.593 126.484 155.103 125.826 153.689 125.826C152.317 125.826 151.575 126.47 151.575 128.01V132ZM160.845 132.14C158.899 132.14 157.807 130.726 157.807 128.542C157.807 126.358 158.843 124.944 160.733 124.944C162.063 124.944 162.917 125.644 163.211 126.4V122.62H164.219V132H163.323V130.67H163.267C162.959 131.538 162.147 132.14 160.845 132.14ZM158.815 128.542C158.815 130.656 159.641 131.272 161.013 131.272C162.385 131.272 163.211 130.558 163.211 129.144V127.954C163.211 126.526 162.385 125.812 161.013 125.812C159.655 125.812 158.815 126.428 158.815 128.542ZM171.322 132.14C169.194 132.14 168.088 130.642 168.088 128.542C168.088 126.442 169.334 124.944 171.308 124.944C172.974 124.944 174.346 125.952 174.346 127.996C174.346 128.318 174.318 128.626 174.276 128.822H169.04C169.082 130.348 169.684 131.244 171.336 131.244C172.736 131.244 173.296 130.614 173.296 129.774V129.69H174.29V129.788C174.29 131.118 173.086 132.14 171.322 132.14ZM171.28 125.812C169.74 125.812 169.124 126.694 169.04 128.094H173.394C173.45 126.456 172.638 125.812 171.28 125.812ZM176.649 132H175.641V125.084H176.551V126.512H176.593C176.859 125.784 177.643 124.944 179.071 124.944C180.849 124.944 181.661 126.092 181.661 127.758V132H180.667V127.982C180.667 126.484 180.177 125.826 178.763 125.826C177.391 125.826 176.649 126.47 176.649 128.01V132ZM184.347 124.16H183.339V122.62H184.347V124.16ZM181.995 134.38V133.456H182.485C183.157 133.456 183.339 133.33 183.339 132.714V125.084H184.347V132.476C184.347 133.96 183.591 134.38 182.387 134.38H181.995ZM188.921 132.14C186.891 132.14 185.561 130.642 185.561 128.542C185.561 126.442 186.891 124.944 188.921 124.944C190.937 124.944 192.225 126.442 192.225 128.542C192.225 130.642 190.937 132.14 188.921 132.14ZM188.921 131.244C190.587 131.244 191.245 130.264 191.245 128.542C191.245 126.82 190.587 125.854 188.921 125.854C187.227 125.854 186.555 126.82 186.555 128.542C186.555 130.264 187.227 131.244 188.921 131.244ZM194.039 134.38C193.703 134.38 193.339 134.324 193.143 134.282V133.47H193.927C194.557 133.47 194.767 133.344 195.019 132.798L195.411 131.902L192.443 125.084H193.535L195.159 128.934L195.887 130.628H195.971L196.657 128.934L198.183 125.084H199.275L195.901 133.106C195.453 134.156 194.795 134.38 194.039 134.38ZM203.732 124.16H202.738V122.62H203.732V124.16ZM203.732 132H202.738V125H203.732V132ZM206.263 132H205.255V125.084H206.165V126.512H206.207C206.473 125.784 207.257 124.944 208.685 124.944C210.463 124.944 211.275 126.092 211.275 127.758V132H210.281V127.982C210.281 126.484 209.791 125.826 208.377 125.826C207.005 125.826 206.263 126.47 206.263 128.01V132ZM215.561 132.14C213.671 132.14 212.635 131.342 212.635 129.732V129.704H213.615V129.872C213.615 130.824 214.007 131.286 215.575 131.286C216.863 131.286 217.199 130.922 217.199 130.222C217.199 129.522 216.765 129.27 215.715 129.074L214.567 128.878C213.447 128.668 212.635 128.15 212.635 126.932C212.635 125.742 213.643 124.944 215.281 124.944C216.863 124.944 218.025 125.756 218.025 127.31V127.38H217.059V127.268C217.059 126.442 216.737 125.812 215.253 125.812C213.993 125.812 213.601 126.218 213.601 126.918C213.601 127.618 213.951 127.856 214.987 128.052L216.163 128.276C217.367 128.5 218.165 129.032 218.165 130.18C218.165 131.412 217.157 132.14 215.561 132.14ZM222.05 132.014C220.776 132.014 220.034 131.51 220.034 130.04V125.952H218.872V125.084H220.048L220.286 123.32H221.042V125.084H223.226V125.952H221.042V130.096C221.042 130.908 221.42 131.09 222.316 131.09H223.226V131.902C222.988 131.944 222.554 132.014 222.05 132.014ZM226.039 132.14C224.779 132.14 223.827 131.496 223.827 130.334C223.827 129.13 224.723 128.598 226.235 128.388L228.671 128.052V127.548C228.671 126.33 228.153 125.84 226.851 125.84C225.591 125.84 225.003 126.33 225.003 127.436V127.646H224.037V127.534C224.037 126.092 225.143 124.944 226.935 124.944C228.783 124.944 229.623 126.134 229.623 127.674V132H228.713V130.726L228.643 130.712C228.237 131.51 227.355 132.14 226.039 132.14ZM224.807 130.264C224.807 130.978 225.255 131.3 226.319 131.3C227.509 131.3 228.671 130.684 228.671 129.046V128.808L226.319 129.144C225.213 129.298 224.807 129.522 224.807 130.264ZM232.171 132H231.163V125.084H232.073V126.512H232.115C232.381 125.784 233.165 124.944 234.593 124.944C236.371 124.944 237.183 126.092 237.183 127.758V132H236.189V127.982C236.189 126.484 235.699 125.826 234.285 125.826C232.913 125.826 232.171 126.47 232.171 128.01V132ZM241.19 132.014C239.916 132.014 239.174 131.51 239.174 130.04V125.952H238.012V125.084H239.188L239.426 123.32H240.182V125.084H242.366V125.952H240.182V130.096C240.182 130.908 240.56 131.09 241.456 131.09H242.366V131.902C242.128 131.944 241.694 132.014 241.19 132.014ZM246.964 134.436H245.956V125.084H246.866V126.428H246.908C247.216 125.546 248.042 124.944 249.344 124.944C251.29 124.944 252.368 126.358 252.368 128.556C252.368 130.726 251.346 132.14 249.456 132.14C248.126 132.14 247.272 131.44 246.964 130.684V134.436ZM246.964 129.144C246.964 130.558 247.804 131.272 249.176 131.272C250.52 131.272 251.36 130.656 251.36 128.556C251.36 126.428 250.534 125.812 249.176 125.812C247.804 125.812 246.964 126.526 246.964 127.954V129.144ZM255.557 132.14C254.297 132.14 253.345 131.496 253.345 130.334C253.345 129.13 254.241 128.598 255.753 128.388L258.189 128.052V127.548C258.189 126.33 257.671 125.84 256.369 125.84C255.109 125.84 254.521 126.33 254.521 127.436V127.646H253.555V127.534C253.555 126.092 254.661 124.944 256.453 124.944C258.301 124.944 259.141 126.134 259.141 127.674V132H258.231V130.726L258.161 130.712C257.755 131.51 256.873 132.14 255.557 132.14ZM254.325 130.264C254.325 130.978 254.773 131.3 255.837 131.3C257.027 131.3 258.189 130.684 258.189 129.046V128.808L255.837 129.144C254.731 129.298 254.325 129.522 254.325 130.264ZM261.291 134.38C260.955 134.38 260.591 134.324 260.395 134.282V133.47H261.179C261.809 133.47 262.019 133.344 262.271 132.798L262.663 131.902L259.695 125.084H260.787L262.411 128.934L263.139 130.628H263.223L263.909 128.934L265.435 125.084H266.527L263.153 133.106C262.705 134.156 262.047 134.38 261.291 134.38ZM268.333 132H267.325V125.084H268.235V126.512H268.277C268.543 125.784 269.271 124.944 270.699 124.944C271.959 124.944 272.715 125.546 273.023 126.526H273.065C273.345 125.784 274.059 124.944 275.487 124.944C277.265 124.944 278.077 126.092 278.077 127.744V132H277.083V127.982C277.083 126.484 276.579 125.826 275.179 125.826C273.863 125.826 273.205 126.47 273.205 128.01V132H272.211V127.982C272.211 126.484 271.721 125.826 270.321 125.826C269.005 125.826 268.333 126.47 268.333 128.01V132ZM282.543 132.14C280.415 132.14 279.309 130.642 279.309 128.542C279.309 126.442 280.555 124.944 282.529 124.944C284.195 124.944 285.567 125.952 285.567 127.996C285.567 128.318 285.539 128.626 285.497 128.822H280.261C280.303 130.348 280.905 131.244 282.557 131.244C283.957 131.244 284.517 130.614 284.517 129.774V129.69H285.511V129.788C285.511 131.118 284.307 132.14 282.543 132.14ZM282.501 125.812C280.961 125.812 280.345 126.694 280.261 128.094H284.615C284.671 126.456 283.859 125.812 282.501 125.812ZM287.87 132H286.862V125.084H287.772V126.512H287.814C288.08 125.784 288.864 124.944 290.292 124.944C292.07 124.944 292.882 126.092 292.882 127.758V132H291.888V127.982C291.888 126.484 291.398 125.826 289.984 125.826C288.612 125.826 287.87 126.47 287.87 128.01V132ZM296.89 132.014C295.616 132.014 294.874 131.51 294.874 130.04V125.952H293.712V125.084H294.888L295.126 123.32H295.882V125.084H298.066V125.952H295.882V130.096C295.882 130.908 296.26 131.09 297.156 131.09H298.066V131.902C297.828 131.944 297.394 132.014 296.89 132.014ZM35.542 150.14C33.596 150.14 32.504 148.726 32.504 146.542C32.504 144.358 33.54 142.944 35.43 142.944C36.76 142.944 37.614 143.644 37.908 144.4V140.62H38.916V150H38.02V148.67H37.964C37.656 149.538 36.844 150.14 35.542 150.14ZM33.512 146.542C33.512 148.656 34.338 149.272 35.71 149.272C37.082 149.272 37.908 148.558 37.908 147.144V145.954C37.908 144.526 37.082 143.812 35.71 143.812C34.352 143.812 33.512 144.428 33.512 146.542ZM43.3806 150.14C41.2526 150.14 40.1466 148.642 40.1466 146.542C40.1466 144.442 41.3926 142.944 43.3666 142.944C45.0326 142.944 46.4046 143.952 46.4046 145.996C46.4046 146.318 46.3766 146.626 46.3346 146.822H41.0986C41.1406 148.348 41.7426 149.244 43.3946 149.244C44.7946 149.244 45.3546 148.614 45.3546 147.774V147.69H46.3486V147.788C46.3486 149.118 45.1446 150.14 43.3806 150.14ZM43.3386 143.812C41.7986 143.812 41.1826 144.694 41.0986 146.094H45.4526C45.5086 144.456 44.6966 143.812 43.3386 143.812ZM48.7217 150H47.7137V140.62H48.7217V150ZM51.236 142.16H50.242V140.62H51.236V142.16ZM51.236 150H50.242V143H51.236V150ZM56.0239 150H54.7779L51.9499 143.084H53.0419L55.3799 149.02H55.4499L57.7739 143.084H58.8519L56.0239 150ZM62.3435 150.14C60.2155 150.14 59.1095 148.642 59.1095 146.542C59.1095 144.442 60.3555 142.944 62.3295 142.944C63.9955 142.944 65.3675 143.952 65.3675 145.996C65.3675 146.318 65.3395 146.626 65.2975 146.822H60.0615C60.1035 148.348 60.7055 149.244 62.3575 149.244C63.7575 149.244 64.3175 148.614 64.3175 147.774V147.69H65.3115V147.788C65.3115 149.118 64.1075 150.14 62.3435 150.14ZM62.3015 143.812C60.7615 143.812 60.1455 144.694 60.0615 146.094H64.4155C64.4715 144.456 63.6595 143.812 62.3015 143.812ZM67.6709 150H66.6629V143H67.5729V144.162H67.6429C67.8669 143.518 68.5389 142.944 69.5609 142.944C70.9889 142.944 71.5349 143.966 71.5349 145.156V145.548H70.5269V145.31C70.5269 144.232 70.1909 143.812 69.1969 143.812C68.1189 143.812 67.6709 144.302 67.6709 145.422V150ZM73.4255 142.16H72.4315V140.62H73.4255V142.16ZM73.4255 150H72.4315V143H73.4255V150ZM77.8337 150.14C75.7057 150.14 74.5997 148.642 74.5997 146.542C74.5997 144.442 75.8457 142.944 77.8197 142.944C79.4857 142.944 80.8577 143.952 80.8577 145.996C80.8577 146.318 80.8297 146.626 80.7877 146.822H75.5517C75.5937 148.348 76.1957 149.244 77.8477 149.244C79.2477 149.244 79.8077 148.614 79.8077 147.774V147.69H80.8017V147.788C80.8017 149.118 79.5977 150.14 77.8337 150.14ZM77.7917 143.812C76.2517 143.812 75.6357 144.694 75.5517 146.094H79.9057C79.9617 144.456 79.1497 143.812 77.7917 143.812ZM85.0215 150.14C83.1315 150.14 82.0955 149.342 82.0955 147.732V147.704H83.0755V147.872C83.0755 148.824 83.4675 149.286 85.0355 149.286C86.3235 149.286 86.6595 148.922 86.6595 148.222C86.6595 147.522 86.2255 147.27 85.1755 147.074L84.0275 146.878C82.9075 146.668 82.0955 146.15 82.0955 144.932C82.0955 143.742 83.1035 142.944 84.7415 142.944C86.3235 142.944 87.4855 143.756 87.4855 145.31V145.38H86.5195V145.268C86.5195 144.442 86.1975 143.812 84.7135 143.812C83.4535 143.812 83.0615 144.218 83.0615 144.918C83.0615 145.618 83.4115 145.856 84.4475 146.052L85.6235 146.276C86.8275 146.5 87.6255 147.032 87.6255 148.18C87.6255 149.412 86.6175 150.14 85.0215 150.14ZM94.0787 150H92.7627L90.9847 143.084H92.0487L93.1407 147.592L93.4207 149.09H93.5047L93.9667 147.592L95.5487 143.084H96.8787L98.4887 147.592L98.9227 149.09H99.0067L99.2867 147.592L100.379 143.084H101.415L99.6367 150H98.3207L96.7667 145.632L96.2487 143.994H96.1647L95.6467 145.632L94.0787 150ZM103.259 150H102.251V140.62H103.259V144.372H103.315C103.581 143.714 104.295 142.944 105.695 142.944C107.501 142.944 108.271 144.148 108.271 145.73V150H107.277V145.982C107.277 144.484 106.773 143.826 105.373 143.826C103.987 143.826 103.259 144.47 103.259 146.024V150ZM112.82 150.14C110.692 150.14 109.586 148.642 109.586 146.542C109.586 144.442 110.832 142.944 112.806 142.944C114.472 142.944 115.844 143.952 115.844 145.996C115.844 146.318 115.816 146.626 115.774 146.822H110.538C110.58 148.348 111.182 149.244 112.834 149.244C114.234 149.244 114.794 148.614 114.794 147.774V147.69H115.788V147.788C115.788 149.118 114.584 150.14 112.82 150.14ZM112.778 143.812C111.238 143.812 110.622 144.694 110.538 146.094H114.892C114.948 144.456 114.136 143.812 112.778 143.812ZM118.147 150H117.139V143.084H118.049V144.512H118.091C118.357 143.784 119.141 142.944 120.569 142.944C122.347 142.944 123.159 144.092 123.159 145.758V150H122.165V145.982C122.165 144.484 121.675 143.826 120.261 143.826C118.889 143.826 118.147 144.47 118.147 146.01V150ZM128.236 152.38C127.9 152.38 127.536 152.324 127.34 152.282V151.47H128.124C128.754 151.47 128.964 151.344 129.216 150.798L129.608 149.902L126.64 143.084H127.732L129.356 146.934L130.084 148.628H130.168L130.854 146.934L132.38 143.084H133.472L130.098 151.106C129.65 152.156 128.992 152.38 128.236 152.38ZM137.063 150.14C135.033 150.14 133.703 148.642 133.703 146.542C133.703 144.442 135.033 142.944 137.063 142.944C139.079 142.944 140.367 144.442 140.367 146.542C140.367 148.642 139.079 150.14 137.063 150.14ZM137.063 149.244C138.729 149.244 139.387 148.264 139.387 146.542C139.387 144.82 138.729 143.854 137.063 143.854C135.369 143.854 134.697 144.82 134.697 146.542C134.697 148.264 135.369 149.244 137.063 149.244ZM144.189 150.14C142.383 150.14 141.543 148.894 141.543 147.242V143.084H142.551V147.102C142.551 148.6 143.153 149.258 144.511 149.258C145.785 149.258 146.653 148.586 146.653 146.962V143.084H147.647V150H146.737V148.474H146.695C146.415 149.272 145.631 150.14 144.189 150.14ZM154.611 150.14C152.721 150.14 151.685 149.342 151.685 147.732V147.704H152.665V147.872C152.665 148.824 153.057 149.286 154.625 149.286C155.913 149.286 156.249 148.922 156.249 148.222C156.249 147.522 155.815 147.27 154.765 147.074L153.617 146.878C152.497 146.668 151.685 146.15 151.685 144.932C151.685 143.742 152.693 142.944 154.331 142.944C155.913 142.944 157.075 143.756 157.075 145.31V145.38H156.109V145.268C156.109 144.442 155.787 143.812 154.303 143.812C153.043 143.812 152.651 144.218 152.651 144.918C152.651 145.618 153.001 145.856 154.037 146.052L155.213 146.276C156.417 146.5 157.215 147.032 157.215 148.18C157.215 149.412 156.207 150.14 154.611 150.14ZM161.547 150.14C159.419 150.14 158.313 148.642 158.313 146.542C158.313 144.442 159.559 142.944 161.533 142.944C163.199 142.944 164.571 143.952 164.571 145.996C164.571 146.318 164.543 146.626 164.501 146.822H159.265C159.307 148.348 159.909 149.244 161.561 149.244C162.961 149.244 163.521 148.614 163.521 147.774V147.69H164.515V147.788C164.515 149.118 163.311 150.14 161.547 150.14ZM161.505 143.812C159.965 143.812 159.349 144.694 159.265 146.094H163.619C163.675 144.456 162.863 143.812 161.505 143.812ZM166.874 150H165.866V143.084H166.776V144.512H166.818C167.084 143.784 167.868 142.944 169.296 142.944C171.074 142.944 171.886 144.092 171.886 145.758V150H170.892V145.982C170.892 144.484 170.402 143.826 168.988 143.826C167.616 143.826 166.874 144.47 166.874 146.01V150ZM176.144 150.14C174.198 150.14 173.106 148.726 173.106 146.542C173.106 144.358 174.142 142.944 176.032 142.944C177.362 142.944 178.216 143.644 178.51 144.4V140.62H179.518V150H178.622V148.67H178.566C178.258 149.538 177.446 150.14 176.144 150.14ZM174.114 146.542C174.114 148.656 174.94 149.272 176.312 149.272C177.684 149.272 178.51 148.558 178.51 147.144V145.954C178.51 144.526 177.684 143.812 176.312 143.812C174.954 143.812 174.114 144.428 174.114 146.542ZM184.675 150H183.667V143.084H184.577V144.512H184.619C184.885 143.784 185.613 142.944 187.041 142.944C188.301 142.944 189.057 143.546 189.365 144.526H189.407C189.687 143.784 190.401 142.944 191.829 142.944C193.607 142.944 194.419 144.092 194.419 145.744V150H193.425V145.982C193.425 144.484 192.921 143.826 191.521 143.826C190.205 143.826 189.547 144.47 189.547 146.01V150H188.553V145.982C188.553 144.484 188.063 143.826 186.663 143.826C185.347 143.826 184.675 144.47 184.675 146.01V150ZM199.01 150.14C196.98 150.14 195.65 148.642 195.65 146.542C195.65 144.442 196.98 142.944 199.01 142.944C201.026 142.944 202.314 144.442 202.314 146.542C202.314 148.642 201.026 150.14 199.01 150.14ZM199.01 149.244C200.676 149.244 201.334 148.264 201.334 146.542C201.334 144.82 200.676 143.854 199.01 143.854C197.316 143.854 196.644 144.82 196.644 146.542C196.644 148.264 197.316 149.244 199.01 149.244ZM204.54 150H203.532V143.084H204.442V144.512H204.484C204.75 143.784 205.534 142.944 206.962 142.944C208.74 142.944 209.552 144.092 209.552 145.758V150H208.558V145.982C208.558 144.484 208.068 143.826 206.654 143.826C205.282 143.826 204.54 144.47 204.54 146.01V150ZM214.006 150.14C211.878 150.14 210.772 148.642 210.772 146.542C210.772 144.442 212.018 142.944 213.992 142.944C215.658 142.944 217.03 143.952 217.03 145.996C217.03 146.318 217.002 146.626 216.96 146.822H211.724C211.766 148.348 212.368 149.244 214.02 149.244C215.42 149.244 215.98 148.614 215.98 147.774V147.69H216.974V147.788C216.974 149.118 215.77 150.14 214.006 150.14ZM213.964 143.812C212.424 143.812 211.808 144.694 211.724 146.094H216.078C216.134 144.456 215.322 143.812 213.964 143.812ZM218.922 152.38C218.586 152.38 218.222 152.324 218.026 152.282V151.47H218.81C219.44 151.47 219.65 151.344 219.902 150.798L220.294 149.902L217.326 143.084H218.418L220.042 146.934L220.77 148.628H220.854L221.54 146.934L223.066 143.084H224.158L220.784 151.106C220.336 152.156 219.678 152.38 218.922 152.38ZM228.671 150H227.663V140.62H228.671V144.372H228.727C228.993 143.714 229.707 142.944 231.107 142.944C232.913 142.944 233.683 144.148 233.683 145.73V150H232.689V145.982C232.689 144.484 232.185 143.826 230.785 143.826C229.399 143.826 228.671 144.47 228.671 146.024V150ZM238.358 150.14C236.328 150.14 234.998 148.642 234.998 146.542C234.998 144.442 236.328 142.944 238.358 142.944C240.374 142.944 241.662 144.442 241.662 146.542C241.662 148.642 240.374 150.14 238.358 150.14ZM238.358 149.244C240.024 149.244 240.682 148.264 240.682 146.542C240.682 144.82 240.024 143.854 238.358 143.854C236.664 143.854 235.992 144.82 235.992 146.542C235.992 148.264 236.664 149.244 238.358 149.244ZM243.888 150H242.88V143.084H243.79V144.512H243.832C244.098 143.784 244.826 142.944 246.254 142.944C247.514 142.944 248.27 143.546 248.578 144.526H248.62C248.9 143.784 249.614 142.944 251.042 142.944C252.82 142.944 253.632 144.092 253.632 145.744V150H252.638V145.982C252.638 144.484 252.134 143.826 250.734 143.826C249.418 143.826 248.76 144.47 248.76 146.01V150H247.766V145.982C247.766 144.484 247.276 143.826 245.876 143.826C244.56 143.826 243.888 144.47 243.888 146.01V150ZM258.097 150.14C255.969 150.14 254.863 148.642 254.863 146.542C254.863 144.442 256.109 142.944 258.083 142.944C259.749 142.944 261.121 143.952 261.121 145.996C261.121 146.318 261.093 146.626 261.051 146.822H255.815C255.857 148.348 256.459 149.244 258.111 149.244C259.511 149.244 260.071 148.614 260.071 147.774V147.69H261.065V147.788C261.065 149.118 259.861 150.14 258.097 150.14ZM258.055 143.812C256.515 143.812 255.899 144.694 255.815 146.094H260.169C260.225 144.456 259.413 143.812 258.055 143.812ZM268.149 150.14C266.119 150.14 264.789 148.642 264.789 146.542C264.789 144.442 266.119 142.944 268.149 142.944C270.165 142.944 271.453 144.442 271.453 146.542C271.453 148.642 270.165 150.14 268.149 150.14ZM268.149 149.244C269.815 149.244 270.473 148.264 270.473 146.542C270.473 144.82 269.815 143.854 268.149 143.854C266.455 143.854 265.783 144.82 265.783 146.542C265.783 148.264 266.455 149.244 268.149 149.244ZM273.679 150H272.671V143H273.581V144.162H273.651C273.875 143.518 274.547 142.944 275.569 142.944C276.997 142.944 277.543 143.966 277.543 145.156V145.548H276.535V145.31C276.535 144.232 276.199 143.812 275.205 143.812C274.127 143.812 273.679 144.302 273.679 145.422V150ZM34.674 168.14C33.414 168.14 32.462 167.496 32.462 166.334C32.462 165.13 33.358 164.598 34.87 164.388L37.306 164.052V163.548C37.306 162.33 36.788 161.84 35.486 161.84C34.226 161.84 33.638 162.33 33.638 163.436V163.646H32.672V163.534C32.672 162.092 33.778 160.944 35.57 160.944C37.418 160.944 38.258 162.134 38.258 163.674V168H37.348V166.726L37.278 166.712C36.872 167.51 35.99 168.14 34.674 168.14ZM33.442 166.264C33.442 166.978 33.89 167.3 34.954 167.3C36.144 167.3 37.306 166.684 37.306 165.046V164.808L34.954 165.144C33.848 165.298 33.442 165.522 33.442 166.264ZM40.7077 168H39.7977V158.62H40.8057V162.4C41.1137 161.644 41.9677 160.944 43.2977 160.944C45.1877 160.944 46.2097 162.358 46.2097 164.542C46.2097 166.726 45.1317 168.14 43.1857 168.14C41.8837 168.14 41.0577 167.538 40.7497 166.67H40.7077V168ZM40.8057 165.144C40.8057 166.558 41.6457 167.272 43.0177 167.272C44.3757 167.272 45.2017 166.656 45.2017 164.542C45.2017 162.428 44.3617 161.812 43.0177 161.812C41.6457 161.812 40.8057 162.526 40.8057 163.954V165.144ZM48.4346 168H47.4266V161H48.3366V162.162H48.4066C48.6306 161.518 49.3026 160.944 50.3246 160.944C51.7526 160.944 52.2986 161.966 52.2986 163.156V163.548H51.2906V163.31C51.2906 162.232 50.9546 161.812 49.9606 161.812C48.8826 161.812 48.4346 162.302 48.4346 163.422V168ZM56.3992 168.14C54.3692 168.14 53.0392 166.642 53.0392 164.542C53.0392 162.442 54.3692 160.944 56.3992 160.944C58.4152 160.944 59.7032 162.442 59.7032 164.542C59.7032 166.642 58.4152 168.14 56.3992 168.14ZM56.3992 167.244C58.0652 167.244 58.7232 166.264 58.7232 164.542C58.7232 162.82 58.0652 161.854 56.3992 161.854C54.7052 161.854 54.0332 162.82 54.0332 164.542C54.0332 166.264 54.7052 167.244 56.3992 167.244ZM62.8928 168.14C61.6328 168.14 60.6807 167.496 60.6807 166.334C60.6807 165.13 61.5768 164.598 63.0888 164.388L65.5248 164.052V163.548C65.5248 162.33 65.0068 161.84 63.7048 161.84C62.4448 161.84 61.8568 162.33 61.8568 163.436V163.646H60.8908V163.534C60.8908 162.092 61.9968 160.944 63.7888 160.944C65.6368 160.944 66.4768 162.134 66.4768 163.674V168H65.5668V166.726L65.4968 166.712C65.0908 167.51 64.2088 168.14 62.8928 168.14ZM61.6608 166.264C61.6608 166.978 62.1088 167.3 63.1728 167.3C64.3628 167.3 65.5248 166.684 65.5248 165.046V164.808L63.1728 165.144C62.0667 165.298 61.6608 165.522 61.6608 166.264ZM70.7471 168.14C68.8011 168.14 67.7091 166.726 67.7091 164.542C67.7091 162.358 68.7451 160.944 70.6351 160.944C71.9651 160.944 72.8191 161.644 73.1131 162.4V158.62H74.1211V168H73.2251V166.67H73.1691C72.8611 167.538 72.0491 168.14 70.7471 168.14ZM68.7171 164.542C68.7171 166.656 69.5431 167.272 70.9151 167.272C72.2871 167.272 73.1131 166.558 73.1131 165.144V163.954C73.1131 162.526 72.2871 161.812 70.9151 161.812C69.5571 161.812 68.7171 162.428 68.7171 164.542ZM81.6723 168H80.4263L77.5983 161.084H78.6903L81.0283 167.02H81.0983L83.4223 161.084H84.5003L81.6723 168ZM86.2087 160.16H85.2147V158.62H86.2087V160.16ZM86.2087 168H85.2147V161H86.2087V168ZM89.6213 168.14C88.3613 168.14 87.4093 167.496 87.4093 166.334C87.4093 165.13 88.3053 164.598 89.8173 164.388L92.2533 164.052V163.548C92.2533 162.33 91.7353 161.84 90.4333 161.84C89.1733 161.84 88.5853 162.33 88.5853 163.436V163.646H87.6193V163.534C87.6193 162.092 88.7253 160.944 90.5173 160.944C92.3653 160.944 93.2053 162.134 93.2053 163.674V168H92.2953V166.726L92.2253 166.712C91.8193 167.51 90.9373 168.14 89.6213 168.14ZM88.3893 166.264C88.3893 166.978 88.8373 167.3 89.9013 167.3C91.0913 167.3 92.2533 166.684 92.2533 165.046V164.808L89.9013 165.144C88.7953 165.298 88.3893 165.522 88.3893 166.264ZM101.221 168.14C98.6029 168.14 97.0489 166.264 97.0489 163.31C97.0489 160.384 98.7009 158.48 101.417 158.48C103.671 158.48 105.253 159.796 105.253 161.882V162.008H104.189V161.882C104.189 160.3 103.307 159.446 101.333 159.446C99.1069 159.446 98.1129 160.706 98.1129 163.31C98.1129 165.914 99.1209 167.174 101.403 167.174C103.335 167.174 104.287 166.39 104.287 164.71V164.234H101.039V163.352H105.267V168H104.357V166.446H104.301C103.853 167.51 102.691 168.14 101.221 168.14ZM107.825 168H106.817V161H107.727V162.162H107.797C108.021 161.518 108.693 160.944 109.715 160.944C111.143 160.944 111.689 161.966 111.689 163.156V163.548H110.681V163.31C110.681 162.232 110.345 161.812 109.351 161.812C108.273 161.812 107.825 162.302 107.825 163.422V168ZM115.664 168.14C113.536 168.14 112.43 166.642 112.43 164.542C112.43 162.442 113.676 160.944 115.65 160.944C117.316 160.944 118.688 161.952 118.688 163.996C118.688 164.318 118.66 164.626 118.618 164.822H113.382C113.424 166.348 114.026 167.244 115.678 167.244C117.078 167.244 117.638 166.614 117.638 165.774V165.69H118.632V165.788C118.632 167.118 117.428 168.14 115.664 168.14ZM115.622 161.812C114.082 161.812 113.466 162.694 113.382 164.094H117.736C117.792 162.456 116.98 161.812 115.622 161.812ZM120.58 170.38C120.244 170.38 119.88 170.324 119.684 170.282V169.47H120.468C121.098 169.47 121.308 169.344 121.56 168.798L121.952 167.902L118.984 161.084H120.076L121.7 164.934L122.428 166.628H122.512L123.198 164.934L124.724 161.084H125.816L122.442 169.106C121.994 170.156 121.336 170.38 120.58 170.38ZM130.447 168H129.453V159.53H126.135V158.62H133.779V159.53H130.447V168ZM135.586 168.14C134.326 168.14 133.374 167.496 133.374 166.334C133.374 165.13 134.27 164.598 135.782 164.388L138.218 164.052V163.548C138.218 162.33 137.7 161.84 136.398 161.84C135.138 161.84 134.55 162.33 134.55 163.436V163.646H133.584V163.534C133.584 162.092 134.69 160.944 136.482 160.944C138.33 160.944 139.17 162.134 139.17 163.674V168H138.26V166.726L138.19 166.712C137.784 167.51 136.902 168.14 135.586 168.14ZM134.354 166.264C134.354 166.978 134.802 167.3 135.866 167.3C137.056 167.3 138.218 166.684 138.218 165.046V164.808L135.866 165.144C134.76 165.298 134.354 165.522 134.354 166.264ZM143.398 167.384C141.494 167.384 140.402 166.124 140.402 164.164C140.402 162.204 141.48 160.944 143.412 160.944C144.63 160.944 145.554 161.546 145.862 162.428H145.918V161.084H146.814V167.706C146.814 169.582 145.61 170.52 143.79 170.52C142.026 170.52 140.78 169.596 140.78 168H141.774C141.774 169.134 142.348 169.624 143.804 169.624C145.288 169.624 145.806 169.092 145.806 167.706V165.942H145.792C145.47 166.74 144.602 167.384 143.398 167.384ZM141.41 164.164C141.41 165.998 142.292 166.516 143.636 166.516C144.882 166.516 145.806 165.802 145.806 164.374V163.954C145.806 162.526 144.868 161.812 143.58 161.812C142.264 161.812 141.41 162.344 141.41 164.164ZM149.262 168H148.03V166.054H149.262V168Z" fill="#232323"/>
<rect x="13.9111" y="223.91" width="382.033" height="124.364" rx="10.9887" fill="white" stroke="#EBEBEB" stroke-width="1.82025"/>
<path d="M83.6446 259.116C79.6152 259.116 77.3248 256.317 77.3248 251.8C77.3248 247.367 79.8697 244.483 84.09 244.483C87.8861 244.483 90.1977 246.519 90.1977 249.785V249.934H87.7801V249.785C87.7801 247.643 86.6985 246.689 83.984 246.689C80.9937 246.689 79.7637 248.11 79.7637 251.8C79.7637 255.49 81.0361 256.911 84.1748 256.911C86.7833 256.911 88.0134 256.147 88.0134 253.921V253.581H83.581V251.609H90.2189V258.904H88.1194V256.678H88.0346C87.5044 257.971 86.0199 259.116 83.6446 259.116ZM99.2412 258.904H92.4548V244.695H98.9867C101.765 244.695 103.44 245.841 103.44 248.237C103.44 249.891 102.507 251.015 100.683 251.291V251.461C102.846 251.736 103.949 253.136 103.949 255.002C103.949 257.42 102.231 258.904 99.2412 258.904ZM94.7452 246.752V250.591H98.7746C100.492 250.591 101.171 250.124 101.171 248.682C101.171 247.219 100.556 246.752 98.8382 246.752H94.7452ZM94.7452 252.5V256.847H99.1775C100.895 256.847 101.638 256.359 101.638 254.684C101.638 252.987 100.895 252.5 99.1775 252.5H94.7452ZM108.165 258.904H105.875V244.695H111.919C114.888 244.695 117.073 246.456 117.073 249.509C117.073 252.563 114.888 254.324 111.919 254.324H108.165V258.904ZM112.195 246.752H108.165V252.266H112.195C114.061 252.266 114.803 251.545 114.803 249.509C114.803 247.474 114.061 246.752 112.195 246.752ZM129.54 258.904H122.754V244.695H129.286C132.064 244.695 133.739 245.841 133.739 248.237C133.739 249.891 132.806 251.015 130.982 251.291V251.461C133.146 251.736 134.248 253.136 134.248 255.002C134.248 257.42 132.531 258.904 129.54 258.904ZM125.044 246.752V250.591H129.074C130.792 250.591 131.47 250.124 131.47 248.682C131.47 247.219 130.855 246.752 129.137 246.752H125.044ZM125.044 252.5V256.847H129.477C131.195 256.847 131.937 256.359 131.937 254.684C131.937 252.987 131.195 252.5 129.477 252.5H125.044ZM138.953 259.116C137.066 259.116 135.603 258.141 135.603 256.296C135.603 254.557 136.875 253.645 139.123 253.327L142.813 252.775V252.203C142.813 250.633 142.092 250.167 140.438 250.167C138.763 250.167 138.105 250.697 138.105 252.097V252.415H135.9V252.203C135.9 249.849 137.745 248.152 140.565 248.152C143.513 248.152 144.998 249.934 144.998 252.5V258.904H142.877V257.25H142.771C142.156 258.247 140.947 259.116 138.953 259.116ZM137.829 256.126C137.829 256.953 138.36 257.293 139.696 257.293C141.18 257.293 142.813 256.699 142.813 254.578V254.387L139.462 254.896C138.254 255.066 137.829 255.341 137.829 256.126ZM149.481 258.904H147.191V248.364H149.29V250.337H149.375C149.863 249.213 150.987 248.152 153.044 248.152C155.78 248.152 157.01 249.891 157.01 252.288V258.904H154.719V252.797C154.719 250.909 154.125 250.124 152.196 250.124C150.329 250.124 149.481 250.845 149.481 252.818V258.904ZM161.493 258.904H159.203V244.695H161.493V252.542H163.571L166.392 248.364H169.085L165.416 253.348L169.022 258.904H166.35L163.593 254.599H161.493V258.904ZM175.805 258.904H173.409L178.944 244.695H182.231L187.766 258.904H185.285L183.843 255.214H177.247L175.805 258.904ZM179.538 249.403L178.053 253.157H183.037L181.552 249.403L180.64 246.774H180.471L179.538 249.403ZM193.423 259.138C190.136 259.138 188.27 256.911 188.27 253.645C188.27 250.358 190.2 248.152 193.508 248.152C196.286 248.152 198.195 249.87 198.195 252.394V252.585H195.926V252.457C195.926 250.909 195.12 250.209 193.36 250.209C191.324 250.209 190.539 251.354 190.539 253.645C190.539 255.935 191.324 257.059 193.36 257.059C195.12 257.059 195.926 256.381 195.926 254.832V254.705H198.195V254.896C198.195 257.399 196.265 259.138 193.423 259.138ZM204.752 259.138C201.465 259.138 199.599 256.911 199.599 253.645C199.599 250.358 201.528 248.152 204.837 248.152C207.615 248.152 209.524 249.87 209.524 252.394V252.585H207.254V252.457C207.254 250.909 206.449 250.209 204.688 250.209C202.652 250.209 201.868 251.354 201.868 253.645C201.868 255.935 202.652 257.059 204.688 257.059C206.449 257.059 207.254 256.381 207.254 254.832V254.705H209.524V254.896C209.524 257.399 207.594 259.138 204.752 259.138ZM216.186 259.116C212.942 259.116 210.927 256.911 210.927 253.624C210.927 250.358 212.942 248.152 216.186 248.152C219.41 248.152 221.361 250.358 221.361 253.624C221.361 256.911 219.41 259.116 216.186 259.116ZM216.186 257.08C218.392 257.08 219.156 255.999 219.156 253.624C219.156 251.27 218.392 250.188 216.186 250.188C213.96 250.188 213.175 251.27 213.175 253.624C213.175 255.999 213.96 257.08 216.186 257.08ZM226.997 259.116C224.24 259.116 223.01 257.271 223.01 254.875V248.364H225.3V254.472C225.3 256.359 226.021 257.144 227.845 257.144C229.605 257.144 230.602 256.381 230.602 254.302V248.364H232.892V258.904H230.772V256.805H230.687C230.178 258.014 229.054 259.116 226.997 259.116ZM237.438 258.904H235.147V248.364H237.247V250.337H237.332C237.819 249.213 238.943 248.152 241.001 248.152C243.736 248.152 244.966 249.891 244.966 252.288V258.904H242.676V252.797C242.676 250.909 242.082 250.124 240.152 250.124C238.286 250.124 237.438 250.845 237.438 252.818V258.904ZM251.446 258.904C249.092 258.904 247.862 258.035 247.862 255.66V250.273H246.102V248.364H247.905L248.392 245.756H250.153V248.364H253.334V250.273H250.153V255.554C250.153 256.656 250.619 256.847 252.04 256.847H253.334V258.713C252.888 258.819 252.167 258.904 251.446 258.904ZM264.013 258.904H258.966V244.695H264.013C268.403 244.695 271.202 247.41 271.202 251.8C271.202 256.19 268.403 258.904 264.013 258.904ZM264.013 246.752H261.256V256.847H264.013C267.406 256.847 268.764 255.447 268.764 251.8C268.764 248.152 267.406 246.752 264.013 246.752ZM277.713 259.116C274.235 259.116 272.602 256.911 272.602 253.624C272.602 250.358 274.553 248.152 277.692 248.152C280.534 248.152 282.527 249.849 282.527 252.733C282.527 253.284 282.464 253.857 282.4 254.175H274.744C274.829 256.105 275.529 257.08 277.735 257.08C279.495 257.08 280.173 256.487 280.173 255.532V255.363H282.443V255.554C282.443 257.717 280.555 259.116 277.713 259.116ZM277.65 250.082C275.656 250.082 274.893 251.015 274.766 252.648H280.343C280.428 250.845 279.452 250.082 277.65 250.082ZM288.663 258.904C286.309 258.904 285.079 258.035 285.079 255.66V250.273H283.318V248.364H285.121L285.609 245.756H287.369V248.364H290.55V250.273H287.369V255.554C287.369 256.656 287.836 256.847 289.256 256.847H290.55V258.713C290.105 258.819 289.384 258.904 288.663 258.904ZM294.943 259.116C293.056 259.116 291.593 258.141 291.593 256.296C291.593 254.557 292.865 253.645 295.113 253.327L298.803 252.775V252.203C298.803 250.633 298.082 250.167 296.428 250.167C294.753 250.167 294.095 250.697 294.095 252.097V252.415H291.89V252.203C291.89 249.849 293.735 248.152 296.555 248.152C299.503 248.152 300.988 249.934 300.988 252.5V258.904H298.867V257.25H298.761C298.146 258.247 296.937 259.116 294.943 259.116ZM293.82 256.126C293.82 256.953 294.35 257.293 295.686 257.293C297.17 257.293 298.803 256.699 298.803 254.578V254.387L295.452 254.896C294.244 255.066 293.82 255.341 293.82 256.126ZM305.323 247.028H303.053L303.032 244.695H305.323V247.028ZM305.344 258.904H303.053V248.301H305.344V258.904ZM309.737 258.904H307.447V244.695H309.737V258.904ZM316.353 259.116C313.278 259.116 311.666 257.908 311.666 255.341V255.299H313.872V255.681C313.872 256.826 314.381 257.25 316.395 257.25C318.092 257.25 318.41 256.868 318.41 256.084C318.41 255.235 317.901 254.981 316.353 254.705L314.72 254.43C312.832 254.09 311.645 253.242 311.645 251.333C311.645 249.425 313.214 248.152 315.971 248.152C318.452 248.152 320.319 249.382 320.319 251.779V251.969H318.134V251.715C318.134 250.739 317.795 250.04 315.907 250.04C314.232 250.04 313.829 250.485 313.829 251.291C313.829 252.097 314.211 252.33 315.695 252.627L317.477 252.966C319.513 253.369 320.573 254.281 320.573 256.02C320.573 257.971 319.025 259.116 316.353 259.116Z" fill="#171717"/>
<path d="M32.0327 299.441H30.1156L34.5437 288.074H37.1734L41.6015 299.441H39.6165L38.4628 296.489H33.1864L32.0327 299.441ZM35.0187 291.841L33.8311 294.844H37.8181L36.6305 291.841L35.901 289.737H35.7652L35.0187 291.841ZM46.1273 299.628C43.4976 299.628 42.0046 297.847 42.0046 295.234C42.0046 292.604 43.5485 290.84 46.1951 290.84C48.4177 290.84 49.9446 292.214 49.9446 294.233V294.386H48.1292V294.284C48.1292 293.045 47.4845 292.485 46.0764 292.485C44.4476 292.485 43.8199 293.402 43.8199 295.234C43.8199 297.066 44.4476 297.965 46.0764 297.965C47.4845 297.965 48.1292 297.422 48.1292 296.184V296.082H49.9446V296.235C49.9446 298.237 48.4007 299.628 46.1273 299.628ZM55.1901 299.628C52.5604 299.628 51.0674 297.847 51.0674 295.234C51.0674 292.604 52.6113 290.84 55.258 290.84C57.4805 290.84 59.0074 292.214 59.0074 294.233V294.386H57.1921V294.284C57.1921 293.045 56.5474 292.485 55.1392 292.485C53.5105 292.485 52.8827 293.402 52.8827 295.234C52.8827 297.066 53.5105 297.965 55.1392 297.965C56.5474 297.965 57.1921 297.422 57.1921 296.184V296.082H59.0074V296.235C59.0074 298.237 57.4635 299.628 55.1901 299.628ZM64.3378 299.611C61.742 299.611 60.1302 297.847 60.1302 295.217C60.1302 292.604 61.742 290.84 64.3378 290.84C66.9166 290.84 68.4774 292.604 68.4774 295.217C68.4774 297.847 66.9166 299.611 64.3378 299.611ZM64.3378 297.982C66.1022 297.982 66.713 297.117 66.713 295.217C66.713 293.334 66.1022 292.468 64.3378 292.468C62.5563 292.468 61.9286 293.334 61.9286 295.217C61.9286 297.117 62.5563 297.982 64.3378 297.982ZM72.9859 299.611C70.7803 299.611 69.7963 298.135 69.7963 296.218V291.009H71.6286V295.896C71.6286 297.405 72.2054 298.033 73.6645 298.033C75.0727 298.033 75.8701 297.422 75.8701 295.76V291.009H77.7024V299.441H76.0058V297.762H75.9379C75.5307 298.729 74.6316 299.611 72.9859 299.611ZM81.3388 299.441H79.5065V291.009H81.1861V292.587H81.2539C81.6442 291.688 82.5434 290.84 84.189 290.84C86.3776 290.84 87.3617 292.231 87.3617 294.148V299.441H85.5294V294.555C85.5294 293.045 85.0543 292.418 83.5104 292.418C82.0174 292.418 81.3388 292.994 81.3388 294.572V299.441ZM92.5455 299.441C90.6623 299.441 89.6783 298.746 89.6783 296.846V292.536H88.2701V291.009H89.7122L90.1025 288.923H91.5106V291.009H94.0555V292.536H91.5106V296.761C91.5106 297.643 91.8839 297.796 93.0206 297.796H94.0555V299.289C93.6992 299.374 93.1224 299.441 92.5455 299.441ZM100.393 299.441H98.5611V288.074H100.529L104.839 294.589L106.043 296.405H106.179V288.074H108.011V299.441H106.043L101.751 293.028L100.512 291.179H100.393V299.441ZM113.031 299.611C110.826 299.611 109.842 298.135 109.842 296.218V291.009H111.674V295.896C111.674 297.405 112.251 298.033 113.71 298.033C115.118 298.033 115.916 297.422 115.916 295.76V291.009H117.748V299.441H116.051V297.762H115.983C115.576 298.729 114.677 299.611 113.031 299.611ZM121.384 299.441H119.552V291.009H121.232V292.587H121.299C121.69 291.688 122.572 290.84 124.184 290.84C125.66 290.84 126.576 291.518 126.983 292.587H127.034C127.424 291.705 128.289 290.84 129.952 290.84C132.124 290.84 133.091 292.231 133.091 294.148V299.441H131.258V294.555C131.258 293.045 130.8 292.418 129.273 292.418C127.882 292.418 127.237 292.994 127.237 294.538V299.441H125.405V294.555C125.405 293.045 124.947 292.418 123.42 292.418C122.029 292.418 121.384 292.994 121.384 294.521V299.441ZM136.524 299.441H134.844V288.074H136.677V292.35H136.711C137.084 291.586 138.051 290.84 139.544 290.84C141.868 290.84 143.09 292.553 143.09 295.217C143.09 297.898 141.8 299.611 139.442 299.611C137.983 299.611 136.999 299.034 136.592 298.05H136.524V299.441ZM136.677 295.98C136.677 297.389 137.491 298.05 138.967 298.05C140.596 298.05 141.274 297.304 141.274 295.217C141.274 293.147 140.579 292.401 138.967 292.401C137.491 292.401 136.677 293.062 136.677 294.47V295.98ZM148.303 299.611C145.52 299.611 144.214 297.847 144.214 295.217C144.214 292.604 145.775 290.84 148.286 290.84C150.559 290.84 152.154 292.197 152.154 294.504C152.154 294.945 152.103 295.404 152.052 295.658H145.928C145.996 297.202 146.555 297.982 148.32 297.982C149.728 297.982 150.271 297.507 150.271 296.744V296.608H152.086V296.761C152.086 298.491 150.576 299.611 148.303 299.611ZM148.252 292.384C146.657 292.384 146.046 293.13 145.945 294.436H150.407C150.474 292.994 149.694 292.384 148.252 292.384ZM155.449 299.441H153.616V290.958H155.296V292.299H155.381C155.72 291.518 156.5 290.84 157.739 290.84C159.503 290.84 160.182 292.129 160.182 293.707V294.267H158.35V293.927C158.35 292.808 158.027 292.401 156.959 292.401C155.856 292.401 155.449 292.825 155.449 293.944V299.441Z" fill="#171717"/>
<path d="M34.9509 327.179C31.8461 327.179 30.6415 325.585 30.6415 323.532V323.26H31.8461V323.481C31.8461 325.228 32.4908 326.06 34.9509 326.06C37.0546 326.06 37.8351 325.415 37.8351 323.854C37.8351 322.242 37.0037 321.598 35.1205 321.598H33.0676V320.563H34.866C36.7153 320.563 37.4957 319.986 37.4957 318.595C37.4957 317.203 36.8001 316.593 34.8321 316.593C32.5587 316.593 31.8461 317.424 31.8461 319.172V319.324H30.6415V319.121C30.6415 317.068 31.9988 315.473 34.8491 315.473C37.2752 315.473 38.7173 316.525 38.7173 318.442C38.7173 319.731 38.0217 320.732 36.5966 320.987V321.055C38.1744 321.326 39.0566 322.378 39.0566 323.956C39.0566 326.06 37.4448 327.179 34.9509 327.179ZM45.2351 327.179C42.4018 327.179 40.5356 324.974 40.5356 321.326C40.5356 317.679 42.4018 315.473 45.2351 315.473C48.0854 315.473 49.9347 317.679 49.9347 321.326C49.9347 324.974 48.0854 327.179 45.2351 327.179ZM45.2351 326.009C47.4746 326.009 48.6622 324.584 48.6622 321.326C48.6622 318.069 47.4746 316.644 45.2351 316.644C43.0126 316.644 41.825 318.069 41.825 321.326C41.825 324.584 43.0126 326.009 45.2351 326.009ZM55.8127 327.179C53.0133 327.179 51.3337 325.992 51.3337 323.939C51.3337 322.412 52.2668 321.411 53.675 321.055V320.987C52.3856 320.732 51.656 319.731 51.656 318.442C51.656 316.711 53.1321 315.473 55.8127 315.473C58.5272 315.473 59.9863 316.711 59.9863 318.442C59.9863 319.731 59.2567 320.732 57.9843 320.987V321.055C59.3925 321.411 60.3256 322.412 60.3256 323.939C60.3256 325.992 58.629 327.179 55.8127 327.179ZM55.8127 320.648C57.9673 320.648 58.7647 319.969 58.7647 318.595C58.7647 317.339 58.0691 316.593 55.8127 316.593C53.5901 316.593 52.8776 317.339 52.8776 318.595C52.8776 319.969 53.6919 320.648 55.8127 320.648ZM55.8127 326.06C58.3067 326.06 59.0871 325.262 59.0871 323.786C59.0871 322.293 58.2727 321.513 55.8127 321.513C53.3696 321.513 52.5722 322.293 52.5722 323.786C52.5722 325.262 53.3526 326.06 55.8127 326.06ZM68.9885 327.01H67.767V324.482H61.1673V323.6L67.5634 315.643H68.9885V323.379H70.8548V324.482H68.9885V327.01ZM62.7281 323.379H67.767V317.17H67.6822L62.7281 323.294V323.379ZM76.1431 327.179C73.3437 327.179 71.7998 325.873 71.7998 323.786V323.684H73.0214V323.786C73.0214 325.466 74.0733 326.06 76.177 326.06C78.3826 326.06 79.2309 325.398 79.2309 323.43C79.2309 321.598 78.3147 320.868 76.2279 320.868C74.718 320.868 73.8866 321.258 73.1401 321.682L72.0713 321.462L72.5294 315.643H79.8247V316.745H73.5982L73.225 320.749H73.2589C74.0054 320.206 75.1252 319.816 76.5333 319.816C78.8916 319.816 80.4355 321.089 80.4355 323.413C80.4355 325.771 78.9934 327.179 76.1431 327.179ZM89.3178 327.01H88.0962V324.482H81.4965V323.6L87.8926 315.643H89.3178V323.379H91.184V324.482H89.3178V327.01ZM83.0574 323.379H88.0962V317.17H88.0114L83.0574 323.294V323.379ZM96.7256 327.179C94.3335 327.179 92.7217 325.822 92.7217 323.634V323.532H93.9941V323.634C93.9941 324.923 94.554 326.009 96.7935 326.009C99.3384 326.009 99.8474 324.584 99.8474 321.547V320.597H99.7625C99.3214 321.75 98.1847 322.683 96.1488 322.683C93.6379 322.683 92.2466 321.275 92.2466 319.121C92.2466 316.898 93.7905 315.473 96.5221 315.473C99.8474 315.473 101.086 317.271 101.086 321.326C101.086 324.787 100.017 327.179 96.7256 327.179ZM96.4881 321.632C98.6258 321.632 99.5929 320.749 99.5929 319.138C99.5929 317.475 98.6089 316.644 96.4881 316.644C94.2826 316.644 93.4343 317.458 93.4343 319.155C93.4343 320.8 94.2486 321.632 96.4881 321.632ZM107.329 327.179C104.937 327.179 103.325 325.822 103.325 323.634V323.532H104.598V323.634C104.598 324.923 105.158 326.009 107.397 326.009C109.942 326.009 110.451 324.584 110.451 321.547V320.597H110.366C109.925 321.75 108.788 322.683 106.752 322.683C104.242 322.683 102.85 321.275 102.85 319.121C102.85 316.898 104.394 315.473 107.126 315.473C110.451 315.473 111.69 317.271 111.69 321.326C111.69 324.787 110.621 327.179 107.329 327.179ZM107.092 321.632C109.23 321.632 110.197 320.749 110.197 319.138C110.197 317.475 109.213 316.644 107.092 316.644C104.886 316.644 104.038 317.458 104.038 319.155C104.038 320.8 104.852 321.632 107.092 321.632ZM117.579 327.179C114.78 327.179 113.1 325.992 113.1 323.939C113.1 322.412 114.033 321.411 115.441 321.055V320.987C114.152 320.732 113.422 319.731 113.422 318.442C113.422 316.711 114.898 315.473 117.579 315.473C120.294 315.473 121.753 316.711 121.753 318.442C121.753 319.731 121.023 320.732 119.751 320.987V321.055C121.159 321.411 122.092 322.412 122.092 323.939C122.092 325.992 120.395 327.179 117.579 327.179ZM117.579 320.648C119.734 320.648 120.531 319.969 120.531 318.595C120.531 317.339 119.836 316.593 117.579 316.593C115.357 316.593 114.644 317.339 114.644 318.595C114.644 319.969 115.458 320.648 117.579 320.648ZM117.579 326.06C120.073 326.06 120.854 325.262 120.854 323.786C120.854 322.293 120.039 321.513 117.579 321.513C115.136 321.513 114.339 322.293 114.339 323.786C114.339 325.262 115.119 326.06 117.579 326.06ZM131.619 327.01H123.679V326.246C123.679 324.126 125.002 323.091 126.58 322.208L128.345 321.224C129.702 320.478 130.313 319.884 130.313 318.73C130.313 317.492 129.804 316.593 127.683 316.593C125.325 316.593 124.731 317.492 124.731 319.307V319.511H123.509V319.239C123.509 317.187 124.782 315.473 127.751 315.473C130.381 315.473 131.534 316.915 131.534 318.646C131.534 320.427 130.33 321.377 128.871 322.191L127.157 323.142C125.851 323.871 124.934 324.584 124.951 325.907H131.619V327.01ZM137.752 327.179C134.919 327.179 133.053 324.974 133.053 321.326C133.053 317.679 134.919 315.473 137.752 315.473C140.602 315.473 142.452 317.679 142.452 321.326C142.452 324.974 140.602 327.179 137.752 327.179ZM137.752 326.009C139.992 326.009 141.179 324.584 141.179 321.326C141.179 318.069 139.992 316.644 137.752 316.644C135.53 316.644 134.342 318.069 134.342 321.326C134.342 324.584 135.53 326.009 137.752 326.009ZM146.584 327.027H145.294C145.294 322.039 147.398 318.68 149.468 316.813V316.745H142.715V315.643H150.961V316.644C147.89 319.426 146.584 322.904 146.584 327.027Z" fill="#171717"/>
<path d="M67.8813 254.064C67.8813 265.149 58.895 274.135 47.8098 274.135C36.7246 274.135 27.7383 265.149 27.7383 254.064C27.7383 242.979 36.7246 233.992 47.8098 233.992C58.895 233.992 67.8813 242.979 67.8813 254.064Z" fill="#0052B5"/>
<path d="M42.7919 245.032V234.625C43.6092 234.414 44.4467 234.254 45.3009 234.147C46.1228 234.045 46.9601 233.992 47.8098 233.992C48.6595 233.992 49.4968 234.045 50.3187 234.147C51.1729 234.254 52.0103 234.414 52.8277 234.625V247.791L61.3581 239.254C62.2776 240.096 63.6188 241.775 64.3688 242.773L57.8456 249.046H67.249C67.4593 249.863 67.6195 250.701 67.726 251.555C67.8285 252.377 67.8813 253.214 67.8813 254.064C67.8813 254.913 67.8285 255.751 67.726 256.573C67.6195 257.427 67.4593 258.264 67.249 259.082H56.3402L63.8685 266.107C62.7895 267.543 61.5224 268.83 60.1036 269.931L52.8277 262.594V273.503C52.0103 273.713 51.1729 273.873 50.3187 273.98C49.4968 274.082 48.6595 274.135 47.8098 274.135C46.9601 274.135 46.1228 274.082 45.3008 273.98C44.4467 273.873 43.6092 273.713 42.7919 273.503L42.7919 260.587L34.5124 269.099C33.3896 268.105 32.3789 266.987 31.5017 265.767L38.7776 259.082H28.3706C28.1603 258.264 28.0001 257.427 27.8936 256.573C27.7911 255.751 27.7383 254.913 27.7383 254.064C27.7383 253.214 27.7911 252.377 27.8936 251.555C28.0001 250.701 28.1603 249.863 28.3706 249.046H39.0285L31.7526 242.019C32.8662 240.537 34.1803 239.214 35.6546 238.09L42.7919 245.032Z" fill="white"/>
<path d="M42.7919 249.046L33.6317 239.856C33.1474 240.34 32.6876 240.848 32.2544 241.378L40.283 249.046H42.7919Z" fill="#D90026"/>
<path d="M52.8277 249.046L61.9878 239.856C62.4722 240.34 62.932 240.848 63.3652 241.378L55.3366 249.046H52.8277Z" fill="#D90026"/>
<path d="M52.8277 259.254L61.9879 268.443C62.4722 267.96 62.932 267.452 63.3652 266.921L55.3366 259.254H52.8277Z" fill="#D90026"/>
<path d="M42.7919 259.254L33.6317 268.443C33.1474 267.96 32.6876 267.452 32.2544 266.921L40.283 259.254H42.7919Z" fill="#D90026"/>
<path d="M27.8936 251.555C27.7911 252.377 27.7383 253.214 27.7383 254.064C27.7383 254.913 27.7911 255.751 27.8936 256.573H45.3008V273.98C46.1228 274.082 46.9601 274.135 47.8098 274.135C48.6595 274.135 49.4968 274.082 50.3187 273.98V256.573H67.726C67.8285 255.751 67.8813 254.913 67.8813 254.064C67.8813 253.214 67.8285 252.377 67.726 251.555H50.3187V234.147C49.3367 234 48.8331 233.992 47.8098 233.992C46.9601 233.992 46.1228 234.045 45.3009 234.147V251.555H27.8936Z" fill="#D90026"/>
<g filter="url(#filter0_d_174_43641)">
<rect x="68.1172" y="255.713" width="383.853" height="126.184" rx="11.8988" fill="white"/>
<rect x="69.0273" y="256.623" width="382.033" height="124.364" rx="10.9887" stroke="#EBEBEB" stroke-width="1.82025"/>
</g>
<path d="M143.082 291.617H132.924V277.408H143.082V279.465H135.214V283.431H142.764V285.509H135.214V289.56H143.082V291.617ZM150.938 291.829C147.078 291.829 144.894 289.687 144.894 286.061V277.408H147.163V286.061C147.163 288.627 148.138 289.624 150.938 289.624C153.716 289.624 154.691 288.627 154.691 286.061V277.408H156.982V286.061C156.982 289.687 154.776 291.829 150.938 291.829ZM161.641 291.617H159.35V277.408H165.458C168.597 277.408 170.569 278.956 170.569 281.65C170.569 284.004 169.127 285.425 166.624 285.552V285.722C167.664 286.061 168.279 286.697 168.809 287.673L170.93 291.617H168.279L166.264 287.948C165.606 286.718 165.013 286.146 163.316 286.146H161.641V291.617ZM161.641 279.465V284.258H165.734C167.579 284.258 168.279 283.58 168.279 281.862C168.279 280.186 167.579 279.465 165.734 279.465H161.641ZM183.243 291.617H176.457V277.408H182.989C185.767 277.408 187.442 278.553 187.442 280.95C187.442 282.604 186.509 283.728 184.685 284.004V284.173C186.849 284.449 187.951 285.849 187.951 287.715C187.951 290.133 186.234 291.617 183.243 291.617ZM178.747 279.465V283.304H182.777C184.495 283.304 185.173 282.837 185.173 281.395C185.173 279.932 184.558 279.465 182.84 279.465H178.747ZM178.747 285.213V289.56H183.18C184.898 289.56 185.64 289.072 185.64 287.397C185.64 285.7 184.898 285.213 183.18 285.213H178.747ZM192.656 291.829C190.769 291.829 189.306 290.854 189.306 289.009C189.306 287.27 190.578 286.358 192.826 286.04L196.516 285.488V284.916C196.516 283.346 195.795 282.88 194.141 282.88C192.466 282.88 191.808 283.41 191.808 284.81V285.128H189.603V284.916C189.603 282.562 191.448 280.865 194.268 280.865C197.216 280.865 198.701 282.646 198.701 285.213V291.617H196.58V289.963H196.474C195.859 290.96 194.65 291.829 192.656 291.829ZM191.532 288.839C191.532 289.666 192.063 290.005 193.399 290.005C194.883 290.005 196.516 289.412 196.516 287.291V287.1L193.165 287.609C191.957 287.779 191.532 288.054 191.532 288.839ZM203.184 291.617H200.894V281.077H202.993V283.049H203.078C203.566 281.925 204.69 280.865 206.747 280.865C209.483 280.865 210.713 282.604 210.713 285V291.617H208.422V285.509C208.422 283.622 207.828 282.837 205.899 282.837C204.032 282.837 203.184 283.558 203.184 285.531V291.617ZM215.196 291.617H212.906V277.408H215.196V285.255H217.274L220.095 281.077H222.788L219.119 286.061L222.725 291.617H220.053L217.296 287.312H215.196V291.617ZM229.508 291.617H227.112L232.647 277.408H235.934L241.469 291.617H238.988L237.546 287.927H230.95L229.508 291.617ZM233.241 282.116L231.756 285.87H236.74L235.255 282.116L234.343 279.487H234.174L233.241 282.116ZM247.126 291.85C243.839 291.85 241.973 289.624 241.973 286.358C241.973 283.071 243.903 280.865 247.211 280.865C249.989 280.865 251.898 282.583 251.898 285.107V285.297H249.629V285.17C249.629 283.622 248.823 282.922 247.063 282.922C245.027 282.922 244.242 284.067 244.242 286.358C244.242 288.648 245.027 289.772 247.063 289.772C248.823 289.772 249.629 289.094 249.629 287.545V287.418H251.898V287.609C251.898 290.111 249.968 291.85 247.126 291.85ZM258.455 291.85C255.168 291.85 253.302 289.624 253.302 286.358C253.302 283.071 255.231 280.865 258.54 280.865C261.318 280.865 263.227 282.583 263.227 285.107V285.297H260.957V285.17C260.957 283.622 260.152 282.922 258.391 282.922C256.355 282.922 255.571 284.067 255.571 286.358C255.571 288.648 256.355 289.772 258.391 289.772C260.152 289.772 260.957 289.094 260.957 287.545V287.418H263.227V287.609C263.227 290.111 261.297 291.85 258.455 291.85ZM269.89 291.829C266.645 291.829 264.63 289.624 264.63 286.337C264.63 283.071 266.645 280.865 269.89 280.865C273.113 280.865 275.064 283.071 275.064 286.337C275.064 289.624 273.113 291.829 269.89 291.829ZM269.89 289.793C272.095 289.793 272.859 288.712 272.859 286.337C272.859 283.983 272.095 282.901 269.89 282.901C267.663 282.901 266.878 283.983 266.878 286.337C266.878 288.712 267.663 289.793 269.89 289.793ZM280.7 291.829C277.943 291.829 276.713 289.984 276.713 287.588V281.077H279.003V287.185C279.003 289.072 279.724 289.857 281.548 289.857C283.308 289.857 284.305 289.094 284.305 287.015V281.077H286.595V291.617H284.475V289.518H284.39C283.881 290.726 282.757 291.829 280.7 291.829ZM291.141 291.617H288.85V281.077H290.95V283.049H291.035C291.523 281.925 292.647 280.865 294.704 280.865C297.439 280.865 298.669 282.604 298.669 285V291.617H296.379V285.509C296.379 283.622 295.785 282.837 293.855 282.837C291.989 282.837 291.141 283.558 291.141 285.531V291.617ZM305.149 291.617C302.795 291.617 301.565 290.748 301.565 288.372V282.986H299.805V281.077H301.608L302.095 278.469H303.856V281.077H307.037V282.986H303.856V288.266C303.856 289.369 304.322 289.56 305.743 289.56H307.037V291.426C306.591 291.532 305.87 291.617 305.149 291.617ZM317.716 291.617H312.669V277.408H317.716C322.106 277.408 324.905 280.123 324.905 284.513C324.905 288.903 322.106 291.617 317.716 291.617ZM317.716 279.465H314.959V289.56H317.716C321.109 289.56 322.467 288.16 322.467 284.513C322.467 280.865 321.109 279.465 317.716 279.465ZM331.416 291.829C327.938 291.829 326.305 289.624 326.305 286.337C326.305 283.071 328.256 280.865 331.395 280.865C334.237 280.865 336.23 282.562 336.23 285.446C336.23 285.997 336.167 286.57 336.103 286.888H328.447C328.532 288.818 329.232 289.793 331.438 289.793C333.198 289.793 333.876 289.2 333.876 288.245V288.076H336.146V288.266C336.146 290.43 334.258 291.829 331.416 291.829ZM331.353 282.795C329.359 282.795 328.596 283.728 328.469 285.361H334.046C334.131 283.558 333.155 282.795 331.353 282.795ZM342.366 291.617C340.012 291.617 338.782 290.748 338.782 288.372V282.986H337.021V281.077H338.824L339.312 278.469H341.072V281.077H344.253V282.986H341.072V288.266C341.072 289.369 341.539 289.56 342.959 289.56H344.253V291.426C343.808 291.532 343.087 291.617 342.366 291.617ZM348.647 291.829C346.759 291.829 345.296 290.854 345.296 289.009C345.296 287.27 346.568 286.358 348.816 286.04L352.506 285.488V284.916C352.506 283.346 351.785 282.88 350.131 282.88C348.456 282.88 347.798 283.41 347.798 284.81V285.128H345.593V284.916C345.593 282.562 347.438 280.865 350.258 280.865C353.206 280.865 354.691 282.646 354.691 285.213V291.617H352.57V289.963H352.464C351.849 290.96 350.64 291.829 348.647 291.829ZM347.523 288.839C347.523 289.666 348.053 290.005 349.389 290.005C350.873 290.005 352.506 289.412 352.506 287.291V287.1L349.156 287.609C347.947 287.779 347.523 288.054 347.523 288.839ZM359.026 279.741H356.757L356.735 277.408H359.026V279.741ZM359.047 291.617H356.757V281.014H359.047V291.617ZM363.44 291.617H361.15V277.408H363.44V291.617ZM370.056 291.829C366.981 291.829 365.369 290.62 365.369 288.054V288.012H367.575V288.394C367.575 289.539 368.084 289.963 370.098 289.963C371.795 289.963 372.113 289.581 372.113 288.797C372.113 287.948 371.604 287.694 370.056 287.418L368.423 287.142C366.535 286.803 365.348 285.955 365.348 284.046C365.348 282.137 366.917 280.865 369.674 280.865C372.155 280.865 374.022 282.095 374.022 284.492V284.682H371.837V284.428C371.837 283.452 371.498 282.753 369.611 282.753C367.935 282.753 367.532 283.198 367.532 284.004C367.532 284.81 367.914 285.043 369.398 285.34L371.18 285.679C373.216 286.082 374.276 286.994 374.276 288.733C374.276 290.684 372.728 291.829 370.056 291.829Z" fill="#171717"/>
<path d="M87.1489 332.154H85.2318L89.6599 320.787H92.2896L96.7177 332.154H94.7327L93.579 329.202H88.3026L87.1489 332.154ZM90.1349 324.554L88.9473 327.557H92.9343L91.7467 324.554L91.0172 322.45H90.8814L90.1349 324.554ZM101.243 332.341C98.6138 332.341 97.1208 330.56 97.1208 327.947C97.1208 325.317 98.6647 323.553 101.311 323.553C103.534 323.553 105.061 324.927 105.061 326.946V327.098H103.245V326.997C103.245 325.758 102.601 325.198 101.193 325.198C99.5639 325.198 98.9361 326.114 98.9361 327.947C98.9361 329.779 99.5639 330.678 101.193 330.678C102.601 330.678 103.245 330.135 103.245 328.897V328.795H105.061V328.948C105.061 330.95 103.517 332.341 101.243 332.341ZM110.306 332.341C107.677 332.341 106.184 330.56 106.184 327.947C106.184 325.317 107.727 323.553 110.374 323.553C112.597 323.553 114.124 324.927 114.124 326.946V327.098H112.308V326.997C112.308 325.758 111.664 325.198 110.255 325.198C108.627 325.198 107.999 326.114 107.999 327.947C107.999 329.779 108.627 330.678 110.255 330.678C111.664 330.678 112.308 330.135 112.308 328.897V328.795H114.124V328.948C114.124 330.95 112.58 332.341 110.306 332.341ZM119.454 332.324C116.858 332.324 115.246 330.56 115.246 327.93C115.246 325.317 116.858 323.553 119.454 323.553C122.033 323.553 123.594 325.317 123.594 327.93C123.594 330.56 122.033 332.324 119.454 332.324ZM119.454 330.695C121.218 330.695 121.829 329.83 121.829 327.93C121.829 326.047 121.218 325.181 119.454 325.181C117.673 325.181 117.045 326.047 117.045 327.93C117.045 329.83 117.673 330.695 119.454 330.695ZM128.102 332.324C125.897 332.324 124.912 330.848 124.912 328.931V323.722H126.745V328.608C126.745 330.118 127.322 330.746 128.781 330.746C130.189 330.746 130.986 330.135 130.986 328.473V323.722H132.819V332.154H131.122V330.475H131.054C130.647 331.442 129.748 332.324 128.102 332.324ZM136.455 332.154H134.623V323.722H136.302V325.3H136.37C136.76 324.401 137.66 323.553 139.305 323.553C141.494 323.553 142.478 324.944 142.478 326.861V332.154H140.646V327.268C140.646 325.758 140.171 325.13 138.627 325.13C137.134 325.13 136.455 325.707 136.455 327.285V332.154ZM147.662 332.154C145.779 332.154 144.795 331.459 144.795 329.559V325.249H143.386V323.722H144.828L145.219 321.635H146.627V323.722H149.172V325.249H146.627V329.474C146.627 330.356 147 330.509 148.137 330.509H149.172V332.002C148.815 332.086 148.239 332.154 147.662 332.154ZM155.51 332.154H153.677V320.787H155.645L159.955 327.302L161.159 329.117H161.295V320.787H163.127V332.154H161.159L156.867 325.741L155.628 323.892H155.51V332.154ZM168.148 332.324C165.942 332.324 164.958 330.848 164.958 328.931V323.722H166.79V328.608C166.79 330.118 167.367 330.746 168.826 330.746C170.234 330.746 171.032 330.135 171.032 328.473V323.722H172.864V332.154H171.167V330.475H171.1C170.692 331.442 169.793 332.324 168.148 332.324ZM176.5 332.154H174.668V323.722H176.348V325.3H176.416C176.806 324.401 177.688 323.553 179.3 323.553C180.776 323.553 181.692 324.231 182.099 325.3H182.15C182.54 324.418 183.406 323.553 185.068 323.553C187.24 323.553 188.207 324.944 188.207 326.861V332.154H186.375V327.268C186.375 325.758 185.917 325.13 184.39 325.13C182.998 325.13 182.354 325.707 182.354 327.251V332.154H180.521V327.268C180.521 325.758 180.063 325.13 178.536 325.13C177.145 325.13 176.5 325.707 176.5 327.234V332.154ZM191.64 332.154H189.961V320.787H191.793V325.063H191.827C192.2 324.299 193.167 323.553 194.66 323.553C196.985 323.553 198.206 325.266 198.206 327.93C198.206 330.61 196.917 332.324 194.558 332.324C193.099 332.324 192.115 331.747 191.708 330.763H191.64V332.154ZM191.793 328.693C191.793 330.101 192.607 330.763 194.083 330.763C195.712 330.763 196.391 330.017 196.391 327.93C196.391 325.86 195.695 325.113 194.083 325.113C192.607 325.113 191.793 325.775 191.793 327.183V328.693ZM203.419 332.324C200.637 332.324 199.33 330.56 199.33 327.93C199.33 325.317 200.891 323.553 203.402 323.553C205.676 323.553 207.27 324.91 207.27 327.217C207.27 327.658 207.219 328.116 207.169 328.371H201.044C201.112 329.915 201.672 330.695 203.436 330.695C204.844 330.695 205.387 330.22 205.387 329.457V329.321H207.202V329.474C207.202 331.204 205.693 332.324 203.419 332.324ZM203.368 325.096C201.773 325.096 201.163 325.843 201.061 327.149H205.523C205.591 325.707 204.81 325.096 203.368 325.096ZM210.565 332.154H208.732V323.671H210.412V325.012H210.497C210.836 324.231 211.617 323.553 212.855 323.553C214.62 323.553 215.298 324.842 215.298 326.42V326.98H213.466V326.64C213.466 325.521 213.144 325.113 212.075 325.113C210.972 325.113 210.565 325.538 210.565 326.657V332.154Z" fill="#171717"/>
<path d="M88.9643 359.725H87.7427V350.682H85.5202V349.766H85.9104C86.9793 349.766 87.5561 349.375 87.9633 348.357H88.9643V359.725ZM95.3394 359.894C92.54 359.894 90.9961 358.588 90.9961 356.501V356.399H92.2176V356.501C92.2176 358.181 93.2695 358.775 95.3733 358.775C97.5789 358.775 98.4271 358.113 98.4271 356.145C98.4271 354.312 97.511 353.583 95.4242 353.583C93.9142 353.583 93.0829 353.973 92.3364 354.397L91.2675 354.177L91.7256 348.357H99.021V349.46H92.7945L92.4212 353.464H92.4552C93.2017 352.921 94.3214 352.531 95.7296 352.531C98.0878 352.531 99.6317 353.804 99.6317 356.128C99.6317 358.486 98.1896 359.894 95.3394 359.894ZM108.514 359.725H107.292V357.197H100.693V356.314L107.089 348.357H108.514V356.094H110.38V357.197H108.514V359.725ZM102.254 356.094H107.292V349.884H107.208L102.254 356.009V356.094ZM115.922 359.894C113.53 359.894 111.918 358.537 111.918 356.348V356.247H113.19V356.348C113.19 357.638 113.75 358.724 115.99 358.724C118.535 358.724 119.044 357.298 119.044 354.262V353.312H118.959C118.518 354.465 117.381 355.398 115.345 355.398C112.834 355.398 111.443 353.99 111.443 351.835C111.443 349.613 112.987 348.188 115.718 348.188C119.044 348.188 120.282 349.986 120.282 354.041C120.282 357.502 119.213 359.894 115.922 359.894ZM115.684 354.346C117.822 354.346 118.789 353.464 118.789 351.852C118.789 350.19 117.805 349.358 115.684 349.358C113.479 349.358 112.631 350.173 112.631 351.869C112.631 353.515 113.445 354.346 115.684 354.346ZM129.158 359.725H127.937V357.197H121.337V356.314L127.733 348.357H129.158V356.094H131.024V357.197H129.158V359.725ZM122.898 356.094H127.937V349.884H127.852L122.898 356.009V356.094ZM136.313 359.894C133.513 359.894 131.969 358.588 131.969 356.501V356.399H133.191V356.501C133.191 358.181 134.243 358.775 136.347 358.775C138.552 358.775 139.4 358.113 139.4 356.145C139.4 354.312 138.484 353.583 136.397 353.583C134.887 353.583 134.056 353.973 133.31 354.397L132.241 354.177L132.699 348.357H139.994V349.46H133.768L133.395 353.464H133.428C134.175 352.921 135.295 352.531 136.703 352.531C139.061 352.531 140.605 353.804 140.605 356.128C140.605 358.486 139.163 359.894 136.313 359.894ZM149.487 359.725H148.266V357.197H141.666V356.314L148.062 348.357H149.487V356.094H151.354V357.197H149.487V359.725ZM143.227 356.094H148.266V349.884H148.181L143.227 356.009V356.094ZM156.895 359.894C154.503 359.894 152.891 358.537 152.891 356.348V356.247H154.164V356.348C154.164 357.638 154.724 358.724 156.963 358.724C159.508 358.724 160.017 357.298 160.017 354.262V353.312H159.932C159.491 354.465 158.354 355.398 156.318 355.398C153.807 355.398 152.416 353.99 152.416 351.835C152.416 349.613 153.96 348.188 156.692 348.188C160.017 348.188 161.255 349.986 161.255 354.041C161.255 357.502 160.187 359.894 156.895 359.894ZM156.658 354.346C158.795 354.346 159.762 353.464 159.762 351.852C159.762 350.19 158.778 349.358 156.658 349.358C154.452 349.358 153.604 350.173 153.604 351.869C153.604 353.515 154.418 354.346 156.658 354.346ZM167.499 359.894C165.107 359.894 163.495 358.537 163.495 356.348V356.247H164.767V356.348C164.767 357.638 165.327 358.724 167.567 358.724C170.112 358.724 170.621 357.298 170.621 354.262V353.312H170.536C170.095 354.465 168.958 355.398 166.922 355.398C164.411 355.398 163.02 353.99 163.02 351.835C163.02 349.613 164.564 348.188 167.295 348.188C170.621 348.188 171.859 349.986 171.859 354.041C171.859 357.502 170.79 359.894 167.499 359.894ZM167.261 354.346C169.399 354.346 170.366 353.464 170.366 351.852C170.366 350.19 169.382 349.358 167.261 349.358C165.056 349.358 164.207 350.173 164.207 351.869C164.207 353.515 165.022 354.346 167.261 354.346ZM177.749 359.894C174.949 359.894 173.27 358.707 173.27 356.654C173.27 355.127 174.203 354.126 175.611 353.77V353.702C174.322 353.447 173.592 352.446 173.592 351.157C173.592 349.426 175.068 348.188 177.749 348.188C180.463 348.188 181.922 349.426 181.922 351.157C181.922 352.446 181.193 353.447 179.92 353.702V353.77C181.328 354.126 182.262 355.127 182.262 356.654C182.262 358.707 180.565 359.894 177.749 359.894ZM177.749 353.362C179.903 353.362 180.701 352.684 180.701 351.31C180.701 350.054 180.005 349.308 177.749 349.308C175.526 349.308 174.814 350.054 174.814 351.31C174.814 352.684 175.628 353.362 177.749 353.362ZM177.749 358.775C180.243 358.775 181.023 357.977 181.023 356.501C181.023 355.008 180.209 354.228 177.749 354.228C175.306 354.228 174.508 355.008 174.508 356.501C174.508 357.977 175.289 358.775 177.749 358.775ZM191.789 359.725H183.849V358.961C183.849 356.84 185.172 355.805 186.75 354.923L188.514 353.939C189.871 353.193 190.482 352.599 190.482 351.445C190.482 350.207 189.973 349.308 187.852 349.308C185.494 349.308 184.9 350.207 184.9 352.022V352.226H183.679V351.954C183.679 349.901 184.951 348.188 187.92 348.188C190.55 348.188 191.704 349.63 191.704 351.36C191.704 353.142 190.499 354.092 189.04 354.906L187.327 355.856C186.02 356.586 185.104 357.298 185.121 358.622H191.789V359.725ZM197.922 359.894C195.088 359.894 193.222 357.689 193.222 354.041C193.222 350.393 195.088 348.188 197.922 348.188C200.772 348.188 202.621 350.393 202.621 354.041C202.621 357.689 200.772 359.894 197.922 359.894ZM197.922 358.724C200.161 358.724 201.349 357.298 201.349 354.041C201.349 350.784 200.161 349.358 197.922 349.358C195.699 349.358 194.512 350.784 194.512 354.041C194.512 357.298 195.699 358.724 197.922 358.724ZM206.753 359.742H205.464C205.464 354.754 207.568 351.394 209.637 349.528V349.46H202.885V348.357H211.13V349.358C208.06 352.141 206.753 355.619 206.753 359.742Z" fill="#171717"/>
<circle cx="103.105" cy="288.583" r="21.6786" fill="#0052B5"/>
<path d="M102.987 279.783L101.075 280.751L101.705 278.831L100.42 277.559L102.337 277.55L103.091 275.564L103.935 277.542L105.532 277.534L104.26 278.818L104.909 280.732L102.987 279.783Z" fill="#FFDB44"/>
<path d="M102.987 297.792L101.075 296.824L101.705 298.744L100.42 300.015L102.337 300.025L103.091 302.01L103.935 300.033L105.532 300.041L104.26 298.757L104.909 296.843L102.987 297.792Z" fill="#FFDB44"/>
<path d="M111.869 288.757L110.525 287.088L112.534 287.305L113.51 285.784L113.918 287.657L116.017 287.981L114.258 289.218L114.598 290.779L113.078 289.802L111.341 290.834L111.869 288.757Z" fill="#FFDB44"/>
<path d="M109.496 282.795L107.393 282.382L109.07 281.255L108.839 279.463L110.357 280.634L112.172 279.532L111.621 281.61L112.886 282.586L111.093 282.817L110.428 284.725L109.496 282.795Z" fill="#FFDB44"/>
<path d="M109.524 294.817L110.438 292.879L111.121 294.78L112.916 294.994L111.409 296.179L112.035 298.209L110.154 297.167L108.899 298.155L109.113 296.361L107.425 295.25L109.524 294.817Z" fill="#FFDB44"/>
<path d="M111.869 288.757L110.525 287.088L112.534 287.305L113.51 285.784L113.918 287.657L116.017 287.981L114.258 289.218L114.598 290.779L113.078 289.802L111.341 290.834L111.869 288.757Z" fill="#FFDB44"/>
<path d="M94.3859 288.757L95.7304 287.088L93.7214 287.305L92.7447 285.784L92.3367 287.657L90.2383 287.981L91.9967 289.218L91.6567 290.779L93.1774 289.802L94.9144 290.834L94.3859 288.757Z" fill="#FFDB44"/>
<path d="M96.7588 282.795L98.8619 282.382L97.1848 281.255L97.4157 279.463L95.8982 280.634L94.0832 279.532L94.6336 281.61L93.3691 282.586L95.1616 282.817L95.827 284.725L96.7588 282.795Z" fill="#FFDB44"/>
<path d="M96.7307 294.817L95.8171 292.879L95.1337 294.78L93.3391 294.994L94.8454 296.179L94.22 298.209L96.1007 297.167L97.356 298.155L97.1421 296.361L98.8298 295.25L96.7307 294.817Z" fill="#FFDB44"/>
<path d="M94.3859 288.757L95.7304 287.088L93.7214 287.305L92.7447 285.784L92.3367 287.657L90.2383 287.981L91.9967 289.218L91.6567 290.779L93.1774 289.802L94.9144 290.834L94.3859 288.757Z" fill="#FFDB44"/>
<g filter="url(#filter1_d_174_43641)">
<rect x="108.198" y="294.816" width="383.853" height="126.184" rx="11.8988" fill="white"/>
<rect x="109.108" y="295.727" width="382.033" height="124.364" rx="10.9887" stroke="#EBEBEB" stroke-width="1.82025"/>
</g>
<path d="M179.011 330.935C175.151 330.935 172.966 328.793 172.966 325.166V316.514H175.236V325.166C175.236 327.732 176.211 328.729 179.011 328.729C181.789 328.729 182.764 327.732 182.764 325.166V316.514H185.055V325.166C185.055 328.793 182.849 330.935 179.011 330.935ZM193.005 330.935C188.912 330.935 187.13 329.047 187.13 326.312V325.951H189.378V326.184C189.378 327.944 190.121 328.835 193.09 328.835C195.189 328.835 195.953 328.263 195.953 326.948C195.953 325.654 195.528 325.188 193.344 324.742L190.926 324.254C188.488 323.788 187.173 322.6 187.173 320.352C187.173 318.253 188.806 316.302 192.475 316.302C196.398 316.302 197.967 318.507 197.967 321.031V321.285H195.719V321.052C195.719 319.313 194.956 318.401 192.411 318.401C190.311 318.401 189.463 318.995 189.463 320.246C189.463 321.54 190.036 321.9 191.987 322.325L194.404 322.834C197.077 323.385 198.243 324.721 198.243 326.863C198.243 329.09 196.631 330.935 193.005 330.935ZM204.938 330.723H199.891V316.514H204.938C209.328 316.514 212.128 319.228 212.128 323.618C212.128 328.008 209.328 330.723 204.938 330.723ZM204.938 318.571H202.181V328.666H204.938C208.331 328.666 209.689 327.266 209.689 323.618C209.689 319.971 208.331 318.571 204.938 318.571ZM224.799 330.723H218.012V316.514H224.544C227.322 316.514 228.998 317.659 228.998 320.055C228.998 321.71 228.065 322.834 226.241 323.109V323.279C228.404 323.555 229.507 324.954 229.507 326.821C229.507 329.238 227.789 330.723 224.799 330.723ZM220.303 318.571V322.409H224.332C226.05 322.409 226.729 321.943 226.729 320.501C226.729 319.037 226.114 318.571 224.396 318.571H220.303ZM220.303 324.318V328.666H224.735C226.453 328.666 227.195 328.178 227.195 326.502C227.195 324.806 226.453 324.318 224.735 324.318H220.303ZM234.212 330.935C232.324 330.935 230.861 329.959 230.861 328.114C230.861 326.375 232.134 325.463 234.382 325.145L238.072 324.594V324.021C238.072 322.452 237.351 321.985 235.696 321.985C234.021 321.985 233.364 322.515 233.364 323.915V324.233H231.158V324.021C231.158 321.667 233.003 319.971 235.824 319.971C238.771 319.971 240.256 321.752 240.256 324.318V330.723H238.135V329.068H238.029C237.414 330.065 236.205 330.935 234.212 330.935ZM233.088 327.944C233.088 328.772 233.618 329.111 234.954 329.111C236.439 329.111 238.072 328.517 238.072 326.396V326.205L234.721 326.714C233.512 326.884 233.088 327.16 233.088 327.944ZM244.739 330.723H242.449V320.183H244.549V322.155H244.633C245.121 321.031 246.245 319.971 248.302 319.971C251.038 319.971 252.268 321.71 252.268 324.106V330.723H249.978V324.615C249.978 322.727 249.384 321.943 247.454 321.943C245.588 321.943 244.739 322.664 244.739 324.636V330.723ZM256.751 330.723H254.461V316.514H256.751V324.36H258.83L261.65 320.183H264.344L260.675 325.166L264.28 330.723H261.608L258.851 326.418H256.751V330.723ZM271.064 330.723H268.667L274.202 316.514H277.489L283.025 330.723H280.543L279.101 327.033H272.506L271.064 330.723ZM274.796 321.222L273.312 324.975H278.295L276.811 321.222L275.899 318.592H275.729L274.796 321.222ZM288.682 330.956C285.395 330.956 283.528 328.729 283.528 325.463C283.528 322.176 285.458 319.971 288.767 319.971C291.545 319.971 293.453 321.688 293.453 324.212V324.403H291.184V324.276C291.184 322.727 290.378 322.028 288.618 322.028C286.582 322.028 285.798 323.173 285.798 325.463C285.798 327.754 286.582 328.878 288.618 328.878C290.378 328.878 291.184 328.199 291.184 326.651V326.524H293.453V326.714C293.453 329.217 291.524 330.956 288.682 330.956ZM300.01 330.956C296.723 330.956 294.857 328.729 294.857 325.463C294.857 322.176 296.787 319.971 300.095 319.971C302.873 319.971 304.782 321.688 304.782 324.212V324.403H302.513V324.276C302.513 322.727 301.707 322.028 299.947 322.028C297.911 322.028 297.126 323.173 297.126 325.463C297.126 327.754 297.911 328.878 299.947 328.878C301.707 328.878 302.513 328.199 302.513 326.651V326.524H304.782V326.714C304.782 329.217 302.852 330.956 300.01 330.956ZM311.445 330.935C308.2 330.935 306.185 328.729 306.185 325.442C306.185 322.176 308.2 319.971 311.445 319.971C314.668 319.971 316.62 322.176 316.62 325.442C316.62 328.729 314.668 330.935 311.445 330.935ZM311.445 328.899C313.65 328.899 314.414 327.817 314.414 325.442C314.414 323.088 313.65 322.006 311.445 322.006C309.218 322.006 308.433 323.088 308.433 325.442C308.433 327.817 309.218 328.899 311.445 328.899ZM322.255 330.935C319.498 330.935 318.268 329.09 318.268 326.693V320.183H320.558V326.29C320.558 328.178 321.279 328.962 323.103 328.962C324.864 328.962 325.86 328.199 325.86 326.121V320.183H328.151V330.723H326.03V328.623H325.945C325.436 329.832 324.312 330.935 322.255 330.935ZM332.696 330.723H330.406V320.183H332.505V322.155H332.59C333.078 321.031 334.202 319.971 336.259 319.971C338.995 319.971 340.225 321.71 340.225 324.106V330.723H337.934V324.615C337.934 322.727 337.341 321.943 335.411 321.943C333.544 321.943 332.696 322.664 332.696 324.636V330.723ZM346.705 330.723C344.351 330.723 343.121 329.853 343.121 327.478V322.091H341.36V320.183H343.163L343.651 317.574H345.411V320.183H348.592V322.091H345.411V327.372C345.411 328.475 345.878 328.666 347.298 328.666H348.592V330.532C348.147 330.638 347.426 330.723 346.705 330.723ZM359.271 330.723H354.224V316.514H359.271C363.661 316.514 366.461 319.228 366.461 323.618C366.461 328.008 363.661 330.723 359.271 330.723ZM359.271 318.571H356.515V328.666H359.271C362.665 328.666 364.022 327.266 364.022 323.618C364.022 319.971 362.665 318.571 359.271 318.571ZM372.972 330.935C369.494 330.935 367.861 328.729 367.861 325.442C367.861 322.176 369.812 319.971 372.951 319.971C375.792 319.971 377.786 321.667 377.786 324.551C377.786 325.103 377.722 325.675 377.659 325.993H370.003C370.088 327.923 370.787 328.899 372.993 328.899C374.753 328.899 375.432 328.305 375.432 327.351V327.181H377.701V327.372C377.701 329.535 375.814 330.935 372.972 330.935ZM372.908 321.9C370.915 321.9 370.151 322.834 370.024 324.466H375.601C375.686 322.664 374.711 321.9 372.908 321.9ZM383.921 330.723C381.567 330.723 380.337 329.853 380.337 327.478V322.091H378.577V320.183H380.379L380.867 317.574H382.627V320.183H385.809V322.091H382.627V327.372C382.627 328.475 383.094 328.666 384.515 328.666H385.809V330.532C385.363 330.638 384.642 330.723 383.921 330.723ZM390.202 330.935C388.314 330.935 386.851 329.959 386.851 328.114C386.851 326.375 388.124 325.463 390.372 325.145L394.062 324.594V324.021C394.062 322.452 393.341 321.985 391.686 321.985C390.011 321.985 389.354 322.515 389.354 323.915V324.233H387.148V324.021C387.148 321.667 388.993 319.971 391.814 319.971C394.761 319.971 396.246 321.752 396.246 324.318V330.723H394.125V329.068H394.019C393.404 330.065 392.195 330.935 390.202 330.935ZM389.078 327.944C389.078 328.772 389.608 329.111 390.944 329.111C392.429 329.111 394.062 328.517 394.062 326.396V326.205L390.711 326.714C389.502 326.884 389.078 327.16 389.078 327.944ZM400.581 318.847H398.312L398.291 316.514H400.581V318.847ZM400.602 330.723H398.312V320.119H400.602V330.723ZM404.996 330.723H402.705V316.514H404.996V330.723ZM411.611 330.935C408.536 330.935 406.924 329.726 406.924 327.16V327.117H409.13V327.499C409.13 328.644 409.639 329.068 411.654 329.068C413.35 329.068 413.668 328.687 413.668 327.902C413.668 327.054 413.159 326.799 411.611 326.524L409.978 326.248C408.091 325.909 406.903 325.06 406.903 323.152C406.903 321.243 408.473 319.971 411.23 319.971C413.711 319.971 415.577 321.201 415.577 323.597V323.788H413.393V323.533C413.393 322.558 413.053 321.858 411.166 321.858C409.491 321.858 409.088 322.303 409.088 323.109C409.088 323.915 409.469 324.148 410.954 324.445L412.735 324.785C414.771 325.188 415.832 326.099 415.832 327.838C415.832 329.79 414.283 330.935 411.611 330.935Z" fill="#171717"/>
<path d="M127.23 371.258H125.313L129.741 359.891H132.371L136.799 371.258H134.814L133.66 368.306H128.384L127.23 371.258ZM130.216 363.657L129.028 366.66H133.015L131.828 363.657L131.098 361.553H130.962L130.216 363.657ZM141.325 371.444C138.695 371.444 137.202 369.663 137.202 367.05C137.202 364.421 138.746 362.656 141.392 362.656C143.615 362.656 145.142 364.03 145.142 366.049V366.202H143.327V366.1C143.327 364.862 142.682 364.302 141.274 364.302C139.645 364.302 139.017 365.218 139.017 367.05C139.017 368.883 139.645 369.782 141.274 369.782C142.682 369.782 143.327 369.239 143.327 368V367.899H145.142V368.051C145.142 370.053 143.598 371.444 141.325 371.444ZM150.387 371.444C147.758 371.444 146.265 369.663 146.265 367.05C146.265 364.421 147.809 362.656 150.455 362.656C152.678 362.656 154.205 364.03 154.205 366.049V366.202H152.389V366.1C152.389 364.862 151.745 364.302 150.336 364.302C148.708 364.302 148.08 365.218 148.08 367.05C148.08 368.883 148.708 369.782 150.336 369.782C151.745 369.782 152.389 369.239 152.389 368V367.899H154.205V368.051C154.205 370.053 152.661 371.444 150.387 371.444ZM159.535 371.427C156.939 371.427 155.327 369.663 155.327 367.033C155.327 364.421 156.939 362.656 159.535 362.656C162.114 362.656 163.675 364.421 163.675 367.033C163.675 369.663 162.114 371.427 159.535 371.427ZM159.535 369.799C161.299 369.799 161.91 368.933 161.91 367.033C161.91 365.15 161.299 364.285 159.535 364.285C157.754 364.285 157.126 365.15 157.126 367.033C157.126 368.933 157.754 369.799 159.535 369.799ZM168.183 371.427C165.978 371.427 164.994 369.951 164.994 368.034V362.826H166.826V367.712C166.826 369.222 167.403 369.85 168.862 369.85C170.27 369.85 171.067 369.239 171.067 367.576V362.826H172.9V371.258H171.203V369.578H171.135C170.728 370.545 169.829 371.427 168.183 371.427ZM176.536 371.258H174.704V362.826H176.383V364.404H176.451C176.841 363.504 177.741 362.656 179.386 362.656C181.575 362.656 182.559 364.047 182.559 365.964V371.258H180.727V366.372C180.727 364.862 180.252 364.234 178.708 364.234C177.215 364.234 176.536 364.811 176.536 366.389V371.258ZM187.743 371.258C185.86 371.258 184.876 370.562 184.876 368.662V364.353H183.467V362.826H184.91L185.3 360.739H186.708V362.826H189.253V364.353H186.708V368.577C186.708 369.459 187.081 369.612 188.218 369.612H189.253V371.105C188.896 371.19 188.32 371.258 187.743 371.258ZM195.591 371.258H193.758V359.891H195.726L200.036 366.406L201.24 368.221H201.376V359.891H203.208V371.258H201.24L196.948 364.845L195.709 362.995H195.591V371.258ZM208.229 371.427C206.023 371.427 205.039 369.951 205.039 368.034V362.826H206.871V367.712C206.871 369.222 207.448 369.85 208.907 369.85C210.315 369.85 211.113 369.239 211.113 367.576V362.826H212.945V371.258H211.249V369.578H211.181C210.773 370.545 209.874 371.427 208.229 371.427ZM216.581 371.258H214.749V362.826H216.429V364.404H216.497C216.887 363.504 217.769 362.656 219.381 362.656C220.857 362.656 221.773 363.335 222.18 364.404H222.231C222.621 363.521 223.487 362.656 225.149 362.656C227.321 362.656 228.288 364.047 228.288 365.964V371.258H226.456V366.372C226.456 364.862 225.998 364.234 224.471 364.234C223.079 364.234 222.435 364.811 222.435 366.355V371.258H220.602V366.372C220.602 364.862 220.144 364.234 218.617 364.234C217.226 364.234 216.581 364.811 216.581 366.338V371.258ZM231.721 371.258H230.042V359.891H231.874V364.166H231.908C232.281 363.403 233.248 362.656 234.741 362.656C237.066 362.656 238.287 364.37 238.287 367.033C238.287 369.714 236.998 371.427 234.639 371.427C233.18 371.427 232.196 370.851 231.789 369.867H231.721V371.258ZM231.874 367.797C231.874 369.205 232.688 369.867 234.164 369.867C235.793 369.867 236.472 369.12 236.472 367.033C236.472 364.963 235.776 364.217 234.164 364.217C232.688 364.217 231.874 364.879 231.874 366.287V367.797ZM243.5 371.427C240.718 371.427 239.411 369.663 239.411 367.033C239.411 364.421 240.972 362.656 243.483 362.656C245.757 362.656 247.351 364.013 247.351 366.321C247.351 366.762 247.3 367.22 247.25 367.474H241.125C241.193 369.018 241.753 369.799 243.517 369.799C244.925 369.799 245.468 369.324 245.468 368.56V368.425H247.284V368.577C247.284 370.308 245.774 371.427 243.5 371.427ZM243.449 364.2C241.854 364.2 241.244 364.947 241.142 366.253H245.604C245.672 364.811 244.891 364.2 243.449 364.2ZM250.646 371.258H248.814V362.775H250.493V364.115H250.578C250.917 363.335 251.698 362.656 252.936 362.656C254.701 362.656 255.379 363.946 255.379 365.523V366.083H253.547V365.744C253.547 364.624 253.225 364.217 252.156 364.217C251.053 364.217 250.646 364.641 250.646 365.761V371.258Z" fill="#171717"/>
<path d="M129.045 398.828H127.824V389.785H125.601V388.869H125.991C127.06 388.869 127.637 388.479 128.044 387.461H129.045V398.828ZM139.137 398.828H131.197V398.065C131.197 395.944 132.52 394.909 134.098 394.027L135.863 393.043C137.22 392.296 137.831 391.702 137.831 390.549C137.831 389.31 137.322 388.411 135.201 388.411C132.843 388.411 132.249 389.31 132.249 391.126V391.329H131.027V391.058C131.027 389.005 132.3 387.291 135.269 387.291C137.899 387.291 139.052 388.733 139.052 390.464C139.052 392.245 137.848 393.195 136.389 394.01L134.675 394.96C133.369 395.689 132.453 396.402 132.47 397.725H139.137V398.828ZM144.828 398.998C141.723 398.998 140.518 397.403 140.518 395.35V395.079H141.723V395.299C141.723 397.047 142.368 397.878 144.828 397.878C146.931 397.878 147.712 397.233 147.712 395.672C147.712 394.061 146.88 393.416 144.997 393.416H142.944V392.381H144.743C146.592 392.381 147.372 391.804 147.372 390.413C147.372 389.022 146.677 388.411 144.709 388.411C142.435 388.411 141.723 389.242 141.723 390.99V391.143H140.518V390.939C140.518 388.886 141.876 387.291 144.726 387.291C147.152 387.291 148.594 388.343 148.594 390.26C148.594 391.55 147.898 392.551 146.473 392.805V392.873C148.051 393.145 148.933 394.196 148.933 395.774C148.933 397.878 147.322 398.998 144.828 398.998ZM157.658 398.828H156.436V396.3H149.837V395.418L156.233 387.461H157.658V395.197H159.524V396.3H157.658V398.828ZM151.398 395.197H156.436V388.988H156.352L151.398 395.113V395.197ZM164.812 398.998C162.013 398.998 160.469 397.691 160.469 395.605V395.503H161.691V395.605C161.691 397.284 162.743 397.878 164.846 397.878C167.052 397.878 167.9 397.216 167.9 395.248C167.9 393.416 166.984 392.686 164.897 392.686C163.387 392.686 162.556 393.077 161.81 393.501L160.741 393.28L161.199 387.461H168.494V388.564H162.268L161.894 392.568H161.928C162.675 392.025 163.795 391.635 165.203 391.635C167.561 391.635 169.105 392.907 169.105 395.231C169.105 397.59 167.663 398.998 164.812 398.998ZM175.358 398.998C172.016 398.998 170.794 397.115 170.794 393.077C170.794 389.717 172.083 387.291 175.477 387.291C177.699 387.291 179.328 388.547 179.328 390.735V390.837H178.055V390.735C178.055 389.446 177.462 388.462 175.358 388.462C172.728 388.462 172.033 389.938 172.033 392.924V393.874H172.117C172.508 392.72 173.695 391.787 175.765 391.787C178.242 391.787 179.65 393.195 179.65 395.35C179.65 397.573 178.089 398.998 175.358 398.998ZM175.392 397.827C177.597 397.827 178.446 397.013 178.446 395.316C178.446 393.67 177.631 392.839 175.409 392.839C173.271 392.839 172.287 393.721 172.287 395.333C172.287 396.996 173.288 397.827 175.392 397.827ZM183.842 398.845H182.552C182.552 393.857 184.656 390.498 186.726 388.632V388.564H179.973V387.461H188.219V388.462C185.148 391.244 183.842 394.722 183.842 398.845ZM193.093 398.998C190.294 398.998 188.614 397.81 188.614 395.757C188.614 394.23 189.547 393.229 190.956 392.873V392.805C189.666 392.551 188.937 391.55 188.937 390.26C188.937 388.53 190.413 387.291 193.093 387.291C195.808 387.291 197.267 388.53 197.267 390.26C197.267 391.55 196.537 392.551 195.265 392.805V392.873C196.673 393.229 197.606 394.23 197.606 395.757C197.606 397.81 195.91 398.998 193.093 398.998ZM193.093 392.466C195.248 392.466 196.045 391.787 196.045 390.413C196.045 389.158 195.35 388.411 193.093 388.411C190.871 388.411 190.158 389.158 190.158 390.413C190.158 391.787 190.973 392.466 193.093 392.466ZM193.093 397.878C195.587 397.878 196.368 397.081 196.368 395.605C196.368 394.112 195.553 393.331 193.093 393.331C190.65 393.331 189.853 394.112 189.853 395.605C189.853 397.081 190.633 397.878 193.093 397.878ZM203.537 398.998C201.145 398.998 199.533 397.641 199.533 395.452V395.35H200.806V395.452C200.806 396.741 201.366 397.827 203.605 397.827C206.15 397.827 206.659 396.402 206.659 393.365V392.415H206.574C206.133 393.569 204.996 394.502 202.96 394.502C200.449 394.502 199.058 393.094 199.058 390.939C199.058 388.716 200.602 387.291 203.334 387.291C206.659 387.291 207.897 389.09 207.897 393.145C207.897 396.606 206.829 398.998 203.537 398.998ZM203.3 393.45C205.437 393.45 206.404 392.568 206.404 390.956C206.404 389.293 205.42 388.462 203.3 388.462C201.094 388.462 200.246 389.276 200.246 390.973C200.246 392.619 201.06 393.45 203.3 393.45ZM214.31 398.998C211.477 398.998 209.611 396.792 209.611 393.145C209.611 389.497 211.477 387.291 214.31 387.291C217.16 387.291 219.01 389.497 219.01 393.145C219.01 396.792 217.16 398.998 214.31 398.998ZM214.31 397.827C216.55 397.827 217.737 396.402 217.737 393.145C217.737 389.887 216.55 388.462 214.31 388.462C212.088 388.462 210.9 389.887 210.9 393.145C210.9 396.402 212.088 397.827 214.31 397.827Z" fill="#171717"/>
<circle cx="142.706" cy="327.688" r="19.7935" fill="#F2F0F2"/>
<mask id="mask0_174_43641" style="mask-type:alpha" maskUnits="userSpaceOnUse" x="122" y="307" width="41" height="41">
<circle cx="142.704" cy="327.688" r="19.7935" fill="#FCFCFC"/>
</mask>
<g mask="url(#mask0_174_43641)">
<rect x="129.34" y="343.027" width="27.2161" height="4.94838" fill="#D90026"/>
<rect x="129.34" y="343.027" width="27.2161" height="4.94838" fill="#D90026"/>
<rect x="123.405" y="333.131" width="39.0922" height="4.94838" fill="#D90026"/>
<rect x="123.405" y="333.131" width="39.0922" height="4.94838" fill="#D90026"/>
<rect x="123.405" y="322.74" width="39.0922" height="4.94838" fill="#D90026"/>
<rect x="123.405" y="322.74" width="39.0922" height="4.94838" fill="#D90026"/>
<rect x="123.405" y="312.844" width="39.0922" height="4.94838" fill="#D90026"/>
<rect x="123.405" y="312.844" width="39.0922" height="4.94838" fill="#D90026"/>
<rect x="122.91" y="307.895" width="20.2884" height="19.7935" fill="#0052B5"/>
<path d="M139.229 324.472L137.745 325.215L138.24 323.73L137.25 322.74H138.735L139.229 321.256L139.972 322.74H141.209L140.219 323.73L140.714 325.215L139.229 324.472Z" fill="#EFEFEF"/>
<path d="M132.313 324.472L130.829 325.215L131.324 323.73L130.334 322.74H131.818L132.313 321.256L133.056 322.74H134.293L133.303 323.73L133.798 325.215L132.313 324.472Z" fill="#EFEFEF"/>
<path d="M125.385 324.472L123.9 325.215L124.395 323.73L123.405 322.74H124.89L125.385 321.256L126.127 322.74H127.364L126.374 323.73L126.869 325.215L125.385 324.472Z" fill="#EFEFEF"/>
<path d="M139.229 319.029L137.745 319.771L138.24 318.287L137.25 317.297H138.735L139.229 315.812L139.972 317.297H141.209L140.219 318.287L140.714 319.771L139.229 319.029Z" fill="#EFEFEF"/>
<path d="M139.229 313.586L137.745 314.328L138.24 312.843L137.25 311.854H138.735L139.229 310.369L139.972 311.854H141.209L140.219 312.843L140.714 314.328L139.229 313.586Z" fill="#EFEFEF"/>
<path d="M139.229 308.142L137.745 308.884L138.24 307.4L137.25 306.41H138.735L139.229 304.926L139.972 306.41H141.209L140.219 307.4L140.714 308.884L139.229 308.142Z" fill="#EFEFEF"/>
<path d="M132.313 313.586L130.829 314.328L131.324 312.843L130.334 311.854H131.818L132.313 310.369L133.056 311.854H134.293L133.303 312.843L133.798 314.328L132.313 313.586Z" fill="#EFEFEF"/>
<path d="M132.313 319.029L130.829 319.771L131.324 318.287L130.334 317.297H131.818L132.313 315.812L133.056 317.297H134.293L133.303 318.287L133.798 319.771L132.313 319.029Z" fill="#EFEFEF"/>
<path d="M125.385 319.029L123.9 319.771L124.395 318.287L123.405 317.297H124.89L125.385 315.812L126.127 317.297H127.364L126.374 318.287L126.869 319.771L125.385 319.029Z" fill="#EFEFEF"/>
</g>
</g>
<rect x="331" y="460" width="330" height="459" rx="20" transform="rotate(-180 331 460)" stroke="#E5E5E5" stroke-width="2"/>
<defs>
<filter id="filter0_d_174_43641" x="11.003" y="201.772" width="494.909" height="237.239" filterUnits="userSpaceOnUse" color-interpolation-filters="sRGB">
<feFlood flood-opacity="0" result="BackgroundImageFix"/>
<feColorMatrix in="SourceAlpha" type="matrix" values="0 0 0 0 0 0 0 0 0 0 0 0 0 0 0 0 0 0 127 0" result="hardAlpha"/>
<feOffset dx="-1.5865" dy="1.5865"/>
<feGaussianBlur stdDeviation="27.7638"/>
<feComposite in2="hardAlpha" operator="out"/>
<feColorMatrix type="matrix" values="0 0 0 0 0 0 0 0 0 0 0 0 0 0 0 0 0 0 0.25 0"/>
<feBlend mode="normal" in2="BackgroundImageFix" result="effect1_dropShadow_174_43641"/>
<feBlend mode="normal" in="SourceGraphic" in2="effect1_dropShadow_174_43641" result="shape"/>
</filter>
<filter id="filter1_d_174_43641" x="51.0841" y="240.875" width="494.909" height="237.239" filterUnits="userSpaceOnUse" color-interpolation-filters="sRGB">
<feFlood flood-opacity="0" result="BackgroundImageFix"/>
<feColorMatrix in="SourceAlpha" type="matrix" values="0 0 0 0 0 0 0 0 0 0 0 0 0 0 0 0 0 0 127 0" result="hardAlpha"/>
<feOffset dx="-1.5865" dy="1.5865"/>
<feGaussianBlur stdDeviation="27.7638"/>
<feComposite in2="hardAlpha" operator="out"/>
<feColorMatrix type="matrix" values="0 0 0 0 0 0 0 0 0 0 0 0 0 0 0 0 0 0 0.25 0"/>
<feBlend mode="normal" in2="BackgroundImageFix" result="effect1_dropShadow_174_43641"/>
<feBlend mode="normal" in="SourceGraphic" in2="effect1_dropShadow_174_43641" result="shape"/>
</filter>
<clipPath id="clip0_174_43641">
<rect x="331" y="460" width="330" height="459" rx="20" transform="rotate(-180 331 460)" fill="white"/>
</clipPath>
</defs>
</svg>
