<svg width="120" height="119" viewBox="0 0 120 119" fill="none" xmlns="http://www.w3.org/2000/svg">
<path d="M114.612 80.4056C102.536 108.397 70.6597 120.418 45.6857 118.367C38.8646 117.805 25.1457 116.681 14.431 106.635C-6.14313 87.3416 -2.97297 47.0104 16.7203 23.2704C19.2564 20.2109 36.8135 -0.273816 64.1705 0.00277503C84.1999 0.202771 98.2592 11.4238 99.9698 12.8196C102.131 14.5855 106.893 18.7812 111.187 25.4364C121.276 41.0786 122.161 62.9165 114.612 80.4056Z" fill="#FFE8BF"/>
<path d="M31.8789 67.2566C31.8789 67.2566 31.8109 52.5973 24.9514 48.8698C18.092 45.1422 5.19432 43.0571 4.11349 22.0362C3.47946 9.73004 3.02414 4.35567 2.75181 2.01104C2.64543 1.09616 3.4369 0.334472 4.34752 0.47915C10.7729 1.50041 31.6704 5.86629 36.4278 19.9086C42.066 36.5593 31.8789 67.2566 31.8789 67.2566Z" fill="#F9A000"/>
<path d="M9.4599 6.18991C16.6513 12.2451 25.0809 23.0875 29.7191 34.0362C30.3276 35.8447 32.0595 39.6787 32.9616 46.5551C33.7531 52.2869 33.6169 58.3719 32.9659 62.4144C32.9233 62.6697 32.685 62.8442 32.4297 62.8016C31.9914 62.7293 32.034 62.2612 32.0382 62.274C32.7148 55.3762 32.1106 46.836 29.8893 39.1723C27.0681 29.7682 21.1108 20.7428 15.0002 13.1174L14.3704 12.3685C9.64288 6.64096 8.68119 6.62394 9.09395 6.20267C9.19608 6.10906 9.35352 6.10055 9.4599 6.18991Z" fill="url(#paint0_linear_1093_31761)"/>
<path d="M43.5214 95.1159C44.4491 95.5372 34.5514 83.7927 31.0195 65.0058C29.3557 56.1549 29.0196 45.0105 23.8324 40.8616C19.5134 37.4063 5.23277 40.0744 0.560517 41.0658C-0.0224514 41.1892 -0.201173 41.9382 0.266904 42.3084C2.57324 44.1339 7.51358 48.4572 8.89653 52.9167C10.7178 58.7932 16.4581 62.4016 21.5303 63.2782C26.6026 64.1548 29.4323 65.0654 32.1216 73.0567C34.811 81.0438 40.8917 93.9159 43.5214 95.1159Z" fill="#F9A000"/>
<path d="M7.23728 43.3809C13.2329 43.4617 19.7392 46.0106 23.1476 51.0403L23.471 51.5211C24.2157 52.6488 28.4794 60.6827 30.9092 67.3762C30.939 67.4613 30.8964 67.5506 30.8113 67.5804C30.6709 67.6315 30.5943 67.4783 30.6071 67.4911C28.939 63.7167 26.5603 58.9423 24.6753 55.3764C22.6498 51.4828 21.2328 48.8446 16.7988 46.4063C11.8627 43.7851 7.21601 43.6319 7.22877 43.6362C7.15643 43.6319 7.10537 43.5681 7.10962 43.5C7.10962 43.4319 7.1692 43.3809 7.23728 43.3809Z" fill="#BDD0FB"/>
<path d="M39.4691 96.8135C40.018 97.0816 36.2478 91.0009 35.8181 85.5627C35.3883 80.1202 33.8947 70.8566 29.0352 65.4269C24.18 59.9972 19.0184 59.6355 12.6781 64.8779C7.39304 69.2481 4.08672 71.4693 2.1208 71.9204C1.6357 72.031 1.40166 72.5927 1.65272 73.0225C2.98887 75.3203 6.72497 80.5798 12.7291 80.0309C20.3928 79.3287 29.5543 74.0735 32.5075 78.1586C35.4606 82.2393 35.1628 84.5797 35.3074 86.5499C35.4521 88.5201 35.8308 95.0221 39.4691 96.8135Z" fill="#F9A000"/>
<path d="M11.3584 71.5969C14.0903 69.2608 18.5753 66.9162 22.5625 67.2183C27.7581 67.7715 31.2857 70.5842 33.2899 74.8564C34.0772 76.6734 34.4091 77.6479 34.9069 79.8861C34.9452 80.0648 34.6346 80.1287 34.575 79.9542C34.2304 78.9032 33.8857 77.8053 33.3836 76.6734C30.4474 69.3587 24.5965 68.5246 24.3624 68.38C23.9242 68.431 21.2051 66.8225 14.9584 69.8736C13.7924 70.448 12.6563 71.0991 11.5967 71.8139L11.5925 71.8182C11.5159 71.8693 11.4052 71.8607 11.3457 71.7969C11.2903 71.7373 11.2989 71.6522 11.3584 71.5969Z" fill="url(#paint1_linear_1093_31761)"/>
<path d="M101.396 110.899H35.665C32.214 110.899 29.4141 107.984 29.4141 104.388V6.58572C29.4141 2.9177 32.3247 -0.0269265 35.8437 0.0794545L101.57 2.03261C104.953 2.13474 107.642 5.01554 107.642 8.53888V104.388C107.647 107.984 104.847 110.899 101.396 110.899Z" fill="#F9A000"/>
<path d="M99.4375 109.154H37.2429C33.9749 109.154 31.3281 106.346 31.3281 102.878V8.59423C31.3281 5.05813 34.0813 2.21988 37.4131 2.32201L99.612 4.20708C102.812 4.30495 105.357 7.08362 105.357 10.4793V102.878C105.357 106.346 102.706 109.154 99.4375 109.154Z" fill="#D78D07"/>
<path d="M68.279 51.0018C79.7851 51.0018 89.1126 41.6742 89.1126 30.1681C89.1126 18.662 79.7851 9.33447 68.279 9.33447C56.7729 9.33447 47.4453 18.662 47.4453 30.1681C47.4453 41.6742 56.7729 51.0018 68.279 51.0018Z" fill="#F9A000"/>
<g opacity="0.6">
<path d="M99.0811 57.6317L98.7067 58.8572C98.4939 59.5508 98.0258 59.9976 97.5067 59.9976L38.7758 59.8614C38.0354 59.8614 37.4439 58.955 37.4737 57.8699C37.5035 56.8487 38.0695 56.0359 38.7673 56.0232L97.8684 54.9338C98.8301 54.9126 99.4726 56.3508 99.0811 57.6317Z" fill="white"/>
</g>
<g opacity="0.6">
<path d="M48.6144 67.3589C48.6357 66.6483 49.0272 66.0866 49.5038 66.0781L99.6986 65.3292C100.384 65.3206 100.822 66.4142 100.49 67.3163L100.171 68.1802C100.013 68.6099 99.7114 68.878 99.3837 68.878L49.5038 68.7589C48.9974 68.7631 48.5889 68.1248 48.6144 67.3589Z" fill="white"/>
</g>
<g opacity="0.6">
<path d="M48.6027 75.4609C48.624 74.7503 49.0155 74.1886 49.492 74.1801L99.8486 73.4312C100.534 73.4227 100.976 74.5163 100.644 75.4184L100.325 76.2822C100.168 76.712 99.8613 76.9801 99.5337 76.9801L49.4963 76.8609C48.9857 76.8609 48.5772 76.2226 48.6027 75.4609Z" fill="white"/>
</g>
<g opacity="0.6">
<path d="M48.7746 83.5845C48.7959 82.8739 49.1873 82.3122 49.6597 82.3037L99.7439 81.5547C100.429 81.5462 100.863 82.6398 100.535 83.5419L100.22 84.4057C100.063 84.8355 99.7609 85.1036 99.4332 85.1036L49.6682 84.9845C49.1533 84.9887 48.7491 84.3504 48.7746 83.5845Z" fill="white"/>
</g>
<g opacity="0.6">
<path d="M48.7824 91.6651C48.8037 90.9544 49.1952 90.3927 49.6675 90.3842L99.641 89.6353C100.322 89.6268 100.76 90.7204 100.428 91.6225L100.113 92.4863C99.9559 92.9161 99.6538 93.1842 99.3304 93.1842L49.6717 93.0693C49.1611 93.0693 48.7569 92.4267 48.7824 91.6651Z" fill="white"/>
</g>
<g opacity="0.6">
<path d="M48.6183 99.7881C48.6396 99.0775 49.0311 98.5158 49.5034 98.5073L99.5919 97.7584C100.277 97.7498 100.711 98.8434 100.383 99.7456L100.068 100.609C99.911 101.039 99.6089 101.307 99.2812 101.307L49.5077 101.188C48.9971 101.192 48.5928 100.554 48.6183 99.7881Z" fill="white"/>
</g>
<path opacity="0.6" d="M44.0804 67.2376C44.2363 66.2772 43.5841 65.3723 42.6237 65.2164C41.6633 65.0606 40.7584 65.7128 40.6025 66.6732C40.4467 67.6336 41.0989 68.5385 42.0593 68.6943C43.0197 68.8502 43.9246 68.198 44.0804 67.2376Z" fill="white"/>
<path opacity="0.6" d="M44.0882 75.6522C44.2441 74.6918 43.5919 73.7869 42.6315 73.631C41.6711 73.4751 40.7662 74.1273 40.6103 75.0877C40.4545 76.0481 41.1067 76.953 42.0671 77.1089C43.0275 77.2647 43.9324 76.6125 44.0882 75.6522Z" fill="white"/>
<path opacity="0.6" d="M44.2406 83.5794C44.3964 82.619 43.7442 81.7141 42.7838 81.5582C41.8235 81.4024 40.9186 82.0546 40.7627 83.015C40.6068 83.9754 41.259 84.8803 42.2194 85.0361C43.1798 85.192 44.0847 84.5398 44.2406 83.5794Z" fill="white"/>
<path opacity="0.6" d="M44.2484 91.8572C44.4043 90.8968 43.7521 89.9919 42.7917 89.8361C41.8313 89.6802 40.9264 90.3324 40.7705 91.2928C40.6146 92.2532 41.2668 93.1581 42.2272 93.314C43.1876 93.4698 44.0925 92.8176 44.2484 91.8572Z" fill="white"/>
<path opacity="0.6" d="M42.582 101.124C43.5549 101.124 44.3436 100.336 44.3436 99.3628C44.3436 98.3898 43.5549 97.6011 42.582 97.6011C41.609 97.6011 40.8203 98.3898 40.8203 99.3628C40.8203 100.336 41.609 101.124 42.582 101.124Z" fill="white"/>
<path d="M72.4889 51.9124C83.5673 51.9124 92.5481 42.9316 92.5481 31.8532C92.5481 20.7748 83.5673 11.7939 72.4889 11.7939C61.4105 11.7939 52.4297 20.7748 52.4297 31.8532C52.4297 42.9316 61.4105 51.9124 72.4889 51.9124Z" fill="#CD9123"/>
<mask id="mask0_1093_31761" style="mask-type:luminance" maskUnits="userSpaceOnUse" x="53" y="12" width="39" height="39">
<path d="M72.4647 50.9675C83.012 50.9675 91.5622 42.4173 91.5622 31.87C91.5622 21.3227 83.012 12.7725 72.4647 12.7725C61.9174 12.7725 53.3672 21.3227 53.3672 31.87C53.3672 42.4173 61.9174 50.9675 72.4647 50.9675Z" fill="white"/>
</mask>
<g mask="url(#mask0_1093_31761)">
<path d="M96.4319 55.9076L50.1307 57.4183C49.8668 57.4268 49.6456 57.2183 49.6371 56.9587L47.969 5.8575C47.9605 5.59367 48.169 5.3724 48.4286 5.36389L94.7298 3.85328C94.9937 3.84477 95.2149 4.05328 95.2235 4.31285L96.8915 55.414C96.9 55.6779 96.6915 55.8991 96.4319 55.9076Z" fill="white"/>
</g>
<mask id="mask1_1093_31761" style="mask-type:luminance" maskUnits="userSpaceOnUse" x="53" y="12" width="39" height="39">
<path d="M72.4647 50.9675C83.012 50.9675 91.5622 42.4173 91.5622 31.87C91.5622 21.3227 83.012 12.7725 72.4647 12.7725C61.9174 12.7725 53.3672 21.3227 53.3672 31.87C53.3672 42.4173 61.9174 50.9675 72.4647 50.9675Z" fill="white"/>
</mask>
<g mask="url(#mask1_1093_31761)">
<path d="M62.6502 34.2187C62.6502 34.2187 74.2202 32.0017 83.4796 34.1506L83.1774 43.6568C83.1774 43.6568 81.1605 56.8949 79.5137 62.7714C79.5137 62.7714 72.5138 64.2267 69.0883 62.499C69.0883 62.499 65.7948 46.0653 64.1863 43.6653C64.182 43.6653 62.4416 37.2867 62.6502 34.2187Z" fill="url(#paint2_linear_1093_31761)"/>
<path d="M62.648 34.2188C62.648 34.2188 45.2313 54.3929 66.7458 61.197L66.6948 59.6651C66.6948 59.6651 58.5162 53.1929 64.3374 43.8101C64.3374 43.8101 63.2906 35.1166 62.648 34.2188Z" fill="url(#paint3_linear_1093_31761)"/>
<path d="M83.4778 34.1509C83.4778 34.1509 102.916 52.5122 81.8948 60.7036L81.8438 59.1717C81.8438 59.1717 89.5798 52.1803 83.1586 43.1975C83.1586 43.1975 82.3033 35.7211 83.4778 34.1509Z" fill="#F9A000"/>
</g>
<path d="M70.4019 28.5014C70.9257 28.1132 70.9805 27.2993 70.5241 26.6834C70.0678 26.0676 69.2732 25.8831 68.7493 26.2712C68.2255 26.6594 68.1707 27.4734 68.6271 28.0892C69.0834 28.705 69.878 28.8896 70.4019 28.5014Z" fill="#84524D"/>
<path d="M78.1877 27.6031C78.5791 26.9442 78.4421 26.1401 77.8816 25.8071C77.3211 25.4741 76.5494 25.7384 76.1579 26.3973C75.7665 27.0562 75.9036 27.8603 76.4641 28.1932C77.0246 28.5262 77.7963 28.262 78.1877 27.6031Z" fill="#84524D"/>
<path d="M76.9487 27.195L76.6458 21.3592C76.6458 21.3592 74.518 20.4559 73.0944 20.5204C71.6377 20.5864 69.5608 21.727 69.5608 21.727L69.8638 27.5628L76.9487 27.195Z" fill="black"/>
<path d="M73.2463 36.4715C71.8771 36.4086 70.8187 35.2466 70.8816 33.8773L71.1369 28.3374L76.0958 28.5631L75.8405 34.1031C75.7739 35.476 74.6156 36.5344 73.2463 36.4715Z" fill="#84524D"/>
<path d="M76.8036 27.0562C76.9146 29.2655 75.4824 31.1344 73.6025 31.2306C71.7225 31.3268 70.1053 29.6134 69.9943 27.4004C69.8833 25.1911 71.3155 23.9291 73.1954 23.8329C75.0754 23.7367 76.6889 24.8432 76.8036 27.0562Z" fill="#84524D"/>
<path d="M73.4474 31.2717C72.5814 31.2717 71.7562 30.8979 71.1049 30.2059C71.09 30.1911 71.09 30.1689 71.1049 30.1541C71.1197 30.1393 71.1419 30.1393 71.1567 30.1541C71.8302 30.8683 72.6961 31.2384 73.5954 31.1903C74.4947 31.1459 75.3199 30.6907 75.9157 29.9099C75.9268 29.8951 75.9527 29.8913 75.9675 29.9025C75.9823 29.9136 75.986 29.9395 75.9749 29.9543C75.3643 30.7499 74.5206 31.2162 73.5991 31.2643C73.551 31.2717 73.4992 31.2717 73.4474 31.2717Z" fill="#363E44"/>
<path d="M76.799 28.1669C76.7953 28.1669 76.7953 28.1669 76.7916 28.1669C76.7731 28.1632 76.7583 28.1447 76.762 28.1225C76.8249 27.7746 76.8471 27.4156 76.8286 27.0567C76.8138 26.7347 76.762 26.4201 76.6843 26.113C76.6806 26.0945 76.6917 26.0723 76.7102 26.0686C76.7287 26.0649 76.7509 26.076 76.7546 26.0945C76.836 26.4053 76.8841 26.7273 76.9026 27.053C76.9211 27.4193 76.8989 27.782 76.8323 28.1336C76.8323 28.1521 76.8175 28.1669 76.799 28.1669Z" fill="#363E44"/>
<path d="M70.0929 28.4811C70.0781 28.4811 70.0633 28.47 70.0559 28.4552C69.9597 28.1147 69.9005 27.7632 69.882 27.4042C69.8635 27.0711 69.882 26.7418 69.9338 26.4198C69.9375 26.4013 69.956 26.3865 69.9745 26.3902C69.993 26.3939 70.0078 26.4124 70.0041 26.4309C69.9523 26.7492 69.9375 27.0748 69.9523 27.4005C69.9708 27.7521 70.0263 28.1036 70.1225 28.4367C70.1299 28.4552 70.1151 28.4774 70.0966 28.4811C70.1003 28.4811 70.0966 28.4811 70.0929 28.4811Z" fill="#363E44"/>
<path d="M72.8551 27.4149C72.8551 27.4149 72.5627 27.5704 72.1704 27.6222C71.9928 27.6444 71.7264 27.2632 71.7264 27.2632C71.7264 27.2632 71.3119 27.5148 71.1935 27.4482C70.7827 27.2299 70.5273 26.8894 70.5273 26.8894C70.5273 26.8894 70.7753 26.7562 71.1232 26.697C71.323 26.66 71.793 27.1078 71.793 27.1078C71.793 27.1078 72.3148 26.9116 72.4924 27.0523C72.7218 27.2373 72.8551 27.4149 72.8551 27.4149Z" fill="white"/>
<path d="M72.4946 27.0566C72.3133 26.916 72.0764 26.768 71.7915 26.7051C71.5546 26.6533 71.3215 26.6644 71.1217 26.6977C71.0032 26.9382 71.0254 27.2306 71.1883 27.4489C71.3104 27.5118 71.4436 27.5673 71.588 27.6006C71.7915 27.645 71.9913 27.645 72.169 27.6191C72.206 27.5932 72.243 27.5636 72.28 27.5303C72.4132 27.4008 72.4835 27.2306 72.4946 27.0566Z" fill="#363E44"/>
<path d="M74 27.3898C74 27.3898 74.3627 27.5231 74.7993 27.4972C74.9548 27.4898 75.2101 27.1308 75.2101 27.1308C75.2101 27.1308 75.6394 27.2159 75.78 27.0938C76.0724 26.8384 76.2352 26.5535 76.2352 26.5535C76.2352 26.5535 76.0132 26.4721 75.7097 26.4499C75.484 26.4314 75.0917 26.8125 75.0917 26.8125C75.0917 26.8125 74.5366 26.7681 74.3886 26.9088C74.1332 27.1456 74 27.3898 74 27.3898Z" fill="white"/>
<path d="M74.9566 26.5423C74.7272 26.6274 74.5347 26.768 74.3867 26.9087C74.4052 27.1048 74.5014 27.2972 74.6717 27.4231C74.7124 27.4527 74.7531 27.4786 74.7975 27.5008C74.9529 27.4934 75.1158 27.4638 75.2786 27.4046C75.4784 27.3305 75.6487 27.2158 75.7893 27.0937C75.867 26.8791 75.8374 26.6422 75.7153 26.4498C75.4895 26.4313 75.2194 26.4424 74.9566 26.5423Z" fill="#363E44"/>
<path d="M73.6317 28.5215C73.6206 28.5215 73.6095 28.5178 73.6021 28.5067C73.591 28.4919 73.591 28.466 73.6095 28.4549C73.7094 28.3772 73.7612 28.3032 73.7612 28.2292C73.7612 28.17 73.7316 28.1255 73.6909 28.0663C73.6465 28.0071 73.5984 27.9405 73.5762 27.8369C73.5577 27.7444 73.5651 27.6445 73.6021 27.5445C73.6095 27.526 73.6317 27.5149 73.6502 27.5223C73.6687 27.5297 73.6798 27.5519 73.6724 27.5704C73.6428 27.6593 73.6354 27.7444 73.6502 27.8221C73.6687 27.9109 73.7094 27.9664 73.7501 28.0256C73.7945 28.0885 73.8389 28.1478 73.8352 28.2329C73.8315 28.3291 73.7723 28.4253 73.6539 28.5141C73.6502 28.5215 73.6391 28.5215 73.6317 28.5215Z" fill="#363E44"/>
<path d="M73.1035 29.2995C72.9703 29.2995 72.7704 29.2736 72.5743 29.1477C72.4522 29.0663 72.3449 28.959 72.2708 28.8295C72.2597 28.811 72.2671 28.7888 72.2856 28.7777C72.3041 28.7666 72.3264 28.774 72.3375 28.7925C72.4078 28.9109 72.504 29.0145 72.6187 29.0885C72.837 29.2292 73.0628 29.2366 73.1775 29.2255C73.196 29.2255 73.2145 29.2403 73.2182 29.2588C73.2182 29.281 73.2034 29.2958 73.1849 29.2995C73.159 29.2995 73.1331 29.2995 73.1035 29.2995Z" fill="#363E44"/>
<defs>
<linearGradient id="paint0_linear_1093_31761" x1="9.01206" y1="34.4691" x2="33.5041" y2="34.4691" gradientUnits="userSpaceOnUse">
<stop stop-color="#DAE3FE"/>
<stop offset="1" stop-color="#E9EFFD"/>
</linearGradient>
<linearGradient id="paint1_linear_1093_31761" x1="11.3081" y1="73.6265" x2="34.9129" y2="73.6265" gradientUnits="userSpaceOnUse">
<stop stop-color="#DAE3FE"/>
<stop offset="1" stop-color="#E9EFFD"/>
</linearGradient>
<linearGradient id="paint2_linear_1093_31761" x1="43.9201" y1="65.5103" x2="83.973" y2="40.4163" gradientUnits="userSpaceOnUse">
<stop stop-color="#F9A000"/>
<stop offset="1" stop-color="#FFD790"/>
</linearGradient>
<linearGradient id="paint3_linear_1093_31761" x1="41.7643" y1="62.0735" x2="81.8169" y2="36.9797" gradientUnits="userSpaceOnUse">
<stop stop-color="#F9A000"/>
<stop offset="1" stop-color="#F9A000"/>
</linearGradient>
</defs>
</svg>
