<svg width="567" height="366" viewBox="0 0 567 366" fill="none" xmlns="http://www.w3.org/2000/svg">
<g filter="url(#filter0_d_96_37163)">
<rect x="122.15" y="128.514" width="325.864" height="154.296" rx="17.2719" fill="white"/>
</g>
<g filter="url(#filter1_d_96_37163)">
<rect x="99.1204" y="110.09" width="373.074" height="161.205" rx="17.2719" fill="white"/>
</g>
<g filter="url(#filter2_d_96_37163)">
<rect x="83" y="79" width="405.314" height="179.628" rx="17.2719" fill="white"/>
</g>
<rect x="98" y="91" width="46.8497" height="46.8497" rx="23.4248" fill="#FFF6F4"/>
<g clip-path="url(#clip0_96_37163)">
<path d="M130.45 107.829C127.639 109.584 124.841 111.371 122.039 113.154C121.99 113.182 121.817 113.297 121.594 113.44C121.388 113.574 121.137 113.736 120.91 113.884C120.881 113.865 120.861 113.851 120.856 113.847C120.671 113.722 120.444 113.574 120.247 113.445C120.045 113.311 119.872 113.195 119.802 113.154C116.999 111.376 114.201 109.584 111.391 107.829C111.008 107.589 110.859 107.303 110.892 106.693C110.934 106.01 110.901 105.317 110.901 104.624C110.905 103.031 111.638 102.315 112.627 102.943C115.079 104.509 117.519 106.107 119.987 107.621C120.37 107.857 120.679 108.148 120.922 108.494C121.165 108.148 121.479 107.857 121.862 107.621C124.326 106.107 126.77 104.509 129.217 102.943C130.206 102.315 130.94 103.031 130.944 104.624C130.944 105.312 130.911 106.005 130.952 106.693C130.985 107.303 130.833 107.589 130.45 107.829Z" fill="#F69E1E"/>
<path d="M130.946 121.167C130.905 122.469 130.938 123.776 130.938 125.212C129.112 124.049 127.386 122.95 125.659 121.85C124.081 120.844 122.503 119.828 120.92 118.835C119.338 119.823 117.76 120.839 116.177 121.85C114.451 122.95 112.724 124.049 110.898 125.212C110.898 123.776 110.931 122.469 110.89 121.167C110.853 120.031 111.154 119.338 111.883 118.918C112.881 118.345 113.857 117.676 114.9 117.006C114.739 116.895 114.648 116.821 114.554 116.757C113.593 116.147 112.629 115.533 111.665 114.928C111.142 114.605 110.894 114.037 110.898 113.21C110.903 112.032 110.903 110.855 110.903 109.677V108.832C110.907 108.837 110.915 108.841 110.919 108.841C110.981 109.123 111.133 109.308 111.389 109.465C114.199 111.22 116.997 113.007 119.799 114.789C119.869 114.836 120.042 114.946 120.244 115.08C120.442 115.21 120.669 115.357 120.854 115.482C120.858 115.487 120.879 115.496 120.908 115.519C121.134 115.371 121.386 115.21 121.592 115.076C121.814 114.933 121.987 114.822 122.037 114.789C124.839 113.011 127.637 111.22 130.447 109.465C130.703 109.308 130.855 109.128 130.913 108.846C130.917 108.841 130.925 108.837 130.934 108.837V109.682C130.934 110.859 130.934 112.037 130.938 113.215C130.942 114.041 130.691 114.609 130.171 114.933C129.207 115.533 128.247 116.147 127.283 116.761C127.188 116.821 127.097 116.895 126.937 117.011C127.979 117.676 128.952 118.35 129.949 118.923C130.682 119.334 130.983 120.031 130.946 121.167Z" fill="#EB1D25"/>
</g>
<circle cx="137.836" cy="98.0305" r="3.51493" fill="#DD3138"/>
<path d="M158.832 120.295H156.807V107.735H162.15C164.775 107.735 166.705 109.291 166.705 111.99C166.705 114.69 164.775 116.246 162.15 116.246H158.832V120.295ZM162.394 109.553H158.832V114.427H162.394C164.044 114.427 164.7 113.79 164.7 111.99C164.7 110.191 164.044 109.553 162.394 109.553ZM170.696 120.482C169.028 120.482 167.734 119.62 167.734 117.989C167.734 116.452 168.859 115.646 170.846 115.365L174.108 114.877V114.371C174.108 112.984 173.471 112.571 172.009 112.571C170.528 112.571 169.947 113.04 169.947 114.277V114.559H167.997V114.371C167.997 112.29 169.628 110.791 172.121 110.791C174.727 110.791 176.039 112.365 176.039 114.634V120.295H174.164V118.833H174.071C173.527 119.714 172.459 120.482 170.696 120.482ZM169.703 117.839C169.703 118.57 170.171 118.87 171.353 118.87C172.665 118.87 174.108 118.345 174.108 116.471V116.302L171.146 116.752C170.078 116.902 169.703 117.146 169.703 117.839ZM179.415 123.482C178.909 123.482 178.328 123.407 178.009 123.313V121.663H179.284C180.09 121.663 180.371 121.532 180.671 120.839L181.027 120.051L177.072 110.978H179.303L181.177 115.496L182.021 117.52H182.171L182.939 115.496L184.645 110.978H186.876L182.471 121.401C181.777 123.051 180.877 123.482 179.415 123.482ZM190.253 120.295H188.229V110.978H190.085V112.721H190.16C190.591 111.728 191.566 110.791 193.347 110.791C194.977 110.791 195.99 111.54 196.44 112.721H196.496C196.927 111.747 197.883 110.791 199.72 110.791C202.12 110.791 203.188 112.328 203.188 114.446V120.295H201.164V114.896C201.164 113.228 200.658 112.534 198.97 112.534C197.433 112.534 196.721 113.171 196.721 114.877V120.295H194.696V114.896C194.696 113.228 194.19 112.534 192.503 112.534C190.966 112.534 190.253 113.171 190.253 114.859V120.295ZM209.607 120.482C206.533 120.482 205.089 118.533 205.089 115.627C205.089 112.74 206.814 110.791 209.589 110.791C212.101 110.791 213.863 112.29 213.863 114.84C213.863 115.327 213.807 115.833 213.75 116.115H206.983C207.058 117.82 207.676 118.683 209.626 118.683C211.182 118.683 211.782 118.158 211.782 117.314V117.164H213.788V117.333C213.788 119.245 212.119 120.482 209.607 120.482ZM209.551 112.496C207.789 112.496 207.114 113.321 207.002 114.765H211.932C212.007 113.171 211.145 112.496 209.551 112.496ZM217.878 120.295H215.853V110.978H217.709V112.721H217.784C218.215 111.728 219.209 110.791 221.027 110.791C223.445 110.791 224.533 112.328 224.533 114.446V120.295H222.508V114.896C222.508 113.228 221.983 112.534 220.277 112.534C218.628 112.534 217.878 113.171 217.878 114.915V120.295ZM230.636 120.295C228.555 120.295 227.467 119.526 227.467 117.427V112.665H225.911V110.978H227.505L227.936 108.672H229.492V110.978H232.304V112.665H229.492V117.333C229.492 118.308 229.904 118.477 231.16 118.477H232.304V120.126C231.91 120.22 231.273 120.295 230.636 120.295ZM240.057 120.295H238.032V107.735H243.431C246.206 107.735 247.949 109.103 247.949 111.484C247.949 113.565 246.674 114.821 244.462 114.933V115.083C245.381 115.383 245.924 115.946 246.393 116.808L248.268 120.295H245.924L244.144 117.052C243.562 115.965 243.038 115.458 241.538 115.458H240.057V120.295ZM240.057 109.553V113.79H243.675C245.306 113.79 245.924 113.19 245.924 111.672C245.924 110.191 245.306 109.553 243.675 109.553H240.057ZM253.661 120.482C250.587 120.482 249.143 118.533 249.143 115.627C249.143 112.74 250.868 110.791 253.642 110.791C256.154 110.791 257.916 112.29 257.916 114.84C257.916 115.327 257.86 115.833 257.804 116.115H251.037C251.112 117.82 251.73 118.683 253.68 118.683C255.236 118.683 255.836 118.158 255.836 117.314V117.164H257.842V117.333C257.842 119.245 256.173 120.482 253.661 120.482ZM253.605 112.496C251.843 112.496 251.168 113.321 251.055 114.765H255.986C256.061 113.171 255.198 112.496 253.605 112.496ZM264.179 120.501C261.273 120.501 259.624 118.533 259.624 115.646C259.624 112.74 261.329 110.791 264.254 110.791C266.71 110.791 268.397 112.309 268.397 114.54V114.709H266.391V114.596C266.391 113.228 265.679 112.609 264.123 112.609C262.323 112.609 261.629 113.621 261.629 115.646C261.629 117.67 262.323 118.664 264.123 118.664C265.679 118.664 266.391 118.064 266.391 116.696V116.583H268.397V116.752C268.397 118.964 266.691 120.501 264.179 120.501ZM274.53 120.482C271.456 120.482 270.012 118.533 270.012 115.627C270.012 112.74 271.737 110.791 274.511 110.791C277.023 110.791 278.786 112.29 278.786 114.84C278.786 115.327 278.729 115.833 278.673 116.115H271.906C271.981 117.82 272.599 118.683 274.549 118.683C276.105 118.683 276.705 118.158 276.705 117.314V117.164H278.711V117.333C278.711 119.245 277.042 120.482 274.53 120.482ZM274.474 112.496C272.712 112.496 272.037 113.321 271.924 114.765H276.855C276.93 113.171 276.067 112.496 274.474 112.496ZM282.669 109.797H280.664L280.645 107.735H282.669V109.797ZM282.688 120.295H280.664V110.922H282.688V120.295ZM290.101 120.295H287.552L283.821 110.978H286.071L288.789 118.364H288.92L291.657 110.978H293.851L290.101 120.295ZM298.96 120.482C295.885 120.482 294.442 118.533 294.442 115.627C294.442 112.74 296.166 110.791 298.941 110.791C301.453 110.791 303.215 112.29 303.215 114.84C303.215 115.327 303.159 115.833 303.103 116.115H296.335C296.41 117.82 297.029 118.683 298.978 118.683C300.534 118.683 301.134 118.158 301.134 117.314V117.164H303.14V117.333C303.14 119.245 301.472 120.482 298.96 120.482ZM298.903 112.496C297.141 112.496 296.466 113.321 296.354 114.765H301.284C301.359 113.171 300.497 112.496 298.903 112.496ZM309.028 120.482C306.366 120.482 304.922 118.589 304.922 115.627C304.922 112.684 306.347 110.791 308.915 110.791C310.565 110.791 311.558 111.578 311.971 112.421H312.027V107.735H314.033V120.295H312.177V118.758H312.102C311.652 119.826 310.621 120.482 309.028 120.482ZM306.947 115.627C306.947 117.933 307.678 118.758 309.478 118.758C311.127 118.758 312.027 118.027 312.027 116.471V114.802C312.027 113.246 311.127 112.515 309.478 112.515C307.697 112.515 306.947 113.34 306.947 115.627Z" fill="#3B3D4B"/>
<path d="M103.766 159.037H102.534V154.657L98.1027 147.574H99.5399L102.055 151.629L103.133 153.459H103.219L104.279 151.629L106.777 147.574H108.197L103.766 154.691V159.037ZM111.611 159.208C109.13 159.208 107.505 157.377 107.505 154.811C107.505 152.244 109.13 150.414 111.611 150.414C114.075 150.414 115.649 152.244 115.649 154.811C115.649 157.377 114.075 159.208 111.611 159.208ZM111.611 158.113C113.647 158.113 114.452 156.915 114.452 154.811C114.452 152.706 113.647 151.526 111.611 151.526C109.541 151.526 108.72 152.706 108.72 154.811C108.72 156.915 109.541 158.113 111.611 158.113ZM120.32 159.208C118.113 159.208 117.086 157.685 117.086 155.666V150.585H118.318V155.495C118.318 157.326 119.054 158.13 120.713 158.13C122.27 158.13 123.331 157.309 123.331 155.324V150.585H124.546V159.037H123.434V157.172H123.382C123.04 158.147 122.082 159.208 120.32 159.208ZM126.375 151.526H125.999V150.722H126.341C126.58 150.722 126.7 150.67 126.7 150.38V149.952H126.033V147.574H127.538V150.362C127.538 151.167 127.094 151.526 126.375 151.526ZM133.208 159.037H131.686L128.23 150.585H129.564L132.421 157.839H132.507L135.347 150.585H136.665L133.208 159.037ZM140.932 159.208C138.331 159.208 136.979 157.377 136.979 154.811C136.979 152.244 138.502 150.414 140.915 150.414C142.951 150.414 144.628 151.646 144.628 154.144C144.628 154.537 144.593 154.914 144.542 155.153H138.143C138.194 157.018 138.93 158.113 140.949 158.113C142.66 158.113 143.344 157.343 143.344 156.317V156.214H144.559V156.334C144.559 157.959 143.088 159.208 140.932 159.208ZM140.881 151.475C138.998 151.475 138.246 152.552 138.143 154.263H143.464C143.533 152.262 142.54 151.475 140.881 151.475ZM150.684 159.037H149.452V150.482H150.564V151.902H150.65C150.924 151.115 151.745 150.414 152.994 150.414C154.739 150.414 155.407 151.663 155.407 153.117V153.596H154.175V153.305C154.175 151.988 153.764 151.475 152.549 151.475C151.232 151.475 150.684 152.073 150.684 153.442V159.037ZM160.264 159.208C157.663 159.208 156.312 157.377 156.312 154.811C156.312 152.244 157.834 150.414 160.247 150.414C162.283 150.414 163.96 151.646 163.96 154.144C163.96 154.537 163.925 154.914 163.874 155.153H157.475C157.526 157.018 158.262 158.113 160.281 158.113C161.992 158.113 162.676 157.343 162.676 156.317V156.214H163.891V156.334C163.891 157.959 162.42 159.208 160.264 159.208ZM160.213 151.475C158.331 151.475 157.578 152.552 157.475 154.263H162.796C162.865 152.262 161.872 151.475 160.213 151.475ZM169.288 159.225C166.79 159.225 165.284 157.395 165.284 154.828C165.284 152.244 166.79 150.414 169.288 150.414C171.444 150.414 172.898 151.8 172.898 153.784V153.904H171.683V153.801C171.683 152.33 170.896 151.526 169.237 151.526C167.303 151.526 166.499 152.741 166.499 154.828C166.499 156.898 167.303 158.113 169.237 158.113C170.896 158.113 171.683 157.309 171.683 155.838V155.735H172.898V155.855C172.898 157.839 171.444 159.225 169.288 159.225ZM178.092 159.208C175.492 159.208 174.14 157.377 174.14 154.811C174.14 152.244 175.663 150.414 178.075 150.414C180.111 150.414 181.788 151.646 181.788 154.144C181.788 154.537 181.754 154.914 181.702 155.153H175.303C175.355 157.018 176.09 158.113 178.109 158.113C179.82 158.113 180.505 157.343 180.505 156.317V156.214H181.72V156.334C181.72 157.959 180.248 159.208 178.092 159.208ZM178.041 151.475C176.159 151.475 175.406 152.552 175.303 154.263H180.625C180.693 152.262 179.701 151.475 178.041 151.475ZM184.535 149.456H183.32V147.574H184.535V149.456ZM184.535 159.037H183.32V150.482H184.535V159.037ZM190.386 159.037H188.863L185.407 150.585H186.742L189.599 157.839H189.685L192.525 150.585H193.842L190.386 159.037ZM198.11 159.208C195.509 159.208 194.157 157.377 194.157 154.811C194.157 152.244 195.68 150.414 198.092 150.414C200.128 150.414 201.805 151.646 201.805 154.144C201.805 154.537 201.771 154.914 201.72 155.153H195.321C195.372 157.018 196.108 158.113 198.127 158.113C199.838 158.113 200.522 157.343 200.522 156.317V156.214H201.737V156.334C201.737 157.959 200.265 159.208 198.11 159.208ZM198.058 151.475C196.176 151.475 195.423 152.552 195.321 154.263H200.642C200.71 152.262 199.718 151.475 198.058 151.475ZM206.843 159.208C204.464 159.208 203.13 157.48 203.13 154.811C203.13 152.142 204.396 150.414 206.706 150.414C208.331 150.414 209.375 151.269 209.734 152.193V147.574H210.966V159.037H209.871V157.412H209.803C209.426 158.472 208.434 159.208 206.843 159.208ZM204.362 154.811C204.362 157.395 205.371 158.147 207.048 158.147C208.725 158.147 209.734 157.275 209.734 155.547V154.092C209.734 152.347 208.725 151.475 207.048 151.475C205.388 151.475 204.362 152.227 204.362 154.811ZM216.585 159.037V154.64H215.25V153.545H216.585V152.142H215.25V151.047H216.585V146.821H218.364L219.989 151.047H222.008V146.821H223.36V151.047H224.695V152.142H223.36V153.545H224.695V154.64H223.36V159.037H221.564L219.938 154.64H217.919V159.037H216.585ZM217.919 153.545H219.527L219.014 152.142H217.885L217.919 153.545ZM222.008 156.625H222.077L222.025 154.64H221.307L222.008 156.625ZM217.885 151.047H218.603L217.885 148.925H217.816L217.885 151.047ZM220.896 153.545H222.043L222.008 152.142H220.383L220.896 153.545ZM230.26 159.208C227.847 159.208 226.222 157.839 226.222 155.632V155.53H227.505V155.632C227.505 156.933 228.07 158.028 230.328 158.028C232.895 158.028 233.408 156.59 233.408 153.528V152.57H233.323C232.878 153.733 231.731 154.674 229.678 154.674C227.146 154.674 225.743 153.254 225.743 151.081C225.743 148.84 227.3 147.402 230.055 147.402C233.408 147.402 234.657 149.216 234.657 153.305C234.657 156.796 233.579 159.208 230.26 159.208ZM230.02 153.613C232.176 153.613 233.151 152.724 233.151 151.098C233.151 149.421 232.159 148.583 230.02 148.583C227.796 148.583 226.941 149.404 226.941 151.115C226.941 152.775 227.762 153.613 230.02 153.613ZM240.631 159.208C237.808 159.208 236.251 157.891 236.251 155.786V155.684H237.483V155.786C237.483 157.48 238.544 158.079 240.665 158.079C242.89 158.079 243.745 157.412 243.745 155.427C243.745 153.579 242.821 152.843 240.717 152.843C239.194 152.843 238.356 153.237 237.603 153.665L236.525 153.442L236.987 147.574H244.344V148.686H238.065L237.688 152.724H237.723C238.475 152.176 239.605 151.783 241.025 151.783C243.403 151.783 244.96 153.066 244.96 155.41C244.96 157.788 243.506 159.208 240.631 159.208ZM246.763 160.611H246.386V159.807H246.728C246.968 159.807 247.088 159.756 247.088 159.465V159.037H246.42V156.659H247.926V159.448C247.926 160.252 247.481 160.611 246.763 160.611ZM254.007 159.208C251.149 159.208 249.267 156.984 249.267 153.305C249.267 149.627 251.149 147.402 254.007 147.402C256.881 147.402 258.746 149.627 258.746 153.305C258.746 156.984 256.881 159.208 254.007 159.208ZM254.007 158.028C256.265 158.028 257.463 156.59 257.463 153.305C257.463 150.02 256.265 148.583 254.007 148.583C251.765 148.583 250.568 150.02 250.568 153.305C250.568 156.59 251.765 158.028 254.007 158.028ZM265.352 159.208C262.495 159.208 260.613 156.984 260.613 153.305C260.613 149.627 262.495 147.402 265.352 147.402C268.226 147.402 270.091 149.627 270.091 153.305C270.091 156.984 268.226 159.208 265.352 159.208ZM265.352 158.028C267.611 158.028 268.808 156.59 268.808 153.305C268.808 150.02 267.611 148.583 265.352 148.583C263.111 148.583 261.913 150.02 261.913 153.305C261.913 156.59 263.111 158.028 265.352 158.028ZM276.697 159.208C273.84 159.208 271.958 156.984 271.958 153.305C271.958 149.627 273.84 147.402 276.697 147.402C279.572 147.402 281.437 149.627 281.437 153.305C281.437 156.984 279.572 159.208 276.697 159.208ZM276.697 158.028C278.956 158.028 280.154 156.59 280.154 153.305C280.154 150.02 278.956 148.583 276.697 148.583C274.456 148.583 273.258 150.02 273.258 153.305C273.258 156.59 274.456 158.028 276.697 158.028ZM284.301 159.037H282.796V156.659H284.301V159.037ZM290.382 159.208C287.525 159.208 285.642 156.984 285.642 153.305C285.642 149.627 287.525 147.402 290.382 147.402C293.256 147.402 295.121 149.627 295.121 153.305C295.121 156.984 293.256 159.208 290.382 159.208ZM290.382 158.028C292.64 158.028 293.838 156.59 293.838 153.305C293.838 150.02 292.64 148.583 290.382 148.583C288.14 148.583 286.943 150.02 286.943 153.305C286.943 156.59 288.14 158.028 290.382 158.028ZM301.727 159.208C298.87 159.208 296.988 156.984 296.988 153.305C296.988 149.627 298.87 147.402 301.727 147.402C304.602 147.402 306.467 149.627 306.467 153.305C306.467 156.984 304.602 159.208 301.727 159.208ZM301.727 158.028C303.986 158.028 305.183 156.59 305.183 153.305C305.183 150.02 303.986 148.583 301.727 148.583C299.486 148.583 298.288 150.02 298.288 153.305C298.288 156.59 299.486 158.028 301.727 158.028ZM313.054 159.037H311.839V151.646H310.59V150.585H311.839V150.26C311.839 148.515 312.814 147.574 314.679 147.574H315.432V148.583H314.457C313.481 148.583 313.037 148.994 313.037 149.849V150.585H315.432V151.646H313.054V159.037ZM317.622 159.037H316.39V150.482H317.502V151.902H317.588C317.862 151.115 318.683 150.414 319.932 150.414C321.677 150.414 322.345 151.663 322.345 153.117V153.596H321.113V153.305C321.113 151.988 320.702 151.475 319.487 151.475C318.17 151.475 317.622 152.073 317.622 153.442V159.037ZM327.356 159.208C324.875 159.208 323.25 157.377 323.25 154.811C323.25 152.244 324.875 150.414 327.356 150.414C329.82 150.414 331.394 152.244 331.394 154.811C331.394 157.377 329.82 159.208 327.356 159.208ZM327.356 158.113C329.392 158.113 330.196 156.915 330.196 154.811C330.196 152.706 329.392 151.526 327.356 151.526C325.286 151.526 324.464 152.706 324.464 154.811C324.464 156.915 325.286 158.113 327.356 158.113ZM334.114 159.037H332.882V150.585H333.994V152.33H334.045C334.371 151.44 335.26 150.414 337.005 150.414C338.545 150.414 339.469 151.149 339.846 152.347H339.897C340.239 151.44 341.112 150.414 342.857 150.414C345.03 150.414 346.022 151.817 346.022 153.836V159.037H344.808V154.127C344.808 152.296 344.192 151.492 342.481 151.492C340.872 151.492 340.068 152.279 340.068 154.161V159.037H338.853V154.127C338.853 152.296 338.254 151.492 336.543 151.492C334.935 151.492 334.114 152.279 334.114 154.161V159.037ZM352.396 159.037H351.181V147.574H352.892L356.143 154.691L357.169 157.172H357.272L358.299 154.691L361.515 147.574H363.243V159.037H362.011V151.098L362.063 149.438H361.96L361.259 151.098L357.939 158.353H356.468L353.149 151.098L352.447 149.438H352.344L352.396 151.098V159.037ZM366.427 149.456H365.212V147.574H366.427V149.456ZM366.427 159.037H365.212V150.482H366.427V159.037ZM371.866 159.225C369.368 159.225 367.862 157.395 367.862 154.828C367.862 152.244 369.368 150.414 371.866 150.414C374.022 150.414 375.476 151.8 375.476 153.784V153.904H374.261V153.801C374.261 152.33 373.474 151.526 371.815 151.526C369.881 151.526 369.077 152.741 369.077 154.828C369.077 156.898 369.881 158.113 371.815 158.113C373.474 158.113 374.261 157.309 374.261 155.838V155.735H375.476V155.855C375.476 157.839 374.022 159.225 371.866 159.225ZM378.225 159.037H376.993V147.574H378.225V152.159H378.294C378.619 151.355 379.491 150.414 381.202 150.414C383.41 150.414 384.351 151.885 384.351 153.819V159.037H383.136V154.127C383.136 152.296 382.52 151.492 380.809 151.492C379.115 151.492 378.225 152.279 378.225 154.178V159.037ZM388.61 159.208C387.07 159.208 385.907 158.421 385.907 157.001C385.907 155.53 387.002 154.879 388.85 154.623L391.827 154.212V153.596C391.827 152.108 391.194 151.509 389.602 151.509C388.062 151.509 387.344 152.108 387.344 153.459V153.716H386.163V153.579C386.163 151.817 387.515 150.414 389.705 150.414C391.963 150.414 392.99 151.868 392.99 153.75V159.037H391.878V157.48L391.792 157.463C391.296 158.438 390.218 159.208 388.61 159.208ZM387.104 156.915C387.104 157.788 387.652 158.182 388.952 158.182C390.406 158.182 391.827 157.429 391.827 155.427V155.136L388.952 155.547C387.6 155.735 387.104 156.009 387.104 156.915ZM398.449 159.208C395.848 159.208 394.496 157.377 394.496 154.811C394.496 152.244 396.019 150.414 398.431 150.414C400.467 150.414 402.144 151.646 402.144 154.144C402.144 154.537 402.11 154.914 402.059 155.153H395.66C395.711 157.018 396.447 158.113 398.466 158.113C400.177 158.113 400.861 157.343 400.861 156.317V156.214H402.076V156.334C402.076 157.959 400.604 159.208 398.449 159.208ZM398.397 151.475C396.515 151.475 395.762 152.552 395.66 154.263H400.981C401.049 152.262 400.057 151.475 398.397 151.475ZM404.976 159.037H403.744V147.574H404.976V159.037ZM415.279 159.037H410.163V147.574H415.142C417.212 147.574 418.598 148.549 418.598 150.431C418.598 151.714 417.845 152.655 416.408 152.929V153.032C418.085 153.305 418.941 154.417 418.941 155.889C418.941 157.874 417.503 159.037 415.279 159.037ZM411.378 148.686V152.535H414.971C416.648 152.535 417.366 151.988 417.366 150.619C417.366 149.25 416.75 148.686 415.074 148.686H411.378ZM411.378 153.579V157.925H415.245C416.956 157.925 417.709 157.326 417.709 155.752C417.709 154.195 416.939 153.579 415.245 153.579H411.378ZM421.768 159.037H420.537V147.574H421.768V159.037ZM427.221 159.208C424.62 159.208 423.269 157.377 423.269 154.811C423.269 152.244 424.792 150.414 427.204 150.414C429.24 150.414 430.917 151.646 430.917 154.144C430.917 154.537 430.883 154.914 430.831 155.153H424.432C424.484 157.018 425.219 158.113 427.238 158.113C428.949 158.113 429.634 157.343 429.634 156.317V156.214H430.848V156.334C430.848 157.959 429.377 159.208 427.221 159.208ZM427.17 151.475C425.288 151.475 424.535 152.552 424.432 154.263H429.753C429.822 152.262 428.829 151.475 427.17 151.475ZM436.006 159.208C433.696 159.208 432.43 158.233 432.43 156.265V156.231H433.627V156.436C433.627 157.6 434.106 158.165 436.023 158.165C437.597 158.165 438.007 157.72 438.007 156.864C438.007 156.009 437.477 155.701 436.194 155.461L434.791 155.222C433.422 154.965 432.43 154.332 432.43 152.843C432.43 151.389 433.662 150.414 435.663 150.414C437.597 150.414 439.017 151.406 439.017 153.305V153.391H437.836V153.254C437.836 152.244 437.443 151.475 435.629 151.475C434.089 151.475 433.61 151.971 433.61 152.826C433.61 153.682 434.038 153.973 435.304 154.212L436.741 154.486C438.213 154.76 439.188 155.41 439.188 156.813C439.188 158.318 437.956 159.208 436.006 159.208ZM444.21 159.208C441.9 159.208 440.634 158.233 440.634 156.265V156.231H441.831V156.436C441.831 157.6 442.31 158.165 444.227 158.165C445.801 158.165 446.212 157.72 446.212 156.864C446.212 156.009 445.681 155.701 444.398 155.461L442.995 155.222C441.626 154.965 440.634 154.332 440.634 152.843C440.634 151.389 441.866 150.414 443.867 150.414C445.801 150.414 447.221 151.406 447.221 153.305V153.391H446.04V153.254C446.04 152.244 445.647 151.475 443.833 151.475C442.293 151.475 441.814 151.971 441.814 152.826C441.814 153.682 442.242 153.973 443.508 154.212L444.945 154.486C446.417 154.76 447.392 155.41 447.392 156.813C447.392 158.318 446.16 159.208 444.21 159.208ZM450.189 149.456H448.974V147.574H450.189V149.456ZM450.189 159.037H448.974V150.482H450.189V159.037ZM453.281 159.037H452.049V150.585H453.162V152.33H453.213C453.538 151.44 454.496 150.414 456.241 150.414C458.414 150.414 459.407 151.817 459.407 153.853V159.037H458.192V154.127C458.192 152.296 457.593 151.492 455.865 151.492C454.188 151.492 453.281 152.279 453.281 154.161V159.037ZM464.559 158.284C462.232 158.284 460.897 156.744 460.897 154.349C460.897 151.954 462.215 150.414 464.576 150.414C466.064 150.414 467.194 151.149 467.57 152.227H467.638V150.585H468.733V158.678C468.733 160.971 467.262 162.117 465.038 162.117C462.882 162.117 461.359 160.988 461.359 159.037H462.574C462.574 160.423 463.275 161.022 465.055 161.022C466.868 161.022 467.501 160.372 467.501 158.678V156.522H467.484C467.091 157.497 466.03 158.284 464.559 158.284ZM462.129 154.349C462.129 156.59 463.207 157.223 464.849 157.223C466.372 157.223 467.501 156.351 467.501 154.606V154.092C467.501 152.347 466.355 151.475 464.781 151.475C463.173 151.475 462.129 152.125 462.129 154.349ZM100.293 188.037H99.0779V176.574H100.395L105.545 184.205L106.76 186.001H106.863V176.574H108.095V188.037H106.76L101.576 180.406L100.378 178.644H100.293V188.037ZM113.546 188.208C110.945 188.208 109.594 186.377 109.594 183.811C109.594 181.244 111.116 179.414 113.529 179.414C115.565 179.414 117.242 180.646 117.242 183.144C117.242 183.537 117.208 183.914 117.156 184.153H110.757C110.808 186.018 111.544 187.113 113.563 187.113C115.274 187.113 115.959 186.343 115.959 185.317V185.214H117.173V185.334C117.173 186.959 115.702 188.208 113.546 188.208ZM113.495 180.475C111.613 180.475 110.86 181.552 110.757 183.263H116.078C116.147 181.262 115.154 180.475 113.495 180.475ZM120.057 188.037H118.825V179.585H119.937V181.33H119.988C120.314 180.44 121.272 179.414 123.017 179.414C125.19 179.414 126.182 180.817 126.182 182.853V188.037H124.967V183.127C124.967 181.296 124.369 180.492 122.64 180.492C120.964 180.492 120.057 181.279 120.057 183.161V188.037ZM131.625 188.208C129.024 188.208 127.673 186.377 127.673 183.811C127.673 181.244 129.195 179.414 131.608 179.414C133.644 179.414 135.321 180.646 135.321 183.144C135.321 183.537 135.287 183.914 135.235 184.153H128.836C128.887 186.018 129.623 187.113 131.642 187.113C133.353 187.113 134.038 186.343 134.038 185.317V185.214H135.252V185.334C135.252 186.959 133.781 188.208 131.625 188.208ZM131.574 180.475C129.692 180.475 128.939 181.552 128.836 183.263H134.157C134.226 181.262 133.233 180.475 131.574 180.475ZM137.898 188.037H136.393V185.659H137.898V188.037ZM143.886 188.037H142.671V176.574H150.337V177.686H143.886V182.049H150.08V183.178H143.886V188.037ZM154.874 188.208C152.667 188.208 151.64 186.685 151.64 184.666V179.585H152.872V184.495C152.872 186.326 153.608 187.13 155.267 187.13C156.824 187.13 157.885 186.309 157.885 184.324V179.585H159.1V188.037H157.988V186.172H157.936C157.594 187.147 156.636 188.208 154.874 188.208ZM162.263 188.037H161.032V179.585H162.144V181.33H162.195C162.52 180.44 163.478 179.414 165.223 179.414C167.396 179.414 168.389 180.817 168.389 182.853V188.037H167.174V183.127C167.174 181.296 166.575 180.492 164.847 180.492C163.17 180.492 162.263 181.279 162.263 183.161V188.037ZM173.592 188.208C171.214 188.208 169.879 186.48 169.879 183.811C169.879 181.142 171.145 179.414 173.455 179.414C175.081 179.414 176.124 180.269 176.484 181.193V176.574H177.715V188.037H176.62V186.412H176.552C176.176 187.472 175.183 188.208 173.592 188.208ZM171.111 183.811C171.111 186.395 172.121 187.147 173.797 187.147C175.474 187.147 176.484 186.275 176.484 184.547V183.092C176.484 181.347 175.474 180.475 173.797 180.475C172.138 180.475 171.111 181.227 171.111 183.811ZM183 188.208C180.69 188.208 179.424 187.233 179.424 185.265V185.231H180.622V185.436C180.622 186.6 181.101 187.165 183.017 187.165C184.592 187.165 185.002 186.72 185.002 185.864C185.002 185.009 184.472 184.701 183.189 184.461L181.785 184.222C180.417 183.965 179.424 183.332 179.424 181.843C179.424 180.389 180.656 179.414 182.658 179.414C184.592 179.414 186.012 180.406 186.012 182.305V182.391H184.831V182.254C184.831 181.244 184.438 180.475 182.624 180.475C181.084 180.475 180.605 180.971 180.605 181.826C180.605 182.682 181.033 182.973 182.299 183.212L183.736 183.486C185.207 183.76 186.183 184.41 186.183 185.813C186.183 187.318 184.951 188.208 183 188.208ZM192.256 188.037H191.024V176.574H192.256V181.159H192.324C192.649 180.355 193.522 179.414 195.233 179.414C197.44 179.414 198.381 180.885 198.381 182.819V188.037H197.166V183.127C197.166 181.296 196.55 180.492 194.839 180.492C193.146 180.492 192.256 181.279 192.256 183.178V188.037ZM202.641 188.208C201.101 188.208 199.937 187.421 199.937 186.001C199.937 184.53 201.032 183.879 202.88 183.623L205.857 183.212V182.596C205.857 181.108 205.224 180.509 203.633 180.509C202.093 180.509 201.374 181.108 201.374 182.459V182.716H200.194V182.579C200.194 180.817 201.546 179.414 203.736 179.414C205.994 179.414 207.021 180.868 207.021 182.75V188.037H205.909V186.48L205.823 186.463C205.327 187.438 204.249 188.208 202.641 188.208ZM201.135 185.915C201.135 186.788 201.682 187.182 202.983 187.182C204.437 187.182 205.857 186.429 205.857 184.427V184.136L202.983 184.547C201.631 184.735 201.135 185.009 201.135 185.915ZM212.274 188.208C209.964 188.208 208.698 187.233 208.698 185.265V185.231H209.896V185.436C209.896 186.6 210.375 187.165 212.291 187.165C213.865 187.165 214.276 186.72 214.276 185.864C214.276 185.009 213.746 184.701 212.462 184.461L211.059 184.222C209.691 183.965 208.698 183.332 208.698 181.843C208.698 180.389 209.93 179.414 211.932 179.414C213.865 179.414 215.286 180.406 215.286 182.305V182.391H214.105V182.254C214.105 181.244 213.711 180.475 211.898 180.475C210.358 180.475 209.879 180.971 209.879 181.826C209.879 182.682 210.307 182.973 211.573 183.212L213.01 183.486C214.481 183.76 215.457 184.41 215.457 185.813C215.457 187.318 214.225 188.208 212.274 188.208ZM221.41 188.037H220.298V176.574H221.53V181.193C221.906 180.269 222.95 179.414 224.575 179.414C226.885 179.414 228.134 181.142 228.134 183.811C228.134 186.48 226.817 188.208 224.438 188.208C222.847 188.208 221.838 187.472 221.461 186.412H221.41V188.037ZM221.53 184.547C221.53 186.275 222.556 187.147 224.233 187.147C225.893 187.147 226.902 186.395 226.902 183.811C226.902 181.227 225.876 180.475 224.233 180.475C222.556 180.475 221.53 181.347 221.53 183.092V184.547ZM233.315 188.208C230.714 188.208 229.363 186.377 229.363 183.811C229.363 181.244 230.885 179.414 233.298 179.414C235.334 179.414 237.011 180.646 237.011 183.144C237.011 183.537 236.977 183.914 236.925 184.153H230.526C230.577 186.018 231.313 187.113 233.332 187.113C235.043 187.113 235.728 186.343 235.728 185.317V185.214H236.942V185.334C236.942 186.959 235.471 188.208 233.315 188.208ZM233.264 180.475C231.382 180.475 230.629 181.552 230.526 183.263H235.847C235.916 181.262 234.923 180.475 233.264 180.475ZM242.288 188.208C239.687 188.208 238.335 186.377 238.335 183.811C238.335 181.244 239.858 179.414 242.271 179.414C244.307 179.414 245.983 180.646 245.983 183.144C245.983 183.537 245.949 183.914 245.898 184.153H239.499C239.55 186.018 240.286 187.113 242.305 187.113C244.016 187.113 244.7 186.343 244.7 185.317V185.214H245.915V185.334C245.915 186.959 244.444 188.208 242.288 188.208ZM242.236 180.475C240.354 180.475 239.601 181.552 239.499 183.263H244.82C244.888 181.262 243.896 180.475 242.236 180.475ZM248.799 188.037H247.567V179.585H248.679V181.33H248.73C249.055 180.44 250.013 179.414 251.759 179.414C253.931 179.414 254.924 180.817 254.924 182.853V188.037H253.709V183.127C253.709 181.296 253.11 180.492 251.382 180.492C249.705 180.492 248.799 181.279 248.799 183.161V188.037ZM262.258 188.208C260.718 188.208 259.554 187.421 259.554 186.001C259.554 184.53 260.649 183.879 262.497 183.623L265.474 183.212V182.596C265.474 181.108 264.841 180.509 263.25 180.509C261.71 180.509 260.992 181.108 260.992 182.459V182.716H259.811V182.579C259.811 180.817 261.163 179.414 263.353 179.414C265.611 179.414 266.638 180.868 266.638 182.75V188.037H265.526V186.48L265.44 186.463C264.944 187.438 263.866 188.208 262.258 188.208ZM260.752 185.915C260.752 186.788 261.3 187.182 262.6 187.182C264.054 187.182 265.474 186.429 265.474 184.427V184.136L262.6 184.547C261.248 184.735 260.752 185.009 260.752 185.915ZM271.857 188.208C269.478 188.208 268.144 186.48 268.144 183.811C268.144 181.142 269.41 179.414 271.72 179.414C273.345 179.414 274.389 180.269 274.748 181.193V176.574H275.98V188.037H274.885V186.412H274.817C274.44 187.472 273.448 188.208 271.857 188.208ZM269.376 183.811C269.376 186.395 270.385 187.147 272.062 187.147C273.739 187.147 274.748 186.275 274.748 184.547V183.092C274.748 181.347 273.739 180.475 272.062 180.475C270.402 180.475 269.376 181.227 269.376 183.811ZM281.197 188.208C278.819 188.208 277.484 186.48 277.484 183.811C277.484 181.142 278.75 179.414 281.06 179.414C282.686 179.414 283.729 180.269 284.089 181.193V176.574H285.32V188.037H284.225V186.412H284.157C283.781 187.472 282.788 188.208 281.197 188.208ZM278.716 183.811C278.716 186.395 279.726 187.147 281.402 187.147C283.079 187.147 284.089 186.275 284.089 184.547V183.092C284.089 181.347 283.079 180.475 281.402 180.475C279.743 180.475 278.716 181.227 278.716 183.811ZM290.777 188.208C288.176 188.208 286.824 186.377 286.824 183.811C286.824 181.244 288.347 179.414 290.76 179.414C292.796 179.414 294.472 180.646 294.472 183.144C294.472 183.537 294.438 183.914 294.387 184.153H287.988C288.039 186.018 288.775 187.113 290.794 187.113C292.505 187.113 293.189 186.343 293.189 185.317V185.214H294.404V185.334C294.404 186.959 292.933 188.208 290.777 188.208ZM290.725 180.475C288.843 180.475 288.09 181.552 287.988 183.263H293.309C293.377 181.262 292.385 180.475 290.725 180.475ZM299.51 188.208C297.132 188.208 295.797 186.48 295.797 183.811C295.797 181.142 297.063 179.414 299.373 179.414C300.998 179.414 302.042 180.269 302.401 181.193V176.574H303.633V188.037H302.538V186.412H302.47C302.093 187.472 301.101 188.208 299.51 188.208ZM297.029 183.811C297.029 186.395 298.038 187.147 299.715 187.147C301.392 187.147 302.401 186.275 302.401 184.547V183.092C302.401 181.347 301.392 180.475 299.715 180.475C298.056 180.475 297.029 181.227 297.029 183.811ZM311.87 188.054C310.313 188.054 309.406 187.438 309.406 185.642V180.646H307.986V179.585H309.423L309.714 177.429H310.638V179.585H313.307V180.646H310.638V185.71C310.638 186.703 311.1 186.925 312.195 186.925H313.307V187.917C313.016 187.969 312.486 188.054 311.87 188.054ZM317.916 188.208C315.435 188.208 313.809 186.377 313.809 183.811C313.809 181.244 315.435 179.414 317.916 179.414C320.379 179.414 321.953 181.244 321.953 183.811C321.953 186.377 320.379 188.208 317.916 188.208ZM317.916 187.113C319.952 187.113 320.756 185.915 320.756 183.811C320.756 181.706 319.952 180.526 317.916 180.526C315.845 180.526 315.024 181.706 315.024 183.811C315.024 185.915 315.845 187.113 317.916 187.113ZM327.864 190.946C327.453 190.946 327.008 190.877 326.769 190.826V189.834H327.727C328.497 189.834 328.753 189.68 329.061 189.012L329.54 187.917L325.913 179.585H327.248L329.232 184.29L330.122 186.36H330.225L331.063 184.29L332.928 179.585H334.263L330.139 189.389C329.592 190.672 328.787 190.946 327.864 190.946ZM338.651 188.208C336.17 188.208 334.545 186.377 334.545 183.811C334.545 181.244 336.17 179.414 338.651 179.414C341.115 179.414 342.689 181.244 342.689 183.811C342.689 186.377 341.115 188.208 338.651 188.208ZM338.651 187.113C340.687 187.113 341.491 185.915 341.491 183.811C341.491 181.706 340.687 180.526 338.651 180.526C336.581 180.526 335.76 181.706 335.76 183.811C335.76 185.915 336.581 187.113 338.651 187.113ZM347.36 188.208C345.152 188.208 344.126 186.685 344.126 184.666V179.585H345.358V184.495C345.358 186.326 346.093 187.13 347.753 187.13C349.31 187.13 350.371 186.309 350.371 184.324V179.585H351.586V188.037H350.474V186.172H350.422C350.08 187.147 349.122 188.208 347.36 188.208ZM354.749 188.037H353.517V179.482H354.63V180.902H354.715C354.989 180.115 355.81 179.414 357.059 179.414C358.804 179.414 359.472 180.663 359.472 182.117V182.596H358.24V182.305C358.24 180.988 357.829 180.475 356.614 180.475C355.297 180.475 354.749 181.073 354.749 182.442V188.037ZM364.677 188.037H363.292L366.491 183.76V183.674L363.292 179.585H364.712L367.415 183.024H367.518L370.187 179.585H371.59L368.373 183.708V183.811L371.59 188.037H370.17L367.449 184.444H367.364L364.677 188.037ZM373.764 188.037H372.532V179.585H373.644V181.33H373.696C374.021 180.44 374.91 179.414 376.656 179.414C378.195 179.414 379.119 180.149 379.496 181.347H379.547C379.889 180.44 380.762 179.414 382.507 179.414C384.68 179.414 385.672 180.817 385.672 182.836V188.037H384.458V183.127C384.458 181.296 383.842 180.492 382.131 180.492C380.522 180.492 379.718 181.279 379.718 183.161V188.037H378.503V183.127C378.503 181.296 377.905 180.492 376.194 180.492C374.585 180.492 373.764 181.279 373.764 183.161V188.037ZM389.83 188.208C388.29 188.208 387.126 187.421 387.126 186.001C387.126 184.53 388.221 183.879 390.069 183.623L393.046 183.212V182.596C393.046 181.108 392.413 180.509 390.822 180.509C389.282 180.509 388.564 181.108 388.564 182.459V182.716H387.383V182.579C387.383 180.817 388.735 179.414 390.925 179.414C393.183 179.414 394.21 180.868 394.21 182.75V188.037H393.098V186.48L393.012 186.463C392.516 187.438 391.438 188.208 389.83 188.208ZM388.324 185.915C388.324 186.788 388.872 187.182 390.172 187.182C391.626 187.182 393.046 186.429 393.046 184.427V184.136L390.172 184.547C388.82 184.735 388.324 185.009 388.324 185.915ZM397.323 188.037H396.092V179.482H397.204V180.902H397.289C397.563 180.115 398.384 179.414 399.633 179.414C401.378 179.414 402.046 180.663 402.046 182.117V182.596H400.814V182.305C400.814 180.988 400.403 180.475 399.188 180.475C397.871 180.475 397.323 181.073 397.323 182.442V188.037ZM404.492 188.037H403.26V179.482H404.372V180.902H404.457C404.731 180.115 405.552 179.414 406.801 179.414C408.547 179.414 409.214 180.663 409.214 182.117V182.596H407.982V182.305C407.982 180.988 407.571 180.475 406.356 180.475C405.039 180.475 404.492 181.073 404.492 182.442V188.037ZM416.079 188.208C414.539 188.208 413.376 187.421 413.376 186.001C413.376 184.53 414.471 183.879 416.319 183.623L419.296 183.212V182.596C419.296 181.108 418.663 180.509 417.072 180.509C415.532 180.509 414.813 181.108 414.813 182.459V182.716H413.633V182.579C413.633 180.817 414.984 179.414 417.174 179.414C419.433 179.414 420.459 180.868 420.459 182.75V188.037H419.347V186.48L419.262 186.463C418.766 187.438 417.688 188.208 416.079 188.208ZM414.574 185.915C414.574 186.788 415.121 187.182 416.421 187.182C417.876 187.182 419.296 186.429 419.296 184.427V184.136L416.421 184.547C415.07 184.735 414.574 185.009 414.574 185.915ZM425.969 188.225C423.471 188.225 421.966 186.395 421.966 183.828C421.966 181.244 423.471 179.414 425.969 179.414C428.125 179.414 429.579 180.8 429.579 182.784V182.904H428.365V182.801C428.365 181.33 427.578 180.526 425.918 180.526C423.984 180.526 423.18 181.741 423.18 183.828C423.18 185.898 423.984 187.113 425.918 187.113C427.578 187.113 428.365 186.309 428.365 184.838V184.735H429.579V184.855C429.579 186.839 428.125 188.225 425.969 188.225ZM434.825 188.225C432.327 188.225 430.821 186.395 430.821 183.828C430.821 181.244 432.327 179.414 434.825 179.414C436.981 179.414 438.435 180.8 438.435 182.784V182.904H437.22V182.801C437.22 181.33 436.433 180.526 434.774 180.526C432.84 180.526 432.036 181.741 432.036 183.828C432.036 185.898 432.84 187.113 434.774 187.113C436.433 187.113 437.22 186.309 437.22 184.838V184.735H438.435V184.855C438.435 186.839 436.981 188.225 434.825 188.225ZM443.783 188.208C441.302 188.208 439.677 186.377 439.677 183.811C439.677 181.244 441.302 179.414 443.783 179.414C446.247 179.414 447.821 181.244 447.821 183.811C447.821 186.377 446.247 188.208 443.783 188.208ZM443.783 187.113C445.819 187.113 446.623 185.915 446.623 183.811C446.623 181.706 445.819 180.526 443.783 180.526C441.713 180.526 440.892 181.706 440.892 183.811C440.892 185.915 441.713 187.113 443.783 187.113ZM452.492 188.208C450.284 188.208 449.258 186.685 449.258 184.666V179.585H450.49V184.495C450.49 186.326 451.225 187.13 452.885 187.13C454.442 187.13 455.503 186.309 455.503 184.324V179.585H456.718V188.037H455.606V186.172H455.554C455.212 187.147 454.254 188.208 452.492 188.208ZM459.881 188.037H458.649V179.585H459.762V181.33H459.813C460.138 180.44 461.096 179.414 462.841 179.414C465.014 179.414 466.007 180.817 466.007 182.853V188.037H464.792V183.127C464.792 181.296 464.193 180.492 462.465 180.492C460.788 180.492 459.881 181.279 459.881 183.161V188.037ZM470.904 188.054C469.347 188.054 468.441 187.438 468.441 185.642V180.646H467.02V179.585H468.458L468.749 177.429H469.672V179.585H472.342V180.646H469.672V185.71C469.672 186.703 470.134 186.925 471.229 186.925H472.342V187.917C472.051 187.969 471.52 188.054 470.904 188.054Z" fill="#667085"/>
<path d="M105.22 236.537H104.222V228.031H100.89V227.117H108.566V228.031H105.22V236.537ZM111.713 236.678C109.675 236.678 108.339 235.173 108.339 233.064C108.339 230.955 109.675 229.451 111.713 229.451C113.738 229.451 115.032 230.955 115.032 233.064C115.032 235.173 113.738 236.678 111.713 236.678ZM111.713 235.778C113.387 235.778 114.047 234.794 114.047 233.064C114.047 231.335 113.387 230.365 111.713 230.365C110.012 230.365 109.337 231.335 109.337 233.064C109.337 234.794 110.012 235.778 111.713 235.778ZM119.093 236.678C117.138 236.678 116.042 235.258 116.042 233.064C116.042 230.871 117.082 229.451 118.98 229.451C120.316 229.451 121.174 230.154 121.469 230.913V227.117H122.481V236.537H121.581V235.201H121.525C121.216 236.073 120.4 236.678 119.093 236.678ZM117.054 233.064C117.054 235.187 117.884 235.806 119.261 235.806C120.639 235.806 121.469 235.089 121.469 233.669V232.474C121.469 231.04 120.639 230.323 119.261 230.323C117.898 230.323 117.054 230.941 117.054 233.064ZM125.91 236.678C124.645 236.678 123.688 236.031 123.688 234.864C123.688 233.655 124.588 233.121 126.107 232.91L128.553 232.572V232.066C128.553 230.843 128.033 230.351 126.725 230.351C125.46 230.351 124.87 230.843 124.87 231.954V232.165H123.899V232.052C123.899 230.604 125.01 229.451 126.81 229.451C128.666 229.451 129.509 230.646 129.509 232.193V236.537H128.595V235.258L128.525 235.244C128.117 236.045 127.232 236.678 125.91 236.678ZM124.673 234.794C124.673 235.511 125.123 235.834 126.191 235.834C127.386 235.834 128.553 235.215 128.553 233.571V233.331L126.191 233.669C125.08 233.824 124.673 234.049 124.673 234.794ZM131.669 238.927C131.331 238.927 130.966 238.871 130.769 238.829V238.013H131.556C132.189 238.013 132.4 237.887 132.653 237.339L133.046 236.439L130.066 229.592H131.162L132.793 233.458L133.524 235.159H133.609L134.298 233.458L135.83 229.592H136.927L133.539 237.648C133.089 238.702 132.428 238.927 131.669 238.927ZM142.879 236.537H141.867V229.043H140.025V228.284H140.348C141.234 228.284 141.712 227.961 142.05 227.117H142.879V236.537ZM147.983 236.678C145.663 236.678 144.271 235.694 144.271 233.992C144.271 232.727 145.044 231.897 146.211 231.602V231.546C145.143 231.335 144.538 230.505 144.538 229.437C144.538 228.003 145.761 226.977 147.983 226.977C150.232 226.977 151.441 228.003 151.441 229.437C151.441 230.505 150.837 231.335 149.782 231.546V231.602C150.949 231.897 151.723 232.727 151.723 233.992C151.723 235.694 150.317 236.678 147.983 236.678ZM147.983 231.265C149.768 231.265 150.429 230.702 150.429 229.563C150.429 228.523 149.853 227.904 147.983 227.904C146.141 227.904 145.55 228.523 145.55 229.563C145.55 230.702 146.225 231.265 147.983 231.265ZM147.983 235.75C150.05 235.75 150.696 235.089 150.696 233.866C150.696 232.629 150.021 231.982 147.983 231.982C145.958 231.982 145.297 232.629 145.297 233.866C145.297 235.089 145.944 235.75 147.983 235.75ZM154.089 231.546H152.852V229.592H154.089V231.546ZM154.089 236.537H152.852V234.583H154.089V236.537ZM159.263 236.678C156.915 236.678 155.369 234.85 155.369 231.827C155.369 228.804 156.915 226.977 159.263 226.977C161.625 226.977 163.158 228.804 163.158 231.827C163.158 234.85 161.625 236.678 159.263 236.678ZM159.263 235.708C161.119 235.708 162.103 234.527 162.103 231.827C162.103 229.128 161.119 227.947 159.263 227.947C157.421 227.947 156.437 229.128 156.437 231.827C156.437 234.527 157.421 235.708 159.263 235.708ZM168.586 236.678C166.238 236.678 164.691 234.85 164.691 231.827C164.691 228.804 166.238 226.977 168.586 226.977C170.948 226.977 172.48 228.804 172.48 231.827C172.48 234.85 170.948 236.678 168.586 236.678ZM168.586 235.708C170.442 235.708 171.426 234.527 171.426 231.827C171.426 229.128 170.442 227.947 168.586 227.947C166.744 227.947 165.76 229.128 165.76 231.827C165.76 234.527 166.744 235.708 168.586 235.708Z" fill="#838383"/>
<path d="M432.853 236.537H431.517L427.82 227.117H428.944L432.178 235.412H432.248L435.454 227.117H436.551L432.853 236.537ZM438.29 228.664H437.292V227.117H438.29V228.664ZM438.29 236.537H437.292V229.507H438.29V236.537ZM442.717 236.678C440.58 236.678 439.469 235.173 439.469 233.064C439.469 230.955 440.721 229.451 442.703 229.451C444.376 229.451 445.754 230.463 445.754 232.516C445.754 232.839 445.726 233.149 445.684 233.346H440.426C440.468 234.878 441.072 235.778 442.731 235.778C444.137 235.778 444.7 235.145 444.7 234.302V234.217H445.698V234.316C445.698 235.651 444.489 236.678 442.717 236.678ZM442.675 230.323C441.129 230.323 440.51 231.208 440.426 232.614H444.798C444.854 230.969 444.039 230.323 442.675 230.323ZM449.269 236.537H447.948L446.162 229.592H447.231L448.327 234.119L448.609 235.623H448.693L449.157 234.119L450.746 229.592H452.081L453.698 234.119L454.134 235.623H454.218L454.5 234.119L455.596 229.592H456.637L454.851 236.537H453.529L451.969 232.15L451.449 230.505H451.364L450.844 232.15L449.269 236.537Z" fill="#D94A26"/>
<path fill-rule="evenodd" clip-rule="evenodd" d="M470.216 232.234L464.892 237.558L463.916 236.581L468.263 232.234L463.916 227.888L464.892 226.91L470.216 232.234Z" fill="#D94A26"/>
<line opacity="0.09" x1="98" y1="208.72" x2="470.582" y2="208.72" stroke="black" strokeWidth="1.23101"/>
<defs>
<filter id="filter0_d_96_37163" x="39.2444" y="50.2143" width="487.068" height="315.5" filterUnits="userSpaceOnUse" color-interpolation-filters="sRGB">
<feFlood flood-opacity="0" result="BackgroundImageFix"/>
<feColorMatrix in="SourceAlpha" type="matrix" values="0 0 0 0 0 0 0 0 0 0 0 0 0 0 0 0 0 0 127 0" result="hardAlpha"/>
<feOffset dx="-2.30292" dy="2.30292"/>
<feGaussianBlur stdDeviation="40.3012"/>
<feComposite in2="hardAlpha" operator="out"/>
<feColorMatrix type="matrix" values="0 0 0 0 0.544872 0 0 0 0 0.540506 0 0 0 0 0.540506 0 0 0 0.25 0"/>
<feBlend mode="normal" in2="BackgroundImageFix" result="effect1_dropShadow_96_37163"/>
<feBlend mode="normal" in="SourceGraphic" in2="effect1_dropShadow_96_37163" result="shape"/>
</filter>
<filter id="filter1_d_96_37163" x="16.2151" y="31.7905" width="534.278" height="322.41" filterUnits="userSpaceOnUse" color-interpolation-filters="sRGB">
<feFlood flood-opacity="0" result="BackgroundImageFix"/>
<feColorMatrix in="SourceAlpha" type="matrix" values="0 0 0 0 0 0 0 0 0 0 0 0 0 0 0 0 0 0 127 0" result="hardAlpha"/>
<feOffset dx="-2.30292" dy="2.30292"/>
<feGaussianBlur stdDeviation="40.3012"/>
<feComposite in2="hardAlpha" operator="out"/>
<feColorMatrix type="matrix" values="0 0 0 0 0.544872 0 0 0 0 0.540506 0 0 0 0 0.540506 0 0 0 0.25 0"/>
<feBlend mode="normal" in2="BackgroundImageFix" result="effect1_dropShadow_96_37163"/>
<feBlend mode="normal" in="SourceGraphic" in2="effect1_dropShadow_96_37163" result="shape"/>
</filter>
<filter id="filter2_d_96_37163" x="0.0947745" y="0.70062" width="566.519" height="340.834" filterUnits="userSpaceOnUse" color-interpolation-filters="sRGB">
<feFlood flood-opacity="0" result="BackgroundImageFix"/>
<feColorMatrix in="SourceAlpha" type="matrix" values="0 0 0 0 0 0 0 0 0 0 0 0 0 0 0 0 0 0 127 0" result="hardAlpha"/>
<feOffset dx="-2.30292" dy="2.30292"/>
<feGaussianBlur stdDeviation="40.3012"/>
<feComposite in2="hardAlpha" operator="out"/>
<feColorMatrix type="matrix" values="0 0 0 0 0.544872 0 0 0 0 0.540506 0 0 0 0 0.540506 0 0 0 0.25 0"/>
<feBlend mode="normal" in2="BackgroundImageFix" result="effect1_dropShadow_96_37163"/>
<feBlend mode="normal" in="SourceGraphic" in2="effect1_dropShadow_96_37163" result="shape"/>
</filter>
<clipPath id="clip0_96_37163">
<rect width="23.4248" height="23.4248" fill="white" transform="translate(109.712 102.715)"/>
</clipPath>
</defs>
</svg>
