<svg width="116" height="83" viewBox="0 0 116 83" fill="none" xmlns="http://www.w3.org/2000/svg">
<path fill-rule="evenodd" clip-rule="evenodd" d="M64.9995 81.7274V42.0977H63.0476V81.7274H64.9995ZM102.937 81.7274V42.0977H100.985V81.7274H102.937Z" fill="#BABEC2"/>
<path fill-rule="evenodd" clip-rule="evenodd" d="M64.9995 45.5179L63.0476 45.5598V42.0977H64.9995V45.5179ZM102.937 42.2246V44.699L100.985 44.7409V42.2179L102.937 42.2246Z" fill="black"/>
<path d="M111.676 41.2393H54.4734V42.7378H111.676V41.2393Z" fill="#BABEC2"/>
<path fill-rule="evenodd" clip-rule="evenodd" d="M55.2744 41.2951C55.9779 38.3349 58.4292 36.1475 61.3415 36.1475C64.2539 36.1475 66.7052 38.3349 67.4086 41.2951H55.2744Z" fill="#B9D8D6"/>
<path fill-rule="evenodd" clip-rule="evenodd" d="M65.2368 41.2952C64.269 39.0348 62.7442 38.5752 62.7442 38.5752C62.6154 38.5379 62.5407 38.4031 62.5777 38.2742C62.6154 38.1454 62.7503 38.071 62.8791 38.1082C62.8791 38.1082 64.6991 38.614 65.7635 41.2952H65.2368Z" fill="#82B5B2"/>
<path fill-rule="evenodd" clip-rule="evenodd" d="M67.2467 41.2946C67.4272 44.9002 67.8567 50.5785 68.9137 53.5801C69.1464 54.2405 69.4058 54.7672 69.7065 55.0995C69.9519 55.3717 70.2217 55.5029 70.5297 55.416C70.8267 55.3322 71.1335 55.1153 71.4203 54.8273C71.4069 54.8079 71.3942 54.7885 71.3814 54.7684C71.006 54.1828 70.8073 53.2636 70.8237 52.4581C70.8322 52.0176 70.9057 51.6112 71.0412 51.3081C71.1615 51.0383 71.3334 50.8446 71.5436 50.748C71.7623 50.6471 72.0296 50.6416 72.3455 50.7947C73.1225 51.1708 73.2914 52.0128 73.0563 52.9344C72.8892 53.5868 72.5217 54.2769 72.0727 54.8273C72.1426 54.8796 72.2179 54.9178 72.2993 54.9385C72.4998 54.9889 72.7264 54.9215 72.9852 54.7265C73.1996 54.5655 73.3807 54.2751 73.5453 53.8954C73.8169 53.2691 74.0295 52.4107 74.199 51.4338C74.8715 47.561 74.8527 41.8651 74.8812 41.1883C74.8867 41.0547 75.0003 40.9502 75.1345 40.9556C75.2682 40.9617 75.3727 41.0753 75.3666 41.209C75.338 41.89 75.3545 47.6205 74.6777 51.5171C74.5003 52.5377 74.2749 53.4343 73.9912 54.0886C73.7859 54.5625 73.5447 54.9142 73.2774 55.1153C72.8673 55.4233 72.498 55.4895 72.1809 55.4099C72.026 55.371 71.8802 55.2951 71.7471 55.1876C71.3984 55.5326 71.0205 55.7823 70.6621 55.8838C70.1749 56.0211 69.7338 55.8552 69.3457 55.4251C69.0121 55.0557 68.7139 54.4756 68.4551 53.7417C67.384 50.6994 66.943 44.9384 66.7601 41.2946H67.2467ZM71.7544 54.4476C72.1335 53.9647 72.4421 53.3742 72.5849 52.8141C72.7568 52.1416 72.7009 51.5067 72.1341 51.2321C71.9804 51.158 71.8528 51.1404 71.7465 51.1896C71.6323 51.2425 71.5509 51.3585 71.4847 51.5061C71.3717 51.7594 71.317 52.0997 71.3097 52.4678C71.2957 53.1512 71.4482 53.9301 71.7544 54.4476ZM67.093 40.2959C67.1593 40.3366 67.2054 40.4083 67.2091 40.4921L67.2151 40.6276C67.1769 40.5158 67.1362 40.4046 67.093 40.2959Z" fill="#82B5B2"/>
<path d="M84.1466 66.0425C86.8703 66.0425 89.0784 63.172 89.0784 59.6311C89.0784 56.0902 86.8703 53.2197 84.1466 53.2197C81.4229 53.2197 79.2148 56.0902 79.2148 59.6311C79.2148 63.172 81.4229 66.0425 84.1466 66.0425Z" fill="white"/>
<path fill-rule="evenodd" clip-rule="evenodd" d="M84.1784 52.5156V53.6267C81.5624 53.6778 79.5141 56.3793 79.5141 59.6368C79.5141 62.8936 81.5624 65.5951 84.1784 65.6462V66.7579C81.0181 66.7081 78.4026 63.5649 78.4026 59.6368C78.4026 55.708 81.0181 52.5648 84.1784 52.5156Z" fill="black"/>
<path fill-rule="evenodd" clip-rule="evenodd" d="M84.1777 52.5151L84.2561 52.5127C87.451 52.5127 90.11 55.6753 90.11 59.6363C90.11 63.5972 87.451 66.7598 84.2561 66.7598L84.1777 66.7574V65.6457L84.2561 65.6487C86.9097 65.6487 88.9983 62.9259 88.9983 59.6363C88.9983 56.3466 86.9097 53.6238 84.2561 53.6238L84.1777 53.6262V52.5151Z" fill="black"/>
<path fill-rule="evenodd" clip-rule="evenodd" d="M84.3063 59.489C84.5858 59.489 84.813 59.7156 84.813 59.9957C84.813 60.2751 84.5858 60.5023 84.3063 60.5023C84.0263 60.5023 83.799 60.2751 83.799 59.9957C83.799 59.7156 84.0263 59.489 84.3063 59.489ZM85.1769 58.8244L86.8827 55.5214C86.9441 55.4024 86.8973 55.2553 86.7782 55.194C86.6586 55.1326 86.5122 55.1794 86.4508 55.2985L84.7449 58.6015C84.683 58.7205 84.7297 58.8676 84.8494 58.9289C84.9685 58.9903 85.1149 58.9435 85.1769 58.8244ZM82.9151 56.1052L83.5639 58.6653C83.5968 58.7953 83.7286 58.8736 83.8592 58.8408C83.9892 58.808 84.0676 58.6756 84.0348 58.5456L83.3866 55.9862C83.3538 55.8556 83.2213 55.7772 83.0913 55.81C82.9613 55.8428 82.8823 55.9752 82.9151 56.1052Z" fill="black"/>
<path d="M114.739 56.2423L108.05 52.8076L103.529 61.6123L110.218 65.047L114.739 56.2423Z" fill="#A8CFCC"/>
<path fill-rule="evenodd" clip-rule="evenodd" d="M110.06 63.8892L111.196 64.4718C111.316 64.5331 111.462 64.4858 111.524 64.3667C111.585 64.247 111.538 64.1006 111.418 64.0392L110.282 63.4567C110.162 63.3959 110.016 63.4427 109.954 63.5624C109.894 63.6814 109.94 63.8284 110.06 63.8892ZM110.763 62.5181L111.9 63.1001C112.019 63.1614 112.166 63.114 112.227 62.995C112.288 62.8759 112.24 62.7289 112.121 62.6681L110.985 62.0855C110.866 62.0242 110.719 62.0715 110.658 62.1906C110.597 62.3097 110.644 62.4567 110.763 62.5181ZM111.467 61.1463L112.603 61.7289C112.722 61.7897 112.869 61.7429 112.93 61.6232C112.991 61.5041 112.944 61.3577 112.824 61.2964L111.688 60.7138C111.569 60.6524 111.422 60.6998 111.361 60.8189C111.3 60.9386 111.347 61.085 111.467 61.1463ZM112.17 59.7746L113.306 60.3572C113.425 60.4185 113.572 60.3712 113.633 60.2515C113.694 60.1324 113.647 59.986 113.528 59.9246L112.391 59.3421C112.272 59.2807 112.126 59.3281 112.064 59.4471C112.003 59.5668 112.05 59.7132 112.17 59.7746ZM112.873 58.4029L114.01 58.9854C114.129 59.0468 114.275 58.9994 114.336 58.8797C114.398 58.7607 114.35 58.6143 114.231 58.5529L113.095 57.9703C112.976 57.909 112.829 57.9563 112.768 58.0754C112.706 58.1951 112.754 58.3415 112.873 58.4029ZM113.557 57.0682L114.694 57.6508C114.813 57.7121 114.959 57.6647 115.02 57.5457C115.082 57.4266 115.034 57.2796 114.915 57.2188L113.779 56.6362C113.66 56.5749 113.513 56.6223 113.452 56.7413C113.39 56.8604 113.438 57.0074 113.557 57.0682Z" fill="black"/>
<path fill-rule="evenodd" clip-rule="evenodd" d="M92.7669 54.204L103.07 56.649L102.522 58.1854L92.7669 54.204Z" fill="white"/>
<path d="M103.296 57.7388L92.5485 53.9033L87.6708 67.5713L98.4186 71.4068L103.296 57.7388Z" fill="#F27F71"/>
<path fill-rule="evenodd" clip-rule="evenodd" d="M102.589 56.7515L92.7112 54.4636C92.5806 54.4332 92.4992 54.3026 92.529 54.1714C92.5593 54.0408 92.69 53.9594 92.8206 53.9898L102.96 56.3384C103.027 56.3542 103.084 56.3973 103.117 56.4568C103.151 56.517 103.157 56.588 103.135 56.6537L102.582 58.2805C102.539 58.4075 102.401 58.4756 102.274 58.4324C102.147 58.3893 102.079 58.2508 102.122 58.1238L102.589 56.7515Z" fill="#F27F71"/>
<path d="M111.256 58.2656H97.757V74.399H111.256V58.2656Z" fill="white"/>
<path fill-rule="evenodd" clip-rule="evenodd" d="M110.029 72.5631H98.8701V73.2848H110.029V72.5631ZM110.029 71.2405H98.8701V71.9622H110.029V71.2405ZM110.029 69.918H98.8701V70.6397H110.029V69.918ZM110.029 68.5955H98.8701V69.3172H110.029V68.5955ZM110.029 67.2729H98.8701V67.9947H110.029V67.2729ZM110.029 65.9504H98.8701V66.6721H110.029V65.9504ZM110.029 64.6279H98.8701V65.3496H110.029V64.6279ZM110.029 63.3054H98.8701V64.0271H110.029V63.3054ZM110.029 61.9828H98.8701V62.7045H110.029V61.9828ZM110.029 60.6603H98.8701V61.382H110.029V60.6603ZM110.029 59.3359H98.8701V60.0576H110.029V59.3359Z" fill="black"/>
<path fill-rule="evenodd" clip-rule="evenodd" d="M97.9981 74.1559H104.552C104.685 74.1559 104.795 74.2646 104.795 74.3989C104.795 74.5331 104.685 74.6419 104.552 74.6419H97.7551C97.6208 74.6419 97.5121 74.5331 97.5121 74.3989V58.2655C97.5121 58.1312 97.6208 58.0225 97.7551 58.0225H104.209C104.342 58.0225 104.452 58.1312 104.452 58.2655C104.452 58.3997 104.342 58.5085 104.209 58.5085H97.9981V74.1559Z" fill="black"/>
<path fill-rule="evenodd" clip-rule="evenodd" d="M111.013 58.5085H104.21C104.076 58.5085 103.967 58.3997 103.967 58.2655C103.967 58.1312 104.076 58.0225 104.21 58.0225H111.256C111.39 58.0225 111.499 58.1312 111.499 58.2655V74.3989C111.499 74.5331 111.39 74.6419 111.256 74.6419H104.554C104.419 74.6419 104.311 74.5331 104.311 74.3989C104.311 74.2646 104.419 74.1559 104.554 74.1559H111.013V58.5085Z" fill="black"/>
<path d="M113.665 60.4443H77.5859V82.0044H113.665V60.4443Z" fill="#FFD798"/>
<path fill-rule="evenodd" clip-rule="evenodd" d="M99.7006 60.4453V70.0912L98.5633 69.1964L97.4978 70.0912L96.4164 69.1964L95.3837 70.0912L94.4342 69.1964L93.4391 70.0912V60.4453H99.7006Z" fill="#F8BB61"/>
<path d="M21.1834 14.1558C23.997 14.1558 26.2779 11.8749 26.2779 9.06131C26.2779 6.24769 23.997 3.9668 21.1834 3.9668C18.3698 3.9668 16.0889 6.24769 16.0889 9.06131C16.0889 11.8749 18.3698 14.1558 21.1834 14.1558Z" fill="#FFC3BB"/>
<path fill-rule="evenodd" clip-rule="evenodd" d="M18.3897 13.3212C17.0041 12.41 16.0889 10.8417 16.0889 9.0613C16.0889 6.24961 18.3717 3.9668 21.1834 3.9668C21.8174 3.9668 22.4246 4.08289 22.985 4.29503L20.3229 9.52392C20.1243 9.18675 19.7487 8.95918 19.3186 8.95918C18.6813 8.95918 18.164 9.45861 18.164 10.0738C18.164 10.689 18.6813 11.1885 19.3186 11.1885C19.3737 11.1885 19.4281 11.1847 19.4811 11.1775L18.3897 13.3212Z" fill="black"/>
<path fill-rule="evenodd" clip-rule="evenodd" d="M20.0166 4.54281C20.0166 4.54281 19.2957 6.4645 19.3232 7.27678C19.3378 7.70994 19.7015 8.04979 20.1346 8.03516C20.5679 8.02052 20.9077 7.65689 20.893 7.22373C20.8656 6.41145 20.0166 4.54281 20.0166 4.54281Z" fill="white"/>
<path fill-rule="evenodd" clip-rule="evenodd" d="M19.8038 65.7185C17.1706 65.9506 13.9163 65.964 10.0913 65.4737C7.49281 65.1408 -1.18334 62.4143 1.0081 51.0778C1.44131 48.8367 3.62181 43.2981 12.89 42.8164C15.595 42.6754 34.4972 40.5006 42.0697 48.847C42.218 49.011 42.4093 49.2297 42.6244 49.5122C45.1959 50.6792 52.6311 54.7082 52.3474 62.1841C52.3474 62.1841 51.76 70.5579 40.893 74.1677C40.0899 75.9665 39.147 77.8862 38.0456 79.9304C38.0456 79.9304 40.5218 80.5926 41.1494 81.9844H22.0426L23.1864 78.3643L21.9979 78.645C21.9866 79.9037 20.8087 81.16 19.8038 82.0664V65.7185Z" fill="url(#paint0_linear_96_14375)"/>
<path fill-rule="evenodd" clip-rule="evenodd" d="M22.3324 78.5672L23.3887 65.1924C23.3993 65.0588 23.5164 64.9592 23.6501 64.9695C23.7838 64.9798 23.8838 65.0971 23.8732 65.2307L22.8292 78.4499L22.3324 78.5672Z" fill="#F27F71"/>
<path fill-rule="evenodd" clip-rule="evenodd" d="M25.5378 64.5611L27.8722 64.1091C27.8722 64.1091 28.7298 61.3413 29.3182 59.4416C29.3539 59.3262 29.2986 59.2023 29.189 59.1519C29.0795 59.1014 28.9494 59.1403 28.8852 59.2424C27.6106 61.2678 25.5378 64.5611 25.5378 64.5611Z" fill="#F27F71"/>
<path fill-rule="evenodd" clip-rule="evenodd" d="M19.8026 65.7185C19.2154 65.7702 24.5194 64.7313 27.6095 63.8025C27.8027 63.7442 28.024 63.7113 28.024 63.7113C28.024 63.7113 27.9372 64.0248 27.9091 64.1105L24.1855 75.5108L40.3798 75.2909C40.3038 75.4531 40.2273 75.6159 40.1495 75.78L24.065 75.9987C24.0521 75.9987 24.0394 75.9975 24.027 75.9956L23.1853 78.3643L22.705 78.4779L27.3041 64.3978C24.8754 65.1025 22.4203 65.7161 19.8026 66.0988V65.7185ZM40.9004 74.1646C48.1309 58.8076 42.4884 49.3348 42.6233 49.5122C42.8092 49.5967 43.0212 49.6963 43.2545 49.8111C44.7495 52.721 47.5568 60.8622 41.5401 73.9423C41.3317 74.0182 41.1179 74.0923 40.9004 74.1646Z" fill="#F27F71"/>
<path fill-rule="evenodd" clip-rule="evenodd" d="M15.3902 15.4625C26.6309 15.5824 34.6522 17.1152 44.0284 17.8766C46.8611 18.1067 53.3517 19.731 51.8335 25.5625C51.2576 27.775 49.2517 29.3131 46.9656 29.2954C43.0047 29.2648 37.5943 29.223 37.5943 29.223C37.5943 29.223 41.8857 32.8738 50.8202 33.0033C50.8202 33.0033 60.6696 33.8382 61.593 33.8756C63.2248 33.9417 64.201 33.9669 65.0965 34.0182C65.2891 34.0296 65.4592 34.1474 65.5376 34.3236C65.6159 34.4998 65.5898 34.7051 65.4695 34.8558C65.2836 35.0871 64.9094 35.3485 64.2065 35.613C62.9235 36.0959 61.9193 36.1378 60.9327 36.4284C61.0068 36.2634 62.5347 37.7025 63.4295 38.6263C63.6075 38.8126 63.6713 39.0802 63.5972 39.3269C63.5225 39.5734 63.3208 39.7609 63.0693 39.8174C62.8761 39.8613 62.6428 39.8709 62.364 39.8214C62.8949 40.3391 62.2747 41.1975 60.604 40.3543C60.1654 40.1332 60.0142 40.0718 58.886 39.3746C58.886 39.3746 59.2463 40.022 59.4577 40.4023C59.5136 40.5032 59.5257 40.6228 59.4899 40.7328C59.4546 40.8428 59.3751 40.9333 59.2706 40.9825C59.0385 41.0906 58.6722 41.1253 58.1279 40.8403C57.3004 40.4084 56.7379 40.1709 56.2215 39.9582C55.7452 39.7623 55.204 39.8069 54.7666 40.0779C52.9629 41.1915 47.3301 43.7831 36.6636 41.3488C36.6636 41.3488 30.2732 40.5038 21.9172 35.0974C21.6949 34.2169 11.3077 46.4713 2.09382 36.1368C-1.53533 32.0662 -2.28602 15.2739 15.3902 15.4625Z" fill="#FFC3BB"/>
<path fill-rule="evenodd" clip-rule="evenodd" d="M58.9007 39.3985C57.2738 37.2403 56.1262 37.1914 56.1262 37.1914C55.9926 37.1893 55.8851 37.0787 55.8875 36.9446C55.8893 36.8104 55.9999 36.7033 56.1341 36.7055C56.1341 36.7055 57.6851 36.6936 59.7202 39.712C59.7585 39.7694 59.7694 39.8375 59.7561 39.9001C59.5477 39.7785 59.2749 39.6139 58.8867 39.3742L58.9007 39.3985ZM62.3647 39.8209C62.3829 39.8388 60.1394 37.8841 59.8575 37.5774C58.8977 36.5317 58.1954 36.0424 57.73 35.818C57.3819 35.65 57.162 35.6467 57.1535 35.6466C57.1566 35.6463 57.1596 35.6459 57.162 35.6454L57.1535 35.6466C57.0247 35.6633 56.9044 35.5745 56.8832 35.445C56.8613 35.3127 56.9512 35.1876 57.0837 35.1658C57.0837 35.1658 58.1061 34.952 60.2159 37.2486C60.5294 37.5902 62.0627 39.0427 63.1253 39.8022C63.107 39.8078 63.0888 39.8127 63.07 39.8169C62.8768 39.8608 62.6435 39.8705 62.3647 39.8209ZM57.8552 33.5889C58.3011 33.6253 58.7312 33.66 59.1315 33.6921C59.4766 33.9388 59.8302 34.2716 60.1503 34.7203C60.3733 35.0329 60.8089 35.6676 61.5871 36.2655C61.3878 36.308 61.191 36.3543 60.9954 36.4099C60.3465 35.8484 59.9632 35.2947 59.7548 35.0025C59.1285 34.1244 58.3594 33.7485 57.8552 33.5889Z" fill="#F27F71"/>
<path fill-rule="evenodd" clip-rule="evenodd" d="M34.5838 40.9005C32.0448 40.2316 27.4045 38.6484 21.9163 35.0975C21.8156 34.353 11.1527 46.8394 2.09288 36.1368C-1.48087 31.9151 -2.28696 15.274 15.3893 15.4625C26.6299 15.5824 34.6512 17.1152 44.0274 17.8766C46.8602 18.1067 53.3507 19.731 51.8326 25.5625C51.2567 27.7751 49.2507 29.3131 46.9647 29.2955C43.0038 29.2648 37.5934 29.223 37.5934 29.223C37.5934 29.223 40.6503 31.8236 46.975 32.7128L45.5559 42.3518C43.9569 42.3858 42.1466 42.2874 40.1145 41.9946C38.4408 41.6623 36.5217 41.282 34.5838 40.9005Z" fill="url(#paint1_linear_96_14375)"/>
<path fill-rule="evenodd" clip-rule="evenodd" d="M20.247 36.2964C18.87 34.647 18.1521 32.8238 17.83 31.8145C17.8062 31.7299 17.8438 31.6401 17.9207 31.5977C17.9976 31.5553 18.0936 31.5714 18.1524 31.6367C19.6811 33.2882 21.5772 34.8265 21.8752 35.0656C21.7222 35.0754 21.1449 35.5889 20.247 36.2964ZM37.6008 29.23L37.6014 29.2307L37.6038 29.2327L37.6081 29.2362L37.6105 29.2381L37.6123 29.2399L37.6154 29.2424L37.6202 29.246L37.6245 29.2495L37.6281 29.2526L37.6312 29.2552L37.6354 29.2586L37.6427 29.2642L37.6482 29.2688L37.6512 29.271L37.6549 29.2737L37.6658 29.2823L37.6731 29.2882L37.6749 29.2898L37.6773 29.2915L37.6956 29.3059L37.7022 29.3109L37.7029 29.3114C37.7126 29.3189 37.7229 29.3269 37.7338 29.3353L37.7363 29.3367L37.7466 29.3447L37.7654 29.3591L37.7697 29.3621C37.7794 29.3695 37.7903 29.3772 37.8007 29.3852L37.8025 29.3862L37.8043 29.3878C37.8292 29.406 37.8559 29.4257 37.8845 29.4465L37.89 29.4501L37.9021 29.4591L37.9088 29.4637L37.9106 29.4652L37.9161 29.4691L37.927 29.4766L37.9325 29.4808L37.9361 29.4833L37.944 29.4887L37.9525 29.495L37.9574 29.4983L37.9623 29.5019L37.9726 29.509L37.9799 29.5141L37.9829 29.5164L37.9896 29.5209L38.0023 29.5299L38.0078 29.5337L38.0096 29.5349L38.0163 29.5397L38.0333 29.5514L38.037 29.5539C35.1866 27.7637 30.0921 23.9715 26.7359 21.367C26.6034 21.2642 26.5793 21.0732 26.6821 20.9408C26.7849 20.8084 26.9758 20.7843 27.1083 20.8871C30.5792 23.5806 35.9198 27.5563 38.6682 29.2316L37.5923 29.2232L37.599 29.229L37.6008 29.23ZM39.1135 20.0673L47.4806 20.3048C47.6476 20.3096 47.788 20.1774 47.7928 20.0098C47.7971 19.8422 47.6653 19.7023 47.4976 19.6976L39.1305 19.4601C38.9628 19.4553 38.8231 19.5875 38.8182 19.7551C38.8134 19.9226 38.9458 20.0625 39.1135 20.0673Z" fill="#AC2310"/>
<path fill-rule="evenodd" clip-rule="evenodd" d="M30.6601 20.9947C29.4367 18.1913 23.6913 15.8096 23.6913 15.8096L26.0214 15.9979C28.6124 17.1752 30.525 19.222 31.2773 20.1141C31.5641 20.1526 32.2777 20.2614 32.2894 20.393C32.304 20.5577 32.4035 23.3241 32.4035 23.3241C32.3943 23.3286 32.3853 23.333 32.3763 23.3373L32.4566 23.3425C33.892 25.999 33.3697 29.7645 35.4184 32.0276C36.0672 32.7442 36.9159 33.4176 37.8442 33.7259C38.9225 34.0841 40.0421 34.0677 41.1611 34.0019C41.457 33.9845 42.1757 33.9322 42.5371 33.9055C42.6714 33.8957 42.8008 33.9556 42.8804 34.0641C43.1902 34.487 43.983 35.5698 44.3687 36.0961C44.4939 36.2667 44.4769 36.5029 44.3286 36.6538C43.7971 37.195 42.593 38.4209 42.1836 38.8371C42.0949 38.9275 41.9679 38.969 41.8428 38.9483C41.6058 38.9118 41.2286 38.8505 41.087 38.8097C40.2639 38.572 39.4522 38.2932 38.6607 37.9651C36.3959 37.0269 34.0014 35.548 33.0152 33.2099C32.4391 31.8442 32.3519 30.3866 32.3583 28.9244C32.3638 27.6354 32.5145 26.279 32.2454 25.0066C32.1408 24.5117 31.9083 24.0483 31.6789 23.6014C31.6736 23.5911 31.6524 23.5567 31.6256 23.5118C30.5456 23.473 30.0466 22.0939 30.0466 22.0939L30.6601 20.9947Z" fill="black"/>
<path fill-rule="evenodd" clip-rule="evenodd" d="M41.5754 29.2357L39.3817 19.4735C39.3817 19.4735 37.298 19.3495 36.0611 19.1266C36.0611 19.1266 33.027 18.14 30.8971 18.842C30.5508 18.9561 29.4813 19.5413 28.753 20.9473C28.4488 21.5343 29.4513 21.9154 30.6073 20.9473C30.8436 20.7494 31.2975 20.5198 31.7696 20.4804C31.7696 20.4804 30.2948 21.6344 31.7696 22.6028C31.7696 22.6028 31.467 23.6306 32.7453 23.8447C32.7453 23.8447 32.5551 25.3813 34.9008 26.8632C35.5727 27.2879 40.7893 29.4063 41.5754 29.2357Z" fill="#FFC3BB"/>
<path fill-rule="evenodd" clip-rule="evenodd" d="M32.3292 23.7265C32.5241 23.1644 32.9531 22.8285 33.3668 22.6319C33.8453 22.4046 34.2984 22.3685 34.2984 22.3685C34.432 22.3575 34.5493 22.4571 34.5602 22.5908C34.5711 22.7245 34.4715 22.8419 34.3379 22.8529C34.3379 22.8529 33.9702 22.8904 33.5754 23.0709C32.9597 23.3524 32.7455 23.8445 32.7455 23.8445C32.5822 23.8172 32.4448 23.7766 32.3292 23.7265ZM31.4181 22.315C31.6822 21.8565 32.0926 21.56 32.5083 21.3719C33.19 21.0633 33.8791 21.0503 33.8791 21.0503C34.0131 21.0476 34.1242 21.1543 34.1269 21.2883C34.1295 21.4225 34.0229 21.5335 33.8888 21.5362C33.8888 21.5362 33.2957 21.5488 32.7087 21.8146C32.3357 21.9834 31.7698 22.6027 31.7698 22.6027C31.6259 22.5081 31.5101 22.4119 31.4181 22.315ZM30.9341 20.7335C30.9385 20.6923 30.9534 20.6517 30.9796 20.6159C31.7333 19.5861 33.3868 19.5197 33.3868 19.5197C33.5209 19.5153 33.6333 19.6206 33.6376 19.7546C33.642 19.8887 33.5367 20.001 33.4027 20.0054C33.4027 20.0054 32.8905 20.023 32.3409 20.2272C32.0272 20.3437 31.7698 20.4802 31.7698 20.4802C31.466 20.5056 31.1697 20.6097 30.9341 20.7335Z" fill="#F27F71"/>
<path fill-rule="evenodd" clip-rule="evenodd" d="M15.793 15.4619C15.793 15.4619 18.1981 15.6031 21.6469 17.6148C22.7201 18.2408 25.3443 19.9819 28.5299 20.9596C29.7398 21.3309 30.3266 21.0555 30.735 21.178L30.2805 22.2614C30.2805 22.2614 28.2461 22.0503 27.4807 21.774C27.4807 21.774 17.8545 15.7141 15.793 15.4619Z" fill="black"/>
<path d="M25.0679 65.7373H2.27942V82.0038H25.0679V65.7373Z" fill="#FFD798"/>
<path fill-rule="evenodd" clip-rule="evenodd" d="M6.71518 82.0044H6.22918V65.7373H6.71518V82.0044ZM17.3852 65.7373V74.1725L15.979 73.1701L14.5896 74.1725V65.7373H17.3852ZM5.39879 65.7373V71.3719L4.28566 69.6763L3.52148 70.3932V65.7373H5.39879Z" fill="#F8BB61"/>
<path fill-rule="evenodd" clip-rule="evenodd" d="M84.1806 33.0121H68.4567V7.61035H106.629V33.0121H90.1062V39.5528H92.2434V41.2945H82.061V39.5528H84.1806V33.0121Z" fill="#A3A8AE"/>
<path fill-rule="evenodd" clip-rule="evenodd" d="M105.622 7.61035V33.0121H89.0989V39.5528H91.2361V41.2945H82.061V39.5528H84.1806V33.0121H68.4567V7.61035H105.622Z" fill="#E4E4E6"/>
<path d="M103.861 9.55273H70.3557V30.4537H103.861V9.55273Z" fill="white"/>
<path fill-rule="evenodd" clip-rule="evenodd" d="M89.1069 39.4997H89.9295C89.8864 39.5376 89.8299 39.5606 89.7685 39.5606L84.1886 39.4997V39.0746H89.1069V39.4997ZM89.1069 33.5016H84.1886V33.0156H89.1069V33.5016Z" fill="#A3A8AE"/>
<path fill-rule="evenodd" clip-rule="evenodd" d="M85.9001 27.6447L84.4568 26.7114L85.4937 25.1078L84.1535 24.2412L88.882 21.4507L88.2773 26.9078L86.937 26.0412L85.9001 27.6447Z" fill="#E44A19"/>
<path d="M74.1807 19.9707H73.3856L75.2221 15.2562H76.3128L78.1493 19.9707H77.3261L76.8476 18.7463H74.6592L74.1807 19.9707ZM75.4192 16.8183L74.9266 18.0638H76.5802L76.0876 16.8183L75.7851 15.9458H75.7288L75.4192 16.8183ZM79.3983 21.188H78.6454V16.4735H79.335V17.0505H79.3702C79.532 16.6424 79.9331 16.4032 80.5382 16.4032C81.5233 16.4032 82.0652 17.1139 82.0652 18.2256C82.0652 19.3304 81.5374 20.0411 80.5875 20.0411C79.9612 20.0411 79.5742 19.7526 79.4194 19.4289H79.3983V21.188ZM79.3983 18.5352C79.3983 19.1193 79.7361 19.3937 80.3553 19.3937C81.0238 19.3937 81.3052 19.0841 81.3052 18.2256C81.3052 17.3601 81.0308 17.0505 80.3553 17.0505C79.7361 17.0505 79.3983 17.325 79.3983 17.909V18.5352ZM83.5315 21.188H82.7785V16.4735H83.4681V17.0505H83.5033C83.6651 16.6424 84.0662 16.4032 84.6714 16.4032C85.6565 16.4032 86.1983 17.1139 86.1983 18.2256C86.1983 19.3304 85.6706 20.0411 84.7206 20.0411C84.0944 20.0411 83.7074 19.7526 83.5526 19.4289H83.5315V21.188ZM83.5315 18.5352C83.5315 19.1193 83.8692 19.3937 84.4884 19.3937C85.1569 19.3937 85.4384 19.0841 85.4384 18.2256C85.4384 17.3601 85.1639 17.0505 84.4884 17.0505C83.8692 17.0505 83.5315 17.325 83.5315 17.909V18.5352ZM87.6998 19.9707H86.9398V16.4524H87.6364V17.0083H87.6716C87.8124 16.6846 88.136 16.4032 88.6497 16.4032C89.3815 16.4032 89.663 16.938 89.663 17.5924V17.8246H88.903V17.6838C88.903 17.2194 88.7693 17.0505 88.326 17.0505C87.8687 17.0505 87.6998 17.2265 87.6998 17.6909V19.9707ZM91.8939 20.0411C90.8173 20.0411 90.1489 19.3093 90.1489 18.2186C90.1489 17.135 90.8173 16.4032 91.8939 16.4032C92.9635 16.4032 93.6109 17.135 93.6109 18.2186C93.6109 19.3093 92.9635 20.0411 91.8939 20.0411ZM91.8939 19.3656C92.6257 19.3656 92.8791 19.0067 92.8791 18.2186C92.8791 17.4376 92.6257 17.0787 91.8939 17.0787C91.1551 17.0787 90.8947 17.4376 90.8947 18.2186C90.8947 19.0067 91.1551 19.3656 91.8939 19.3656ZM96.2019 19.9707H95.2449L93.8447 16.4735H94.689L95.7093 19.2459H95.7586L96.7859 16.4735H97.6092L96.2019 19.9707ZM99.5269 20.0411C98.3729 20.0411 97.8311 19.3093 97.8311 18.2186C97.8311 17.135 98.4784 16.4032 99.5198 16.4032C100.463 16.4032 101.124 16.9661 101.124 17.9231C101.124 18.106 101.103 18.296 101.082 18.4016H98.5418C98.5699 19.0419 98.8021 19.3656 99.5339 19.3656C100.118 19.3656 100.343 19.1685 100.343 18.8519V18.7956H101.096V18.8589C101.096 19.5767 100.47 20.0411 99.5269 20.0411ZM99.5058 17.0435C98.8443 17.0435 98.591 17.3531 98.5488 17.8949H100.399C100.428 17.2968 100.104 17.0435 99.5058 17.0435Z" fill="#E44A19"/>
<defs>
<linearGradient id="paint0_linear_96_14375" x1="24.3866" y1="49.1417" x2="77.2752" y2="67.8251" gradientUnits="userSpaceOnUse">
<stop stop-color="#FFC3BB"/>
<stop offset="1" stop-color="#F27F71"/>
</linearGradient>
<linearGradient id="paint1_linear_96_14375" x1="15.8479" y1="18.81" x2="-15.138" y2="36.9884" gradientUnits="userSpaceOnUse">
<stop stop-color="#F27F71"/>
<stop offset="0.58" stop-color="#EC6E5F"/>
<stop offset="0.8" stop-color="#E04B39"/>
<stop offset="1" stop-color="#D52914"/>
</linearGradient>
</defs>
</svg>
