<svg width="760" height="435" viewBox="0 0 760 435" fill="none" xmlns="http://www.w3.org/2000/svg">
<g filter="url(#filter0_d_174_42030)">
<rect x="5.24512" y="122.471" width="316.827" height="428.274" rx="32.2381" transform="rotate(-16.6907 5.24512 122.471)" fill="#83FF8F"/>
<mask id="mask0_174_42030" style="mask-type:alpha" maskUnits="userSpaceOnUse" x="13" y="39" width="411" height="486">
<rect x="5.24512" y="122.471" width="316.827" height="428.274" rx="32.2381" transform="rotate(-16.6907 5.24512 122.471)" fill="#F07FA8"/>
</mask>
<g mask="url(#mask0_174_42030)">
<g filter="url(#filter1_f_174_42030)">
<path d="M541.249 240.013C444.841 493.687 381.932 398.291 291.108 363.774C200.284 329.257 137.611 397.979 234.019 144.304C330.427 -109.371 273.739 144.445 342.45 228.681C407.457 308.377 637.657 -13.6621 541.249 240.013Z" fill="#F07FE5"/>
</g>
<g filter="url(#filter2_f_174_42030)">
<path d="M-0.159036 111.218C37.5147 21.6581 113.682 79.6537 203.242 117.328C292.803 155.001 178.098 92.9381 140.424 182.498C102.75 272.059 180.333 312.348 90.773 274.674C1.21263 237.001 -37.8328 200.779 -0.159036 111.218Z" fill="#8E7FF0"/>
</g>
<g filter="url(#filter3_f_174_42030)">
<path d="M-10.1692 351.07C27.5046 261.51 103.672 319.506 193.232 357.179C282.792 394.853 351.831 397.939 314.157 487.499C276.484 577.059 164.859 632.374 75.2986 594.7C-14.2618 557.026 -47.843 440.631 -10.1692 351.07Z" fill="#AFA3FD"/>
</g>
<path d="M80.5219 152.163C78.5179 150.642 76.4939 149.139 74.4721 147.632C74.4391 147.604 74.3104 147.512 74.1487 147.393C73.998 147.283 73.8154 147.148 73.6493 147.027C73.6549 147.002 73.6594 146.983 73.6616 146.979C73.7019 146.814 73.7478 146.614 73.7882 146.439C73.8307 146.26 73.8677 146.107 73.879 146.046C74.4118 143.583 74.9556 141.119 75.4697 138.656C75.5404 138.32 75.7065 138.138 76.1526 137.998C76.6539 137.844 77.1422 137.635 77.6392 137.449C78.7834 137.024 79.4914 137.352 79.303 138.221C78.8297 140.379 78.33 142.537 77.8975 144.692C77.8301 145.027 77.7033 145.324 77.5192 145.59C77.8322 145.669 78.124 145.813 78.3945 146.021C80.1345 147.361 81.9287 148.664 83.7008 149.979C84.4136 150.511 84.0945 151.223 82.9525 151.653C82.4588 151.838 81.953 152.001 81.4703 152.214C81.0417 152.401 80.7958 152.37 80.5219 152.163Z" fill="#F69E1E"/>
<path d="M71.0875 156.096C70.1422 156.417 69.2133 156.791 68.1828 157.176C68.5339 155.57 68.8648 154.052 69.1956 152.533C69.4996 151.144 69.8101 149.753 70.103 148.365C68.9745 147.509 67.8272 146.663 66.6821 145.813C65.4358 144.884 64.1895 143.956 62.8706 142.974C63.9011 142.589 64.8475 142.261 65.7709 141.883C66.5762 141.552 67.153 141.579 67.6478 141.983C68.323 142.536 69.0624 143.049 69.8192 143.608C69.8561 143.464 69.8851 143.38 69.9063 143.295C70.0892 142.451 70.2742 141.603 70.4527 140.757C70.5459 140.3 70.8879 139.972 71.482 139.753C72.328 139.44 73.1729 139.124 74.0179 138.808L74.6242 138.581C74.622 138.585 74.6208 138.592 74.6219 138.595C74.4362 138.715 74.3441 138.872 74.2992 139.096C73.7851 141.558 73.2445 144.021 72.7084 146.485C72.6938 146.547 72.6602 146.7 72.6176 146.879C72.5773 147.053 72.5313 147.254 72.491 147.419C72.4888 147.423 72.4877 147.44 72.4787 147.467C72.6448 147.587 72.8274 147.722 72.9781 147.832C73.1398 147.952 73.2652 148.045 73.3016 148.071C75.32 149.58 77.3473 151.082 79.3514 152.602C79.5318 152.741 79.7014 152.801 79.9188 152.766C79.9232 152.768 79.9287 152.773 79.9309 152.778L79.3245 153.005C78.4796 153.321 77.6347 153.637 76.7909 153.956C76.1989 154.181 75.7247 154.155 75.3552 153.874C74.6688 153.352 73.9736 152.836 73.2773 152.318C73.2091 152.267 73.1321 152.222 73.0067 152.139C72.8059 153.057 72.58 153.927 72.4334 154.787C72.333 155.417 71.9124 155.818 71.0875 156.096Z" fill="#EB1D25"/>
<path d="M92.1404 146.05L89.8049 146.77L91.2057 141.501L91.1646 141.368L87.0486 137.828L89.4108 137.1L92.3784 139.664L92.5118 139.622L93.4678 135.85L95.8033 135.13L94.4035 140.355L94.4446 140.488L98.5596 144.071L96.1974 144.799L93.2257 142.223L93.0923 142.264L92.1404 146.05ZM101.132 143.278L99.1435 143.891L97.0743 137.178L98.9293 136.607L99.2913 137.781L99.3714 137.756C99.4973 136.885 100.023 136.124 101.17 135.77C102.318 135.416 103.172 135.723 103.749 136.407L103.815 136.386C103.963 135.537 104.453 134.758 105.694 134.375C107.429 133.84 108.495 134.783 108.935 136.211L110.247 140.469L108.245 141.086L107.056 137.229C106.768 136.295 106.385 136.047 105.411 136.348C104.504 136.627 104.207 137.04 104.507 138.015L105.696 141.871L103.694 142.488L102.505 138.632C102.218 137.697 101.821 137.454 100.86 137.75C99.9527 138.03 99.6428 138.447 99.9349 139.395L101.132 143.278ZM113.304 139.673C112.116 140.039 111.002 139.695 110.627 138.481C110.306 137.44 110.856 136.569 112.178 135.928L114.367 134.873L114.301 134.659C114.058 133.872 113.586 133.857 112.799 134.1C111.985 134.351 111.734 134.676 111.944 135.357L111.989 135.504L110.081 136.092L110.036 135.945C109.542 134.344 110.458 132.907 112.353 132.323C114.328 131.714 115.702 132.474 116.254 134.262L117.48 138.239L115.625 138.811L115.345 137.903L115.265 137.928C115.057 138.533 114.545 139.29 113.304 139.673ZM112.486 137.732C112.597 138.093 112.915 138.126 113.502 137.945C114.316 137.695 115.091 137.222 114.77 136.181L112.939 137.067C112.546 137.261 112.4 137.452 112.486 137.732ZM120.655 137.26L118.667 137.873L116.597 131.16L118.452 130.589L118.786 131.67L118.866 131.645C118.99 130.861 119.426 130.143 120.373 129.85C121.774 129.418 122.616 130.299 123.031 131.647L123.22 132.261L121.232 132.874L121.121 132.513C120.899 131.793 120.602 131.636 119.975 131.829C119.361 132.018 119.133 132.322 119.359 133.056L120.655 137.26ZM127.158 135.256L125.17 135.869L123.101 129.156L124.956 128.584L125.289 129.665L125.369 129.64C125.493 128.857 125.929 128.138 126.876 127.846C128.278 127.414 129.119 128.294 129.535 129.642L129.724 130.256L127.735 130.869L127.624 130.509C127.402 129.788 127.105 129.631 126.478 129.824C125.864 130.014 125.636 130.318 125.863 131.052L127.158 135.256Z" fill="#1A1A1A"/>
<g clip-path="url(#clip0_174_42030)">
<path d="M88.5032 213.937C87.8448 213.876 87.2661 213.47 86.9797 212.87C86.8008 212.528 86.7952 212.255 87.0526 211.081C88.0178 206.678 87.8158 202.091 86.4647 197.789C85.2632 193.578 83.0146 189.788 79.8992 186.715C79.4212 186.188 78.9795 185.681 78.5672 185.119C78.4918 184.562 78.6107 183.993 78.9561 183.57C79.4846 183.046 80.2744 182.885 80.9649 183.105C81.5072 183.49 81.9936 183.893 82.4492 184.396C84.8172 186.826 86.7733 189.626 88.2408 192.685C89.321 195.119 90.1341 197.679 90.6593 200.294C91.2068 203.695 91.1895 207.144 90.5921 210.538C90.234 212.595 89.957 213.501 89.4258 213.66L88.5032 213.937Z" fill="#1A1A1A"/>
<path d="M81.1919 210.75C81.2673 211.612 82.0136 212.271 82.8775 212.256L82.8566 212.186C84.1258 212.202 84.6949 211.102 85.077 208.108C85.8439 202.332 84.3924 196.474 81.0144 191.713C79.9159 190.183 78.6329 188.801 77.1821 187.621C76.2512 187.26 75.26 187.664 74.8503 188.533C74.5594 189.443 74.6992 189.706 76.108 191.203C77.999 193.089 79.486 195.355 80.4488 197.855C81.8391 201.323 82.1992 205.116 81.5011 208.784C81.3444 209.684 81.1416 210.583 81.1919 210.75Z" fill="#1A1A1A"/>
<path d="M76.2566 210.315C76.4955 210.47 76.7661 210.57 77.0485 210.607L77.0233 210.523C77.3127 210.573 77.6006 210.517 77.8579 210.41C78.575 210.058 78.8477 209.595 79.1625 207.901C79.7122 205.313 79.5728 202.613 78.7582 200.099C78.028 197.61 76.6784 195.346 74.8354 193.52C73.6069 192.167 72.9737 191.885 72.079 192.153C71.6429 192.223 71.2975 192.494 71.1242 192.881C70.5844 193.774 70.6934 194.138 72.1302 195.626C73.7121 197.177 74.8754 199.103 75.5116 201.225C76.1478 203.347 76.2362 205.595 75.7684 207.761C75.4747 209.068 75.5837 209.431 75.6675 209.711C75.8164 209.953 76.0177 210.16 76.2566 210.315Z" fill="#1A1A1A"/>
<path d="M70.3379 208.183C70.6664 208.618 71.143 208.887 71.6714 208.972L71.6854 208.968C72.608 208.996 73.3224 208.431 73.7126 207.141C74.2518 205.334 74.2506 203.41 73.7091 201.604C73.1677 199.798 72.1096 198.19 70.6653 196.978C69.6478 196.125 69.0202 195.963 68.3072 196.329C67.3929 196.786 67.0573 197.801 67.4751 198.635C67.7674 198.965 68.0837 199.272 68.4214 199.555C69.3998 200.328 70.0734 201.406 70.3318 202.624C70.7538 203.777 70.7704 205.052 70.3564 206.212C70.0655 207.275 70.0515 207.736 70.3379 208.183Z" fill="#1A1A1A"/>
</g>
</g>
<path d="M287.927 74.776L295.994 101.682C296.511 103.404 295.521 105.242 293.798 105.759L273.873 111.733C272.15 112.25 270.312 111.26 269.795 109.537L261.728 82.6313C261.211 80.9086 262.202 79.0707 263.924 78.5542L283.85 72.5798C285.569 72.0533 287.407 73.0433 287.927 74.776Z" fill="#1A1A1A"/>
<path d="M289.607 93.0907C289.649 93.2301 289.611 93.3934 289.5 93.492C289.34 93.6483 289.087 93.6373 288.931 93.4779C288.475 93.0069 287.72 92.4083 286.663 92.2479C285.321 92.0425 284.091 92.5741 284.05 92.8359C284.038 92.9047 284.226 93.0979 284.338 93.2164C284.637 93.5281 285.036 93.9513 285.01 94.5886C284.981 95.2159 284.556 95.647 284.359 95.858C283.026 97.2021 278.954 98.716 276.628 98.4149C275.848 98.3122 275.328 98.0234 275.043 97.5444C274.765 97.0525 274.856 96.5586 274.934 96.1663C274.999 95.8427 275.014 95.6754 274.938 95.6007C274.611 95.3079 273.3 95.712 272.403 96.5234C271.609 97.2392 271.298 98.1572 271.186 98.7984C271.143 99.0175 270.935 99.1559 270.719 99.123C270.5 99.0801 270.362 98.872 270.395 98.6559C270.536 97.8972 270.902 96.8 271.869 95.9348C272.816 95.0757 274.643 94.2564 275.478 95.0153C275.898 95.3997 275.8 95.9065 275.728 96.3188C275.659 96.6324 275.615 96.9172 275.739 97.1512C275.92 97.4659 276.377 97.5784 276.728 97.6253C278.772 97.8915 282.617 96.4891 283.791 95.3013C283.991 95.1002 284.202 94.8633 284.211 94.5675C284.223 94.2818 284.042 94.0756 283.758 93.7809C283.487 93.493 283.175 93.1744 283.254 92.7163C283.416 91.7346 285.283 91.229 286.785 91.4623C288.059 91.6556 288.978 92.3677 289.514 92.9234C289.561 92.9742 289.589 93.0309 289.607 93.0907Z" fill="#F8F8F8"/>
<path d="M277.277 98.046L279.352 104.967C279.414 105.176 279.299 105.406 279.08 105.471C278.871 105.534 278.641 105.419 278.575 105.2L276.5 98.2789C276.437 98.0698 276.553 97.8398 276.772 97.7741C276.991 97.7084 277.214 97.8369 277.277 98.046Z" fill="#F8F8F8"/>
<path d="M284.197 95.9718L286.272 102.892C286.335 103.102 286.219 103.332 286 103.397C285.791 103.46 285.561 103.344 285.495 103.125L283.42 96.2047C283.358 95.9956 283.473 95.7656 283.692 95.6999C283.901 95.6372 284.134 95.7627 284.197 95.9718Z" fill="#F8F8F8"/>
<path d="M287.19 85.0252C287.208 85.0849 287.216 85.1477 287.204 85.2164C287.062 85.9751 286.697 87.0723 285.73 87.9375C284.603 88.9589 282.766 89.5641 282.091 88.8331C281.783 88.4915 281.858 88.0564 281.926 87.6671C282.001 87.2648 282.039 86.993 281.871 86.7609C281.685 86.502 281.326 86.4253 281.117 86.3795C279.483 86.0337 275.501 86.9781 273.94 88.325C273.673 88.557 273.357 88.9124 273.375 89.2649C273.388 89.489 273.218 89.6811 273.004 89.691C272.78 89.704 272.588 89.5337 272.578 89.3196C272.542 88.7659 272.825 88.2253 273.422 87.7206C275.209 86.1864 279.429 85.2033 281.285 85.6018C281.563 85.6596 282.154 85.7862 282.524 86.294C282.896 86.8119 282.799 87.3944 282.718 87.8096C282.69 87.9699 282.642 88.2447 282.687 88.2855C282.865 88.4817 284.184 88.2489 285.192 87.339C285.987 86.6232 286.298 85.7051 286.409 85.0639C286.452 84.8449 286.66 84.7065 286.876 84.7394C287.037 84.7673 287.148 84.8858 287.19 85.0252Z" fill="#F8F8F8"/>
<path d="M273.444 90.8191C273.491 90.9784 273.436 91.1576 273.295 91.2651C271.073 92.8321 268.592 91.4705 268.088 90.9487C267.932 90.7894 267.943 90.5365 268.102 90.3802C268.262 90.2238 268.515 90.2348 268.671 90.3942C268.894 90.6312 270.949 91.9469 272.838 90.6099C273.016 90.4805 273.268 90.5243 273.398 90.7026C273.41 90.7424 273.432 90.7792 273.444 90.8191Z" fill="#F8F8F8"/>
<path d="M272.091 80.7492L274.166 87.6698C274.229 87.8789 274.113 88.1089 273.894 88.1746C273.685 88.2373 273.455 88.1217 273.389 87.9027L271.314 80.982C271.252 80.7729 271.367 80.5429 271.586 80.4772C271.808 80.4215 272.028 80.54 272.091 80.7492Z" fill="#F8F8F8"/>
<path d="M279.013 78.6749L281.088 85.5956C281.151 85.8047 281.036 86.0347 280.817 86.1004C280.607 86.1631 280.377 86.0475 280.312 85.8284L278.237 78.9078C278.174 78.6987 278.29 78.4687 278.509 78.403C278.721 78.3503 278.951 78.4658 279.013 78.6749Z" fill="#F8F8F8"/>
</g>
<g filter="url(#filter4_d_174_42030)">
<rect x="209.941" y="13.8027" width="316.827" height="428.274" rx="32.2381" fill="#8E7FF0"/>
<mask id="mask1_174_42030" style="mask-type:alpha" maskUnits="userSpaceOnUse" x="209" y="13" width="318" height="430">
<rect x="209.941" y="13.8027" width="316.827" height="428.274" rx="32.2381" fill="#8E7FF0"/>
</mask>
<g mask="url(#mask1_174_42030)">
<g filter="url(#filter5_f_174_42030)">
<path d="M689.605 280.336C524.402 495.635 491.541 386.19 414.457 327.042C337.374 267.894 257.603 315.721 422.806 100.422C588.009 -114.876 460.813 111.965 502.436 212.386C541.815 307.395 854.808 65.0381 689.605 280.336Z" fill="#83FF8F"/>
</g>
<g filter="url(#filter6_f_174_42030)">
<path d="M207.995 1.47244C269.804 -73.4946 326.105 3.93315 401.072 65.7418C476.039 127.55 383.992 35.1584 322.183 110.125C260.374 185.092 323.118 245.967 248.151 184.158C173.184 122.349 146.186 76.4395 207.995 1.47244Z" fill="#F07FE5"/>
</g>
<g filter="url(#filter7_f_174_42030)">
<path d="M129.522 228.346C191.331 153.379 247.632 230.807 322.599 292.615C397.566 354.424 462.81 377.208 401.002 452.175C339.193 527.142 216.385 548.067 141.417 486.258C66.4504 424.449 67.7133 303.313 129.522 228.346Z" fill="#F07FE5"/>
</g>
<path d="M261.676 64.3961C260.079 62.2013 258.455 60.0183 256.836 57.8317C256.81 57.7929 256.706 57.6581 256.576 57.4846C256.454 57.324 256.308 57.1279 256.174 56.9512C256.187 56.9268 256.198 56.9092 256.201 56.9056C256.294 56.7478 256.404 56.5552 256.5 56.3871C256.6 56.2153 256.686 56.0681 256.716 56.0088C258.033 53.63 259.362 51.2537 260.659 48.8695C260.837 48.5443 261.065 48.408 261.57 48.4019C262.136 48.3986 262.705 48.3343 263.277 48.2969C264.591 48.2143 265.22 48.7732 264.755 49.6128C263.595 51.6948 262.407 53.7685 261.289 55.8612C261.115 56.1861 260.892 56.4536 260.619 56.6703C260.918 56.8497 261.175 57.0892 261.389 57.3886C262.77 59.3144 264.218 61.2189 265.64 63.1285C266.211 63.9003 265.659 64.5365 264.345 64.6259C263.778 64.663 263.205 64.6736 262.64 64.7443C262.139 64.8041 261.894 64.6953 261.676 64.3961Z" fill="#F69E1E"/>
<path d="M250.701 65.5212C249.624 65.5579 248.548 65.6553 247.364 65.7329C248.226 64.1828 249.04 62.7169 249.855 61.2509C250.601 59.9108 251.355 58.5701 252.089 57.2274C251.19 55.9916 250.268 54.7607 249.349 53.5262C248.351 52.1789 247.352 50.8316 246.295 49.4072C247.479 49.3297 248.559 49.286 249.631 49.1821C250.566 49.0906 251.153 49.2982 251.539 49.8697C252.064 50.6513 252.669 51.4107 253.277 52.2239C253.359 52.087 253.415 52.0092 253.464 51.9285C253.915 51.1134 254.37 50.2946 254.818 49.4764C255.057 49.0326 255.512 48.8005 256.194 48.7592C257.165 48.699 258.137 48.6354 259.108 48.5718L259.805 48.5262C259.801 48.5298 259.798 48.5368 259.798 48.5401C259.569 48.6057 259.425 48.7399 259.309 48.9565C258.012 51.3408 256.687 53.7168 255.366 56.0959C255.332 56.1554 255.25 56.3024 255.15 56.4741C255.054 56.6422 254.944 56.8349 254.851 56.9927C254.847 56.9963 254.841 57.0136 254.823 57.0383C254.957 57.215 255.104 57.411 255.226 57.5716C255.355 57.7452 255.456 57.8802 255.485 57.9188C257.101 60.1056 258.728 62.2883 260.326 64.4831C260.469 64.6828 260.625 64.7973 260.861 64.8291C260.865 64.8322 260.869 64.8386 260.869 64.8454L260.172 64.891C259.201 64.9546 258.23 65.0182 257.259 65.0851C256.577 65.1331 256.095 64.959 255.801 64.5534C255.255 63.8003 254.697 63.0512 254.139 62.2988C254.084 62.2248 254.018 62.155 253.915 62.0303C253.422 62.9155 252.918 63.7442 252.498 64.5876C252.199 65.2073 251.639 65.49 250.701 65.5212Z" fill="#EB1D25"/>
<path d="M275.58 61.3399L272.943 61.3569L276.03 56.3492L276.029 56.1986L272.878 51.2613L275.545 51.2441L277.813 54.8158L277.964 54.8149L280.125 51.2146L282.762 51.1976L279.69 56.1599L279.691 56.3106L282.827 61.2932L280.16 61.3104L277.892 57.7236L277.741 57.7245L275.58 61.3399ZM285.732 61.2745L283.487 61.2889L283.438 53.7097L285.532 53.6962L285.541 55.0222L285.631 55.0216C286.032 54.1601 286.812 53.5373 288.108 53.5289C289.404 53.5206 290.191 54.1032 290.573 54.9898L290.649 54.9893C291.065 54.1578 291.815 53.5051 293.216 53.496C295.175 53.4834 295.982 54.7892 295.992 56.4015L296.023 61.2082L293.763 61.2227L293.735 56.8681C293.728 55.8133 293.409 55.4386 292.309 55.4457C291.285 55.4523 290.85 55.7866 290.857 56.8866L290.885 61.2413L288.625 61.2558L288.597 56.9012C288.59 55.8464 288.256 55.4718 287.171 55.4788C286.146 55.4854 285.697 55.8198 285.703 56.8897L285.732 61.2745ZM299.429 61.3369C298.088 61.3455 297.043 60.644 297.035 59.2729C297.027 58.0976 297.866 57.3689 299.432 57.1177L302.021 56.7092L302.019 56.4681C302.014 55.5791 301.53 55.4165 300.641 55.4222C299.722 55.4281 299.362 55.6866 299.367 56.4551L299.368 56.6208L297.213 56.6347L297.212 56.4689C297.201 54.6608 298.594 53.4614 300.734 53.4476C302.964 53.4332 304.147 54.6462 304.16 56.6653L304.189 61.1556L302.095 61.169L302.088 60.1444L301.998 60.145C301.594 60.7051 300.83 61.3279 299.429 61.3369ZM299.188 59.0782C299.191 59.485 299.508 59.6186 300.171 59.6143C301.09 59.6084 302.038 59.3612 302.03 58.1859L299.863 58.5313C299.396 58.6097 299.186 58.7617 299.188 59.0782ZM307.775 61.1325L305.529 61.1469L305.481 53.5677L307.575 53.5542L307.583 54.7747L307.673 54.7741C308.045 54.0032 308.719 53.3962 309.789 53.3893C311.371 53.3791 311.966 54.5506 311.976 56.0725L311.981 56.7656L309.736 56.7801L309.733 56.3732C309.728 55.5595 309.47 55.305 308.762 55.3096C308.069 55.3141 307.739 55.5573 307.744 56.386L307.775 61.1325ZM315.117 61.0852L312.872 61.0996L312.823 53.5204L314.918 53.5069L314.926 54.7274L315.016 54.7268C315.388 53.9559 316.062 53.3489 317.132 53.342C318.714 53.3318 319.309 54.5033 319.319 56.0252L319.323 56.7183L317.078 56.7328L317.076 56.3259C317.07 55.5122 316.813 55.2577 316.104 55.2623C315.411 55.2668 315.081 55.51 315.087 56.3387L315.117 61.0852Z" fill="#1A1A1A"/>
<path d="M263.421 125.327C262.808 125.079 262.37 124.525 262.268 123.868C262.195 123.489 262.268 123.226 262.852 122.175C265.041 118.235 266.165 113.783 266.107 109.274C266.165 104.896 265.1 100.619 262.998 96.7812C262.691 96.139 262.414 95.5261 262.181 94.8693C262.268 94.3148 262.546 93.804 262.998 93.4975C263.655 93.1472 264.457 93.2202 265.056 93.6288C265.464 94.1542 265.815 94.6796 266.107 95.2926C267.677 98.3003 268.746 101.544 269.273 104.896C269.609 107.537 269.653 110.222 269.405 112.879C268.952 116.294 267.945 119.592 266.398 122.671C265.464 124.539 264.939 125.327 264.384 125.327H263.421Z" fill="#1A1A1A"/>
<path d="M257.333 120.176C257.158 121.023 257.684 121.869 258.515 122.103V122.03C259.727 122.409 260.588 121.519 261.814 118.761C264.207 113.448 264.499 107.421 262.631 101.89C262.018 100.109 261.186 98.4163 260.135 96.8693C259.347 96.2563 258.282 96.3585 257.64 97.0736C257.1 97.8617 257.158 98.1536 258.078 99.9924C259.347 102.342 260.121 104.94 260.325 107.611C260.661 111.332 259.916 115.068 258.194 118.381C257.786 119.198 257.333 120.001 257.333 120.176Z" fill="#1A1A1A"/>
<path d="M252.73 118.341C252.915 118.558 253.145 118.731 253.405 118.848V118.76C253.668 118.892 253.959 118.921 254.237 118.892C255.025 118.76 255.419 118.396 256.207 116.863C257.477 114.543 258.119 111.916 258.06 109.274C258.076 106.68 257.433 104.124 256.192 101.846C255.404 100.197 254.879 99.7442 253.945 99.7442C253.507 99.6859 253.098 99.8464 252.821 100.167C252.048 100.868 252.048 101.247 252.996 103.086C254.066 105.026 254.627 107.205 254.627 109.42C254.627 111.635 254.066 113.814 252.996 115.754C252.34 116.922 252.34 117.301 252.34 117.593C252.412 117.868 252.546 118.124 252.73 118.341Z" fill="#1A1A1A"/>
<path d="M247.674 114.603C247.863 115.114 248.243 115.508 248.725 115.741H248.739C249.615 116.033 250.461 115.698 251.206 114.574C252.241 112.998 252.793 111.154 252.793 109.269C252.793 107.384 252.241 105.539 251.206 103.964C250.476 102.855 249.921 102.519 249.133 102.665C248.126 102.84 247.513 103.716 247.674 104.635C247.859 105.035 248.074 105.42 248.316 105.788C249.031 106.81 249.367 108.036 249.265 109.276C249.337 110.502 248.987 111.728 248.257 112.72C247.674 113.654 247.528 114.092 247.674 114.603Z" fill="#1A1A1A"/>
</g>
<path d="M494.413 49.3061V77.3953C494.413 79.1937 492.936 80.6699 491.138 80.6699L470.336 80.6699C468.538 80.6699 467.062 79.1937 467.062 77.3953V49.3061C467.062 47.5076 468.538 46.0314 470.336 46.0314L491.138 46.0314C492.936 46.021 494.413 47.4972 494.413 49.3061Z" fill="#1A1A1A"/>
<path d="M490.761 67.3322C490.761 67.4777 490.677 67.6233 490.542 67.6857C490.345 67.7896 490.106 67.7065 490.002 67.5089C489.7 66.9268 489.149 66.1367 488.182 65.6793C486.956 65.0971 485.625 65.2531 485.511 65.4922C485.48 65.5545 485.604 65.7936 485.677 65.9392C485.875 66.3238 486.134 66.8436 485.927 67.4466C485.719 68.0391 485.188 68.3302 484.939 68.4757C483.276 69.3802 478.941 69.6608 476.799 68.7044C476.082 68.3822 475.666 67.9559 475.531 67.4154C475.406 66.8644 475.635 66.4174 475.822 66.0639C475.978 65.7729 476.04 65.6169 475.988 65.5234C475.76 65.1491 474.387 65.1595 473.296 65.6793C472.329 66.1367 471.768 66.9268 471.477 67.5089C471.373 67.7065 471.133 67.7792 470.936 67.6857C470.738 67.5817 470.666 67.3426 470.759 67.1451C471.113 66.459 471.778 65.513 472.953 64.962C474.107 64.411 476.092 64.1511 476.674 65.1179C476.965 65.6065 476.726 66.0639 476.539 66.4382C476.383 66.7189 476.259 66.9788 476.311 67.2386C476.394 67.5921 476.799 67.8312 477.121 67.9767C479.003 68.8188 483.089 68.5797 484.554 67.7792C484.804 67.6441 485.074 67.4777 485.168 67.1971C485.261 66.9268 485.147 66.6773 484.96 66.3134C484.783 65.96 484.575 65.5649 484.783 65.1491C485.22 64.2551 487.153 64.3071 488.525 64.962C489.69 65.513 490.366 66.459 490.719 67.1451C490.75 67.2075 490.761 67.2698 490.761 67.3322Z" fill="#F8F8F8"/>
<path d="M477.532 68.5375V75.7625C477.532 75.9808 477.355 76.168 477.126 76.168C476.908 76.168 476.721 75.9912 476.721 75.7625V68.5375C476.721 68.3192 476.897 68.1321 477.126 68.1321C477.355 68.1321 477.532 68.3192 477.532 68.5375Z" fill="#F8F8F8"/>
<path d="M484.759 68.5375V75.7625C484.759 75.9808 484.582 76.168 484.354 76.168C484.135 76.168 483.948 75.9912 483.948 75.7625V68.5375C483.948 68.3192 484.125 68.1321 484.354 68.1321C484.572 68.1321 484.759 68.3192 484.759 68.5375Z" fill="#F8F8F8"/>
<path d="M490.761 58.9109C490.761 58.9733 490.751 59.0356 490.72 59.098C490.366 59.7841 489.701 60.7302 488.526 61.2811C487.154 61.9361 485.22 61.988 484.784 61.094C484.586 60.6782 484.784 60.2831 484.961 59.9297C485.148 59.5658 485.262 59.3163 485.168 59.046C485.065 58.7446 484.742 58.5678 484.555 58.4639C483.089 57.6634 479.004 57.4243 477.122 58.2664C476.8 58.4119 476.394 58.6614 476.311 59.0045C476.259 59.2228 476.041 59.3579 475.833 59.3059C475.615 59.254 475.48 59.0356 475.532 58.8277C475.656 58.2872 476.083 57.8505 476.8 57.5387C478.952 56.5823 483.276 56.8526 484.94 57.7674C485.189 57.9025 485.719 58.1936 485.927 58.7862C486.135 59.3891 485.875 59.9193 485.678 60.2935C485.605 60.4391 485.48 60.6886 485.512 60.7405C485.626 60.9796 486.957 61.1356 488.183 60.5534C489.15 60.096 489.711 59.3059 490.002 58.7238C490.106 58.5263 490.346 58.4535 490.543 58.5471C490.689 58.6198 490.761 58.7654 490.761 58.9109Z" fill="#F8F8F8"/>
<path d="M475.928 60.5115C475.928 60.6778 475.825 60.8338 475.658 60.8961C473.08 61.759 471.094 59.7422 470.762 59.0977C470.658 58.9002 470.741 58.6611 470.939 58.5571C471.136 58.4531 471.375 58.5363 471.479 58.7338C471.625 59.0249 473.215 60.8753 475.409 60.1372C475.617 60.0645 475.845 60.1788 475.918 60.3867C475.918 60.4283 475.928 60.4699 475.928 60.5115Z" fill="#F8F8F8"/>
<path d="M477.532 50.4809V57.7059C477.532 57.9242 477.355 58.1113 477.126 58.1113C476.908 58.1113 476.721 57.9346 476.721 57.7059V50.4809C476.721 50.2626 476.897 50.0754 477.126 50.0754C477.355 50.0858 477.532 50.2626 477.532 50.4809Z" fill="#F8F8F8"/>
<path d="M484.759 50.4809V57.7059C484.759 57.9242 484.582 58.1113 484.354 58.1113C484.135 58.1113 483.948 57.9346 483.948 57.7059V50.4809C483.948 50.2626 484.125 50.0754 484.354 50.0754C484.572 50.0858 484.759 50.2626 484.759 50.4809Z" fill="#F8F8F8"/>
</g>
<g filter="url(#filter8_d_174_42030)">
<rect x="449.147" y="94.2031" width="316.827" height="428.274" rx="32.2381" transform="rotate(15.8005 449.147 94.2031)" fill="#F0DE7F"/>
<mask id="mask2_174_42030" style="mask-type:alpha" maskUnits="userSpaceOnUse" x="340" y="101" width="407" height="485">
<rect x="449.147" y="94.2031" width="316.827" height="428.274" rx="32.2381" transform="rotate(15.8005 449.147 94.2031)" fill="#CC7FF0"/>
</mask>
<g mask="url(#mask2_174_42030)">
<g filter="url(#filter9_f_174_42030)">
<path d="M838.118 481.271C620.534 643.452 618.715 529.195 560.649 451.293C502.583 373.391 412.804 397.689 630.388 235.509C847.972 73.3279 663.816 256.964 676.523 364.924C688.544 467.065 1055.7 319.09 838.118 481.271Z" fill="#C5F07F"/>
</g>
<g filter="url(#filter10_f_174_42030)">
<path d="M450.636 81.807C530.522 26.5024 563.613 116.335 618.918 196.221C674.222 276.107 610.81 162.142 530.924 217.447C451.038 272.751 494.836 348.41 439.531 268.524C384.226 188.638 370.75 137.112 450.636 81.807Z" fill="#FFEC87"/>
</g>
<g filter="url(#filter11_f_174_42030)">
<path d="M313.353 278.741C393.239 223.436 426.33 313.269 481.635 393.155C536.94 473.041 593.515 512.729 513.629 568.033C433.743 623.338 309.877 610.033 254.572 530.147C199.268 450.261 233.467 334.046 313.353 278.741Z" fill="#AFA3FD"/>
</g>
<path d="M485.25 159.762C484.319 157.236 483.359 154.714 482.404 152.189C482.39 152.145 482.326 151.988 482.249 151.788C482.177 151.601 482.09 151.375 482.01 151.17C482.029 151.15 482.044 151.136 482.048 151.134C482.18 151.008 482.336 150.854 482.474 150.72C482.615 150.583 482.737 150.465 482.782 150.417C484.682 148.502 486.592 146.593 488.474 144.668C488.731 144.405 488.986 144.337 489.469 144.467C490.01 144.617 490.571 144.709 491.127 144.828C492.403 145.104 492.853 145.808 492.182 146.483C490.512 148.157 488.819 149.816 487.187 151.511C486.933 151.774 486.647 151.969 486.329 152.102C486.565 152.354 486.746 152.652 486.87 152.996C487.667 155.207 488.535 157.416 489.376 159.623C489.713 160.513 489.015 160.972 487.736 160.702C487.185 160.584 486.635 160.44 486.076 160.355C485.582 160.276 485.378 160.107 485.25 159.762Z" fill="#F69E1E"/>
<path d="M474.475 157.872C473.438 157.616 472.384 157.419 471.233 157.173C472.474 155.926 473.648 154.747 474.821 153.568C475.895 152.49 476.977 151.414 478.041 150.331C477.516 148.908 476.968 147.485 476.425 146.058C475.836 144.502 475.246 142.947 474.622 141.302C475.774 141.548 476.816 141.798 477.867 141.988C478.784 142.153 479.289 142.51 479.502 143.16C479.793 144.047 480.165 144.936 480.525 145.876C480.641 145.768 480.716 145.708 480.784 145.644C481.435 144.988 482.09 144.33 482.739 143.67C483.086 143.311 483.584 143.212 484.246 143.357C485.189 143.562 486.133 143.763 487.078 143.965L487.755 144.11C487.751 144.112 487.746 144.118 487.745 144.121C487.509 144.122 487.335 144.211 487.166 144.387C485.283 146.312 483.377 148.222 481.474 150.136C481.425 150.184 481.307 150.302 481.165 150.439C481.028 150.573 480.871 150.727 480.74 150.853C480.736 150.855 480.725 150.87 480.701 150.889C480.781 151.094 480.869 151.32 480.941 151.507C481.018 151.707 481.078 151.863 481.095 151.908C482.047 154.432 483.01 156.955 483.942 159.481C484.025 159.71 484.143 159.862 484.36 159.956C484.363 159.96 484.365 159.967 484.363 159.974L483.686 159.829C482.742 159.627 481.797 159.426 480.852 159.227C480.189 159.089 479.776 158.793 479.605 158.326C479.286 157.46 478.956 156.594 478.627 155.725C478.595 155.64 478.551 155.555 478.486 155.408C477.776 156.12 477.071 156.775 476.443 157.467C475.989 157.977 475.379 158.096 474.475 157.872Z" fill="#EB1D25"/>
<path d="M499.204 161.119L496.682 160.423L500.981 156.477L501.021 156.333L499.347 150.769L501.897 151.473L503.098 155.495L503.242 155.535L506.277 152.682L508.799 153.378L504.526 157.285L504.487 157.429L506.134 163.032L503.584 162.328L502.388 158.292L502.244 158.252L499.204 161.119ZM508.912 163.798L506.765 163.206L508.765 155.958L510.768 156.511L510.418 157.779L510.504 157.803C511.12 157.089 512.032 156.705 513.272 157.047C514.511 157.389 515.105 158.158 515.23 159.108L515.302 159.127C515.925 158.446 516.816 158.026 518.156 158.396C520.029 158.913 520.447 160.377 520.021 161.919L518.752 166.515L516.591 165.918L517.741 161.754C518.019 160.746 517.816 160.302 516.764 160.012C515.784 159.741 515.279 159.943 514.989 160.995L513.839 165.159L511.678 164.562L512.827 160.398C513.106 159.389 512.888 158.942 511.851 158.655C510.871 158.385 510.351 158.583 510.069 159.606L508.912 163.798ZM521.968 167.558C520.686 167.204 519.879 166.252 520.24 164.941C520.551 163.817 521.548 163.348 523.111 163.531L525.692 163.841L525.756 163.61C525.99 162.76 525.573 162.474 524.723 162.24C523.844 161.997 523.431 162.146 523.228 162.881L523.184 163.04L521.124 162.471L521.168 162.313C521.645 160.584 523.299 159.815 525.345 160.38C527.477 160.969 528.279 162.446 527.746 164.377L526.561 168.67L524.558 168.117L524.829 167.138L524.742 167.114C524.206 167.539 523.308 167.927 521.968 167.558ZM522.349 165.337C522.241 165.726 522.508 165.939 523.142 166.114C524.021 166.356 524.992 166.376 525.302 165.253L523.14 164.997C522.674 164.946 522.432 165.034 522.349 165.337ZM529.989 169.617L527.842 169.024L529.843 161.777L531.846 162.329L531.524 163.497L531.61 163.52C532.173 162.885 532.981 162.488 534.004 162.77C535.516 163.188 535.768 164.467 535.366 165.922L535.183 166.585L533.037 165.992L533.144 165.603C533.359 164.825 533.181 164.512 532.504 164.325C531.841 164.142 531.461 164.286 531.242 165.078L529.989 169.617ZM537.011 171.555L534.864 170.962L536.864 163.715L538.867 164.268L538.545 165.435L538.631 165.458C539.194 164.823 540.002 164.426 541.025 164.708C542.538 165.126 542.789 166.405 542.388 167.86L542.205 168.523L540.058 167.93L540.165 167.541C540.38 166.763 540.203 166.45 539.525 166.264C538.863 166.081 538.482 166.224 538.263 167.016L537.011 171.555Z" fill="#1A1A1A"/>
<path d="M470.24 216.075C469.718 215.67 469.448 215.017 469.528 214.357C469.561 213.972 469.703 213.739 470.551 212.887C473.73 209.691 476.023 205.714 477.195 201.359C478.444 197.162 478.583 192.758 477.606 188.492C477.486 187.791 477.386 187.126 477.34 186.43C477.575 185.92 477.981 185.504 478.5 185.333C479.227 185.174 479.98 185.463 480.444 186.019C480.694 186.636 480.888 187.237 481.002 187.906C481.694 191.228 481.84 194.64 481.435 198.009C481.038 200.642 480.349 203.238 479.387 205.726C478.022 208.889 476.155 211.788 473.828 214.33C472.421 215.873 471.701 216.488 471.167 216.337L470.24 216.075Z" fill="#1A1A1A"/>
<path d="M465.786 209.461C465.387 210.227 465.662 211.185 466.399 211.636L466.419 211.566C467.481 212.261 468.552 211.639 470.482 209.318C474.232 204.859 476.154 199.138 475.862 193.308C475.757 191.427 475.418 189.572 474.828 187.797C474.237 186.993 473.184 186.801 472.371 187.314C471.637 187.926 471.614 188.222 471.998 190.242C472.58 192.849 472.617 195.559 472.086 198.184C471.396 201.857 469.662 205.249 467.103 207.968C466.487 208.643 465.833 209.292 465.786 209.461Z" fill="#1A1A1A"/>
<path d="M461.855 206.443C461.973 206.703 462.148 206.932 462.366 207.115L462.39 207.031C462.607 207.229 462.88 207.336 463.155 207.384C463.949 207.472 464.427 207.228 465.603 205.968C467.456 204.081 468.79 201.728 469.453 199.171C470.174 196.678 470.252 194.044 469.678 191.514C469.369 189.713 468.986 189.134 468.088 188.88C467.682 188.705 467.245 188.748 466.891 188.981C465.956 189.445 465.853 189.81 466.265 191.837C466.766 193.995 466.713 196.245 466.109 198.376C465.506 200.508 464.373 202.452 462.815 204.027C461.866 204.971 461.762 205.336 461.683 205.617C461.678 205.902 461.737 206.184 461.855 206.443Z" fill="#1A1A1A"/>
<path d="M458.007 201.464C458.051 202.007 458.308 202.49 458.708 202.845L458.722 202.849C459.485 203.369 460.391 203.276 461.413 202.398C462.839 201.163 463.872 199.539 464.385 197.725C464.898 195.911 464.87 193.986 464.302 192.188C463.902 190.923 463.46 190.449 462.662 190.374C461.645 190.269 460.817 190.944 460.721 191.873C460.791 192.308 460.892 192.737 461.025 193.157C461.435 194.335 461.424 195.606 460.988 196.771C460.725 197.971 460.054 199.055 459.081 199.811C458.265 200.551 458.006 200.933 458.007 201.464Z" fill="#1A1A1A"/>
</g>
<path d="M713.205 205.825L705.557 232.853C705.067 234.584 703.245 235.602 701.514 235.112L681.499 229.448C679.768 228.959 678.75 227.136 679.239 225.406L686.888 198.378C687.377 196.647 689.2 195.629 690.93 196.119L710.946 201.783C712.679 202.262 713.698 204.085 713.205 205.825Z" fill="#1A1A1A"/>
<path d="M704.786 222.176C704.747 222.316 704.627 222.434 704.48 222.457C704.262 222.503 704.054 222.358 704.008 222.14C703.876 221.497 703.561 220.587 702.756 219.884C701.734 218.99 700.411 218.777 700.236 218.976C700.189 219.028 700.244 219.292 700.274 219.452C700.36 219.876 700.468 220.446 700.104 220.97C699.742 221.484 699.153 221.619 698.873 221.691C697.027 222.109 692.779 221.198 690.979 219.695C690.376 219.19 690.092 218.666 690.109 218.109C690.139 217.545 690.481 217.177 690.758 216.888C690.987 216.651 691.089 216.518 691.065 216.413C690.947 215.991 689.623 215.627 688.432 215.83C687.377 216.007 686.621 216.615 686.183 217.095C686.029 217.257 685.779 217.262 685.615 217.118C685.453 216.965 685.448 216.715 685.592 216.55C686.119 215.986 687.016 215.257 688.297 215.047C689.557 214.831 691.538 215.121 691.835 216.21C691.982 216.76 691.628 217.135 691.346 217.444C691.119 217.671 690.929 217.887 690.908 218.152C690.892 218.514 691.217 218.855 691.487 219.083C693.068 220.405 697.065 221.288 698.693 220.916C698.97 220.854 699.275 220.768 699.442 220.523C699.605 220.289 699.563 220.018 699.482 219.616C699.408 219.228 699.316 218.792 699.629 218.448C700.293 217.707 702.139 218.283 703.281 219.287C704.251 220.134 704.644 221.228 704.797 221.985C704.81 222.053 704.803 222.116 704.786 222.176Z" fill="#F8F8F8"/>
<path d="M691.725 219.734L689.758 226.686C689.698 226.896 689.477 227.028 689.257 226.966C689.047 226.906 688.915 226.685 688.978 226.465L690.945 219.513C691.004 219.303 691.225 219.171 691.445 219.234C691.665 219.296 691.785 219.524 691.725 219.734Z" fill="#F8F8F8"/>
<path d="M698.677 221.701L696.71 228.653C696.651 228.863 696.43 228.995 696.209 228.933C695.999 228.873 695.867 228.652 695.93 228.432L697.897 221.48C697.956 221.27 698.177 221.138 698.398 221.2C698.608 221.26 698.737 221.491 698.677 221.701Z" fill="#F8F8F8"/>
<path d="M707.075 214.075C707.058 214.135 707.031 214.192 706.984 214.244C706.457 214.808 705.56 215.537 704.279 215.747C702.78 216.004 700.906 215.527 700.729 214.548C700.652 214.094 700.95 213.768 701.216 213.476C701.495 213.177 701.673 212.968 701.657 212.682C701.639 212.364 701.377 212.106 701.225 211.955C700.033 210.786 696.167 209.443 694.127 209.741C693.777 209.793 693.319 209.923 693.146 210.231C693.036 210.426 692.789 210.497 692.603 210.39C692.408 210.281 692.337 210.034 692.444 209.848C692.711 209.362 693.24 209.058 694.015 208.953C696.346 208.619 700.434 210.056 701.785 211.39C701.988 211.588 702.419 212.012 702.458 212.639C702.494 213.276 702.099 213.715 701.807 214.021C701.698 214.142 701.51 214.348 701.526 214.406C701.57 214.667 702.808 215.18 704.147 214.954C705.202 214.777 705.957 214.169 706.396 213.688C706.55 213.527 706.8 213.522 706.964 213.666C707.084 213.775 707.115 213.935 707.075 214.075Z" fill="#F8F8F8"/>
<path d="M692.368 211.576C692.323 211.736 692.181 211.858 692.004 211.873C689.288 212.001 687.927 209.52 687.782 208.809C687.736 208.591 687.881 208.383 688.099 208.337C688.318 208.291 688.525 208.436 688.571 208.654C688.632 208.974 689.659 211.187 691.97 211.074C692.19 211.061 692.379 211.233 692.392 211.453C692.381 211.493 692.38 211.536 692.368 211.576Z" fill="#F8F8F8"/>
<path d="M696.637 202.359L694.67 209.311C694.61 209.521 694.389 209.653 694.169 209.591C693.959 209.531 693.827 209.31 693.89 209.09L695.857 202.138C695.916 201.928 696.137 201.796 696.357 201.859C696.575 201.931 696.697 202.149 696.637 202.359Z" fill="#F8F8F8"/>
<path d="M703.59 204.326L701.623 211.278C701.564 211.488 701.343 211.62 701.123 211.558C700.912 211.498 700.781 211.277 700.843 211.057L702.81 204.105C702.87 203.895 703.091 203.763 703.311 203.825C703.518 203.895 703.65 204.116 703.59 204.326Z" fill="#F8F8F8"/>
<g filter="url(#filter12_d_174_42030)">
<circle cx="353.518" cy="353.519" r="59.5186" fill="white"/>
<path d="M397.713 355.018L400.403 355.236L400.119 358.736L397.429 358.518L397.307 360.018L404.007 360.562L404.129 359.062L401.469 358.846L401.753 355.346L404.413 355.561L404.535 354.061L397.835 353.518L397.713 355.018Z" fill="black"/>
<path d="M396.298 364.075C395.736 366.282 396.719 367.951 398.751 368.468C400.783 368.986 402.444 367.991 403.007 365.784C403.557 363.625 402.576 361.947 400.544 361.429C398.512 360.911 396.848 361.916 396.298 364.075ZM397.698 364.431C398.062 363.002 398.702 362.606 400.15 362.975C401.599 363.344 401.971 363.998 401.607 365.427C401.242 366.856 400.596 367.282 399.147 366.913C397.698 366.544 397.334 365.861 397.698 364.431Z" fill="black"/>
<path d="M393.874 371.54L396.423 373.958L397.944 375.245L397.895 375.344L395.952 374.9L392.497 374.296L391.497 376.297L396.797 380.729L397.533 379.257L394.485 376.826L393.269 375.96L393.318 375.861L394.777 376.242L398.685 376.95L399.685 374.949L396.777 372.239L395.597 371.302L395.646 371.203L397.069 371.656L400.842 372.633L401.596 371.125L394.874 369.539L393.874 371.54Z" fill="black"/>
<path d="M387.263 381.998L392.46 386.263L393.414 385.1L388.218 380.835L387.263 381.998Z" fill="black"/>
<path d="M384.029 385.45L387.796 389.273L386.017 391.026L386.968 391.991L391.598 387.427L390.648 386.463L388.868 388.216L385.1 384.393L384.029 385.45Z" fill="black"/>
<path d="M376.451 391.353L377.191 394.787L377.72 396.709L377.624 396.762L376.27 395.3L373.759 392.85L371.804 393.938L373.679 400.588L375.117 399.788L373.973 396.061L373.457 394.66L373.554 394.607L374.543 395.744L377.37 398.534L379.325 397.446L378.453 393.568L378.008 392.128L378.104 392.075L379.023 393.251L381.587 396.188L383.06 395.368L378.406 390.265L376.451 391.353Z" fill="black"/>
<path d="M366.389 395.769C364.21 396.431 363.292 398.136 363.901 400.142C364.511 402.149 366.222 403.055 368.402 402.393C370.533 401.745 371.461 400.037 370.851 398.031C370.242 396.025 368.52 395.121 366.389 395.769ZM366.809 397.151C368.22 396.723 368.89 397.064 369.325 398.495C369.76 399.925 369.393 400.582 367.982 401.01C366.57 401.439 365.872 401.106 365.437 399.676C365.002 398.245 365.398 397.58 366.809 397.151Z" fill="black"/>
<path d="M360.678 397.279L360.978 399.699L359.993 399.821C359.216 399.917 358.946 399.779 358.613 399.295L357.482 397.676L355.75 397.89L356.938 399.563C357.245 400 357.513 400.29 358.13 400.375L358.14 400.455C356.9 400.73 356.353 401.455 356.488 402.54C356.646 403.815 357.672 404.426 359.315 404.222L362.999 403.765L362.172 397.094L360.678 397.279ZM361.339 402.606L359.158 402.877C358.451 402.964 358.104 402.775 358.023 402.118C357.936 401.421 358.23 401.182 358.937 401.094L361.118 400.824L361.339 402.606Z" fill="black"/>
<path d="M353.187 397.902L353.077 400.488L351.383 400.416L349.759 397.756L347.954 397.68L350.115 401.186L347.639 404.394L349.443 404.471L351.341 401.88L353.015 401.952L352.902 404.618L354.405 404.682L354.69 397.966L353.187 397.902Z" fill="black"/>
<path d="M344.376 396.886C342.281 396.461 341.25 397.256 341.033 398.327C340.85 399.232 341.235 400.057 342.662 400.592L344.451 401.262C344.982 401.472 345.171 401.653 345.093 402.037C345.007 402.46 344.641 402.6 343.579 402.385C342.271 402.12 342 401.789 342.128 401.16L342.156 401.022L340.671 400.721L340.659 400.78C340.378 402.167 341.133 403.292 343.158 403.703C345.371 404.151 346.388 403.272 346.59 402.279C346.807 401.207 346.228 400.476 345.086 400.05L343.291 399.409C342.637 399.154 342.44 398.961 342.522 398.557C342.612 398.115 342.923 397.994 344.103 398.233C345.44 398.504 345.695 398.811 345.572 399.421L345.536 399.598L347.011 399.897L347.023 399.838C347.334 398.304 346.372 397.29 344.376 396.886Z" fill="black"/>
<path d="M335.917 394.389L335.257 396.016L337.051 396.744L337.711 395.117L335.917 394.389Z" fill="black"/>
<path d="M330.698 391.819L329.232 394.086L326.283 392.179L327.749 389.913L326.485 389.095L322.835 394.74L324.099 395.557L325.548 393.316L328.497 395.223L327.048 397.464L328.311 398.281L331.962 392.637L330.698 391.819Z" fill="black"/>
<path d="M323.351 386.243C321.672 384.705 319.737 384.782 318.32 386.328C316.903 387.874 316.995 389.809 318.674 391.347C320.316 392.852 322.259 392.782 323.676 391.236C325.092 389.69 324.993 387.748 323.351 386.243ZM322.375 387.309C323.462 388.305 323.509 389.056 322.499 390.158C321.489 391.26 320.738 391.279 319.65 390.282C318.563 389.286 318.494 388.515 319.504 387.413C320.514 386.31 321.288 386.312 322.375 387.309Z" fill="black"/>
<path d="M317.958 380.613L314.625 381.726L312.774 382.464L312.71 382.374L314.015 380.868L316.173 378.103L314.877 376.279L308.473 378.873L309.427 380.215L313.005 378.668L314.341 378.002L314.405 378.092L313.383 379.2L310.921 382.316L312.217 384.14L315.975 382.847L317.358 382.246L317.422 382.336L316.353 383.379L313.717 386.25L314.693 387.624L319.254 382.437L317.958 380.613Z" fill="black"/>
<path d="M311.846 369.875L305.635 372.447L306.211 373.838L312.422 371.265L311.846 369.875Z" fill="black"/>
<path d="M310.339 365.456L305.192 366.977L304.484 364.581L303.185 364.965L305.027 371.2L306.326 370.816L305.618 368.42L310.766 366.899L310.339 365.456Z" fill="black"/>
<path d="M308.718 355.971L305.341 355L303.398 354.559L303.396 354.448L305.325 353.947L308.67 352.892L308.635 350.655L301.889 349.163L301.915 350.809L305.739 351.562L307.218 351.77L307.219 351.881L305.75 352.214L301.955 353.387L301.989 355.624L305.819 356.689L307.298 356.977L307.3 357.087L305.829 357.341L302.029 358.212L302.055 359.897L308.752 358.209L308.718 355.971Z" fill="black"/>
<path d="M309.604 344.793C310.056 342.561 308.992 340.943 306.937 340.526C304.881 340.11 303.271 341.186 302.819 343.418C302.376 345.601 303.439 347.229 305.494 347.646C307.549 348.062 309.161 346.976 309.604 344.793ZM308.188 344.506C307.895 345.952 307.276 346.379 305.811 346.082C304.346 345.785 303.942 345.151 304.235 343.705C304.528 342.26 305.153 341.803 306.618 342.1C308.083 342.397 308.481 343.061 308.188 344.506Z" fill="black"/>
<path d="M310.946 339.139L308.673 338.257L309.032 337.331C309.315 336.602 309.565 336.43 310.15 336.366L312.111 336.137L312.743 334.509L310.707 334.763C310.177 334.827 309.794 334.925 309.426 335.429L309.351 335.4C309.697 334.177 309.317 333.352 308.298 332.957C307.101 332.492 306.077 333.106 305.478 334.649L304.134 338.11L310.401 340.542L310.946 339.139ZM305.942 337.197L306.737 335.149C306.994 334.485 307.326 334.269 307.943 334.509C308.598 334.763 308.669 335.135 308.411 335.799L307.616 337.847L305.942 337.197Z" fill="black"/>
<path d="M313.9 332.322L311.676 330.997L312.543 329.54L315.656 329.374L316.58 327.822L312.468 328.059L310.82 324.356L309.896 325.908L311.275 328.808L310.417 330.247L308.124 328.882L307.354 330.174L313.129 333.615L313.9 332.322Z" fill="black"/>
<path d="M318.92 325.108C320.287 323.466 320.078 322.181 319.237 321.481C318.528 320.891 317.619 320.838 316.47 321.84L315.032 323.097C314.595 323.465 314.346 323.544 314.045 323.294C313.714 323.018 313.764 322.629 314.457 321.796C315.311 320.771 315.731 320.69 316.225 321.101L316.333 321.19L317.302 320.026L317.256 319.988C316.169 319.082 314.82 319.212 313.498 320.801C312.053 322.535 312.343 323.848 313.122 324.496C313.962 325.196 314.881 325.034 315.798 324.231L317.213 322.955C317.749 322.5 318.012 322.419 318.328 322.683C318.675 322.972 318.634 323.303 317.863 324.228C316.99 325.277 316.598 325.355 316.12 324.957L315.982 324.841L315.018 325.998L315.065 326.036C316.267 327.038 317.616 326.673 318.92 325.108Z" fill="black"/>
<path d="M325.135 318.788L324.012 317.439L322.524 318.678L323.648 320.027L325.135 318.788Z" fill="black"/>
<path d="M329.773 315.436L328.461 313.077L331.53 311.37L332.842 313.728L334.157 312.996L330.888 307.122L329.573 307.854L330.871 310.186L327.802 311.894L326.505 309.562L325.19 310.293L328.458 316.167L329.773 315.436Z" fill="black"/>
<path d="M338.143 311.553C340.292 310.801 341.139 309.06 340.447 307.08C339.755 305.101 338.007 304.267 335.857 305.019C333.755 305.754 332.898 307.499 333.59 309.478C334.283 311.458 336.04 312.289 338.143 311.553ZM337.666 310.19C336.273 310.676 335.59 310.363 335.096 308.952C334.603 307.541 334.942 306.869 336.334 306.382C337.726 305.895 338.438 306.199 338.932 307.61C339.425 309.021 339.058 309.703 337.666 310.19Z" fill="black"/>
<path d="M345.667 309.428L346.27 305.967L346.499 303.987L346.609 303.974L347.315 305.837L348.724 309.049L350.945 308.774L351.701 301.907L350.068 302.109L349.73 305.993L349.683 307.485L349.573 307.499L349.083 306.073L347.509 302.426L345.289 302.702L344.642 306.624L344.515 308.125L344.406 308.139L343.995 306.704L342.72 303.02L341.047 303.227L343.447 309.704L345.667 309.428Z" fill="black"/>
<path d="M358.06 309.103L358.733 302.414L357.236 302.264L356.563 308.952L358.06 309.103Z" fill="black"/>
<path d="M362.833 309.885L363.939 304.633L366.384 305.148L366.663 303.822L360.301 302.482L360.022 303.808L362.467 304.323L361.361 309.575L362.833 309.885Z" fill="black"/>
<path d="M371.805 312.853L374.26 310.34L375.57 308.838L375.668 308.889L375.196 310.825L374.54 314.271L376.526 315.3L381.036 310.066L379.575 309.309L377.099 312.32L376.215 313.523L376.117 313.472L376.52 312.02L377.286 308.122L375.299 307.093L372.547 309.96L371.592 311.127L371.494 311.076L371.968 309.66L373.001 305.901L371.505 305.126L369.819 311.823L371.805 312.853Z" fill="black"/>
<path d="M381.153 318.848C382.909 320.299 384.837 320.123 386.174 318.507C387.51 316.891 387.32 314.964 385.565 313.513C383.848 312.093 381.911 312.263 380.575 313.879C379.239 315.495 379.437 317.429 381.153 318.848ZM382.074 317.734C380.937 316.795 380.852 316.047 381.805 314.895C382.757 313.743 383.507 313.686 384.644 314.626C385.781 315.566 385.889 316.332 384.936 317.484C383.984 318.637 383.211 318.674 382.074 317.734Z" fill="black"/>
<path d="M385.661 322.844L387.511 321.257L388.158 322.01C388.668 322.604 388.702 322.906 388.482 323.451L387.758 325.288L388.895 326.613L389.632 324.699C389.826 324.201 389.92 323.817 389.65 323.256L389.711 323.204C390.625 324.085 391.532 324.14 392.362 323.428C393.336 322.591 393.278 321.399 392.2 320.142L389.783 317.325L384.681 321.702L385.661 322.844ZM389.735 319.349L391.166 321.017C391.629 321.557 391.663 321.951 391.161 322.382C390.628 322.84 390.266 322.727 389.803 322.186L388.372 320.518L389.735 319.349Z" fill="black"/>
<path d="M390.241 328.6L392.455 327.259L393.334 328.709L392.019 331.535L392.955 333.08L394.677 329.338L398.72 329.623L397.784 328.078L394.576 327.933L393.708 326.5L395.991 325.117L395.211 323.83L389.462 327.313L390.241 328.6Z" fill="black"/>
<path d="M394.295 336.501C395.098 338.481 396.33 338.902 397.344 338.491C398.199 338.144 398.674 337.367 398.332 335.882L397.902 334.021C397.784 333.462 397.831 333.205 398.194 333.058C398.594 332.896 398.913 333.124 399.32 334.128C399.822 335.364 399.695 335.773 399.1 336.014L398.97 336.067L399.539 337.471L399.595 337.448C400.906 336.917 401.427 335.666 400.651 333.751C399.803 331.659 398.508 331.296 397.569 331.677C396.555 332.088 396.265 332.974 396.541 334.161L396.998 336.011C397.147 336.698 397.094 336.968 396.713 337.123C396.295 337.292 396.022 337.1 395.569 335.984C395.057 334.72 395.172 334.337 395.749 334.103L395.916 334.036L395.351 332.641L395.295 332.664C393.844 333.252 393.53 334.613 394.295 336.501Z" fill="black"/>
<path d="M396.889 344.819L398.609 344.464L398.217 342.567L396.498 342.923L396.889 344.819Z" fill="black"/>
<path d="M344.183 353.517L344.183 349.362C344.183 344.204 347.835 342.092 352.305 344.671L355.911 346.748L359.517 348.825C363.987 351.404 363.987 355.629 359.517 358.208L355.911 360.286L352.305 362.363C347.835 364.942 344.183 362.83 344.183 357.671L344.183 353.517Z" fill="#1A1A1A"/>
</g>
</g>
<defs>
<filter id="filter0_d_174_42030" x="-7.49165" y="21.924" width="451.955" height="526.698" filterUnits="userSpaceOnUse" color-interpolation-filters="sRGB">
<feFlood flood-opacity="0" result="BackgroundImageFix"/>
<feColorMatrix in="SourceAlpha" type="matrix" values="0 0 0 0 0 0 0 0 0 0 0 0 0 0 0 0 0 0 127 0" result="hardAlpha"/>
<feOffset dy="3.18419"/>
<feGaussianBlur stdDeviation="6.36838"/>
<feComposite in2="hardAlpha" operator="out"/>
<feColorMatrix type="matrix" values="0 0 0 0 0.0980392 0 0 0 0 0.0980392 0 0 0 0 0.0980392 0 0 0 1 0"/>
<feBlend mode="normal" in2="BackgroundImageFix" result="effect1_dropShadow_174_42030"/>
<feBlend mode="normal" in="SourceGraphic" in2="effect1_dropShadow_174_42030" result="shape"/>
</filter>
<filter id="filter1_f_174_42030" x="95.678" y="-55.471" width="558.793" height="555.659" filterUnits="userSpaceOnUse" color-interpolation-filters="sRGB">
<feFlood flood-opacity="0" result="BackgroundImageFix"/>
<feBlend mode="normal" in="SourceGraphic" in2="BackgroundImageFix" result="shape"/>
<feGaussianBlur stdDeviation="44.9767" result="effect1_foregroundBlur_174_42030"/>
</filter>
<filter id="filter2_f_174_42030" x="-104.402" y="-26.1487" width="431.006" height="404.864" filterUnits="userSpaceOnUse" color-interpolation-filters="sRGB">
<feFlood flood-opacity="0" result="BackgroundImageFix"/>
<feBlend mode="normal" in="SourceGraphic" in2="BackgroundImageFix" result="shape"/>
<feGaussianBlur stdDeviation="44.9767" result="effect1_foregroundBlur_174_42030"/>
</filter>
<filter id="filter3_f_174_42030" x="-115.357" y="213.703" width="529.976" height="482.94" filterUnits="userSpaceOnUse" color-interpolation-filters="sRGB">
<feFlood flood-opacity="0" result="BackgroundImageFix"/>
<feBlend mode="normal" in="SourceGraphic" in2="BackgroundImageFix" result="shape"/>
<feGaussianBlur stdDeviation="44.9767" result="effect1_foregroundBlur_174_42030"/>
</filter>
<filter id="filter4_d_174_42030" x="193.224" y="0.269922" width="350.261" height="461.707" filterUnits="userSpaceOnUse" color-interpolation-filters="sRGB">
<feFlood flood-opacity="0" result="BackgroundImageFix"/>
<feColorMatrix in="SourceAlpha" type="matrix" values="0 0 0 0 0 0 0 0 0 0 0 0 0 0 0 0 0 0 127 0" result="hardAlpha"/>
<feOffset dy="3.18419"/>
<feGaussianBlur stdDeviation="8.3585"/>
<feComposite in2="hardAlpha" operator="out"/>
<feColorMatrix type="matrix" values="0 0 0 0 0.141176 0 0 0 0 0.121569 0 0 0 0 0.145098 0 0 0 0.37 0"/>
<feBlend mode="normal" in2="BackgroundImageFix" result="effect1_dropShadow_174_42030"/>
<feBlend mode="normal" in="SourceGraphic" in2="effect1_dropShadow_174_42030" result="shape"/>
</filter>
<filter id="filter5_f_174_42030" x="235.936" y="-79.2776" width="591.412" height="577.12" filterUnits="userSpaceOnUse" color-interpolation-filters="sRGB">
<feFlood flood-opacity="0" result="BackgroundImageFix"/>
<feBlend mode="normal" in="SourceGraphic" in2="BackgroundImageFix" result="shape"/>
<feGaussianBlur stdDeviation="44.9767" result="effect1_foregroundBlur_174_42030"/>
</filter>
<filter id="filter6_f_174_42030" x="83.8093" y="-119.354" width="435.3" height="418.934" filterUnits="userSpaceOnUse" color-interpolation-filters="sRGB">
<feFlood flood-opacity="0" result="BackgroundImageFix"/>
<feBlend mode="normal" in="SourceGraphic" in2="BackgroundImageFix" result="shape"/>
<feGaussianBlur stdDeviation="44.9767" result="effect1_foregroundBlur_174_42030"/>
</filter>
<filter id="filter7_f_174_42030" x="-5.85232" y="107.519" width="521.42" height="504.987" filterUnits="userSpaceOnUse" color-interpolation-filters="sRGB">
<feFlood flood-opacity="0" result="BackgroundImageFix"/>
<feBlend mode="normal" in="SourceGraphic" in2="BackgroundImageFix" result="shape"/>
<feGaussianBlur stdDeviation="44.9767" result="effect1_foregroundBlur_174_42030"/>
</filter>
<filter id="filter8_d_174_42030" x="281.262" y="84.6506" width="485.477" height="523.833" filterUnits="userSpaceOnUse" color-interpolation-filters="sRGB">
<feFlood flood-opacity="0" result="BackgroundImageFix"/>
<feColorMatrix in="SourceAlpha" type="matrix" values="0 0 0 0 0 0 0 0 0 0 0 0 0 0 0 0 0 0 127 0" result="hardAlpha"/>
<feOffset dy="3.18419"/>
<feGaussianBlur stdDeviation="6.36838"/>
<feComposite in2="hardAlpha" operator="out"/>
<feColorMatrix type="matrix" values="0 0 0 0 0.144986 0 0 0 0 0.595833 0 0 0 0 0.253363 0 0 0 0.58 0"/>
<feBlend mode="normal" in2="BackgroundImageFix" result="effect1_dropShadow_174_42030"/>
<feBlend mode="normal" in="SourceGraphic" in2="effect1_dropShadow_174_42030" result="shape"/>
</filter>
<filter id="filter9_f_174_42030" x="402.062" y="81.3982" width="594.785" height="572.159" filterUnits="userSpaceOnUse" color-interpolation-filters="sRGB">
<feFlood flood-opacity="0" result="BackgroundImageFix"/>
<feBlend mode="normal" in="SourceGraphic" in2="BackgroundImageFix" result="shape"/>
<feGaussianBlur stdDeviation="44.9767" result="effect1_foregroundBlur_174_42030"/>
</filter>
<filter id="filter10_f_174_42030" x="304.429" y="-25.2327" width="425.302" height="418.401" filterUnits="userSpaceOnUse" color-interpolation-filters="sRGB">
<feFlood flood-opacity="0" result="BackgroundImageFix"/>
<feBlend mode="normal" in="SourceGraphic" in2="BackgroundImageFix" result="shape"/>
<feGaussianBlur stdDeviation="44.9767" result="effect1_foregroundBlur_174_42030"/>
</filter>
<filter id="filter11_f_174_42030" x="137.524" y="171.701" width="505.707" height="519.854" filterUnits="userSpaceOnUse" color-interpolation-filters="sRGB">
<feFlood flood-opacity="0" result="BackgroundImageFix"/>
<feBlend mode="normal" in="SourceGraphic" in2="BackgroundImageFix" result="shape"/>
<feGaussianBlur stdDeviation="44.9767" result="effect1_foregroundBlur_174_42030"/>
</filter>
<filter id="filter12_d_174_42030" x="279.294" y="282.096" width="148.446" height="148.446" filterUnits="userSpaceOnUse" color-interpolation-filters="sRGB">
<feFlood flood-opacity="0" result="BackgroundImageFix"/>
<feColorMatrix in="SourceAlpha" type="matrix" values="0 0 0 0 0 0 0 0 0 0 0 0 0 0 0 0 0 0 127 0" result="hardAlpha"/>
<feOffset dy="2.80087"/>
<feGaussianBlur stdDeviation="7.35229"/>
<feComposite in2="hardAlpha" operator="out"/>
<feColorMatrix type="matrix" values="0 0 0 0 0 0 0 0 0 0 0 0 0 0 0 0 0 0 0.25 0"/>
<feBlend mode="normal" in2="BackgroundImageFix" result="effect1_dropShadow_174_42030"/>
<feBlend mode="normal" in="SourceGraphic" in2="effect1_dropShadow_174_42030" result="shape"/>
</filter>
<clipPath id="clip0_174_42030">
<rect width="35.0261" height="35.0261" fill="white" transform="translate(58.1514 188.051) rotate(-16.6907)"/>
</clipPath>
</defs>
</svg>
