<svg width="39" height="47" viewBox="0 0 39 47" fill="none" xmlns="http://www.w3.org/2000/svg">
<g clip-path="url(#clip0_96_36067)">
<path d="M16.507 28.7557C18.3909 31.4354 22.3845 31.3681 24.1771 28.6265L29.3239 20.7551C30.4427 19.044 30.4662 16.8332 29.4011 15.0937C27.2745 11.6208 22.1422 11.7447 20.2431 15.3699C20.1907 15.47 20.0482 15.4724 19.9924 15.3741C17.9724 11.815 12.8388 11.8638 10.8303 15.4064C9.82437 17.1807 9.92232 19.3895 11.0981 21.062L16.507 28.7557Z" fill="#D94823"/>
<path d="M22.2948 9.74291C22.3018 10.161 22.6465 10.4942 23.0646 10.4872C23.4827 10.4802 23.8159 10.1355 23.8089 9.71741L23.7749 7.69861C23.7678 7.2805 23.4232 6.94727 23.0051 6.95431C22.587 6.96135 22.2537 7.306 22.2608 7.7241L22.2948 9.74291Z" fill="#D94823"/>
<path d="M20.0703 12.557C19.6522 12.564 19.3076 12.2308 19.3006 11.8127L19.2666 9.7939C19.2595 9.37579 19.5928 9.03114 20.0109 9.0241C20.429 9.01706 20.7736 9.35029 20.7807 9.7684L20.8147 11.7872C20.8217 12.2053 20.4885 12.55 20.0703 12.557Z" fill="#D94823"/>
<path d="M16.2384 9.84488C16.2454 10.263 16.59 10.5962 17.0082 10.5892C17.4263 10.5821 17.7595 10.2375 17.7525 9.81939L17.7185 7.80059C17.7114 7.38248 17.3668 7.04924 16.9487 7.05628C16.5306 7.06332 16.1973 7.40797 16.2044 7.82608L16.2384 9.84488Z" fill="#D94823"/>
</g>
<rect opacity="0.8" x="38.4902" y="46.8105" width="37.5551" height="24.2291" rx="2.12669" transform="rotate(-180 38.4902 46.8105)" fill="#FD9909"/>
<defs>
<clipPath id="clip0_96_36067">
<rect width="24.2291" height="24.2291" fill="white" transform="translate(37.6172 17.6172) rotate(134.035)"/>
</clipPath>
</defs>
</svg>
