<svg width="107" height="85" viewBox="0 0 107 85" fill="none" xmlns="http://www.w3.org/2000/svg">
<path fill-rule="evenodd" clip-rule="evenodd" d="M27.3603 28.2726L26.0832 28.5535L25.8201 14.4597L70.0244 3.21284L76.7087 16.702L29.6725 27.1182L27.3603 28.2726Z" fill="black"/>
<path fill-rule="evenodd" clip-rule="evenodd" d="M34.639 26.02L34.1314 26.1324L29.8387 13.439L30.3411 13.3112L34.639 26.02ZM35.4772 12.0043L39.8463 24.192C39.8947 24.3263 39.8249 24.4743 39.6903 24.5225C39.5561 24.5706 39.408 24.5007 39.3602 24.3664L34.9741 12.1324L35.4772 12.0043ZM41.819 10.3908L46.5032 23.2805C46.5167 23.3165 46.5212 23.3535 46.5182 23.3894L46.0355 23.4962C46.0285 23.4839 46.0225 23.4708 46.0175 23.457L41.3158 10.5189L41.819 10.3908ZM52.9821 21.9579L52.4749 22.0702L48.1178 8.78829L48.6199 8.66054L52.9821 21.9579ZM49.8426 8.34939C50.5048 10.4052 53.2428 18.9019 54.1524 21.6988L53.6452 21.811C52.7158 18.9519 49.9817 10.466 49.341 8.47709L49.8426 8.34939ZM57.9146 6.29568L62.1306 18.8326C62.176 18.9678 62.1032 19.1144 61.9681 19.1599C61.8325 19.2054 61.6859 19.1325 61.6405 18.9973L57.412 6.42354L57.9146 6.29568ZM63.4884 4.87755L68.1837 17.6906C68.233 17.8245 68.1642 17.973 68.0301 18.0221C67.8959 18.0712 67.7473 18.0023 67.6985 17.8684L62.9848 5.0057L63.4884 4.87755ZM71.9364 17.7605L71.4268 17.8734L66.3108 4.15945L66.8149 4.03125L71.9364 17.7605Z" fill="#D2D2D5"/>
<path fill-rule="evenodd" clip-rule="evenodd" d="M29.9983 27.0247L37.0764 25.4647L41.5331 19.1804L48.1556 23.0224L59.8181 20.4517L64.2244 14.2381L70.7722 18.0371L75.629 16.9666L82.3306 47.367L33.3928 58.1542L26.6982 27.7834L26.697 27.7832L26.6968 27.7771L26.6916 27.7537L26.6962 27.7527L26.3818 15.5404L29.9983 27.0247Z" fill="#D2D2D5"/>
<path fill-rule="evenodd" clip-rule="evenodd" d="M41.6116 19.3817L36.1523 27.4512L34.9959 26.6689L40.8392 18.0317C41.0526 17.7166 41.4786 17.6302 41.7978 17.8376L50.2916 23.3571L49.5304 24.5279L41.6116 19.3817Z" fill="black"/>
<path fill-rule="evenodd" clip-rule="evenodd" d="M64.2449 14.4762L58.9145 22.6315L57.7457 21.8676L63.4511 13.1386C63.6595 12.8202 64.0841 12.7271 64.4065 12.9293L72.9869 18.3132L72.2444 19.4959L64.2449 14.4762Z" fill="black"/>
<path fill-rule="evenodd" clip-rule="evenodd" d="M38.6418 56.9971L38.1548 57.1043L31.524 26.6885L32.0109 26.5813L38.6418 56.9971Z" fill="white"/>
<path fill-rule="evenodd" clip-rule="evenodd" d="M47.7043 26.6312C47.45 25.4763 46.7469 24.4697 45.7507 23.8328C44.7538 23.196 43.5454 22.981 42.3902 23.2354C41.2351 23.4897 40.2287 24.1924 39.5915 25.1889C38.955 26.1854 38.7397 27.3942 38.994 28.5492L40.3457 34.6882L49.056 32.7703L47.7043 26.6312Z" fill="white"/>
<path fill-rule="evenodd" clip-rule="evenodd" d="M42.0209 23.3348C42.1427 23.2965 42.2667 23.2638 42.3923 23.2359C42.4298 23.2278 42.4675 23.2201 42.5046 23.2125L43.1865 26.3403L47.2639 25.4514C47.3455 25.601 47.4189 25.7555 47.4831 25.914L43.2927 26.8275L43.9904 30.0279L48.2495 29.0994L48.3567 29.5864L44.0966 30.5151L44.7932 33.7102L44.3062 33.8173L43.6094 30.6213L39.6431 31.486L39.536 30.999L43.5032 30.1341L42.8055 26.9337L38.8962 27.786C38.8891 27.615 38.8911 27.4441 38.9035 27.274L42.6993 26.4465L42.0209 23.3348Z" fill="#D2D2D5"/>
<path fill-rule="evenodd" clip-rule="evenodd" d="M46.3223 27.2992L45.3416 28.9486C45.3132 28.9961 45.3291 29.0575 45.3761 29.0855C45.4235 29.1135 45.485 29.098 45.5129 29.0506L46.494 27.4011C46.522 27.3541 46.5066 27.2927 46.4592 27.2647C46.4116 27.2363 46.3508 27.2521 46.3223 27.2992ZM45.8005 27.3149L45.0802 28.4799C45.0511 28.5266 45.0655 28.5878 45.1126 28.6168C45.1593 28.6459 45.221 28.6314 45.2496 28.5849L45.9699 27.4199C45.999 27.3732 45.9845 27.3116 45.9379 27.2824C45.8908 27.2539 45.8292 27.2684 45.8005 27.3149Z" fill="#D2D2D5"/>
<path fill-rule="evenodd" clip-rule="evenodd" d="M51.1072 39.5396C50.5678 37.0899 48.1447 35.5413 45.6947 36.0808L43.9067 36.4745C41.4575 37.0138 39.9082 39.437 40.4476 41.8867L42.5259 51.3252L53.1854 48.9781L51.1072 39.5396Z" fill="white"/>
<path fill-rule="evenodd" clip-rule="evenodd" d="M45.162 36.1966C47.3779 36.1779 49.3808 37.7077 49.876 39.9581L51.9231 49.2544L42.5259 51.3235L42.5033 51.2223L51.414 49.2603L49.389 40.0652C48.8792 37.7502 46.5892 36.2866 44.2741 36.7964C44.0009 36.8565 43.7262 36.9169 43.453 36.9769C42.4975 37.1873 41.6872 37.7008 41.1005 38.3946C41.7288 37.4488 42.71 36.7362 43.9065 36.4728L45.162 36.1966Z" fill="#D2D2D5"/>
<path fill-rule="evenodd" clip-rule="evenodd" d="M70.6478 21.7142C70.3935 20.5593 69.6904 19.5527 68.6941 18.9158C67.6973 18.279 66.4889 18.064 65.3337 18.3184C64.1786 18.5727 63.1722 19.2754 62.535 20.272C61.8984 21.2684 61.6832 22.4772 61.9375 23.6322L63.2892 29.7712L71.9995 27.8533L70.6478 21.7142Z" fill="white"/>
<path fill-rule="evenodd" clip-rule="evenodd" d="M65.1016 18.3749C65.1782 18.3541 65.2551 18.3348 65.3326 18.3179L65.3331 18.3178C65.4177 18.2988 65.5035 18.2827 65.5889 18.2692L66.2518 21.3098L70.162 20.4573C70.247 20.6062 70.3234 20.76 70.391 20.9178L66.358 21.797L67.0557 24.9974L71.172 24.1L71.2792 24.587L67.1619 25.4846L67.8761 28.7605L67.3891 28.8677L66.6747 25.5908L62.5652 26.4867L62.458 25.9998L66.5685 25.1036L65.8708 21.9032L61.8338 22.7833C61.8296 22.6117 61.8351 22.4401 61.8504 22.2693L65.7646 21.416L65.1016 18.3749Z" fill="#D2D2D5"/>
<path fill-rule="evenodd" clip-rule="evenodd" d="M64.9266 23.1379L63.8015 24.6938C63.7694 24.7385 63.7794 24.8007 63.8242 24.8328C63.8686 24.8654 63.9312 24.8554 63.9633 24.8106L65.0883 23.2547C65.1205 23.2105 65.1104 23.1479 65.0656 23.1158C65.0214 23.0836 64.9587 23.0936 64.9266 23.1379ZM64.3216 23.1417L63.3409 24.491C63.3082 24.5354 63.3183 24.598 63.3627 24.6307C63.4074 24.6628 63.4696 24.6528 63.5022 24.6085L64.4829 23.2591C64.5156 23.2147 64.5055 23.1521 64.4608 23.12C64.4164 23.0874 64.3543 23.0973 64.3216 23.1417Z" fill="#D2D2D5"/>
<path d="M73.1003 32.3589L65.8674 33.9668L67.9601 43.3801L75.193 41.7721L73.1003 32.3589Z" fill="white"/>
<path fill-rule="evenodd" clip-rule="evenodd" d="M71.7384 42.5408L71.2516 42.649L69.2554 33.2139L69.7422 33.1058L71.7384 42.5408Z" fill="#D2D2D5"/>
<path d="M62.1803 34.7749L54.9474 36.3828L57.0401 45.7961L64.273 44.1881L62.1803 34.7749Z" fill="white"/>
<path fill-rule="evenodd" clip-rule="evenodd" d="M61.0237 44.911L60.537 45.0192L58.3939 35.6172L58.8806 35.509L61.0237 44.911Z" fill="#D2D2D5"/>
<path fill-rule="evenodd" clip-rule="evenodd" d="M33.4778 42.1463L31.1076 43.3831L33.0424 52.258L35.7986 52.7916L33.4778 42.1463ZM30.4655 28.3288C30.3292 27.7038 29.749 27.2776 29.1117 27.3348C28.4743 27.3916 27.979 27.914 27.956 28.5539C27.956 28.5539 27.956 28.5544 27.956 28.5544C27.9484 28.7669 27.9674 28.9791 28.0126 29.1862L29.735 37.0871L32.0329 35.5184L30.4655 28.3288Z" fill="white"/>
<path fill-rule="evenodd" clip-rule="evenodd" d="M43.523 55.9218L42.4787 51.1316C42.4494 50.9972 42.5348 50.8642 42.6692 50.8349C42.8037 50.8056 42.9366 50.891 42.9659 51.0254L44.01 55.8146L43.523 55.9218ZM47.3003 55.0891L46.7739 52.6745L45.0025 53.0607C44.9844 53.0647 44.966 53.0666 44.9476 53.0666C44.92 53.0665 44.8929 53.0617 44.867 53.0525L44.8664 53.0521C44.7608 53.043 44.669 52.966 44.6452 52.8569L44.1817 50.7308C44.1523 50.5963 44.2377 50.4634 44.3722 50.4341C44.5066 50.4048 44.6395 50.4901 44.6689 50.6246L45.0799 52.51L46.9133 52.1338L55.4743 50.2674L55.1027 48.5627L52.5074 49.1285C52.3729 49.1578 52.24 49.0725 52.2107 48.938C52.1813 48.8036 52.2667 48.6706 52.4011 48.6413L55.2401 48.0224C55.3745 47.9931 55.5074 48.0784 55.5368 48.2129L55.9615 50.1612L57.6219 49.7992C57.7563 49.7699 57.8893 49.8553 57.9186 49.9897L58.4925 52.6221L58.0055 52.7293L57.4845 50.3396L47.2611 52.5683L47.7873 54.9819L47.3003 55.0891Z" fill="white"/>
<path fill-rule="evenodd" clip-rule="evenodd" d="M57.1351 27.5221C57.0595 27.1331 56.8322 26.79 56.5036 26.5685C56.1751 26.3469 55.7715 26.2649 55.3829 26.3405C55.3423 26.3484 55.3016 26.3563 55.2615 26.3641C54.8724 26.4398 54.5295 26.6669 54.3079 26.9955C54.0863 27.3241 54.0042 27.7273 54.0799 28.1163C54.2823 29.1574 54.5183 30.3708 54.5183 30.3708L57.5736 29.7766L57.1351 27.5221Z" fill="white"/>
<path fill-rule="evenodd" clip-rule="evenodd" d="M56.1956 27.7062L55.2465 29.3197C55.2185 29.3671 55.2344 29.428 55.2818 29.4559C55.3292 29.4838 55.3906 29.4679 55.4185 29.4205L56.3673 27.8076C56.3952 27.7602 56.3793 27.6989 56.3319 27.6709C56.2844 27.643 56.2231 27.6589 56.1956 27.7062ZM55.6348 27.7111L55.0064 28.752C54.9778 28.799 54.9933 28.8605 55.0403 28.889C55.0874 28.9175 55.1488 28.9021 55.1768 28.8551L55.8053 27.8143C55.8337 27.7668 55.8189 27.7057 55.7718 27.6772C55.7243 27.6487 55.6632 27.6636 55.6348 27.7111Z" fill="#D2D2D5"/>
<path fill-rule="evenodd" clip-rule="evenodd" d="M34.6375 5.4043C34.6375 5.4043 32.5436 5.4031 34.1299 9.49331L37.1093 8.77731L34.6375 5.4043Z" fill="#80B1AE"/>
<path fill-rule="evenodd" clip-rule="evenodd" d="M34.131 5.51528C34.131 5.51528 35.8184 5.14474 39.6899 16.6879L60.8548 11.6551C60.8548 11.6551 58.3297 1.59481 55.6135 0L34.131 5.51528Z" fill="#AACFCC"/>
<path d="M41.0512 11.8318C41.7033 12.0135 42.3591 11.9609 43.0195 11.6737C43.793 11.3165 44.0635 10.8614 43.831 10.3086C43.637 9.85729 43.2562 9.70351 42.6894 9.84679C42.4338 9.92084 42.1525 10.0014 41.8462 10.0882C41.2931 10.232 40.8164 10.2148 40.4154 10.037C40.0019 9.85481 39.6986 9.54452 39.5039 9.10677C39.27 8.58092 39.2553 8.07953 39.4605 7.60244C39.6559 7.13303 40.0613 6.75811 40.6786 6.47696C41.4316 6.1618 42.1724 6.08127 42.9011 6.23537L42.7298 7.21192C42.1477 7.11465 41.5847 7.18039 41.039 7.40984C40.7599 7.53399 40.5583 7.70782 40.4341 7.93124C40.3044 8.16373 40.3006 8.4259 40.4244 8.71711C40.5016 8.89061 40.6384 9.01772 40.8348 9.09855C41.0333 9.18174 41.2927 9.18513 41.6131 9.10855C41.7896 9.06303 42.0286 8.99464 42.3292 8.90381C42.9258 8.73079 43.4313 8.74839 43.8458 8.95646C44.2547 9.16049 44.5544 9.47564 44.7442 9.90241C45.2258 11.0668 44.7835 11.9626 43.4175 12.5899C42.5291 12.9851 41.6434 13.0493 40.7596 12.7827L41.0512 11.8318Z" fill="black"/>
<path fill-rule="evenodd" clip-rule="evenodd" d="M40.0768 5.82401L42.7899 13.6483L43.2608 13.485L40.5478 5.66068L40.0768 5.82401Z" fill="black"/>
<path fill-rule="evenodd" clip-rule="evenodd" d="M40.8992 5.53983L43.6122 13.3642L44.0831 13.2008L41.3701 5.3765L40.8992 5.53983Z" fill="black"/>
<path fill-rule="evenodd" clip-rule="evenodd" d="M44.456 5.53922L49.5061 4.25728L49.6039 4.64401L44.3764 5.97097C44.2759 5.99649 44.1725 5.94077 44.1387 5.84277L43.797 4.85348C43.7787 4.80074 43.7834 4.7428 43.8101 4.69364C43.8363 4.64461 43.8822 4.60881 43.9364 4.59507L49.1393 3.27437L49.2376 3.66097L44.2449 4.92831L44.456 5.53922Z" fill="black"/>
<path fill-rule="evenodd" clip-rule="evenodd" d="M55.1377 2.16288L49.2374 3.66061L49.1391 3.27401L55.2172 1.73112C55.3178 1.7056 55.4211 1.76132 55.4549 1.85928L55.7967 2.84857C55.8149 2.90131 55.8102 2.95929 55.7835 3.00845C55.7569 3.05761 55.7109 3.09341 55.6568 3.10715L49.6038 4.64365L49.5059 4.25692L55.3487 2.77379L55.1377 2.16288Z" fill="black"/>
<path fill-rule="evenodd" clip-rule="evenodd" d="M44.7868 7.87706L49.4732 6.68748L49.5712 7.07415L44.7073 8.30881C44.6067 8.33435 44.5032 8.27866 44.4694 8.18066L44.1276 7.19137C44.1094 7.13863 44.1141 7.08071 44.1406 7.03157C44.1672 6.98243 44.2133 6.94661 44.267 6.93297L49.4734 5.61139L49.5714 5.99807L44.5758 7.26615L44.7868 7.87706Z" fill="black"/>
<path fill-rule="evenodd" clip-rule="evenodd" d="M56.487 4.24471L49.5737 5.9996L49.4757 5.61292L56.5665 3.81296C56.6672 3.78742 56.7701 3.84324 56.8039 3.9412L57.1457 4.93049C57.1639 4.98323 57.1593 5.0412 57.1327 5.09034C57.1066 5.13934 57.0606 5.17516 57.0063 5.18894L49.5735 7.07569L49.4755 6.68901L56.698 4.85562L56.487 4.24471Z" fill="black"/>
<path fill-rule="evenodd" clip-rule="evenodd" d="M47.5931 9.5862L51.7228 8.5379L51.821 8.92454L47.5135 10.018C47.4133 10.0434 47.3101 9.98765 47.2762 9.88965L46.9345 8.90035C46.9163 8.84761 46.9209 8.78972 46.9476 8.74055C46.9738 8.69149 47.0199 8.65567 47.0736 8.64204L51.2444 7.58332L51.3421 7.97007L47.3821 8.97529L47.5931 9.5862Z" fill="black"/>
<path fill-rule="evenodd" clip-rule="evenodd" d="M57.5285 6.39981L51.3421 7.97018L51.2443 7.58343L57.6081 5.96803C57.7088 5.94248 57.812 5.99824 57.8458 6.09619L58.1875 7.08549C58.2058 7.13823 58.2012 7.19617 58.1745 7.24534C58.1483 7.2944 58.1022 7.33021 58.0481 7.34396L51.821 8.92465L51.7228 8.53801L57.7395 7.01071L57.5285 6.39981Z" fill="black"/>
<path fill-rule="evenodd" clip-rule="evenodd" d="M46.9411 12.176L52.3395 10.8056L52.4375 11.1923L46.8614 12.6077C46.7612 12.6332 46.6578 12.5775 46.6239 12.4795L46.2822 11.4902C46.264 11.4375 46.2688 11.3795 46.2953 11.3304C46.3219 11.2812 46.3677 11.2455 46.4217 11.2318L51.9812 9.82054L52.0797 10.2071L46.73 11.5651L46.9411 12.176Z" fill="black"/>
<path fill-rule="evenodd" clip-rule="evenodd" d="M58.4645 8.58567L52.0792 10.2065L51.9807 9.81995L58.5442 8.15389C58.6444 8.12844 58.7478 8.18414 58.7817 8.2821L59.1234 9.2714C59.1416 9.32413 59.1368 9.38215 59.1102 9.43128C59.0837 9.4804 59.0379 9.51617 58.9839 9.52988L52.4371 11.1917L52.3391 10.805L58.6755 9.19658L58.4645 8.58567Z" fill="black"/>
<path fill-rule="evenodd" clip-rule="evenodd" d="M18.7801 39.9766C18.7801 39.9766 26.5807 51.0997 29.9781 55.9445C30.967 57.3542 32.4967 58.2906 34.2024 58.53C35.5776 58.723 37.1633 58.9454 38.1287 59.081C38.6772 59.1578 39.2227 58.9234 39.5448 58.4731C40.1143 57.6768 40.9435 56.516 40.9435 56.516C40.9435 56.516 41.8381 56.2657 42.251 56.15C42.4195 56.1031 42.5292 55.9405 42.5098 55.767C42.4863 55.6104 42.4051 55.417 42.1692 55.232C41.8356 54.9707 41.4631 54.9094 37.9831 55.4215C37.9831 55.4215 38.1282 51.9359 34.8756 51.5794L32.0858 46.5855L18.7801 39.9766Z" fill="#FFC5BD"/>
<path fill-rule="evenodd" clip-rule="evenodd" d="M40.9442 56.516L40.5333 57.0909L38.6868 57.4998L38.3891 58.2223C38.3368 58.35 38.1907 58.4103 38.0635 58.358C37.9363 58.3056 37.8755 58.1595 37.9279 58.0323L38.0934 57.6309L35.0826 58.2976C34.948 58.327 34.8148 58.2423 34.7854 58.1081C34.7555 57.9735 34.8403 57.8404 34.9749 57.8109L41.3705 56.3948C41.3765 56.3938 41.3825 56.3923 41.3889 56.3918L40.9442 56.516ZM37.9613 54.9248C37.9917 55.227 37.9837 55.4215 37.9837 55.4215C38.1453 55.3975 38.3004 55.3751 38.4489 55.3541C38.4455 55.3546 38.4425 55.3551 38.439 55.3556L37.5369 55.4947C37.4008 55.5157 37.2736 55.422 37.2527 55.2863C37.2318 55.1502 37.325 55.0225 37.4611 55.0016L37.9613 54.9248Z" fill="#F2887B"/>
<path fill-rule="evenodd" clip-rule="evenodd" d="M18.8127 39.9927C18.8248 40.0049 18.8358 40.0184 18.8455 40.0335C23.3043 46.9401 29.9226 46.8857 32.1222 46.6508L32.3854 47.1221C30.7276 47.3305 25.8362 47.5554 21.5119 43.8719L18.7801 39.9766L18.8127 39.9927Z" fill="#F2887B"/>
<path fill-rule="evenodd" clip-rule="evenodd" d="M10.6229 58.6501C9.67223 55.5107 9.01014 52.4689 8.85057 49.7867C8.6208 45.9263 10.8204 43.2879 13.7235 42.9424C14.6562 42.8317 16.6627 42.7723 18.5132 44.6158L18.5204 44.5994C18.5204 44.5994 25.4888 51.1156 29.8476 59.9924C31.0677 62.4896 30.6755 65.4521 28.9012 67.5394C30.467 72.1768 31.9548 77.2684 33.1368 82.5455C33.1368 82.5455 35.1754 82.9474 36.2255 84.2564H22.6212C22.3715 84.2564 22.1406 84.1237 22.0149 83.9078C21.2326 82.545 18.2965 77.3362 15.3915 70.9591C12.2033 70.1787 8.31483 68.5437 3.64664 65.5284C3.64664 65.5284 2.05507 66.6887 0.531921 66.6927C0.531921 66.6927 5.82097 59.3417 7.0565 57.6249C7.20635 57.4165 7.47995 57.3392 7.71671 57.4379C8.5999 57.8064 10.6229 58.6501 10.6229 58.6501Z" fill="url(#paint0_linear_96_14146)"/>
<path fill-rule="evenodd" clip-rule="evenodd" d="M29.7267 59.7432C29.7679 59.8259 29.8091 59.9092 29.8501 59.9925C29.8905 60.0753 29.9291 60.1585 29.9659 60.2418H26.6031C26.4655 60.2418 26.3538 60.1301 26.3538 59.9925C26.3538 59.8549 26.4655 59.7432 26.6031 59.7432H29.7267Z" fill="#F2887B"/>
<path fill-rule="evenodd" clip-rule="evenodd" d="M9.9903 58.386L10.6218 58.6493C11.7356 61.6108 15.6344 71.4918 15.3918 70.9593C15.2031 70.9134 15.0119 70.8641 14.8182 70.8117C13.3386 67.2718 10.6956 60.2639 9.9903 58.386ZM19.7191 45.7998C20.2096 46.3104 20.8272 46.9746 21.5269 47.7724C25.1371 54.0309 26.818 60.5581 29.255 67.0873C29.1441 67.2419 29.0262 67.393 28.9015 67.5396C28.7001 67.6588 23.7727 50.876 19.7191 45.7998Z" fill="#F28476"/>
<path fill-rule="evenodd" clip-rule="evenodd" d="M26.7608 61.1015C26.8198 61.255 26.8785 61.4081 26.9371 61.5617L26.9495 61.5946L11.5817 61.5816L11.5748 61.5617C11.5224 61.4116 11.4705 61.2615 11.4189 61.1109L11.4094 61.083L26.7586 61.096L26.7608 61.1015Z" fill="#F28476"/>
<path fill-rule="evenodd" clip-rule="evenodd" d="M15.3842 25.1136C16.608 24.6946 21.1189 24.1822 23.1224 28.9546C23.5236 29.9103 26.0636 37.5067 32.2803 36.8282C32.2803 36.8282 34.9957 36.6408 38.548 33.9948C38.548 33.9948 42.8448 30.6893 47.3485 30.1625C47.5604 30.1398 47.7719 30.205 47.9339 30.3428C48.096 30.4807 48.1947 30.6791 48.2062 30.8915C48.2271 31.2412 48.0292 31.6555 47.2543 32.0135C47.2543 32.0135 44.8907 32.8701 44.057 33.6479C44.057 33.6479 45.3978 33.1594 45.8476 34.1873C45.9279 34.3704 46.1254 35.1796 45.1734 35.7952C45.1734 35.7952 46.3278 35.5207 46.625 36.4028C46.7741 36.846 46.7197 37.3554 45.8476 37.8987C45.8476 37.8987 46.419 37.8155 46.625 38.2548C46.81 38.6506 46.7227 39.0897 45.1734 40.38C43.6301 41.6655 36.162 46.9774 30.91 46.7271C25.6579 46.4768 21.321 43.7626 18.5766 39.7503C18.5766 39.7503 13.2845 42.153 10.0494 37.4699C9.10735 36.106 7.11527 27.9448 15.3842 25.1136Z" fill="#FFC5BD"/>
<path fill-rule="evenodd" clip-rule="evenodd" d="M44.5399 36.3921C44.5399 36.3921 45.1402 37.3926 45.213 38.3857C45.223 38.523 45.3427 38.6262 45.4798 38.6161C45.6174 38.606 45.7207 38.4864 45.7102 38.3492C45.6294 37.2475 44.9677 36.1363 44.9677 36.1363C44.8974 36.0182 44.7668 36.0657 44.6486 36.1363C44.5304 36.2069 44.4691 36.274 44.5399 36.3921Z" fill="#FD9909"/>
<path fill-rule="evenodd" clip-rule="evenodd" d="M44.802 38.4819C45.4312 38.1392 45.6601 38.0019 45.8476 37.899C45.8476 37.899 46.2216 37.8445 46.4734 38.0565C46.0904 38.3516 45.6257 38.601 45.0403 38.9199C44.9191 38.9857 44.7675 38.941 44.7022 38.8201C44.6364 38.6993 44.6808 38.5478 44.802 38.4819ZM44.1452 36.3027C44.9376 35.9179 44.9879 35.8836 45.1734 35.7955C45.1734 35.7955 45.5404 35.7083 45.9134 35.7902C45.5599 36.119 45.1256 36.381 44.3626 36.7513C44.239 36.8114 44.0899 36.7597 44.0295 36.6359C43.9697 36.5121 44.0211 36.3628 44.1452 36.3027ZM43.1948 34.1053C43.6601 33.8617 43.8825 33.7425 44.057 33.6482C44.057 33.6482 44.5611 33.4645 45.0553 33.5595C44.3616 33.9768 44.03 34.2308 43.4257 34.547C43.304 34.6109 43.1534 34.5637 43.0896 34.4418C43.0258 34.3199 43.0727 34.1691 43.1948 34.1053Z" fill="#F2887B"/>
<path fill-rule="evenodd" clip-rule="evenodd" d="M18.5753 39.7509C18.4805 39.7935 13.255 42.1106 10.0494 37.4699C9.10735 36.106 7.11527 27.9448 15.3842 25.1136C16.608 24.6946 21.1189 24.1822 23.1224 28.9546C23.2958 29.3675 23.8685 31.0204 24.9642 32.7092L17.1085 36.9291C17.4159 37.8919 17.9904 38.8132 18.5753 39.7509Z" fill="#F28476"/>
<path fill-rule="evenodd" clip-rule="evenodd" d="M16.4611 40.3019C15.3252 37.0047 15.6255 34.9831 15.8858 34.1046C15.9044 34.0466 15.9608 34.0094 16.0213 34.0152C16.0819 34.0211 16.1302 34.0684 16.1373 34.1288C16.2803 34.9289 16.6908 36.0218 17.1463 37.0467C17.362 37.6759 17.6878 38.2882 18.0517 38.8999C18.2505 39.2694 18.4259 39.5691 18.5538 39.7596C18.4127 39.8205 17.5935 40.1584 16.4611 40.3019Z" fill="#AF2B18"/>
<path fill-rule="evenodd" clip-rule="evenodd" d="M17.2897 36.5207L17.9881 37.8077C18.0537 37.9287 18.2052 37.9736 18.3261 37.908C18.4471 37.8423 18.492 37.6909 18.4264 37.5699L17.728 36.2829C17.6623 36.162 17.5109 36.117 17.3899 36.1827C17.269 36.2483 17.2241 36.3998 17.2897 36.5207ZM18.6301 35.8262L19.2678 37.1443C19.3277 37.2682 19.477 37.3201 19.6008 37.2602C19.7247 37.2002 19.7766 37.051 19.7167 36.9272L19.0789 35.609C19.0189 35.4852 18.8698 35.4333 18.7459 35.4932C18.622 35.5531 18.5701 35.7023 18.6301 35.8262ZM19.9717 35.0504L20.6249 36.361C20.6863 36.4841 20.8361 36.5343 20.9593 36.4729C21.0824 36.4115 21.1325 36.2617 21.0712 36.1385L20.418 34.828C20.3566 34.7048 20.2068 34.6547 20.0837 34.7161C19.9605 34.7774 19.9103 34.9272 19.9717 35.0504ZM21.3132 34.3225L21.9934 35.6191C22.0574 35.741 22.2082 35.788 22.3301 35.7241C22.4519 35.6602 22.4989 35.5093 22.435 35.3875L21.7547 34.0908C21.6908 33.9689 21.5399 33.9219 21.4181 33.9858C21.2962 34.0498 21.2492 34.2006 21.3132 34.3225ZM22.648 33.6148L23.3283 34.9115C23.3922 35.0333 23.543 35.0804 23.6649 35.0164C23.7867 34.9525 23.8337 34.8017 23.7698 34.6799L23.0895 33.3831C23.0256 33.2613 22.8747 33.2143 22.7529 33.2782C22.6311 33.3421 22.584 33.493 22.648 33.6148ZM23.9828 32.9072L24.6631 34.2039C24.727 34.3257 24.8778 34.3727 24.9997 34.3088C25.1215 34.2449 25.1686 34.094 25.1046 33.9722L24.4243 32.6755C24.3604 32.5536 24.2096 32.5066 24.0877 32.5705C23.9659 32.6345 23.9189 32.7853 23.9828 32.9072Z" fill="#F28476"/>
<path d="M15.204 23.83C17.2109 23.83 18.8378 22.2031 18.8378 20.1963C18.8378 18.1894 17.2109 16.5625 15.204 16.5625C13.1971 16.5625 11.5703 18.1894 11.5703 20.1963C11.5703 22.2031 13.1971 23.83 15.204 23.83Z" fill="#FFC5BD"/>
<path fill-rule="evenodd" clip-rule="evenodd" d="M12.4008 19.4575C12.4239 19.4966 12.3118 19.4386 12.2671 19.4302C12.1441 19.4071 12.0237 19.3711 11.903 19.3384C11.5792 19.2506 11.2629 19.1452 10.9482 19.0291C9.98345 18.673 9.0283 18.2804 8.08557 17.8699C6.01022 16.9664 1.4091 14.5581 0.276134 17.8283C0.133323 18.2406 0.0438173 18.6792 0.0114055 19.1143C-0.0422982 19.8346 0.0949283 20.5516 0.354472 21.2223C1.63788 24.5392 3.98184 24.3212 6.83821 23.2501C8.89312 22.4795 10.671 21.4133 12.5376 20.2933" fill="black"/>
<path fill-rule="evenodd" clip-rule="evenodd" d="M12.7091 22.8372C12.008 22.1746 11.5703 21.2361 11.5703 20.1963C11.5703 18.1907 13.1985 16.5625 15.204 16.5625C15.8837 16.5625 16.52 16.7495 17.0645 17.075C16.9209 18.3109 16.2116 21.4564 12.7091 22.8372Z" fill="black"/>
<path fill-rule="evenodd" clip-rule="evenodd" d="M87.5834 40.0354C87.5834 40.0354 89.3506 39.63 91.025 38.4026C93.6878 36.4473 94.4073 32.7781 92.681 29.9618C90.7577 26.8198 86.7751 22.1223 81.5259 25.5874C80.3615 26.356 78.1102 28.0667 77.451 35.9601C77.451 35.9601 77.5003 42.7442 72.114 43.3949C67.352 43.9699 63.2676 46.0083 61.9362 47.7591C61.831 47.8987 61.8051 48.0827 61.8679 48.2457C61.9307 48.4088 62.0734 48.5275 62.2449 48.5604C63.0696 48.7179 64.3447 48.9613 64.3447 48.9613C64.3447 48.9613 63.8136 49.788 61.8779 51.2441C61.8779 51.2441 60.3106 52.2428 60.4837 53.6615C60.5011 53.8041 60.5794 53.9322 60.6986 54.0125C60.8178 54.0928 60.9659 54.1177 61.105 54.0808C61.3937 53.9647 61.842 53.7677 62.5082 53.4261C62.5082 53.4261 64.2484 54.1367 66.1173 52.9983C66.1173 52.9983 77.1069 53.0786 83.9608 46.679C85.2737 45.4533 86.805 43.6183 87.5834 40.0354Z" fill="#FFB000"/>
<path fill-rule="evenodd" clip-rule="evenodd" d="M68.1993 52.8892L67.6698 52.2973C67.578 52.1951 67.5865 52.037 67.6892 51.9452C67.7914 51.8535 67.9495 51.8625 68.0413 51.9647L68.8142 52.8283C68.5987 52.8518 68.3933 52.8717 68.1993 52.8892Z" fill="#FFCF84"/>
<path fill-rule="evenodd" clip-rule="evenodd" d="M62.5099 53.4255C62.4132 53.4754 66.696 50.4661 66.696 50.4661C66.8092 50.3878 66.9643 50.4157 67.0431 50.5289C67.1214 50.6416 67.0934 50.7972 66.9807 50.876L63.0888 53.5786C62.7263 53.5138 62.5099 53.4255 62.5099 53.4255ZM66.1191 52.9977C65.9934 53.0745 68.1461 51.5207 68.1461 51.5207C68.2588 51.4419 68.4143 51.4693 68.4931 51.582C68.5719 51.6947 68.5445 51.8503 68.4318 51.9296L66.9389 52.9752C66.4148 53.0002 66.1191 52.9977 66.1191 52.9977ZM63.8223 48.8609C64.1893 48.3743 64.303 47.8931 64.325 47.7829L64.328 47.7679L64.329 47.7609C64.3344 47.7305 64.3419 47.7151 64.3429 47.7116C64.3688 47.6487 64.4058 47.6203 64.4232 47.6069C64.5035 47.546 64.5818 47.5465 64.6486 47.5675C64.6994 47.5834 64.7752 47.6183 64.8111 47.728C64.8126 47.733 64.8301 47.7694 64.8211 47.8377C64.8211 47.8402 64.8191 47.8542 64.8141 47.8796C64.7792 48.0556 64.3464 48.9607 64.3464 48.9607L63.8223 48.8609ZM64.8176 47.8597C64.8146 47.8721 64.8111 47.8846 64.8062 47.8966C64.8077 47.8931 64.8096 47.8881 64.8121 47.8806C64.8136 47.8751 64.8156 47.8691 64.8171 47.8617L64.8186 47.8537L64.8176 47.8597Z" fill="#FD8509"/>
<path fill-rule="evenodd" clip-rule="evenodd" d="M74.5222 42.5253C77.4842 40.5264 77.4507 35.9601 77.4507 35.9601C78.1099 28.0667 80.3613 26.356 81.5256 25.5874C86.7748 22.1223 90.7575 26.8198 92.6808 29.9618C94.4071 32.7781 93.6875 36.4473 91.0248 38.4026C89.3503 39.63 87.5831 40.0354 87.5831 40.0354C86.8048 43.6183 85.2734 45.4533 83.9605 46.679C82.8505 47.7157 81.6314 48.5823 80.3683 49.3073L74.5222 42.5253Z" fill="#FD9909"/>
<path fill-rule="evenodd" clip-rule="evenodd" d="M87.5837 40.0354C87.5837 40.0354 87.865 36.4972 87.7164 33.961C87.7054 33.8608 87.7702 33.7678 87.8675 33.7427C87.9652 33.7177 88.0664 33.7681 88.1053 33.8612C88.6194 35.1237 89.3609 37.2179 89.5923 39.2723C88.4758 39.8309 87.5837 40.0354 87.5837 40.0354Z" fill="#D84B26"/>
<path d="M82.5142 23.0614C84.4402 23.0614 86.0015 21.5001 86.0015 19.5742C86.0015 17.6482 84.4402 16.0869 82.5142 16.0869C80.5883 16.0869 79.027 17.6482 79.027 19.5742C79.027 21.5001 80.5883 23.0614 82.5142 23.0614Z" fill="#FFB000"/>
<path fill-rule="evenodd" clip-rule="evenodd" d="M81.2682 16.3156C81.6541 16.1678 82.0735 16.0869 82.5118 16.0869C84.4366 16.0869 85.9988 17.6495 85.9988 19.5741C85.9988 20.9118 85.2444 22.0745 84.1379 22.6593L83.3176 20.8467C83.4562 20.8435 83.5988 20.8064 83.732 20.7323C84.1309 20.5104 84.2929 20.0401 84.094 19.6829C83.8955 19.3256 83.4104 19.2157 83.0114 19.4376C82.9167 19.4904 82.8354 19.5572 82.7686 19.6333L81.2682 16.3156Z" fill="black"/>
<path fill-rule="evenodd" clip-rule="evenodd" d="M95.9636 41.3503C93.6025 40.3737 90.2122 40.4665 84.3736 48.4457C83.308 49.9018 70.5672 64.4596 68.625 71.3509C68.1548 73.0178 66.8962 76.7925 66.7147 82.6591C65.5668 82.9438 64.59 83.3921 64.0475 84.2592H77.6255C78.0454 84.2592 78.3969 83.9401 78.4378 83.5222C78.6632 81.6752 79.7512 76.621 84.9446 71.3509C84.9446 71.3509 92.6725 79.5176 99.2711 82.1968C97.476 82.67 96.5051 83.3981 95.9636 84.2592H102.837C103.279 84.2592 103.686 84.0169 103.897 83.6279C104.591 82.3494 106.155 79.4653 106.872 78.1434C107.093 77.736 107.022 77.2323 106.697 76.9017C105.045 75.2198 99.9722 70.0449 95.9636 65.8618C97.4949 61.0045 99.0048 55.9997 100.365 49.9591C100.924 47.4823 100.227 44.8894 98.5042 43.025C97.7916 42.2566 97.1119 41.8255 95.9636 41.3503Z" fill="url(#paint1_linear_96_14146)"/>
<path fill-rule="evenodd" clip-rule="evenodd" d="M96.0966 65.4307C96.0512 65.5748 96.0058 65.7184 95.961 65.8625C96.2816 66.1971 96.6092 66.5381 96.9413 66.8832L95.5032 68.1872C95.4334 68.25 95.3297 68.258 95.2514 68.2051C95.1736 68.1528 95.1412 68.054 95.1736 67.9653L96.0966 65.4307Z" fill="#D9512E"/>
<path fill-rule="evenodd" clip-rule="evenodd" d="M104.266 74.4189C104.386 74.5411 104.502 74.6603 104.616 74.777L98.5227 81.8717C98.3676 81.7998 98.2116 81.7256 98.0565 81.6493L104.266 74.4189ZM66.9287 79.4966L79.1689 80.4226C79.1131 80.5891 79.0607 80.7522 79.0123 80.9108L66.8799 79.9933C66.8953 79.8252 66.9118 79.6597 66.9287 79.4966ZM88.6336 43.54C86.682 45.8308 83.1346 53.1394 82.3004 60.09C81.7439 64.7268 82.3882 69.2106 85.5909 71.8988C85.6523 71.9502 85.6827 72.025 85.6802 72.0993C85.2095 71.629 84.9467 71.3508 84.9467 71.3508C84.8375 71.4615 84.7303 71.5722 84.6246 71.6829C81.8521 68.8531 81.2672 64.5169 81.8052 60.0306C82.4615 54.565 84.7761 48.885 86.7099 45.5147C87.3885 44.7423 88.0288 44.0895 88.6336 43.54Z" fill="#FD9409"/>
<path fill-rule="evenodd" clip-rule="evenodd" d="M47.4959 31.8881C47.8375 32.4892 48.0494 33.0428 48.0858 33.3886C48.1108 33.6269 48.0455 33.7856 47.9377 33.8533C47.83 33.921 47.659 33.9111 47.4551 33.7854C47.1075 33.5711 46.6069 33.0148 46.1541 32.2951C45.7013 31.5754 45.4166 30.883 45.3742 30.4769C45.3493 30.2387 45.4141 30.08 45.5218 30.0123C45.6295 29.9445 45.8011 29.9545 46.0045 30.0802C46.1022 30.1403 46.2109 30.2181 46.3281 30.3281L45.99 30.4026C45.8998 30.3309 45.821 30.2832 45.7502 30.2569C45.7163 30.2441 45.6884 30.2307 45.6674 30.2439C45.6465 30.2571 45.647 30.2877 45.6435 30.3241C45.6365 30.4012 45.6485 30.5003 45.6754 30.6166C45.7657 31.0065 46.0195 31.5674 46.3855 32.1494C46.7515 32.7313 47.1474 33.2032 47.4595 33.4531C47.5528 33.5277 47.6371 33.5816 47.7094 33.6086C47.7438 33.6213 47.7712 33.6348 47.7921 33.6216C47.8131 33.6085 47.8131 33.5779 47.8161 33.5414C47.8236 33.4643 47.8111 33.3652 47.7842 33.2489C47.7094 32.9248 47.5234 32.4885 47.2516 32.0142C47.3254 31.9823 47.4072 31.9382 47.4959 31.8881Z" fill="black"/>
<path fill-rule="evenodd" clip-rule="evenodd" d="M48.8669 34.3255C49.3775 34.3255 49.7918 34.7398 49.7918 35.25C49.7918 35.7603 49.3775 36.1746 48.8669 36.1746C48.5986 36.1746 48.3807 36.3926 48.3807 36.6611C48.3807 36.9296 48.5986 37.1476 48.8669 37.1476C49.9141 37.1476 50.7646 36.2973 50.7646 35.25C50.7646 34.2028 49.9141 33.3525 48.8669 33.3525C48.5986 33.3525 48.3807 33.5705 48.3807 33.839C48.3807 34.1075 48.5986 34.3255 48.8669 34.3255Z" fill="black"/>
<path fill-rule="evenodd" clip-rule="evenodd" d="M48.8667 36.1746C48.3565 36.1746 47.9423 35.7603 47.9423 35.25C47.9423 34.7398 48.3565 34.3255 48.8667 34.3255C49.1354 34.3255 49.3533 34.1075 49.3533 33.839C49.3533 33.5705 49.1354 33.3525 48.8667 33.3525C47.8195 33.3525 46.9691 34.2028 46.9691 35.25C46.9691 36.2973 47.8195 37.1476 48.8667 37.1476C49.1354 37.1476 49.3533 36.9296 49.3533 36.6611C49.3533 36.3926 49.1354 36.1746 48.8667 36.1746Z" fill="black"/>
<path fill-rule="evenodd" clip-rule="evenodd" d="M52.9394 41.1143L53.087 41.36C53.2246 41.5902 53.1498 41.8891 52.9199 42.0272C52.6896 42.1653 52.3904 42.0905 52.2523 41.8601L49.2076 36.7826C49.0694 36.5523 49.1447 36.2532 49.3746 36.1151C49.605 35.9771 49.9042 36.052 50.0423 36.2822L51.8209 39.2492L52.2652 38.9909C52.3754 38.9268 52.517 38.9642 52.5814 39.0745C52.6975 39.2748 52.8756 39.5812 52.9898 39.7773C53.0187 39.8272 53.0267 39.8865 53.0117 39.9423C52.9972 39.9981 52.9608 40.0457 52.911 40.0747L52.4697 40.3311L52.6247 40.5896L53.077 40.3266C53.1194 40.3021 53.1698 40.2954 53.2166 40.3078C53.264 40.3203 53.3039 40.351 53.3288 40.3931C53.3692 40.4627 53.4161 40.5437 53.456 40.6123C53.4794 40.6523 53.4854 40.6999 53.4739 40.7446C53.462 40.7893 53.433 40.8275 53.3927 40.8507L52.9394 41.1143Z" fill="black"/>
<defs>
<linearGradient id="paint0_linear_96_14146" x1="18.3786" y1="63.5762" x2="-1.47231" y2="107.743" gradientUnits="userSpaceOnUse">
<stop stop-color="#FFC5BD"/>
<stop offset="1" stop-color="#FF4A31"/>
</linearGradient>
<linearGradient id="paint1_linear_96_14146" x1="85.6457" y1="62.5917" x2="103.82" y2="45.7147" gradientUnits="userSpaceOnUse">
<stop stop-color="#FFB309"/>
<stop offset="1" stop-color="#FD9909"/>
</linearGradient>
</defs>
</svg>
