<svg width="79" height="35" viewBox="0 0 79 35" fill="none" xmlns="http://www.w3.org/2000/svg">
<path d="M14.6782 26.3731V24.0184C14.2395 24.7851 13.5266 25.4422 12.5396 25.9351C11.5525 26.4279 10.4009 26.7017 9.08479 26.7017C7.87838 26.7017 6.78163 26.4827 5.79456 26.0993C4.80749 25.716 3.93009 25.1136 3.2172 24.3469C2.55916 23.635 2.01078 22.704 1.57208 21.6087C1.18822 20.5135 0.968872 19.3088 0.968872 17.9396C0.968872 16.6254 1.18822 15.3658 1.57208 14.3253C1.95594 13.23 2.55916 12.2991 3.27204 11.5324C3.98493 10.7657 4.86232 10.2181 5.84939 9.77997C6.83647 9.39663 7.93322 9.17757 9.13964 9.17757C10.4009 9.17757 11.4976 9.39663 12.4299 9.83473C13.3621 10.2728 14.0202 10.8205 14.5137 11.4776V0.798828H18.1878V26.3731H14.6782ZM9.68801 12.3539C8.97512 12.3539 8.31707 12.4633 7.71387 12.7372C7.11065 12.9562 6.56228 13.3396 6.12358 13.8325C5.68489 14.3253 5.35586 14.9277 5.08167 15.5849C4.80749 16.2968 4.69782 17.0635 4.69782 17.9944C4.69782 18.8707 4.80749 19.6921 5.08167 20.404C5.35586 21.0612 5.68489 21.6087 6.12358 22.1016C6.56228 22.5946 7.11065 22.9231 7.71387 23.1969C8.31707 23.4159 8.97512 23.5803 9.68801 23.5803C11.0589 23.5803 12.2105 23.1421 13.1428 22.266C14.0202 21.3897 14.5137 20.1301 14.5137 18.4325V17.5563C14.5137 15.9134 14.075 14.5991 13.1428 13.7229C12.2654 12.7919 11.1138 12.3539 9.68801 12.3539Z" fill="#3F7CDB"/>
<path d="M44.1817 28.5089C44.1817 30.5352 43.6334 32.1233 42.4818 33.2732C41.3302 34.4233 39.7947 34.971 37.8754 34.971C37.5464 34.971 37.3271 34.971 37.1077 34.971C36.8884 34.971 36.669 34.9162 36.3948 34.8614V31.6304C36.669 31.6852 37.0529 31.74 37.4368 31.74C38.369 31.74 39.0818 31.4661 39.6303 30.9185C40.1786 30.3708 40.4527 29.6041 40.4527 28.5636V9.50614H44.1268V28.5089H44.1817ZM44.1817 5.94655H40.5076V2.22266H44.1817V5.94655Z" fill="#3F7CDB"/>
<path d="M53.7775 9.17676C55.971 9.17676 57.6709 9.72439 58.8225 10.8744C59.9741 12.0244 60.5773 13.6674 60.5773 15.8579V26.3724H56.8483V24.8938C56.2452 25.4413 55.5871 25.9342 54.8194 26.2628C54.0517 26.5914 53.2291 26.7557 52.242 26.7557C50.542 26.7557 49.1711 26.3176 48.1292 25.4961C47.0873 24.62 46.5938 23.4152 46.5938 21.827C46.5938 20.9509 46.7583 20.1842 47.0873 19.527C47.4163 18.9246 47.8551 18.377 48.4034 17.9936C48.9518 17.6103 49.6098 17.2817 50.3776 17.0626C51.1453 16.8436 51.9679 16.734 52.7904 16.6793L56.7936 16.4603V15.9674C56.7936 14.8721 56.5742 13.996 56.0806 13.3935C55.5871 12.7911 54.8194 12.4626 53.7775 12.4626C52.7356 12.4626 51.9679 12.7364 51.4743 13.3387C50.9807 13.8864 50.7614 14.5983 50.7614 15.365L47.0325 15.1459C47.0325 14.3793 47.197 13.6674 47.4712 12.9554C47.8002 12.2435 48.2389 11.5863 48.7872 11.0387C49.3357 10.4911 50.0485 10.053 50.9259 9.66963C51.8033 9.39581 52.7356 9.17676 53.7775 9.17676ZM53.3388 19.527C52.4613 19.5817 51.7485 19.746 51.2001 20.0746C50.6517 20.4032 50.3776 20.9509 50.3776 21.7175C50.3776 22.4295 50.5969 22.9222 51.0904 23.1961C51.584 23.4699 52.1872 23.6342 52.9001 23.6342C54.1065 23.6342 55.0387 23.3604 55.8064 22.758C56.5193 22.1556 56.9032 21.2246 56.9032 19.9104V19.3079L53.3388 19.527Z" fill="#3F7CDB"/>
<path d="M66.8836 11.4229C67.2674 10.8205 67.8707 10.3276 68.6384 9.8895C69.4061 9.45139 70.3932 9.23233 71.5996 9.23233C72.5866 9.23233 73.4641 9.39663 74.2318 9.7252C75.0543 10.0538 75.7124 10.4919 76.3156 11.0943C76.9188 11.6967 77.3575 12.4085 77.6865 13.2848C78.0155 14.1611 78.1801 15.1468 78.1801 16.242V26.4279H74.4511V16.7349C74.4511 15.4753 74.1221 14.4348 73.4641 13.7229C72.8059 13.011 71.8738 12.6277 70.777 12.6277C69.5706 12.6277 68.6384 13.011 67.9255 13.7777C67.2126 14.5444 66.8288 15.5301 66.8288 16.7349V26.3731H63.1547V0.798828H66.8288V11.4229H66.8836Z" fill="#3F7CDB"/>
<path d="M36.9971 13.2301L34.0359 10.2729C33.3778 9.61577 32.4456 9.23242 31.5133 9.23242H26.8522C25.9199 9.23242 24.9877 9.61577 24.3297 10.2729L21.3685 13.2301C20.7104 13.8873 20.3266 14.8183 20.3266 15.7493V20.3493C20.3266 21.2802 20.7104 22.2113 21.3685 22.8684L24.9329 26.428C25.1522 26.6471 25.2619 26.9209 25.2619 27.2494V28.6733C25.2619 29.4947 25.9199 30.1519 26.7425 30.1519H31.4585C32.2811 30.1519 32.9391 29.4947 32.9391 28.6733V27.3042C32.9391 27.0304 33.0488 26.7019 33.2681 26.4828L36.9422 22.8684C37.6004 22.2113 37.9842 21.2802 37.9842 20.3493V15.7493C38.0938 14.8183 37.71 13.942 36.9971 13.2301ZM34.3101 19.747C34.3101 20.2398 34.1456 20.6779 33.8165 21.0612L32.3908 22.5946C31.8972 23.0875 31.7875 23.8541 32.0618 24.5114L32.8843 26.5375H25.5909L26.4135 24.5114C26.6877 23.8541 26.5232 23.1422 26.0845 22.5946L24.6587 21.0612C24.3297 20.7327 24.1651 20.2398 24.1651 19.747V16.4064C24.1651 15.9135 24.3297 15.4754 24.6587 15.1468L26.2489 13.3396C26.6328 12.9563 27.1264 12.6825 27.6748 12.6825H30.8005C31.3489 12.6825 31.8424 12.9015 32.2262 13.3396L33.8714 15.1468C34.2004 15.4754 34.3649 15.9683 34.3649 16.4612V19.747H34.3101Z" fill="#3F7CDB"/>
</svg>
