<svg width="317" height="107" viewBox="0 0 317 107" fill="none" xmlns="http://www.w3.org/2000/svg">
<g clip-path="url(#clip0_174_43156)">
<path d="M0 10C0 4.47715 4.47715 0 10 0H307C312.523 0 317 4.47715 317 10V107H0V10Z" fill="url(#paint0_linear_174_43156)"/>
<path d="M27.3891 20.7676L29.9143 13.8628H31.4235L33.9388 20.7676H32.5282L30.6639 15.3818L28.7898 20.7676H27.3891ZM28.5037 19.1992L28.8588 18.1635H32.3704L32.7156 19.1992H28.5037ZM37.0112 20.8859C36.5114 20.8859 36.0675 20.7742 35.6795 20.5506C35.2981 20.3204 34.9989 20.0048 34.7819 19.6036C34.5649 19.2025 34.4564 18.7487 34.4564 18.2424C34.4564 17.6966 34.5649 17.2198 34.7819 16.8121C34.9989 16.3978 35.2981 16.0756 35.6795 15.8454C36.0675 15.6153 36.5114 15.5002 37.0112 15.5002C37.6556 15.5002 38.1949 15.6712 38.6289 16.0131C39.0629 16.3551 39.3391 16.8253 39.4575 17.4237H38.0568C37.991 17.1804 37.8628 16.9897 37.6721 16.8516C37.4879 16.7069 37.2644 16.6346 37.0013 16.6346C36.7514 16.6346 36.5377 16.697 36.3602 16.822C36.1826 16.9469 36.0478 17.1278 35.9557 17.3645C35.8637 17.5947 35.8176 17.8708 35.8176 18.1931C35.8176 18.4364 35.8439 18.6567 35.8965 18.854C35.9492 19.0447 36.0248 19.2058 36.1234 19.3373C36.2286 19.4688 36.3536 19.5707 36.4983 19.6431C36.6495 19.7154 36.8172 19.7516 37.0013 19.7516C37.1789 19.7516 37.3367 19.722 37.4748 19.6628C37.6195 19.5971 37.7411 19.505 37.8398 19.3866C37.945 19.2683 38.0173 19.1269 38.0568 18.9625H39.4575C39.3391 19.5477 39.0596 20.0146 38.619 20.3632C38.185 20.7117 37.6491 20.8859 37.0112 20.8859ZM42.8945 20.7676C42.5526 20.7676 42.2501 20.715 41.987 20.6098C41.724 20.498 41.5201 20.3171 41.3755 20.0672C41.2308 19.8108 41.1585 19.4622 41.1585 19.0217V16.7332H40.2707V15.6186H41.1585L41.3163 14.1883H42.4901V15.6186H43.8316V16.7332H42.4901V19.0414C42.4901 19.265 42.5394 19.4195 42.6381 19.505C42.7367 19.5905 42.9077 19.6332 43.151 19.6332H43.8513V20.7676H42.8945ZM45.0571 20.7676V15.6186H46.3888V20.7676H45.0571ZM45.718 14.9971C45.4813 14.9971 45.284 14.9248 45.1262 14.7801C44.9749 14.6355 44.8993 14.4579 44.8993 14.2475C44.8993 14.0239 44.9749 13.843 45.1262 13.705C45.284 13.5669 45.4813 13.4978 45.718 13.4978C45.9613 13.4978 46.1586 13.5669 46.3099 13.705C46.4677 13.843 46.5466 14.0239 46.5466 14.2475C46.5466 14.4579 46.4677 14.6355 46.3099 14.7801C46.1586 14.9248 45.9613 14.9971 45.718 14.9971ZM49.1538 20.7676L47.2698 15.6186H48.6705L49.9726 19.5149L51.2746 15.6186H52.6556L50.7715 20.7676H49.1538ZM53.5436 20.7676V15.6186H54.8753V20.7676H53.5436ZM54.2045 14.9971C53.9678 14.9971 53.7705 14.9248 53.6127 14.7801C53.4614 14.6355 53.3858 14.4579 53.3858 14.2475C53.3858 14.0239 53.4614 13.843 53.6127 13.705C53.7705 13.5669 53.9678 13.4978 54.2045 13.4978C54.4478 13.4978 54.6451 13.5669 54.7964 13.705C54.9542 13.843 55.0331 14.0239 55.0331 14.2475C55.0331 14.4579 54.9542 14.6355 54.7964 14.7801C54.6451 14.9248 54.4478 14.9971 54.2045 14.9971ZM58.5478 20.7676C58.2059 20.7676 57.9034 20.715 57.6403 20.6098C57.3773 20.498 57.1735 20.3171 57.0288 20.0672C56.8841 19.8108 56.8118 19.4622 56.8118 19.0217V16.7332H55.924V15.6186H56.8118L56.9696 14.1883H58.1434V15.6186H59.4849V16.7332H58.1434V19.0414C58.1434 19.265 58.1927 19.4195 58.2914 19.505C58.39 19.5905 58.561 19.6332 58.8043 19.6332H59.5046V20.7676H58.5478ZM60.7104 20.7676V15.6186H62.0421V20.7676H60.7104ZM61.3713 14.9971C61.1346 14.9971 60.9373 14.9248 60.7795 14.7801C60.6282 14.6355 60.5526 14.4579 60.5526 14.2475C60.5526 14.0239 60.6282 13.843 60.7795 13.705C60.9373 13.5669 61.1346 13.4978 61.3713 13.4978C61.6146 13.4978 61.8119 13.5669 61.9632 13.705C62.121 13.843 62.1999 14.0239 62.1999 14.2475C62.1999 14.4579 62.121 14.6355 61.9632 14.7801C61.8119 14.9248 61.6146 14.9971 61.3713 14.9971ZM65.764 20.8859C65.2708 20.8859 64.8335 20.7742 64.4521 20.5506C64.0772 20.327 63.7846 20.0179 63.5742 19.6234C63.3637 19.2222 63.2585 18.7619 63.2585 18.2424C63.2585 17.7032 63.3604 17.2297 63.5643 16.822C63.7747 16.4077 64.0674 16.0855 64.4422 15.8553C64.8236 15.6186 65.2675 15.5002 65.7738 15.5002C66.2802 15.5002 66.7142 15.612 67.0759 15.8356C67.4376 16.0526 67.7138 16.3551 67.9045 16.7431C68.1017 17.131 68.2004 17.5684 68.2004 18.055C68.2004 18.1207 68.1971 18.1931 68.1905 18.272C68.1905 18.3509 68.1872 18.4331 68.1807 18.5186H64.2055V17.6999H66.8589C66.8523 17.3448 66.7471 17.0686 66.5432 16.8713C66.3394 16.674 66.0829 16.5754 65.7738 16.5754C65.5503 16.5754 65.3464 16.6313 65.1623 16.7431C64.9781 16.8549 64.8335 17.0225 64.7283 17.2461C64.623 17.4697 64.5704 17.7492 64.5704 18.0846V18.3706C64.5704 18.6665 64.6165 18.9197 64.7085 19.1302C64.8072 19.3406 64.9453 19.505 65.1228 19.6234C65.3004 19.7417 65.5108 19.8009 65.7541 19.8009C66.0171 19.8009 66.221 19.7549 66.3657 19.6628C66.5103 19.5707 66.6221 19.4458 66.7011 19.288H68.0623C67.9702 19.5839 67.8157 19.8535 67.5987 20.0968C67.3882 20.3401 67.1285 20.5341 66.8194 20.6788C66.5103 20.8169 66.1585 20.8859 65.764 20.8859ZM71.3626 20.8859C70.8563 20.8859 70.4354 20.8136 70.1 20.6689C69.7712 20.5177 69.5214 20.3138 69.3504 20.0574C69.186 19.7943 69.0939 19.5017 69.0742 19.1795H70.396C70.4157 19.3044 70.4617 19.4195 70.5341 19.5247C70.6064 19.6299 70.7083 19.7154 70.8398 19.7812C70.9714 19.8404 71.1391 19.87 71.3429 19.87C71.5139 19.87 71.6586 19.8469 71.7769 19.8009C71.9019 19.7483 71.9939 19.6793 72.0531 19.5938C72.1189 19.5017 72.1518 19.3965 72.1518 19.2781C72.1518 19.1269 72.1123 19.0085 72.0334 18.923C71.9545 18.8375 71.8361 18.7685 71.6783 18.7159C71.527 18.6633 71.3396 18.6238 71.116 18.5975C70.8267 18.5515 70.5604 18.4923 70.3171 18.4199C70.0803 18.3476 69.8765 18.2523 69.7055 18.1339C69.5345 18.0155 69.403 17.8708 69.3109 17.6999C69.2254 17.5223 69.1827 17.3053 69.1827 17.0488C69.1827 16.7529 69.2649 16.4899 69.4293 16.2597C69.5937 16.023 69.8304 15.8389 70.1395 15.7073C70.4486 15.5692 70.8201 15.5002 71.2541 15.5002C71.8789 15.5002 72.3655 15.635 72.714 15.9046C73.0625 16.1677 73.2697 16.5326 73.3354 16.9995H72.0827C72.0433 16.8483 71.9512 16.7332 71.8065 16.6543C71.6618 16.5688 71.4711 16.5261 71.2344 16.5261C70.9911 16.5261 70.8037 16.5688 70.6722 16.6543C70.5406 16.7398 70.4749 16.8581 70.4749 17.0094C70.4749 17.108 70.5045 17.2001 70.5637 17.2856C70.6294 17.3645 70.7346 17.4335 70.8793 17.4927C71.0305 17.5519 71.2344 17.6012 71.4909 17.6407C71.9446 17.713 72.3194 17.8018 72.6154 17.907C72.9113 18.0122 73.1316 18.1668 73.2763 18.3706C73.4209 18.5679 73.49 18.8474 73.4834 19.2091C73.4834 19.5576 73.3946 19.8568 73.2171 20.1067C73.0461 20.3566 72.7995 20.5506 72.4773 20.6887C72.1616 20.8202 71.7901 20.8859 71.3626 20.8859Z" fill="#404446"/>
<rect x="156.593" y="9" width="50.304" height="17.536" rx="8.768" fill="#EBF4FF"/>
<path d="M166.816 19.7676L165.613 15.1644H166.56L167.362 18.7615L168.309 15.1644H169.289L170.203 18.7615L171.012 15.1644H171.972L170.729 19.7676H169.67L168.782 16.4138L167.875 19.7676H166.816ZM173.811 19.8465C173.482 19.8465 173.191 19.772 172.937 19.6229C172.687 19.4739 172.492 19.2656 172.351 18.9982C172.211 18.7308 172.141 18.4217 172.141 18.071C172.141 17.7115 172.211 17.3936 172.351 17.1174C172.492 16.8413 172.687 16.6242 172.937 16.4664C173.187 16.3086 173.478 16.2297 173.811 16.2297C174.153 16.2297 174.445 16.3042 174.686 16.4533C174.927 16.6023 175.111 16.8062 175.238 17.0648C175.365 17.3235 175.429 17.6172 175.429 17.946C175.429 17.9899 175.427 18.0381 175.422 18.0907C175.422 18.1433 175.42 18.1981 175.416 18.2551H172.779V17.7093H174.541C174.532 17.4682 174.46 17.2818 174.324 17.1503C174.188 17.0144 174.02 16.9465 173.818 16.9465C173.669 16.9465 173.533 16.9859 173.41 17.0648C173.292 17.1394 173.195 17.2512 173.121 17.4002C173.051 17.5493 173.016 17.7378 173.016 17.9658V18.1565C173.016 18.3537 173.046 18.5247 173.108 18.6694C173.173 18.8141 173.265 18.9259 173.384 19.0048C173.502 19.0837 173.642 19.1231 173.805 19.1231C173.984 19.1231 174.12 19.0946 174.212 19.0376C174.304 18.9763 174.379 18.893 174.436 18.7878H175.337C175.276 18.985 175.172 19.1648 175.028 19.327C174.888 19.4892 174.714 19.6163 174.508 19.7084C174.302 19.8005 174.07 19.8465 173.811 19.8465ZM177.761 19.8465C177.432 19.8465 177.14 19.772 176.886 19.6229C176.636 19.4739 176.441 19.2656 176.301 18.9982C176.161 18.7308 176.09 18.4217 176.09 18.071C176.09 17.7115 176.161 17.3936 176.301 17.1174C176.441 16.8413 176.636 16.6242 176.886 16.4664C177.136 16.3086 177.428 16.2297 177.761 16.2297C178.103 16.2297 178.394 16.3042 178.635 16.4533C178.876 16.6023 179.061 16.8062 179.188 17.0648C179.315 17.3235 179.378 17.6172 179.378 17.946C179.378 17.9899 179.376 18.0381 179.372 18.0907C179.372 18.1433 179.37 18.1981 179.365 18.2551H176.728V17.7093H178.491C178.482 17.4682 178.41 17.2818 178.274 17.1503C178.138 17.0144 177.969 16.9465 177.767 16.9465C177.618 16.9465 177.482 16.9859 177.36 17.0648C177.241 17.1394 177.145 17.2512 177.07 17.4002C177 17.5493 176.965 17.7378 176.965 17.9658V18.1565C176.965 18.3537 176.996 18.5247 177.057 18.6694C177.123 18.8141 177.215 18.9259 177.333 19.0048C177.452 19.0837 177.592 19.1231 177.754 19.1231C177.934 19.1231 178.07 19.0946 178.162 19.0376C178.254 18.9763 178.328 18.893 178.385 18.7878H179.286C179.225 18.985 179.122 19.1648 178.977 19.327C178.837 19.4892 178.664 19.6163 178.458 19.7084C178.252 19.8005 178.019 19.8465 177.761 19.8465ZM182.302 19.7676L180.908 17.9L182.203 16.3086H183.256L181.585 18.2682V17.5646L183.407 19.7676H182.302ZM180.152 19.7676V15.0329H181.039V19.7676H180.152ZM183.96 19.7676V15.0329H184.848V19.7676H183.96ZM186.205 21.2143L186.968 19.3993H186.771L185.462 16.3086H186.422L187.356 18.5642L188.198 16.3086H189.145L187.139 21.2143H186.205Z" fill="#0070F0"/>
<path d="M197.954 17.2306C198.06 17.1231 198.06 16.9496 197.952 16.8431C197.845 16.7365 197.671 16.7373 197.565 16.8448L196.926 17.4889C196.667 17.7503 196.489 17.9296 196.338 18.0509C196.191 18.1687 196.097 18.2092 196.013 18.2199C195.96 18.2267 195.906 18.2267 195.853 18.2199C195.768 18.2092 195.674 18.1687 195.527 18.0509C195.376 17.9296 195.198 17.7503 194.939 17.4889L194.301 16.8448C194.194 16.7373 194.021 16.7365 193.913 16.8431C193.806 16.9496 193.805 17.1231 193.911 17.2306L194.561 17.8862C194.806 18.1332 195.006 18.335 195.184 18.4782C195.37 18.627 195.558 18.7348 195.784 18.7635C195.883 18.7762 195.983 18.7762 196.082 18.7635C196.308 18.7348 196.496 18.627 196.681 18.4782C196.859 18.335 197.059 18.1332 197.304 17.8862L197.954 17.2306Z" fill="#0070F0"/>
<path d="M44.1406 51.1953V133.395H206.349" stroke="#F7F9FA" stroke-width="0.548" stroke-linecap="round"/>
<path d="M44.1406 90.6504H206.349" stroke="#F7F9FA" stroke-width="0.548"/>
<path d="M44.1406 70.9238H206.349" stroke="#F7F9FA" stroke-width="0.548"/>
<path d="M44.1406 51.1953H206.349" stroke="#F7F9FA" stroke-width="0.548"/>
<path d="M44.1426 90.6047C49.3655 85.1377 59.2407 71.7526 73.7926 76.4403C89.2202 81.4101 86.3275 93.0895 98.1393 96.0716C111.812 99.5233 122.486 87.3743 125.62 82.4043C128.969 77.0923 134.491 62.9718 142.976 59.7911C151.461 56.6103 155.814 60.8912 157.921 64.5125C160.814 69.4826 162.935 81.2115 168.528 82.4043C174.12 83.597 175.519 75.4464 178.17 68.2398C180.822 61.0332 186.101 53.1232 195.6 55.7429C198.629 56.5784 202.209 57.3581 204.412 51.5657C205.954 47.511 206.282 46.5402 206.34 46.3227V46.2746C206.34 46.2746 206.364 46.2295 206.34 46.3227V133.396H44.1426V90.6047Z" fill="url(#paint1_linear_174_43156)"/>
<path d="M44.1426 90.6047C49.3655 85.1377 59.2407 71.7526 73.7926 76.4403C89.2202 81.4101 86.3275 93.0895 98.1393 96.0716C111.812 99.5233 122.486 87.3743 125.62 82.4043C128.969 77.0923 134.491 62.9718 142.976 59.7911C151.461 56.6103 155.814 60.8912 157.921 64.5125C160.814 69.4826 162.935 81.2115 168.528 82.4043C174.12 83.597 175.519 75.4464 178.17 68.2398C180.822 61.0332 186.101 53.1232 195.6 55.7429C198.629 56.5784 202.209 57.3581 204.412 51.5657C206.615 45.7733 206.34 46.2746 206.34 46.2746" stroke="#0070F0" stroke-width="0.548" stroke-linecap="round"/>
<g filter="url(#filter0_d_174_43156)">
<path d="M116.313 75.8555C118.129 75.8555 119.602 77.3276 119.602 79.1436V85.7197C119.601 87.5355 118.129 89.0078 116.313 89.0078H104.861L102.509 91.3711L100.156 89.0078H89.0781C87.2623 89.0078 85.7902 87.5355 85.79 85.7197V79.1436C85.79 77.3276 87.2622 75.8555 89.0781 75.8555H116.313Z" fill="white"/>
</g>
<path d="M91.0519 85.1258C90.7582 85.1258 90.4886 85.0732 90.2431 84.968C90.0019 84.8584 89.809 84.6962 89.6644 84.4813C89.5241 84.2621 89.4495 83.9881 89.4408 83.6593H90.0984C90.1028 83.8259 90.1422 83.9772 90.2167 84.1131C90.2913 84.249 90.3987 84.3586 90.539 84.4419C90.6836 84.5208 90.8546 84.5603 91.0519 84.5603C91.2492 84.5603 91.4136 84.523 91.5451 84.4485C91.681 84.3739 91.7818 84.2731 91.8476 84.146C91.9177 84.0188 91.9528 83.8763 91.9528 83.7185C91.9528 83.53 91.9046 83.3766 91.8081 83.2582C91.7161 83.1355 91.5889 83.0456 91.4267 82.9886C91.2689 82.9272 91.0914 82.8965 90.8941 82.8965H90.5521V82.3507H90.8941C91.179 82.3507 91.407 82.285 91.578 82.1534C91.749 82.0219 91.8344 81.8356 91.8344 81.5945C91.8344 81.4016 91.7665 81.2438 91.6306 81.121C91.4991 80.9939 91.3062 80.9303 91.0519 80.9303C90.7889 80.9303 90.5828 81.0004 90.4338 81.1407C90.2891 81.281 90.208 81.4586 90.1904 81.6734H89.5328C89.546 81.4147 89.6161 81.1868 89.7433 80.9895C89.8748 80.7878 90.0502 80.6344 90.2694 80.5292C90.4929 80.4196 90.7538 80.3648 91.0519 80.3648C91.3632 80.3648 91.6262 80.4196 91.841 80.5292C92.0558 80.6344 92.218 80.7769 92.3276 80.9566C92.4372 81.1363 92.492 81.3336 92.492 81.5484C92.492 81.715 92.4592 81.8707 92.3934 82.0153C92.332 82.16 92.2422 82.2828 92.1238 82.3836C92.0054 82.4844 91.8607 82.5568 91.6898 82.6006C91.8651 82.6357 92.0208 82.7036 92.1567 82.8045C92.297 82.9053 92.4066 83.0324 92.4855 83.1859C92.5688 83.3393 92.6104 83.5191 92.6104 83.7251C92.6104 83.975 92.5512 84.2073 92.4329 84.4222C92.3145 84.6326 92.1391 84.8036 91.9068 84.9351C91.6788 85.0622 91.3939 85.1258 91.0519 85.1258ZM93.5081 85.0469V80.3122H94.1657V82.1271C94.2797 81.9386 94.4332 81.7896 94.6261 81.68C94.819 81.566 95.0294 81.509 95.2574 81.509C95.5335 81.509 95.7637 81.5594 95.9478 81.6602C96.1363 81.7611 96.2788 81.9145 96.3753 82.1206C96.4717 82.3266 96.5199 82.5853 96.5199 82.8965V85.0469H95.8689V82.9623C95.8689 82.6686 95.7988 82.4472 95.6585 82.2981C95.5182 82.1447 95.3253 82.0679 95.0798 82.0679C94.9132 82.0679 94.7598 82.1074 94.6195 82.1863C94.4836 82.2652 94.374 82.3814 94.2907 82.5348C94.2074 82.6883 94.1657 82.8724 94.1657 83.0872V85.0469H93.5081ZM99.8766 85.0469V81.1868L98.9231 81.5024V80.9632L100.12 80.4437H100.547V85.0469H99.8766ZM103.647 85.0469V84.1065H101.339V83.5936L103.548 80.4437H104.305V83.5344H104.962V84.1065H104.305V85.0469H103.647ZM102.056 83.5344H103.686V81.167L102.056 83.5344ZM105.645 85.0469V81.5879H106.237L106.277 82.0482C106.382 81.8816 106.522 81.7501 106.698 81.6537C106.877 81.5572 107.068 81.509 107.27 81.509C107.436 81.509 107.585 81.5309 107.717 81.5747C107.848 81.6186 107.965 81.6865 108.065 81.7786C108.166 81.8707 108.247 81.9825 108.309 82.114C108.423 81.9167 108.576 81.7676 108.769 81.6668C108.966 81.5616 109.175 81.509 109.394 81.509C109.657 81.509 109.878 81.5594 110.058 81.6602C110.242 81.7611 110.382 81.9145 110.479 82.1206C110.575 82.3222 110.624 82.5699 110.624 82.8636V85.0469H109.972V82.9294C109.972 82.6444 109.909 82.4296 109.782 82.285C109.659 82.1403 109.486 82.0679 109.262 82.0679C109.113 82.0679 108.977 82.1074 108.855 82.1863C108.736 82.2608 108.642 82.3726 108.572 82.5217C108.502 82.6707 108.467 82.8505 108.467 83.0609V85.0469H107.809V82.9294C107.809 82.6444 107.745 82.4296 107.618 82.285C107.491 82.1403 107.318 82.0679 107.099 82.0679C106.954 82.0679 106.823 82.1074 106.704 82.1863C106.586 82.2608 106.489 82.3726 106.415 82.5217C106.34 82.6707 106.303 82.8505 106.303 83.0609V85.0469H105.645ZM111.587 85.0469V81.5879H112.244V85.0469H111.587ZM111.916 81.0092C111.788 81.0092 111.683 80.9698 111.6 80.8908C111.521 80.8119 111.482 80.7111 111.482 80.5883C111.482 80.47 111.521 80.3735 111.6 80.299C111.683 80.2201 111.788 80.1806 111.916 80.1806C112.038 80.1806 112.141 80.2201 112.225 80.299C112.308 80.3735 112.35 80.47 112.35 80.5883C112.35 80.7111 112.308 80.8119 112.225 80.8908C112.141 80.9698 112.038 81.0092 111.916 81.0092ZM113.204 85.0469V81.5879H113.796L113.835 82.1206C113.932 81.9277 114.074 81.7786 114.263 81.6734C114.451 81.5638 114.673 81.509 114.927 81.509C115.186 81.509 115.409 81.5594 115.598 81.6602C115.786 81.7567 115.931 81.9057 116.032 82.1074C116.137 82.3047 116.19 82.5546 116.19 82.8571V85.0469H115.532V82.9228C115.532 82.6423 115.462 82.4296 115.322 82.285C115.181 82.1403 114.991 82.0679 114.749 82.0679C114.587 82.0679 114.438 82.1052 114.302 82.1797C114.171 82.2543 114.063 82.3639 113.98 82.5085C113.901 82.6532 113.862 82.8286 113.862 83.0346V85.0469H113.204Z" fill="#303437"/>
<path d="M29.2256 53.3426C28.9143 53.3426 28.6425 53.2878 28.4101 53.1782C28.1822 53.0642 28.0024 52.913 27.8709 52.7244C27.7438 52.5359 27.667 52.3189 27.6407 52.0734H28.2786C28.3224 52.2795 28.4255 52.4504 28.5877 52.5863C28.7499 52.7179 28.9647 52.7836 29.2321 52.7836C29.4294 52.7836 29.5982 52.7376 29.7385 52.6455C29.8788 52.5535 29.9862 52.4285 30.0607 52.2707C30.1396 52.1085 30.1791 51.9266 30.1791 51.7249C30.1791 51.5232 30.1396 51.3479 30.0607 51.1988C29.9862 51.0454 29.881 50.927 29.7451 50.8437C29.6092 50.756 29.4491 50.7122 29.265 50.7122C29.0414 50.7122 28.8529 50.7582 28.6995 50.8503C28.546 50.938 28.4255 51.0454 28.3378 51.1725H27.6933L28.0419 48.6605H30.5605V49.2326H28.5416L28.3246 50.5544C28.4299 50.4404 28.5701 50.3483 28.7455 50.2782C28.9209 50.2036 29.1225 50.1664 29.3505 50.1664C29.5828 50.1664 29.7889 50.208 29.9686 50.2913C30.1484 50.3702 30.3018 50.482 30.429 50.6267C30.5561 50.767 30.6504 50.9314 30.7117 51.1199C30.7775 51.3084 30.8104 51.5079 30.8104 51.7183C30.8104 51.9463 30.7731 52.1589 30.6986 52.3562C30.624 52.5491 30.5166 52.7201 30.3764 52.8691C30.2404 53.0182 30.076 53.1343 29.8832 53.2176C29.6903 53.3009 29.4711 53.3426 29.2256 53.3426ZM31.6608 53.2637V48.529H32.3184V50.3439C32.4324 50.1554 32.5859 50.0064 32.7787 49.8968C32.9716 49.7828 33.1821 49.7258 33.41 49.7258C33.6862 49.7258 33.9164 49.7762 34.1005 49.877C34.289 49.9779 34.4315 50.1313 34.528 50.3374C34.6244 50.5434 34.6726 50.8021 34.6726 51.1133V53.2637H34.0216V51.1791C34.0216 50.8854 33.9515 50.664 33.8112 50.5149C33.6709 50.3615 33.478 50.2847 33.2325 50.2847C33.0659 50.2847 32.9125 50.3242 32.7722 50.4031C32.6363 50.482 32.5267 50.5982 32.4434 50.7516C32.3601 50.9051 32.3184 51.0892 32.3184 51.304V53.2637H31.6608Z" fill="#72777A"/>
<path d="M30.2201 73.3438V72.4034H27.912V71.8905L30.1215 68.7405H30.8777V71.8313H31.5353V72.4034H30.8777V73.3438H30.2201ZM28.6287 71.8313H30.2596V69.4639L28.6287 71.8313ZM32.2186 73.3438V68.609H32.8762V70.424C32.9902 70.2355 33.1436 70.0864 33.3365 69.9768C33.5294 69.8629 33.7399 69.8059 33.9678 69.8059C34.244 69.8059 34.4742 69.8563 34.6583 69.9571C34.8468 70.0579 34.9893 70.2114 35.0858 70.4174C35.1822 70.6235 35.2304 70.8821 35.2304 71.1934V73.3438H34.5794V71.2592C34.5794 70.9654 34.5093 70.744 34.369 70.595C34.2287 70.4415 34.0358 70.3648 33.7903 70.3648C33.6237 70.3648 33.4703 70.4043 33.33 70.4832C33.1941 70.5621 33.0845 70.6783 33.0012 70.8317C32.9179 70.9852 32.8762 71.1693 32.8762 71.3841V73.3438H32.2186Z" fill="#72777A"/>
<path d="M29.1789 93.5047C28.8852 93.5047 28.6156 93.4521 28.3701 93.3469C28.1289 93.2373 27.936 93.0751 27.7914 92.8602C27.6511 92.641 27.5765 92.367 27.5678 92.0382H28.2254C28.2298 92.2048 28.2692 92.3561 28.3437 92.492C28.4183 92.6279 28.5257 92.7375 28.666 92.8208C28.8106 92.8997 28.9816 92.9392 29.1789 92.9392C29.3762 92.9392 29.5406 92.9019 29.6721 92.8274C29.808 92.7528 29.9088 92.652 29.9746 92.5249C30.0447 92.3977 30.0798 92.2553 30.0798 92.0974C30.0798 91.9089 30.0316 91.7555 29.9351 91.6371C29.8431 91.5144 29.7159 91.4245 29.5537 91.3675C29.3959 91.3061 29.2184 91.2754 29.0211 91.2754H28.6791V90.7296H29.0211C29.306 90.7296 29.534 90.6639 29.705 90.5323C29.876 90.4008 29.9614 90.2145 29.9614 89.9734C29.9614 89.7805 29.8935 89.6227 29.7576 89.4999C29.6261 89.3728 29.4332 89.3092 29.1789 89.3092C28.9159 89.3092 28.7098 89.3793 28.5608 89.5196C28.4161 89.6599 28.335 89.8375 28.3174 90.0523H27.6598C27.673 89.7936 27.7431 89.5657 27.8703 89.3684C28.0018 89.1667 28.1772 89.0133 28.3964 88.9081C28.6199 88.7985 28.8808 88.7437 29.1789 88.7437C29.4902 88.7437 29.7532 88.7985 29.968 88.9081C30.1828 89.0133 30.345 89.1558 30.4546 89.3355C30.5642 89.5153 30.619 89.7125 30.619 89.9273C30.619 90.0939 30.5862 90.2496 30.5204 90.3942C30.459 90.5389 30.3692 90.6617 30.2508 90.7625C30.1324 90.8633 29.9877 90.9357 29.8168 90.9795C29.9921 91.0146 30.1478 91.0825 30.2837 91.1834C30.424 91.2842 30.5336 91.4113 30.6125 91.5648C30.6958 91.7182 30.7374 91.898 30.7374 92.104C30.7374 92.3539 30.6782 92.5862 30.5599 92.8011C30.4415 93.0115 30.2661 93.1825 30.0338 93.314C29.8058 93.4411 29.5209 93.5047 29.1789 93.5047ZM31.6351 93.4258V88.6911H32.2927V90.506C32.4067 90.3175 32.5602 90.1685 32.7531 90.0589C32.946 89.9449 33.1564 89.8879 33.3844 89.8879C33.6605 89.8879 33.8907 89.9383 34.0748 90.0391C34.2633 90.14 34.4058 90.2934 34.5023 90.4995C34.5987 90.7055 34.6469 90.9642 34.6469 91.2754V93.4258H33.9959V91.3412C33.9959 91.0475 33.9258 90.8261 33.7855 90.677C33.6452 90.5236 33.4523 90.4469 33.2068 90.4469C33.0402 90.4469 32.8868 90.4863 32.7465 90.5652C32.6106 90.6441 32.501 90.7603 32.4177 90.9137C32.3344 91.0672 32.2927 91.2513 32.2927 91.4661V93.4258H31.6351Z" fill="#72777A"/>
<line x1="102.502" y1="93.9395" x2="102.502" y2="133.395" stroke="#0070F0" stroke-width="0.548" stroke-dasharray="0.82 0.82"/>
<g filter="url(#filter1_d_174_43156)">
<circle cx="102.5" cy="96.1318" r="3.288" fill="#0070F0"/>
<circle cx="102.5" cy="96.1318" r="2.74" stroke="white" stroke-width="1.096"/>
</g>
<g filter="url(#filter2_d_174_43156)">
<rect x="190" y="25" width="108.247" height="105" rx="10.8247" fill="white"/>
<rect x="190.541" y="25.5412" width="107.165" height="103.918" rx="10.2835" stroke="#F4F4F4" stroke-width="1.08247"/>
</g>
<path d="M290.704 79.6657C290.704 105.672 269.622 126.753 243.616 126.753C217.61 126.753 196.528 105.672 196.528 79.6657C196.528 53.66 217.61 32.5781 243.616 32.5781C269.622 32.5781 290.704 53.66 290.704 79.6657ZM203.591 79.6657C203.591 101.771 221.511 119.69 243.616 119.69C265.721 119.69 283.64 101.771 283.64 79.6657C283.64 57.5608 265.721 39.6413 243.616 39.6413C221.511 39.6413 203.591 57.5608 203.591 79.6657Z" fill="#C9F0FF"/>
<path d="M243.616 36.1122C243.616 34.1617 245.199 32.5668 247.144 32.713C252.86 33.1425 258.46 34.613 263.665 37.0621C269.937 40.0133 275.479 44.3127 279.898 49.6535C284.316 54.9942 287.5 61.2444 289.224 67.958C290.948 74.6716 291.168 81.683 289.87 88.4916C288.571 95.3002 285.785 101.738 281.711 107.346C277.636 112.953 272.375 117.592 266.301 120.931C260.227 124.271 253.49 126.228 246.573 126.663C240.832 127.024 235.084 126.33 229.611 124.625C227.749 124.045 226.864 121.979 227.582 120.166C228.3 118.352 230.349 117.48 232.219 118.036C236.718 119.372 241.426 119.91 246.129 119.614C252.009 119.244 257.735 117.58 262.898 114.742C268.061 111.904 272.533 107.96 275.996 103.194C279.459 98.4276 281.827 92.9554 282.931 87.1681C284.035 81.3808 283.848 75.4211 282.383 69.7145C280.918 64.008 278.211 58.6953 274.455 54.1557C270.7 49.6161 265.988 45.9615 260.658 43.453C256.394 41.4467 251.818 40.2131 247.143 39.7995C245.2 39.6276 243.616 38.0626 243.616 36.1122Z" fill="#62CAFF"/>
<circle cx="247.156" cy="36.1092" r="2.11894" fill="white"/>
<path d="M275.165 79.6659C275.165 97.0898 261.04 111.215 243.616 111.215C226.192 111.215 212.067 97.0898 212.067 79.6659C212.067 62.242 226.192 48.1172 243.616 48.1172C261.04 48.1172 275.165 62.242 275.165 79.6659ZM219.008 79.6659C219.008 93.2565 230.025 104.274 243.616 104.274C257.207 104.274 268.224 93.2565 268.224 79.6659C268.224 66.0753 257.207 55.0579 243.616 55.0579C230.025 55.0579 219.008 66.0753 219.008 79.6659Z" fill="#FFE5E5"/>
<path d="M243.616 51.5897C243.616 49.6731 245.174 48.0996 247.08 48.3101C251.598 48.8091 255.97 50.2808 259.888 52.6398C264.801 55.5973 268.815 59.8379 271.498 64.9055C274.181 69.9731 275.432 75.6762 275.117 81.4017C274.802 87.1272 272.932 92.6585 269.709 97.4011C266.486 102.144 262.032 105.918 256.824 108.319C251.617 110.719 245.854 111.656 240.154 111.026C234.455 110.397 229.034 108.226 224.476 104.748C220.84 101.973 217.863 98.4497 215.735 94.432C214.838 92.7382 215.727 90.71 217.51 90.0044C219.292 89.2989 221.288 90.1878 222.237 91.853C223.865 94.7094 226.055 97.2212 228.687 99.2301C232.242 101.944 236.47 103.637 240.916 104.127C245.361 104.618 249.857 103.888 253.918 102.016C257.98 100.143 261.455 97.1991 263.969 93.4998C266.483 89.8006 267.941 85.4862 268.187 81.0203C268.433 76.5544 267.457 72.106 265.364 68.1533C263.271 64.2005 260.14 60.8929 256.309 58.586C253.472 56.8781 250.33 55.7665 247.075 55.3044C245.177 55.035 243.616 53.5064 243.616 51.5897Z" fill="#D94823"/>
<circle cx="247.156" cy="51.6482" r="2.11894" fill="white"/>
<g filter="url(#filter3_d_174_43156)">
<rect x="242.001" y="40" width="46" height="20" rx="5" fill="white"/>
</g>
<path d="M253.32 53.9169H252.403V53.055C251.055 52.89 250.459 52.129 250.459 51.0929V50.937H251.431V51.0378C251.431 51.7989 251.752 52.184 253.036 52.184C253.944 52.184 254.274 51.9364 254.274 51.3679C254.274 50.8086 254.09 50.6069 253.146 50.4144L252.101 50.2035C251.046 50.0018 250.478 49.4883 250.478 48.5164C250.478 47.682 251.074 46.9027 252.403 46.7835V45.9399H253.32V46.8018C254.613 46.9852 255.145 47.8471 255.145 48.8098V48.9198H254.173V48.819C254.173 48.0671 253.843 47.6729 252.742 47.6729C251.835 47.6729 251.468 47.9296 251.468 48.4705C251.468 49.0299 251.716 49.1857 252.559 49.3691L253.604 49.5892C254.76 49.8276 255.264 50.4052 255.264 51.3313C255.264 52.2298 254.659 52.9817 253.32 53.0825V53.9169ZM260.697 53H256.167V52.3857C256.167 51.2212 256.956 50.6894 257.818 50.2493L258.762 49.7634C259.422 49.4149 259.688 49.1399 259.688 48.6173C259.688 48.0488 259.477 47.6729 258.459 47.6729C257.341 47.6729 257.112 48.0396 257.112 48.8832V49.0115H256.121V48.8648C256.121 47.7187 256.837 46.7651 258.533 46.7651C260.046 46.7651 260.678 47.5628 260.678 48.5806C260.678 49.5892 259.991 50.1301 259.202 50.5336L258.304 50.992C257.68 51.3129 257.203 51.6063 257.203 52.1106H260.697V53ZM261.929 54.0819H261.599V53.4309H261.901C262.057 53.4309 262.14 53.3943 262.14 53.1925V53H261.581V51.5788H262.837V53.1742C262.837 53.7885 262.507 54.0819 261.929 54.0819ZM266.011 53.0917C264.26 53.0917 263.59 52.294 263.59 51.1204V50.9737H264.562V51.1112C264.562 51.8814 264.819 52.184 266.029 52.184C267.001 52.184 267.386 51.9456 267.386 51.2304C267.386 50.4602 267.047 50.231 266.194 50.231H264.966V49.4058H266.057C266.864 49.4058 267.175 49.2041 267.175 48.5622C267.175 47.9204 266.809 47.6729 265.947 47.6729C264.883 47.6729 264.562 47.9754 264.562 48.7456V48.819H263.59V48.7364C263.59 47.5628 264.416 46.7651 265.956 46.7651C267.34 46.7651 268.166 47.3336 268.166 48.4064C268.166 49.1124 267.808 49.635 267.029 49.745V49.7817C267.872 49.9009 268.386 50.451 268.386 51.3313C268.386 52.514 267.432 53.0917 266.011 53.0917ZM271.747 53.0917C270.151 53.0917 269.326 52.3857 269.326 51.2579V51.2029H270.307V51.2579C270.307 51.9456 270.766 52.184 271.783 52.184C272.865 52.184 273.223 51.8814 273.223 51.0195C273.223 50.1943 272.829 49.8734 271.793 49.8734C271.041 49.8734 270.601 50.0843 270.298 50.2585L269.427 50.121L269.638 46.8568H273.874V47.7462H270.509L270.362 49.5341H270.39C270.711 49.2682 271.288 49.0207 272.095 49.0207C273.406 49.0207 274.204 49.7542 274.204 50.992C274.204 52.2665 273.443 53.0917 271.747 53.0917ZM277.861 53.0917C276.21 53.0917 275.211 51.8722 275.211 49.9284C275.211 47.9846 276.21 46.7651 277.861 46.7651C279.511 46.7651 280.52 47.9846 280.52 49.9284C280.52 51.8722 279.511 53.0917 277.861 53.0917ZM277.861 52.1381C278.952 52.1381 279.465 51.5513 279.465 49.9284C279.465 48.3055 278.952 47.7187 277.861 47.7187C276.77 47.7187 276.265 48.3055 276.265 49.9284C276.265 51.5513 276.77 52.1381 277.861 52.1381Z" fill="#212020"/>
<g filter="url(#filter4_d_174_43156)">
<rect x="179.001" y="28" width="46" height="20" rx="5" fill="white"/>
</g>
<path d="M190.32 41.9169H189.403V41.055C188.055 40.89 187.459 40.129 187.459 39.0929V38.937H188.431V39.0378C188.431 39.7989 188.752 40.184 190.036 40.184C190.944 40.184 191.274 39.9364 191.274 39.3679C191.274 38.8086 191.09 38.6069 190.146 38.4144L189.101 38.2035C188.046 38.0018 187.478 37.4883 187.478 36.5164C187.478 35.682 188.074 34.9027 189.403 34.7835V33.9399H190.32V34.8018C191.613 34.9852 192.145 35.8471 192.145 36.8098V36.9198H191.173V36.819C191.173 36.0671 190.843 35.6729 189.742 35.6729C188.835 35.6729 188.468 35.9296 188.468 36.4705C188.468 37.0299 188.716 37.1857 189.559 37.3691L190.604 37.5892C191.76 37.8276 192.264 38.4052 192.264 39.3313C192.264 40.2298 191.659 40.9817 190.32 41.0825V41.9169ZM197.697 41H193.167V40.3857C193.167 39.2212 193.956 38.6894 194.818 38.2493L195.762 37.7634C196.422 37.4149 196.688 37.1399 196.688 36.6173C196.688 36.0488 196.477 35.6729 195.459 35.6729C194.341 35.6729 194.112 36.0396 194.112 36.8832V37.0115H193.121V36.8648C193.121 35.7187 193.837 34.7651 195.533 34.7651C197.046 34.7651 197.678 35.5628 197.678 36.5806C197.678 37.5892 196.991 38.1301 196.202 38.5336L195.304 38.992C194.68 39.3129 194.203 39.6063 194.203 40.1106H197.697V41ZM198.929 42.0819H198.599V41.4309H198.901C199.057 41.4309 199.14 41.3943 199.14 41.1925V41H198.581V39.5788H199.837V41.1742C199.837 41.7885 199.507 42.0819 198.929 42.0819ZM203.011 41.0917C201.26 41.0917 200.59 40.294 200.59 39.1204V38.9737H201.562V39.1112C201.562 39.8814 201.819 40.184 203.029 40.184C204.001 40.184 204.386 39.9456 204.386 39.2304C204.386 38.4602 204.047 38.231 203.194 38.231H201.966V37.4058H203.057C203.864 37.4058 204.175 37.2041 204.175 36.5622C204.175 35.9204 203.809 35.6729 202.947 35.6729C201.883 35.6729 201.562 35.9754 201.562 36.7456V36.819H200.59V36.7364C200.59 35.5628 201.416 34.7651 202.956 34.7651C204.34 34.7651 205.166 35.3336 205.166 36.4064C205.166 37.1124 204.808 37.635 204.029 37.745V37.7817C204.872 37.9009 205.386 38.451 205.386 39.3313C205.386 40.514 204.432 41.0917 203.011 41.0917ZM208.747 41.0917C207.151 41.0917 206.326 40.3857 206.326 39.2579V39.2029H207.307V39.2579C207.307 39.9456 207.766 40.184 208.783 40.184C209.865 40.184 210.223 39.8814 210.223 39.0195C210.223 38.1943 209.829 37.8734 208.793 37.8734C208.041 37.8734 207.601 38.0843 207.298 38.2585L206.427 38.121L206.638 34.8568H210.874V35.7462H207.509L207.362 37.5341H207.39C207.711 37.2682 208.288 37.0207 209.095 37.0207C210.406 37.0207 211.204 37.7542 211.204 38.992C211.204 40.2665 210.443 41.0917 208.747 41.0917ZM214.861 41.0917C213.21 41.0917 212.211 39.8722 212.211 37.9284C212.211 35.9846 213.21 34.7651 214.861 34.7651C216.511 34.7651 217.52 35.9846 217.52 37.9284C217.52 39.8722 216.511 41.0917 214.861 41.0917ZM214.861 40.1381C215.952 40.1381 216.465 39.5513 216.465 37.9284C216.465 36.3055 215.952 35.7187 214.861 35.7187C213.77 35.7187 213.265 36.3055 213.265 37.9284C213.265 39.5513 213.77 40.1381 214.861 40.1381Z" fill="#212020"/>
<path d="M262.452 79.6651C262.452 90.0674 254.02 98.5002 243.617 98.5002C233.215 98.5002 224.782 90.0674 224.782 79.6651C224.782 69.2628 233.215 60.8301 243.617 60.8301C254.02 60.8301 262.452 69.2628 262.452 79.6651ZM231.186 79.6651C231.186 86.5307 236.752 92.0963 243.617 92.0963C250.483 92.0963 256.048 86.5307 256.048 79.6651C256.048 72.7996 250.483 67.234 243.617 67.234C236.752 67.234 231.186 72.7996 231.186 79.6651Z" fill="#FFEFD7"/>
<path d="M243.617 64.0338C243.617 62.2654 245.061 60.8042 246.804 61.1034C249.395 61.5481 251.876 62.5325 254.081 64.0061C257.179 66.0758 259.593 69.0174 261.019 72.459C262.444 75.9007 262.817 79.6878 262.09 83.3414C261.364 86.9951 259.57 90.3512 256.936 92.9853C254.302 95.6194 250.945 97.4133 247.292 98.14C243.638 98.8668 239.851 98.4938 236.409 97.0682C232.968 95.6426 230.026 93.2285 227.957 90.1311C226.483 87.9257 225.499 85.4444 225.054 82.8535C224.755 81.1106 226.216 79.6669 227.984 79.6669C229.753 79.6669 231.146 81.1236 231.596 82.8336C231.945 84.1578 232.512 85.4225 233.281 86.5733C234.647 88.6176 236.589 90.2109 238.86 91.1518C241.132 92.0927 243.631 92.3388 246.042 91.8592C248.454 91.3795 250.669 90.1956 252.407 88.457C254.146 86.7185 255.33 84.5035 255.81 82.0921C256.289 79.6807 256.043 77.1812 255.102 74.9097C254.161 72.6382 252.568 70.6967 250.524 69.3308C249.373 68.5618 248.108 67.9947 246.784 67.6459C245.074 67.1954 243.617 65.8022 243.617 64.0338Z" fill="#F69E1E"/>
<circle cx="247.156" cy="64.3611" r="2.11894" fill="white"/>
<g filter="url(#filter5_d_174_43156)">
<rect x="262" y="15" width="46" height="20" rx="5" fill="white"/>
</g>
<path d="M273.319 28.9169H272.402V28.055C271.054 27.89 270.458 27.129 270.458 26.0929V25.937H271.43V26.0378C271.43 26.7989 271.751 27.184 273.035 27.184C273.943 27.184 274.273 26.9364 274.273 26.3679C274.273 25.8086 274.089 25.6069 273.145 25.4144L272.1 25.2035C271.045 25.0018 270.477 24.4883 270.477 23.5164C270.477 22.682 271.073 21.9027 272.402 21.7835V20.9399H273.319V21.8018C274.612 21.9852 275.144 22.8471 275.144 23.8098V23.9198H274.172V23.819C274.172 23.0671 273.842 22.6729 272.742 22.6729C271.834 22.6729 271.467 22.9296 271.467 23.4705C271.467 24.0299 271.715 24.1857 272.558 24.3691L273.603 24.5892C274.759 24.8276 275.263 25.4052 275.263 26.3313C275.263 27.2298 274.658 27.9817 273.319 28.0825V28.9169ZM278.028 28.0092H276.955C276.955 25.3318 278.193 23.6998 279.21 22.792V22.7462H275.781V21.8568H280.393V22.6729C278.715 24.2041 278.028 25.8453 278.028 28.0092ZM280.648 29.0819H280.317V28.4309H280.62C280.776 28.4309 280.858 28.3943 280.858 28.1925V28H280.299V26.5788H281.555V28.1742C281.555 28.7885 281.225 29.0819 280.648 29.0819ZM284.903 28.0917C283.307 28.0917 282.482 27.3857 282.482 26.2579V26.2029H283.463V26.2579C283.463 26.9456 283.922 27.184 284.939 27.184C286.021 27.184 286.379 26.8814 286.379 26.0195C286.379 25.1943 285.985 24.8734 284.949 24.8734C284.197 24.8734 283.757 25.0843 283.454 25.2585L282.583 25.121L282.794 21.8568H287.03V22.7462H283.665L283.518 24.5341H283.546C283.867 24.2682 284.444 24.0207 285.251 24.0207C286.562 24.0207 287.36 24.7542 287.36 25.992C287.36 27.2665 286.599 28.0917 284.903 28.0917ZM291.017 28.0917C289.366 28.0917 288.367 26.8722 288.367 24.9284C288.367 22.9846 289.366 21.7651 291.017 21.7651C292.667 21.7651 293.676 22.9846 293.676 24.9284C293.676 26.8722 292.667 28.0917 291.017 28.0917ZM291.017 27.1381C292.108 27.1381 292.621 26.5513 292.621 24.9284C292.621 23.3055 292.108 22.7187 291.017 22.7187C289.926 22.7187 289.421 23.3055 289.421 24.9284C289.421 26.5513 289.926 27.1381 291.017 27.1381ZM297.546 28.0917C295.896 28.0917 294.897 26.8722 294.897 24.9284C294.897 22.9846 295.896 21.7651 297.546 21.7651C299.197 21.7651 300.205 22.9846 300.205 24.9284C300.205 26.8722 299.197 28.0917 297.546 28.0917ZM297.546 27.1381C298.638 27.1381 299.151 26.5513 299.151 24.9284C299.151 23.3055 298.638 22.7187 297.546 22.7187C296.455 22.7187 295.951 23.3055 295.951 24.9284C295.951 26.5513 296.455 27.1381 297.546 27.1381Z" fill="#212020"/>
</g>
<defs>
<filter id="filter0_d_174_43156" x="74.83" y="65.9915" width="60.1155" height="41.8196" filterUnits="userSpaceOnUse" color-interpolation-filters="sRGB">
<feFlood flood-opacity="0" result="BackgroundImageFix"/>
<feColorMatrix in="SourceAlpha" type="matrix" values="0 0 0 0 0 0 0 0 0 0 0 0 0 0 0 0 0 0 127 0" result="hardAlpha"/>
<feOffset dx="2.192" dy="3.288"/>
<feGaussianBlur stdDeviation="6.576"/>
<feComposite in2="hardAlpha" operator="out"/>
<feColorMatrix type="matrix" values="0 0 0 0 0 0 0 0 0 0 0 0 0 0 0 0 0 0 0.14 0"/>
<feBlend mode="normal" in2="BackgroundImageFix" result="effect1_dropShadow_174_43156"/>
<feBlend mode="normal" in="SourceGraphic" in2="effect1_dropShadow_174_43156" result="shape"/>
</filter>
<filter id="filter1_d_174_43156" x="91.5399" y="86.2677" width="24.1122" height="24.1122" filterUnits="userSpaceOnUse" color-interpolation-filters="sRGB">
<feFlood flood-opacity="0" result="BackgroundImageFix"/>
<feColorMatrix in="SourceAlpha" type="matrix" values="0 0 0 0 0 0 0 0 0 0 0 0 0 0 0 0 0 0 127 0" result="hardAlpha"/>
<feOffset dx="1.096" dy="2.192"/>
<feGaussianBlur stdDeviation="4.384"/>
<feComposite in2="hardAlpha" operator="out"/>
<feColorMatrix type="matrix" values="0 0 0 0 0 0 0 0 0 0 0 0 0 0 0 0 0 0 0.2 0"/>
<feBlend mode="normal" in2="BackgroundImageFix" result="effect1_dropShadow_174_43156"/>
<feBlend mode="normal" in="SourceGraphic" in2="effect1_dropShadow_174_43156" result="shape"/>
</filter>
<filter id="filter2_d_174_43156" x="161.43" y="-1.98277" width="163.8" height="160.553" filterUnits="userSpaceOnUse" color-interpolation-filters="sRGB">
<feFlood flood-opacity="0" result="BackgroundImageFix"/>
<feColorMatrix in="SourceAlpha" type="matrix" values="0 0 0 0 0 0 0 0 0 0 0 0 0 0 0 0 0 0 127 0" result="hardAlpha"/>
<feOffset dx="-0.793611" dy="0.793611"/>
<feGaussianBlur stdDeviation="13.8882"/>
<feComposite in2="hardAlpha" operator="out"/>
<feColorMatrix type="matrix" values="0 0 0 0 0.971154 0 0 0 0 0.971154 0 0 0 0 0.971154 0 0 0 0.25 0"/>
<feBlend mode="normal" in2="BackgroundImageFix" result="effect1_dropShadow_174_43156"/>
<feBlend mode="normal" in="SourceGraphic" in2="effect1_dropShadow_174_43156" result="shape"/>
</filter>
<filter id="filter3_d_174_43156" x="215.608" y="15.0731" width="97.3202" height="71.3202" filterUnits="userSpaceOnUse" color-interpolation-filters="sRGB">
<feFlood flood-opacity="0" result="BackgroundImageFix"/>
<feColorMatrix in="SourceAlpha" type="matrix" values="0 0 0 0 0 0 0 0 0 0 0 0 0 0 0 0 0 0 127 0" result="hardAlpha"/>
<feOffset dx="-0.733145" dy="0.733145"/>
<feGaussianBlur stdDeviation="12.83"/>
<feComposite in2="hardAlpha" operator="out"/>
<feColorMatrix type="matrix" values="0 0 0 0 0 0 0 0 0 0 0 0 0 0 0 0 0 0 0.25 0"/>
<feBlend mode="normal" in2="BackgroundImageFix" result="effect1_dropShadow_174_43156"/>
<feBlend mode="normal" in="SourceGraphic" in2="effect1_dropShadow_174_43156" result="shape"/>
</filter>
<filter id="filter4_d_174_43156" x="152.608" y="3.07306" width="97.3202" height="71.3202" filterUnits="userSpaceOnUse" color-interpolation-filters="sRGB">
<feFlood flood-opacity="0" result="BackgroundImageFix"/>
<feColorMatrix in="SourceAlpha" type="matrix" values="0 0 0 0 0 0 0 0 0 0 0 0 0 0 0 0 0 0 127 0" result="hardAlpha"/>
<feOffset dx="-0.733145" dy="0.733145"/>
<feGaussianBlur stdDeviation="12.83"/>
<feComposite in2="hardAlpha" operator="out"/>
<feColorMatrix type="matrix" values="0 0 0 0 0 0 0 0 0 0 0 0 0 0 0 0 0 0 0.25 0"/>
<feBlend mode="normal" in2="BackgroundImageFix" result="effect1_dropShadow_174_43156"/>
<feBlend mode="normal" in="SourceGraphic" in2="effect1_dropShadow_174_43156" result="shape"/>
</filter>
<filter id="filter5_d_174_43156" x="235.607" y="-9.92694" width="97.3202" height="71.3202" filterUnits="userSpaceOnUse" color-interpolation-filters="sRGB">
<feFlood flood-opacity="0" result="BackgroundImageFix"/>
<feColorMatrix in="SourceAlpha" type="matrix" values="0 0 0 0 0 0 0 0 0 0 0 0 0 0 0 0 0 0 127 0" result="hardAlpha"/>
<feOffset dx="-0.733145" dy="0.733145"/>
<feGaussianBlur stdDeviation="12.83"/>
<feComposite in2="hardAlpha" operator="out"/>
<feColorMatrix type="matrix" values="0 0 0 0 0 0 0 0 0 0 0 0 0 0 0 0 0 0 0.25 0"/>
<feBlend mode="normal" in2="BackgroundImageFix" result="effect1_dropShadow_174_43156"/>
<feBlend mode="normal" in="SourceGraphic" in2="effect1_dropShadow_174_43156" result="shape"/>
</filter>
<linearGradient id="paint0_linear_174_43156" x1="167.5" y1="-3.71268e-07" x2="170.48" y2="106.987" gradientUnits="userSpaceOnUse">
<stop stop-color="#F8F8F8"/>
<stop offset="1" stop-color="white"/>
</linearGradient>
<linearGradient id="paint1_linear_174_43156" x1="125.247" y1="46.2637" x2="125.247" y2="133.396" gradientUnits="userSpaceOnUse">
<stop stop-color="#0077FF" stop-opacity="0.25"/>
<stop offset="1" stop-color="#D9D9D9" stop-opacity="0"/>
</linearGradient>
<clipPath id="clip0_174_43156">
<path d="M0 10C0 4.47715 4.47715 0 10 0H307C312.523 0 317 4.47715 317 10V107H0V10Z" fill="white"/>
</clipPath>
</defs>
</svg>
