<svg width="317" height="98" viewBox="0 0 317 98" fill="none" xmlns="http://www.w3.org/2000/svg">
<g clip-path="url(#clip0_174_43223)">
<path d="M0 10C0 4.47715 4.47715 0 10 0H307C312.523 0 317 4.47715 317 10V98H0V10Z" fill="url(#paint0_linear_174_43223)"/>
<rect x="15.5449" y="12.5449" width="228.743" height="74.4628" rx="6.57947" fill="white" stroke="#EBEBEB" stroke-width="1.08988"/>
<path d="M57.2977 33.6504C54.8851 33.6504 53.5138 31.9743 53.5138 29.2696C53.5138 26.6158 55.0375 24.8889 57.5644 24.8889C59.8373 24.8889 61.2214 26.1079 61.2214 28.0633V28.1522H59.7738V28.0633C59.7738 26.7808 59.1262 26.2094 57.5009 26.2094C55.7105 26.2094 54.974 27.0602 54.974 29.2696C54.974 31.4791 55.7359 32.3298 57.6152 32.3298C59.177 32.3298 59.9135 31.8727 59.9135 30.5394V30.3363H57.2596V29.1554H61.2341V33.5234H59.977V32.1902H59.9262C59.6088 32.9647 58.7199 33.6504 57.2977 33.6504ZM66.6362 33.5234H62.5728V25.0158H66.4838C68.1472 25.0158 69.1504 25.7015 69.1504 27.1364C69.1504 28.1268 68.5916 28.7998 67.4996 28.9649V29.0665C68.7948 29.2315 69.4551 30.0696 69.4551 31.187C69.4551 32.6346 68.4266 33.5234 66.6362 33.5234ZM63.9442 26.2475V28.5459H66.3568C67.3853 28.5459 67.7917 28.2665 67.7917 27.403C67.7917 26.5269 67.4234 26.2475 66.3949 26.2475H63.9442ZM63.9442 29.6887V32.2917H66.5981C67.6266 32.2917 68.071 31.9997 68.071 30.9966C68.071 29.9807 67.6266 29.6887 66.5981 29.6887H63.9442ZM71.9796 33.5234H70.6082V25.0158H74.2271C76.0049 25.0158 77.3127 26.0698 77.3127 27.8983C77.3127 29.7268 76.0049 30.7807 74.2271 30.7807H71.9796V33.5234ZM74.3922 26.2475H71.9796V29.549H74.3922C75.5096 29.549 75.9541 29.1173 75.9541 27.8983C75.9541 26.6793 75.5096 26.2475 74.3922 26.2475ZM84.7778 33.5234H80.7145V25.0158H84.6255C86.2889 25.0158 87.292 25.7015 87.292 27.1364C87.292 28.1268 86.7333 28.7998 85.6413 28.9649V29.0665C86.9365 29.2315 87.5968 30.0696 87.5968 31.187C87.5968 32.6346 86.5682 33.5234 84.7778 33.5234ZM82.0859 26.2475V28.5459H84.4985C85.527 28.5459 85.9333 28.2665 85.9333 27.403C85.9333 26.5269 85.5651 26.2475 84.5366 26.2475H82.0859ZM82.0859 29.6887V32.2917H84.7397C85.7683 32.2917 86.2127 31.9997 86.2127 30.9966C86.2127 29.9807 85.7683 29.6887 84.7397 29.6887H82.0859ZM90.4139 33.6504C89.2838 33.6504 88.4076 33.0663 88.4076 31.9616C88.4076 30.9204 89.1695 30.3744 90.5155 30.1839L92.7249 29.8537V29.5109C92.7249 28.5712 92.2932 28.2919 91.3028 28.2919C90.2996 28.2919 89.906 28.6093 89.906 29.4474V29.6379H88.5854V29.5109C88.5854 28.1014 89.6901 27.0856 91.379 27.0856C93.144 27.0856 94.0328 28.1522 94.0328 29.6887V33.5234H92.763V32.533H92.6995C92.3313 33.1298 91.6075 33.6504 90.4139 33.6504ZM89.7409 31.86C89.7409 32.3552 90.0584 32.5584 90.8583 32.5584C91.7472 32.5584 92.7249 32.2029 92.7249 30.9331V30.8188L90.7187 31.1235C89.9949 31.2251 89.7409 31.3902 89.7409 31.86ZM96.7173 33.5234H95.346V27.2126H96.6031V28.3935H96.6539C96.9459 27.7205 97.6189 27.0856 98.8506 27.0856C100.489 27.0856 101.225 28.1268 101.225 29.5617V33.5234H99.8537V29.8664C99.8537 28.7363 99.4982 28.2665 98.3427 28.2665C97.2253 28.2665 96.7173 28.6982 96.7173 29.8791V33.5234ZM103.91 33.5234H102.538V25.0158H103.91V29.7141H105.154L106.843 27.2126H108.455L106.259 30.1966L108.417 33.5234H106.817L105.167 30.9458H103.91V33.5234ZM112.479 33.5234H111.044L114.358 25.0158H116.326L119.641 33.5234H118.155L117.291 31.314H113.342L112.479 33.5234ZM114.714 27.8348L113.825 30.0823H116.809L115.92 27.8348L115.374 26.2602H115.272L114.714 27.8348ZM123.028 33.6631C121.06 33.6631 119.942 32.3298 119.942 30.3744C119.942 28.4062 121.098 27.0856 123.079 27.0856C124.742 27.0856 125.885 28.1141 125.885 29.6252V29.7395H124.526V29.6633C124.526 28.7363 124.044 28.3173 122.99 28.3173C121.771 28.3173 121.301 29.003 121.301 30.3744C121.301 31.7457 121.771 32.4187 122.99 32.4187C124.044 32.4187 124.526 32.0124 124.526 31.0854V31.0092H125.885V31.1235C125.885 32.6219 124.729 33.6631 123.028 33.6631ZM129.811 33.6631C127.843 33.6631 126.725 32.3298 126.725 30.3744C126.725 28.4062 127.881 27.0856 129.862 27.0856C131.525 27.0856 132.668 28.1141 132.668 29.6252V29.7395H131.309V29.6633C131.309 28.7363 130.827 28.3173 129.773 28.3173C128.554 28.3173 128.084 29.003 128.084 30.3744C128.084 31.7457 128.554 32.4187 129.773 32.4187C130.827 32.4187 131.309 32.0124 131.309 31.0854V31.0092H132.668V31.1235C132.668 32.6219 131.512 33.6631 129.811 33.6631ZM136.657 33.6504C134.714 33.6504 133.508 32.3298 133.508 30.3617C133.508 28.4062 134.714 27.0856 136.657 27.0856C138.587 27.0856 139.756 28.4062 139.756 30.3617C139.756 32.3298 138.587 33.6504 136.657 33.6504ZM136.657 32.4314C137.978 32.4314 138.435 31.7838 138.435 30.3617C138.435 28.9522 137.978 28.3046 136.657 28.3046C135.324 28.3046 134.854 28.9522 134.854 30.3617C134.854 31.7838 135.324 32.4314 136.657 32.4314ZM143.13 33.6504C141.479 33.6504 140.743 32.5457 140.743 31.1108V27.2126H142.114V30.8696C142.114 31.9997 142.546 32.4695 143.638 32.4695C144.692 32.4695 145.288 32.0124 145.288 30.768V27.2126H146.66V33.5234H145.39V32.2663H145.339C145.035 32.9901 144.362 33.6504 143.13 33.6504ZM149.381 33.5234H148.01V27.2126H149.267V28.3935H149.318C149.61 27.7205 150.283 27.0856 151.515 27.0856C153.153 27.0856 153.889 28.1268 153.889 29.5617V33.5234H152.518V29.8664C152.518 28.7363 152.162 28.2665 151.007 28.2665C149.889 28.2665 149.381 28.6982 149.381 29.8791V33.5234ZM157.769 33.5234C156.36 33.5234 155.623 33.0028 155.623 31.5807V28.3554H154.569V27.2126H155.648L155.941 25.6507H156.994V27.2126H158.899V28.3554H156.994V31.5172C156.994 32.1775 157.274 32.2917 158.125 32.2917H158.899V33.4092C158.633 33.4726 158.201 33.5234 157.769 33.5234ZM165.293 33.5234H162.271V25.0158H165.293C167.922 25.0158 169.598 26.6412 169.598 29.2696C169.598 31.8981 167.922 33.5234 165.293 33.5234ZM165.293 26.2475H163.643V32.2917H165.293C167.325 32.2917 168.138 31.4537 168.138 29.2696C168.138 27.0856 167.325 26.2475 165.293 26.2475ZM173.497 33.6504C171.414 33.6504 170.436 32.3298 170.436 30.3617C170.436 28.4062 171.605 27.0856 173.484 27.0856C175.185 27.0856 176.379 28.1014 176.379 29.8283C176.379 30.1585 176.341 30.5013 176.303 30.6918H171.719C171.77 31.8473 172.189 32.4314 173.509 32.4314C174.563 32.4314 174.969 32.0759 174.969 31.5045V31.4029H176.328V31.5172C176.328 32.8124 175.198 33.6504 173.497 33.6504ZM173.458 28.2411C172.265 28.2411 171.808 28.7998 171.732 29.7776H175.071C175.122 28.6982 174.538 28.2411 173.458 28.2411ZM180.052 33.5234C178.643 33.5234 177.906 33.0028 177.906 31.5807V28.3554H176.853V27.2126H177.932L178.224 25.6507H179.278V27.2126H181.183V28.3554H179.278V31.5172C179.278 32.1775 179.557 32.2917 180.408 32.2917H181.183V33.4092C180.916 33.4726 180.484 33.5234 180.052 33.5234ZM183.813 33.6504C182.683 33.6504 181.807 33.0663 181.807 31.9616C181.807 30.9204 182.569 30.3744 183.915 30.1839L186.124 29.8537V29.5109C186.124 28.5712 185.692 28.2919 184.702 28.2919C183.699 28.2919 183.305 28.6093 183.305 29.4474V29.6379H181.985V29.5109C181.985 28.1014 183.089 27.0856 184.778 27.0856C186.543 27.0856 187.432 28.1522 187.432 29.6887V33.5234H186.162V32.533H186.099C185.73 33.1298 185.007 33.6504 183.813 33.6504ZM183.14 31.86C183.14 32.3552 183.458 32.5584 184.258 32.5584C185.146 32.5584 186.124 32.2029 186.124 30.9331V30.8188L184.118 31.1235C183.394 31.2251 183.14 31.3902 183.14 31.86ZM190.028 26.4126H188.669L188.656 25.0158H190.028V26.4126ZM190.04 33.5234H188.669V27.1745H190.04V33.5234ZM192.671 33.5234H191.3V25.0158H192.671V33.5234ZM196.632 33.6504C194.791 33.6504 193.826 32.9266 193.826 31.3902V31.3648H195.146V31.5934C195.146 32.279 195.451 32.533 196.657 32.533C197.673 32.533 197.864 32.3044 197.864 31.8346C197.864 31.3267 197.559 31.1743 196.632 31.0092L195.654 30.8442C194.524 30.641 193.813 30.1331 193.813 28.9903C193.813 27.8475 194.753 27.0856 196.403 27.0856C197.889 27.0856 199.006 27.8221 199.006 29.2569V29.3712H197.699V29.2188C197.699 28.6347 197.495 28.2157 196.365 28.2157C195.362 28.2157 195.121 28.4824 195.121 28.9649C195.121 29.4474 195.349 29.5871 196.238 29.7649L197.305 29.968C198.524 30.2093 199.159 30.7553 199.159 31.7965C199.159 32.9647 198.232 33.6504 196.632 33.6504Z" fill="#171717"/>
<path d="M26.3975 57.1895H25.2496L27.901 50.3834H29.4755L32.1268 57.1895H30.9383L30.2475 55.4219H27.0883L26.3975 57.1895ZM28.1854 52.6385L27.4743 54.4365H29.8615L29.1504 52.6385L28.7136 51.3789H28.6324L28.1854 52.6385ZM34.8366 57.3012C33.2621 57.3012 32.3682 56.2346 32.3682 54.6702C32.3682 53.0956 33.2926 52.0392 34.8773 52.0392C36.208 52.0392 37.1223 52.862 37.1223 54.0708V54.1623H36.0353V54.1013C36.0353 53.3598 35.6493 53.0245 34.8062 53.0245C33.831 53.0245 33.4551 53.5731 33.4551 54.6702C33.4551 55.7673 33.831 56.3057 34.8062 56.3057C35.6493 56.3057 36.0353 55.9806 36.0353 55.2391V55.1781H37.1223V55.2695C37.1223 56.4682 36.1979 57.3012 34.8366 57.3012ZM40.263 57.3012C38.6885 57.3012 37.7945 56.2346 37.7945 54.6702C37.7945 53.0956 38.7189 52.0392 40.3036 52.0392C41.6344 52.0392 42.5486 52.862 42.5486 54.0708V54.1623H41.4617V54.1013C41.4617 53.3598 41.0757 53.0245 40.2325 53.0245C39.2573 53.0245 38.8815 53.5731 38.8815 54.6702C38.8815 55.7673 39.2573 56.3057 40.2325 56.3057C41.0757 56.3057 41.4617 55.9806 41.4617 55.2391V55.1781H42.5486V55.2695C42.5486 56.4682 41.6242 57.3012 40.263 57.3012ZM45.7402 57.291C44.186 57.291 43.2209 56.2346 43.2209 54.66C43.2209 53.0956 44.186 52.0392 45.7402 52.0392C47.2843 52.0392 48.2188 53.0956 48.2188 54.66C48.2188 56.2346 47.2843 57.291 45.7402 57.291ZM45.7402 56.3158C46.7967 56.3158 47.1624 55.7978 47.1624 54.66C47.1624 53.5325 46.7967 53.0144 45.7402 53.0144C44.6736 53.0144 44.2977 53.5325 44.2977 54.66C44.2977 55.7978 44.6736 56.3158 45.7402 56.3158ZM50.9182 57.291C49.5977 57.291 49.0085 56.4073 49.0085 55.2594V52.1408H50.1056V55.0664C50.1056 55.9705 50.451 56.3463 51.3246 56.3463C52.1677 56.3463 52.6452 55.9806 52.6452 54.9851V52.1408H53.7423V57.1895H52.7264V56.1838H52.6858C52.442 56.7628 51.9036 57.291 50.9182 57.291ZM55.9196 57.1895H54.8225V52.1408H55.8281V53.0855H55.8688C56.1024 52.5471 56.6408 52.0392 57.6262 52.0392C58.9366 52.0392 59.5258 52.8722 59.5258 54.0201V57.1895H58.4287V54.2639C58.4287 53.3598 58.1442 52.9839 57.2198 52.9839C56.3259 52.9839 55.9196 53.3293 55.9196 54.274V57.1895ZM62.6296 57.1895C61.502 57.1895 60.9129 56.773 60.9129 55.6352V53.055H60.0697V52.1408H60.9332L61.1668 50.8913H62.01V52.1408H63.5337V53.055H62.01V55.5844C62.01 56.1127 62.2334 56.2041 62.914 56.2041H63.5337V57.098C63.3204 57.1488 62.975 57.1895 62.6296 57.1895ZM67.3286 57.1895H66.2315V50.3834H67.4098L69.99 54.2842L70.7113 55.3711H70.7926V50.3834H71.8897V57.1895H70.7113L68.1412 53.3496L67.3997 52.2423H67.3286V57.1895ZM74.8955 57.291C73.5749 57.291 72.9857 56.4073 72.9857 55.2594V52.1408H74.0828V55.0664C74.0828 55.9705 74.4282 56.3463 75.3018 56.3463C76.145 56.3463 76.6224 55.9806 76.6224 54.9851V52.1408H77.7195V57.1895H76.7037V56.1838H76.663C76.4192 56.7628 75.8808 57.291 74.8955 57.291ZM79.8968 57.1895H78.7997V52.1408H79.8054V53.0855H79.846C80.0797 52.5471 80.6079 52.0392 81.5729 52.0392C82.4567 52.0392 83.0053 52.4455 83.2491 53.0855H83.2795C83.5132 52.5573 84.0312 52.0392 85.0268 52.0392C86.327 52.0392 86.9061 52.8722 86.9061 54.0201V57.1895H85.809V54.2639C85.809 53.3598 85.5347 52.9839 84.6204 52.9839C83.7874 52.9839 83.4014 53.3293 83.4014 54.2537V57.1895H82.3043V54.2639C82.3043 53.3598 82.0301 52.9839 81.1158 52.9839C80.2828 52.9839 79.8968 53.3293 79.8968 54.2435V57.1895ZM88.9618 57.1895H87.9561V50.3834H89.0532V52.9433H89.0735C89.297 52.4861 89.876 52.0392 90.77 52.0392C92.1616 52.0392 92.893 53.0652 92.893 54.66C92.893 56.265 92.121 57.291 90.709 57.291C89.8354 57.291 89.2462 56.9457 89.0024 56.3565H88.9618V57.1895ZM89.0532 55.1172C89.0532 55.9603 89.5408 56.3565 90.4246 56.3565C91.3998 56.3565 91.8061 55.9095 91.8061 54.66C91.8061 53.4207 91.3896 52.9737 90.4246 52.9737C89.5408 52.9737 89.0532 53.3699 89.0532 54.2131V55.1172ZM96.0144 57.291C94.3484 57.291 93.5662 56.2346 93.5662 54.66C93.5662 53.0956 94.5008 52.0392 96.0042 52.0392C97.3654 52.0392 98.3203 52.8518 98.3203 54.2334C98.3203 54.4975 98.2898 54.7718 98.2593 54.9241H94.5922C94.6328 55.8486 94.968 56.3158 96.0245 56.3158C96.8677 56.3158 97.1927 56.0314 97.1927 55.5743V55.493H98.2797V55.5844C98.2797 56.6206 97.3756 57.291 96.0144 57.291ZM95.9839 52.9636C95.029 52.9636 94.6633 53.4106 94.6023 54.1927H97.274C97.3146 53.3293 96.8473 52.9636 95.9839 52.9636ZM100.293 57.1895H99.1957V52.1103H100.201V52.9128H100.252C100.455 52.4455 100.923 52.0392 101.664 52.0392C102.721 52.0392 103.127 52.8112 103.127 53.7559V54.0912H102.03V53.888C102.03 53.2175 101.837 52.9737 101.197 52.9737C100.537 52.9737 100.293 53.2277 100.293 53.8982V57.1895Z" fill="#171717"/>
<path d="M28.1448 73.7988C26.2858 73.7988 25.5645 72.844 25.5645 71.6148V71.4523H26.2858V71.5843C26.2858 72.6306 26.6718 73.1284 28.1448 73.1284C29.4044 73.1284 29.8717 72.7424 29.8717 71.8078C29.8717 70.8428 29.3739 70.4568 28.2463 70.4568H27.0172V69.8371H28.094C29.2012 69.8371 29.6685 69.4917 29.6685 68.6587C29.6685 67.8257 29.252 67.46 28.0736 67.46C26.7124 67.46 26.2858 67.9578 26.2858 69.0041V69.0955H25.5645V68.9736C25.5645 67.7445 26.3772 66.7896 28.0838 66.7896C29.5364 66.7896 30.3999 67.4194 30.3999 68.5673C30.3999 69.3393 29.9834 69.9387 29.1301 70.0911V70.1317C30.0748 70.2942 30.6031 70.924 30.6031 71.8688C30.6031 73.1284 29.638 73.7988 28.1448 73.7988ZM34.3025 73.7988C32.606 73.7988 31.4886 72.4783 31.4886 70.2942C31.4886 68.1102 32.606 66.7896 34.3025 66.7896C36.0091 66.7896 37.1163 68.1102 37.1163 70.2942C37.1163 72.4783 36.0091 73.7988 34.3025 73.7988ZM34.3025 73.0979C35.6434 73.0979 36.3544 72.2446 36.3544 70.2942C36.3544 68.3438 35.6434 67.4905 34.3025 67.4905C32.9717 67.4905 32.2606 68.3438 32.2606 70.2942C32.2606 72.2446 32.9717 73.0979 34.3025 73.0979ZM40.6358 73.7988C38.9597 73.7988 37.954 73.0878 37.954 71.8586C37.954 70.9444 38.5127 70.345 39.3558 70.1317V70.0911C38.5838 69.9387 38.147 69.3393 38.147 68.5673C38.147 67.5312 39.0308 66.7896 40.6358 66.7896C42.2611 66.7896 43.1347 67.5312 43.1347 68.5673C43.1347 69.3393 42.6979 69.9387 41.936 70.0911V70.1317C42.7792 70.345 43.3379 70.9444 43.3379 71.8586C43.3379 73.0878 42.3221 73.7988 40.6358 73.7988ZM40.6358 69.8879C41.9259 69.8879 42.4033 69.4816 42.4033 68.6587C42.4033 67.907 41.9868 67.46 40.6358 67.46C39.305 67.46 38.8784 67.907 38.8784 68.6587C38.8784 69.4816 39.366 69.8879 40.6358 69.8879ZM40.6358 73.1284C42.1291 73.1284 42.5963 72.651 42.5963 71.7672C42.5963 70.8732 42.1087 70.406 40.6358 70.406C39.173 70.406 38.6955 70.8732 38.6955 71.7672C38.6955 72.651 39.1628 73.1284 40.6358 73.1284ZM48.5248 73.6973H47.7934V72.1837H43.8418V71.6554L47.6715 66.8912H48.5248V71.5234H49.6423V72.1837H48.5248V73.6973ZM44.7764 71.5234H47.7934V67.8054H47.7426L44.7764 71.4726V71.5234ZM52.8086 73.7988C51.1325 73.7988 50.2081 73.0167 50.2081 71.7672V71.7062H50.9395V71.7672C50.9395 72.7729 51.5693 73.1284 52.829 73.1284C54.1495 73.1284 54.6575 72.7322 54.6575 71.5539C54.6575 70.4568 54.1089 70.0199 52.8594 70.0199C51.9553 70.0199 51.4576 70.2536 51.0106 70.5075L50.3706 70.3755L50.6449 66.8912H55.013V67.5515H51.2849L51.0614 69.9488H51.0817C51.5287 69.6238 52.1991 69.3901 53.0423 69.3901C54.4543 69.3901 55.3787 70.152 55.3787 71.5437C55.3787 72.9557 54.5152 73.7988 52.8086 73.7988ZM60.697 73.6973H59.9656V72.1837H56.014V71.6554L59.8437 66.8912H60.697V71.5234H61.8144V72.1837H60.697V73.6973ZM56.9486 71.5234H59.9656V67.8054H59.9148L56.9486 71.4726V71.5234ZM65.1325 73.7988C63.7001 73.7988 62.7351 72.9862 62.7351 71.6758V71.6148H63.497V71.6758C63.497 72.4478 63.8322 73.0979 65.1731 73.0979C66.6968 73.0979 67.0016 72.2446 67.0016 70.4263V69.8574H66.9508C66.6867 70.5482 66.0061 71.1069 64.7871 71.1069C63.2836 71.1069 62.4507 70.2637 62.4507 68.9736C62.4507 67.6429 63.3751 66.7896 65.0106 66.7896C67.0016 66.7896 67.7431 67.8664 67.7431 70.2942C67.7431 72.3665 67.1032 73.7988 65.1325 73.7988ZM64.9902 70.4771C66.2702 70.4771 66.8492 69.9488 66.8492 68.9838C66.8492 67.9883 66.26 67.4905 64.9902 67.4905C63.6697 67.4905 63.1617 67.9781 63.1617 68.994C63.1617 69.9793 63.6493 70.4771 64.9902 70.4771ZM71.4814 73.7988C70.0491 73.7988 69.084 72.9862 69.084 71.6758V71.6148H69.8459V71.6758C69.8459 72.4478 70.1811 73.0979 71.522 73.0979C73.0458 73.0979 73.3505 72.2446 73.3505 70.4263V69.8574H73.2998C73.0356 70.5482 72.355 71.1069 71.136 71.1069C69.6326 71.1069 68.7996 70.2637 68.7996 68.9736C68.7996 67.6429 69.724 66.7896 71.3595 66.7896C73.3505 66.7896 74.0921 67.8664 74.0921 70.2942C74.0921 72.3665 73.4521 73.7988 71.4814 73.7988ZM71.3392 70.4771C72.6191 70.4771 73.1982 69.9488 73.1982 68.9838C73.1982 67.9883 72.609 67.4905 71.3392 67.4905C70.0186 67.4905 69.5107 67.9781 69.5107 68.994C69.5107 69.9793 69.9983 70.4771 71.3392 70.4771ZM77.6185 73.7988C75.9424 73.7988 74.9367 73.0878 74.9367 71.8586C74.9367 70.9444 75.4954 70.345 76.3385 70.1317V70.0911C75.5665 69.9387 75.1297 69.3393 75.1297 68.5673C75.1297 67.5312 76.0135 66.7896 77.6185 66.7896C79.2438 66.7896 80.1174 67.5312 80.1174 68.5673C80.1174 69.3393 79.6806 69.9387 78.9187 70.0911V70.1317C79.7619 70.345 80.3206 70.9444 80.3206 71.8586C80.3206 73.0878 79.3048 73.7988 77.6185 73.7988ZM77.6185 69.8879C78.9086 69.8879 79.386 69.4816 79.386 68.6587C79.386 67.907 78.9695 67.46 77.6185 67.46C76.2877 67.46 75.8611 67.907 75.8611 68.6587C75.8611 69.4816 76.3487 69.8879 77.6185 69.8879ZM77.6185 73.1284C79.1118 73.1284 79.579 72.651 79.579 71.7672C79.579 70.8732 79.0914 70.406 77.6185 70.406C76.1557 70.406 75.6782 70.8732 75.6782 71.7672C75.6782 72.651 76.1455 73.1284 77.6185 73.1284ZM86.0249 73.6973H81.2708V73.2401C81.2708 71.9703 82.0631 71.3507 83.0079 70.8225L84.0643 70.2333C84.877 69.7863 85.2427 69.4308 85.2427 68.74C85.2427 67.9984 84.938 67.46 83.6682 67.46C82.2562 67.46 81.9006 67.9984 81.9006 69.0854V69.2073H81.1692V69.0447C81.1692 67.8156 81.9311 66.7896 83.7088 66.7896C85.2833 66.7896 85.9741 67.6531 85.9741 68.6892C85.9741 69.7558 85.2529 70.3247 84.3792 70.8123L83.3533 71.3812C82.5711 71.818 82.0225 72.2446 82.0327 73.037H86.0249V73.6973ZM89.6971 73.7988C88.0007 73.7988 86.8833 72.4783 86.8833 70.2942C86.8833 68.1102 88.0007 66.7896 89.6971 66.7896C91.4037 66.7896 92.511 68.1102 92.511 70.2942C92.511 72.4783 91.4037 73.7988 89.6971 73.7988ZM89.6971 73.0979C91.038 73.0979 91.7491 72.2446 91.7491 70.2942C91.7491 68.3438 91.038 67.4905 89.6971 67.4905C88.3664 67.4905 87.6553 68.3438 87.6553 70.2942C87.6553 72.2446 88.3664 73.0979 89.6971 73.0979ZM94.985 73.7074H94.2129C94.2129 70.7209 95.4726 68.7095 96.7119 67.5921V67.5515H92.6689V66.8912H97.6058V67.4905C95.7671 69.1565 94.985 71.2389 94.985 73.7074Z" fill="#171717"/>
<path d="M47.8599 30.5979C47.8599 37.2352 42.4793 42.6157 35.8421 42.6157C29.2048 42.6157 23.8242 37.2352 23.8242 30.5979C23.8242 23.9606 29.2048 18.5801 35.8421 18.5801C42.4793 18.5801 47.8599 23.9606 47.8599 30.5979Z" fill="#0052B5"/>
<path d="M32.8376 25.1899V18.9587C33.327 18.8327 33.8284 18.7368 34.3398 18.6731C34.8319 18.6117 35.3333 18.5801 35.8421 18.5801C36.3508 18.5801 36.8522 18.6117 37.3443 18.6731C37.8557 18.7368 38.3571 18.8327 38.8465 18.9587V26.8423L43.9541 21.7308C44.5047 22.2348 45.3077 23.2401 45.7568 23.8379L41.851 27.5935H47.4813C47.6072 28.0828 47.7031 28.5843 47.7669 29.0957C47.8283 29.5878 47.8599 30.0892 47.8599 30.5979C47.8599 31.1067 47.8283 31.608 47.7669 32.1001C47.7031 32.6116 47.6072 33.113 47.4813 33.6024H40.9496L45.4572 37.8086C44.8112 38.6687 44.0525 39.4392 43.203 40.0984L38.8465 35.7055V42.2371C38.3571 42.3631 37.8557 42.459 37.3443 42.5228C36.8522 42.5841 36.3508 42.6157 35.8421 42.6157C35.3333 42.6157 34.8319 42.5841 34.3398 42.5228C33.8284 42.459 33.327 42.3631 32.8376 42.2371L32.8376 34.5037L27.8802 39.6002C27.2079 39.0051 26.6028 38.3359 26.0776 37.6054L30.434 33.6024H24.2028C24.0769 33.113 23.981 32.6116 23.9172 32.1001C23.8558 31.608 23.8242 31.1067 23.8242 30.5979C23.8242 30.0892 23.8558 29.5878 23.9172 29.0957C23.981 28.5843 24.0769 28.0828 24.2028 27.5935H30.5843L26.2278 23.386C26.8946 22.4986 27.6814 21.7064 28.5641 21.0337L32.8376 25.1899Z" fill="white"/>
<path d="M32.8376 27.5935L27.3529 22.0913C27.0629 22.3807 26.7876 22.6848 26.5282 23.0025L31.3354 27.5935H32.8376Z" fill="#D90026"/>
<path d="M38.8465 27.5935L44.3312 22.0913C44.6212 22.3807 44.8965 22.6848 45.1559 23.0025L40.3487 27.5935H38.8465Z" fill="#D90026"/>
<path d="M38.8465 33.7055L44.3312 39.2077C44.6212 38.9183 44.8965 38.6141 45.1559 38.2964L40.3487 33.7055H38.8465Z" fill="#D90026"/>
<path d="M32.8376 33.7055L27.3529 39.2077C27.0629 38.9183 26.7876 38.6141 26.5282 38.2964L31.3354 33.7055H32.8376Z" fill="#D90026"/>
<path d="M23.9172 29.0957C23.8558 29.5878 23.8242 30.0892 23.8242 30.5979C23.8242 31.1067 23.8558 31.608 23.9172 32.1001H34.3398V42.5228C34.8319 42.5841 35.3333 42.6157 35.8421 42.6157C36.3508 42.6157 36.8522 42.5841 37.3443 42.5228V32.1001H47.7669C47.8283 31.608 47.8599 31.1067 47.8599 30.5979C47.8599 30.0892 47.8283 29.5878 47.7669 29.0957H37.3443V18.6731C36.7563 18.5846 36.4547 18.5801 35.8421 18.5801C35.3333 18.5801 34.8319 18.6117 34.3398 18.6731V29.0957H23.9172Z" fill="#D90026"/>
<g filter="url(#filter0_d_174_43223)">
<rect x="48" y="31.5859" width="229.832" height="75.5526" rx="7.12441" fill="white"/>
<rect x="48.5449" y="32.1309" width="228.743" height="74.4628" rx="6.57947" stroke="#EBEBEB" stroke-width="1.08988"/>
</g>
<path d="M92.8881 53.1094H86.8058V44.6018H92.8881V45.8335H88.1772V48.208H92.6976V49.4524H88.1772V51.8777H92.8881V53.1094ZM97.5915 53.2364C95.2805 53.2364 93.9726 51.9539 93.9726 49.7825V44.6018H95.3313V49.7825C95.3313 51.319 95.9154 51.9158 97.5915 51.9158C99.2549 51.9158 99.839 51.319 99.839 49.7825V44.6018H101.21V49.7825C101.21 51.9539 99.8898 53.2364 97.5915 53.2364ZM104 53.1094H102.629V44.6018H106.286C108.165 44.6018 109.346 45.5287 109.346 47.1414C109.346 48.5508 108.482 49.4016 106.984 49.4778V49.5794C107.606 49.7825 107.974 50.1635 108.292 50.7476L109.562 53.1094H107.974L106.768 50.9126C106.374 50.1762 106.019 49.8333 105.003 49.8333H104V53.1094ZM104 45.8335V48.7032H106.451C107.555 48.7032 107.974 48.2969 107.974 47.2683C107.974 46.2652 107.555 45.8335 106.451 45.8335H104ZM116.935 53.1094H112.871V44.6018H116.782C118.446 44.6018 119.449 45.2875 119.449 46.7223C119.449 47.7128 118.89 48.3857 117.798 48.5508V48.6524C119.093 48.8175 119.754 49.6555 119.754 50.773C119.754 52.2205 118.725 53.1094 116.935 53.1094ZM114.243 45.8335V48.1318H116.655C117.684 48.1318 118.09 47.8524 118.09 46.989C118.09 46.1128 117.722 45.8335 116.693 45.8335H114.243ZM114.243 49.2746V51.8777H116.897C117.925 51.8777 118.369 51.5856 118.369 50.5825C118.369 49.5667 117.925 49.2746 116.897 49.2746H114.243ZM122.571 53.2364C121.441 53.2364 120.564 52.6522 120.564 51.5475C120.564 50.5063 121.326 49.9603 122.672 49.7698L124.882 49.4397V49.0968C124.882 48.1572 124.45 47.8778 123.46 47.8778C122.456 47.8778 122.063 48.1953 122.063 49.0333V49.2238H120.742V49.0968C120.742 47.6874 121.847 46.6715 123.536 46.6715C125.301 46.6715 126.19 47.7382 126.19 49.2746V53.1094H124.92V52.1189H124.856C124.488 52.7157 123.764 53.2364 122.571 53.2364ZM121.898 51.4459C121.898 51.9412 122.215 52.1443 123.015 52.1443C123.904 52.1443 124.882 51.7888 124.882 50.519V50.4047L122.875 50.7095C122.152 50.8111 121.898 50.9761 121.898 51.4459ZM128.874 53.1094H127.503V46.7985H128.76V47.9794H128.811C129.103 47.3064 129.776 46.6715 131.007 46.6715C132.645 46.6715 133.382 47.7128 133.382 49.1476V53.1094H132.011V49.4524C132.011 48.3223 131.655 47.8524 130.499 47.8524C129.382 47.8524 128.874 48.2842 128.874 49.4651V53.1094ZM136.066 53.1094H134.695V44.6018H136.066V49.3H137.311L139 46.7985H140.612L138.415 49.7825L140.574 53.1094H138.974L137.323 50.5317H136.066V53.1094ZM144.636 53.1094H143.201L146.515 44.6018H148.483L151.797 53.1094H150.312L149.448 50.8999H145.499L144.636 53.1094ZM146.871 47.4207L145.982 49.6682H148.966L148.077 47.4207L147.531 45.8462H147.429L146.871 47.4207ZM155.185 53.2491C153.216 53.2491 152.099 51.9158 152.099 49.9603C152.099 47.9921 153.255 46.6715 155.235 46.6715C156.899 46.6715 158.042 47.7001 158.042 49.2111V49.3254H156.683V49.2492C156.683 48.3223 156.2 47.9032 155.147 47.9032C153.928 47.9032 153.458 48.5889 153.458 49.9603C153.458 51.3317 153.928 52.0047 155.147 52.0047C156.2 52.0047 156.683 51.5983 156.683 50.6714V50.5952H158.042V50.7095C158.042 52.2078 156.886 53.2491 155.185 53.2491ZM161.968 53.2491C159.999 53.2491 158.882 51.9158 158.882 49.9603C158.882 47.9921 160.038 46.6715 162.018 46.6715C163.682 46.6715 164.825 47.7001 164.825 49.2111V49.3254H163.466V49.2492C163.466 48.3223 162.983 47.9032 161.929 47.9032C160.71 47.9032 160.241 48.5889 160.241 49.9603C160.241 51.3317 160.71 52.0047 161.929 52.0047C162.983 52.0047 163.466 51.5983 163.466 50.6714V50.5952H164.825V50.7095C164.825 52.2078 163.669 53.2491 161.968 53.2491ZM168.814 53.2364C166.871 53.2364 165.665 51.9158 165.665 49.9476C165.665 47.9921 166.871 46.6715 168.814 46.6715C170.744 46.6715 171.912 47.9921 171.912 49.9476C171.912 51.9158 170.744 53.2364 168.814 53.2364ZM168.814 52.0174C170.135 52.0174 170.592 51.3698 170.592 49.9476C170.592 48.5381 170.135 47.8905 168.814 47.8905C167.481 47.8905 167.011 48.5381 167.011 49.9476C167.011 51.3698 167.481 52.0174 168.814 52.0174ZM175.287 53.2364C173.636 53.2364 172.899 52.1316 172.899 50.6968V46.7985H174.271V50.4555C174.271 51.5856 174.703 52.0554 175.795 52.0554C176.848 52.0554 177.445 51.5983 177.445 50.3539V46.7985H178.817V53.1094H177.547V51.8523H177.496C177.191 52.5761 176.518 53.2364 175.287 53.2364ZM181.538 53.1094H180.167V46.7985H181.424V47.9794H181.475C181.767 47.3064 182.44 46.6715 183.672 46.6715C185.31 46.6715 186.046 47.7128 186.046 49.1476V53.1094H184.675V49.4524C184.675 48.3223 184.319 47.8524 183.164 47.8524C182.046 47.8524 181.538 48.2842 181.538 49.4651V53.1094ZM189.926 53.1094C188.516 53.1094 187.78 52.5888 187.78 51.1666V47.9413H186.726V46.7985H187.805L188.097 45.2367H189.151V46.7985H191.056V47.9413H189.151V51.1031C189.151 51.7634 189.431 51.8777 190.281 51.8777H191.056V52.9951C190.789 53.0586 190.358 53.1094 189.926 53.1094ZM197.45 53.1094H194.428V44.6018H197.45C200.079 44.6018 201.755 46.2271 201.755 48.8556C201.755 51.484 200.079 53.1094 197.45 53.1094ZM197.45 45.8335H195.8V51.8777H197.45C199.482 51.8777 200.295 51.0396 200.295 48.8556C200.295 46.6715 199.482 45.8335 197.45 45.8335ZM205.653 53.2364C203.571 53.2364 202.593 51.9158 202.593 49.9476C202.593 47.9921 203.761 46.6715 205.641 46.6715C207.342 46.6715 208.536 47.6874 208.536 49.4143C208.536 49.7444 208.498 50.0873 208.46 50.2777H203.876C203.926 51.4332 204.345 52.0174 205.666 52.0174C206.72 52.0174 207.126 51.6618 207.126 51.0904V50.9888H208.485V51.1031C208.485 52.3983 207.355 53.2364 205.653 53.2364ZM205.615 47.827C204.422 47.827 203.964 48.3857 203.888 49.3635H207.228C207.279 48.2842 206.695 47.827 205.615 47.827ZM212.209 53.1094C210.8 53.1094 210.063 52.5888 210.063 51.1666V47.9413H209.009V46.7985H210.089L210.381 45.2367H211.435V46.7985H213.339V47.9413H211.435V51.1031C211.435 51.7634 211.714 51.8777 212.565 51.8777H213.339V52.9951C213.073 53.0586 212.641 53.1094 212.209 53.1094ZM215.97 53.2364C214.84 53.2364 213.964 52.6522 213.964 51.5475C213.964 50.5063 214.725 49.9603 216.071 49.7698L218.281 49.4397V49.0968C218.281 48.1572 217.849 47.8778 216.859 47.8778C215.856 47.8778 215.462 48.1953 215.462 49.0333V49.2238H214.141V49.0968C214.141 47.6874 215.246 46.6715 216.935 46.6715C218.7 46.6715 219.589 47.7382 219.589 49.2746V53.1094H218.319V52.1189H218.255C217.887 52.7157 217.163 53.2364 215.97 53.2364ZM215.297 51.4459C215.297 51.9412 215.614 52.1443 216.414 52.1443C217.303 52.1443 218.281 51.7888 218.281 50.519V50.4047L216.275 50.7095C215.551 50.8111 215.297 50.9761 215.297 51.4459ZM222.184 45.9985H220.826L220.813 44.6018H222.184V45.9985ZM222.197 53.1094H220.826V46.7604H222.197V53.1094ZM224.828 53.1094H223.456V44.6018H224.828V53.1094ZM228.789 53.2364C226.948 53.2364 225.982 52.5126 225.982 50.9761V50.9507H227.303V51.1793C227.303 51.865 227.608 52.1189 228.814 52.1189C229.83 52.1189 230.02 51.8904 230.02 51.4206C230.02 50.9126 229.716 50.7603 228.789 50.5952L227.811 50.4301C226.681 50.2269 225.97 49.719 225.97 48.5762C225.97 47.4334 226.909 46.6715 228.56 46.6715C230.046 46.6715 231.163 47.408 231.163 48.8429V48.9572H229.855V48.8048C229.855 48.2207 229.652 47.8016 228.522 47.8016C227.519 47.8016 227.278 48.0683 227.278 48.5508C227.278 49.0333 227.506 49.173 228.395 49.3508L229.462 49.554C230.681 49.7952 231.316 50.3412 231.316 51.3825C231.316 52.5507 230.389 53.2364 228.789 53.2364Z" fill="#171717"/>
<path d="M59.3975 76.7754H58.2496L60.901 69.9693H62.4755L65.1268 76.7754H63.9383L63.2475 75.0078H60.0883L59.3975 76.7754ZM61.1854 72.2245L60.4743 74.0225H62.8615L62.1504 72.2245L61.7136 70.9648H61.6324L61.1854 72.2245ZM67.8366 76.8871C66.2621 76.8871 65.3682 75.8205 65.3682 74.2561C65.3682 72.6816 66.2926 71.6251 67.8773 71.6251C69.208 71.6251 70.1223 72.4479 70.1223 73.6568V73.7482H69.0353V73.6873C69.0353 72.9457 68.6493 72.6105 67.8062 72.6105C66.831 72.6105 66.4551 73.159 66.4551 74.2561C66.4551 75.3532 66.831 75.8916 67.8062 75.8916C68.6493 75.8916 69.0353 75.5665 69.0353 74.825V74.764H70.1223V74.8555C70.1223 76.0541 69.1979 76.8871 67.8366 76.8871ZM73.263 76.8871C71.6885 76.8871 70.7945 75.8205 70.7945 74.2561C70.7945 72.6816 71.7189 71.6251 73.3036 71.6251C74.6344 71.6251 75.5486 72.4479 75.5486 73.6568V73.7482H74.4617V73.6873C74.4617 72.9457 74.0757 72.6105 73.2325 72.6105C72.2573 72.6105 71.8815 73.159 71.8815 74.2561C71.8815 75.3532 72.2573 75.8916 73.2325 75.8916C74.0757 75.8916 74.4617 75.5665 74.4617 74.825V74.764H75.5486V74.8555C75.5486 76.0541 74.6242 76.8871 73.263 76.8871ZM78.7402 76.877C77.186 76.877 76.2209 75.8205 76.2209 74.246C76.2209 72.6816 77.186 71.6251 78.7402 71.6251C80.2843 71.6251 81.2188 72.6816 81.2188 74.246C81.2188 75.8205 80.2843 76.877 78.7402 76.877ZM78.7402 75.9018C79.7967 75.9018 80.1624 75.3837 80.1624 74.246C80.1624 73.1184 79.7967 72.6003 78.7402 72.6003C77.6736 72.6003 77.2977 73.1184 77.2977 74.246C77.2977 75.3837 77.6736 75.9018 78.7402 75.9018ZM83.9182 76.877C82.5977 76.877 82.0085 75.9932 82.0085 74.8453V71.7267H83.1056V74.6523C83.1056 75.5564 83.451 75.9322 84.3246 75.9322C85.1677 75.9322 85.6452 75.5665 85.6452 74.571V71.7267H86.7423V76.7754H85.7264V75.7697H85.6858C85.442 76.3487 84.9036 76.877 83.9182 76.877ZM88.9196 76.7754H87.8225V71.7267H88.8281V72.6714H88.8688C89.1024 72.133 89.6408 71.6251 90.6262 71.6251C91.9366 71.6251 92.5258 72.4581 92.5258 73.606V76.7754H91.4287V73.8498C91.4287 72.9457 91.1442 72.5698 90.2198 72.5698C89.3259 72.5698 88.9196 72.9152 88.9196 73.8599V76.7754ZM95.6296 76.7754C94.502 76.7754 93.9129 76.3589 93.9129 75.2212V72.6409H93.0697V71.7267H93.9332L94.1668 70.4772H95.01V71.7267H96.5337V72.6409H95.01V75.1704C95.01 75.6986 95.2334 75.79 95.914 75.79H96.5337V76.684C96.3204 76.7348 95.975 76.7754 95.6296 76.7754ZM100.329 76.7754H99.2315V69.9693H100.41L102.99 73.8701L103.711 74.957H103.793V69.9693H104.89V76.7754H103.711L101.141 72.9355L100.4 71.8283H100.329V76.7754ZM107.895 76.877C106.575 76.877 105.986 75.9932 105.986 74.8453V71.7267H107.083V74.6523C107.083 75.5564 107.428 75.9322 108.302 75.9322C109.145 75.9322 109.622 75.5665 109.622 74.571V71.7267H110.72V76.7754H109.704V75.7697H109.663C109.419 76.3487 108.881 76.877 107.895 76.877ZM112.897 76.7754H111.8V71.7267H112.805V72.6714H112.846C113.08 72.133 113.608 71.6251 114.573 71.6251C115.457 71.6251 116.005 72.0314 116.249 72.6714H116.28C116.513 72.1432 117.031 71.6251 118.027 71.6251C119.327 71.6251 119.906 72.4581 119.906 73.606V76.7754H118.809V73.8498C118.809 72.9457 118.535 72.5698 117.62 72.5698C116.787 72.5698 116.401 72.9152 116.401 73.8396V76.7754H115.304V73.8498C115.304 72.9457 115.03 72.5698 114.116 72.5698C113.283 72.5698 112.897 72.9152 112.897 73.8295V76.7754ZM121.962 76.7754H120.956V69.9693H122.053V72.5292H122.074C122.297 72.0721 122.876 71.6251 123.77 71.6251C125.162 71.6251 125.893 72.6511 125.893 74.246C125.893 75.851 125.121 76.877 123.709 76.877C122.835 76.877 122.246 76.5316 122.002 75.9424H121.962V76.7754ZM122.053 74.7031C122.053 75.5462 122.541 75.9424 123.425 75.9424C124.4 75.9424 124.806 75.4954 124.806 74.246C124.806 73.0066 124.39 72.5597 123.425 72.5597C122.541 72.5597 122.053 72.9559 122.053 73.799V74.7031ZM129.014 76.877C127.348 76.877 126.566 75.8205 126.566 74.246C126.566 72.6816 127.501 71.6251 129.004 71.6251C130.365 71.6251 131.32 72.4378 131.32 73.8193C131.32 74.0834 131.29 74.3577 131.259 74.5101H127.592C127.633 75.4345 127.968 75.9018 129.025 75.9018C129.868 75.9018 130.193 75.6173 130.193 75.1602V75.0789H131.28V75.1704C131.28 76.2065 130.376 76.877 129.014 76.877ZM128.984 72.5495C128.029 72.5495 127.663 72.9965 127.602 73.7787H130.274C130.315 72.9152 129.847 72.5495 128.984 72.5495ZM133.293 76.7754H132.196V71.6962H133.201V72.4987H133.252C133.455 72.0314 133.923 71.6251 134.664 71.6251C135.721 71.6251 136.127 72.3971 136.127 73.3419V73.6771H135.03V73.4739C135.03 72.8035 134.837 72.5597 134.197 72.5597C133.537 72.5597 133.293 72.8136 133.293 73.4841V76.7754Z" fill="#171717"/>
<path d="M60.4845 93.2832H59.7531V87.8688H58.4223V87.3203H58.656C59.2959 87.3203 59.6413 87.0866 59.8851 86.4771H60.4845V93.2832ZM64.3015 93.3848C62.6254 93.3848 61.701 92.6026 61.701 91.3531V91.2922H62.4324V91.3531C62.4324 92.3588 63.0622 92.7143 64.3219 92.7143C65.6424 92.7143 66.1504 92.3182 66.1504 91.1398C66.1504 90.0427 65.6018 89.6059 64.3523 89.6059C63.4482 89.6059 62.9505 89.8395 62.5035 90.0935L61.8635 89.9614L62.1378 86.4771H66.5059V87.1374H62.7778L62.5543 89.5348H62.5746C63.0216 89.2097 63.692 88.9761 64.5352 88.9761C65.9472 88.9761 66.8716 89.7379 66.8716 91.1296C66.8716 92.5416 66.0081 93.3848 64.3015 93.3848ZM72.1899 93.2832H71.4585V91.7696H67.5069V91.2414L71.3366 86.4771H72.1899V91.1093H73.3073V91.7696H72.1899V93.2832ZM68.4415 91.1093H71.4585V87.3914H71.4077L68.4415 91.0585V91.1093ZM76.6253 93.3848C75.193 93.3848 74.228 92.5721 74.228 91.2617V91.2007H74.9899V91.2617C74.9899 92.0337 75.3251 92.6839 76.666 92.6839C78.1897 92.6839 78.4945 91.8306 78.4945 90.0122V89.4434H78.4437C78.1796 90.1341 77.499 90.6928 76.28 90.6928C74.7765 90.6928 73.9435 89.8497 73.9435 88.5596C73.9435 87.2288 74.868 86.3755 76.5034 86.3755C78.4945 86.3755 79.236 87.4523 79.236 89.8802C79.236 91.9525 78.5961 93.3848 76.6253 93.3848ZM76.4831 90.063C77.7631 90.063 78.3421 89.5348 78.3421 88.5697C78.3421 87.5742 77.7529 87.0765 76.4831 87.0765C75.1625 87.0765 74.6546 87.5641 74.6546 88.5799C74.6546 89.5653 75.1422 90.063 76.4831 90.063ZM84.5505 93.2832H83.8191V91.7696H79.8675V91.2414L83.6972 86.4771H84.5505V91.1093H85.6679V91.7696H84.5505V93.2832ZM80.8021 91.1093H83.8191V87.3914H83.7683L80.8021 91.0585V91.1093ZM88.8343 93.3848C87.1582 93.3848 86.2338 92.6026 86.2338 91.3531V91.2922H86.9652V91.3531C86.9652 92.3588 87.595 92.7143 88.8546 92.7143C90.1752 92.7143 90.6831 92.3182 90.6831 91.1398C90.6831 90.0427 90.1346 89.6059 88.8851 89.6059C87.981 89.6059 87.4833 89.8395 87.0363 90.0935L86.3963 89.9614L86.6706 86.4771H91.0387V87.1374H87.3106L87.0871 89.5348H87.1074C87.5544 89.2097 88.2248 88.9761 89.068 88.9761C90.48 88.9761 91.4044 89.7379 91.4044 91.1296C91.4044 92.5416 90.5409 93.3848 88.8343 93.3848ZM96.7227 93.2832H95.9913V91.7696H92.0397V91.2414L95.8694 86.4771H96.7227V91.1093H97.8401V91.7696H96.7227V93.2832ZM92.9742 91.1093H95.9913V87.3914H95.9405L92.9742 91.0585V91.1093ZM101.158 93.3848C99.7258 93.3848 98.7608 92.5721 98.7608 91.2617V91.2007H99.5226V91.2617C99.5226 92.0337 99.8579 92.6839 101.199 92.6839C102.723 92.6839 103.027 91.8306 103.027 90.0122V89.4434H102.976C102.712 90.1341 102.032 90.6928 100.813 90.6928C99.3093 90.6928 98.4763 89.8497 98.4763 88.5596C98.4763 87.2288 99.4007 86.3755 101.036 86.3755C103.027 86.3755 103.769 87.4523 103.769 89.8802C103.769 91.9525 103.129 93.3848 101.158 93.3848ZM101.016 90.063C102.296 90.063 102.875 89.5348 102.875 88.5697C102.875 87.5742 102.286 87.0765 101.016 87.0765C99.6953 87.0765 99.1874 87.5641 99.1874 88.5799C99.1874 89.5653 99.675 90.063 101.016 90.063ZM107.507 93.3848C106.075 93.3848 105.11 92.5721 105.11 91.2617V91.2007H105.872V91.2617C105.872 92.0337 106.207 92.6839 107.548 92.6839C109.071 92.6839 109.376 91.8306 109.376 90.0122V89.4434H109.325C109.061 90.1341 108.381 90.6928 107.162 90.6928C105.658 90.6928 104.825 89.8497 104.825 88.5596C104.825 87.2288 105.75 86.3755 107.385 86.3755C109.376 86.3755 110.118 87.4523 110.118 89.8802C110.118 91.9525 109.478 93.3848 107.507 93.3848ZM107.365 90.063C108.645 90.063 109.224 89.5348 109.224 88.5697C109.224 87.5742 108.635 87.0765 107.365 87.0765C106.044 87.0765 105.536 87.5641 105.536 88.5799C105.536 89.5653 106.024 90.063 107.365 90.063ZM113.644 93.3848C111.968 93.3848 110.962 92.6737 110.962 91.4445C110.962 90.5303 111.521 89.931 112.364 89.7176V89.677C111.592 89.5246 111.155 88.9253 111.155 88.1532C111.155 87.1171 112.039 86.3755 113.644 86.3755C115.269 86.3755 116.143 87.1171 116.143 88.1532C116.143 88.9253 115.706 89.5246 114.944 89.677V89.7176C115.788 89.931 116.346 90.5303 116.346 91.4445C116.346 92.6737 115.33 93.3848 113.644 93.3848ZM113.644 89.4738C114.934 89.4738 115.412 89.0675 115.412 88.2447C115.412 87.493 114.995 87.046 113.644 87.046C112.313 87.046 111.887 87.493 111.887 88.2447C111.887 89.0675 112.374 89.4738 113.644 89.4738ZM113.644 92.7143C115.137 92.7143 115.605 92.2369 115.605 91.3531C115.605 90.4592 115.117 89.9919 113.644 89.9919C112.181 89.9919 111.704 90.4592 111.704 91.3531C111.704 92.2369 112.171 92.7143 113.644 92.7143ZM122.051 93.2832H117.296V92.8261C117.296 91.5563 118.089 90.9366 119.034 90.4084L120.09 89.8192C120.903 89.3722 121.268 89.0167 121.268 88.3259C121.268 87.5844 120.964 87.046 119.694 87.046C118.282 87.046 117.926 87.5844 117.926 88.6713V88.7932H117.195V88.6307C117.195 87.4015 117.957 86.3755 119.734 86.3755C121.309 86.3755 122 87.239 122 88.2751C122 89.3418 121.279 89.9106 120.405 90.3982L119.379 90.9671C118.597 91.4039 118.048 91.8306 118.058 92.6229H122.051V93.2832ZM125.723 93.3848C124.026 93.3848 122.909 92.0642 122.909 89.8802C122.909 87.6961 124.026 86.3755 125.723 86.3755C127.429 86.3755 128.537 87.6961 128.537 89.8802C128.537 92.0642 127.429 93.3848 125.723 93.3848ZM125.723 92.6839C127.064 92.6839 127.775 91.8306 127.775 89.8802C127.775 87.9298 127.064 87.0765 125.723 87.0765C124.392 87.0765 123.681 87.9298 123.681 89.8802C123.681 91.8306 124.392 92.6839 125.723 92.6839ZM131.011 93.2934H130.239C130.239 90.3068 131.498 88.2955 132.738 87.178V87.1374H128.695V86.4771H133.631V87.0765C131.793 88.7424 131.011 90.8249 131.011 93.2934Z" fill="#171717"/>
<circle cx="68.9488" cy="51.2672" r="12.9801" fill="#0052B5"/>
<path d="M68.8815 45.9984L67.7367 46.5779L68.1135 45.4283L67.3446 44.6669L68.4923 44.6612L68.9435 43.4727L69.4488 44.6565L70.4052 44.6517L69.6439 45.4207L70.0321 46.5665L68.8815 45.9984Z" fill="#FFDB44"/>
<path d="M68.8815 56.7813L67.7367 56.2017L68.1135 57.3514L67.3446 58.1127L68.4923 58.1184L68.9435 59.307L69.4488 58.1232L70.4052 58.1279L69.6439 57.359L70.0321 56.2131L68.8815 56.7813Z" fill="#FFDB44"/>
<path d="M74.1995 51.3719L73.3945 50.3726L74.5974 50.5022L75.1821 49.5917L75.4264 50.7131L76.6829 50.9073L75.63 51.6477L75.8336 52.5822L74.9231 51.9974L73.883 52.6155L74.1995 51.3719Z" fill="#FFDB44"/>
<path d="M72.7787 47.8017L71.5194 47.5547L72.5236 46.8799L72.3854 45.8067L73.294 46.508L74.3807 45.8482L74.0511 47.0924L74.8083 47.6768L73.735 47.815L73.3366 48.9573L72.7787 47.8017Z" fill="#FFDB44"/>
<path d="M72.7955 55.0003L73.3426 53.8395L73.7517 54.978L74.8263 55.1061L73.9243 55.8159L74.2988 57.0309L73.1727 56.4074L72.4211 56.999L72.5492 55.9245L71.5387 55.2591L72.7955 55.0003Z" fill="#FFDB44"/>
<path d="M74.1995 51.3719L73.3945 50.3726L74.5974 50.5022L75.1821 49.5917L75.4264 50.7131L76.6829 50.9073L75.63 51.6477L75.8336 52.5822L74.9231 51.9974L73.883 52.6155L74.1995 51.3719Z" fill="#FFDB44"/>
<path d="M63.7314 51.3719L64.5364 50.3726L63.3335 50.5022L62.7488 49.5917L62.5045 50.7131L61.248 50.9073L62.3009 51.6477L62.0973 52.5822L63.0078 51.9974L64.0479 52.6155L63.7314 51.3719Z" fill="#FFDB44"/>
<path d="M65.1522 47.8017L66.4115 47.5547L65.4073 46.8799L65.5455 45.8067L64.6369 46.508L63.5502 45.8482L63.8798 47.0924L63.1226 47.6768L64.1959 47.815L64.5943 48.9573L65.1522 47.8017Z" fill="#FFDB44"/>
<path d="M65.1354 55.0003L64.5883 53.8395L64.1792 54.978L63.1046 55.1061L64.0066 55.8159L63.6321 57.0309L64.7582 56.4074L65.5098 56.999L65.3817 55.9245L66.3922 55.2591L65.1354 55.0003Z" fill="#FFDB44"/>
<path d="M63.7314 51.3719L64.5364 50.3726L63.3335 50.5022L62.7488 49.5917L62.5045 50.7131L61.248 50.9073L62.3009 51.6477L62.0973 52.5822L63.0078 51.9974L64.0479 52.6155L63.7314 51.3719Z" fill="#FFDB44"/>
<g filter="url(#filter1_d_174_43223)">
<rect x="72" y="55" width="229.832" height="75.5526" rx="7.12441" fill="white"/>
<rect x="72.5449" y="55.5449" width="228.743" height="74.4628" rx="6.57947" stroke="#EBEBEB" stroke-width="1.08988"/>
</g>
<path d="M114.399 76.6504C112.088 76.6504 110.78 75.3679 110.78 73.1966V68.0158H112.139V73.1966C112.139 74.733 112.723 75.3298 114.399 75.3298C116.063 75.3298 116.647 74.733 116.647 73.1966V68.0158H118.018V73.1966C118.018 75.3679 116.698 76.6504 114.399 76.6504ZM122.778 76.6504C120.328 76.6504 119.261 75.5203 119.261 73.8823V73.6664H120.607V73.8061C120.607 74.86 121.051 75.3933 122.829 75.3933C124.086 75.3933 124.543 75.0505 124.543 74.2632C124.543 73.4886 124.289 73.2093 122.982 72.9426L121.534 72.6506C120.074 72.3712 119.286 71.6601 119.286 70.3142C119.286 69.0571 120.264 67.8889 122.461 67.8889C124.81 67.8889 125.75 69.2094 125.75 70.7205V70.8729H124.404V70.7332C124.404 69.692 123.947 69.1459 122.423 69.1459C121.166 69.1459 120.658 69.5015 120.658 70.2507C120.658 71.0252 121.001 71.2411 122.169 71.4951L123.616 71.7998C125.216 72.13 125.915 72.9299 125.915 74.2124C125.915 75.5457 124.95 76.6504 122.778 76.6504ZM129.924 76.5234H126.901V68.0158H129.924C132.552 68.0158 134.228 69.6412 134.228 72.2696C134.228 74.8981 132.552 76.5234 129.924 76.5234ZM129.924 69.2475H128.273V75.2917H129.924C131.955 75.2917 132.768 74.4537 132.768 72.2696C132.768 70.0856 131.955 69.2475 129.924 69.2475ZM141.815 76.5234H137.752V68.0158H141.663C143.326 68.0158 144.329 68.7015 144.329 70.1364C144.329 71.1268 143.771 71.7998 142.678 71.9649V72.0665C143.974 72.2315 144.634 73.0696 144.634 74.187C144.634 75.6346 143.605 76.5234 141.815 76.5234ZM139.123 69.2475V71.5459H141.536C142.564 71.5459 142.971 71.2665 142.971 70.403C142.971 69.5269 142.602 69.2475 141.574 69.2475H139.123ZM139.123 72.6887V75.2917H141.777C142.805 75.2917 143.25 74.9997 143.25 73.9966C143.25 72.9807 142.805 72.6887 141.777 72.6887H139.123ZM147.451 76.6504C146.321 76.6504 145.445 76.0663 145.445 74.9616C145.445 73.9204 146.207 73.3744 147.553 73.1839L149.762 72.8537V72.5109C149.762 71.5712 149.33 71.2919 148.34 71.2919C147.337 71.2919 146.943 71.6093 146.943 72.4474V72.6379H145.623V72.5109C145.623 71.1014 146.727 70.0856 148.416 70.0856C150.181 70.0856 151.07 71.1522 151.07 72.6887V76.5234H149.8V75.533H149.737C149.369 76.1298 148.645 76.6504 147.451 76.6504ZM146.778 74.86C146.778 75.3552 147.096 75.5584 147.896 75.5584C148.784 75.5584 149.762 75.2029 149.762 73.9331V73.8188L147.756 74.1235C147.032 74.2251 146.778 74.3902 146.778 74.86ZM153.755 76.5234H152.383V70.2126H153.64V71.3935H153.691C153.983 70.7205 154.656 70.0856 155.888 70.0856C157.526 70.0856 158.262 71.1268 158.262 72.5617V76.5234H156.891V72.8664C156.891 71.7363 156.535 71.2665 155.38 71.2665C154.262 71.2665 153.755 71.6982 153.755 72.8791V76.5234ZM160.947 76.5234H159.575V68.0158H160.947V72.7141H162.191L163.88 70.2126H165.493L163.296 73.1966L165.454 76.5234H163.855L162.204 73.9458H160.947V76.5234ZM169.516 76.5234H168.081L171.395 68.0158H173.364L176.678 76.5234H175.192L174.329 74.314H170.38L169.516 76.5234ZM171.751 70.8348L170.862 73.0823H173.846L172.957 70.8348L172.411 69.2602H172.31L171.751 70.8348ZM180.065 76.6631C178.097 76.6631 176.979 75.3298 176.979 73.3744C176.979 71.4062 178.135 70.0856 180.116 70.0856C181.779 70.0856 182.922 71.1141 182.922 72.6252V72.7395H181.563V72.6633C181.563 71.7363 181.081 71.3173 180.027 71.3173C178.808 71.3173 178.338 72.003 178.338 73.3744C178.338 74.7457 178.808 75.4187 180.027 75.4187C181.081 75.4187 181.563 75.0124 181.563 74.0854V74.0092H182.922V74.1235C182.922 75.6219 181.767 76.6631 180.065 76.6631ZM186.848 76.6631C184.88 76.6631 183.762 75.3298 183.762 73.3744C183.762 71.4062 184.918 70.0856 186.899 70.0856C188.562 70.0856 189.705 71.1141 189.705 72.6252V72.7395H188.346V72.6633C188.346 71.7363 187.864 71.3173 186.81 71.3173C185.591 71.3173 185.121 72.003 185.121 73.3744C185.121 74.7457 185.591 75.4187 186.81 75.4187C187.864 75.4187 188.346 75.0124 188.346 74.0854V74.0092H189.705V74.1235C189.705 75.6219 188.55 76.6631 186.848 76.6631ZM193.694 76.6504C191.752 76.6504 190.545 75.3298 190.545 73.3617C190.545 71.4062 191.752 70.0856 193.694 70.0856C195.625 70.0856 196.793 71.4062 196.793 73.3617C196.793 75.3298 195.625 76.6504 193.694 76.6504ZM193.694 75.4314C195.015 75.4314 195.472 74.7838 195.472 73.3617C195.472 71.9522 195.015 71.3046 193.694 71.3046C192.361 71.3046 191.891 71.9522 191.891 73.3617C191.891 74.7838 192.361 75.4314 193.694 75.4314ZM200.167 76.6504C198.516 76.6504 197.78 75.5457 197.78 74.1108V70.2126H199.151V73.8696C199.151 74.9997 199.583 75.4695 200.675 75.4695C201.729 75.4695 202.326 75.0124 202.326 73.768V70.2126H203.697V76.5234H202.427V75.2663H202.376C202.072 75.9901 201.399 76.6504 200.167 76.6504ZM206.419 76.5234H205.047V70.2126H206.304V71.3935H206.355C206.647 70.7205 207.32 70.0856 208.552 70.0856C210.19 70.0856 210.926 71.1268 210.926 72.5617V76.5234H209.555V72.8664C209.555 71.7363 209.2 71.2665 208.044 71.2665C206.927 71.2665 206.419 71.6982 206.419 72.8791V76.5234ZM214.806 76.5234C213.397 76.5234 212.66 76.0028 212.66 74.5807V71.3554H211.606V70.2126H212.686L212.978 68.6507H214.032V70.2126H215.936V71.3554H214.032V74.5172C214.032 75.1775 214.311 75.2917 215.162 75.2917H215.936V76.4092C215.67 76.4726 215.238 76.5234 214.806 76.5234ZM222.331 76.5234H219.309V68.0158H222.331C224.959 68.0158 226.635 69.6412 226.635 72.2696C226.635 74.8981 224.959 76.5234 222.331 76.5234ZM222.331 69.2475H220.68V75.2917H222.331C224.362 75.2917 225.175 74.4537 225.175 72.2696C225.175 70.0856 224.362 69.2475 222.331 69.2475ZM230.534 76.6504C228.451 76.6504 227.474 75.3298 227.474 73.3617C227.474 71.4062 228.642 70.0856 230.521 70.0856C232.223 70.0856 233.416 71.1014 233.416 72.8283C233.416 73.1585 233.378 73.5013 233.34 73.6918H228.756C228.807 74.8473 229.226 75.4314 230.546 75.4314C231.6 75.4314 232.007 75.0759 232.007 74.5045V74.4029H233.365V74.5172C233.365 75.8124 232.235 76.6504 230.534 76.6504ZM230.496 71.2411C229.302 71.2411 228.845 71.7998 228.769 72.7776H232.108C232.159 71.6982 231.575 71.2411 230.496 71.2411ZM237.09 76.5234C235.68 76.5234 234.944 76.0028 234.944 74.5807V71.3554H233.89V70.2126H234.969L235.261 68.6507H236.315V70.2126H238.22V71.3554H236.315V74.5172C236.315 75.1775 236.594 75.2917 237.445 75.2917H238.22V76.4092C237.953 76.4726 237.521 76.5234 237.09 76.5234ZM240.85 76.6504C239.72 76.6504 238.844 76.0663 238.844 74.9616C238.844 73.9204 239.606 73.3744 240.952 73.1839L243.161 72.8537V72.5109C243.161 71.5712 242.73 71.2919 241.739 71.2919C240.736 71.2919 240.342 71.6093 240.342 72.4474V72.6379H239.022V72.5109C239.022 71.1014 240.127 70.0856 241.815 70.0856C243.58 70.0856 244.469 71.1522 244.469 72.6887V76.5234H243.199V75.533H243.136C242.768 76.1298 242.044 76.6504 240.85 76.6504ZM240.177 74.86C240.177 75.3552 240.495 75.5584 241.295 75.5584C242.184 75.5584 243.161 75.2029 243.161 73.9331V73.8188L241.155 74.1235C240.431 74.2251 240.177 74.3902 240.177 74.86ZM247.065 69.4126H245.706L245.693 68.0158H247.065V69.4126ZM247.078 76.5234H245.706V70.1745H247.078V76.5234ZM249.708 76.5234H248.337V68.0158H249.708V76.5234ZM253.669 76.6504C251.828 76.6504 250.863 75.9266 250.863 74.3902V74.3648H252.183V74.5934C252.183 75.279 252.488 75.533 253.695 75.533C254.71 75.533 254.901 75.3044 254.901 74.8346C254.901 74.3267 254.596 74.1743 253.669 74.0092L252.691 73.8442C251.561 73.641 250.85 73.1331 250.85 71.9903C250.85 70.8475 251.79 70.0856 253.441 70.0856C254.926 70.0856 256.044 70.8221 256.044 72.2569V72.3712H254.736V72.2188C254.736 71.6347 254.533 71.2157 253.402 71.2157C252.399 71.2157 252.158 71.4824 252.158 71.9649C252.158 72.4474 252.387 72.5871 253.276 72.7649L254.342 72.968C255.561 73.2093 256.196 73.7553 256.196 74.7965C256.196 75.9647 255.269 76.6504 253.669 76.6504Z" fill="#171717"/>
<path d="M83.3975 100.189H82.2496L84.901 93.3834H86.4755L89.1268 100.189H87.9383L87.2475 98.4219H84.0883L83.3975 100.189ZM85.1854 95.6385L84.4743 97.4365H86.8615L86.1504 95.6385L85.7136 94.3789H85.6324L85.1854 95.6385ZM91.8366 100.301C90.2621 100.301 89.3682 99.2346 89.3682 97.6702C89.3682 96.0956 90.2926 95.0392 91.8773 95.0392C93.208 95.0392 94.1223 95.862 94.1223 97.0708V97.1623H93.0353V97.1013C93.0353 96.3598 92.6493 96.0245 91.8062 96.0245C90.831 96.0245 90.4551 96.5731 90.4551 97.6702C90.4551 98.7673 90.831 99.3057 91.8062 99.3057C92.6493 99.3057 93.0353 98.9806 93.0353 98.2391V98.1781H94.1223V98.2695C94.1223 99.4682 93.1979 100.301 91.8366 100.301ZM97.263 100.301C95.6885 100.301 94.7945 99.2346 94.7945 97.6702C94.7945 96.0956 95.7189 95.0392 97.3036 95.0392C98.6344 95.0392 99.5486 95.862 99.5486 97.0708V97.1623H98.4617V97.1013C98.4617 96.3598 98.0757 96.0245 97.2325 96.0245C96.2573 96.0245 95.8815 96.5731 95.8815 97.6702C95.8815 98.7673 96.2573 99.3057 97.2325 99.3057C98.0757 99.3057 98.4617 98.9806 98.4617 98.2391V98.1781H99.5486V98.2695C99.5486 99.4682 98.6242 100.301 97.263 100.301ZM102.74 100.291C101.186 100.291 100.221 99.2346 100.221 97.66C100.221 96.0956 101.186 95.0392 102.74 95.0392C104.284 95.0392 105.219 96.0956 105.219 97.66C105.219 99.2346 104.284 100.291 102.74 100.291ZM102.74 99.3158C103.797 99.3158 104.162 98.7978 104.162 97.66C104.162 96.5325 103.797 96.0144 102.74 96.0144C101.674 96.0144 101.298 96.5325 101.298 97.66C101.298 98.7978 101.674 99.3158 102.74 99.3158ZM107.918 100.291C106.598 100.291 106.008 99.4073 106.008 98.2594V95.1408H107.106V98.0664C107.106 98.9705 107.451 99.3463 108.325 99.3463C109.168 99.3463 109.645 98.9806 109.645 97.9851V95.1408H110.742V100.189H109.726V99.1838H109.686C109.442 99.7628 108.904 100.291 107.918 100.291ZM112.92 100.189H111.822V95.1408H112.828V96.0855H112.869C113.102 95.5471 113.641 95.0392 114.626 95.0392C115.937 95.0392 116.526 95.8722 116.526 97.0201V100.189H115.429V97.2639C115.429 96.3598 115.144 95.9839 114.22 95.9839C113.326 95.9839 112.92 96.3293 112.92 97.274V100.189ZM119.63 100.189C118.502 100.189 117.913 99.773 117.913 98.6352V96.055H117.07V95.1408H117.933L118.167 93.8913H119.01V95.1408H120.534V96.055H119.01V98.5844C119.01 99.1127 119.233 99.2041 119.914 99.2041H120.534V100.098C120.32 100.149 119.975 100.189 119.63 100.189ZM124.329 100.189H123.231V93.3834H124.41L126.99 97.2842L127.711 98.3711H127.793V93.3834H128.89V100.189H127.711L125.141 96.3496L124.4 95.2423H124.329V100.189ZM131.895 100.291C130.575 100.291 129.986 99.4073 129.986 98.2594V95.1408H131.083V98.0664C131.083 98.9705 131.428 99.3463 132.302 99.3463C133.145 99.3463 133.622 98.9806 133.622 97.9851V95.1408H134.72V100.189H133.704V99.1838H133.663C133.419 99.7628 132.881 100.291 131.895 100.291ZM136.897 100.189H135.8V95.1408H136.805V96.0855H136.846C137.08 95.5471 137.608 95.0392 138.573 95.0392C139.457 95.0392 140.005 95.4455 140.249 96.0855H140.28C140.513 95.5573 141.031 95.0392 142.027 95.0392C143.327 95.0392 143.906 95.8722 143.906 97.0201V100.189H142.809V97.2639C142.809 96.3598 142.535 95.9839 141.62 95.9839C140.787 95.9839 140.401 96.3293 140.401 97.2537V100.189H139.304V97.2639C139.304 96.3598 139.03 95.9839 138.116 95.9839C137.283 95.9839 136.897 96.3293 136.897 97.2435V100.189ZM145.962 100.189H144.956V93.3834H146.053V95.9433H146.074C146.297 95.4861 146.876 95.0392 147.77 95.0392C149.162 95.0392 149.893 96.0652 149.893 97.66C149.893 99.265 149.121 100.291 147.709 100.291C146.835 100.291 146.246 99.9457 146.002 99.3565H145.962V100.189ZM146.053 98.1172C146.053 98.9603 146.541 99.3565 147.425 99.3565C148.4 99.3565 148.806 98.9095 148.806 97.66C148.806 96.4207 148.39 95.9737 147.425 95.9737C146.541 95.9737 146.053 96.3699 146.053 97.2131V98.1172ZM153.014 100.291C151.348 100.291 150.566 99.2346 150.566 97.66C150.566 96.0956 151.501 95.0392 153.004 95.0392C154.365 95.0392 155.32 95.8518 155.32 97.2334C155.32 97.4975 155.29 97.7718 155.259 97.9241H151.592C151.633 98.8486 151.968 99.3158 153.025 99.3158C153.868 99.3158 154.193 99.0314 154.193 98.5743V98.493H155.28V98.5844C155.28 99.6206 154.376 100.291 153.014 100.291ZM152.984 95.9636C152.029 95.9636 151.663 96.4106 151.602 97.1927H154.274C154.315 96.3293 153.847 95.9636 152.984 95.9636ZM157.293 100.189H156.196V95.1103H157.201V95.9128H157.252C157.455 95.4455 157.923 95.0392 158.664 95.0392C159.721 95.0392 160.127 95.8112 160.127 96.7559V97.0912H159.03V96.888C159.03 96.2175 158.837 95.9737 158.197 95.9737C157.537 95.9737 157.293 96.2277 157.293 96.8982V100.189Z" fill="#171717"/>
<circle cx="92.659" cy="74.6815" r="11.8514" fill="#F2F0F2"/>
<mask id="mask0_174_43223" style="mask-type:alpha" maskUnits="userSpaceOnUse" x="80" y="62" width="25" height="25">
<circle cx="92.659" cy="74.6815" r="11.8514" fill="#FCFCFC"/>
</mask>
<g mask="url(#mask0_174_43223)">
<rect x="84.6602" y="83.8672" width="16.2957" height="2.96285" fill="#D90026"/>
<rect x="84.6602" y="83.8672" width="16.2957" height="2.96285" fill="#D90026"/>
<rect x="81.1055" y="77.9414" width="23.4065" height="2.96285" fill="#D90026"/>
<rect x="81.1055" y="77.9414" width="23.4065" height="2.96285" fill="#D90026"/>
<rect x="81.1055" y="71.7188" width="23.4065" height="2.96285" fill="#D90026"/>
<rect x="81.1055" y="71.7188" width="23.4065" height="2.96285" fill="#D90026"/>
<rect x="81.1055" y="65.793" width="23.4065" height="2.96285" fill="#D90026"/>
<rect x="81.1055" y="65.793" width="23.4065" height="2.96285" fill="#D90026"/>
<rect x="80.8076" y="62.8301" width="12.1477" height="11.8514" fill="#0052B5"/>
<path d="M90.5797 72.7559L89.6908 73.2004L89.9871 72.3115L89.3945 71.7189H90.2834L90.5797 70.8301L91.0241 71.7189H91.7648L91.1722 72.3115L91.4685 73.2004L90.5797 72.7559Z" fill="#EFEFEF"/>
<path d="M86.4371 72.7559L85.5482 73.2004L85.8445 72.3115L85.252 71.7189H86.1408L86.4371 70.8301L86.8815 71.7189H87.6222L87.0297 72.3115L87.3259 73.2004L86.4371 72.7559Z" fill="#EFEFEF"/>
<path d="M82.2906 72.7559L81.4018 73.2004L81.698 72.3115L81.1055 71.7189H81.9943L82.2906 70.8301L82.735 71.7189H83.4757L82.8832 72.3115L83.1795 73.2004L82.2906 72.7559Z" fill="#EFEFEF"/>
<path d="M90.5797 69.4962L89.6908 69.9406L89.9871 69.0517L89.3945 68.4592H90.2834L90.5797 67.5703L91.0241 68.4592H91.7648L91.1722 69.0517L91.4685 69.9406L90.5797 69.4962Z" fill="#EFEFEF"/>
<path d="M90.5797 66.2384L89.6908 66.6828L89.9871 65.7939L89.3945 65.2014H90.2834L90.5797 64.3125L91.0241 65.2014H91.7648L91.1722 65.7939L91.4685 66.6828L90.5797 66.2384Z" fill="#EFEFEF"/>
<path d="M90.5797 62.9786L89.6908 63.423L89.9871 62.5342L89.3945 61.9416H90.2834L90.5797 61.0527L91.0241 61.9416H91.7648L91.1722 62.5342L91.4685 63.423L90.5797 62.9786Z" fill="#EFEFEF"/>
<path d="M86.4371 66.2384L85.5482 66.6828L85.8445 65.7939L85.252 65.2014H86.1408L86.4371 64.3125L86.8815 65.2014H87.6222L87.0297 65.7939L87.3259 66.6828L86.4371 66.2384Z" fill="#EFEFEF"/>
<path d="M86.4371 69.4962L85.5482 69.9406L85.8445 69.0517L85.252 68.4592H86.1408L86.4371 67.5703L86.8815 68.4592H87.6222L87.0297 69.0517L87.3259 69.9406L86.4371 69.4962Z" fill="#EFEFEF"/>
<path d="M82.2906 69.4962L81.4018 69.9406L81.698 69.0517L81.1055 68.4592H81.9943L82.2906 67.5703L82.735 68.4592H83.4757L82.8832 69.0517L83.1795 69.9406L82.2906 69.4962Z" fill="#EFEFEF"/>
</g>
</g>
<defs>
<filter id="filter0_d_174_43223" x="13.8028" y="-0.711372" width="296.326" height="142.047" filterUnits="userSpaceOnUse" color-interpolation-filters="sRGB">
<feFlood flood-opacity="0" result="BackgroundImageFix"/>
<feColorMatrix in="SourceAlpha" type="matrix" values="0 0 0 0 0 0 0 0 0 0 0 0 0 0 0 0 0 0 127 0" result="hardAlpha"/>
<feOffset dx="-0.949921" dy="0.949921"/>
<feGaussianBlur stdDeviation="16.6236"/>
<feComposite in2="hardAlpha" operator="out"/>
<feColorMatrix type="matrix" values="0 0 0 0 0 0 0 0 0 0 0 0 0 0 0 0 0 0 0.25 0"/>
<feBlend mode="normal" in2="BackgroundImageFix" result="effect1_dropShadow_174_43223"/>
<feBlend mode="normal" in="SourceGraphic" in2="effect1_dropShadow_174_43223" result="shape"/>
</filter>
<filter id="filter1_d_174_43223" x="37.8028" y="22.7027" width="296.326" height="142.047" filterUnits="userSpaceOnUse" color-interpolation-filters="sRGB">
<feFlood flood-opacity="0" result="BackgroundImageFix"/>
<feColorMatrix in="SourceAlpha" type="matrix" values="0 0 0 0 0 0 0 0 0 0 0 0 0 0 0 0 0 0 127 0" result="hardAlpha"/>
<feOffset dx="-0.949921" dy="0.949921"/>
<feGaussianBlur stdDeviation="16.6236"/>
<feComposite in2="hardAlpha" operator="out"/>
<feColorMatrix type="matrix" values="0 0 0 0 0 0 0 0 0 0 0 0 0 0 0 0 0 0 0.25 0"/>
<feBlend mode="normal" in2="BackgroundImageFix" result="effect1_dropShadow_174_43223"/>
<feBlend mode="normal" in="SourceGraphic" in2="effect1_dropShadow_174_43223" result="shape"/>
</filter>
<linearGradient id="paint0_linear_174_43223" x1="167.5" y1="-3.4004e-07" x2="170" y2="98" gradientUnits="userSpaceOnUse">
<stop stop-color="#F8F8F8"/>
<stop offset="1" stop-color="white"/>
</linearGradient>
<clipPath id="clip0_174_43223">
<path d="M0 10C0 4.47715 4.47715 0 10 0H307C312.523 0 317 4.47715 317 10V98H0V10Z" fill="white"/>
</clipPath>
</defs>
</svg>
