<svg width="85" height="33" viewBox="0 0 85 33" fill="none" xmlns="http://www.w3.org/2000/svg">
<path d="M23.3448 0.0756019L4.612 3.97307e-06H4.59567C4.01325 -0.000775336 3.43639 0.113098 2.89809 0.335111C2.35978 0.557124 1.87058 0.88292 1.45848 1.29387C1.04638 1.70482 0.719443 2.19286 0.496382 2.73008C0.273321 3.26729 0.158508 3.84315 0.158509 4.42471V27.9505C0.158313 28.5314 0.272759 29.1066 0.495305 29.6434C0.717851 30.1802 1.04414 30.6679 1.45551 31.0786C1.86689 31.4894 2.3553 31.8152 2.89282 32.0374C3.43035 32.2596 4.00647 32.3739 4.58824 32.3737H4.612L23.3537 32.3144V31.1864C23.3546 25.6271 21.2461 20.274 17.4529 16.2047C21.258 12.1352 23.3653 6.76963 23.3448 1.20216V0.0756019ZM8.98977 10.3925C6.70811 9.46454 4.88663 9.29263 2.42533 9.16807V9.12664C4.14082 8.86797 5.72623 8.06134 6.94415 6.82758C8.16208 5.59381 8.94698 3.99928 9.1813 2.28277L13.2815 2.30056C13.0068 5.57202 11.4733 8.24016 8.98977 10.3925ZM3.06367 2.89496C3.26363 2.69377 3.50187 2.53451 3.76435 2.42655C4.02658 2.31855 4.30755 2.26314 4.59121 2.2635L6.46613 2.28277C6.46613 3.14992 5.99703 4.23052 5.20431 5.03839C4.41159 5.84625 3.33236 6.29835 2.44611 6.29835L2.42533 4.4173C2.42538 4.13397 2.48184 3.85348 2.59143 3.59213C2.70101 3.33079 2.86154 3.0938 3.06367 2.89496ZM2.42533 23.2812V19.2093C5.38394 19.4895 7.84077 20.2558 9.93542 22.3592C12.03 24.4626 13.0024 27.1026 13.2666 30.0672L9.1783 30.0776C8.93563 28.3702 8.14718 26.7867 6.93038 25.5629C5.71357 24.339 4.13348 23.5403 2.42533 23.2857V23.2812ZM4.612 30.1117C4.03796 30.1117 3.48744 29.884 3.08154 29.4787C2.67563 29.0734 2.4476 28.5237 2.4476 27.9505V26.1391C3.31306 26.1391 4.41456 26.5942 5.2058 27.3976C5.99703 28.201 6.46761 29.2875 6.46761 30.0762L4.612 30.1117ZM20.5792 30.0628L16.1821 30.0762C15.9095 26.5201 14.3734 23.1784 11.851 20.6535C9.32866 18.1286 5.98585 16.5866 2.42533 16.3054L2.44611 11.8155C7.29448 12.112 11.2343 13.8908 14.6665 17.3267C18.0986 20.7627 20.2957 25.226 20.5777 30.0746L20.5792 30.0628ZM15.3004 14.1709C14.0608 13.0859 13.2369 12.5997 11.791 11.8096C14.3568 9.27928 15.9124 5.90282 16.1673 2.31093L20.3476 2.30056C20.1012 6.8809 18.4282 10.809 15.3004 14.1709Z" fill="#2376F3"/>
<path d="M30.7346 25.8058H34.6001V21.857L36.5639 19.7193L40.1616 25.8058H44.5324L39.3295 17.1058L44.4145 11.2849H39.8349L34.6607 17.3732H34.6001V6.29492H30.7346V25.8058Z" fill="#3E4B5B"/>
<path d="M51.6045 26.0714C56.1253 26.0714 59.3069 22.9835 59.3069 18.5587C59.3069 14.1035 56.1253 11.0762 51.6045 11.0762C46.966 11.0762 43.8719 14.2228 43.8719 18.5587C43.8719 22.8944 46.9626 26.0714 51.6045 26.0714ZM51.6045 22.5664C49.3745 22.5664 47.8283 20.8156 47.8283 18.5587C47.8283 16.2713 49.3443 14.5492 51.6045 14.5492C53.7453 14.5492 55.3521 16.1822 55.3521 18.5587C55.3521 20.9351 53.6864 22.5664 51.6045 22.5664Z" fill="#3E4B5B"/>
<path d="M61.1722 25.8057H65.0681V19.0951C65.0681 16.897 66.3481 15.2942 68.7567 15.2942C68.9942 15.2942 69.3816 15.2942 69.7976 15.3228V11.0762H69.4995C67.8051 11.0762 66.2286 11.9171 65.1287 13.3937H65.0681V11.2847H61.1722V25.8057Z" fill="#3E4B5B"/>
<path d="M76.8541 26.0725C78.7573 26.0725 80.2142 25.3594 81.2248 24.0543L81.2837 24.0845V25.8068H85.0011V11.2842H81.1052V12.9542L81.0463 12.9845C80.0054 11.7365 78.4592 11.084 76.7648 11.084C72.869 11.084 69.9248 14.2004 69.9248 18.5967C69.9248 23.0805 72.869 26.0792 76.8541 26.0792V26.0725ZM77.5968 22.5742C75.3954 22.5742 73.8796 20.9412 73.8796 18.6254C73.8796 16.1311 75.4864 14.557 77.5968 14.557C79.6786 14.557 81.2837 16.2792 81.2837 18.6254C81.2837 21.0018 79.5894 22.5742 77.5968 22.5742Z" fill="#3E4B5B"/>
</svg>
