<svg width="167" height="40" viewBox="0 0 167 40" fill="none" xmlns="http://www.w3.org/2000/svg">
<path d="M35.1258 12.1476C30.0794 14.9594 25.0551 17.8229 20.0235 20.6791C19.9347 20.7235 19.6239 20.9085 19.2244 21.1379C18.8544 21.3525 18.403 21.6115 17.9961 21.8482C17.9443 21.8186 17.9073 21.7964 17.8999 21.7891C17.5669 21.5893 17.1599 21.3525 16.8048 21.1453C16.4422 20.9307 16.1314 20.7457 16.0056 20.6791C10.974 17.8303 5.94976 14.9594 0.903334 12.1476C0.215185 11.7628 -0.0511943 11.304 0.00800129 10.3273C0.0819958 9.2322 0.0227977 8.12227 0.0227977 7.01235C0.0301971 4.45954 1.3473 3.31263 3.12317 4.31896C7.52584 6.82737 11.9063 9.38758 16.3386 11.8146C17.0267 12.192 17.5817 12.6581 18.0183 13.2131C18.4548 12.6581 19.0172 12.192 19.7053 11.8146C24.1302 9.38758 28.5181 6.82737 32.9133 4.31896C34.6892 3.31263 36.0063 4.45954 36.0137 7.01235C36.0137 8.11487 35.9545 9.2248 36.0285 10.3273C36.0877 11.304 35.8139 11.7628 35.1258 12.1476Z" fill="#F69E1E"/>
<path d="M36.0206 33.5169C35.9466 35.6035 36.0058 37.6975 36.0058 39.9988C32.7279 38.1341 29.6275 36.373 26.5271 34.612C23.6931 32.9989 20.8591 31.371 18.0178 29.7801C15.1764 31.3636 12.3424 32.9915 9.50099 34.612C6.40062 36.373 3.30025 38.1341 0.0222964 39.9988C0.0222964 37.6975 0.0814945 35.6035 0.0075 33.5169C-0.059095 31.6966 0.481062 30.5867 1.79076 29.9133C3.58143 28.9958 5.3351 27.9229 7.20716 26.85C6.91858 26.6724 6.7558 26.554 6.58561 26.4504C4.86154 25.4737 3.13006 24.4895 1.39859 23.5202C0.458864 23.0022 0.014897 22.0921 0.0222964 20.7676C0.0296959 18.8807 0.0296974 16.9939 0.0296974 15.107V13.7529C0.0370969 13.7603 0.0518965 13.7677 0.0592959 13.7677C0.170288 14.2191 0.444067 14.5151 0.902833 14.7667C5.94926 17.5785 10.9735 20.442 16.0051 23.2982C16.1309 23.3722 16.4417 23.5498 16.8042 23.7644C17.1594 23.9716 17.5664 24.2084 17.8994 24.4081C17.9068 24.4155 17.9438 24.4303 17.9956 24.4673C18.4025 24.2305 18.8539 23.9716 19.2239 23.757C19.6234 23.5276 19.9342 23.35 20.023 23.2982C25.0546 20.4494 30.0789 17.5785 35.1253 14.7667C35.584 14.5151 35.8578 14.2265 35.9614 13.7751C35.9688 13.7677 35.9836 13.7603 35.9984 13.7603V15.1144C35.9984 17.0013 35.9984 18.8882 36.0058 20.775C36.0132 22.0995 35.5618 23.0096 34.6295 23.5276C32.898 24.4895 31.174 25.4737 29.4425 26.4578C29.2723 26.554 29.1095 26.6724 28.8209 26.8574C30.693 27.9229 32.4393 29.0032 34.2299 29.9207C35.547 30.5793 36.0872 31.6966 36.0206 33.5169Z" fill="#EB1D25"/>
<path d="M58.5717 22.6682L65.9695 33H59.4728L54.9042 26.5452L50.4194 33H44.0904L51.5511 22.6892L44.279 12.6927H50.7757L55.1557 19.0007L59.5148 12.6927H65.8438L58.5717 22.6682ZM94.2962 12.1478C96.6853 12.1478 98.6133 12.8813 100.08 14.3483C101.561 15.8013 102.302 17.7084 102.302 20.0695V33H96.8529V21.8299C96.8529 20.3629 96.5037 19.2382 95.8051 18.4558C95.1205 17.6734 94.1495 17.2822 92.8921 17.2822C91.6486 17.2822 90.6217 17.6804 89.8114 18.4768C89.0011 19.2592 88.5959 20.3909 88.5959 21.8718V33H83.1261V21.8299C83.1261 20.3629 82.7838 19.2382 82.0992 18.4558C81.4146 17.6734 80.4366 17.2822 79.1652 17.2822C77.9218 17.2822 76.8949 17.6804 76.0845 18.4768C75.2742 19.2592 74.869 20.3909 74.869 21.8718V33H69.3993V12.6927H74.7223V15.0818C76.0356 13.1258 78.0266 12.1478 80.6951 12.1478C82.1621 12.1478 83.4754 12.4551 84.635 13.0699C85.7946 13.6707 86.7167 14.5229 87.4013 15.6266C88.7985 13.3074 91.0968 12.1478 94.2962 12.1478ZM127.868 33H122.524V30.7576C121.029 32.6018 119.003 33.5239 116.446 33.5239C113.638 33.5239 111.298 32.504 109.426 30.4642C107.554 28.4244 106.618 25.8816 106.618 22.8359C106.618 19.7901 107.554 17.2473 109.426 15.2075C111.298 13.1677 113.638 12.1478 116.446 12.1478C119.017 12.1478 121.043 13.0769 122.524 14.9351V12.6927H127.868V33ZM117.452 17.2403C115.888 17.2403 114.623 17.7782 113.659 18.854C112.695 19.9158 112.213 21.2431 112.213 22.8359C112.213 24.4286 112.695 25.7628 113.659 26.8386C114.623 27.9005 115.888 28.4314 117.452 28.4314C119.003 28.4314 120.261 27.9074 121.225 26.8596C122.203 25.7978 122.692 24.4565 122.692 22.8359C122.692 21.2152 122.203 19.8809 121.225 18.8331C120.261 17.7712 119.003 17.2403 117.452 17.2403ZM144.644 12.1478C145.734 12.1478 146.684 12.2945 147.495 12.5879L146.677 18.0157C145.699 17.5826 144.596 17.3661 143.366 17.3661C142.067 17.3661 141.026 17.7643 140.243 18.5606C139.475 19.343 139.091 20.4677 139.091 21.9347V33H133.621V12.6927H138.923V14.9141C140.153 13.0699 142.06 12.1478 144.644 12.1478ZM162.245 12.1478C163.335 12.1478 164.285 12.2945 165.095 12.5879L164.278 18.0157C163.3 17.5826 162.196 17.3661 160.967 17.3661C159.667 17.3661 158.626 17.7643 157.844 18.5606C157.076 19.343 156.691 20.4677 156.691 21.9347V33H151.222V12.6927H156.524V14.9141C157.753 13.0699 159.66 12.1478 162.245 12.1478Z" fill="white"/>
</svg>
