<svg width="110" height="85" viewBox="0 0 110 85" fill="none" xmlns="http://www.w3.org/2000/svg">
<path fill-rule="evenodd" clip-rule="evenodd" d="M48.0561 57.607C48.0561 55.9854 46.7391 54.6689 45.1177 54.6689H3.14278C1.52098 54.6689 0.204285 55.9854 0.204285 57.607V80.9004C0.204285 82.522 1.52098 83.8385 3.14278 83.8385H45.1177C46.7391 83.8385 48.0561 82.522 48.0561 80.9004V57.607Z" fill="#8ABBB8"/>
<path fill-rule="evenodd" clip-rule="evenodd" d="M8.51018 78.1559H3.57195V81.6472H8.51018V78.1559ZM26.3853 71.6318H3.56055V76.5854H26.3853V71.6318ZM44.5522 71.6318H32.8364V76.5854H44.5522V71.6318Z" fill="white"/>
<path d="M48.0559 62.8027H0.204224V69.6561H48.0559V62.8027Z" fill="black"/>
<path fill-rule="evenodd" clip-rule="evenodd" d="M7.7284 74.7016C7.70929 74.3874 7.74466 74.0402 7.81463 73.7162C7.92295 73.2154 8.11854 72.7736 8.30085 72.5779C8.45861 72.4088 8.63114 72.3738 8.7749 72.4224C8.98053 72.4918 9.10207 72.6757 9.12449 72.9375C9.15669 73.3126 8.96459 73.8814 8.89352 74.044C8.72877 74.4198 8.51964 74.701 8.27889 74.9226C8.31323 75.0852 8.37186 75.2245 8.4818 75.3074C8.59842 75.3955 8.76551 75.4026 8.99284 75.3365C9.11334 75.3016 9.36122 75.1461 9.60177 74.9543C9.56128 74.712 9.60404 74.4535 9.69901 74.2611C9.84537 73.965 10.1046 73.8341 10.3455 73.9151C10.509 73.9702 10.5979 74.0648 10.6438 74.1671C10.7038 74.3012 10.6921 74.4801 10.5797 74.6731C10.5043 74.8027 10.3786 74.9485 10.2301 75.091C10.3042 75.1506 10.4132 75.1798 10.5601 75.1772C10.7421 75.1739 11.0182 75.034 11.3215 74.8733C11.8609 74.5883 12.4624 74.2203 12.8147 74.125C13.1202 74.0421 13.3157 74.1425 13.3967 74.3155C13.4599 74.4503 13.519 74.5481 13.5801 74.6129C13.6095 74.6446 13.6349 74.6666 13.6643 74.6725C13.7038 74.6796 13.742 74.6608 13.7836 74.6414C13.8374 74.6155 13.8923 74.5811 13.9495 74.5429C14.3469 74.2792 14.8266 73.9106 15.4818 74.1334C15.7524 74.2254 15.8262 74.4755 15.7785 74.7846C15.765 74.8727 15.7434 74.9653 15.7301 75.0508C15.7281 75.0644 15.7264 75.0806 15.7253 75.0962C15.757 75.0942 15.792 75.0884 15.8293 75.0813C15.9297 75.0631 16.0406 75.0314 16.1526 74.9964C16.4184 74.9148 16.6902 74.8234 16.8761 74.8118C18.8482 74.6835 20.8335 74.7165 22.8032 74.5481C22.9458 74.5358 23.0713 74.642 23.0835 74.7846C23.0957 74.9271 22.9899 75.0521 22.8474 75.0644C20.8741 75.2335 18.8853 75.2005 16.9097 75.3288C16.7176 75.3411 16.4217 75.4622 16.1527 75.5367C15.9094 75.6048 15.6817 75.6333 15.5259 75.5931C15.2505 75.5212 15.168 75.2782 15.2201 74.9575C15.2323 74.883 15.2499 74.804 15.2628 74.7275C15.2685 74.6932 15.2713 74.6433 15.2725 74.6109C15.0345 74.5442 14.835 74.6077 14.6597 74.701C14.5049 74.7839 14.3659 74.8889 14.2361 74.975C14.0005 75.1312 13.7779 75.2206 13.5689 75.1817C13.3795 75.1461 13.1683 75.0048 12.9707 74.6232C12.9365 74.631 12.8917 74.6427 12.855 74.6563C12.7325 74.7023 12.5882 74.7735 12.4325 74.8558C11.918 75.1279 11.2896 75.5128 10.8666 75.6417C10.7556 75.676 10.6553 75.6935 10.5699 75.6955C10.2223 75.7019 9.98647 75.5892 9.83138 75.4279C9.55279 75.6365 9.27524 75.7946 9.13705 75.8341C8.70467 75.9598 8.39175 75.8885 8.16998 75.7214C8.02188 75.6099 7.91084 75.4486 7.83685 75.2517C7.76332 75.2964 7.68797 75.3385 7.61113 75.378C7.13495 75.6229 6.59625 75.7771 6.07051 76.0414C5.94275 76.1056 5.78687 76.0537 5.72267 75.9261C5.65846 75.7978 5.7101 75.6423 5.83792 75.5782C6.26228 75.365 6.69486 75.2225 7.09699 75.0476C7.32018 74.9504 7.53365 74.8429 7.7284 74.7016ZM8.61027 73.0262C8.5383 73.1422 8.47053 73.3022 8.41222 73.4843C8.37775 73.5918 8.34692 73.7071 8.32126 73.8257C8.30033 73.9229 8.28265 74.022 8.26937 74.1218C8.32327 74.035 8.37322 73.9397 8.4189 73.8354C8.46723 73.7253 8.59045 73.3787 8.60833 73.0949C8.60982 73.0716 8.61053 73.0483 8.61027 73.0262Z" fill="black"/>
<path d="M109.757 45.0342H38.2565V83.7941H109.757V45.0342Z" fill="#E4E4E6"/>
<path fill-rule="evenodd" clip-rule="evenodd" d="M87.3245 79.4464C87.5886 78.4804 88.0111 77.5122 88.597 76.7017C88.7141 76.5399 88.9115 76.226 89.1382 76.019C89.3498 75.8262 89.5901 75.7266 89.8226 75.7781C90.0907 75.8369 90.2287 76.0332 90.2575 76.3114C90.2999 76.7243 90.0392 77.3702 89.938 77.5523C89.4425 78.4482 88.6349 79.1772 87.7769 79.766C87.7396 79.9243 87.7147 80.0895 87.726 80.2422C87.7407 80.4373 87.8267 80.607 88.0659 80.6737C88.5551 80.8094 89.0981 80.6686 89.6173 80.4079C89.8164 80.3078 90.0115 80.1901 90.1987 80.0606C90.2032 79.9797 90.2111 79.9051 90.2191 79.8451C90.3265 78.9877 90.8124 78.1829 91.396 77.5625C91.4876 77.4652 91.7902 77.1196 92.0379 77.0167C92.25 76.9285 92.4406 76.959 92.5798 77.1366C92.7087 77.3012 92.7393 77.5342 92.6782 77.7949C92.5758 78.2333 92.2104 78.7728 92.0583 78.9826C91.754 79.4017 91.2772 79.8989 90.723 80.3197C90.7275 80.3468 90.7343 80.3728 90.7439 80.396C90.7496 80.4096 90.753 80.4243 90.7665 80.4294C91.0018 80.5182 91.2558 80.4198 91.5046 80.2727C91.9712 79.9973 92.4084 79.5245 92.6821 79.2716C92.8009 79.1619 92.9966 78.9572 93.2025 78.8333C93.4015 78.7134 93.6119 78.6687 93.7991 78.7349C94.0288 78.8164 94.1142 78.9747 94.1147 79.1812C94.1147 79.3011 94.0717 79.4509 94.0084 79.6093C93.9518 79.7501 93.8789 79.9011 93.837 80.042C93.8235 80.0872 93.8127 80.1302 93.811 80.1709C93.8093 80.1992 93.8201 80.2218 93.8529 80.2348C93.9988 80.2925 94.1255 80.254 94.2425 80.1766C94.4116 80.064 94.5638 79.8825 94.7154 79.6992C94.9359 79.4328 95.1554 79.1625 95.3907 79.0098C95.5977 78.8757 95.8171 78.8209 96.0569 78.8803C96.4002 78.9657 96.4641 79.2507 96.3736 79.628C96.3454 79.7484 96.3029 79.8802 96.2831 80.0035C96.2718 80.077 96.2458 80.1528 96.3193 80.1856C96.433 80.236 96.5405 80.2122 96.6457 80.1653C96.7458 80.1206 96.8442 80.0544 96.942 79.9854C97.1224 79.8587 97.3017 79.7207 97.4844 79.6319C97.6377 79.5573 97.7943 79.5143 97.9544 79.5194C98.0907 79.5239 98.1801 79.5669 98.2423 79.6183C98.3186 79.6817 98.3633 79.7654 98.3808 79.8666C98.3905 79.9198 98.391 79.9803 98.3865 80.0437C98.3842 80.077 98.382 80.1291 98.3803 80.1664C98.9097 80.2354 99.5012 80.0697 100.03 80.0346C100.931 79.9741 101.841 80.0273 102.738 79.9464C102.881 79.9334 103.007 80.0386 103.019 80.1811C103.032 80.3236 102.927 80.4497 102.784 80.4627C101.883 80.5442 100.969 80.491 100.065 80.5515C99.4894 80.59 98.8429 80.7602 98.2706 80.6743C98.1393 80.655 98.0528 80.6041 97.9923 80.5448C97.9239 80.4774 97.8843 80.3943 97.8679 80.2993C97.8566 80.2343 97.8577 80.1613 97.8628 80.0883C97.8639 80.0753 97.865 80.0589 97.8662 80.0425C97.7644 80.0595 97.6665 80.1166 97.5675 80.18C97.3973 80.2891 97.2293 80.4254 97.058 80.5306C96.7554 80.7167 96.4426 80.8072 96.1089 80.659C95.868 80.5521 95.7741 80.3711 95.7588 80.1534C95.7481 80.0052 95.7849 79.8321 95.829 79.6647C95.8493 79.5872 95.8708 79.5114 95.8844 79.4413C95.8878 79.4227 95.8906 79.3972 95.8918 79.3763C95.782 79.3655 95.6859 79.4266 95.5903 79.5058C95.4263 79.6415 95.273 79.8389 95.1147 80.0295C94.9286 80.2546 94.7363 80.4707 94.5287 80.6087C94.2691 80.7806 93.9858 80.8445 93.6634 80.7173C93.3727 80.603 93.2816 80.3977 93.2929 80.1494C93.3003 79.9854 93.3699 79.7908 93.4496 79.6008C93.4881 79.5098 93.5282 79.4193 93.5582 79.335C93.5701 79.3016 93.5808 79.2564 93.5876 79.2224C93.5707 79.2264 93.5531 79.2349 93.5356 79.2428C93.4881 79.2632 93.4411 79.2937 93.3959 79.3271C93.2505 79.4334 93.1193 79.5731 93.0334 79.6528C92.7404 79.9232 92.2676 80.4237 91.7682 80.719C91.3723 80.9531 90.9577 81.056 90.5833 80.9141C90.4425 80.8609 90.3429 80.7591 90.2801 80.6273C90.1393 80.7161 89.9957 80.7981 89.8503 80.8711C89.2078 81.1935 88.532 81.3411 87.9274 81.1731C87.3725 81.0187 87.2 80.5974 87.2085 80.133C87.1508 80.1681 87.0937 80.202 87.0366 80.236C86.6644 80.4554 86.2595 80.7303 85.8427 80.8603C85.8461 80.8592 85.8568 80.8553 85.8568 80.8553C85.8568 80.8553 85.7906 80.8779 85.7601 80.8807C85.7137 80.8858 85.6741 80.879 85.6441 80.8688C85.5853 80.849 85.5423 80.814 85.5118 80.771C85.4292 80.6545 85.4569 80.4927 85.5734 80.4101C85.6102 80.3841 85.6515 80.3689 85.6928 80.3638C86.0711 80.245 86.4348 79.9888 86.773 79.7897C86.9568 79.6817 87.1412 79.5674 87.3245 79.4464ZM85.923 80.456L85.9264 80.4605L85.9258 80.4594L85.923 80.456ZM85.9134 80.4452L85.9173 80.4492L85.9162 80.448L85.9134 80.4452ZM85.9037 80.4356L85.9077 80.439L85.906 80.4373L85.9037 80.4356ZM85.8941 80.4265L85.8958 80.4282L85.8947 80.4271L85.8941 80.4265ZM92.1912 77.528C92.142 77.5602 92.0736 77.6072 92.0312 77.6468C91.9158 77.7542 91.8174 77.8713 91.7738 77.9177C91.3355 78.3837 90.9532 78.964 90.7931 79.5935C91.1381 79.2875 91.4322 78.9628 91.6386 78.6784C91.7512 78.5228 92.0034 78.162 92.1284 77.8243C92.1624 77.731 92.1878 77.6405 92.1906 77.5591C92.1912 77.5483 92.1918 77.5382 92.1912 77.528ZM88.0246 78.9425C88.6089 78.4793 89.1332 77.9375 89.4844 77.3018C89.5523 77.1802 89.7174 76.7944 89.7417 76.4839C89.7457 76.4347 89.7457 76.3884 89.7395 76.3465C89.7355 76.3194 89.7378 76.2899 89.7112 76.2843C89.6772 76.2764 89.645 76.2916 89.6128 76.3092C89.5698 76.3324 89.5285 76.3652 89.4878 76.4019C89.2887 76.584 89.1202 76.8634 89.0172 77.0054C88.5964 77.5868 88.2673 78.2553 88.0246 78.9425Z" fill="black"/>
<path fill-rule="evenodd" clip-rule="evenodd" d="M78.1652 71.5018V70.8847C78.1652 70.6488 78.3394 70.4571 78.5539 70.4571C78.7683 70.4571 78.9426 70.6488 78.9426 70.8847V71.8809C78.9426 72.1167 78.7683 72.3084 78.5539 72.3084H78.5532C78.4995 72.3398 78.4379 72.3569 78.3725 72.3569H44.594C44.526 72.3569 44.4618 72.3376 44.4061 72.3041C44.1923 72.3027 44.0193 72.1117 44.0193 71.8766V70.8847C44.0193 70.6488 44.1936 70.4571 44.4081 70.4571C44.6225 70.4571 44.7968 70.6488 44.7968 70.8847V71.5018H78.1652ZM91.5799 62.2404V61.4374C91.5799 61.2015 91.7542 61.0098 91.9686 61.0098C92.1831 61.0098 92.3573 61.2015 92.3573 61.4374V62.4335C92.3573 62.5262 92.3308 62.6117 92.2854 62.6815C92.2783 62.911 92.1072 63.0955 91.8967 63.0955H44.4359C44.4314 63.0955 44.4269 63.0955 44.4223 63.0955C44.4171 63.0955 44.4126 63.0955 44.4081 63.0955C44.1936 63.0955 44.0193 62.9038 44.0193 62.668V61.6761C44.0193 61.4402 44.1936 61.2485 44.4081 61.2485C44.6225 61.2485 44.7968 61.4402 44.7968 61.6761V62.2404H91.5799ZM44.1833 54.1128L44.2111 53.1173C44.2182 52.8815 44.3977 52.6962 44.6121 52.7033C44.8266 52.7112 44.995 52.9085 44.9886 53.1437L44.973 53.6995H91.6719V53.1309C91.6719 52.895 91.8462 52.7033 92.0606 52.7033C92.275 52.7033 92.4493 52.895 92.4493 53.1309V54.1271C92.4493 54.3629 92.275 54.5546 92.0606 54.5546C92.0561 54.5546 92.0509 54.5546 92.0464 54.5546C92.0418 54.5546 92.0373 54.5546 92.0327 54.5546H44.5733C44.5713 54.5546 44.5687 54.5546 44.5668 54.5546H44.5648C44.526 54.5539 44.489 54.5468 44.4541 54.5346C44.3932 54.5133 44.3387 54.4762 44.2953 54.4278L44.2934 54.4256L44.2914 54.4235L44.2902 54.4221C44.2474 54.3722 44.215 54.3116 44.1975 54.2439C44.1878 54.2054 44.1826 54.1641 44.1833 54.1221V54.1192C44.1833 54.1171 44.1833 54.1149 44.1833 54.1128Z" fill="white"/>
<path fill-rule="evenodd" clip-rule="evenodd" d="M102.685 72.7709V70.4561C102.685 70.2417 102.859 70.0674 103.074 70.0674C103.288 70.0674 103.462 70.2417 103.462 70.4561V73.1597C103.462 73.3747 103.289 73.5484 103.074 73.5484H83.8061C83.591 73.5484 83.4174 73.3747 83.4174 73.1597V70.4561C83.4174 70.2417 83.5916 70.0674 83.8061 70.0674C84.0205 70.0674 84.1948 70.2417 84.1948 70.4561V72.7709H102.685Z" fill="white"/>
<path fill-rule="evenodd" clip-rule="evenodd" d="M84.1948 67.671V70.4562C84.1948 70.6706 84.0205 70.8449 83.8061 70.8449C83.5916 70.8449 83.4174 70.6706 83.4174 70.4562V67.2823C83.4174 67.0678 83.591 66.8936 83.8061 66.8936H103.074C103.289 66.8936 103.462 67.0678 103.462 67.2823V70.4562C103.462 70.6706 103.288 70.8449 103.074 70.8449C102.859 70.8449 102.685 70.6706 102.685 70.4562V67.671H84.1948Z" fill="white"/>
<path fill-rule="evenodd" clip-rule="evenodd" d="M85.5916 71.9434H87.5708C87.7853 71.9434 87.9596 71.7692 87.9596 71.5547C87.9596 71.3403 87.7853 71.166 87.5708 71.166H85.5916C85.3772 71.166 85.2029 71.3403 85.2029 71.5547C85.2029 71.7692 85.3772 71.9434 85.5916 71.9434ZM92.4506 71.9434H94.4291C94.6436 71.9434 94.8179 71.7692 94.8179 71.5547C94.8179 71.3403 94.6436 71.166 94.4291 71.166H92.4506C92.2361 71.166 92.0618 71.3403 92.0618 71.5547C92.0618 71.7692 92.2361 71.9434 92.4506 71.9434ZM89.0208 71.9434H91C91.2144 71.9434 91.3887 71.7692 91.3887 71.5547C91.3887 71.3403 91.2144 71.166 91 71.166H89.0208C88.8063 71.166 88.632 71.3403 88.632 71.5547C88.632 71.7692 88.8063 71.9434 89.0208 71.9434ZM95.8797 71.9434H97.859C98.0734 71.9434 98.2477 71.7692 98.2477 71.5547C98.2477 71.3403 98.0734 71.166 97.859 71.166H95.8797C95.6653 71.166 95.491 71.3403 95.491 71.5547C95.491 71.7692 95.6653 71.9434 95.8797 71.9434ZM99.3095 71.9434H101.288C101.503 71.9434 101.677 71.7692 101.677 71.5547C101.677 71.3403 101.503 71.166 101.288 71.166H99.3095C99.0951 71.166 98.9208 71.3403 98.9208 71.5547C98.9208 71.7692 99.0951 71.9434 99.3095 71.9434Z" fill="white"/>
<path d="M100.771 58.6389C103.78 58.6389 106.219 56.1998 106.219 53.191C106.219 50.1822 103.78 47.7432 100.771 47.7432C97.7623 47.7432 95.3232 50.1822 95.3232 53.191C95.3232 56.1998 97.7623 58.6389 100.771 58.6389Z" fill="white"/>
<path fill-rule="evenodd" clip-rule="evenodd" d="M100.601 50.2731L100.637 47.7451C100.685 47.7438 100.733 47.7432 100.781 47.7432C100.908 47.7432 101.032 47.7477 101.156 47.7561L101.119 50.2796C101.583 50.2737 102.066 50.2355 102.563 50.1545C102.236 49.2112 101.837 48.3988 101.495 47.7898C101.719 47.819 101.939 47.8617 102.153 47.9174C102.464 48.5089 102.798 49.2365 103.077 50.056C103.636 49.9323 104.209 49.7528 104.79 49.5028C104.911 49.6349 105.027 49.7736 105.135 49.9174C104.492 50.2057 103.855 50.4117 103.235 50.551C103.274 50.6793 103.31 50.8089 103.344 50.941C103.533 51.6543 103.666 52.4182 103.705 53.2092L106.229 53.2844C106.226 53.4593 106.214 53.6316 106.196 53.802L103.716 53.7281C103.711 54.6086 103.581 55.5156 103.271 56.42C103.746 56.5541 104.229 56.731 104.716 56.9584C104.586 57.0932 104.45 57.2214 104.308 57.3426C103.896 57.1612 103.489 57.018 103.086 56.9059C102.872 57.4216 102.595 57.9347 102.247 58.4388C102.001 58.5081 101.747 58.5599 101.487 58.5936C101.955 58.0002 102.311 57.3925 102.573 56.7796C102.042 56.6656 101.524 56.6047 101.025 56.5846L100.994 58.6344C100.924 58.637 100.853 58.639 100.781 58.639C100.679 58.639 100.577 58.6357 100.476 58.6305L100.507 56.5781C99.8847 56.5872 99.299 56.6559 98.7632 56.7582C99.0483 57.3452 99.4188 57.9483 99.8905 58.5658C99.6242 58.5224 99.3651 58.4589 99.1137 58.3779C98.7606 57.8654 98.473 57.3627 98.2423 56.8716C97.8225 56.9733 97.4415 57.0925 97.1085 57.213C96.9693 57.0854 96.8364 56.9513 96.7114 56.81C97.0891 56.6656 97.5342 56.5179 98.0343 56.3928C97.6618 55.4657 97.4895 54.5833 97.4571 53.758C97.4545 53.6854 97.4526 53.6135 97.4519 53.5422L95.3412 53.4794C95.3366 53.3841 95.334 53.2876 95.334 53.1911C95.334 53.114 95.3353 53.0375 95.3386 52.9611L97.4655 53.0239C97.5245 52.056 97.7707 51.1775 98.0985 50.4091C97.4221 50.229 96.8695 50.0178 96.4808 49.8487C96.5916 49.7056 96.7101 49.5688 96.8345 49.4373C97.209 49.5935 97.7137 49.7775 98.3181 49.9336C98.7567 49.0531 99.2854 48.345 99.7143 47.8475C99.9721 47.7963 100.236 47.7632 100.506 47.7496C100.095 48.1656 99.3942 48.9631 98.8332 50.0541C99.367 50.1649 99.9618 50.2485 100.601 50.2731ZM103.196 53.7126L101.068 53.6498L101.033 56.0676C101.589 56.089 102.168 56.1583 102.762 56.2911C103.064 55.4249 103.191 54.5555 103.196 53.7126ZM97.9709 53.5578C97.9715 53.6174 97.9728 53.6776 97.9754 53.7379C98.0058 54.5334 98.1782 55.3828 98.5468 56.2762C99.1461 56.1544 99.8082 56.0715 100.514 56.0618L100.551 53.6342L97.9709 53.5578ZM102.724 50.6521C102.168 50.7473 101.628 50.7907 101.111 50.7965L101.076 53.1315L103.184 53.1937C103.145 52.4538 103.019 51.7398 102.843 51.0725C102.806 50.9307 102.766 50.7901 102.724 50.6521ZM98.6051 50.5322C98.2844 51.265 98.0421 52.1085 97.9838 53.0395L100.558 53.1159L100.593 50.7888C99.8691 50.7616 99.1999 50.6624 98.6051 50.5322Z" fill="#E4E4E6"/>
<path fill-rule="evenodd" clip-rule="evenodd" d="M65.3096 72.541C65.4715 75.7687 65.9885 78.515 66.8593 81.0494C67.4287 82.7242 69.0011 83.8502 70.7698 83.8502C70.7698 83.8521 70.7698 83.8521 70.7698 83.8521C72.2599 83.8521 73.6036 82.9555 74.175 81.5794C75.1643 79.2024 75.9981 76.2831 76.5948 72.541H65.3096Z" fill="#F27F71"/>
<path fill-rule="evenodd" clip-rule="evenodd" d="M65.4137 74.0594C65.4027 73.9343 65.3923 73.8086 65.382 73.6816L68.3168 73.7361C68.3168 73.7361 68.9899 75.9809 69.6067 77.9751C70.4295 80.6333 71.2147 82.3993 72.916 83.1625C72.754 83.2785 72.5823 83.3815 72.4035 83.4696C71.8574 83.6692 71.1817 83.8519 70.769 83.8519C70.769 83.8519 70.769 83.8519 70.769 83.8499C70.758 83.8499 70.7463 83.8499 70.7353 83.8499C70.6705 83.8493 70.6064 83.8473 70.5422 83.8441L70.5215 83.8428C70.4943 83.8408 70.4664 83.8395 70.4392 83.837L70.4191 83.8357L70.399 83.8337L70.3783 83.8318C70.3718 83.8311 70.3653 83.8305 70.3582 83.8298L70.3472 83.8285C70.3232 83.8266 70.2999 83.8233 70.2759 83.8208C70.263 83.8195 70.25 83.8175 70.2371 83.8162L70.2163 83.8136C70.1833 83.8084 70.1496 83.8039 70.1166 83.7987L70.0965 83.7955C70.09 83.7942 70.0829 83.7929 70.0764 83.7916L70.0563 83.7884C70.0498 83.7871 70.0434 83.7864 70.0362 83.7851L70.0174 83.7812C69.9954 83.7773 69.9734 83.7735 69.9514 83.7689C69.8432 83.7469 69.7363 83.721 69.6313 83.6905C69.5963 83.6808 69.562 83.6704 69.527 83.6594C69.4817 83.6452 69.4363 83.6296 69.3916 83.6141C69.3748 83.6083 69.3579 83.6018 69.3411 83.5959L69.3035 83.5817C69.0431 83.4826 68.7943 83.3582 68.5604 83.2105L68.5274 83.1891C68.5144 83.1807 68.5014 83.1722 68.4891 83.1638L68.4613 83.145L68.4282 83.123L68.4179 83.1159C68.3077 83.0394 68.2015 82.9584 68.0998 82.8716C68.0641 82.8418 68.0291 82.8114 67.9948 82.7803L67.9656 82.7531L67.9365 82.7265C67.9268 82.7174 67.9177 82.7084 67.908 82.6993L67.884 82.676C67.7519 82.5471 67.6281 82.4091 67.5141 82.2633C67.4551 82.1875 67.3981 82.1097 67.3443 82.03C67.3275 82.0041 67.3107 81.9789 67.2938 81.953C67.2731 81.9206 67.253 81.8875 67.2329 81.8545L67.2264 81.8441L67.22 81.8331C67.174 81.756 67.1306 81.677 67.0891 81.5966L67.08 81.5785L67.0735 81.5649C67.0185 81.4541 66.9679 81.3407 66.9219 81.2241L66.9148 81.2047C66.9044 81.1775 66.8941 81.1502 66.8844 81.123C66.8753 81.0984 66.8669 81.0738 66.8584 81.0492L66.839 80.9928L66.8332 80.9747L66.8202 80.9371L66.8125 80.9151L66.8008 80.8801L66.793 80.8574L66.782 80.8237L66.7742 80.8004L66.7626 80.7661L66.7554 80.7434L66.7438 80.7071L66.7366 80.687L66.7224 80.6417L66.7185 80.6307L66.6997 80.5736L66.6952 80.5581L66.6816 80.5173L66.6751 80.4959L66.6634 80.4603L66.6563 80.4369L66.6453 80.4026L66.6382 80.3793L66.6272 80.3449L66.62 80.3216L66.609 80.286L66.6025 80.2646L66.5896 80.2238L66.5844 80.2076L66.5676 80.1499L66.5637 80.1389L66.5501 80.0929L66.5436 80.0722L66.5326 80.0353L66.5261 80.0126L66.5151 79.9776L66.5086 79.9536L66.4982 79.9193L66.4911 79.896L66.4807 79.8603L66.4743 79.8377L66.4633 79.7994L66.4574 79.78L66.4412 79.7236L66.4406 79.7223L66.4244 79.664L66.4192 79.6453L66.4075 79.6064L66.4017 79.5837L66.3913 79.5481L66.3849 79.5241L66.3751 79.4891L66.3687 79.4651L66.3589 79.4302L66.3525 79.4068L66.3421 79.3693L66.3369 79.3479L66.324 79.3019L66.3207 79.2896L66.3052 79.2313L66.3006 79.2144L66.2896 79.1723L66.2838 79.1503L66.2741 79.1134L66.2676 79.0894L66.2585 79.0544L66.2527 79.0298L66.2436 78.9948L66.2371 78.9708L66.2281 78.9339L66.2222 78.9112L66.2112 78.8698L66.2073 78.8523L66.1924 78.7927L66.1892 78.781L66.1775 78.7337L66.1724 78.7123L66.1633 78.6741L66.1575 78.6501L66.1484 78.6145L66.1426 78.5892L66.1341 78.5543L66.1283 78.529L66.1192 78.4933L66.114 78.4694L66.105 78.4299L66.0998 78.4091L66.0868 78.3541L66.0855 78.3489L66.0719 78.2893L66.0674 78.2685L66.0583 78.2297L66.0532 78.205L66.0447 78.1688L66.0389 78.1435L66.0311 78.1079L66.0253 78.0826L66.0175 78.047L66.0123 78.0217L66.0039 77.9841L65.9987 77.9608L65.989 77.9161L65.9858 77.8999L65.9728 77.8403L65.9689 77.8209L65.9599 77.7794L65.9547 77.7548L65.9476 77.7179L65.9417 77.6919L65.9346 77.6563L65.9294 77.6297L65.9223 77.5948L65.9164 77.5682L65.9093 77.5326L65.9041 77.5066L65.8964 77.4671L65.8918 77.4451L65.8802 77.3848L65.8769 77.3674L65.8685 77.3233L65.8633 77.298L65.8562 77.2611L65.851 77.2339L65.8445 77.1996L65.8394 77.171L65.8329 77.1367L65.8277 77.1089L65.8212 77.0739L65.816 77.0467L65.8096 77.0104L65.805 76.9838L65.7966 76.9385L65.7934 76.9223L65.7914 76.91L65.783 76.8614L65.7778 76.8342L65.772 76.7985L65.7668 76.7694L65.761 76.7357L65.7558 76.7059L65.7499 76.6728L65.7448 76.643L65.7396 76.61L65.7344 76.5795L65.7286 76.5465L65.724 76.5167L65.7182 76.4804L65.7137 76.4532L65.704 76.393L65.6988 76.3632L65.6936 76.3295L65.6884 76.2977L65.6839 76.266L65.6787 76.2336L65.6735 76.2025L65.669 76.1701L65.6638 76.139L65.6586 76.106L65.6541 76.0755L65.6489 76.0418L65.645 76.012L65.6398 75.9777L65.6359 75.9505L65.6307 75.9168L65.6256 75.8818L65.6217 75.8539L65.6165 75.8183L65.6126 75.7898L65.6074 75.7542L65.6035 75.7257L65.5984 75.69L65.5951 75.6615L65.5899 75.6252L65.586 75.598L65.5809 75.5605L65.5776 75.5352L65.5724 75.4957L65.5705 75.4788L65.564 75.4335L65.5575 75.3803L65.5562 75.3719L65.5511 75.3292L65.5478 75.3071L65.5433 75.2663L65.54 75.2423L65.5349 75.2015L65.5323 75.1776L65.5271 75.1368L65.5245 75.1134L65.5193 75.0713L65.5167 75.0506L65.5115 75.0052L65.5102 74.9942L65.5038 74.9424C65.5018 74.9217 65.4992 74.9009 65.4973 74.8802L65.4908 74.8271L65.4902 74.8167L65.4843 74.7688L65.483 74.7513L65.4778 74.7046L65.4759 74.6865L65.4707 74.6398L65.4688 74.6217L65.4636 74.5738L65.4623 74.5589L65.4571 74.5077L65.4565 74.5025C65.448 74.4215 65.4403 74.3412 65.4325 74.2595L65.4318 74.2537L65.4267 74.1986L65.4254 74.1876L65.4208 74.1339L65.4195 74.1228L65.415 74.0678L65.4137 74.0594Z" fill="#FFC2BA"/>
<path fill-rule="evenodd" clip-rule="evenodd" d="M30.1605 72.6201C30.3225 75.8478 30.8395 78.5941 31.7102 81.1285C32.2797 82.8033 33.8521 83.9293 35.6207 83.9293C35.6207 83.9312 35.6207 83.9312 35.6207 83.9312C37.1108 83.9312 38.4545 83.0346 39.0259 81.6585C40.0152 79.2815 40.849 76.3622 41.4457 72.6201H30.1605Z" fill="#FFC3BB"/>
<path fill-rule="evenodd" clip-rule="evenodd" d="M30.1838 73.0438C30.1754 72.9032 30.1676 72.7626 30.1605 72.6201H41.4457C41.3913 72.9596 41.3356 73.2913 41.2779 73.6172L39.4334 73.5867C39.092 74.681 37.0253 81.2899 36.0101 82.3524C35.1789 83.2218 34.7468 83.5108 34.3179 83.7187C33.1271 83.3229 32.1547 82.3958 31.7238 81.1681L31.7232 81.1668L31.718 81.1506L31.7102 81.1285C31.5813 80.7534 31.4601 80.3731 31.3468 79.9877C31.3312 79.9358 31.3163 79.884 31.3014 79.8315C31.26 79.689 31.2204 79.5452 31.1809 79.4C31.1731 79.3696 31.1647 79.3391 31.1563 79.308C31.1109 79.1364 31.0662 78.9627 31.0235 78.7878C30.9872 78.6401 30.9516 78.4911 30.9179 78.3414C30.8699 78.1335 30.8246 77.9235 30.7812 77.711C30.7507 77.5627 30.7216 77.4124 30.6931 77.2614C30.6814 77.1973 30.6691 77.1332 30.6574 77.0684L30.6458 77.0023C30.6289 76.9083 30.6121 76.8138 30.5965 76.7185C30.5674 76.5468 30.5395 76.3732 30.513 76.1983L30.5026 76.1303C30.4845 76.0123 30.4676 75.8931 30.4508 75.7733L30.4436 75.7202L30.4417 75.7046C30.3834 75.2738 30.3322 74.8352 30.2888 74.3869L30.2823 74.3149L30.281 74.3033C30.2687 74.1705 30.2564 74.037 30.2454 73.9022C30.2221 73.6198 30.2013 73.3341 30.1838 73.0438Z" fill="#F27F71"/>
<path fill-rule="evenodd" clip-rule="evenodd" d="M84.0756 42.3916C84.5563 42.2567 84.9515 42.1345 85.05 42.0731C86.2058 41.3537 87.1815 40.166 87.6991 38.8182C88.1993 37.5174 88.3243 36.0739 87.7173 34.7969C86.9891 35.8445 85.8339 36.5562 84.7811 36.6393C83.6085 36.7319 82.4812 36.1584 81.915 34.4992C81.2477 32.5435 82.5473 30.9864 84.489 30.5963C85.2321 30.447 86.0827 30.4916 86.9269 30.7933C86.8751 30.2895 86.75 29.7964 86.5667 29.3219C86.0834 28.0712 85.2243 26.9427 84.2039 26.0701C83.9428 25.8599 83.902 25.4774 84.1119 25.2164C84.3218 24.9555 84.7047 24.9143 84.9658 25.1245C86.2116 26.0687 87.2767 27.33 87.9246 28.7505C88.3554 29.6957 88.5925 30.7119 88.5796 31.7618C89.1186 32.223 89.6175 32.8257 90.0399 33.5893C91.0978 35.5023 91.1147 37.7357 90.4616 39.7875C89.8196 41.8069 88.4727 43.6167 86.842 44.7699C86.6379 44.9151 85.8469 45.2753 84.9295 45.6264C85.0409 46.1713 85.144 46.7388 85.2392 47.3323C87.0143 58.3888 86.945 68.7177 83.6804 79.1341C82.7546 82.0702 80.0316 84.0676 76.9536 84.0676C76.953 84.0682 76.953 84.0682 76.953 84.0682C74.2196 84.0682 71.7895 82.3255 70.9136 79.7353C69.8601 76.6223 68.6253 72.9716 68.6253 72.9716H38.701C38.701 72.9716 37.1597 77.3311 36.0097 80.5853C35.2718 82.6727 33.2984 84.0682 31.0847 84.0682H31.084C28.3286 84.0682 25.9365 82.1687 25.3124 79.4846C24.602 76.4292 23.7979 72.9716 23.7979 72.9716H14.7957C13.7507 72.9716 12.7708 72.3606 12.4009 71.3837C11.2489 68.3406 8.95508 60.5112 12.6219 51.373C12.8913 50.7025 13.5882 50.3014 14.3113 50.3014C16.7097 50.2995 22.0075 50.2995 22.0075 50.2995C22.0075 50.2995 22.8085 38.0984 33.8575 31.6646L30.8521 25.9284C30.8521 25.9284 35.8776 23.9486 40.3265 29.671C50.9295 27.1761 60.2795 26.9078 72.1866 30.4406C74.9737 31.2627 77.4946 32.8051 79.4958 34.9121C80.8888 36.3756 81.9863 37.8419 82.857 39.5051C83.3254 40.4002 83.7277 41.3523 84.0756 42.3916ZM86.5382 33.3244C86.1844 33.0736 85.8074 32.9278 85.4355 32.8813C84.5997 32.7768 83.7109 33.0948 83.9279 33.8781C84.1145 34.5538 84.5622 34.7795 85.0422 34.6308C85.6337 34.4475 86.2194 33.9586 86.5382 33.3244Z" fill="#FFC3BB"/>
<path fill-rule="evenodd" clip-rule="evenodd" d="M38.4939 73.5701L39.4586 70.6016C39.5052 70.4571 39.6484 70.3658 39.7987 70.3846C39.9497 70.4034 40.0663 70.5265 40.0766 70.6781L40.2347 72.9728H38.7051L38.4939 73.5701ZM66.8011 72.9728L67.3013 70.4902C67.324 70.38 67.4173 70.2984 67.53 70.2913C67.6421 70.2835 67.7457 70.3528 67.782 70.4597C68.1494 71.5443 68.7266 73.2488 68.7266 73.2488L68.724 73.2495L68.6301 72.9728H66.8011ZM78.4692 52.324C78.4692 43.9477 72.0262 36.9808 63.6752 36.3276C57.5801 35.8451 51.5206 35.8493 45.4967 36.3261C37.145 36.9779 30.7007 43.9451 30.7007 52.3221C30.7001 52.3221 30.7001 52.3221 30.7001 52.3221C30.7001 61.0035 37.6024 68.1125 46.2806 68.3678C51.8374 68.533 57.3734 68.533 62.8887 68.3697C71.5669 68.1145 78.4692 61.0054 78.4692 52.324ZM18.2688 50.3273C18.7844 51.4753 19.2579 53.0341 19.5823 55.15C19.6366 55.5031 19.3936 55.8341 19.0402 55.8879C18.6867 55.9423 18.3558 55.6994 18.3016 55.3463C17.9377 52.9732 17.3942 51.3859 16.8353 50.3279L17.9121 50.3273H18.2688ZM20.7948 50.3273C21.2023 51.209 21.5694 52.3331 21.8381 53.7662C21.904 54.1179 21.6722 54.4568 21.3207 54.5222C20.9693 54.5883 20.6305 54.3564 20.5646 54.0052C20.2504 52.3298 19.8029 51.1527 19.3412 50.3273H20.7948ZM84.9336 45.627C85.0457 46.1719 83.9871 42.1134 84.0804 42.3923C84.5605 42.2574 84.9563 42.1352 85.0548 42.0738C85.1254 42.0297 85.196 41.9838 85.2654 41.9363C85.531 42.7959 85.8394 43.8972 86.1115 45.1424C85.7811 45.2895 85.3716 45.4592 84.9336 45.627ZM87.7221 34.7976C87.6029 35.0608 88.6679 33.2856 88.5844 31.7625C88.9971 32.1157 89.3864 32.5521 89.7356 33.0801C89.5646 33.9084 89.1908 34.9777 88.3835 36.0214C88.3097 36.1169 88.2144 36.1862 88.1095 36.2274C88.0641 35.7389 87.9404 35.2575 87.7221 34.7976ZM86.931 30.794C87.0424 32.1621 86.4542 33.5013 86.5429 33.3251C86.1892 33.0743 85.8121 32.9286 85.4396 32.882C85.4079 32.878 85.3761 32.8746 85.3444 32.8719C85.8562 32.0271 85.7739 31.1114 85.634 30.5235C86.0577 30.5509 86.4956 30.6382 86.931 30.794ZM33.8545 31.6698L34.3333 32.6262C34.4933 32.9459 34.3638 33.3355 34.0444 33.4956C33.7243 33.6557 33.3349 33.526 33.1749 33.2063L32.7486 32.3551C33.1056 32.1203 33.4742 31.8916 33.8545 31.6698ZM40.7809 30.4194C40.7809 30.4194 40.1512 29.44 40.3313 29.6717C40.766 29.5694 41.1987 29.4709 41.6302 29.376L41.8395 29.672C42.0455 29.964 41.9755 30.3686 41.684 30.5749C41.3918 30.7811 40.9869 30.7114 40.7809 30.4194Z" fill="#F27F71"/>
<path d="M13.9649 72.9988C15.8777 72.9988 17.4283 67.9234 17.4283 61.6625C17.4283 55.4016 15.8777 50.3262 13.9649 50.3262C12.0521 50.3262 10.5015 55.4016 10.5015 61.6625C10.5015 67.9234 12.0521 72.9988 13.9649 72.9988Z" fill="#F27F71"/>
<path fill-rule="evenodd" clip-rule="evenodd" d="M12.1113 56.6069V66.7194C12.1113 67.0764 12.4016 67.3673 12.7591 67.3673C13.1167 67.3673 13.407 67.0764 13.407 66.7194V56.6069C13.407 56.2492 13.1167 55.959 12.7591 55.959C12.4016 55.959 12.1113 56.2492 12.1113 56.6069Z" fill="#D7441E"/>
<path fill-rule="evenodd" clip-rule="evenodd" d="M14.5222 56.6069V66.7194C14.5222 67.0764 14.8125 67.3673 15.1701 67.3673C15.5276 67.3673 15.818 67.0764 15.818 66.7194V56.6069C15.818 56.2492 15.5276 55.959 15.1701 55.959C14.8125 55.959 14.5222 56.2492 14.5222 56.6069Z" fill="#D7441E"/>
<path fill-rule="evenodd" clip-rule="evenodd" d="M24.4696 47.3916C24.4556 47.7584 24.4139 48.5443 24.6063 49.2527C24.8476 50.1405 25.4133 50.9082 26.6143 50.9759C27.109 51.0036 27.7879 50.9398 28.3414 50.404C28.8148 49.9457 29.2397 49.0802 29.2062 47.403L27.9105 47.4292C27.9332 48.5552 27.758 49.1652 27.4401 49.4732C27.2024 49.703 26.8997 49.6941 26.6872 49.6823C26.1734 49.6531 25.9599 49.2927 25.8567 48.9126C25.7047 48.353 25.7533 47.7307 25.7644 47.441L24.4696 47.3916Z" fill="black"/>
<path d="M68.753 31.417H43.0523L43.7017 34.2725H69.4024L68.753 31.417Z" fill="black"/>
<path fill-rule="evenodd" clip-rule="evenodd" d="M45.2502 36.3462C45.3338 36.3383 45.4161 36.3313 45.499 36.3248C51.5229 35.848 57.5824 35.8438 63.6775 36.3263C64.9052 36.4223 66.0915 36.6547 67.222 37.008V50.5417H45.2502V36.3462Z" fill="#82B5B2"/>
<path fill-rule="evenodd" clip-rule="evenodd" d="M49.1939 36.0919C53.6687 35.8821 58.1623 35.9334 62.6767 36.2515C61.539 38.8258 58.9625 40.6242 55.9693 40.6242C52.9146 40.6242 50.294 38.7512 49.1939 36.0919Z" fill="#A8CFCC"/>
<path fill-rule="evenodd" clip-rule="evenodd" d="M52.2682 50.5419V44.2304C52.2682 43.4775 52.8785 42.8672 53.6307 42.8672C54.3835 42.8672 54.9938 43.4775 54.9938 44.2304V50.5419H52.2682ZM56.8202 50.5419V45.8397C56.8202 45.0875 57.4311 44.4766 58.1833 44.4766C58.9354 44.4766 59.5464 45.0875 59.5464 45.8397V50.5419H56.8202Z" fill="#A8CFCC"/>
<path d="M67.2218 13.7412H45.2502V32.7208H67.2218V13.7412Z" fill="#A8CFCC"/>
<path fill-rule="evenodd" clip-rule="evenodd" d="M48.6636 32.7204C48.9571 28.9434 52.1187 25.9658 55.9703 25.9658C59.8218 25.9658 62.9834 28.9434 63.2769 32.7204H48.6636Z" fill="#82B5B2"/>
<path fill-rule="evenodd" clip-rule="evenodd" d="M60.3419 13.7412V19.119C60.3419 19.8712 59.7316 20.4819 58.9794 20.4819C58.2272 20.4819 57.6163 19.8712 57.6163 19.119V13.7412H60.3419ZM55.7899 13.7412V17.5096C55.7899 18.2618 55.179 18.8725 54.4268 18.8725C53.6747 18.8725 53.0637 18.2618 53.0637 17.5096V13.7412H55.7899Z" fill="#82B5B2"/>
<path d="M45.2716 57.2908C49.0945 57.2908 52.1937 54.2229 52.1937 50.4384C52.1937 46.6539 49.0945 43.5859 45.2716 43.5859C41.4487 43.5859 38.3495 46.6539 38.3495 50.4384C38.3495 54.2229 41.4487 57.2908 45.2716 57.2908Z" fill="#FFCF84"/>
<path fill-rule="evenodd" clip-rule="evenodd" d="M45.2735 45.0934C48.2533 45.0934 50.6727 47.4883 50.6727 50.4383C50.6727 53.3882 48.2533 55.7831 45.2735 55.7831C45.1525 55.7831 45.0542 55.8804 45.0542 56.0002C45.0542 56.1201 45.1525 56.2173 45.2735 56.2173C48.4953 56.2173 51.1113 53.6278 51.1113 50.4383C51.1113 47.2487 48.4953 44.6592 45.2735 44.6592C45.1525 44.6592 45.0542 44.7564 45.0542 44.8763C45.0542 44.9961 45.1525 45.0934 45.2735 45.0934Z" fill="#FD9909"/>
<path fill-rule="evenodd" clip-rule="evenodd" d="M45.2687 55.7831C42.2886 55.7831 39.8692 53.3882 39.8692 50.4383C39.8692 47.4883 42.2886 45.0934 45.2687 45.0934C45.3897 45.0934 45.488 44.9961 45.488 44.8763C45.488 44.7564 45.3897 44.6592 45.2687 44.6592C42.0465 44.6592 39.4309 47.2487 39.4309 50.4383C39.4309 53.6278 42.0465 56.2173 45.2687 56.2173C45.3897 56.2173 45.488 56.1201 45.488 56.0002C45.488 55.8804 45.3897 55.7831 45.2687 55.7831Z" fill="#FD9909"/>
<path fill-rule="evenodd" clip-rule="evenodd" d="M46.1052 57.2421L45.9635 56.1131C45.9486 55.9942 46.0341 55.8857 46.1543 55.8709C46.2745 55.8561 46.3837 55.9407 46.399 56.0596L46.5389 57.1765C46.396 57.2028 46.2512 57.2247 46.1052 57.2421ZM47.3995 56.9609L47.0074 55.8154C46.9688 55.7019 47.0302 55.5785 47.1451 55.5401C47.2596 55.5016 47.3841 55.5626 47.4227 55.676L47.8126 56.8142C47.6771 56.8673 47.5394 56.9162 47.3995 56.9609ZM41.456 56.1556L42.0656 55.1632C42.1284 55.0608 42.2635 55.0282 42.367 55.0905C42.4705 55.1527 42.5034 55.2864 42.4406 55.3888L41.8292 56.3838C41.702 56.3115 41.5775 56.2353 41.456 56.1556ZM50.9671 54.3324L49.9596 53.5943C49.8627 53.523 49.8421 53.387 49.914 53.2907C49.9859 53.1944 50.1232 53.174 50.2206 53.2453L51.2057 53.967C51.1302 54.0914 51.0504 54.2133 50.9671 54.3324ZM38.6932 52.5747L39.877 52.0473C39.9871 51.9981 40.1174 52.0469 40.1669 52.1562C40.2165 52.2655 40.1674 52.3941 40.0568 52.4433L38.8437 52.9839C38.7893 52.8496 38.7389 52.7132 38.6932 52.5747ZM51.9886 48.7768C52.0237 48.9167 52.0548 49.0583 52.0811 49.2013L50.914 49.4738C50.7965 49.5013 50.678 49.4289 50.6504 49.3124C50.6223 49.1957 50.6956 49.0787 50.8131 49.0512L51.9886 48.7768ZM39.552 46.5802L40.595 47.2555C40.6963 47.3211 40.7248 47.4558 40.6586 47.5561C40.5924 47.6563 40.4564 47.6845 40.3551 47.6189L39.3165 46.9463C39.3911 46.8216 39.47 46.6995 39.552 46.5802ZM40.2327 45.7425L41.081 46.36C41.1784 46.431 41.1994 46.5671 41.1275 46.6635C41.056 46.7601 40.9183 46.7808 40.8209 46.7098L39.9415 46.0692C40.0349 45.9573 40.1323 45.8483 40.2327 45.7425ZM49.2728 44.8479C49.3921 44.9318 49.5087 45.0193 49.6223 45.1104L48.864 46.0569C48.7885 46.1508 48.6504 46.1665 48.5556 46.092C48.4609 46.0176 48.4451 45.8809 48.5201 45.787L49.2728 44.8479ZM48.0982 44.1827C48.232 44.2422 48.3635 44.3057 48.4925 44.373L47.9578 45.3657C47.9008 45.4715 47.7679 45.5115 47.6609 45.4551C47.5543 45.3987 47.514 45.2671 47.571 45.1614L48.0982 44.1827ZM43.7196 43.7598L44.0284 44.8496C44.0608 44.9649 43.9929 45.0849 43.8762 45.1172C43.7595 45.1496 43.6385 45.0822 43.606 44.9668L43.2955 43.8704C43.435 43.8292 43.5762 43.7923 43.7196 43.7598Z" fill="#FD9909"/>
<path d="M63.6791 65.7801C67.5021 65.7801 70.6012 62.7121 70.6012 58.9276C70.6012 55.1431 67.5021 52.0752 63.6791 52.0752C59.8562 52.0752 56.7571 55.1431 56.7571 58.9276C56.7571 62.7121 59.8562 65.7801 63.6791 65.7801Z" fill="#FFCF84"/>
<path fill-rule="evenodd" clip-rule="evenodd" d="M63.6776 53.5826C66.6574 53.5826 69.0768 55.9776 69.0768 58.9275C69.0768 61.8774 66.6574 64.2724 63.6776 64.2724C63.5566 64.2724 63.4583 64.3697 63.4583 64.4895C63.4583 64.6093 63.5566 64.7066 63.6776 64.7066C66.8995 64.7066 69.5154 62.1171 69.5154 58.9275C69.5154 55.7379 66.8995 53.1484 63.6776 53.1484C63.5566 53.1484 63.4583 53.2457 63.4583 53.3655C63.4583 53.4854 63.5566 53.5826 63.6776 53.5826Z" fill="#FD9909"/>
<path fill-rule="evenodd" clip-rule="evenodd" d="M63.68 64.2724C60.6999 64.2724 58.2805 61.8774 58.2805 58.9275C58.2805 55.9776 60.6999 53.5826 63.68 53.5826C63.801 53.5826 63.8993 53.4854 63.8993 53.3655C63.8993 53.2457 63.801 53.1484 63.68 53.1484C60.4578 53.1484 57.8422 55.7379 57.8422 58.9275C57.8422 62.1171 60.4578 64.7066 63.68 64.7066C63.801 64.7066 63.8993 64.6093 63.8993 64.4895C63.8993 64.3697 63.801 64.2724 63.68 64.2724Z" fill="#FD9909"/>
<path fill-rule="evenodd" clip-rule="evenodd" d="M64.5101 65.7313L64.3684 64.6024C64.3535 64.4835 64.439 64.375 64.5592 64.3601C64.6794 64.3454 64.7886 64.4299 64.8039 64.5488L64.9439 65.6658C64.8009 65.6921 64.6561 65.714 64.5101 65.7313ZM65.8044 65.4502L65.4123 64.3047C65.3737 64.1912 65.4351 64.0678 65.55 64.0294C65.6645 63.9909 65.789 64.0518 65.8276 64.1653L66.2176 65.3035C66.082 65.3566 65.9443 65.4055 65.8044 65.4502ZM59.8609 64.6448L60.4706 63.6524C60.5333 63.55 60.6684 63.5175 60.7719 63.5797C60.8754 63.642 60.9083 63.7756 60.8456 63.878L60.2341 64.8731C60.107 64.8008 59.9824 64.7246 59.8609 64.6448ZM69.372 62.8216L68.3645 62.0836C68.2676 62.0123 68.247 61.8763 68.3189 61.7799C68.3908 61.6836 68.5281 61.6633 68.6255 61.7346L69.6106 62.4563C69.5351 62.5807 69.4553 62.7026 69.372 62.8216ZM57.0981 61.064L58.2819 60.5366C58.392 60.4874 58.5223 60.5362 58.5718 60.6454C58.6214 60.7547 58.5723 60.8833 58.4618 60.9325L57.2486 61.4731C57.1942 61.3388 57.1438 61.2025 57.0981 61.064ZM70.3935 57.2661C70.4286 57.406 70.4597 57.5475 70.486 57.6906L69.3189 57.9631C69.2014 57.9906 69.0829 57.9182 69.0553 57.8016C69.0272 57.685 69.1005 57.568 69.218 57.5405L70.3935 57.2661ZM57.9569 55.0694L58.9999 55.7448C59.1012 55.8104 59.1297 55.945 59.0635 56.0453C58.9973 56.1456 58.8613 56.1738 58.76 56.1081L57.7214 55.4355C57.796 55.3108 57.8749 55.1888 57.9569 55.0694ZM58.6376 54.2318L59.4859 54.8493C59.5833 54.9203 59.6043 55.0563 59.5324 55.1528C59.4609 55.2493 59.3232 55.27 59.2258 55.199L58.3464 54.5584C58.4398 54.4465 58.5372 54.3376 58.6376 54.2318ZM67.6777 53.3371C67.797 53.421 67.9136 53.5085 68.0272 53.5997L67.2689 54.5461C67.1934 54.64 67.0553 54.6557 66.9605 54.5813C66.8658 54.5068 66.85 54.3701 66.925 54.2763L67.6777 53.3371ZM66.5031 52.672C66.6369 52.7314 66.7684 52.795 66.8974 52.8622L66.3627 53.855C66.3057 53.9607 66.1728 54.0008 66.0658 53.9444C65.9592 53.888 65.9189 53.7564 65.9759 53.6507L66.5031 52.672ZM62.1245 52.249L62.4333 53.3388C62.4658 53.4542 62.3978 53.5741 62.2811 53.6065C62.1644 53.6389 62.0434 53.5715 62.0109 53.4561L61.7004 52.3596C61.8399 52.3185 61.9811 52.2815 62.1245 52.249Z" fill="#FD9909"/>
<path d="M30.2981 13.7049C34.121 13.7049 37.2202 10.6369 37.2202 6.85243C37.2202 3.06794 34.121 0 30.2981 0C26.4751 0 23.376 3.06794 23.376 6.85243C23.376 10.6369 26.4751 13.7049 30.2981 13.7049Z" fill="#FFCF84"/>
<path fill-rule="evenodd" clip-rule="evenodd" d="M30.2932 1.50743C33.2729 1.50743 35.6923 3.90239 35.6923 6.85232C35.6923 9.80225 33.2729 12.1972 30.2932 12.1972C30.1721 12.1972 30.0739 12.2945 30.0739 12.4143C30.0739 12.5341 30.1721 12.6314 30.2932 12.6314C33.515 12.6314 36.1309 10.0419 36.1309 6.85232C36.1309 3.66275 33.515 1.07324 30.2932 1.07324C30.1721 1.07324 30.0739 1.17051 30.0739 1.29034C30.0739 1.41016 30.1721 1.50743 30.2932 1.50743Z" fill="#FD9909"/>
<path fill-rule="evenodd" clip-rule="evenodd" d="M30.2952 12.1972C27.315 12.1972 24.8956 9.80225 24.8956 6.85232C24.8956 3.90239 27.315 1.50743 30.2952 1.50743C30.4162 1.50743 30.5145 1.41016 30.5145 1.29034C30.5145 1.17051 30.4162 1.07324 30.2952 1.07324C27.073 1.07324 24.4574 3.66275 24.4574 6.85232C24.4574 10.0419 27.073 12.6314 30.2952 12.6314C30.4162 12.6314 30.5145 12.5341 30.5145 12.4143C30.5145 12.2945 30.4162 12.1972 30.2952 12.1972Z" fill="#FD9909"/>
<path fill-rule="evenodd" clip-rule="evenodd" d="M31.126 13.6561L30.9844 12.5272C30.9695 12.4083 31.055 12.2998 31.1752 12.285C31.2953 12.2702 31.4046 12.3547 31.4199 12.4737L31.5598 13.5906C31.4168 13.6169 31.2721 13.6388 31.126 13.6561ZM32.4204 13.375L32.0282 12.2295C31.9896 12.116 32.0511 11.9926 32.166 11.9542C32.2804 11.9157 32.405 11.9766 32.4436 12.0901L32.8335 13.2283C32.698 13.2814 32.5603 13.3303 32.4204 13.375ZM26.4769 12.5697L27.0865 11.5772C27.1492 11.4748 27.2843 11.4423 27.3878 11.5045C27.4914 11.5668 27.5242 11.7004 27.4615 11.8028L26.8501 12.7979C26.7229 12.7256 26.5984 12.6494 26.4769 12.5697ZM35.9879 10.7464L34.9805 10.0084C34.8835 9.93711 34.8629 9.80108 34.9349 9.70473C35.0068 9.60843 35.1441 9.58811 35.2414 9.65936L36.2265 10.3811C36.1511 10.5055 36.0713 10.6274 35.9879 10.7464ZM23.7141 8.9888L24.8979 8.46139C25.008 8.4122 25.1383 8.461 25.1878 8.57024C25.2374 8.67953 25.1883 8.80813 25.0777 8.85733L23.8646 9.39794C23.8102 9.26364 23.7597 9.12726 23.7141 8.9888ZM37.0095 5.1909C37.0445 5.33079 37.0757 5.47234 37.102 5.6154L35.9349 5.88786C35.8173 5.91538 35.6989 5.84301 35.6713 5.72643C35.6432 5.6098 35.7165 5.49279 35.834 5.46526L37.0095 5.1909ZM24.5729 2.99424L25.6159 3.66958C25.7172 3.73519 25.7457 3.86983 25.6795 3.97013C25.6133 4.07038 25.4773 4.09856 25.376 4.03295L24.3374 3.36035C24.4119 3.23565 24.4909 3.11356 24.5729 2.99424ZM25.2536 2.1566L26.1019 2.77411C26.1992 2.8451 26.2203 2.98113 26.1484 3.07761C26.0769 3.17413 25.9391 3.19484 25.8418 3.12385L24.9624 2.48324C25.0558 2.37135 25.1532 2.26241 25.2536 2.1566ZM34.2936 1.26195C34.4129 1.34584 34.5296 1.43333 34.6432 1.52446L33.8849 2.47095C33.8094 2.56483 33.6713 2.58054 33.5765 2.50608C33.4818 2.43162 33.466 2.29493 33.541 2.20106L34.2936 1.26195ZM33.1191 0.596773C33.2528 0.656213 33.3844 0.719779 33.5134 0.787035L32.9787 1.77981C32.9217 1.88554 32.7888 1.92557 32.6818 1.86921C32.5752 1.81281 32.5348 1.68121 32.5919 1.57548L33.1191 0.596773ZM28.7405 0.173828L29.0493 1.26364C29.0817 1.37901 29.0137 1.49893 28.8971 1.53128C28.7804 1.56367 28.6593 1.49628 28.6269 1.38088L28.3164 0.284416C28.4558 0.243255 28.5971 0.206349 28.7405 0.173828Z" fill="#FD9909"/>
<path d="M6.92206 38.9099C10.745 38.9099 13.8441 35.842 13.8441 32.0575C13.8441 28.273 10.745 25.2051 6.92206 25.2051C3.09911 25.2051 0 28.273 0 32.0575C0 35.842 3.09911 38.9099 6.92206 38.9099Z" fill="#FFCF84"/>
<path fill-rule="evenodd" clip-rule="evenodd" d="M6.92774 26.7125C9.9075 26.7125 12.3269 29.1075 12.3269 32.0574C12.3269 35.0073 9.9075 37.4023 6.92774 37.4023C6.80669 37.4023 6.70844 37.4996 6.70844 37.6194C6.70844 37.7392 6.80669 37.8365 6.92774 37.8365C10.1496 37.8365 12.7655 35.247 12.7655 32.0574C12.7655 28.8678 10.1496 26.2783 6.92774 26.2783C6.80669 26.2783 6.70844 26.3756 6.70844 26.4954C6.70844 26.6152 6.80669 26.7125 6.92774 26.7125Z" fill="#FD9909"/>
<path fill-rule="evenodd" clip-rule="evenodd" d="M6.9195 37.4023C3.93938 37.4023 1.51997 35.0073 1.51997 32.0574C1.51997 29.1075 3.93938 26.7125 6.9195 26.7125C7.04054 26.7125 7.1388 26.6152 7.1388 26.4954C7.1388 26.3756 7.04054 26.2783 6.9195 26.2783C3.69729 26.2783 1.08173 28.8678 1.08173 32.0574C1.08173 35.247 3.69729 37.8365 6.9195 37.8365C7.04054 37.8365 7.1388 37.7392 7.1388 37.6194C7.1388 37.4996 7.04054 37.4023 6.9195 37.4023Z" fill="#FD9909"/>
<path fill-rule="evenodd" clip-rule="evenodd" d="M7.75642 38.8612L7.61475 37.7323C7.59984 37.6133 7.68536 37.5048 7.80554 37.49C7.92572 37.4753 8.03493 37.5598 8.05028 37.6787L8.19019 38.7957C8.04721 38.822 7.90247 38.8438 7.75642 38.8612ZM9.05073 38.5801L8.65862 37.4345C8.62002 37.321 8.68143 37.1977 8.79634 37.1593C8.91081 37.1208 9.03538 37.1817 9.07398 37.2952L9.46389 38.4334C9.32837 38.4865 9.19064 38.5354 9.05073 38.5801ZM3.10724 37.7747L3.71689 36.7823C3.77961 36.6799 3.9147 36.6474 4.01821 36.7096C4.12172 36.7719 4.15461 36.9055 4.09189 37.0079L3.48049 38.003C3.35329 37.9307 3.22873 37.8545 3.10724 37.7747ZM12.6183 35.9515L11.6108 35.2135C11.5139 35.1422 11.4933 35.0062 11.5652 34.9098C11.6372 34.8135 11.7744 34.7932 11.8718 34.8644L12.8569 35.5862C12.7815 35.7106 12.7017 35.8325 12.6183 35.9515ZM0.344482 34.1939L1.52827 33.6665C1.63836 33.6173 1.76862 33.6661 1.81818 33.7753C1.86775 33.8846 1.81862 34.0132 1.70809 34.0624L0.494925 34.603C0.440539 34.4687 0.390097 34.3323 0.344482 34.1939ZM13.6398 30.396C13.6749 30.5359 13.706 30.6774 13.7324 30.8205L12.5652 31.0929C12.4477 31.1205 12.3293 31.0481 12.3016 30.9315C12.2736 30.8149 12.3468 30.6979 12.4644 30.6703L13.6398 30.396ZM1.20326 28.1993L2.24626 28.8747C2.34758 28.9403 2.37608 29.0749 2.30985 29.1752C2.24363 29.2755 2.10766 29.3036 2.00635 29.238L0.967734 28.5654C1.0423 28.4407 1.12124 28.3186 1.20326 28.1993ZM1.88397 27.3617L2.73223 27.9792C2.8296 28.0502 2.85065 28.1862 2.77872 28.2827C2.70723 28.3792 2.56951 28.3999 2.47214 28.3289L1.59274 27.6883C1.68616 27.5764 1.78353 27.4675 1.88397 27.3617ZM10.924 26.467C11.0433 26.5509 11.16 26.6384 11.2736 26.7295L10.5152 27.676C10.4398 27.7699 10.3016 27.7856 10.2069 27.7112C10.1121 27.6367 10.0964 27.5 10.1714 27.4061L10.924 26.467ZM9.74942 25.8019C9.8832 25.8613 10.0148 25.9249 10.1437 25.9921L9.60907 26.9849C9.55205 27.0906 9.41915 27.1306 9.31213 27.0743C9.20555 27.0179 9.16521 26.8863 9.22223 26.7806L9.74942 25.8019ZM5.37086 25.3789L5.67964 26.4687C5.71209 26.5841 5.64411 26.704 5.52744 26.7364C5.41077 26.7687 5.28972 26.7014 5.25726 26.586L4.94673 25.4895C5.08621 25.4483 5.22744 25.4114 5.37086 25.3789Z" fill="#FD9909"/>
<path d="M101.497 29.6433C105.32 29.6433 108.419 26.5754 108.419 22.7909C108.419 19.0064 105.32 15.9385 101.497 15.9385C97.6741 15.9385 94.575 19.0064 94.575 22.7909C94.575 26.5754 97.6741 29.6433 101.497 29.6433Z" fill="#FFCF84"/>
<path fill-rule="evenodd" clip-rule="evenodd" d="M101.496 17.4459C104.475 17.4459 106.895 19.8409 106.895 22.7908C106.895 25.7407 104.475 28.1357 101.496 28.1357C101.375 28.1357 101.276 28.233 101.276 28.3528C101.276 28.4726 101.375 28.5699 101.496 28.5699C104.718 28.5699 107.333 25.9804 107.333 22.7908C107.333 19.6012 104.718 17.0117 101.496 17.0117C101.375 17.0117 101.276 17.109 101.276 17.2288C101.276 17.3486 101.375 17.4459 101.496 17.4459Z" fill="#FD9909"/>
<path fill-rule="evenodd" clip-rule="evenodd" d="M101.501 28.1357C98.5211 28.1357 96.1017 25.7407 96.1017 22.7908C96.1017 19.8409 98.5211 17.4459 101.501 17.4459C101.622 17.4459 101.721 17.3486 101.721 17.2288C101.721 17.109 101.622 17.0117 101.501 17.0117C98.279 17.0117 95.6635 19.6012 95.6635 22.7908C95.6635 25.9804 98.279 28.5699 101.501 28.5699C101.622 28.5699 101.721 28.4726 101.721 28.3528C101.721 28.233 101.622 28.1357 101.501 28.1357Z" fill="#FD9909"/>
<path fill-rule="evenodd" clip-rule="evenodd" d="M102.333 29.5946L102.191 28.4657C102.176 28.3467 102.261 28.2382 102.382 28.2234C102.502 28.2087 102.611 28.2932 102.626 28.4121L102.766 29.5291C102.623 29.5554 102.479 29.5772 102.333 29.5946ZM103.627 29.3135L103.235 28.1679C103.196 28.0544 103.258 27.9311 103.372 27.8927C103.487 27.8542 103.611 27.9151 103.65 28.0286L104.04 29.1668C103.904 29.2199 103.767 29.2688 103.627 29.3135ZM97.6833 28.5081L98.293 27.5157C98.3557 27.4133 98.4908 27.3808 98.5943 27.443C98.6978 27.5053 98.7307 27.6389 98.668 27.7413L98.0566 28.7364C97.9294 28.6641 97.8048 28.5879 97.6833 28.5081ZM107.194 26.6849L106.187 25.9469C106.09 25.8756 106.069 25.7396 106.141 25.6432C106.213 25.5469 106.351 25.5266 106.448 25.5978L107.433 26.3195C107.358 26.444 107.278 26.5659 107.194 26.6849ZM94.9206 24.9273L96.1044 24.3999C96.2145 24.3507 96.3447 24.3995 96.3943 24.5087C96.4439 24.618 96.3947 24.7466 96.2842 24.7958L95.071 25.3364C95.0166 25.2021 94.9662 25.0657 94.9206 24.9273ZM108.216 21.1294C108.251 21.2693 108.282 21.4108 108.308 21.5539L107.141 21.8263C107.024 21.8539 106.905 21.7815 106.878 21.6649C106.85 21.5483 106.923 21.4313 107.04 21.4037L108.216 21.1294ZM95.7794 18.9327L96.8224 19.6081C96.9237 19.6737 96.9522 19.8083 96.886 19.9086C96.8197 20.0089 96.6838 20.037 96.5825 19.9714L95.5438 19.2988C95.6184 19.1741 95.6974 19.052 95.7794 18.9327ZM96.4601 18.0951L97.3083 18.7126C97.4057 18.7836 97.4268 18.9196 97.3548 19.0161C97.2833 19.1126 97.1456 19.1333 97.0483 19.0623L96.1689 18.4217C96.2623 18.3098 96.3596 18.2009 96.4601 18.0951ZM105.5 17.2004C105.619 17.2843 105.736 17.3718 105.85 17.4629L105.091 18.4094C105.016 18.5033 104.878 18.519 104.783 18.4446C104.688 18.3701 104.672 18.2334 104.747 18.1395L105.5 17.2004ZM104.326 16.5352C104.459 16.5947 104.591 16.6583 104.72 16.7255L104.185 17.7183C104.128 17.824 103.995 17.864 103.888 17.8077C103.782 17.7513 103.741 17.6197 103.798 17.514L104.326 16.5352ZM99.947 16.1123L100.256 17.2021C100.288 17.3175 100.22 17.4374 100.104 17.4698C99.9869 17.5021 99.8658 17.4348 99.8334 17.3194L99.5228 16.2229C99.6623 16.1817 99.8035 16.1448 99.947 16.1123Z" fill="#FD9909"/>
<path fill-rule="evenodd" clip-rule="evenodd" d="M76.8074 14.4438V13.363C76.8074 13.1842 76.9525 13.0391 77.1313 13.0391C77.3101 13.0391 77.4553 13.1842 77.4553 13.363V14.4438H78.5359C78.7147 14.4438 78.8598 14.589 78.8598 14.7678C78.8598 14.9465 78.7147 15.0917 78.5359 15.0917H77.4553V16.1725C77.4553 16.3513 77.3101 16.4965 77.1313 16.4965C76.9525 16.4965 76.8074 16.3513 76.8074 16.1725V15.0917H75.7261C75.5473 15.0917 75.4022 14.9465 75.4022 14.7678C75.4022 14.589 75.5473 14.4438 75.7261 14.4438H76.8074Z" fill="#FD9500"/>
<path fill-rule="evenodd" clip-rule="evenodd" d="M23.9671 26.7046V25.6237C23.9671 25.4449 24.1122 25.2998 24.291 25.2998C24.4699 25.2998 24.615 25.4449 24.615 25.6237V26.7046H25.6956C25.8744 26.7046 26.0196 26.8497 26.0196 27.0285C26.0196 27.2073 25.8744 27.3524 25.6956 27.3524H24.615V28.4333C24.615 28.612 24.4699 28.7572 24.291 28.7572C24.1122 28.7572 23.9671 28.612 23.9671 28.4333V27.3524H22.8858C22.707 27.3524 22.5619 27.2073 22.5619 27.0285C22.5619 26.8497 22.707 26.7046 22.8858 26.7046H23.9671Z" fill="#FD9500"/>
<path fill-rule="evenodd" clip-rule="evenodd" d="M97.9644 37.7866V36.7058C97.9644 36.527 98.1095 36.3818 98.2883 36.3818C98.4671 36.3818 98.6122 36.527 98.6122 36.7058V37.7866H99.6929C99.8717 37.7866 100.017 37.9317 100.017 38.1105C100.017 38.2893 99.8717 38.4345 99.6929 38.4345H98.6122V39.5153C98.6122 39.6941 98.4671 39.8392 98.2883 39.8392C98.1095 39.8392 97.9644 39.6941 97.9644 39.5153V38.4345H96.8831C96.7043 38.4345 96.5591 38.2893 96.5591 38.1105C96.5591 37.9317 96.7043 37.7866 96.8831 37.7866H97.9644Z" fill="#FD9500"/>
</svg>
