<svg width="31" height="38" viewBox="0 0 31 38" fill="none" xmlns="http://www.w3.org/2000/svg">
<g clip-path="url(#clip0_174_32473)">
<path d="M12.8526 23.0972C14.4077 25.3091 17.7042 25.2536 19.1839 22.9906L23.4323 16.4931C24.3559 15.0806 24.3753 13.2557 23.4961 11.8198C21.7407 8.9531 17.5042 9.05543 15.9366 12.0478C15.8933 12.1305 15.7757 12.1325 15.7297 12.0513C14.0622 9.11339 9.82467 9.15372 8.16677 12.078C7.33639 13.5426 7.41725 15.3658 8.38781 16.7464L12.8526 23.0972Z" fill="#D94823"/>
<path d="M17.6301 7.40301C17.6359 7.74814 17.9204 8.02321 18.2656 8.0174C18.6107 8.01159 18.8858 7.72709 18.88 7.38196L18.8519 5.71553C18.8461 5.3704 18.5616 5.09533 18.2165 5.10114C17.8713 5.10696 17.5963 5.39145 17.6021 5.73658L17.6301 7.40301Z" fill="#D94823"/>
<path d="M15.794 9.72592C15.4489 9.73173 15.1644 9.45666 15.1586 9.11153L15.1305 7.4451C15.1247 7.09997 15.3998 6.81548 15.7449 6.80966C16.09 6.80385 16.3745 7.07892 16.3803 7.42405L16.4084 9.09048C16.4142 9.43561 16.1391 9.72011 15.794 9.72592Z" fill="#D94823"/>
<path d="M12.6308 7.48719C12.6367 7.83232 12.9212 8.10739 13.2663 8.10158C13.6114 8.09576 13.8865 7.81127 13.8807 7.46614L13.8526 5.79971C13.8468 5.45458 13.5623 5.17951 13.2172 5.18532C12.872 5.19113 12.597 5.47563 12.6028 5.82076L12.6308 7.48719Z" fill="#D94823"/>
</g>
<rect opacity="0.8" x="31" y="38" width="31" height="20" rx="1.75549" transform="rotate(-180 31 38)" fill="#FD9909"/>
<defs>
<clipPath id="clip0_174_32473">
<rect width="20" height="20" fill="white" transform="translate(30.2793 13.9019) rotate(134.035)"/>
</clipPath>
</defs>
</svg>
