<svg width="317" height="98" viewBox="0 0 317 98" fill="none" xmlns="http://www.w3.org/2000/svg">
<g clip-path="url(#clip0_174_43264)">
<path d="M0 10C0 4.47715 4.47715 0 10 0H307C312.523 0 317 4.47715 317 10V98H0V10Z" fill="url(#paint0_linear_174_43264)"/>
<path d="M125.038 89.5512C135.272 84.4343 137.842 76.7469 137.842 63.9426V53.7088H163.451V38.3341H137.842V17.8424C137.842 2.82799 145.554 -5.19571 158.334 -5.19571C164.532 -5.19571 168.135 -0.727423 173.709 2.49167V-15.4295C167.727 -17.7357 165.589 -18 158.334 -18C147.572 -18 137.074 -14.7329 130.299 -8.19859C123.549 -1.68834 122.492 7.68065 122.492 17.8664V38.3581H102V53.7328H122.492V69.1076C122.492 79.3414 112.258 89.5993 102 89.5993L102.072 105.046H183.919L183.943 89.5993H125.038V89.5512Z" fill="#EAEAEA"/>
<circle cx="163" cy="41" r="19.8052" fill="#F69E1E" stroke="#E0E0E0" stroke-width="0.38961"/>
<path d="M156.52 47.8683L157.273 49.6834C158.436 49.2964 160.331 48.7498 160.9 48.7498C161.725 48.7498 162.34 48.9546 163.051 49.191C163.814 49.4461 164.68 49.7346 165.824 49.7346C166.983 49.7346 168.855 48.8276 169.219 48.6464L168.337 46.8845C167.627 47.239 166.337 47.7649 165.824 47.7649C164.999 47.7649 164.384 47.5601 163.673 47.3237C162.91 47.0686 162.044 46.7801 160.9 46.7801C160.674 46.7801 160.382 46.8165 160.056 46.8776C160.606 45.746 160.9 44.378 160.9 42.8407H163.854V40.871H160.531C160.49 40.7656 160.449 40.6582 160.408 40.5588C160.154 39.9373 159.915 39.3494 159.915 37.9164C159.915 36.5682 160.428 34.9619 162.87 34.9619C165.06 34.9619 165.845 37.1551 165.875 37.2428L167.743 36.6194C167.693 36.4717 166.493 32.9922 162.87 32.9922C159.238 32.9922 157.945 35.5361 157.945 37.9164C157.945 39.3848 158.176 40.2308 158.416 40.871H155.976V42.8407H158.93C158.93 45.2703 158.052 47.1031 156.52 47.8683Z" fill="#784803"/>
<circle cx="305.5" cy="58.5" r="18.3198" fill="#F69E1E" stroke="#E0E0E0" stroke-width="0.36039"/>
<path d="M299.507 64.8522L300.203 66.5312C301.279 66.1732 303.031 65.6676 303.558 65.6676C304.321 65.6676 304.89 65.857 305.547 66.0757C306.253 66.3116 307.054 66.5785 308.113 66.5785C309.185 66.5785 310.917 65.7395 311.253 65.5719L310.438 63.9422C309.781 64.2701 308.587 64.7566 308.113 64.7566C307.349 64.7566 306.781 64.5671 306.123 64.3484C305.417 64.1125 304.616 63.8456 303.558 63.8456C303.349 63.8456 303.079 63.8793 302.777 63.9358C303.286 62.8891 303.558 61.6237 303.558 60.2016H306.291V58.3797H303.217C303.179 58.2822 303.141 58.1829 303.103 58.0909C302.868 57.5161 302.647 56.9722 302.647 55.6467C302.647 54.3996 303.121 52.9138 305.38 52.9138C307.406 52.9138 308.132 54.9425 308.16 55.0236L309.887 54.447C309.842 54.3103 308.731 51.0918 305.38 51.0918C302.021 51.0918 300.825 53.4449 300.825 55.6467C300.825 57.005 301.038 57.7875 301.26 58.3797H299.003V60.2016H301.736C301.736 62.449 300.923 64.1444 299.507 64.8522Z" fill="#784803"/>
<circle cx="250" cy="15" r="28.7175" fill="#5AB1F6" stroke="#E0E0E0" stroke-width="0.564935"/>
<path d="M254.239 24.1803C250.708 24.1803 247.63 22.1748 246.104 19.2371H254.239L255.652 16.4124H245.172C245.101 15.9464 245.059 15.4803 245.059 15.0001C245.059 14.5199 245.101 14.0538 245.172 13.5878H254.239L255.652 10.7631H246.104C246.878 9.27323 248.045 8.02435 249.48 7.15266C250.914 6.28098 252.561 5.81996 254.239 5.81991C256.513 5.81991 258.603 6.65319 260.213 8.03728L262.713 5.53744C260.387 3.44419 257.368 2.28691 254.239 2.28907C248.703 2.28907 244.014 5.81991 242.234 10.7631H237.291L235.879 13.5878H241.613C241.528 14.0538 241.528 14.5199 241.528 15.0001C241.528 15.4803 241.528 15.9464 241.613 16.4124H237.291L235.879 19.2371H242.234C244.014 24.1803 248.703 27.7111 254.239 27.7111C257.502 27.7111 260.468 26.4824 262.713 24.4628L260.199 21.9629C258.603 23.347 256.527 24.1803 254.239 24.1803Z" fill="#006CC2"/>
<circle cx="98" cy="82" r="15.8442" fill="#5AB1F6" stroke="#E0E0E0" stroke-width="0.311688"/>
<path d="M100.337 87.0642C98.3888 87.0642 96.6901 85.9578 95.8486 84.337H100.337L101.116 82.7785H95.3343C95.2953 82.5214 95.272 82.2643 95.272 81.9993C95.272 81.7344 95.2953 81.4772 95.3343 81.2201H100.337L101.116 79.6617H95.8486C96.2753 78.8397 96.9195 78.1506 97.711 77.6697C98.5024 77.1888 99.4108 76.9344 100.337 76.9344C101.591 76.9344 102.745 77.3941 103.633 78.1578L105.012 76.7785C103.729 75.6236 102.063 74.9851 100.337 74.9863C97.2824 74.9863 94.6953 76.9344 93.7135 79.6617H90.9863L90.207 81.2201H93.3707C93.3239 81.4772 93.3239 81.7344 93.3239 81.9993C93.3239 82.2643 93.3239 82.5214 93.3707 82.7785H90.9863L90.207 84.337H93.7135C94.6953 87.0642 97.2824 89.0123 100.337 89.0123C102.137 89.0123 103.773 88.3344 105.012 87.2201L103.625 85.8409C102.745 86.6045 101.599 87.0642 100.337 87.0642Z" fill="#006CC2"/>
<circle cx="22" cy="28" r="15.8442" fill="#5AB1F6" stroke="#E0E0E0" stroke-width="0.311688"/>
<path d="M24.3369 33.0642C22.3888 33.0642 20.6901 31.9578 19.8486 30.337H24.3369L25.1161 28.7785H19.3343C19.2953 28.5214 19.272 28.2643 19.272 27.9993C19.272 27.7344 19.2953 27.4772 19.3343 27.2201H24.3369L25.1161 25.6617H19.8486C20.2753 24.8397 20.9195 24.1506 21.711 23.6697C22.5024 23.1888 23.4108 22.9344 24.3369 22.9344C25.5914 22.9344 26.7447 23.3941 27.633 24.1578L29.0122 22.7785C27.729 21.6236 26.0633 20.9851 24.3369 20.9863C21.2824 20.9863 18.6953 22.9344 17.7135 25.6617H14.9863L14.207 27.2201H17.3707C17.3239 27.4772 17.3239 27.7344 17.3239 27.9993C17.3239 28.2643 17.3239 28.5214 17.3707 28.7785H14.9863L14.207 30.337H17.7135C18.6953 33.0642 21.2824 35.0123 24.3369 35.0123C26.1369 35.0123 27.7733 34.3344 29.0122 33.2201L27.6252 31.8409C26.7447 32.6045 25.5992 33.0642 24.3369 33.0642Z" fill="#006CC2"/>
<circle cx="230.5" cy="86.5" r="19.3101" fill="#5BC176" stroke="#E0E0E0" stroke-width="0.37987"/>
<g clip-path="url(#clip1_174_43264)">
<path d="M236.377 90.0162C236.377 91.278 235.967 92.3645 235.146 93.2758C234.325 94.187 233.26 94.7499 231.948 94.9643V97.1291C231.948 97.2446 231.911 97.3394 231.837 97.4136C231.763 97.4878 231.668 97.525 231.552 97.525H229.882C229.775 97.525 229.682 97.4858 229.604 97.4074C229.526 97.3291 229.487 97.2363 229.487 97.1291V94.9643C228.942 94.8901 228.417 94.7623 227.909 94.5808C227.402 94.3994 226.984 94.2159 226.654 94.0304C226.324 93.8448 226.019 93.6469 225.738 93.4366C225.458 93.2263 225.266 93.0717 225.163 92.9727C225.06 92.8737 224.988 92.7995 224.947 92.75C224.806 92.5768 224.798 92.4078 224.922 92.2428L226.196 90.5729C226.254 90.4904 226.349 90.4409 226.481 90.4244C226.604 90.4079 226.703 90.445 226.777 90.5357L226.802 90.5605C227.734 91.3769 228.736 91.8924 229.808 92.1068C230.113 92.1727 230.418 92.2057 230.724 92.2057C231.392 92.2057 231.979 92.0284 232.486 91.6738C232.994 91.3192 233.247 90.8161 233.247 90.1646C233.247 89.9337 233.185 89.7152 233.062 89.509C232.938 89.3028 232.8 89.1297 232.647 88.9895C232.495 88.8493 232.253 88.6946 231.924 88.5256C231.594 88.3565 231.321 88.2246 231.107 88.1297C230.893 88.0349 230.563 87.9009 230.117 87.7277C229.796 87.5957 229.542 87.4927 229.357 87.4184C229.171 87.3442 228.918 87.2349 228.596 87.0906C228.274 86.9463 228.017 86.8185 227.823 86.7071C227.629 86.5958 227.396 86.4494 227.124 86.268C226.852 86.0866 226.631 85.9113 226.462 85.7423C226.293 85.5732 226.114 85.3712 225.924 85.1361C225.734 84.9011 225.588 84.6619 225.485 84.4186C225.382 84.1754 225.295 83.9012 225.225 83.596C225.155 83.2909 225.12 82.9693 225.12 82.6311C225.12 81.4931 225.524 80.4952 226.332 79.6375C227.14 78.7799 228.192 78.2273 229.487 77.9799V75.7533C229.487 75.6461 229.526 75.5533 229.604 75.4749C229.682 75.3966 229.775 75.3574 229.882 75.3574H231.552C231.668 75.3574 231.763 75.3945 231.837 75.4688C231.911 75.543 231.948 75.6378 231.948 75.7533V77.9304C232.418 77.9799 232.874 78.0748 233.315 78.215C233.756 78.3552 234.115 78.4933 234.391 78.6294C234.668 78.7654 234.929 78.9201 235.177 79.0932C235.424 79.2664 235.585 79.386 235.659 79.452C235.734 79.518 235.795 79.5757 235.845 79.6252C235.985 79.7736 236.006 79.9303 235.907 80.0952L234.905 81.9013C234.839 82.025 234.744 82.091 234.62 82.0992C234.505 82.124 234.393 82.0951 234.286 82.0126C234.261 81.9879 234.202 81.9384 234.107 81.8642C234.012 81.79 233.851 81.6807 233.624 81.5364C233.398 81.3921 233.156 81.2601 232.901 81.1405C232.645 81.0209 232.338 80.9137 231.979 80.8189C231.62 80.7241 231.268 80.6766 230.922 80.6766C230.138 80.6766 229.499 80.8539 229.004 81.2086C228.509 81.5632 228.262 82.0209 228.262 82.5817C228.262 82.7961 228.297 82.994 228.367 83.1754C228.437 83.3569 228.559 83.528 228.732 83.6888C228.905 83.8496 229.068 83.9857 229.221 84.097C229.373 84.2084 229.604 84.3362 229.913 84.4805C230.223 84.6248 230.472 84.7362 230.662 84.8145C230.851 84.8928 231.14 85.0062 231.528 85.1547C231.965 85.3196 232.299 85.4495 232.53 85.5443C232.761 85.6392 233.074 85.7835 233.47 85.9773C233.866 86.1711 234.177 86.3463 234.404 86.503C234.631 86.6597 234.886 86.8659 235.171 87.1216C235.455 87.3772 235.674 87.639 235.826 87.9071C235.979 88.1751 236.109 88.4905 236.216 88.8534C236.323 89.2163 236.377 89.6039 236.377 90.0162Z" fill="#088028"/>
</g>
<circle cx="97" cy="7" r="16.8344" fill="#5BC176" stroke="#E0E0E0" stroke-width="0.331169"/>
<g clip-path="url(#clip2_174_43264)">
<path d="M102.125 10.0646C102.125 11.1646 101.767 12.1118 101.052 12.9063C100.336 13.7007 99.407 14.1914 98.2638 14.3783V16.2656C98.2638 16.3663 98.2315 16.4489 98.1668 16.5136C98.1021 16.5783 98.0194 16.6107 97.9187 16.6107H96.4628C96.3694 16.6107 96.2885 16.5765 96.2202 16.5082C96.1519 16.4399 96.1177 16.3591 96.1177 16.2656V14.3783C95.6432 14.3136 95.1849 14.2022 94.7427 14.044C94.3006 13.8859 93.9357 13.7259 93.6481 13.5641C93.3606 13.4024 93.0945 13.2298 92.8501 13.0465C92.6056 12.8631 92.4385 12.7283 92.3486 12.6421C92.2588 12.5558 92.1958 12.4911 92.1599 12.4479C92.0377 12.297 92.0305 12.1496 92.1383 12.0058L93.2491 10.5499C93.2994 10.478 93.3821 10.4349 93.4972 10.4205C93.605 10.4061 93.6913 10.4385 93.756 10.5175L93.7775 10.5391C94.59 11.2509 95.4635 11.7002 96.3981 11.8872C96.6642 11.9447 96.9302 11.9734 97.1962 11.9734C97.7785 11.9734 98.2908 11.8189 98.733 11.5097C99.1751 11.2006 99.3962 10.762 99.3962 10.194C99.3962 9.99271 99.3423 9.80218 99.2344 9.62244C99.1266 9.4427 99.0062 9.29172 98.8731 9.1695C98.7401 9.04728 98.5298 8.91247 98.2423 8.76509C97.9547 8.6177 97.7174 8.50267 97.5305 8.41999C97.3436 8.33731 97.056 8.22048 96.6678 8.0695C96.3874 7.95446 96.1663 7.8646 96.0045 7.79989C95.8427 7.73518 95.6217 7.63992 95.3413 7.5141C95.0609 7.38829 94.8362 7.27685 94.6673 7.17979C94.4983 7.08273 94.2952 6.95512 94.0579 6.79695C93.8207 6.63878 93.6284 6.486 93.481 6.33861C93.3336 6.19123 93.1772 6.01508 93.0119 5.81018C92.8465 5.60528 92.7189 5.39678 92.629 5.18469C92.5391 4.97259 92.4637 4.73354 92.4025 4.46753C92.3414 4.20151 92.3109 3.92112 92.3109 3.62635C92.3109 2.63419 92.6632 1.76425 93.3677 1.01654C94.0723 0.268824 94.989 -0.212876 96.1177 -0.428563V-2.36974C96.1177 -2.46321 96.1519 -2.54409 96.2202 -2.61239C96.2885 -2.68069 96.3694 -2.71484 96.4628 -2.71484H97.9187C98.0194 -2.71484 98.1021 -2.68249 98.1668 -2.61778C98.2315 -2.55308 98.2638 -2.4704 98.2638 -2.36974V-0.471701C98.6736 -0.428563 99.0709 -0.345883 99.4555 -0.223661C99.8401 -0.101438 100.153 0.0189869 100.394 0.137615C100.635 0.256243 100.863 0.391047 101.079 0.542027C101.294 0.693008 101.434 0.797257 101.499 0.854774C101.564 0.91229 101.618 0.962617 101.661 1.00575C101.783 1.13517 101.801 1.27177 101.715 1.41556L100.841 2.99007C100.784 3.09792 100.701 3.15543 100.593 3.16262C100.493 3.18419 100.396 3.15903 100.302 3.08713C100.281 3.06556 100.228 3.02243 100.146 2.95772C100.063 2.89301 99.9228 2.79775 99.7251 2.67194C99.5274 2.54612 99.3171 2.43108 99.0942 2.32684C98.8714 2.22259 98.6035 2.12912 98.2908 2.04644C97.978 1.96376 97.6707 1.92242 97.3687 1.92242C96.6857 1.92242 96.1285 2.077 95.6972 2.38615C95.2658 2.6953 95.0501 3.09432 95.0501 3.58321C95.0501 3.77014 95.0807 3.94269 95.1418 4.10086C95.2029 4.25903 95.3089 4.40821 95.4599 4.54841C95.6109 4.68861 95.7529 4.80723 95.8859 4.90429C96.0189 5.00135 96.2202 5.11279 96.4898 5.23861C96.7594 5.36443 96.9769 5.46148 97.1423 5.52979C97.3076 5.59809 97.5593 5.69694 97.8972 5.82635C98.2782 5.97015 98.5694 6.08338 98.7707 6.16606C98.972 6.24874 99.2452 6.37456 99.5903 6.54351C99.9354 6.71247 100.207 6.86525 100.405 7.00185C100.602 7.13845 100.825 7.31819 101.073 7.54107C101.321 7.76394 101.512 7.99221 101.645 8.22587C101.778 8.45953 101.891 8.73453 101.984 9.05087C102.078 9.36721 102.125 9.70512 102.125 10.0646Z" fill="#088028"/>
</g>
</g>
<defs>
<linearGradient id="paint0_linear_174_43264" x1="167.5" y1="-3.4004e-07" x2="170" y2="98" gradientUnits="userSpaceOnUse">
<stop stop-color="#F8F8F8"/>
<stop offset="1" stop-color="white"/>
</linearGradient>
<clipPath id="clip0_174_43264">
<path d="M0 10C0 4.47715 4.47715 0 10 0H307C312.523 0 317 4.47715 317 10V98H0V10Z" fill="white"/>
</clipPath>
<clipPath id="clip1_174_43264">
<rect width="11.8755" height="22.1675" fill="white" transform="translate(224.675 75.3574)"/>
</clipPath>
<clipPath id="clip2_174_43264">
<rect width="10.353" height="19.3255" fill="white" transform="translate(91.9219 -2.71484)"/>
</clipPath>
</defs>
</svg>
