<svg width="114" height="87" viewBox="0 0 114 87" fill="none" xmlns="http://www.w3.org/2000/svg">
<path fill-rule="evenodd" clip-rule="evenodd" d="M34.2322 33.4235C34.2322 33.4235 22.2236 32.0747 17.5735 40.7537C16.0087 43.6739 4.41043 70.7546 3.18093 81.4272C3.18093 81.4272 0.38792 82.3104 0 83.7441H16.4532C16.6276 83.7441 16.7849 83.6393 16.8521 83.4784C18.0526 80.6062 28.5878 55.3994 28.5878 55.3994C28.5878 55.3994 29.9424 78.2486 30.219 82.917C30.2468 83.3816 30.6316 83.7441 31.0969 83.7441C34.2159 83.7441 45.0799 83.7441 45.0799 83.7441C45.0799 83.7441 44.6944 82.238 41.8729 81.4272C41.8729 81.4272 43.3986 45.8833 39.163 36.984L34.2322 33.4235Z" fill="url(#paint0_linear_96_14276)"/>
<path fill-rule="evenodd" clip-rule="evenodd" d="M26.2533 60.9793L27.7384 45.9954C27.7486 45.8912 27.8372 45.8128 27.942 45.8155C28.0461 45.8182 28.1307 45.9014 28.1354 46.0062L28.5588 55.4635L26.2533 60.9793Z" fill="#13524E"/>
<path fill-rule="evenodd" clip-rule="evenodd" d="M42.1387 67.7324C42.1387 67.9597 42.138 68.1849 42.1373 68.4087H29.3575L29.3176 67.7324H42.1387ZM6.78787 67.7324H23.4319L23.1493 68.4087H6.56091L6.5645 68.3979C6.63625 68.1828 6.70841 67.9685 6.78091 67.7534L6.78787 67.7324Z" fill="#82B5B2"/>
<path d="M25.0389 12.6113C27.4797 12.6113 29.4584 10.6327 29.4584 8.19189C29.4584 5.75111 27.4797 3.77246 25.0389 3.77246C22.5981 3.77246 20.6195 5.75111 20.6195 8.19189C20.6195 10.6327 22.5981 12.6113 25.0389 12.6113Z" fill="#A8CFCC"/>
<path fill-rule="evenodd" clip-rule="evenodd" d="M24.7121 3.78418C24.9353 4.68493 25.2579 6.95646 23.5788 8.96356C23.4008 8.67532 23.0787 8.48258 22.7112 8.48258C22.1512 8.48258 21.6966 8.93015 21.6966 9.48133C21.6966 10.0326 22.1512 10.4801 22.7112 10.4801C22.8081 10.4801 22.9018 10.4667 22.9906 10.4417C23.0033 10.7897 22.9133 11.2764 22.4864 11.7992C21.357 10.9985 20.6191 9.68056 20.6191 8.1917C20.6191 5.86229 22.4252 3.95143 24.7121 3.78418Z" fill="black"/>
<path fill-rule="evenodd" clip-rule="evenodd" d="M21.404 10.4287C21.2784 10.5024 20.9619 10.4913 20.818 10.5202C20.346 10.6148 19.8766 10.7246 19.4093 10.8401C17.964 11.1972 16.5393 11.627 15.191 12.2654C14.21 12.7299 13.1829 13.3179 12.7188 14.3472C12.0441 15.8434 13.2432 17.1863 14.802 17.0458C16.3054 16.9103 17.4853 15.8211 18.4871 14.7967C19.6591 13.5983 20.9973 12.3065 21.8959 10.8762" fill="black"/>
<path fill-rule="evenodd" clip-rule="evenodd" d="M16.2414 20.3618C15.4934 21.1587 8.91312 28.3528 3.96889 33.9029C2.31008 35.7801 2.15981 38.5516 3.60592 40.5974C3.60572 40.598 3.60579 40.598 3.60579 40.598C4.87593 42.3949 7.17484 43.1449 9.26032 42.443C11.52 41.6814 14.6061 39.9231 18.1976 35.9837C20.0219 33.9825 21.4722 32.1552 22.669 31.0366C22.669 31.0366 27.9193 32.7256 30.6198 29.8305C30.6198 29.8305 37.2122 38.254 43.5924 41.6118C46.1156 42.9238 49.2245 42.0433 50.6846 39.6025C51.3643 38.4758 51.6497 37.1192 50.8848 35.6462C47.5358 29.1946 42.277 24.313 34.2393 16.5848C32.6791 15.0843 29.9509 12.941 24.667 14.1641C22.6762 14.6249 20.2496 16.0912 16.2414 20.3618Z" fill="#A8CFCC"/>
<path fill-rule="evenodd" clip-rule="evenodd" d="M27.8115 25.6643C27.8115 25.6643 27.9846 25.6196 28.1888 25.6381C28.362 25.6537 28.5669 25.7149 28.6724 25.9328C28.8137 26.2259 28.6 26.4678 28.274 26.7149C27.6133 27.2163 26.4494 27.6549 25.4187 28.0745C25.2801 28.1308 25.2138 28.2887 25.27 28.427C25.3261 28.5653 25.4843 28.6319 25.6223 28.5756C26.6996 28.1373 27.9109 27.6698 28.6014 27.1459C29.1776 26.7089 29.4095 26.2161 29.1593 25.6977C28.9551 25.2746 28.5736 25.1297 28.2375 25.0992C27.9325 25.0717 27.6735 25.1412 27.6735 25.1412C27.5288 25.1794 27.4429 25.3275 27.4808 25.4719C27.5193 25.6162 27.6674 25.7025 27.8115 25.6643Z" fill="#82B5B2"/>
<path fill-rule="evenodd" clip-rule="evenodd" d="M29.9051 24.5602C29.9051 24.5602 30.227 24.2481 30.6652 23.999C30.9391 23.8435 31.2597 23.7084 31.5742 23.71C31.7027 23.7102 31.8237 23.766 31.9069 23.8628C31.9901 23.9596 32.0266 24.0878 32.007 24.2139C31.9543 24.5176 31.8095 24.93 31.4362 25.3234C30.9229 25.8648 29.6238 27.4993 25.4862 28.0232C25.3381 28.042 25.2333 28.1775 25.2522 28.3256C25.2711 28.4737 25.4064 28.5788 25.5545 28.56C29.9213 28.0069 31.2868 26.2673 31.8291 25.6958C32.2958 25.2041 32.4736 24.6878 32.5413 24.3015C32.5852 24.0141 32.5034 23.7273 32.3181 23.5108C32.1321 23.2942 31.8616 23.1694 31.5762 23.169C31.1704 23.1669 30.7518 23.3276 30.3981 23.5285C29.8956 23.8139 29.5277 24.1722 29.5277 24.1722C29.4209 24.2763 29.4182 24.4478 29.5223 24.5548C29.6265 24.6618 29.7976 24.6642 29.9051 24.5602Z" fill="#82B5B2"/>
<path fill-rule="evenodd" clip-rule="evenodd" d="M30.6093 26.332C30.6093 26.332 29.9161 28.1013 29.2317 28.7851C29.1262 28.8907 29.1262 29.0621 29.2317 29.1677C29.3372 29.2733 29.509 29.2733 29.6145 29.1678C30.3516 28.4308 31.1125 26.5314 31.1125 26.5314C31.1673 26.3926 31.0996 26.2352 30.9603 26.1802C30.8217 26.1252 30.6641 26.1932 30.6093 26.332Z" fill="#82B5B2"/>
<path fill-rule="evenodd" clip-rule="evenodd" d="M28.5222 27.499V28.1358C28.5222 28.2851 28.6433 28.4063 28.7927 28.4063C28.9415 28.4063 29.0632 28.2851 29.0632 28.1358V27.499C29.0632 27.3498 28.9415 27.2285 28.7927 27.2285C28.6433 27.2285 28.5222 27.3498 28.5222 27.499Z" fill="#82B5B2"/>
<path fill-rule="evenodd" clip-rule="evenodd" d="M30.4569 17.2777C30.4569 17.2777 30.0241 17.457 29.8205 17.9504C29.6954 18.2532 29.6494 18.6836 29.8861 19.2748C30.1593 19.9561 30.862 21.9725 29.9071 23.5246C29.8286 23.6518 29.8685 23.8185 29.995 23.8968C30.1228 23.9751 30.2892 23.9354 30.3676 23.8082C31.4321 22.079 30.6923 19.8326 30.3879 19.0735C30.2243 18.6637 30.2337 18.3668 30.3203 18.1569C30.4346 17.8813 30.6693 17.7752 30.6693 17.7752C30.8065 17.7165 30.8708 17.5573 30.812 17.42C30.7531 17.2828 30.5942 17.219 30.4569 17.2777Z" fill="#82B5B2"/>
<path fill-rule="evenodd" clip-rule="evenodd" d="M20.1304 33.7972C19.5361 34.481 18.8941 35.2195 18.1976 35.9837C14.6061 39.9231 11.52 41.6814 9.26032 42.443C7.17484 43.1449 4.87593 42.3949 3.60579 40.598C3.60579 40.598 3.60572 40.598 3.60592 40.5974C2.15981 38.5516 2.31008 35.7801 3.96889 33.9029C8.91312 28.3528 15.4934 21.1587 16.2414 20.3618C20.2496 16.0912 22.6762 14.6249 24.667 14.1641C29.9509 12.941 32.6791 15.0843 34.2393 16.5848C42.277 24.313 47.5358 29.1946 50.8848 35.6462C51.6497 37.1192 51.3643 38.4758 50.6846 39.6025C49.5052 41.5739 47.2497 42.5275 45.0964 42.1298L43.2671 41.4366C41.0637 40.2193 38.8482 38.4265 36.8998 36.6113C35.7907 35.4589 35.0305 34.5811 35.0305 34.5811L38.2625 26.5998L33.0571 22.9088C32.838 21.3987 32.7514 20.4337 32.2841 19.433C32.157 19.1593 32.0007 18.8829 31.8053 18.5919C30.897 17.2374 30.3249 18.0437 30.3249 18.0437C29.9029 17.5227 29.5113 17.2828 29.2503 17.1726C29.1123 17.1178 28.9574 17.1274 28.8276 17.199C28.6984 17.2705 28.6078 17.3964 28.5807 17.5421C28.5178 17.9001 28.737 18.3038 28.8553 18.4891C28.8918 18.5452 28.9338 18.5977 28.9804 18.6459C31.5456 21.2978 30.1274 24.2745 30.1274 24.2745C28.8601 25.8345 26.5972 25.7975 26.5972 25.7975C24.9423 25.9306 23.9015 25.4204 23.3112 24.9552C22.4335 24.2655 21.2727 24.0515 20.2067 24.3831C17.605 25.2122 14.7977 27.6821 14.7977 27.6821L20.1304 33.7972Z" fill="url(#paint1_linear_96_14276)"/>
<path fill-rule="evenodd" clip-rule="evenodd" d="M22.6733 31.0391L25.3253 28.0732C25.3253 28.0732 28.5207 29.5321 29.5332 28.3908L30.8174 30.0825C30.6856 29.9196 30.6166 29.8307 30.6166 29.8307C27.9757 32.6623 22.8946 31.1086 22.6733 31.0391Z" fill="#82B5B2"/>
<path fill-rule="evenodd" clip-rule="evenodd" d="M15.3921 27.1906C15.0176 27.4881 14.7972 27.682 14.7972 27.682L15.2335 28.1823L7.30356 34.7561C7.15985 34.8751 6.94655 34.8548 6.82738 34.7115C6.70829 34.5674 6.72824 34.3544 6.87195 34.2353L15.3088 27.2414C15.3347 27.22 15.3628 27.2031 15.3921 27.1906ZM37.8724 26.3234C37.9435 26.3279 38.0145 26.3549 38.0726 26.4052L45.7952 33.0973C45.9359 33.2196 45.9514 33.4333 45.829 33.5743C45.7066 33.7153 45.4929 33.7306 45.3522 33.6084L38.003 27.2399L38.262 26.5997L37.8724 26.3234ZM16.1613 26.6047C16.2012 25.9535 16.3141 24.6795 16.6204 23.5648C16.6534 23.462 16.7502 23.3932 16.8581 23.3959C16.9661 23.3985 17.0594 23.4719 17.0873 23.5762C17.2536 24.193 17.4815 25.0421 17.635 25.6144C17.0908 25.9469 16.588 26.2929 16.1613 26.6047ZM34.8007 24.1456L35.1632 22.4199C35.1768 22.3553 35.2288 22.3058 35.2938 22.2951C35.3587 22.2844 35.4236 22.3148 35.4567 22.3716C35.6617 22.8242 35.97 23.696 36.1195 25.0808L34.8007 24.1456Z" fill="#13524E"/>
<path d="M26.3774 25.9242C28.7497 25.9242 30.6729 24.0275 30.6729 21.6877C30.6729 19.3479 28.7497 17.4512 26.3774 17.4512C24.0051 17.4512 22.0819 19.3479 22.0819 21.6877C22.0819 24.0275 24.0051 25.9242 26.3774 25.9242Z" fill="#FFCD80"/>
<path d="M26.3729 25.2115C28.3608 25.2115 29.9724 23.6221 29.9724 21.6614C29.9724 19.7008 28.3608 18.1113 26.3729 18.1113C24.385 18.1113 22.7734 19.7008 22.7734 21.6614C22.7734 23.6221 24.385 25.2115 26.3729 25.2115Z" fill="#FFB000"/>
<path d="M25.1559 23.057C25.5545 23.347 26.0091 23.4758 26.5274 23.4563C27.1445 23.4186 27.4358 23.1862 27.4212 22.7581C27.3986 22.4096 27.1791 22.2096 26.7627 22.158C26.5685 22.1414 26.361 22.1254 26.1331 22.1039C25.7238 22.0586 25.4019 21.9231 25.1745 21.7037C24.94 21.478 24.815 21.194 24.7928 20.8521C24.7663 20.4444 24.8777 20.1089 25.1403 19.845C25.3896 19.5817 25.7599 19.4377 26.2442 19.4067C26.8359 19.3901 27.3578 19.5287 27.8095 19.816L27.4492 20.4213C27.0823 20.2089 26.6825 20.1037 26.2571 20.1186C26.038 20.1296 25.8556 20.1916 25.7168 20.3107C25.5713 20.4302 25.5028 20.6052 25.5107 20.8291C25.5196 20.9672 25.5804 21.0829 25.6939 21.1893C25.8074 21.2957 25.9848 21.3593 26.2201 21.3937C26.3476 21.407 26.5285 21.4243 26.756 21.4392C27.2047 21.476 27.5403 21.6174 27.7694 21.8631C27.9914 22.1026 28.1165 22.3866 28.1383 22.722C28.1765 23.6172 27.6483 24.0991 26.567 24.1668C25.8698 24.2019 25.2516 24.0154 24.7192 23.6134L25.1559 23.057Z" fill="#FFCD80"/>
<path fill-rule="evenodd" clip-rule="evenodd" d="M26.1373 18.8134L26.0135 24.7004L26.8338 24.7004L26.8337 18.8134L26.1373 18.8134Z" fill="#FFCD80"/>
<path fill-rule="evenodd" clip-rule="evenodd" d="M9.55661 73.5195C9.14827 73.4458 8.83826 73.088 8.83826 72.6586V70.9083C8.83826 70.4254 9.23037 70.0332 9.71331 70.0332H19.5429C20.0259 70.0332 20.418 70.4254 20.418 70.9083V72.6586C20.418 73.088 20.108 73.4458 19.6996 73.5195C20.108 73.5939 20.418 73.9516 20.418 74.3811V76.1313C20.418 76.5608 20.108 76.9178 19.6996 76.9922C20.108 77.066 20.418 77.4237 20.418 77.8532V79.6034C20.418 80.0328 20.108 80.3906 19.6996 80.4643C20.108 80.5387 20.418 80.8958 20.418 81.3252V83.0755C20.418 83.5583 20.0259 83.9506 19.5429 83.9506H9.71331C9.23037 83.9506 8.83826 83.5583 8.83826 83.0755V81.3252C8.83826 80.8958 9.14827 80.5387 9.55661 80.4643C9.14827 80.3906 8.83826 80.0328 8.83826 79.6034V77.8532C8.83826 77.4237 9.14827 77.066 9.55661 76.9922C9.14827 76.9178 8.83826 76.5608 8.83826 76.1313V74.3811C8.83826 73.9516 9.14827 73.5939 9.55661 73.5195Z" fill="#FFCD80"/>
<path fill-rule="evenodd" clip-rule="evenodd" d="M18.0969 70.0332V72.8337H20.367C20.3779 72.8337 20.3887 72.8344 20.3994 72.8351C20.3313 73.1678 20.0745 73.4316 19.746 73.51H19.7285V73.5141C19.7187 73.5161 19.7089 73.5181 19.6989 73.5195C19.7089 73.5215 19.7187 73.5235 19.7285 73.5256V76.3051H20.367C20.3779 76.3051 20.3888 76.3058 20.3995 76.3065C20.3317 76.6385 20.0761 76.9023 19.7487 76.9814H19.0255V79.7772H20.367C20.378 79.7772 20.3889 79.7772 20.3996 79.7786C20.3323 80.1093 20.0777 80.373 19.7514 80.4535H17.9577V83.9506H17.2814V80.4535H16.6414V83.9506H15.9651V80.4535H11.4736V83.9506H10.7973V80.4535H9.5033C9.17651 80.373 8.92162 80.1086 8.85474 79.7772H13.1042V76.9814H9.506C9.17807 76.9023 8.92209 76.6379 8.85487 76.3051H9.82907V73.51H9.50871C9.17976 73.4316 8.9227 73.1665 8.855 72.8337H11.6953V70.0332H12.3716V72.8337H16.0472V70.0332H16.7235V72.8337H17.4206V70.0332H18.0969ZM13.7805 76.9814V79.7772H14.2917V76.9814H13.7805ZM14.968 76.9814V79.7772H18.3492V76.9814H14.968ZM10.5054 73.51V76.3051H15.5474V73.51H10.5054ZM16.2237 73.51V76.3051H19.0523V73.51H16.2237Z" fill="#FDA425"/>
<path fill-rule="evenodd" clip-rule="evenodd" d="M89.8725 26.9143C89.41 26.6859 89.0914 26.2091 89.0914 25.6585V22.8595C89.0914 22.087 89.7183 21.46 90.4907 21.46H111.744C112.516 21.46 113.143 22.087 113.143 22.8595V25.6585C113.143 26.2091 112.825 26.6859 112.361 26.9143C112.825 27.1427 113.143 27.6195 113.143 28.1701V30.9691C113.143 31.4532 112.897 31.8802 112.523 32.1315C112.897 32.3829 113.143 32.8098 113.143 33.2939V36.0931C113.143 36.5773 112.897 37.0041 112.523 37.2556C112.897 37.5065 113.143 37.934 113.143 38.4175V41.2167C113.143 41.7009 112.897 42.1277 112.523 42.3792C112.897 42.6308 113.143 43.0576 113.143 43.5418V46.341C113.143 46.8245 112.897 47.2519 112.523 47.5035C112.897 47.7544 113.143 48.1818 113.143 48.6654V51.4646C113.143 51.9488 112.897 52.3755 112.523 52.6271C112.897 52.8787 113.143 53.3054 113.143 53.7896V56.5888C113.143 57.0724 112.897 57.4998 112.523 57.7507C112.897 58.0023 113.143 58.429 113.143 58.9132V61.7124C113.143 62.1966 112.897 62.6234 112.523 62.875C112.897 63.1265 113.143 63.5533 113.143 64.0375V66.8367C113.143 67.3202 112.897 67.7476 112.523 67.9986C112.897 68.2501 113.143 68.6769 113.143 69.1611V71.9603C113.143 72.4445 112.897 72.8712 112.523 73.1228C112.897 73.3737 113.143 73.8011 113.143 74.2854V77.0839C113.143 77.5681 112.897 77.9955 112.523 78.2464C112.897 78.498 113.143 78.9247 113.143 79.409V82.2081C113.143 82.9805 112.516 83.6074 111.744 83.6074H90.4907C89.7183 83.6074 89.0914 82.9805 89.0914 82.2081V79.409C89.0914 78.9247 89.3376 78.498 89.7116 78.2464C89.3376 77.9955 89.0914 77.5681 89.0914 77.0839V74.2854C89.0914 73.8011 89.3376 73.3737 89.7116 73.1228C89.3376 72.8712 89.0914 72.4445 89.0914 71.9603V69.1611C89.0914 68.6769 89.3376 68.2501 89.7116 67.9986C89.3376 67.7476 89.0914 67.3202 89.0914 66.8367V64.0375C89.0914 63.5533 89.3376 63.1265 89.7116 62.875C89.3376 62.6234 89.0914 62.1966 89.0914 61.7124V58.9132C89.0914 58.429 89.3376 58.0023 89.7116 57.7507C89.3376 57.4998 89.0914 57.0724 89.0914 56.5888V53.7896C89.0914 53.3054 89.3376 52.8787 89.7116 52.6271C89.3376 52.3755 89.0914 51.9488 89.0914 51.4646V48.6654C89.0914 48.1818 89.3376 47.7544 89.7116 47.5035C89.3376 47.2519 89.0914 46.8245 89.0914 46.341V43.5418C89.0914 43.0576 89.3376 42.6308 89.7116 42.3792C89.3376 42.1277 89.0914 41.7009 89.0914 41.2167V38.4175C89.0914 37.934 89.3376 37.5065 89.7116 37.2556C89.3376 37.0041 89.0914 36.5773 89.0914 36.0931V33.2939C89.0914 32.8098 89.3376 32.3829 89.7116 32.1315C89.3376 31.8802 89.0914 31.4532 89.0914 30.9691V28.1701C89.0914 27.6195 89.41 27.1427 89.8725 26.9143Z" fill="#FFCD80"/>
<path fill-rule="evenodd" clip-rule="evenodd" d="M106.607 21.46V26.2041H109.197C109.231 26.0542 109.366 25.9422 109.526 25.9422C109.687 25.9422 109.821 26.0542 109.856 26.2041H113.03C112.908 26.4912 112.694 26.7292 112.424 26.8804H109.864V31.4733H113.047C112.943 31.743 112.758 31.9725 112.521 32.1315C112.53 32.1374 112.538 32.1434 112.547 32.1496H111.954V36.7099C111.954 36.7207 111.953 36.7315 111.952 36.7423H112.981C112.873 36.9493 112.714 37.1258 112.521 37.2556C112.593 37.3037 112.66 37.3584 112.721 37.4186H109.152V41.7564H113.033C112.927 42.0107 112.747 42.2271 112.521 42.3792C112.546 42.3961 112.571 42.4144 112.595 42.4327H111.184V46.8752H113.035C112.929 47.1322 112.748 47.35 112.521 47.5035C112.544 47.5184 112.566 47.5346 112.589 47.5515H108.783V52.0008H113.035C112.928 52.2565 112.748 52.4743 112.521 52.6271C112.545 52.6433 112.568 52.6596 112.59 52.6771H111.044V57.1677H113.015C112.908 57.4051 112.735 57.6066 112.521 57.7507C112.564 57.7798 112.605 57.8109 112.644 57.844H108.119V62.2311H113.042C112.936 62.4942 112.754 62.7187 112.521 62.875C112.536 62.8851 112.551 62.8959 112.566 62.9074H110.086V67.2905H113.065C112.971 67.5644 112.796 67.7997 112.566 67.9668H107.905V72.4871H113.038C112.933 72.7468 112.751 72.9679 112.521 73.1228C112.54 73.1357 112.559 73.1492 112.578 73.1634H110.505V77.5451H113.063C112.967 77.8197 112.789 78.055 112.557 78.2214H105.716V83.6074H105.04V78.2214H103.674V83.6074H102.997V78.2214H94.1143V83.6074H93.438V78.2214H89.6738C89.4418 78.055 89.2633 77.8197 89.1673 77.5451H90.369V73.1634H89.6528C89.6711 73.1492 89.69 73.1357 89.7096 73.1228C89.4797 72.9679 89.2978 72.7468 89.1916 72.4871H93.5361V67.9668H89.6643C89.4351 67.7997 89.2586 67.5644 89.1646 67.2905H90.8553V62.9074H89.6637C89.6785 62.8959 89.6941 62.8851 89.7096 62.875C89.477 62.7187 89.2937 62.4942 89.1889 62.2311H92.8618V57.844H89.5859C89.6258 57.8109 89.6664 57.7798 89.7096 57.7507C89.4953 57.6066 89.3228 57.4051 89.2146 57.1677H90.6849V52.6771H89.64C89.663 52.6596 89.686 52.6433 89.7096 52.6271C89.4824 52.4743 89.3019 52.2565 89.1957 52.0008H93.1053V47.5515H89.642C89.6643 47.5346 89.6867 47.5184 89.7096 47.5035C89.4817 47.35 89.3012 47.1322 89.195 46.8752H90.2135V42.4327H89.6353C89.6596 42.4144 89.6846 42.3961 89.7096 42.3792C89.4831 42.2271 89.3039 42.0107 89.197 41.7564H91.4065V37.4186H89.5095C89.571 37.3584 89.638 37.3037 89.7096 37.2556C89.5169 37.1258 89.358 36.9493 89.2491 36.7423H95.3851V32.1496H91.9218C91.8778 32.1703 91.8291 32.1819 91.7777 32.1819C91.7257 32.1819 91.677 32.1703 91.633 32.1496H89.6833C89.6921 32.1434 89.7009 32.1374 89.7096 32.1315C89.4729 31.9725 89.2876 31.743 89.1828 31.4733H91.4396V26.8804H89.8064C89.5365 26.7292 89.3215 26.4911 89.1997 26.2041H91.4477C91.4829 26.0542 91.6168 25.9422 91.7777 25.9422C91.938 25.9422 92.0726 26.0542 92.1071 26.2041H96.3569V21.46H97.0332V26.2041H97.767V21.46H98.4433V26.2041H100.387C100.421 26.0542 100.556 25.9422 100.717 25.9422C100.877 25.9422 101.012 26.0542 101.046 26.2041H102.072C102.107 26.0542 102.241 25.9422 102.402 25.9422C102.562 25.9422 102.696 26.0542 102.731 26.2041H105.93V21.46H106.607ZM91.0453 73.1634V77.5451H97.0941V73.1634H91.0453ZM97.7704 73.1634V77.5451H98.8037V73.1634H97.7704ZM99.48 73.1634V77.5451H109.829V73.1634H99.48ZM94.2124 67.9668V72.4871H100.494V67.9668H94.2124ZM105.938 67.9668H101.171V72.4871H105.936V68.0026L105.938 67.9668ZM106.612 72.4871H107.228V67.9668H106.61C106.612 67.9783 106.612 67.9904 106.612 68.0026V72.4871ZM105.163 62.9074V67.2905H109.409V62.9074H105.163ZM97.7893 67.2905H104.487V62.9074H97.7832C97.7873 62.9277 97.7893 62.9487 97.7893 62.9696V67.2905ZM97.1184 62.9074H91.5316V67.2905H97.113V62.9696C97.113 62.9494 97.1144 62.9284 97.1184 62.9081V62.9074ZM102.642 57.844V62.2311H107.443V57.844H102.642ZM101.115 57.844V62.2311H101.966V57.844H101.115ZM93.5381 57.844V62.2311H100.438V57.844H93.5381ZM96.4996 52.6771V57.1677H104.777V52.6771H96.4996ZM91.3611 52.6771V57.1677H95.8233V52.6771H91.3611ZM105.454 52.6771V57.1677H110.368V52.6771H105.454ZM99.6383 47.5515V52.0008H100.309V47.5515H99.6383ZM96.2203 52.0008H98.962V47.5515H93.7816V52.0008H96.1026C96.1216 51.9975 96.1412 51.9954 96.1615 51.9954C96.1818 51.9954 96.2014 51.9975 96.2203 52.0008ZM100.985 47.5515V52.0008H108.107V47.5515H100.985ZM108.546 46.8752H110.508V42.4327H104.971V46.8752H108.344C108.376 46.8651 108.41 46.8597 108.445 46.8597C108.48 46.8597 108.514 46.8651 108.546 46.8752ZM103.342 42.4327V46.8752H104.295V42.4327H103.342ZM90.8898 42.4327V46.8752H97.5161V42.4327H90.8898ZM98.1924 42.4327V46.8752H102.666V42.4327H98.1924ZM92.0828 37.4186V41.7564H92.9085V37.4186H92.0828ZM101.369 37.4186V41.7564H108.476V37.4186H101.369ZM93.5848 37.4186V41.7564H100.693V37.4186H93.5848ZM97.2584 32.1496H96.0614V36.7423H97.2604C97.2591 36.7315 97.2584 36.7207 97.2584 36.7099V32.1496ZM105.435 32.1496H102.546C102.502 32.1703 102.453 32.1819 102.402 32.1819C102.35 32.1819 102.301 32.1703 102.257 32.1496H100.861C100.817 32.1703 100.768 32.1819 100.717 32.1819C100.665 32.1819 100.616 32.1703 100.572 32.1496H97.9347V36.7099C97.9347 36.7207 97.9347 36.7315 97.9333 36.7423H105.436C105.435 36.7315 105.435 36.7207 105.435 36.7099V32.1496ZM111.277 32.1496H109.671C109.627 32.1703 109.578 32.1819 109.526 32.1819C109.475 32.1819 109.426 32.1703 109.382 32.1496H106.111V36.7099C106.111 36.7207 106.11 36.7315 106.109 36.7423H111.279C111.278 36.7315 111.277 36.7207 111.277 36.7099V32.1496ZM92.1159 26.8804V31.4733H100.379V26.8804H92.1159ZM101.055 26.8804V31.4733H102.063V26.8804H101.055ZM102.74 26.8804V31.4733H109.188V26.8804H102.74Z" fill="#FDA425"/>
<path fill-rule="evenodd" clip-rule="evenodd" d="M53.9154 57.9401C53.5415 57.6892 53.2953 57.2617 53.2953 56.7782V53.979C53.2953 53.2067 53.9222 52.5791 54.6945 52.5791H75.947C76.72 52.5791 77.3469 53.2067 77.3469 53.979V56.7782C77.3469 57.2617 77.1007 57.6892 76.7267 57.9401C77.1007 58.1917 77.3469 58.6184 77.3469 59.1026V61.9018C77.3469 62.386 77.1007 62.8128 76.7267 63.0643C77.1007 63.3152 77.3469 63.7427 77.3469 64.2269V67.0254C77.3469 67.5096 77.1007 67.937 76.7267 68.1879C77.1007 68.4395 77.3469 68.8662 77.3469 69.3505V72.1496C77.3469 72.6339 77.1007 73.0606 76.7267 73.3122C77.1007 73.5631 77.3469 73.9905 77.3469 74.4741V77.2732C77.3469 77.7575 77.1007 78.1842 76.7267 78.4358C77.1007 78.6874 77.3469 79.1141 77.3469 79.5983V82.3975C77.3469 83.1698 76.72 83.7968 75.947 83.7968H54.6945C53.9222 83.7968 53.2953 83.1698 53.2953 82.3975V79.5983C53.2953 79.1141 53.5415 78.6874 53.9154 78.4358C53.5415 78.1842 53.2953 77.7575 53.2953 77.2732V74.4741C53.2953 73.9905 53.5415 73.5631 53.9154 73.3122C53.5415 73.0606 53.2953 72.6339 53.2953 72.1496V69.3505C53.2953 68.8662 53.5415 68.4395 53.9154 68.1879C53.5415 67.937 53.2953 67.5096 53.2953 67.0254V64.2269C53.2953 63.7427 53.5415 63.3152 53.9154 63.0643C53.5415 62.8128 53.2953 62.386 53.2953 61.9018V59.1026C53.2953 58.6184 53.5415 58.1917 53.9154 57.9401Z" fill="#FFCD80"/>
<path fill-rule="evenodd" clip-rule="evenodd" d="M72.3531 57.3652H77.2183C77.1101 57.5992 76.939 57.7981 76.7273 57.9401C76.7733 57.9712 76.8173 58.005 76.8599 58.0415H74.8533V62.4205V62.4212H77.2474C77.1426 62.6843 76.9593 62.9081 76.7273 63.0643C76.7429 63.0752 76.7591 63.086 76.7747 63.0975H72.7697V67.4474C72.7697 67.467 72.7683 67.4859 72.7649 67.5042H77.263C77.1622 67.7808 76.9769 68.0168 76.7381 68.1805H75.5039V72.5595C75.5039 72.5784 75.5019 72.5974 75.4992 72.6156H77.2677C77.1703 72.8909 76.9897 73.1262 76.7557 73.2919H73.0706V77.748H77.2643C77.1649 78.0246 76.9809 78.2599 76.7436 78.4243H75.3382V83.7968H74.6619V78.4243H70.2992C70.2992 78.4304 70.2999 78.4358 70.2999 78.4412V83.7968H69.6236V78.4412C69.6236 78.4358 69.6236 78.4304 69.6236 78.4243H66.2881C66.2448 78.4446 66.1975 78.4554 66.1474 78.4554C66.0967 78.4554 66.0494 78.4446 66.0061 78.4243H61.6731V83.7968H60.9968V78.4243H59.8146V83.7968H59.1384V78.4243H53.8991C53.6617 78.2599 53.4778 78.0246 53.3784 77.748H58.0448V73.2919H53.8869C53.6536 73.1262 53.4724 72.8909 53.375 72.6156H55.0928V68.1805H53.9052C53.6658 68.0168 53.4805 67.7808 53.3797 67.5042H57.5315V63.0975H53.868C53.8842 63.086 53.8998 63.0752 53.916 63.0643C53.6834 62.9081 53.5008 62.6843 53.3953 62.4212H54.8743V58.0415H53.7835C53.8254 58.005 53.8694 57.9712 53.916 57.9401C53.7037 57.7981 53.5333 57.5992 53.4244 57.3652H56.5333V52.5791H57.2096V57.3652H57.9021V52.5791H58.5784V57.3652H64.7894V52.5791H65.4657V57.3652H71.6768V52.5791H72.3531V57.3652ZM58.7211 73.2919V77.748H65.8093V73.2919H58.7211ZM66.4856 73.2919V77.748H71.0553V73.2919H66.4856ZM71.7316 73.2919V77.748H72.3943V73.2919H71.7316ZM55.7691 68.1805V72.6156H61.2403V68.1805H55.7691ZM68.551 68.1805H61.9166V72.6156H68.5692C68.5577 72.5811 68.551 72.5439 68.551 72.5054V68.1805ZM74.8276 68.1805H69.2273V72.5054C69.2273 72.5439 69.2212 72.5811 69.209 72.6156H74.8317C74.829 72.5974 74.8276 72.5784 74.8276 72.5595V68.1805ZM58.2078 63.0975V67.5042H63.4044V63.0975H58.2078ZM64.0807 63.0975V67.5042H64.8801V63.0975H64.0807ZM72.0934 63.0975H65.5564V67.5042H68.785C68.8174 67.4934 68.8526 67.488 68.8891 67.488C68.9256 67.488 68.9608 67.4934 68.9939 67.5042H72.0988C72.0954 67.4859 72.0934 67.467 72.0934 67.4474V63.0975ZM55.5506 58.0415V62.4212H61.506V58.0415H55.5506ZM62.1823 58.0415V62.4212H67.567V58.0415H62.1823ZM68.2433 58.0415V62.4212H69.1481V58.0415H68.2433ZM74.177 58.0415H69.8244V62.4212H74.177V62.4205V58.0415Z" fill="#FDA425"/>
<path fill-rule="evenodd" clip-rule="evenodd" d="M77.3393 37.9072H83.854C95.0622 37.9072 104.162 48.4736 104.162 61.4881C104.162 73.4964 96.4276 83.6062 86.426 85.069C85.5874 85.1921 77.3833 85.069 77.3833 85.069C66.1751 85.069 57.075 74.5027 57.075 61.4881C57.075 48.4905 66.1515 37.9343 77.3393 37.9072Z" fill="#FDA425"/>
<path d="M77.3907 85.0692C88.6064 85.0692 97.6986 74.5116 97.6986 61.4882C97.6986 48.4648 88.6064 37.9072 77.3907 37.9072C66.1749 37.9072 57.0828 48.4648 57.0828 61.4882C57.0828 74.5116 66.1749 85.0692 77.3907 85.0692Z" fill="#FFCD80"/>
<path fill-rule="evenodd" clip-rule="evenodd" d="M77.4607 47.4756L76.7595 47.4365L76.7756 46.3902L77.9989 46.4583C78.2886 46.4744 78.5188 46.7217 78.5143 47.0106L78.4871 48.7802C79.5571 48.8878 80.5818 49.1172 81.5598 49.467C82.8095 49.9136 83.9848 50.5574 85.0841 51.3973C85.2088 51.4915 85.2864 51.6346 85.2995 51.7875C85.3111 51.9403 85.257 52.0883 85.1489 52.193L82.7541 54.5145C82.5735 54.689 82.2889 54.7023 82.0798 54.5452C80.9954 53.7319 79.7764 53.2053 78.4226 52.9644L78.3318 58.8611C83.3668 60.2132 85.7566 62.7684 85.6322 66.3865C85.5725 68.3523 84.8154 69.9414 83.3693 71.1487C82.0474 72.2946 80.2969 72.9826 78.1111 73.1955L78.0643 76.2361C78.0598 76.5245 77.8225 76.7451 77.5327 76.729L76.3318 76.6621L76.3479 75.6169L77.0267 75.6547L77.0726 72.6801C77.0766 72.4151 77.2774 72.2037 77.541 72.187C79.6908 72.0471 81.4022 71.4409 82.6743 70.3391C83.9004 69.3154 84.5361 67.9724 84.5869 66.3104C84.6987 63.0553 82.3542 60.9243 77.6959 59.7689C77.4503 59.7071 77.2758 59.4815 77.2797 59.231L77.3859 52.3316C77.3881 52.1874 77.4504 52.0532 77.557 51.9596C77.6634 51.8671 77.8056 51.8235 77.9496 51.8416C79.5675 52.0334 81.0231 52.5709 82.3152 53.4518L83.9648 51.853C83.1054 51.2615 82.1992 50.7937 81.2435 50.453C80.1999 50.0794 79.1009 49.8571 77.9435 49.7826C77.6566 49.7644 77.4292 49.5179 77.4337 49.2306L77.4607 47.4756ZM78.1762 68.9644C78.9398 68.7764 79.5005 68.4831 79.8418 68.0602C80.0547 67.7867 80.2123 67.4744 80.3143 67.1243L81.3192 67.4588C81.1788 67.9321 80.9636 68.3542 80.6706 68.7317C80.1108 69.4245 79.1437 69.9077 77.7437 70.1262C77.5892 70.1501 77.4288 70.1031 77.3072 69.9968C77.187 69.8905 77.1179 69.7367 77.1203 69.5791L77.1773 65.8812L78.2228 65.9394L78.1762 68.9644ZM72.6822 53.8509C72.8728 53.3883 73.1182 53.0081 73.4128 52.7079C73.4199 52.7005 73.4285 52.6931 73.4356 52.6857C74.0989 52.0905 74.8814 51.7693 75.7801 51.722C75.9273 51.7145 76.0749 51.7708 76.184 51.8753C76.293 51.981 76.3538 52.1264 76.3515 52.274L76.3049 55.3023L75.2594 55.2441L75.2961 52.8563C74.877 52.965 74.4998 53.1689 74.1632 53.4679C73.9539 53.6845 73.7844 53.9604 73.6476 54.2918C73.6447 54.3006 73.6403 54.3093 73.636 54.318C73.4724 54.6602 73.3931 55.0821 73.3854 55.5773L72.3399 55.5191C72.35 54.8629 72.4678 54.3078 72.6822 53.8509Z" fill="#FDA31F"/>
<path fill-rule="evenodd" clip-rule="evenodd" d="M73.0886 57.7537C72.5826 57.137 72.3293 56.3934 72.3428 55.5181L73.3883 55.5763C73.3791 56.1766 73.5407 56.6891 73.8886 57.1112L73.901 57.1265C74.1729 57.4817 74.6153 57.7748 75.2194 58.0278L75.2622 55.2432L76.3078 55.3014L76.254 58.7925C76.2515 58.9545 76.1736 59.1035 76.0433 59.1958C75.9144 59.2871 75.7459 59.3124 75.5898 59.2623C74.3826 58.8751 73.557 58.3582 73.0886 57.7537Z" fill="#FDA31F"/>
<path fill-rule="evenodd" clip-rule="evenodd" d="M78.2548 63.4361L78.2162 65.939L77.1707 65.8808L77.219 62.7429C77.2214 62.5898 77.2908 62.4482 77.4085 62.3552C77.5276 62.2622 77.6822 62.2272 77.833 62.2602C79.2892 62.5795 80.2562 63.1044 80.7671 63.7627L80.7781 63.779C81.2746 64.469 81.5189 65.2479 81.5056 66.1176C81.4981 66.6038 81.4323 67.051 81.3126 67.4583L80.3077 67.1238C80.4038 66.8002 80.4541 66.445 80.46 66.0594C80.4696 65.4345 80.2989 64.8745 79.9451 64.3782C79.6236 63.9687 79.0553 63.6663 78.2548 63.4361Z" fill="#FDA31F"/>
<path fill-rule="evenodd" clip-rule="evenodd" d="M75.1464 62.6551C70.3062 61.3038 68.0358 58.8189 68.2 55.3407C68.2743 53.2426 68.9729 51.6379 70.2636 50.5126C71.445 49.483 73.14 48.8535 75.362 48.6549L75.39 46.8361C75.3945 46.5473 75.6318 46.326 75.9202 46.342L76.7768 46.3897L76.7607 47.436L76.4275 47.4175L76.4005 49.1725C76.3964 49.4386 76.1942 49.6511 75.9292 49.6666C73.7488 49.7992 72.0903 50.3356 70.9671 51.3148C69.8738 52.2687 69.3091 53.6414 69.2451 55.4268C69.0977 58.5424 71.327 60.602 75.7865 61.7542C76.0293 61.817 76.2023 62.0414 76.1985 62.2896L76.0872 69.521C76.0849 69.6686 76.0197 69.8048 75.9104 69.8983C75.7997 69.9917 75.6534 70.0317 75.5067 70.0101C74.1999 69.8143 73.0958 69.4597 72.1958 68.9543C71.4035 68.5522 70.6965 68.0686 70.0734 67.5025L68.0445 69.079C69.0011 69.8192 70.0643 70.4579 71.23 70.9961C72.5906 71.6088 74.0238 71.9661 75.531 72.0701C75.8178 72.0905 76.0438 72.3358 76.0394 72.622L75.9936 75.5966L76.3491 75.6164L76.333 76.6616L75.454 76.6127C75.1657 76.5967 74.9355 76.35 74.94 76.0616L74.986 73.0702C73.5371 72.918 72.1532 72.5433 70.8301 71.9472C69.3515 71.2652 68.0348 70.4334 66.8746 69.4525C66.7529 69.3495 66.681 69.1967 66.6806 69.0389C66.6789 68.8811 66.7498 68.734 66.8717 68.6389L69.7627 66.3932C69.9669 66.2334 70.2663 66.2579 70.4566 66.4509C71.0788 67.0796 71.8103 67.6048 72.6472 68.0284L72.6694 68.0397C73.336 68.4158 74.1303 68.6927 75.0506 68.8749L75.1464 62.6551Z" fill="#FDA31F"/>
<path fill-rule="evenodd" clip-rule="evenodd" d="M76.4119 42.574C84.6035 42.574 91.1828 51.0933 91.1828 61.5179C91.1828 71.9419 84.6035 80.4611 76.4119 80.4611C76.1133 80.4611 75.8706 80.7034 75.8706 81.002C75.8706 81.3006 76.1133 81.5435 76.4119 81.5435C85.1219 81.5435 92.2643 72.6013 92.2643 61.5179C92.2643 50.4338 85.1219 41.4922 76.4119 41.4922C76.1133 41.4922 75.8706 41.7345 75.8706 42.0331C75.8706 42.3317 76.1133 42.574 76.4119 42.574Z" fill="#FDA425"/>
<path fill-rule="evenodd" clip-rule="evenodd" d="M76.4114 80.4611C68.2193 80.4611 61.6406 71.9419 61.6406 61.5179C61.6406 51.0933 68.2193 42.574 76.4114 42.574C76.71 42.574 76.9522 42.3317 76.9522 42.0331C76.9522 41.7345 76.71 41.4922 76.4114 41.4922C67.7015 41.4922 60.5585 50.4338 60.5585 61.5179C60.5585 72.6013 67.7015 81.5435 76.4114 81.5435C76.71 81.5435 76.9522 81.3006 76.9522 81.002C76.9522 80.7034 76.71 80.4611 76.4114 80.4611Z" fill="#FDA425"/>
<path fill-rule="evenodd" clip-rule="evenodd" d="M92.2584 83.1341H84.5094C84.2112 83.1341 83.9684 82.8913 83.9684 82.5931C83.9684 82.2942 84.2112 82.0521 84.5094 82.0521H93.8172C93.8801 82.0521 93.9403 82.0629 93.9964 82.0825C93.4337 82.4646 92.8542 82.8156 92.2584 83.1341ZM101.099 74.0238C100.903 74.391 100.699 74.7522 100.487 75.1059H93.0456C92.7466 75.1059 92.5045 74.8638 92.5045 74.5648C92.5045 74.2659 92.7466 74.0238 93.0456 74.0238H101.099ZM102.567 70.7208C102.435 71.0867 102.294 71.4471 102.147 71.8029H93.8172C93.5183 71.8029 93.2762 71.5608 93.2762 71.2618C93.2762 70.9636 93.5183 70.7208 93.8172 70.7208H102.567ZM104.115 59.7385C104.138 60.0976 104.154 60.4581 104.162 60.8206H96.732C96.4331 60.8206 96.191 60.5785 96.191 60.2796C96.191 59.9813 96.4331 59.7385 96.732 59.7385H104.115ZM102.933 53.3692C103.045 53.7263 103.151 54.0874 103.249 54.4513H95.1542C94.856 54.4513 94.6132 54.2092 94.6132 53.9102C94.6132 53.612 94.856 53.3692 95.1542 53.3692H102.933ZM101.822 50.4781C101.984 50.8338 102.139 51.1943 102.285 51.5601H94.8628C94.5645 51.5601 94.3217 51.318 94.3217 51.0191C94.3217 50.7209 94.5645 50.4781 94.8628 50.4781H101.822ZM94.6247 41.4922C95.0913 41.8317 95.5451 42.1921 95.9861 42.5743H87.4242C87.126 42.5743 86.8832 42.3315 86.8832 42.0332C86.8832 41.7343 87.126 41.4922 87.4242 41.4922H94.6247Z" fill="#FFCD80"/>
<path fill-rule="evenodd" clip-rule="evenodd" d="M66.73 8.79916C67.2086 7.14818 68.5727 2.429 69.557 0.320189L75.223 3.39395C75.223 3.39395 72.7819 12.2134 72.2555 14.7425L65.6656 13.1755C65.8657 11.7974 66.2483 10.4601 66.73 8.79916Z" fill="#82B5B2"/>
<path d="M69.7348 10.6063C70.8195 10.6063 71.6989 9.68601 71.6989 8.55072C71.6989 7.41544 70.8195 6.49512 69.7348 6.49512C68.65 6.49512 67.7706 7.41544 67.7706 8.55072C67.7706 9.68601 68.65 10.6063 69.7348 10.6063Z" fill="#A8CFCC" fill-opacity="0.63"/>
<path fill-rule="evenodd" clip-rule="evenodd" d="M68.3394 11.0786C68.6593 10.1869 70.444 5.56186 71.545 4.17188L76.6733 7.05409C76.6733 7.05409 73.9093 14.3983 73.279 16.513L67.2046 14.8604C67.467 13.7039 67.839 12.4732 68.3394 11.0786Z" fill="#A8CFCC"/>
<path d="M71.8843 12.7108C72.9691 12.7108 73.8485 11.7905 73.8485 10.6552C73.8485 9.51994 72.9691 8.59961 71.8843 8.59961C70.7995 8.59961 69.9202 9.51994 69.9202 10.6552C69.9202 11.7905 70.7995 12.7108 71.8843 12.7108Z" fill="#82B5B2"/>
<path d="M85.8953 12.7943C88.2879 12.7943 90.2275 10.8547 90.2275 8.46207C90.2275 6.06947 88.2879 4.12988 85.8953 4.12988C83.5027 4.12988 81.5631 6.06947 81.5631 8.46207C81.5631 10.8547 83.5027 12.7943 85.8953 12.7943Z" fill="#E86135"/>
<path fill-rule="evenodd" clip-rule="evenodd" d="M83.0244 5.22845C83.7907 4.54533 84.8004 4.12988 85.9061 4.12988C88.2975 4.12988 90.2384 6.07111 90.2384 8.46207C90.2384 9.28241 90.0098 10.0499 89.6135 10.7039C86.3964 9.2586 86.8678 5.77158 86.8678 5.77158C85.0993 6.34933 83.7785 5.76421 83.0244 5.22845Z" fill="black"/>
<path fill-rule="evenodd" clip-rule="evenodd" d="M67.3458 63.5235C67.3458 63.5235 66.0791 61.0726 67.3458 59.2365L65.0971 55.2856C65.0971 55.2856 64.0042 54.5857 62.7632 53.7904C59.9573 51.9921 58.3477 48.8142 58.5581 45.4888C58.5743 45.2354 58.6034 45.003 58.6473 44.7998C57.357 43.5823 56.2911 40.8497 56.6834 38.2351C56.6834 38.2351 56.6834 38.2351 56.6834 38.2351C57.2291 34.5934 60.2542 31.834 63.9305 31.6245C69.8467 31.2889 79.9999 31.0596 86.242 32.8497L84.838 29.3545C84.838 29.3545 74.8492 32.9263 72.3192 24.7239C66.5849 27.0394 60.1994 28.732 53.8856 29.6479C51.246 30.0321 48.6416 28.7523 47.333 26.4278C47.3303 26.4295 47.3303 26.4294 47.3303 26.4294C46.2232 24.4633 46.5769 21.9986 48.1919 20.4228C49.8156 18.8562 52.5851 16.8296 57.3144 14.4981C57.3144 14.4981 62.0518 11.9929 64.8259 10.526C66.0656 9.87067 67.5351 9.81359 68.8214 10.3709C71.5543 11.5546 76.0693 13.5106 76.0693 13.5106L76.5968 12.1792C79.732 12.7013 82.8126 13.6511 85.8329 14.8265C89.0405 16.0788 91.5259 18.6907 92.6167 21.9561C95.303 29.9972 100.375 45.4363 101.041 49.3038H102.942C104.011 49.3038 104.937 50.045 105.17 51.0879C105.352 51.9028 105.528 52.6894 105.528 52.6894C105.528 52.6894 106.739 54.044 107.093 55.2856C107.237 55.7915 106.431 56.3812 105.528 55.4337C105.261 55.1531 102.666 53.1059 101.501 52.9781C100.61 52.8801 99.8213 52.7779 99.0861 52.688C96.8294 52.4114 94.8262 51.1089 93.6569 49.1578C92.8751 47.8539 92.1562 46.6541 92.1562 46.6541C92.1562 46.6541 89.7188 50.5631 83.0283 49.8577L84.0677 63.37C84.0677 63.37 82.7327 63.0542 82.2864 60.8725C82.2864 60.8725 74.7464 59.8682 70.452 58.0496C70.452 58.0496 68.7579 59.7316 67.3458 63.5235Z" fill="url(#paint2_linear_96_14276)"/>
<path fill-rule="evenodd" clip-rule="evenodd" d="M101.002 49.1104C101.015 49.178 101.027 49.2422 101.038 49.3038H101.938C102.373 49.6095 103.035 50.0896 103.753 50.6618L103.984 50.4021C104.083 50.2905 104.254 50.2803 104.366 50.3797C104.477 50.4785 104.487 50.6496 104.388 50.7612L104.174 51.0026C104.581 51.3387 104.995 51.6985 105.386 52.0678L105.525 52.6893L101.117 49.3957C101.021 49.3322 100.978 49.2165 101.002 49.1104Z" fill="#D7441E"/>
<path fill-rule="evenodd" clip-rule="evenodd" d="M75.2856 59.5546L79.0316 48.9192C79.0938 48.7427 79.2872 48.65 79.463 48.7123C79.6389 48.7745 79.7315 48.9672 79.67 49.1437L75.9477 59.7101C75.7279 59.6601 75.5074 59.608 75.2856 59.5546ZM65.0986 55.2851C65.0986 55.2851 66.5486 56.0649 67.7963 56.7101C69.3775 57.5291 71.0337 58.2946 70.4535 58.0491C70.4535 58.0491 70.2918 58.2101 70.0267 58.5435C68.6045 57.9064 66.9672 57.0476 65.712 56.3631L65.0986 55.2851ZM58.1328 44.2153C59.2183 39.0089 63.276 36.0507 67.9965 34.4053C74.6688 32.0794 82.6578 32.3946 85.1567 32.5665C85.5239 32.6529 86.0575 32.7673 86.4011 32.8655C86.4207 32.9142 86.5715 33.0075 86.5661 33.063C86.5465 33.2487 86.8042 33.3846 86.6182 33.3655C86.6182 33.3655 76.2425 32.7099 68.219 35.0439C63.2375 36.493 59.7938 40.1029 58.6488 44.7993C58.4716 44.6319 58.2985 44.4359 58.1328 44.2153Z" fill="#D7441E"/>
<path fill-rule="evenodd" clip-rule="evenodd" d="M83.0938 50.527C81.8474 50.3356 80.2662 49.8169 78.5985 49.1386C73.7116 47.153 68.0544 43.8299 68.0544 43.8299C67.8935 43.7353 67.84 43.5279 67.934 43.367C68.0287 43.2062 68.2363 43.1522 68.3973 43.2468C68.3973 43.2468 74.0065 46.543 78.8528 48.5123C80.6016 49.2231 83.1851 49.8737 83.0336 49.8581L83.0938 50.527Z" fill="#8A2208"/>
<path fill-rule="evenodd" clip-rule="evenodd" d="M85.8565 31.8889L84.838 29.3545C84.838 29.3545 74.8492 32.9263 72.3192 24.7239C66.5849 27.0394 60.1994 28.732 53.8856 29.6479C51.246 30.0321 48.6416 28.7523 47.333 26.4278C47.3303 26.4295 47.3303 26.4295 47.3303 26.4295C46.2232 24.4633 46.5769 21.9986 48.1919 20.4228C49.8156 18.8562 52.5851 16.8296 57.3144 14.4981C57.3144 14.4981 62.0518 11.9929 64.8259 10.526C66.0656 9.87067 67.5351 9.81359 68.8214 10.3709C71.5543 11.5546 76.0693 13.5106 76.0693 13.5106L76.5968 12.1792C79.732 12.7013 82.8126 13.6511 85.8329 14.8265C89.0405 16.0788 91.5259 18.6907 92.6167 21.9561C94.2304 26.7855 96.7042 34.2836 98.5667 40.3402L90.7813 42.7144C89.0926 39.1729 87.3802 35.6601 85.8836 31.8933L85.8565 31.8889Z" fill="#D7441E"/>
<path fill-rule="evenodd" clip-rule="evenodd" d="M83.3933 29.752C83.1458 28.5155 83.0876 27.2177 83.1106 25.8938C83.1113 25.8209 83.1641 25.7591 83.2358 25.7457C83.3074 25.7322 83.3785 25.7709 83.4062 25.8383C84.0662 27.4472 85.6826 31.385 85.6826 31.385H85.6576L84.8419 29.355C84.8419 29.355 84.2813 29.5554 83.3933 29.752ZM61.9887 21.7511L53.6778 26.4329C53.5148 26.5244 53.4573 26.7308 53.5486 26.8934C53.6406 27.056 53.8468 27.1137 54.0098 27.022L62.3208 22.3404C62.4838 22.2488 62.5412 22.0424 62.4493 21.8798C62.358 21.7171 62.1517 21.6595 61.9887 21.7511ZM70.5729 25.4044C70.8874 23.1298 71.6353 21.5348 72.1561 20.655C72.1892 20.6064 72.2535 20.5897 72.3069 20.6157C72.3596 20.6417 72.386 20.7026 72.3678 20.7589C71.8301 22.6917 72.292 24.6015 72.3218 24.7188L72.3231 24.7245C71.7462 24.9575 71.1626 25.1841 70.5729 25.4044Z" fill="#8A2208"/>
<path fill-rule="evenodd" clip-rule="evenodd" d="M57.6746 14.3061L64.823 10.526C66.0626 9.87067 67.5322 9.81359 68.8185 10.3709L75.8695 13.4255C75.9168 13.457 75.9601 13.4854 75.9987 13.5106C77.1741 14.2808 76.2455 15.0423 75.9168 14.9337C76.7196 15.3152 76.6925 15.9491 76.5032 16.2238C76.1914 16.677 75.0755 16.5116 75.0755 16.5116C75.3859 16.6224 75.6707 17.2281 75.4299 17.6774C75.0431 18.3998 73.9847 17.9609 73.9847 17.9609C74.1767 18.9683 73.1353 18.9716 71.8645 18.7025C70.8805 18.4941 70.4294 18.2737 69.5922 18.0648C68.2389 21.6734 64.1981 21.2566 64.1981 21.2566L61.5355 22.766L57.6746 14.3061Z" fill="url(#paint3_linear_96_14276)"/>
<path fill-rule="evenodd" clip-rule="evenodd" d="M73.9853 17.9821L69.4602 16.2255C69.3209 16.1715 69.2519 16.0146 69.306 15.8754C69.3601 15.7362 69.517 15.6671 69.6564 15.7211L75.2561 17.895C74.7948 18.2984 73.9812 17.9611 73.9812 17.9611C73.9826 17.9682 73.9839 17.9752 73.9853 17.9821ZM75.1404 16.5445L69.9959 14.5472C69.8565 14.4932 69.7876 14.3364 69.8417 14.1972C69.8958 14.058 70.0527 13.9889 70.192 14.0429L76.0886 16.3321C76.1427 16.3531 76.1859 16.3895 76.2157 16.4345C75.7694 16.6151 75.0721 16.5118 75.0721 16.5118C75.0951 16.52 75.1181 16.531 75.1404 16.5445ZM75.9682 14.9437L70.6126 12.8646C70.4733 12.8105 70.4037 12.6536 70.4578 12.5144C70.5119 12.3753 70.6688 12.3061 70.8081 12.3602L76.5079 14.5729C76.3895 14.8061 76.1346 14.9536 75.9682 14.9437Z" fill="#D7441E"/>
<path fill-rule="evenodd" clip-rule="evenodd" d="M51.1097 81.5055C50.7269 81.2479 50.474 80.8103 50.474 80.3146V77.4464C50.474 76.6552 51.1165 76.0127 51.9084 76.0127H73.6856C74.4769 76.0127 75.1194 76.6552 75.1194 77.4464V80.3146C75.1194 80.8103 74.8671 81.2479 74.4837 81.5055C74.8671 81.7632 75.1194 82.2008 75.1194 82.6965V85.5646C75.1194 86.3566 74.4769 86.9991 73.6856 86.9991H51.9084C51.1165 86.9991 50.474 86.3566 50.474 85.5646V82.6965C50.474 82.2008 50.7269 81.7632 51.1097 81.5055Z" fill="#FFDBA3"/>
<path fill-rule="evenodd" clip-rule="evenodd" d="M68.6118 80.9246H74.9845C74.8736 81.1606 74.6998 81.3615 74.4848 81.5055C74.5287 81.5353 74.5706 81.5671 74.6112 81.6009H72.5465V86.9991H71.8702V81.6009H66.2171V86.9991H65.5408V81.6009H64.6779V86.9991H64.0016V81.6009H55.2693V86.9991H54.593V81.6009H50.985C51.0249 81.5671 51.0668 81.5353 51.1108 81.5055C50.8964 81.3615 50.7226 81.1606 50.6117 80.9246H58.5277V76.0127H59.204V80.9246H60.0669V76.0127H60.7432V80.9246H67.9356V76.0127H68.6118V80.9246Z" fill="#FDA425"/>
<defs>
<linearGradient id="paint0_linear_96_14276" x1="22.5399" y1="58.5455" x2="22.4027" y2="97.2014" gradientUnits="userSpaceOnUse">
<stop stop-color="#A8CFCC"/>
<stop offset="1" stop-color="#59A09B"/>
</linearGradient>
<linearGradient id="paint1_linear_96_14276" x1="26.9779" y1="28.2526" x2="28.7641" y2="62.5705" gradientUnits="userSpaceOnUse">
<stop stop-color="#82B5B2"/>
<stop offset="0.45" stop-color="#A7C6C1"/>
<stop offset="1" stop-color="#FFF0E6"/>
</linearGradient>
<linearGradient id="paint2_linear_96_14276" x1="88.3676" y1="46.5635" x2="50.2187" y2="12.759" gradientUnits="userSpaceOnUse">
<stop stop-color="#E86135"/>
<stop offset="0.48" stop-color="#EE734F"/>
<stop offset="1" stop-color="#FFA396"/>
</linearGradient>
<linearGradient id="paint3_linear_96_14276" x1="67.1467" y1="17.4994" x2="69.8835" y2="-0.470088" gradientUnits="userSpaceOnUse">
<stop stop-color="#E86135"/>
<stop offset="1" stop-color="#FFA396"/>
</linearGradient>
</defs>
</svg>
