<svg width="29" height="34" viewBox="0 0 29 34" fill="none" xmlns="http://www.w3.org/2000/svg">
<path d="M14.0891 0.78125C13.0203 0.802771 12.2527 1.01081 11.7433 1.38383L4.76342 5.12129L0.882499 10.4003C0.0647077 11.6629 0.645771 14.1019 3.19958 12.5381L5.99728 8.85085C9.54822 5.78843 16.7936 7.19374 13.3574 13.3415C11.6716 16.8996 12.4607 18.6357 14.6343 19.3674L15.6243 16.0388C17.3388 12.1794 20.5382 11.4836 20.4091 8.37021L28.0992 8.92258L28.0274 0.881681L14.0891 0.78125ZM10.2082 8.19805C8.95999 8.17653 7.7333 8.69303 6.84377 9.43908L4.03889 13.1263C4.80647 13.7361 5.58121 13.4061 6.34879 12.6672C7.25267 13.1263 7.95568 12.4161 8.52957 10.9958C8.7663 10.0273 9.11781 9.34583 10.2082 8.19805ZM4.498 15.0847C4.46931 15.0847 4.43344 15.0847 4.40474 15.0919C4.16801 15.1421 3.88824 15.3932 3.70173 15.9671C3.50804 16.541 3.465 17.3588 3.63717 18.2339C3.80933 19.1019 4.16801 19.8408 4.56974 20.2999C4.95711 20.7519 5.31579 20.881 5.55252 20.8308C5.79642 20.7877 6.06902 20.5295 6.25553 19.9628C6.44922 19.3889 6.49944 18.5639 6.32727 17.6959C6.14793 16.8207 5.78925 16.0818 5.3947 15.6299C5.05037 15.2282 4.73473 15.0847 4.498 15.0847ZM10.4234 22.7461C9.85669 22.7533 9.1465 22.9326 8.45066 23.2698C7.65439 23.6644 7.03028 24.2095 6.69312 24.7117C6.35597 25.2067 6.32727 25.5797 6.43487 25.8021C6.54248 26.0173 6.85812 26.2253 7.4607 26.254C8.06328 26.2899 8.8739 26.1249 9.67017 25.7304C10.4664 25.3358 11.0905 24.7978 11.4277 24.2956C11.7649 23.8007 11.7936 23.4205 11.686 23.2052C11.5784 22.9829 11.2627 22.782 10.6601 22.7533C10.5812 22.7461 10.5095 22.7461 10.4234 22.7461ZM3.42196 29.6041C3.0848 29.6113 2.77633 29.6615 2.50374 29.7404C1.89398 29.9197 1.54247 30.2426 1.42769 30.6228C1.30574 31.0101 1.42769 31.4692 1.83659 31.9642C2.25266 32.452 2.9485 32.9183 3.80933 33.1766C4.66299 33.4348 5.49513 33.4276 6.11206 33.2411C6.72899 33.0618 7.0805 32.739 7.19528 32.3588C7.31006 31.9714 7.19528 31.5123 6.77921 31.0173C6.37031 30.5295 5.67447 30.0632 4.81364 29.805C4.32583 29.6615 3.85237 29.5969 3.42196 29.6041Z" fill="white"/>
</svg>
