<svg width="32" height="32" viewBox="0 0 32 32" fill="none" xmlns="http://www.w3.org/2000/svg">
<path d="M7.65537 15.2757L10.5536 16.2418C12.4694 16.879 13.4252 17.1997 14.1117 17.8862C14.7983 18.5728 15.1189 19.5306 15.7561 21.4423L16.7222 24.3405C18.3338 29.1792 19.1395 31.5965 20.6215 31.5965C22.1015 31.5965 22.9093 29.1792 24.5209 24.3405L30.3544 6.844C31.489 3.44008 32.0564 1.73811 31.1581 0.839853C30.2598 -0.0584064 28.5579 0.508915 25.156 1.6415L7.65332 7.47916C2.82081 9.08862 0.399414 9.89439 0.399414 11.3764C0.399414 12.8584 2.81875 13.6642 7.65537 15.2757Z" fill="white"/>
<path d="M11.4233 19.2744L7.18506 17.8623C6.88849 17.7635 6.57327 17.7336 6.2634 17.7749C5.95353 17.8162 5.65716 17.9276 5.39685 18.1008L3.15645 19.593C2.89124 19.7697 2.68309 20.0196 2.55731 20.3124C2.43154 20.6053 2.39356 20.9283 2.448 21.2423C2.50244 21.5563 2.64694 21.8477 2.86395 22.0811C3.08095 22.3145 3.36109 22.4798 3.6703 22.5569L7.68864 23.5599C7.86947 23.6051 8.03461 23.6985 8.1664 23.8303C8.29819 23.9621 8.39166 24.1273 8.43681 24.3081L9.43985 28.3264C9.51696 28.6356 9.68225 28.9158 9.91564 29.1328C10.149 29.3498 10.4404 29.4943 10.7544 29.5487C11.0684 29.6032 11.3915 29.5652 11.6843 29.4394C11.9771 29.3137 12.2271 29.1055 12.4038 28.8403L13.896 26.5999C14.0691 26.3396 14.1806 26.0432 14.2219 25.7333C14.2632 25.4235 14.2333 25.1082 14.1344 24.8117L12.7223 20.5734C12.6214 20.271 12.4515 19.9962 12.226 19.7707C12.0006 19.5452 11.7258 19.3753 11.4233 19.2744Z" fill="white"/>
</svg>
