<svg width="317" height="104" viewBox="0 0 317 104" fill="none" xmlns="http://www.w3.org/2000/svg">
<g clip-path="url(#clip0_174_43107)">
<path d="M0 10C0 4.47715 4.47715 0 10 0H307C312.523 0 317 4.47715 317 10V104H0V10Z" fill="url(#paint0_linear_174_43107)"/>
<g filter="url(#filter0_d_174_43107)">
<rect x="55.916" y="31.6719" width="204.59" height="60.3279" rx="6.77803" fill="white"/>
</g>
<g filter="url(#filter1_d_174_43107)">
<rect x="40.8369" y="24.459" width="235.41" height="62.9508" rx="6.77803" fill="white"/>
</g>
<g filter="url(#filter2_d_174_43107)">
<rect x="31" y="12" width="255.082" height="70.1639" rx="6.77803" fill="white"/>
</g>
<rect x="42.1328" y="27.4688" width="30.7006" height="30.7006" rx="15.3503" fill="#FFF6F4"/>
<g clip-path="url(#clip1_174_43107)">
<path d="M63.3617 38.4967C61.5201 39.6466 59.6865 40.8178 57.8503 41.9859C57.8179 42.0041 57.7045 42.0797 57.5587 42.1736C57.4237 42.2613 57.2589 42.3672 57.1104 42.4641C57.0915 42.452 57.078 42.4429 57.0753 42.4399C56.9538 42.3582 56.8053 42.2613 56.6757 42.1766C56.5434 42.0888 56.4299 42.0132 56.384 41.9859C54.5478 40.8208 52.7143 39.6466 50.8726 38.4967C50.6215 38.3393 50.5243 38.1517 50.5459 37.7522C50.5729 37.3043 50.5513 36.8504 50.5513 36.3965C50.554 35.3524 51.0347 34.8833 51.6827 35.2949C53.2894 36.3208 54.888 37.3679 56.5055 38.3605C56.7567 38.5148 56.9592 38.7055 57.1185 38.9325C57.2778 38.7055 57.4831 38.5148 57.7342 38.3605C59.349 37.3679 60.9503 36.3208 62.5543 35.2949C63.2024 34.8833 63.6831 35.3524 63.6858 36.3965C63.6858 36.8474 63.6642 37.3013 63.6912 37.7522C63.7128 38.1517 63.6128 38.3393 63.3617 38.4967Z" fill="#F69E1E"/>
<path d="M63.6885 47.2354C63.6615 48.0888 63.6831 48.9453 63.6831 49.8864C62.4868 49.1238 61.3554 48.4036 60.224 47.6833C59.1897 47.0236 58.1555 46.3578 57.1186 45.7072C56.0816 46.3548 55.0474 47.0206 54.0105 47.6833C52.879 48.4036 51.7476 49.1238 50.5513 49.8864C50.5513 48.9453 50.5729 48.0888 50.5459 47.2354C50.5216 46.491 50.7188 46.0371 51.1967 45.7617C51.8502 45.3864 52.4902 44.9476 53.1734 44.5088C53.0681 44.4362 53.0086 44.3877 52.9465 44.3454C52.3174 43.9459 51.6855 43.5434 51.0536 43.147C50.7107 42.9351 50.5486 42.5629 50.5513 42.0212C50.554 41.2495 50.554 40.4778 50.554 39.7061V39.1523C50.5567 39.1554 50.5621 39.1584 50.5648 39.1584C50.6053 39.343 50.7053 39.4641 50.8727 39.5669C52.7143 40.7169 54.5478 41.8881 56.3841 43.0562C56.43 43.0865 56.5434 43.1591 56.6757 43.2469C56.8053 43.3316 56.9538 43.4284 57.0754 43.5101C57.0781 43.5132 57.0916 43.5192 57.1105 43.5343C57.259 43.4375 57.4237 43.3316 57.5587 43.2438C57.7045 43.15 57.818 43.0774 57.8504 43.0562C59.6866 41.8911 61.5201 40.7169 63.3618 39.5669C63.5292 39.4641 63.6291 39.346 63.6669 39.1614C63.6696 39.1584 63.675 39.1554 63.6804 39.1554V39.7092C63.6804 40.4809 63.6804 41.2526 63.6831 42.0243C63.6858 42.5659 63.5211 42.9382 63.1808 43.15C62.549 43.5434 61.9198 43.9459 61.2879 44.3484C61.2258 44.3877 61.1664 44.4362 61.0611 44.5118C61.7442 44.9476 62.3815 45.3894 63.035 45.7647C63.5157 46.034 63.7128 46.491 63.6885 47.2354Z" fill="#EB1D25"/>
</g>
<circle cx="68.2477" cy="29.0748" r="2.30333" fill="#DD3138"/>
<path d="M87.5386 28.543H86.744V23.614H88.8407C89.8706 23.614 90.6283 24.2246 90.6283 25.284C90.6283 26.3433 89.8706 26.9539 88.8407 26.9539H87.5386V28.543ZM88.9363 24.3276H87.5386V26.2404H88.9363C89.5837 26.2404 89.8412 25.9902 89.8412 25.284C89.8412 24.5778 89.5837 24.3276 88.9363 24.3276ZM92.1945 28.6165C91.5397 28.6165 91.0321 28.2781 91.0321 27.6381C91.0321 27.0349 91.4735 26.7185 92.2533 26.6082L93.5334 26.4169V26.2183C93.5334 25.6739 93.2833 25.512 92.7094 25.512C92.1283 25.512 91.9002 25.696 91.9002 26.1815V26.2918H91.1351V26.2183C91.1351 25.4017 91.7751 24.8132 92.7536 24.8132C93.7761 24.8132 94.2911 25.4311 94.2911 26.3213V28.543H93.5554V27.9692H93.5187C93.3053 28.3149 92.886 28.6165 92.1945 28.6165ZM91.8046 27.5793C91.8046 27.8662 91.9885 27.9839 92.452 27.9839C92.9669 27.9839 93.5334 27.7779 93.5334 27.0422V26.976L92.371 27.1526C91.9517 27.2114 91.8046 27.3071 91.8046 27.5793ZM95.616 29.7936C95.4174 29.7936 95.1893 29.7642 95.0642 29.7274V29.08H95.5645C95.8808 29.08 95.9912 29.0285 96.1089 28.7563L96.2487 28.4473L94.6964 24.8867H95.5718L96.3075 26.6597L96.6386 27.4542H96.6974L96.999 26.6597L97.6685 24.8867H98.5439L96.8151 28.977C96.5429 29.6244 96.1898 29.7936 95.616 29.7936ZM99.8693 28.543H99.0747V24.8867H99.803V25.5709H99.8325C100.002 25.181 100.384 24.8132 101.083 24.8132C101.723 24.8132 102.12 25.1074 102.297 25.5709H102.319C102.488 25.1884 102.863 24.8132 103.584 24.8132C104.526 24.8132 104.945 25.4164 104.945 26.2477V28.543H104.151V26.4243C104.151 25.7695 103.952 25.4973 103.29 25.4973C102.687 25.4973 102.407 25.7475 102.407 26.4169V28.543H101.613V26.4243C101.613 25.7695 101.414 25.4973 100.752 25.4973C100.149 25.4973 99.8693 25.7475 99.8693 26.4096V28.543ZM107.464 28.6165C106.258 28.6165 105.691 27.8514 105.691 26.7112C105.691 25.5783 106.368 24.8132 107.457 24.8132C108.443 24.8132 109.134 25.4017 109.134 26.4022C109.134 26.5935 109.112 26.7921 109.09 26.9024H106.434C106.464 27.5719 106.707 27.9103 107.472 27.9103C108.082 27.9103 108.318 27.7043 108.318 27.3733V27.3144H109.105V27.3806C109.105 28.131 108.45 28.6165 107.464 28.6165ZM107.442 25.4826C106.751 25.4826 106.486 25.8063 106.442 26.3728H108.377C108.406 25.7475 108.068 25.4826 107.442 25.4826ZM110.71 28.543H109.915V24.8867H110.644V25.5709H110.673C110.842 25.181 111.232 24.8132 111.946 24.8132C112.895 24.8132 113.321 25.4164 113.321 26.2477V28.543H112.527V26.4243C112.527 25.7695 112.321 25.4973 111.652 25.4973C111.004 25.4973 110.71 25.7475 110.71 26.4316V28.543ZM115.716 28.543C114.9 28.543 114.473 28.2413 114.473 27.4174V25.5488H113.863V24.8867H114.488L114.657 23.9819H115.268V24.8867H116.371V25.5488H115.268V27.3806C115.268 27.7632 115.43 27.8294 115.922 27.8294H116.371V28.4768C116.217 28.5135 115.967 28.543 115.716 28.543ZM119.414 28.543H118.619V23.614H120.738C121.827 23.614 122.511 24.1511 122.511 25.0854C122.511 25.9019 122.011 26.3948 121.142 26.439V26.4978C121.503 26.6155 121.716 26.8362 121.9 27.1746L122.636 28.543H121.716L121.017 27.2703C120.789 26.8436 120.583 26.645 119.995 26.645H119.414V28.543ZM119.414 24.3276V25.9902H120.833C121.473 25.9902 121.716 25.7548 121.716 25.1589C121.716 24.5778 121.473 24.3276 120.833 24.3276H119.414ZM124.752 28.6165C123.546 28.6165 122.979 27.8514 122.979 26.7112C122.979 25.5783 123.656 24.8132 124.745 24.8132C125.731 24.8132 126.422 25.4017 126.422 26.4022C126.422 26.5935 126.4 26.7921 126.378 26.9024H123.722C123.752 27.5719 123.995 27.9103 124.76 27.9103C125.37 27.9103 125.606 27.7043 125.606 27.3733V27.3144H126.393V27.3806C126.393 28.131 125.738 28.6165 124.752 28.6165ZM124.73 25.4826C124.039 25.4826 123.774 25.8063 123.73 26.3728H125.665C125.694 25.7475 125.356 25.4826 124.73 25.4826ZM128.88 28.6239C127.74 28.6239 127.092 27.8514 127.092 26.7185C127.092 25.5783 127.762 24.8132 128.909 24.8132C129.873 24.8132 130.535 25.4091 130.535 26.2845V26.3507H129.748V26.3066C129.748 25.7695 129.468 25.5268 128.858 25.5268C128.152 25.5268 127.879 25.924 127.879 26.7185C127.879 27.513 128.152 27.9029 128.858 27.9029C129.468 27.9029 129.748 27.6675 129.748 27.1305V27.0864H130.535V27.1526C130.535 28.0206 129.866 28.6239 128.88 28.6239ZM132.942 28.6165C131.736 28.6165 131.169 27.8514 131.169 26.7112C131.169 25.5783 131.846 24.8132 132.935 24.8132C133.92 24.8132 134.612 25.4017 134.612 26.4022C134.612 26.5935 134.59 26.7921 134.568 26.9024H131.912C131.942 27.5719 132.184 27.9103 132.949 27.9103C133.56 27.9103 133.795 27.7043 133.795 27.3733V27.3144H134.583V27.3806C134.583 28.131 133.928 28.6165 132.942 28.6165ZM132.92 25.4826C132.228 25.4826 131.964 25.8063 131.919 26.3728H133.854C133.884 25.7475 133.545 25.4826 132.92 25.4826ZM136.136 24.4233H135.349L135.342 23.614H136.136V24.4233ZM136.143 28.543H135.349V24.8647H136.143V28.543ZM139.053 28.543H138.052L136.588 24.8867H137.471L138.538 27.7852H138.589L139.663 24.8867H140.524L139.053 28.543ZM142.529 28.6165C141.322 28.6165 140.756 27.8514 140.756 26.7112C140.756 25.5783 141.433 24.8132 142.522 24.8132C143.507 24.8132 144.199 25.4017 144.199 26.4022C144.199 26.5935 144.177 26.7921 144.155 26.9024H141.499C141.528 27.5719 141.771 27.9103 142.536 27.9103C143.147 27.9103 143.382 27.7043 143.382 27.3733V27.3144H144.169V27.3806C144.169 28.131 143.515 28.6165 142.529 28.6165ZM142.507 25.4826C141.815 25.4826 141.55 25.8063 141.506 26.3728H143.441C143.471 25.7475 143.132 25.4826 142.507 25.4826ZM146.48 28.6165C145.435 28.6165 144.869 27.8735 144.869 26.7112C144.869 25.5562 145.428 24.8132 146.436 24.8132C147.083 24.8132 147.473 25.1221 147.635 25.4532H147.657V23.614H148.444V28.543H147.716V27.9397H147.686C147.51 28.3591 147.105 28.6165 146.48 28.6165ZM145.663 26.7112C145.663 27.616 145.95 27.9397 146.656 27.9397C147.304 27.9397 147.657 27.6528 147.657 27.0422V26.3875C147.657 25.7769 147.304 25.49 146.656 25.49C145.958 25.49 145.663 25.8137 145.663 26.7112Z" fill="#3B3D4B"/>
<path d="M88.3467 43.6152H87.8633V41.8963L86.1243 39.1166H86.6883L87.6753 40.7079L88.0983 41.4263H88.1319L88.5482 40.7079L89.5285 39.1166H90.0858L88.3467 41.9098V43.6152ZM91.4255 43.6824C90.4519 43.6824 89.8141 42.9639 89.8141 41.9568C89.8141 40.9496 90.4519 40.2312 91.4255 40.2312C92.3924 40.2312 93.0101 40.9496 93.0101 41.9568C93.0101 42.9639 92.3924 43.6824 91.4255 43.6824ZM91.4255 43.2527C92.2245 43.2527 92.5401 42.7826 92.5401 41.9568C92.5401 41.1309 92.2245 40.6676 91.4255 40.6676C90.6131 40.6676 90.2908 41.1309 90.2908 41.9568C90.2908 42.7826 90.6131 43.2527 91.4255 43.2527ZM94.843 43.6824C93.9768 43.6824 93.5739 43.0848 93.5739 42.2925V40.2983H94.0574V42.2253C94.0574 42.9438 94.3461 43.2594 94.9974 43.2594C95.6084 43.2594 96.0247 42.9371 96.0247 42.1582V40.2983H96.5014V43.6152H96.065V42.8834H96.0448C95.9105 43.2661 95.5345 43.6824 94.843 43.6824ZM97.2192 40.6676H97.0715V40.352H97.2057C97.2998 40.352 97.3468 40.3319 97.3468 40.2177V40.0499H97.0849V39.1166H97.6758V40.211C97.6758 40.5266 97.5012 40.6676 97.2192 40.6676ZM99.9009 43.6152H99.3033L97.947 40.2983H98.4707L99.592 43.1452H99.6256L100.74 40.2983H101.257L99.9009 43.6152ZM102.932 43.6824C101.911 43.6824 101.381 42.9639 101.381 41.9568C101.381 40.9496 101.978 40.2312 102.925 40.2312C103.724 40.2312 104.382 40.7146 104.382 41.6949C104.382 41.8493 104.369 41.9971 104.348 42.0911H101.837C101.857 42.8229 102.146 43.2527 102.938 43.2527C103.61 43.2527 103.878 42.9505 103.878 42.5476V42.5074H104.355V42.5544C104.355 43.1922 103.778 43.6824 102.932 43.6824ZM102.912 40.6475C102.173 40.6475 101.878 41.0705 101.837 41.7419H103.925C103.952 40.9563 103.563 40.6475 102.912 40.6475ZM106.759 43.6152H106.275V40.258H106.712V40.8153H106.745C106.853 40.5065 107.175 40.2312 107.665 40.2312C108.35 40.2312 108.612 40.7213 108.612 41.292V41.48H108.129V41.3659C108.129 40.8489 107.967 40.6475 107.491 40.6475C106.974 40.6475 106.759 40.8825 106.759 41.4196V43.6152ZM110.518 43.6824C109.498 43.6824 108.967 42.9639 108.967 41.9568C108.967 40.9496 109.565 40.2312 110.512 40.2312C111.311 40.2312 111.969 40.7146 111.969 41.6949C111.969 41.8493 111.955 41.9971 111.935 42.0911H109.424C109.444 42.8229 109.733 43.2527 110.525 43.2527C111.196 43.2527 111.465 42.9505 111.465 42.5476V42.5074H111.942V42.5544C111.942 43.1922 111.364 43.6824 110.518 43.6824ZM110.498 40.6475C109.76 40.6475 109.464 41.0705 109.424 41.7419H111.512C111.539 40.9563 111.149 40.6475 110.498 40.6475ZM114.06 43.6891C113.079 43.6891 112.488 42.9706 112.488 41.9635C112.488 40.9496 113.079 40.2312 114.06 40.2312C114.906 40.2312 115.476 40.775 115.476 41.5539V41.6009H115V41.5606C115 40.9832 114.691 40.6676 114.039 40.6676C113.281 40.6676 112.965 41.1443 112.965 41.9635C112.965 42.7759 113.281 43.2527 114.039 43.2527C114.691 43.2527 115 42.9371 115 42.3596V42.3194H115.476V42.3664C115.476 43.1452 114.906 43.6891 114.06 43.6891ZM117.515 43.6824C116.494 43.6824 115.964 42.9639 115.964 41.9568C115.964 40.9496 116.561 40.2312 117.508 40.2312C118.307 40.2312 118.965 40.7146 118.965 41.6949C118.965 41.8493 118.952 41.9971 118.931 42.0911H116.42C116.44 42.8229 116.729 43.2527 117.521 43.2527C118.193 43.2527 118.461 42.9505 118.461 42.5476V42.5074H118.938V42.5544C118.938 43.1922 118.361 43.6824 117.515 43.6824ZM117.494 40.6475C116.756 40.6475 116.46 41.0705 116.42 41.7419H118.508C118.535 40.9563 118.146 40.6475 117.494 40.6475ZM120.043 39.8552H119.566V39.1166H120.043V39.8552ZM120.043 43.6152H119.566V40.258H120.043V43.6152ZM122.339 43.6152H121.742L120.385 40.2983H120.909L122.03 43.1452H122.064L123.178 40.2983H123.695L122.339 43.6152ZM125.37 43.6824C124.349 43.6824 123.819 42.9639 123.819 41.9568C123.819 40.9496 124.417 40.2312 125.363 40.2312C126.162 40.2312 126.82 40.7146 126.82 41.6949C126.82 41.8493 126.807 41.9971 126.787 42.0911H124.276C124.296 42.8229 124.584 43.2527 125.377 43.2527C126.048 43.2527 126.317 42.9505 126.317 42.5476V42.5074H126.793V42.5544C126.793 43.1922 126.216 43.6824 125.37 43.6824ZM125.35 40.6475C124.611 40.6475 124.316 41.0705 124.276 41.7419H126.364C126.391 40.9563 126.001 40.6475 125.35 40.6475ZM128.797 43.6824C127.864 43.6824 127.34 43.0042 127.34 41.9568C127.34 40.9093 127.837 40.2312 128.743 40.2312C129.381 40.2312 129.791 40.5669 129.932 40.9295V39.1166H130.415V43.6152H129.986V42.9774H129.959C129.811 43.3937 129.422 43.6824 128.797 43.6824ZM127.824 41.9568C127.824 42.9706 128.22 43.2661 128.878 43.2661C129.536 43.2661 129.932 42.9236 129.932 42.2455V41.6748C129.932 40.9899 129.536 40.6475 128.878 40.6475C128.226 40.6475 127.824 40.9429 127.824 41.9568ZM132.62 43.6152V41.8896H132.096V41.4599H132.62V40.9093H132.096V40.4796H132.62V38.8211H133.318L133.956 40.4796H134.749V38.8211H135.279V40.4796H135.803V40.9093H135.279V41.4599H135.803V41.8896H135.279V43.6152H134.574L133.936 41.8896H133.144V43.6152H132.62ZM133.144 41.4599H133.775L133.574 40.9093H133.13L133.144 41.4599ZM134.749 42.6685H134.775L134.755 41.8896H134.473L134.749 42.6685ZM133.13 40.4796H133.412L133.13 39.647H133.104L133.13 40.4796ZM134.312 41.4599H134.762L134.749 40.9093H134.111L134.312 41.4599ZM137.987 43.6824C137.04 43.6824 136.402 43.1452 136.402 42.2791V42.2388H136.906V42.2791C136.906 42.7894 137.127 43.2191 138.014 43.2191C139.021 43.2191 139.222 42.6551 139.222 41.4532V41.0772H139.189C139.014 41.5338 138.564 41.9031 137.758 41.9031C136.765 41.9031 136.214 41.3458 136.214 40.493C136.214 39.6134 136.825 39.0494 137.906 39.0494C139.222 39.0494 139.712 39.7612 139.712 41.3659C139.712 42.7356 139.289 43.6824 137.987 43.6824ZM137.893 41.4868C138.739 41.4868 139.121 41.1376 139.121 40.4997C139.121 39.8417 138.732 39.5127 137.893 39.5127C137.02 39.5127 136.684 39.835 136.684 40.5065C136.684 41.1578 137.006 41.4868 137.893 41.4868ZM142.057 43.6824C140.949 43.6824 140.338 43.1654 140.338 42.3395V42.2992H140.821V42.3395C140.821 43.0042 141.238 43.2392 142.07 43.2392C142.943 43.2392 143.279 42.9774 143.279 42.1985C143.279 41.4733 142.916 41.1846 142.09 41.1846C141.493 41.1846 141.164 41.339 140.868 41.5069L140.445 41.4196L140.627 39.1166H143.514V39.553H141.05L140.902 41.1376H140.915C141.211 40.9227 141.654 40.7683 142.211 40.7683C143.145 40.7683 143.756 41.2719 143.756 42.1918C143.756 43.1251 143.185 43.6824 142.057 43.6824ZM144.463 44.233H144.315V43.9174H144.449C144.543 43.9174 144.591 43.8972 144.591 43.7831V43.6152H144.329V42.6819H144.92V43.7764C144.92 44.092 144.745 44.233 144.463 44.233ZM147.306 43.6824C146.184 43.6824 145.446 42.8095 145.446 41.3659C145.446 39.9223 146.184 39.0494 147.306 39.0494C148.434 39.0494 149.166 39.9223 149.166 41.3659C149.166 42.8095 148.434 43.6824 147.306 43.6824ZM147.306 43.2191C148.192 43.2191 148.662 42.6551 148.662 41.3659C148.662 40.0767 148.192 39.5127 147.306 39.5127C146.426 39.5127 145.956 40.0767 145.956 41.3659C145.956 42.6551 146.426 43.2191 147.306 43.2191ZM151.758 43.6824C150.637 43.6824 149.898 42.8095 149.898 41.3659C149.898 39.9223 150.637 39.0494 151.758 39.0494C152.886 39.0494 153.618 39.9223 153.618 41.3659C153.618 42.8095 152.886 43.6824 151.758 43.6824ZM151.758 43.2191C152.644 43.2191 153.114 42.6551 153.114 41.3659C153.114 40.0767 152.644 39.5127 151.758 39.5127C150.878 39.5127 150.408 40.0767 150.408 41.3659C150.408 42.6551 150.878 43.2191 151.758 43.2191ZM156.21 43.6824C155.089 43.6824 154.35 42.8095 154.35 41.3659C154.35 39.9223 155.089 39.0494 156.21 39.0494C157.338 39.0494 158.07 39.9223 158.07 41.3659C158.07 42.8095 157.338 43.6824 156.21 43.6824ZM156.21 43.2191C157.097 43.2191 157.567 42.6551 157.567 41.3659C157.567 40.0767 157.097 39.5127 156.21 39.5127C155.331 39.5127 154.861 40.0767 154.861 41.3659C154.861 42.6551 155.331 43.2191 156.21 43.2191ZM159.194 43.6152H158.603V42.6819H159.194V43.6152ZM161.58 43.6824C160.459 43.6824 159.721 42.8095 159.721 41.3659C159.721 39.9223 160.459 39.0494 161.58 39.0494C162.708 39.0494 163.44 39.9223 163.44 41.3659C163.44 42.8095 162.708 43.6824 161.58 43.6824ZM161.58 43.2191C162.467 43.2191 162.937 42.6551 162.937 41.3659C162.937 40.0767 162.467 39.5127 161.58 39.5127C160.701 39.5127 160.231 40.0767 160.231 41.3659C160.231 42.6551 160.701 43.2191 161.58 43.2191ZM166.033 43.6824C164.911 43.6824 164.173 42.8095 164.173 41.3659C164.173 39.9223 164.911 39.0494 166.033 39.0494C167.161 39.0494 167.893 39.9223 167.893 41.3659C167.893 42.8095 167.161 43.6824 166.033 43.6824ZM166.033 43.2191C166.919 43.2191 167.389 42.6551 167.389 41.3659C167.389 40.0767 166.919 39.5127 166.033 39.5127C165.153 39.5127 164.683 40.0767 164.683 41.3659C164.683 42.6551 165.153 43.2191 166.033 43.2191ZM170.478 43.6152H170.001V40.7146H169.511V40.2983H170.001V40.1707C170.001 39.4859 170.384 39.1166 171.115 39.1166H171.411V39.5127H171.028C170.645 39.5127 170.471 39.6739 170.471 40.0096V40.2983H171.411V40.7146H170.478V43.6152ZM172.27 43.6152H171.787V40.258H172.223V40.8153H172.257C172.364 40.5065 172.687 40.2312 173.177 40.2312C173.862 40.2312 174.124 40.7213 174.124 41.292V41.48H173.64V41.3659C173.64 40.8489 173.479 40.6475 173.002 40.6475C172.485 40.6475 172.27 40.8825 172.27 41.4196V43.6152ZM176.09 43.6824C175.117 43.6824 174.479 42.9639 174.479 41.9568C174.479 40.9496 175.117 40.2312 176.09 40.2312C177.057 40.2312 177.675 40.9496 177.675 41.9568C177.675 42.9639 177.057 43.6824 176.09 43.6824ZM176.09 43.2527C176.889 43.2527 177.205 42.7826 177.205 41.9568C177.205 41.1309 176.889 40.6676 176.09 40.6676C175.278 40.6676 174.955 41.1309 174.955 41.9568C174.955 42.7826 175.278 43.2527 176.09 43.2527ZM178.742 43.6152H178.259V40.2983H178.695V40.9832H178.715C178.843 40.634 179.192 40.2312 179.877 40.2312C180.481 40.2312 180.844 40.5199 180.992 40.9899H181.012C181.146 40.634 181.488 40.2312 182.173 40.2312C183.026 40.2312 183.415 40.7817 183.415 41.574V43.6152H182.939V41.6882C182.939 40.9698 182.697 40.6542 182.026 40.6542C181.394 40.6542 181.079 40.963 181.079 41.7016V43.6152H180.602V41.6882C180.602 40.9698 180.367 40.6542 179.696 40.6542C179.065 40.6542 178.742 40.963 178.742 41.7016V43.6152ZM185.917 43.6152H185.44V39.1166H186.111L187.387 41.9098L187.79 42.8834H187.83L188.233 41.9098L189.495 39.1166H190.174V43.6152H189.69V40.4997L189.71 39.8484H189.67L189.395 40.4997L188.092 43.3467H187.515L186.212 40.4997L185.937 39.8484H185.896L185.917 40.4997V43.6152ZM191.423 39.8552H190.946V39.1166H191.423V39.8552ZM191.423 43.6152H190.946V40.258H191.423V43.6152ZM193.557 43.6891C192.577 43.6891 191.986 42.9706 191.986 41.9635C191.986 40.9496 192.577 40.2312 193.557 40.2312C194.403 40.2312 194.974 40.775 194.974 41.5539V41.6009H194.497V41.5606C194.497 40.9832 194.188 40.6676 193.537 40.6676C192.778 40.6676 192.463 41.1443 192.463 41.9635C192.463 42.7759 192.778 43.2527 193.537 43.2527C194.188 43.2527 194.497 42.9371 194.497 42.3596V42.3194H194.974V42.3664C194.974 43.1452 194.403 43.6891 193.557 43.6891ZM196.053 43.6152H195.569V39.1166H196.053V40.916H196.08C196.207 40.6005 196.55 40.2312 197.221 40.2312C198.087 40.2312 198.457 40.8086 198.457 41.5673V43.6152H197.98V41.6882C197.98 40.9698 197.738 40.6542 197.067 40.6542C196.402 40.6542 196.053 40.963 196.053 41.7083V43.6152ZM200.128 43.6824C199.524 43.6824 199.067 43.3735 199.067 42.8162C199.067 42.2388 199.497 41.9836 200.222 41.8829L201.39 41.7218V41.48C201.39 40.8959 201.142 40.6609 200.518 40.6609C199.913 40.6609 199.631 40.8959 199.631 41.4263V41.527H199.168V41.4733C199.168 40.7817 199.698 40.2312 200.558 40.2312C201.444 40.2312 201.847 40.8019 201.847 41.5405V43.6152H201.411V43.0042L201.377 42.9975C201.182 43.3802 200.759 43.6824 200.128 43.6824ZM199.537 42.7826C199.537 43.1251 199.752 43.2795 200.262 43.2795C200.833 43.2795 201.39 42.9841 201.39 42.1985V42.0843L200.262 42.2455C199.732 42.3194 199.537 42.4268 199.537 42.7826ZM203.989 43.6824C202.969 43.6824 202.438 42.9639 202.438 41.9568C202.438 40.9496 203.036 40.2312 203.982 40.2312C204.781 40.2312 205.439 40.7146 205.439 41.6949C205.439 41.8493 205.426 41.9971 205.406 42.0911H202.895C202.915 42.8229 203.204 43.2527 203.996 43.2527C204.667 43.2527 204.936 42.9505 204.936 42.5476V42.5074H205.413V42.5544C205.413 43.1922 204.835 43.6824 203.989 43.6824ZM203.969 40.6475C203.23 40.6475 202.935 41.0705 202.895 41.7419H204.983C205.01 40.9563 204.62 40.6475 203.969 40.6475ZM206.551 43.6152H206.067V39.1166H206.551V43.6152ZM210.594 43.6152H208.586V39.1166H210.54C211.353 39.1166 211.896 39.4993 211.896 40.2379C211.896 40.7415 211.601 41.1108 211.037 41.2182V41.2585C211.695 41.3659 212.031 41.8023 212.031 42.3798C212.031 43.1587 211.467 43.6152 210.594 43.6152ZM209.063 39.553V41.0638H210.473C211.131 41.0638 211.413 40.8489 211.413 40.3117C211.413 39.7746 211.171 39.553 210.513 39.553H209.063ZM209.063 41.4733V43.1788H210.58C211.252 43.1788 211.547 42.9438 211.547 42.3261C211.547 41.7151 211.245 41.4733 210.58 41.4733H209.063ZM213.141 43.6152H212.657V39.1166H213.141V43.6152ZM215.28 43.6824C214.26 43.6824 213.729 42.9639 213.729 41.9568C213.729 40.9496 214.327 40.2312 215.274 40.2312C216.073 40.2312 216.731 40.7146 216.731 41.6949C216.731 41.8493 216.717 41.9971 216.697 42.0911H214.186C214.206 42.8229 214.495 43.2527 215.287 43.2527C215.959 43.2527 216.227 42.9505 216.227 42.5476V42.5074H216.704V42.5544C216.704 43.1922 216.126 43.6824 215.28 43.6824ZM215.26 40.6475C214.522 40.6475 214.226 41.0705 214.186 41.7419H216.274C216.301 40.9563 215.912 40.6475 215.26 40.6475ZM218.728 43.6824C217.821 43.6824 217.324 43.2997 217.324 42.5275V42.5141H217.794V42.5946C217.794 43.0512 217.982 43.2728 218.734 43.2728C219.352 43.2728 219.513 43.0982 219.513 42.7625C219.513 42.4268 219.305 42.3059 218.801 42.2119L218.251 42.1179C217.714 42.0172 217.324 41.7688 217.324 41.1846C217.324 40.6139 217.808 40.2312 218.593 40.2312C219.352 40.2312 219.909 40.6206 219.909 41.3659V41.3995H219.446V41.3458C219.446 40.9496 219.292 40.6475 218.58 40.6475C217.976 40.6475 217.788 40.8422 217.788 41.1779C217.788 41.5136 217.955 41.6278 218.452 41.7218L219.016 41.8292C219.594 41.9366 219.977 42.1918 219.977 42.7424C219.977 43.3332 219.493 43.6824 218.728 43.6824ZM221.947 43.6824C221.041 43.6824 220.544 43.2997 220.544 42.5275V42.5141H221.014V42.5946C221.014 43.0512 221.202 43.2728 221.954 43.2728C222.572 43.2728 222.733 43.0982 222.733 42.7625C222.733 42.4268 222.525 42.3059 222.021 42.2119L221.47 42.1179C220.933 42.0172 220.544 41.7688 220.544 41.1846C220.544 40.6139 221.027 40.2312 221.813 40.2312C222.572 40.2312 223.129 40.6206 223.129 41.3659V41.3995H222.666V41.3458C222.666 40.9496 222.511 40.6475 221.799 40.6475C221.195 40.6475 221.007 40.8422 221.007 41.1779C221.007 41.5136 221.175 41.6278 221.672 41.7218L222.236 41.8292C222.813 41.9366 223.196 42.1918 223.196 42.7424C223.196 43.3332 222.713 43.6824 221.947 43.6824ZM224.293 39.8552H223.817V39.1166H224.293V39.8552ZM224.293 43.6152H223.817V40.258H224.293V43.6152ZM225.507 43.6152H225.024V40.2983H225.46V40.9832H225.48C225.608 40.634 225.984 40.2312 226.669 40.2312C227.521 40.2312 227.911 40.7817 227.911 41.5808V43.6152H227.434V41.6882C227.434 40.9698 227.199 40.6542 226.521 40.6542C225.863 40.6542 225.507 40.963 225.507 41.7016V43.6152ZM229.933 43.3198C229.02 43.3198 228.496 42.7155 228.496 41.7755C228.496 40.8355 229.013 40.2312 229.939 40.2312C230.524 40.2312 230.967 40.5199 231.114 40.9429H231.141V40.2983H231.571V43.4742C231.571 44.374 230.994 44.8238 230.121 44.8238C229.275 44.8238 228.677 44.3807 228.677 43.6152H229.154C229.154 44.1591 229.429 44.3941 230.127 44.3941C230.839 44.3941 231.088 44.139 231.088 43.4742V42.6282H231.081C230.926 43.0109 230.51 43.3198 229.933 43.3198ZM228.979 41.7755C228.979 42.6551 229.402 42.9035 230.047 42.9035C230.644 42.9035 231.088 42.5611 231.088 41.8762V41.6748C231.088 40.9899 230.638 40.6475 230.02 40.6475C229.389 40.6475 228.979 40.9026 228.979 41.7755ZM234.085 43.6152H233.608V39.1166H234.125L236.146 42.1112L236.623 42.8162H236.663V39.1166H237.147V43.6152H236.623L234.588 40.6206L234.118 39.929H234.085V43.6152ZM239.286 43.6824C238.265 43.6824 237.735 42.9639 237.735 41.9568C237.735 40.9496 238.332 40.2312 239.279 40.2312C240.078 40.2312 240.736 40.7146 240.736 41.6949C240.736 41.8493 240.723 41.9971 240.702 42.0911H238.191C238.211 42.8229 238.5 43.2527 239.292 43.2527C239.964 43.2527 240.232 42.9505 240.232 42.5476V42.5074H240.709V42.5544C240.709 43.1922 240.132 43.6824 239.286 43.6824ZM239.266 40.6475C238.527 40.6475 238.232 41.0705 238.191 41.7419H240.279C240.306 40.9563 239.917 40.6475 239.266 40.6475ZM241.841 43.6152H241.357V40.2983H241.794V40.9832H241.814C241.942 40.634 242.318 40.2312 243.002 40.2312C243.855 40.2312 244.245 40.7817 244.245 41.5808V43.6152H243.768V41.6882C243.768 40.9698 243.533 40.6542 242.855 40.6542C242.197 40.6542 241.841 40.963 241.841 41.7016V43.6152ZM246.38 43.6824C245.36 43.6824 244.829 42.9639 244.829 41.9568C244.829 40.9496 245.427 40.2312 246.374 40.2312C247.173 40.2312 247.831 40.7146 247.831 41.6949C247.831 41.8493 247.817 41.9971 247.797 42.0911H245.286C245.306 42.8229 245.595 43.2527 246.387 43.2527C247.059 43.2527 247.327 42.9505 247.327 42.5476V42.5074H247.804V42.5544C247.804 43.1922 247.226 43.6824 246.38 43.6824ZM246.36 40.6475C245.622 40.6475 245.326 41.0705 245.286 41.7419H247.374C247.401 40.9563 247.012 40.6475 246.36 40.6475ZM248.842 43.6152H248.251V42.6819H248.842V43.6152ZM251.192 43.6152H250.715V39.1166H253.723V39.553H251.192V41.2652H253.623V41.7083H251.192V43.6152ZM255.504 43.6824C254.638 43.6824 254.235 43.0848 254.235 42.2925V40.2983H254.718V42.2253C254.718 42.9438 255.007 43.2594 255.658 43.2594C256.269 43.2594 256.686 42.9371 256.686 42.1582V40.2983H257.162V43.6152H256.726V42.8834H256.706C256.572 43.2661 256.196 43.6824 255.504 43.6824ZM258.404 43.6152H257.92V40.2983H258.357V40.9832H258.377C258.505 40.634 258.881 40.2312 259.566 40.2312C260.418 40.2312 260.808 40.7817 260.808 41.5808V43.6152H260.331V41.6882C260.331 40.9698 260.096 40.6542 259.418 40.6542C258.76 40.6542 258.404 40.963 258.404 41.7016V43.6152ZM262.85 43.6824C261.916 43.6824 261.393 43.0042 261.393 41.9568C261.393 40.9093 261.889 40.2312 262.796 40.2312C263.434 40.2312 263.843 40.5669 263.984 40.9295V39.1166H264.468V43.6152H264.038V42.9774H264.011C263.863 43.3937 263.474 43.6824 262.85 43.6824ZM261.876 41.9568C261.876 42.9706 262.272 43.2661 262.93 43.2661C263.588 43.2661 263.984 42.9236 263.984 42.2455V41.6748C263.984 40.9899 263.588 40.6475 262.93 40.6475C262.279 40.6475 261.876 40.9429 261.876 41.9568ZM266.542 43.6824C265.635 43.6824 265.138 43.2997 265.138 42.5275V42.5141H265.608V42.5946C265.608 43.0512 265.796 43.2728 266.548 43.2728C267.166 43.2728 267.327 43.0982 267.327 42.7625C267.327 42.4268 267.119 42.3059 266.616 42.2119L266.065 42.1179C265.528 42.0172 265.138 41.7688 265.138 41.1846C265.138 40.6139 265.622 40.2312 266.407 40.2312C267.166 40.2312 267.723 40.6206 267.723 41.3659V41.3995H267.26V41.3458C267.26 40.9496 267.106 40.6475 266.394 40.6475C265.79 40.6475 265.602 40.8422 265.602 41.1779C265.602 41.5136 265.77 41.6278 266.266 41.7218L266.83 41.8292C267.408 41.9366 267.791 42.1918 267.791 42.7424C267.791 43.3332 267.307 43.6824 266.542 43.6824ZM86.9434 54.6152H86.46V50.1166H86.9434V51.916H86.9703C87.0979 51.6005 87.4403 51.2312 88.1117 51.2312C88.9779 51.2312 89.3472 51.8086 89.3472 52.5673V54.6152H88.8705V52.6882C88.8705 51.9698 88.6288 51.6542 87.9573 51.6542C87.2926 51.6542 86.9434 51.963 86.9434 52.7083V54.6152ZM91.0187 54.6824C90.4144 54.6824 89.9578 54.3735 89.9578 53.8162C89.9578 53.2388 90.3876 52.9836 91.1127 52.8829L92.281 52.7218V52.48C92.281 51.8959 92.0326 51.6609 91.4082 51.6609C90.8039 51.6609 90.5219 51.8959 90.5219 52.4263V52.527H90.0586V52.4733C90.0586 51.7817 90.589 51.2312 91.4484 51.2312C92.3347 51.2312 92.7376 51.8019 92.7376 52.5405V54.6152H92.3012V54.0042L92.2676 53.9975C92.0729 54.3802 91.6499 54.6824 91.0187 54.6824ZM90.4279 53.7826C90.4279 54.1251 90.6427 54.2795 91.153 54.2795C91.7237 54.2795 92.281 53.9841 92.281 53.1985V53.0843L91.153 53.2455C90.6226 53.3194 90.4279 53.4268 90.4279 53.7826ZM94.7993 54.6824C93.8928 54.6824 93.3959 54.2997 93.3959 53.5275V53.5141H93.866V53.5946C93.866 54.0512 94.054 54.2728 94.806 54.2728C95.4237 54.2728 95.5848 54.0982 95.5848 53.7625C95.5848 53.4268 95.3767 53.3059 94.8731 53.2119L94.3225 53.1179C93.7854 53.0172 93.3959 52.7688 93.3959 52.1846C93.3959 51.6139 93.8794 51.2312 94.665 51.2312C95.4237 51.2312 95.981 51.6206 95.981 52.3659V52.3995H95.5177V52.3458C95.5177 51.9496 95.3633 51.6475 94.6515 51.6475C94.0472 51.6475 93.8592 51.8422 93.8592 52.1779C93.8592 52.5136 94.0271 52.6278 94.524 52.7218L95.088 52.8292C95.6654 52.9366 96.0481 53.1918 96.0481 53.7424C96.0481 54.3332 95.5647 54.6824 94.7993 54.6824ZM98.3844 54.6152H97.948V50.1166H98.4314V51.9295C98.5791 51.5669 98.9887 51.2312 99.6266 51.2312C100.533 51.2312 101.023 51.9093 101.023 52.9568C101.023 54.0042 100.506 54.6824 99.5728 54.6824C98.9484 54.6824 98.5523 54.3937 98.4045 53.9774H98.3844V54.6152ZM98.4314 53.2455C98.4314 53.9236 98.8343 54.2661 99.4923 54.2661C100.144 54.2661 100.54 53.9706 100.54 52.9568C100.54 51.9429 100.137 51.6475 99.4923 51.6475C98.8343 51.6475 98.4314 51.9899 98.4314 52.6748V53.2455ZM103.056 54.6824C102.036 54.6824 101.505 53.9639 101.505 52.9568C101.505 51.9496 102.103 51.2312 103.05 51.2312C103.849 51.2312 104.507 51.7146 104.507 52.6949C104.507 52.8493 104.493 52.9971 104.473 53.0911H101.962C101.982 53.8229 102.271 54.2527 103.063 54.2527C103.734 54.2527 104.003 53.9505 104.003 53.5476V53.5074H104.48V53.5544C104.48 54.1922 103.902 54.6824 103.056 54.6824ZM103.036 51.6475C102.298 51.6475 102.002 52.0705 101.962 52.7419H104.05C104.077 51.9563 103.687 51.6475 103.036 51.6475ZM106.577 54.6824C105.557 54.6824 105.026 53.9639 105.026 52.9568C105.026 51.9496 105.624 51.2312 106.571 51.2312C107.37 51.2312 108.028 51.7146 108.028 52.6949C108.028 52.8493 108.014 52.9971 107.994 53.0911H105.483C105.503 53.8229 105.792 54.2527 106.584 54.2527C107.256 54.2527 107.524 53.9505 107.524 53.5476V53.5074H108.001V53.5544C108.001 54.1922 107.423 54.6824 106.577 54.6824ZM106.557 51.6475C105.819 51.6475 105.523 52.0705 105.483 52.7419H107.571C107.598 51.9563 107.209 51.6475 106.557 51.6475ZM109.133 54.6152H108.649V51.2983H109.086V51.9832H109.106C109.233 51.634 109.609 51.2312 110.294 51.2312C111.147 51.2312 111.536 51.7817 111.536 52.5808V54.6152H111.06V52.6882C111.06 51.9698 110.825 51.6542 110.146 51.6542C109.488 51.6542 109.133 51.963 109.133 52.7016V54.6152ZM114.414 54.6824C113.81 54.6824 113.353 54.3735 113.353 53.8162C113.353 53.2388 113.783 52.9836 114.508 52.8829L115.677 52.7218V52.48C115.677 51.8959 115.428 51.6609 114.804 51.6609C114.199 51.6609 113.917 51.8959 113.917 52.4263V52.527H113.454V52.4733C113.454 51.7817 113.985 51.2312 114.844 51.2312C115.73 51.2312 116.133 51.8019 116.133 52.5405V54.6152H115.697V54.0042L115.663 53.9975C115.468 54.3802 115.045 54.6824 114.414 54.6824ZM113.823 53.7826C113.823 54.1251 114.038 54.2795 114.549 54.2795C115.119 54.2795 115.677 53.9841 115.677 53.1985V53.0843L114.549 53.2455C114.018 53.3194 113.823 53.4268 113.823 53.7826ZM118.181 54.6824C117.248 54.6824 116.724 54.0042 116.724 52.9568C116.724 51.9093 117.221 51.2312 118.128 51.2312C118.765 51.2312 119.175 51.5669 119.316 51.9295V50.1166H119.799V54.6152H119.37V53.9774H119.343C119.195 54.3937 118.806 54.6824 118.181 54.6824ZM117.208 52.9568C117.208 53.9706 117.604 54.2661 118.262 54.2661C118.92 54.2661 119.316 53.9236 119.316 53.2455V52.6748C119.316 51.9899 118.92 51.6475 118.262 51.6475C117.611 51.6475 117.208 51.9429 117.208 52.9568ZM121.847 54.6824C120.913 54.6824 120.39 54.0042 120.39 52.9568C120.39 51.9093 120.886 51.2312 121.793 51.2312C122.431 51.2312 122.84 51.5669 122.981 51.9295V50.1166H123.465V54.6152H123.035V53.9774H123.008C122.861 54.3937 122.471 54.6824 121.847 54.6824ZM120.873 52.9568C120.873 53.9706 121.269 54.2661 121.927 54.2661C122.585 54.2661 122.981 53.9236 122.981 53.2455V52.6748C122.981 51.9899 122.585 51.6475 121.927 51.6475C121.276 51.6475 120.873 51.9429 120.873 52.9568ZM125.606 54.6824C124.585 54.6824 124.055 53.9639 124.055 52.9568C124.055 51.9496 124.653 51.2312 125.599 51.2312C126.398 51.2312 127.056 51.7146 127.056 52.6949C127.056 52.8493 127.043 52.9971 127.023 53.0911H124.512C124.532 53.8229 124.82 54.2527 125.613 54.2527C126.284 54.2527 126.553 53.9505 126.553 53.5476V53.5074H127.029V53.5544C127.029 54.1922 126.452 54.6824 125.606 54.6824ZM125.586 51.6475C124.847 51.6475 124.552 52.0705 124.512 52.7419H126.6C126.627 51.9563 126.237 51.6475 125.586 51.6475ZM129.033 54.6824C128.1 54.6824 127.576 54.0042 127.576 52.9568C127.576 51.9093 128.073 51.2312 128.979 51.2312C129.617 51.2312 130.027 51.5669 130.168 51.9295V50.1166H130.651V54.6152H130.222V53.9774H130.195C130.047 54.3937 129.658 54.6824 129.033 54.6824ZM128.06 52.9568C128.06 53.9706 128.456 54.2661 129.114 54.2661C129.772 54.2661 130.168 53.9236 130.168 53.2455V52.6748C130.168 51.9899 129.772 51.6475 129.114 51.6475C128.462 51.6475 128.06 51.9429 128.06 52.9568ZM133.884 54.6219C133.272 54.6219 132.917 54.3802 132.917 53.6752V51.7146H132.359V51.2983H132.923L133.037 50.4523H133.4V51.2983H134.448V51.7146H133.4V53.7021C133.4 54.0915 133.581 54.1788 134.011 54.1788H134.448V54.5682C134.333 54.5884 134.125 54.6219 133.884 54.6219ZM136.256 54.6824C135.283 54.6824 134.645 53.9639 134.645 52.9568C134.645 51.9496 135.283 51.2312 136.256 51.2312C137.223 51.2312 137.841 51.9496 137.841 52.9568C137.841 53.9639 137.223 54.6824 136.256 54.6824ZM136.256 54.2527C137.055 54.2527 137.371 53.7826 137.371 52.9568C137.371 52.1309 137.055 51.6676 136.256 51.6676C135.444 51.6676 135.121 52.1309 135.121 52.9568C135.121 53.7826 135.444 54.2527 136.256 54.2527ZM140.16 55.7567C139.999 55.7567 139.824 55.7298 139.73 55.7097V55.3202H140.106C140.408 55.3202 140.509 55.2598 140.63 54.998L140.818 54.5682L139.395 51.2983H139.918L140.697 53.1448L141.046 53.9572H141.087L141.416 53.1448L142.148 51.2983H142.671L141.053 55.1457C140.838 55.6493 140.523 55.7567 140.16 55.7567ZM144.393 54.6824C143.42 54.6824 142.782 53.9639 142.782 52.9568C142.782 51.9496 143.42 51.2312 144.393 51.2312C145.36 51.2312 145.978 51.9496 145.978 52.9568C145.978 53.9639 145.36 54.6824 144.393 54.6824ZM144.393 54.2527C145.192 54.2527 145.508 53.7826 145.508 52.9568C145.508 52.1309 145.192 51.6676 144.393 51.6676C143.581 51.6676 143.259 52.1309 143.259 52.9568C143.259 53.7826 143.581 54.2527 144.393 54.2527ZM147.811 54.6824C146.945 54.6824 146.542 54.0848 146.542 53.2925V51.2983H147.025V53.2253C147.025 53.9438 147.314 54.2594 147.965 54.2594C148.576 54.2594 148.993 53.9371 148.993 53.1582V51.2983H149.469V54.6152H149.033V53.8834H149.013C148.878 54.2661 148.502 54.6824 147.811 54.6824ZM150.711 54.6152H150.227V51.258H150.664V51.8153H150.697C150.805 51.5065 151.127 51.2312 151.617 51.2312C152.302 51.2312 152.564 51.7213 152.564 52.292V52.48H152.081V52.3659C152.081 51.8489 151.919 51.6475 151.443 51.6475C150.926 51.6475 150.711 51.8825 150.711 52.4196V54.6152ZM154.607 54.6152H154.063L155.319 52.9366V52.9031L154.063 51.2983H154.62L155.681 52.6479H155.721L156.769 51.2983H157.32L156.057 52.9165V52.9568L157.32 54.6152H156.762L155.695 53.2052H155.661L154.607 54.6152ZM158.173 54.6152H157.689V51.2983H158.126V51.9832H158.146C158.273 51.634 158.623 51.2312 159.307 51.2312C159.912 51.2312 160.274 51.5199 160.422 51.9899H160.442C160.577 51.634 160.919 51.2312 161.604 51.2312C162.457 51.2312 162.846 51.7817 162.846 52.574V54.6152H162.369V52.6882C162.369 51.9698 162.128 51.6542 161.456 51.6542C160.825 51.6542 160.509 51.963 160.509 52.7016V54.6152H160.033V52.6882C160.033 51.9698 159.798 51.6542 159.126 51.6542C158.495 51.6542 158.173 51.963 158.173 52.7016V54.6152ZM164.477 54.6824C163.873 54.6824 163.417 54.3735 163.417 53.8162C163.417 53.2388 163.846 52.9836 164.571 52.8829L165.74 52.7218V52.48C165.74 51.8959 165.491 51.6609 164.867 51.6609C164.263 51.6609 163.981 51.8959 163.981 52.4263V52.527H163.517V52.4733C163.517 51.7817 164.048 51.2312 164.907 51.2312C165.793 51.2312 166.196 51.8019 166.196 52.5405V54.6152H165.76V54.0042L165.726 53.9975C165.532 54.3802 165.109 54.6824 164.477 54.6824ZM163.887 53.7826C163.887 54.1251 164.101 54.2795 164.612 54.2795C165.182 54.2795 165.74 53.9841 165.74 53.1985V53.0843L164.612 53.2455C164.081 53.3194 163.887 53.4268 163.887 53.7826ZM167.418 54.6152H166.935V51.258H167.371V51.8153H167.405C167.512 51.5065 167.834 51.2312 168.325 51.2312C169.01 51.2312 169.271 51.7213 169.271 52.292V52.48H168.788V52.3659C168.788 51.8489 168.627 51.6475 168.15 51.6475C167.633 51.6475 167.418 51.8825 167.418 52.4196V54.6152ZM170.231 54.6152H169.748V51.258H170.184V51.8153H170.218C170.325 51.5065 170.647 51.2312 171.138 51.2312C171.822 51.2312 172.084 51.7213 172.084 52.292V52.48H171.601V52.3659C171.601 51.8489 171.44 51.6475 170.963 51.6475C170.446 51.6475 170.231 51.8825 170.231 52.4196V54.6152ZM174.779 54.6824C174.174 54.6824 173.718 54.3735 173.718 53.8162C173.718 53.2388 174.147 52.9836 174.873 52.8829L176.041 52.7218V52.48C176.041 51.8959 175.792 51.6609 175.168 51.6609C174.564 51.6609 174.282 51.8959 174.282 52.4263V52.527H173.818V52.4733C173.818 51.7817 174.349 51.2312 175.208 51.2312C176.095 51.2312 176.497 51.8019 176.497 52.5405V54.6152H176.061V54.0042L176.027 53.9975C175.833 54.3802 175.41 54.6824 174.779 54.6824ZM174.188 53.7826C174.188 54.1251 174.403 54.2795 174.913 54.2795C175.484 54.2795 176.041 53.9841 176.041 53.1985V53.0843L174.913 53.2455C174.382 53.3194 174.188 53.4268 174.188 53.7826ZM178.66 54.6891C177.679 54.6891 177.088 53.9706 177.088 52.9635C177.088 51.9496 177.679 51.2312 178.66 51.2312C179.506 51.2312 180.076 51.775 180.076 52.5539V52.6009H179.6V52.5606C179.6 51.9832 179.291 51.6676 178.64 51.6676C177.881 51.6676 177.565 52.1443 177.565 52.9635C177.565 53.7759 177.881 54.2527 178.64 54.2527C179.291 54.2527 179.6 53.9371 179.6 53.3596V53.3194H180.076V53.3664C180.076 54.1452 179.506 54.6891 178.66 54.6891ZM182.135 54.6891C181.155 54.6891 180.564 53.9706 180.564 52.9635C180.564 51.9496 181.155 51.2312 182.135 51.2312C182.981 51.2312 183.552 51.775 183.552 52.5539V52.6009H183.075V52.5606C183.075 51.9832 182.766 51.6676 182.115 51.6676C181.356 51.6676 181.04 52.1443 181.04 52.9635C181.04 53.7759 181.356 54.2527 182.115 54.2527C182.766 54.2527 183.075 53.9371 183.075 53.3596V53.3194H183.552V53.3664C183.552 54.1452 182.981 54.6891 182.135 54.6891ZM185.65 54.6824C184.677 54.6824 184.039 53.9639 184.039 52.9568C184.039 51.9496 184.677 51.2312 185.65 51.2312C186.617 51.2312 187.235 51.9496 187.235 52.9568C187.235 53.9639 186.617 54.6824 185.65 54.6824ZM185.65 54.2527C186.449 54.2527 186.765 53.7826 186.765 52.9568C186.765 52.1309 186.449 51.6676 185.65 51.6676C184.838 51.6676 184.516 52.1309 184.516 52.9568C184.516 53.7826 184.838 54.2527 185.65 54.2527ZM189.068 54.6824C188.202 54.6824 187.799 54.0848 187.799 53.2925V51.2983H188.282V53.2253C188.282 53.9438 188.571 54.2594 189.222 54.2594C189.833 54.2594 190.25 53.9371 190.25 53.1582V51.2983H190.726V54.6152H190.29V53.8834H190.27C190.135 54.2661 189.759 54.6824 189.068 54.6824ZM191.968 54.6152H191.484V51.2983H191.921V51.9832H191.941C192.069 51.634 192.445 51.2312 193.129 51.2312C193.982 51.2312 194.372 51.7817 194.372 52.5808V54.6152H193.895V52.6882C193.895 51.9698 193.66 51.6542 192.982 51.6542C192.324 51.6542 191.968 51.963 191.968 52.7016V54.6152ZM196.294 54.6219C195.683 54.6219 195.327 54.3802 195.327 53.6752V51.7146H194.769V51.2983H195.333L195.448 50.4523H195.81V51.2983H196.858V51.7146H195.81V53.7021C195.81 54.0915 195.991 54.1788 196.421 54.1788H196.858V54.5682C196.743 54.5884 196.535 54.6219 196.294 54.6219Z" fill="#667085"/>
<path d="M39.7164 74.373H39.3247V71.035H38.017V70.6764H41.0296V71.035H39.7164V74.373ZM42.2646 74.4282C41.4645 74.4282 40.9404 73.8379 40.9404 73.0102C40.9404 72.1826 41.4645 71.5922 42.2646 71.5922C43.0591 71.5922 43.5667 72.1826 43.5667 73.0102C43.5667 73.8379 43.0591 74.4282 42.2646 74.4282ZM42.2646 74.0751C42.9212 74.0751 43.1805 73.6889 43.1805 73.0102C43.1805 72.3316 42.9212 71.9509 42.2646 71.9509C41.597 71.9509 41.3321 72.3316 41.3321 73.0102C41.3321 73.6889 41.597 74.0751 42.2646 74.0751ZM45.1604 74.4282C44.3935 74.4282 43.9631 73.871 43.9631 73.0102C43.9631 72.1495 44.3714 71.5922 45.1163 71.5922C45.6404 71.5922 45.977 71.8681 46.0929 72.1661V70.6764H46.4901V74.373H46.137V73.8489H46.1149C45.9936 74.191 45.6735 74.4282 45.1604 74.4282ZM44.3604 73.0102C44.3604 73.8434 44.6859 74.0861 45.2266 74.0861C45.7673 74.0861 46.0929 73.8047 46.0929 73.2475V72.7785C46.0929 72.2157 45.7673 71.9343 45.2266 71.9343C44.6914 71.9343 44.3604 72.1771 44.3604 73.0102ZM47.8357 74.4282C47.3391 74.4282 46.9639 74.1744 46.9639 73.7165C46.9639 73.242 47.3171 73.0323 47.9129 72.9495L48.873 72.8171V72.6185C48.873 72.1385 48.6688 71.9454 48.1557 71.9454C47.6591 71.9454 47.4274 72.1385 47.4274 72.5744V72.6571H47.0467V72.613C47.0467 72.0447 47.4826 71.5922 48.1888 71.5922C48.9171 71.5922 49.2482 72.0612 49.2482 72.6682V74.373H48.8895V73.871L48.8619 73.8654C48.7019 74.1799 48.3543 74.4282 47.8357 74.4282ZM47.3502 73.6889C47.3502 73.9703 47.5267 74.0972 47.946 74.0972C48.415 74.0972 48.873 73.8544 48.873 73.2089V73.1151L47.946 73.2475C47.5102 73.3082 47.3502 73.3965 47.3502 73.6889ZM50.0956 75.311C49.9631 75.311 49.8197 75.2889 49.7424 75.2724V74.9524H50.0514C50.2997 74.9524 50.3825 74.9027 50.4818 74.6875L50.6363 74.3344L49.4666 71.6474H49.8969L50.537 73.1647L50.8239 73.8323H50.857L51.1273 73.1647L51.7287 71.6474H52.1591L50.8294 74.8089C50.6528 75.2227 50.3935 75.311 50.0956 75.311ZM54.495 74.373H54.0977V71.4322H53.3749V71.1343H53.5018C53.8494 71.1343 54.037 71.0074 54.1694 70.6764H54.495V74.373ZM56.4978 74.4282C55.5874 74.4282 55.0411 74.042 55.0411 73.3744C55.0411 72.8778 55.3446 72.5523 55.8026 72.4364V72.4144C55.3832 72.3316 55.146 72.0061 55.146 71.5867C55.146 71.024 55.626 70.6212 56.4978 70.6212C57.3805 70.6212 57.855 71.024 57.855 71.5867C57.855 72.0061 57.6178 72.3316 57.204 72.4144V72.4364C57.6619 72.5523 57.9654 72.8778 57.9654 73.3744C57.9654 74.042 57.4136 74.4282 56.4978 74.4282ZM56.4978 72.304C57.1985 72.304 57.4578 72.0833 57.4578 71.6364C57.4578 71.2281 57.2316 70.9853 56.4978 70.9853C55.775 70.9853 55.5432 71.2281 55.5432 71.6364C55.5432 72.0833 55.8081 72.304 56.4978 72.304ZM56.4978 74.0641C57.3088 74.0641 57.5626 73.8047 57.5626 73.3247C57.5626 72.8392 57.2978 72.5854 56.4978 72.5854C55.7032 72.5854 55.4439 72.8392 55.4439 73.3247C55.4439 73.8047 55.6977 74.0641 56.4978 74.0641ZM58.8941 72.4144H58.4086V71.6474H58.8941V72.4144ZM58.8941 74.373H58.4086V73.6061H58.8941V74.373ZM60.9245 74.4282C60.0031 74.4282 59.3962 73.711 59.3962 72.5247C59.3962 71.3384 60.0031 70.6212 60.9245 70.6212C61.8514 70.6212 62.4529 71.3384 62.4529 72.5247C62.4529 73.711 61.8514 74.4282 60.9245 74.4282ZM60.9245 74.0475C61.6528 74.0475 62.039 73.5841 62.039 72.5247C62.039 71.4653 61.6528 71.0019 60.9245 71.0019C60.2017 71.0019 59.8155 71.4653 59.8155 72.5247C59.8155 73.5841 60.2017 74.0475 60.9245 74.0475ZM64.5831 74.4282C63.6616 74.4282 63.0547 73.711 63.0547 72.5247C63.0547 71.3384 63.6616 70.6212 64.5831 70.6212C65.51 70.6212 66.1114 71.3384 66.1114 72.5247C66.1114 73.711 65.51 74.4282 64.5831 74.4282ZM64.5831 74.0475C65.3114 74.0475 65.6976 73.5841 65.6976 72.5247C65.6976 71.4653 65.3114 71.0019 64.5831 71.0019C63.8603 71.0019 63.4741 71.4653 63.4741 72.5247C63.4741 73.5841 63.8603 74.0475 64.5831 74.0475Z" fill="#838383"/>
<path d="M254.055 74.373H253.531L252.079 70.6764H252.521L253.79 73.9317H253.817L255.075 70.6764H255.506L254.055 74.373ZM256.188 71.2833H255.797V70.6764H256.188V71.2833ZM256.188 74.373H255.797V71.6143H256.188V74.373ZM257.926 74.4282C257.087 74.4282 256.651 73.8379 256.651 73.0102C256.651 72.1826 257.142 71.5922 257.92 71.5922C258.577 71.5922 259.118 71.9895 259.118 72.7951C259.118 72.922 259.106 73.0433 259.09 73.1206H257.026C257.043 73.722 257.28 74.0751 257.931 74.0751C258.483 74.0751 258.704 73.8268 258.704 73.4958V73.4627H259.095V73.5013C259.095 74.0254 258.621 74.4282 257.926 74.4282ZM257.909 71.9343C257.302 71.9343 257.06 72.2819 257.026 72.8337H258.742C258.764 72.1881 258.444 71.9343 257.909 71.9343ZM260.497 74.373H259.978L259.278 71.6474H259.697L260.127 73.424L260.238 74.0144H260.271L260.453 73.424L261.076 71.6474H261.601L262.235 73.424L262.406 74.0144H262.439L262.55 73.424L262.98 71.6474H263.388L262.687 74.373H262.169L261.556 72.6516L261.352 72.0061H261.319L261.115 72.6516L260.497 74.373Z" fill="#D94A26"/>
<path fill-rule="evenodd" clip-rule="evenodd" d="M268.711 76.557L266.622 78.7742L266.238 78.3675L267.944 76.557L266.238 74.7472L266.622 74.3398L268.711 76.557Z" fill="#D94A26"/>
<line opacity="0.09" x1="36.8857" y1="62.9147" x2="183.098" y2="62.9147" stroke="black" strokeWidth="0.483084"/>
</g>
<defs>
<filter id="filter0_d_174_43107" x="23.3815" y="0.944825" width="267.851" height="123.59" filterUnits="userSpaceOnUse" color-interpolation-filters="sRGB">
<feFlood flood-opacity="0" result="BackgroundImageFix"/>
<feColorMatrix in="SourceAlpha" type="matrix" values="0 0 0 0 0 0 0 0 0 0 0 0 0 0 0 0 0 0 127 0" result="hardAlpha"/>
<feOffset dx="-0.903737" dy="0.903737"/>
<feGaussianBlur stdDeviation="15.8154"/>
<feComposite in2="hardAlpha" operator="out"/>
<feColorMatrix type="matrix" values="0 0 0 0 0.544872 0 0 0 0 0.540506 0 0 0 0 0.540506 0 0 0 0.25 0"/>
<feBlend mode="normal" in2="BackgroundImageFix" result="effect1_dropShadow_174_43107"/>
<feBlend mode="normal" in="SourceGraphic" in2="effect1_dropShadow_174_43107" result="shape"/>
</filter>
<filter id="filter1_d_174_43107" x="8.30239" y="-6.26807" width="298.672" height="126.213" filterUnits="userSpaceOnUse" color-interpolation-filters="sRGB">
<feFlood flood-opacity="0" result="BackgroundImageFix"/>
<feColorMatrix in="SourceAlpha" type="matrix" values="0 0 0 0 0 0 0 0 0 0 0 0 0 0 0 0 0 0 127 0" result="hardAlpha"/>
<feOffset dx="-0.903737" dy="0.903737"/>
<feGaussianBlur stdDeviation="15.8154"/>
<feComposite in2="hardAlpha" operator="out"/>
<feColorMatrix type="matrix" values="0 0 0 0 0.544872 0 0 0 0 0.540506 0 0 0 0 0.540506 0 0 0 0.25 0"/>
<feBlend mode="normal" in2="BackgroundImageFix" result="effect1_dropShadow_174_43107"/>
<feBlend mode="normal" in="SourceGraphic" in2="effect1_dropShadow_174_43107" result="shape"/>
</filter>
<filter id="filter2_d_174_43107" x="-1.53452" y="-18.7271" width="318.344" height="133.426" filterUnits="userSpaceOnUse" color-interpolation-filters="sRGB">
<feFlood flood-opacity="0" result="BackgroundImageFix"/>
<feColorMatrix in="SourceAlpha" type="matrix" values="0 0 0 0 0 0 0 0 0 0 0 0 0 0 0 0 0 0 127 0" result="hardAlpha"/>
<feOffset dx="-0.903737" dy="0.903737"/>
<feGaussianBlur stdDeviation="15.8154"/>
<feComposite in2="hardAlpha" operator="out"/>
<feColorMatrix type="matrix" values="0 0 0 0 0.544872 0 0 0 0 0.540506 0 0 0 0 0.540506 0 0 0 0.25 0"/>
<feBlend mode="normal" in2="BackgroundImageFix" result="effect1_dropShadow_174_43107"/>
<feBlend mode="normal" in="SourceGraphic" in2="effect1_dropShadow_174_43107" result="shape"/>
</filter>
<linearGradient id="paint0_linear_174_43107" x1="167.5" y1="-3.60859e-07" x2="170.315" y2="103.991" gradientUnits="userSpaceOnUse">
<stop stop-color="#F8F8F8"/>
<stop offset="1" stop-color="white"/>
</linearGradient>
<clipPath id="clip0_174_43107">
<path d="M0 10C0 4.47715 4.47715 0 10 0H307C312.523 0 317 4.47715 317 10V104H0V10Z" fill="white"/>
</clipPath>
<clipPath id="clip1_174_43107">
<rect width="15.3503" height="15.3503" fill="white" transform="translate(49.8008 35.1445)"/>
</clipPath>
</defs>
</svg>
