<svg width="106" height="86" viewBox="0 0 106 86" fill="none" xmlns="http://www.w3.org/2000/svg">
<path d="M102.275 23.1768H97.1406V73.9795H10.3809V23.1768H5.85938L54.0674 0.0595703L102.275 23.1768ZM2.91016 80.5957L2.83496 77.29H5.67383V74.0879H101.318V77.29H103.589V80.6641H105.329V83.9297H0.0546875V80.6641H2.91016V80.5957Z" fill="#FFF1DF" stroke="#FFEEEF" stroke-width="0.109147"/>
<path fill-rule="evenodd" clip-rule="evenodd" d="M103.642 80.5943H2.85302L2.83197 79.6662H103.642V80.5943ZM101.371 77.2154H5.6175V76.2873H101.371V77.2154ZM97.1932 74.0252H10.3239V73.097H97.1932V74.0252ZM97.1932 24.2367L10.3239 24.363V23.386L97.1932 23.2598V24.2367Z" fill="#FFBDB4"/>
<path fill-rule="evenodd" clip-rule="evenodd" d="M97.1968 23.9908L84.2329 25.8617V73.3131H72.0428V24.9649C69.7747 25.2441 64.1894 25.9371 58.9807 26.6279V73.3131H46.7901V24.3101L33.728 25.8617V73.3131H21.5377V24.491L10.3275 25.8617V23.8115C10.3275 23.8115 18.5725 24.0622 21.5377 24.2506V23.9766H33.728V23.8115H48.109L47.6723 23.9766H58.9807V24.2659L72.0428 23.998V23.9766H84.2329V23.8115L97.1968 23.9754V23.9908Z" fill="#FFBDB4"/>
<path fill-rule="evenodd" clip-rule="evenodd" d="M24.3802 49.2663L26.1166 58.7382L17.7377 60.4776L16.0316 50.8591L24.3802 49.2663Z" fill="white"/>
<path fill-rule="evenodd" clip-rule="evenodd" d="M16.3131 51.0545L17.2237 56.1884C17.2472 56.3212 17.1588 56.4477 17.0259 56.4715C16.8933 56.4949 16.7664 56.4062 16.7426 56.2738L15.7901 50.9022C15.7668 50.7707 15.8536 50.6447 15.9848 50.6197L24.3333 49.027C24.3974 49.0146 24.4635 49.0285 24.5172 49.0653C24.5708 49.1022 24.6076 49.1588 24.6195 49.2226L25.4722 53.8745C25.4964 54.0073 25.4085 54.1348 25.276 54.1589C25.1433 54.1834 25.0162 54.0951 24.9917 53.9628L24.1833 49.5529L16.3131 51.0545Z" fill="black"/>
<path fill-rule="evenodd" clip-rule="evenodd" d="M25.8344 58.5487L24.9938 53.9632C24.9696 53.8305 25.0573 53.7034 25.1901 53.6789C25.3225 53.6548 25.4499 53.7426 25.4744 53.875L26.3579 58.6953C26.382 58.8255 26.2973 58.9513 26.1674 58.9784L17.7884 60.7178C17.7236 60.7315 17.6564 60.718 17.6018 60.681C17.5471 60.644 17.5098 60.5864 17.4981 60.5215L16.7448 56.2742C16.7213 56.1414 16.8101 56.0144 16.9427 55.991C17.0756 55.9673 17.2024 56.0559 17.2259 56.1888L17.9353 60.1884L25.8344 58.5487Z" fill="black"/>
<path fill-rule="evenodd" clip-rule="evenodd" d="M25.1719 58.1111L25.0573 57.4987L18.3166 58.763L18.4314 59.3757L25.1719 58.1111ZM24.9141 56.703L24.7992 56.0909L18.0584 57.3552L18.1736 57.9675L24.9141 56.703ZM24.656 55.2952L24.541 54.6824L17.8006 55.947L17.9155 56.5597L24.656 55.2952ZM24.3979 53.8874L24.2831 53.2748L17.5425 54.5392L17.6574 55.1519L24.3979 53.8874ZM24.1398 52.4797L24.025 51.867L17.2844 53.1314L17.3992 53.7441L24.1398 52.4797ZM23.8817 51.0718L23.7668 50.4592L17.0262 51.7236L17.1414 52.3359L23.8817 51.0718Z" fill="black"/>
<path fill-rule="evenodd" clip-rule="evenodd" d="M25.6318 48.5648L31.0763 56.5076L24.1328 61.5095L18.6563 53.4204L25.6318 48.5648Z" fill="white"/>
<path fill-rule="evenodd" clip-rule="evenodd" d="M30.8077 56.4605L28.8482 53.6016C28.7871 53.513 28.8099 53.3909 28.8988 53.3302C28.9879 53.2689 29.1095 53.2917 29.1705 53.3808L31.238 56.3969C31.2979 56.4848 31.2771 56.6042 31.191 56.6661L24.2475 61.668C24.2046 61.6992 24.1511 61.7112 24.0991 61.702C24.0471 61.6928 24.0011 61.6628 23.9715 61.619L21.6505 58.1909C21.59 58.1014 21.6134 57.98 21.7028 57.9193C21.792 57.8591 21.9136 57.8823 21.9741 57.9718L24.1823 61.2337L30.8077 56.4605Z" fill="black"/>
<path fill-rule="evenodd" clip-rule="evenodd" d="M18.9245 53.4705L21.9719 57.9718C22.0324 58.0608 22.0089 58.1827 21.9196 58.2429C21.8303 58.3036 21.7088 58.2798 21.6483 58.1908L18.4928 53.5298C18.4328 53.4414 18.4553 53.3208 18.543 53.2598L25.5185 48.4042C25.5612 48.3744 25.6141 48.3628 25.6652 48.3724C25.7166 48.3814 25.7619 48.4112 25.7913 48.454L29.1683 53.3807C29.2292 53.4699 29.2065 53.5914 29.1176 53.6526C29.0286 53.7134 28.9069 53.6906 28.846 53.6015L25.5802 48.8373L18.9245 53.4705Z" fill="black"/>
<path fill-rule="evenodd" clip-rule="evenodd" d="M29.9551 56.3192L29.601 55.8065L23.9601 59.7072L24.3145 60.22L29.9551 56.3192ZM29.146 55.1382L28.7918 54.626L23.1508 58.5267L23.5054 59.039L29.146 55.1382ZM28.3368 53.9577L27.9822 53.4449L22.3416 57.3457L22.6961 57.8584L28.3368 53.9577ZM27.5277 52.7772L27.1732 52.2644L21.5324 56.1652L21.8869 56.6779L27.5277 52.7772ZM26.7184 51.5966L26.3639 51.0839L20.7232 54.9847L21.0777 55.4974L26.7184 51.5966ZM25.9091 50.4161L25.5547 49.9034L19.9139 53.8041L20.2685 54.3164L25.9091 50.4161Z" fill="black"/>
<path d="M17.6157 84.1584C21.1828 84.1584 24.0745 81.1892 24.0745 77.5264C24.0745 73.8637 21.1828 70.8945 17.6157 70.8945C14.0486 70.8945 11.1569 73.8637 11.1569 77.5264C11.1569 81.1892 14.0486 84.1584 17.6157 84.1584Z" fill="#FFCF84"/>
<path fill-rule="evenodd" clip-rule="evenodd" d="M17.6125 72.3538C20.3929 72.3538 22.6504 74.6717 22.6504 77.5267C22.6504 80.3817 20.3929 82.6996 17.6125 82.6996C17.4996 82.6996 17.4079 82.7937 17.4079 82.9097C17.4079 83.0257 17.4996 83.1198 17.6125 83.1198C20.6187 83.1198 23.0596 80.6136 23.0596 77.5267C23.0596 74.4398 20.6187 71.9336 17.6125 71.9336C17.4996 71.9336 17.4079 72.0277 17.4079 72.1437C17.4079 72.2597 17.4996 72.3538 17.6125 72.3538Z" fill="#FD9909"/>
<path fill-rule="evenodd" clip-rule="evenodd" d="M17.6146 82.6996C14.8339 82.6996 12.5764 80.3817 12.5764 77.5267C12.5764 74.6717 14.8339 72.3538 17.6146 72.3538C17.7275 72.3538 17.8192 72.2597 17.8192 72.1437C17.8192 72.0277 17.7275 71.9336 17.6146 71.9336C14.608 71.9336 12.1675 74.4398 12.1675 77.5267C12.1675 80.6136 14.608 83.1198 17.6146 83.1198C17.7275 83.1198 17.8192 83.0257 17.8192 82.9097C17.8192 82.7937 17.7275 82.6996 17.6146 82.6996Z" fill="#FD9909"/>
<path fill-rule="evenodd" clip-rule="evenodd" d="M18.3908 84.1109L18.2586 83.0183C18.2446 82.9032 18.3245 82.7982 18.4366 82.7839C18.5487 82.7696 18.6506 82.8514 18.6649 82.9665L18.7955 84.0475C18.6621 84.0729 18.527 84.0941 18.3908 84.1109ZM19.5984 83.8388L19.2326 82.7302C19.1966 82.6203 19.2539 82.5009 19.3611 82.4637C19.4679 82.4265 19.5841 82.4855 19.6201 82.5953L19.984 83.6969C19.8575 83.7482 19.729 83.7956 19.5984 83.8388ZM14.0527 83.0594L14.6216 82.0989C14.6801 81.9998 14.8061 81.9683 14.9027 82.0286C14.9993 82.0888 15.03 82.2182 14.9715 82.3173L14.401 83.2803C14.2823 83.2103 14.1661 83.1366 14.0527 83.0594ZM22.9273 81.2949L21.9872 80.5806C21.8968 80.5116 21.8776 80.3799 21.9447 80.2867C22.0118 80.1935 22.1399 80.1738 22.2307 80.2428L23.1499 80.9413C23.0795 81.0617 23.005 81.1796 22.9273 81.2949ZM11.4749 79.5938L12.5794 79.0834C12.6821 79.0357 12.8037 79.083 12.8499 79.1887C12.8962 79.2945 12.8503 79.4189 12.7472 79.4665L11.6152 79.9898C11.5645 79.8598 11.5174 79.7278 11.4749 79.5938ZM23.8804 75.9181C23.9132 76.0535 23.9422 76.1905 23.9668 76.329L22.8778 76.5926C22.7681 76.6193 22.6576 76.5492 22.6318 76.4364C22.6056 76.3235 22.6739 76.2103 22.7836 76.1836L23.8804 75.9181ZM12.2762 73.7921L13.2494 74.4458C13.3439 74.5092 13.3705 74.6396 13.3087 74.7366C13.2469 74.8337 13.12 74.8609 13.0255 74.7974L12.0564 74.1465C12.126 74.0258 12.1996 73.9076 12.2762 73.7921ZM12.9113 72.9815L13.7028 73.5791C13.7937 73.6478 13.8133 73.7795 13.7462 73.8728C13.6795 73.9662 13.551 73.9863 13.4601 73.9176L12.6396 73.2976C12.7267 73.1893 12.8176 73.0839 12.9113 72.9815ZM21.3463 72.1156C21.4577 72.1968 21.5665 72.2815 21.6725 72.3697L20.9649 73.2857C20.8945 73.3766 20.7656 73.3918 20.6772 73.3197C20.5888 73.2476 20.5741 73.1153 20.6441 73.0245L21.3463 72.1156ZM20.2504 71.4718C20.3752 71.5294 20.498 71.5909 20.6183 71.656L20.1194 72.6168C20.0662 72.7191 19.9422 72.7579 19.8424 72.7033C19.7429 72.6487 19.7053 72.5214 19.7585 72.419L20.2504 71.4718ZM16.1648 71.0625L16.453 72.1172C16.4832 72.2289 16.4198 72.345 16.3109 72.3763C16.2021 72.4076 16.0891 72.3424 16.0589 72.2307L15.7691 71.1695C15.8992 71.1297 16.031 71.094 16.1648 71.0625Z" fill="#FD9909"/>
<path d="M40.0712 79.575C40.9676 83.0067 44.5098 85.0532 47.9829 84.146C51.456 83.2388 53.5449 79.7214 52.6485 76.2898C51.7522 72.8581 48.21 70.8116 44.7368 71.7188C41.2637 72.626 39.1748 76.1433 40.0712 79.575Z" fill="#FFCF84"/>
<path fill-rule="evenodd" clip-rule="evenodd" d="M51.2661 76.6515C51.9647 79.3263 50.3341 82.0722 47.6268 82.7793C44.9196 83.4865 42.1544 81.8888 41.4557 79.214C41.4274 79.1054 41.3151 79.0405 41.2051 79.0692C41.0951 79.0979 41.0289 79.2094 41.0573 79.3181C41.8127 82.2102 44.8025 83.9376 47.7297 83.173C50.6568 82.4085 52.4199 79.4395 51.6645 76.5474C51.6361 76.4388 51.5238 76.3739 51.4139 76.4026C51.3039 76.4313 51.2377 76.5429 51.2661 76.6515Z" fill="#FD9909"/>
<path fill-rule="evenodd" clip-rule="evenodd" d="M41.454 79.2135C40.7552 76.5384 42.3858 73.7925 45.0931 73.0854C47.8003 72.3782 50.5655 73.9759 51.2643 76.651C51.2926 76.7597 51.405 76.8245 51.5149 76.7958C51.6249 76.7671 51.6911 76.6556 51.6627 76.5469C50.9072 73.6545 47.9175 71.9274 44.9903 72.692C42.0632 73.4566 40.3 76.4252 41.0555 79.3176C41.0839 79.4262 41.1962 79.4911 41.3061 79.4624C41.4161 79.4337 41.4823 79.3221 41.454 79.2135Z" fill="#FD9909"/>
<path fill-rule="evenodd" clip-rule="evenodd" d="M40.3102 80.311L41.313 79.9132C41.4187 79.8713 41.5383 79.9221 41.5801 80.0264C41.6218 80.1307 41.5698 80.249 41.4643 80.2913L40.472 80.6847C40.4144 80.5626 40.3604 80.4379 40.3102 80.311ZM40.8717 81.4055L41.831 80.7789C41.9261 80.717 42.0537 80.7426 42.1159 80.8365C42.1781 80.93 42.1514 81.0565 42.0563 81.1183L41.1032 81.7412C41.0227 81.6322 40.9455 81.5203 40.8717 81.4055ZM40.2172 75.8772L41.2709 76.1866C41.3796 76.2183 41.4411 76.3318 41.4083 76.4396C41.3754 76.5475 41.2604 76.609 41.1518 76.5773L40.0952 76.267C40.1317 76.1355 40.1725 76.0054 40.2172 75.8772ZM44.1205 83.9778L44.5615 82.8965C44.6042 82.7924 44.7243 82.7413 44.8295 82.7828C44.9348 82.8243 44.9856 82.9426 44.9431 83.0471L44.5117 84.1044C44.3798 84.0665 44.2493 84.0241 44.1205 83.9778ZM42.8556 72.5389L43.6172 73.4751C43.6882 73.5621 43.6739 73.6907 43.5853 73.7614C43.4966 73.8321 43.3671 73.8188 43.296 73.7314L42.5154 72.772C42.6259 72.691 42.7393 72.613 42.8556 72.5389ZM49.4584 83.563C49.3383 83.628 49.2157 83.6899 49.0906 83.7478L48.5669 82.7655C48.514 82.6666 48.5527 82.5429 48.6532 82.4902C48.7537 82.437 48.8782 82.4747 48.931 82.5736L49.4584 83.563ZM48.5584 71.8728L48.1831 72.9709C48.1467 73.0776 48.0298 73.1354 47.9222 73.1C47.8147 73.0646 47.757 72.9493 47.7934 72.8426L48.1672 71.7491C48.2991 71.7861 48.4296 71.8277 48.5584 71.8728ZM49.4867 72.283L49.1189 73.1925C49.0766 73.2969 48.9567 73.3484 48.8513 73.307C48.7459 73.2659 48.6946 73.1473 48.7369 73.0428L49.1186 72.0999C49.2432 72.1569 49.366 72.2182 49.4867 72.283ZM52.4274 80.1833C52.3783 80.3105 52.3254 80.4362 52.2684 80.56L51.222 80.1062C51.1181 80.061 51.0713 79.9407 51.1174 79.8378C51.1636 79.735 51.2853 79.688 51.389 79.7328L52.4274 80.1833ZM52.7624 78.9695C52.7392 79.1039 52.7117 79.2372 52.6802 79.3691L51.6438 79.1271C51.5334 79.1013 51.4655 78.9916 51.4921 78.882C51.5189 78.7728 51.6302 78.7051 51.7406 78.7309L52.7624 78.9695ZM52.1239 74.9377L51.1962 75.4761C51.0979 75.5329 50.9719 75.5006 50.9149 75.4037C50.8578 75.3067 50.8912 75.1819 50.9895 75.1251L51.923 74.5835C51.9935 74.6988 52.0604 74.8168 52.1239 74.9377Z" fill="#FD9909"/>
<path fill-rule="evenodd" clip-rule="evenodd" d="M31.7063 29.4634C31.6892 29.4369 31.0245 29.4612 30.9729 29.4579C30.1944 29.4097 29.417 29.3334 28.6422 29.2445C26.0672 28.949 22.9948 28.7457 20.87 27.1038C18.4529 25.2361 20.4894 22.4925 23.1367 23C26.4007 23.6258 28.8731 26.8594 31.677 28.4717" fill="black"/>
<path d="M34.3676 32.6278C36.1199 32.6278 37.5404 31.2073 37.5404 29.455C37.5404 27.7027 36.1199 26.2822 34.3676 26.2822C32.6153 26.2822 31.1948 27.7027 31.1948 29.455C31.1948 31.2073 32.6153 32.6278 34.3676 32.6278Z" fill="#ABD1CE"/>
<path fill-rule="evenodd" clip-rule="evenodd" d="M32.985 30.6744L31.9482 31.5063C31.4787 30.9532 31.1953 30.237 31.1953 29.4551C31.1953 27.7039 32.6169 26.2822 34.3681 26.2822C35.9896 26.2822 37.3286 27.5013 37.5181 29.0723C36.9876 29.0101 36.547 28.6825 36.1914 28.1016C36.1616 29.2854 35.1198 29.7373 33.8637 29.9694C33.8111 29.668 33.5424 29.4383 33.2192 29.4383C32.8584 29.4383 32.5654 29.7247 32.5654 30.0775C32.5654 30.3496 32.7397 30.5822 32.985 30.6744Z" fill="black"/>
<path fill-rule="evenodd" clip-rule="evenodd" d="M53.8794 47.192C53.8794 47.192 67.4524 32.8699 75.7571 33.4435C77.0878 33.5354 80.8789 34.0512 84.5415 36.7229C87.1842 38.6503 89.443 40.8707 91.6348 43.1351C92.7071 44.2435 93.1853 45.7979 92.9205 47.3171C92.6563 48.8368 91.6812 50.1381 90.2969 50.819C88.3034 51.8014 85.7379 52.7398 82.5891 53.2678C82.5891 53.2678 83.1494 54.2804 83.4972 54.9091C83.6789 55.2379 83.6764 55.637 83.4908 55.9633C83.2041 56.4522 82.6653 57.1967 81.7308 57.9358C81.7308 57.9358 81.6776 58.2836 81.6268 58.6148C81.6028 58.7706 81.5178 58.9103 81.3903 59.0031C81.2628 59.0964 81.1041 59.1345 80.9483 59.1096C80.7104 59.072 80.5291 58.8766 80.5086 58.6367C80.4969 58.4912 80.5037 58.3373 80.5291 58.2142C80.5291 58.2142 81.1329 54.0562 77.8498 50.6148C77.8498 50.6148 76.9466 49.1987 78.328 48.2897L83.4913 45.1809L80.2654 42.4678C80.2654 42.4678 79.5742 45.8648 75.6438 46.6093C73.9512 46.9302 70.7575 47.0303 68.786 44.0271C68.786 44.0271 58.5312 52.176 55.8353 55.3981C55.8353 55.3981 55.4249 55.7908 55.0674 55.5363C54.8671 55.3937 54.6023 55.0977 54.8964 54.6492C54.8964 54.6492 54.4138 55.085 53.9888 54.7943C53.7055 54.6004 53.4871 54.2204 53.7787 53.7739C53.7787 53.7739 53.2854 54.2252 52.8399 53.9063C52.5399 53.6908 52.4706 53.3113 52.6181 52.8785C52.6181 52.8785 52.0964 53.3963 51.6524 53.0959C51.3417 52.8858 51.1917 52.4491 51.4037 52.1316L53.3743 49.3028L53.8794 47.192Z" fill="#E9673C"/>
<path fill-rule="evenodd" clip-rule="evenodd" d="M81.5834 58.7603C81.5819 58.7437 81.5834 58.7271 81.5863 58.71C82.0738 56.2294 81.6352 53.6058 81.6352 53.6058C81.6176 53.4993 81.6894 53.3987 81.7959 53.3806C81.9019 53.363 82.003 53.4348 82.0206 53.5413C82.0206 53.5413 82.1344 54.2242 82.1837 55.228L82.852 55.4146C82.9556 55.4439 83.0166 55.5514 82.9873 55.6555C82.9585 55.7595 82.8505 55.8201 82.7465 55.7908L82.1999 55.6379C82.2155 56.2265 82.2057 56.8962 82.1408 57.5884C82.0128 57.7037 81.876 57.8195 81.7295 57.9352C81.7295 57.9352 81.6762 58.283 81.6254 58.6142C81.6176 58.665 81.6034 58.7139 81.5834 58.7603Z" fill="#D9512E"/>
<path fill-rule="evenodd" clip-rule="evenodd" d="M59.4852 41.9319C64.1805 37.9108 70.8782 33.1065 75.7571 33.4435C77.0878 33.5354 80.8789 34.0512 84.5416 36.7229C87.1843 38.6503 89.443 40.8707 91.6348 43.1351C92.7071 44.2435 93.1853 45.7979 92.9205 47.3171C92.6563 48.8368 91.6812 50.1381 90.2969 50.819C89.3136 51.3036 88.1915 51.7774 86.9283 52.1966L82.3102 45.8922L83.4913 45.1809L80.2654 42.4678C80.2654 42.4678 79.7187 48.0978 75.7883 48.8422C74.0957 49.1632 70.7575 47.0304 68.786 44.0271C68.786 44.0271 66.7734 45.626 64.2968 47.6883L59.4852 41.9319Z" fill="#D84B26"/>
<path fill-rule="evenodd" clip-rule="evenodd" d="M54.2548 54.8922L54.8254 54.0969C54.8879 54.009 55.0105 53.989 55.0979 54.052C55.1854 54.115 55.2054 54.2371 55.1429 54.3246C55.1429 54.3246 54.8737 54.6831 54.8962 54.6494C54.8962 54.6494 54.5924 54.924 54.2548 54.8922ZM53.1225 54.0168L53.7106 53.1976C53.7732 53.1102 53.8958 53.0902 53.9832 53.1527C54.0707 53.2157 54.0907 53.3378 54.0282 53.4258L53.7771 53.7755C53.7541 53.796 53.4576 54.054 53.1225 54.0168ZM51.9135 53.1884L52.5617 52.2847C52.6247 52.1972 52.7469 52.1767 52.8343 52.2397C52.9222 52.3027 52.9423 52.4249 52.8792 52.5123L52.614 52.8826C52.5749 52.9197 52.255 53.2143 51.9135 53.1884Z" fill="#D9512E"/>
<path d="M75.1128 32.5852C76.7258 32.5852 78.0334 31.2777 78.0334 29.6647C78.0334 28.0517 76.7258 26.7441 75.1128 26.7441C73.4998 26.7441 72.1923 28.0517 72.1923 29.6647C72.1923 31.2777 73.4998 32.5852 75.1128 32.5852Z" fill="#E9673C"/>
<path fill-rule="evenodd" clip-rule="evenodd" d="M73.6619 27.1295C74.0889 26.8843 74.5842 26.7441 75.1118 26.7441C76.7237 26.7441 78.0324 28.0528 78.0324 29.6647C78.0324 30.7464 77.4428 31.6916 76.5679 32.1963L75.6374 30.5733C75.8284 30.6321 76.0491 30.6125 76.2445 30.5014C76.6036 30.297 76.7404 29.8599 76.5503 29.5259C76.3603 29.1919 75.9143 29.0866 75.5553 29.291C75.3589 29.4029 75.2285 29.5845 75.1826 29.7808L73.6619 27.1295Z" fill="black"/>
<path fill-rule="evenodd" clip-rule="evenodd" d="M83.431 45.1323L83.4418 45.1259C83.4418 45.1259 84.4603 45.992 85.0591 46.501C85.0943 46.5308 85.1026 46.5811 85.0792 46.6207C85.0557 46.6603 85.0069 46.6774 84.9644 46.6603L82.5723 45.7321L83.4887 45.1806L83.431 45.1323ZM68.4995 44.2535L70.8022 42.2962C70.8623 42.2449 70.9502 42.2418 71.0142 42.2887C71.0777 42.3357 71.1012 42.4204 71.0699 42.4933L69.8761 45.2989C69.4853 44.954 69.117 44.5349 68.7833 44.0268C68.7833 44.0268 68.6827 44.1065 68.4995 44.2535ZM80.2686 42.4722C80.4542 41.7122 80.6462 40.4715 80.5734 38.9335C80.57 38.8674 80.6139 38.8081 80.6779 38.7916C80.7419 38.775 80.8088 38.8057 80.8381 38.865C81.2543 39.7189 81.9069 41.4695 81.6036 43.5955L80.2686 42.4722Z" fill="#76200A"/>
<path fill-rule="evenodd" clip-rule="evenodd" d="M59.2721 84.1011C59.2721 84.1011 59.977 82.5863 61.419 82.3191C62.2919 72.9328 63.9923 63.7767 66.89 54.3778C68.037 50.6638 71.7797 48.3948 75.6031 49.0953C76.7066 49.297 77.7471 49.7391 78.5643 50.5539C78.9268 50.9159 81.5304 54.1081 80.5475 59.0951C80.2359 60.6748 79.5999 62.5335 79.1578 63.7655C79.1578 63.7655 86.8612 72.9773 87.8846 74.2014C87.9515 74.2811 87.9603 74.3949 87.907 74.4848C87.1714 75.7172 82.139 84.1504 82.139 84.1504C82.139 84.1504 81.2554 83.2985 81.5856 81.5365L75.1498 74.4784C75.1498 74.4784 71.8799 82.3723 71.2903 83.7948C71.2356 83.9272 71.1071 84.0136 70.964 84.0146C69.289 84.0273 59.2721 84.1011 59.2721 84.1011Z" fill="url(#paint0_linear_96_13943)"/>
<path fill-rule="evenodd" clip-rule="evenodd" d="M61.4978 81.505L72.0999 81.843L71.9402 82.2289L61.4602 81.8948C61.4724 81.7648 61.4851 81.6344 61.4978 81.505ZM86.4061 72.4319L81.4016 81.3335L81.1246 81.0297L86.138 72.1109L86.4061 72.4319ZM79.266 63.4652C79.2293 63.5683 79.1937 63.6684 79.159 63.7652L79.5146 64.1901L75.4953 74.8552L75.151 74.4776L74.7577 75.4272L79.266 63.4652ZM77.2173 49.6064C77.3643 49.6773 77.5084 49.7549 77.6486 49.8394C77.7013 50.0681 77.8132 50.3265 78.0257 50.5927C78.3647 51.0167 80.94 53.0752 80.4964 58.1432C80.4701 58.4451 80.5082 58.6825 80.5917 58.8632C80.578 58.9394 80.5639 59.0171 80.5482 59.0948C80.5297 59.1905 80.5096 59.2872 80.4881 59.3849C80.4598 59.3566 80.432 59.3273 80.4056 59.295C80.1946 59.042 80.0588 58.6595 80.1071 58.109C80.5346 53.2261 78.0472 51.2453 77.7209 50.8369C77.3614 50.3875 77.2392 49.9542 77.2173 49.6064Z" fill="#D9512E"/>
<path fill-rule="evenodd" clip-rule="evenodd" d="M40.0819 62.8087C37.8607 72.0162 32.1093 82.4585 32.1093 82.4585C33.1771 82.3544 34.3629 84.1628 34.3629 84.1628C34.3629 84.1628 23.5797 84.1628 20.4699 84.1628C20.2862 84.1628 20.1148 84.0705 20.0138 83.9171C19.9127 83.7637 19.8955 83.5698 19.9679 83.4013C23.8292 74.3057 26.7392 62.7794 27.1125 61.0223C29.6784 48.9465 34.1234 48.8312 36.0422 49.2069C36.5873 49.3134 37.0801 49.4697 37.5217 49.6709C42.1169 50.6606 49.1999 53.8592 53.0804 56.7686C54.2982 57.6884 54.8795 59.2262 54.5737 60.7214C53.9099 63.9894 52.5377 67.0024 50.9394 70.3304C52.5187 71.1569 52.9202 72.1788 52.9202 72.1788C52.9202 72.1788 44.763 71.5433 42.8257 71.3929C42.7231 71.3846 42.6288 71.3323 42.5678 71.2492C42.5067 71.1667 42.4847 71.0612 42.5077 70.9605C42.8462 69.4692 44.0156 64.3196 44.0156 64.3196C42.6112 63.9435 41.2816 63.4657 40.0819 62.8087Z" fill="url(#paint1_linear_96_13943)"/>
<path fill-rule="evenodd" clip-rule="evenodd" d="M21.5934 79.3011L33.3976 79.983C33.3144 80.1491 33.2343 80.3074 33.1575 80.4588L21.4141 79.7803C21.4741 79.6211 21.5338 79.4613 21.5934 79.3011ZM51.5903 68.9633L42.971 68.9223L43.0819 68.4343L51.8174 68.4758C51.7427 68.6375 51.667 68.8002 51.5903 68.9633ZM35.7634 49.1592C35.8614 49.1729 35.9548 49.189 36.0429 49.2066C36.588 49.3131 37.0808 49.4694 37.5224 49.6706C37.711 49.7112 37.9035 49.7556 38.0998 49.8035C38.5624 50.1655 39.045 50.6408 39.4891 51.2631C40.915 53.2624 41.9545 56.8064 40.5037 63.0287C40.3615 62.9574 40.2213 62.8841 40.0826 62.8084C39.9844 63.2153 39.8794 63.6247 39.7685 64.0345C39.7636 64.0023 39.7651 63.9686 39.7739 63.9353C41.5349 57.289 40.5462 53.5863 39.0914 51.5469C37.6758 49.5617 35.8371 49.1865 35.8371 49.1865C35.8104 49.1812 35.7857 49.1719 35.7634 49.1592Z" fill="#8ABBB8"/>
<path fill-rule="evenodd" clip-rule="evenodd" d="M43.4724 64.1685V64.166C43.4724 64.166 45.0243 64.6198 46.567 64.8152C46.649 64.823 46.714 64.8895 46.7199 64.972C46.7262 65.0546 46.6725 65.1298 46.5919 65.1498C45.6252 65.396 44.2188 65.7536 43.6556 65.8967L44.0137 64.3199C43.8319 64.271 43.6517 64.2207 43.4724 64.1685Z" fill="#8ABBB8"/>
<path fill-rule="evenodd" clip-rule="evenodd" d="M27.8804 51.4612C27.8804 51.4612 28.0542 51.9043 28.3495 52.1837C28.5166 52.3419 28.8461 52.4128 29.1409 52.2154C29.6991 51.8417 30.1128 50.9063 30.0194 49.8946C29.9952 49.6328 29.277 47.5079 27.4191 46.3477C27.4191 46.3477 24.151 37.5125 29.1409 45.3605C34.1309 53.2085 34.8803 45.7407 38.5578 45.9843C38.5578 45.9843 43.6073 49.8956 51.1265 52.6648L53.48 49.3163C53.48 49.3163 56.385 48.7643 56.918 47.9251C56.9986 47.7985 57.0924 47.4625 56.4764 47.4141C56.1979 47.3921 54.0603 47.1054 50.278 45.0455C49.2405 44.4798 45.8225 42.7448 41.2659 38.2202C40.3075 37.2683 34.222 31.1412 24.8421 38.2202C23.196 39.4625 16.7079 44.4915 13.7184 49.2371C12.4786 51.2106 12.7096 53.7688 14.2827 55.4883C15.7218 57.0612 18.0713 57.3992 19.8951 56.2952C23.1844 54.3042 27.8804 51.4612 27.8804 51.4612Z" fill="#ABD1CE"/>
<path fill-rule="evenodd" clip-rule="evenodd" d="M27.8284 51.4916L28.5804 50.9895C28.6947 50.9181 28.8456 50.9528 28.9171 51.0671C28.9886 51.1814 28.9539 51.3319 28.8397 51.4037L28.0936 51.8707C27.9553 51.6572 27.8785 51.4613 27.8785 51.4613L27.8284 51.4916ZM53.459 49.3428L53.4429 49.3662C53.4234 49.3696 53.4131 49.3721 53.4131 49.3721L53.0453 49.8952C52.6305 49.9524 52.2852 49.9973 52.2852 49.9973C52.1513 50.0144 52.0287 49.9197 52.0116 49.7858C51.9945 49.6525 52.0893 49.5299 52.2227 49.5128C52.2227 49.5128 52.8753 49.4287 53.459 49.3428Z" fill="#8ABBB8"/>
<path fill-rule="evenodd" clip-rule="evenodd" d="M22.7429 46.6092C22.7155 46.6267 22.7012 46.636 22.7012 46.636L22.9492 47.0537C20.8519 48.2426 18.749 49.522 16.6311 50.835C16.5165 50.9059 16.3658 50.8707 16.2948 50.7559C16.2238 50.6416 16.2592 50.4906 16.3737 50.4198C18.5087 49.096 20.6287 47.8069 22.7429 46.6092ZM38.4464 46.0616C38.8313 45.6928 40.1795 44.2302 40.6133 41.4854C40.6226 41.4264 40.6724 41.3822 40.732 41.38C40.7921 41.3777 40.8448 41.4182 40.8585 41.4763C40.9801 42.1794 41.0832 43.3837 40.7701 44.8521C40.6255 45.5281 40.393 46.2609 40.0335 47.0258C39.079 46.3874 38.5587 45.9844 38.5587 45.9844C38.5216 46.0103 38.484 46.0362 38.4464 46.0616ZM27.8257 46.1207C27.3862 45.0929 27.4347 44.1643 27.536 43.6064C27.552 43.5205 27.6207 43.4535 27.7074 43.4399C27.7941 43.4257 27.8801 43.4682 27.9221 43.5454C28.4093 44.4652 28.8762 45.0626 29.1377 45.363L27.8257 46.1207Z" fill="#1F5753"/>
<path fill-rule="evenodd" clip-rule="evenodd" d="M58.3223 50.7447C58.1167 50.497 58.0913 50.1341 58.2833 49.8566C58.5138 49.5225 58.9725 49.4385 59.3066 49.6695L60.438 50.4511C60.7716 50.6817 60.8556 51.1404 60.6246 51.4745C60.4145 51.7788 60.0149 51.875 59.693 51.7153C59.8718 51.9571 59.8865 52.2951 59.7062 52.556C59.5001 52.855 59.1088 52.9502 58.7927 52.7944C58.9691 53.0318 58.9842 53.3649 58.8064 53.6219C58.6042 53.915 58.2207 54.0088 57.9101 53.8568C58.0844 54.0908 58.0991 54.4191 57.9247 54.6716C57.7054 54.9891 57.2697 55.0688 56.9521 54.8494L56.046 54.2232C55.729 54.0039 55.6489 53.5681 55.8682 53.2511C56.0563 52.9795 56.4026 52.8818 56.6976 52.9971C56.4983 52.7582 56.4739 52.4065 56.6591 52.1383C56.8501 51.8619 57.2027 51.7627 57.5027 51.8804C57.3004 51.6372 57.2755 51.2796 57.4641 51.007C57.6585 50.7256 58.017 50.625 58.3223 50.7447Z" fill="#ABD1CE"/>
<path fill-rule="evenodd" clip-rule="evenodd" d="M56.5415 52.4155L58.534 53.8551C58.3406 53.9503 58.1086 53.9552 57.9073 53.8565C57.9205 53.8741 56.6841 52.9929 56.6949 52.9968C56.5596 52.8346 56.5049 52.6202 56.5415 52.4155ZM57.3407 51.3125C57.3446 51.3149 57.348 51.3174 57.3514 51.3198L59.3869 52.7902C59.3933 52.7946 59.3991 52.7994 59.4045 52.8048C59.2125 52.8908 58.9864 52.8908 58.79 52.7941C58.8105 52.8219 57.4755 51.8703 57.4999 51.8801C57.368 51.7214 57.3114 51.5137 57.3407 51.3125ZM58.1599 50.1553C58.1686 50.1597 58.1769 50.165 58.1853 50.1709L60.2208 51.6412C60.2555 51.6662 60.2794 51.7003 60.2916 51.738C60.1011 51.8147 59.8818 51.8103 59.6903 51.715C59.702 51.7311 58.3137 50.7419 58.3196 50.7444C58.1828 50.5793 58.1257 50.3634 58.1599 50.1553Z" fill="#8ABBB8"/>
<path fill-rule="evenodd" clip-rule="evenodd" d="M80.3734 74.8132C80.3734 74.5025 80.1219 74.251 79.8117 74.251C77.4406 74.251 68.2673 74.251 65.8967 74.251C65.5865 74.251 65.335 74.5025 65.335 74.8132C65.335 76.9572 65.335 84.5047 65.335 84.5047H80.3734V74.8132Z" fill="black"/>
<path fill-rule="evenodd" clip-rule="evenodd" d="M70.0577 74.2512V72.8981C70.0577 72.6431 70.2648 72.4365 70.5198 72.4365H75.1868C75.4418 72.4365 75.6484 72.6431 75.6484 72.8981V74.2512H74.7251V73.3598H70.9814V74.2512H70.0577Z" fill="black"/>
<path fill-rule="evenodd" clip-rule="evenodd" d="M80.2352 74.4443C80.3212 74.543 80.3734 74.672 80.3734 74.8131V74.9436L73.4765 79.7595C73.1028 80.0204 72.6056 80.0209 72.2314 79.7605L65.335 74.9597V74.8131C65.335 74.6769 65.3833 74.5518 65.4639 74.4546L72.5108 79.3595C72.7169 79.5031 72.991 79.5026 73.1966 79.359L80.2352 74.4443Z" fill="white"/>
<circle cx="53.0396" cy="11.7326" r="4.7297" fill="#FFDDAC"/>
<mask id="mask0_96_13943" style="mask-type:alpha" maskUnits="userSpaceOnUse" x="48" y="7" width="10" height="10">
<circle cx="53.0413" cy="11.7326" r="4.7297" fill="#D9D9D9"/>
</mask>
<g mask="url(#mask0_96_13943)">
<path d="M58.0125 8.58742C56.5881 9.38104 55.1701 10.1893 53.7499 10.9954C53.7248 11.008 53.6371 11.0602 53.5244 11.1249C53.4199 11.1855 53.2925 11.2586 53.1777 11.3254C53.163 11.3171 53.1526 11.3108 53.1505 11.3087C53.0565 11.2523 52.9417 11.1855 52.8414 11.127C52.7391 11.0664 52.6514 11.0142 52.6159 10.9954C51.1957 10.1914 49.7776 9.38104 48.3533 8.58742C48.1591 8.47882 48.0839 8.34934 48.1006 8.07366C48.1215 7.76457 48.1048 7.45129 48.1048 7.13802C48.1069 6.4175 48.4786 6.09379 48.9798 6.37782C50.2225 7.08581 51.4589 7.80842 52.7098 8.49344C52.9041 8.59996 53.0607 8.73153 53.1839 8.88817C53.3072 8.73153 53.4659 8.59996 53.6601 8.49344C54.909 7.80842 56.1475 7.08581 57.388 6.37782C57.8893 6.09379 58.261 6.4175 58.2631 7.13802C58.2631 7.44921 58.2464 7.76248 58.2673 8.07366C58.284 8.34934 58.2067 8.47882 58.0125 8.58742Z" fill="#F69E1E"/>
<path d="M58.2639 14.6193C58.243 15.2083 58.2597 15.7993 58.2597 16.4488C57.3345 15.9225 56.4594 15.4255 55.5843 14.9284C54.7845 14.4731 53.9846 14.0137 53.1826 13.5647C52.3806 14.0116 51.5807 14.471 50.7788 14.9284C49.9037 15.4255 49.0286 15.9225 48.1034 16.4488C48.1034 15.7993 48.1201 15.2083 48.0993 14.6193C48.0805 14.1056 48.2329 13.7923 48.6026 13.6022C49.108 13.3433 49.603 13.0404 50.1313 12.7376C50.0499 12.6875 50.0039 12.6541 49.9559 12.6248C49.4693 12.3492 48.9806 12.0714 48.4919 11.7978C48.2267 11.6516 48.1013 11.3947 48.1034 11.0209C48.1055 10.4883 48.1055 9.95577 48.1055 9.42321V9.04102C48.1076 9.0431 48.1118 9.04519 48.1139 9.04519C48.1452 9.17259 48.2225 9.25613 48.352 9.32714C49.7763 10.1208 51.1944 10.929 52.6145 11.7351C52.65 11.756 52.7378 11.8062 52.8401 11.8667C52.9403 11.9252 53.0552 11.992 53.1492 12.0484C53.1513 12.0505 53.1617 12.0547 53.1763 12.0651C53.2912 11.9983 53.4186 11.9252 53.523 11.8646C53.6358 11.7999 53.7235 11.7498 53.7486 11.7351C55.1687 10.9311 56.5868 10.1208 58.0112 9.32714C58.1406 9.25613 58.2179 9.17468 58.2472 9.04728C58.2492 9.04519 58.2534 9.04311 58.2576 9.04311V9.42529C58.2576 9.95785 58.2576 10.4904 58.2597 11.023C58.2618 11.3968 58.1344 11.6537 57.8712 11.7999C57.3825 12.0714 56.8959 12.3492 56.4072 12.6269C56.3592 12.6541 56.3132 12.6875 56.2318 12.7397C56.7602 13.0404 57.253 13.3454 57.7584 13.6043C58.1302 13.7902 58.2827 14.1056 58.2639 14.6193Z" fill="#EB1D25"/>
</g>
<path d="M49.7708 18.7075L50.311 19.4619H49.8366L49.503 18.9906L49.1756 19.4619H48.7134L49.2582 18.7091L48.7272 17.9792H49.2016L49.5214 18.4397L49.8397 17.9792H50.3018L49.7708 18.7075ZM52.318 17.9394C52.4925 17.9394 52.6333 17.9929 52.7404 18.1C52.8485 18.2061 52.9026 18.3454 52.9026 18.5178V19.4619H52.5047V18.6463C52.5047 18.5392 52.4792 18.4571 52.4282 18.4C52.3782 18.3428 52.3073 18.3143 52.2155 18.3143C52.1247 18.3143 52.0497 18.3433 51.9906 18.4015C51.9314 18.4586 51.9018 18.5412 51.9018 18.6494V19.4619H51.5024V18.6463C51.5024 18.5392 51.4775 18.4571 51.4275 18.4C51.3775 18.3428 51.3061 18.3143 51.2132 18.3143C51.1224 18.3143 51.0475 18.3433 50.9883 18.4015C50.9291 18.4586 50.8995 18.5412 50.8995 18.6494V19.4619H50.5002V17.9792H50.8888V18.1536C50.9847 18.0108 51.1301 17.9394 51.3249 17.9394C51.4321 17.9394 51.5279 17.9618 51.6126 18.0067C51.6973 18.0506 51.7646 18.1128 51.8146 18.1934C51.9166 18.024 52.0844 17.9394 52.318 17.9394ZM54.7081 19.4619H54.3179V19.2982C54.2087 19.4328 54.0608 19.5002 53.8741 19.5002C53.6691 19.5002 53.4982 19.4257 53.3615 19.2768C53.2248 19.1278 53.1565 18.9422 53.1565 18.7198C53.1565 18.4974 53.2248 18.3117 53.3615 18.1628C53.4982 18.0138 53.6691 17.9394 53.8741 17.9394C54.0618 17.9394 54.2098 18.0072 54.3179 18.1429V17.9792H54.7081V19.4619ZM53.9476 18.3112C53.8333 18.3112 53.741 18.3505 53.6706 18.429C53.6002 18.5066 53.565 18.6035 53.565 18.7198C53.565 18.8361 53.6002 18.9335 53.6706 19.012C53.741 19.0896 53.8333 19.1283 53.9476 19.1283C54.0608 19.1283 54.1526 19.0901 54.223 19.0136C54.2944 18.936 54.3301 18.8381 54.3301 18.7198C54.3301 18.6014 54.2944 18.504 54.223 18.4275C54.1526 18.35 54.0608 18.3112 53.9476 18.3112ZM55.8718 17.9394C55.9514 17.9394 56.0208 17.9501 56.0799 17.9715L56.0203 18.3678C55.9488 18.3362 55.8683 18.3204 55.7785 18.3204C55.6836 18.3204 55.6076 18.3495 55.5505 18.4076C55.4944 18.4647 55.4663 18.5469 55.4663 18.654V19.4619H55.0669V17.9792H55.4541V18.1414C55.5439 18.0067 55.6831 17.9394 55.8718 17.9394ZM57.0957 17.9394C57.1753 17.9394 57.2447 17.9501 57.3038 17.9715L57.2442 18.3678C57.1728 18.3362 57.0922 18.3204 57.0024 18.3204C56.9075 18.3204 56.8315 18.3495 56.7744 18.4076C56.7183 18.4647 56.6902 18.5469 56.6902 18.654V19.4619H56.2909V17.9792H56.678V18.1414C56.7678 18.0067 56.907 17.9394 57.0957 17.9394Z" fill="black"/>
<path d="M15.4565 80.0361V77.7895H14.9289V77.1165H15.4565V76.4616H14.9289V75.7885H15.4565V73.5419H16.8845L17.5939 75.7885H18.4216V73.5419H19.4312V75.7885H19.9497V76.4616H19.4312V77.1165H19.9497V77.7895H19.4312V80.0361H17.9941L17.2665 77.7895H16.4661V80.0361H15.4565ZM16.4661 77.1165H17.0664L16.8663 76.4616H16.4479L16.4661 77.1165ZM18.4489 78.6172H18.4944L18.458 77.7895H18.2124L18.4489 78.6172ZM16.4297 75.7885H16.6844L16.4206 74.9153H16.3842L16.4297 75.7885ZM18.0214 77.1165H18.4398L18.4216 76.4616H17.8122L18.0214 77.1165Z" fill="#FD9909"/>
<path d="M44.5622 80.7637V78.5171H44.0346V77.844H44.5622V77.1891H44.0346V76.516H44.5622V74.2694H45.9902L46.6996 76.516H47.5273V74.2694H48.5369V76.516H49.0554V77.1891H48.5369V77.844H49.0554V78.5171H48.5369V80.7637H47.0998L46.3722 78.5171H45.5718V80.7637H44.5622ZM45.5718 77.844H46.1721L45.972 77.1891H45.5536L45.5718 77.844ZM47.5546 79.3448H47.6001L47.5637 78.5171H47.3181L47.5546 79.3448ZM45.5354 76.516H45.7901L45.5263 75.6429H45.4899L45.5354 76.516ZM47.1271 77.844H47.5455L47.5273 77.1891H46.9179L47.1271 77.844Z" fill="#FD9909"/>
<defs>
<linearGradient id="paint0_linear_96_13943" x1="73.634" y1="66.5508" x2="55.9391" y2="25.2584" gradientUnits="userSpaceOnUse">
<stop stop-color="#E9673C"/>
<stop offset="1" stop-color="#FFBDB4"/>
</linearGradient>
<linearGradient id="paint1_linear_96_13943" x1="40.1429" y1="74.5309" x2="66.4315" y2="54.2476" gradientUnits="userSpaceOnUse">
<stop stop-color="#ABD1CE"/>
<stop offset="0.52" stop-color="#BFDCD9"/>
<stop offset="1" stop-color="white"/>
</linearGradient>
</defs>
</svg>
