<svg width="34" height="33" viewBox="0 0 34 33" fill="none" xmlns="http://www.w3.org/2000/svg">
<path d="M15.2272 28.1906C15.2234 27.9767 15.1478 27.7704 15.0125 27.6047C14.8771 27.4391 14.69 27.3238 14.4812 27.2774C12.4713 26.7891 10.6442 25.7333 9.21753 24.2357C9.07303 24.0788 8.88005 23.9749 8.66949 23.9406C8.45893 23.9064 8.24298 23.9438 8.05622 24.0469L4.86891 25.8896C4.75899 25.9503 4.66376 26.0344 4.58993 26.136C4.5161 26.2376 4.46547 26.3541 4.44164 26.4774C4.41781 26.6007 4.42134 26.7277 4.45199 26.8495C4.48264 26.9712 4.53967 27.0848 4.61903 27.1821C7.25054 30.3253 10.9771 32.3524 15.0457 32.8538C15.0685 32.8566 15.0917 32.8546 15.1137 32.8477C15.1356 32.8408 15.1559 32.8294 15.1731 32.8141C15.1903 32.7987 15.204 32.7799 15.2133 32.7589C15.2227 32.7379 15.2274 32.7151 15.2272 32.692V28.1906ZM27.8111 16.7932C27.8111 15.7362 27.6601 14.7169 27.376 13.7515C27.3125 13.5477 27.3193 13.3285 27.3952 13.129C27.4712 12.9295 27.6119 12.7613 27.7949 12.6514L30.9768 10.8123C31.4442 10.5445 32.0375 10.7404 32.2226 11.2438C33.6194 15.0688 33.5225 19.2799 31.9512 23.0366C31.9379 23.0662 31.9185 23.0926 31.8945 23.1143C31.8704 23.1359 31.8421 23.1524 31.8113 23.1625C31.7805 23.1727 31.748 23.1763 31.7158 23.1732C31.6835 23.1701 31.6523 23.1603 31.624 23.1445L27.7949 20.9351C27.6119 20.8252 27.4712 20.657 27.3952 20.4575C27.3193 20.258 27.3125 20.0387 27.376 19.8349C27.6655 18.847 27.812 17.8227 27.8111 16.7932ZM6.25673 12.6514C6.43938 12.7616 6.57975 12.9299 6.65537 13.1294C6.73099 13.3289 6.73748 13.5479 6.67379 13.7515C6.38437 14.7395 6.23787 15.7638 6.23875 16.7932C6.23875 17.8503 6.38976 18.8696 6.67379 19.8349C6.73732 20.0387 6.73056 20.258 6.65461 20.4575C6.57865 20.657 6.4379 20.8252 6.25493 20.9351L3.07301 22.7742C2.96532 22.8392 2.84462 22.8798 2.71949 22.893C2.59436 22.9062 2.46786 22.8917 2.34896 22.8505C2.23007 22.8093 2.12169 22.7425 2.03152 22.6547C1.94135 22.567 1.8716 22.4605 1.82721 22.3427C0.518534 18.7588 0.518534 14.8277 1.82721 11.2438C1.87165 11.1263 1.94135 11.02 2.03139 10.9324C2.12143 10.8449 2.2296 10.7781 2.34827 10.737C2.46694 10.6958 2.59319 10.6812 2.71812 10.6943C2.84304 10.7073 2.96358 10.7476 3.07121 10.8123L6.25673 12.6514ZM25.9954 24.0469C25.8085 23.9434 25.5921 23.9057 25.3812 23.9399C25.1702 23.9742 24.9769 24.0783 24.8323 24.2357C23.4057 25.7333 21.5785 26.7891 19.5687 27.2774C19.3598 27.3238 19.1727 27.4391 19.0374 27.6047C18.902 27.7704 18.8264 27.9767 18.8226 28.1906V31.8669C18.8226 32.4026 19.29 32.8215 19.8167 32.7298C23.5756 32.0716 26.9808 30.106 29.4308 27.1803C29.5104 27.0829 29.5676 26.9691 29.5983 26.847C29.629 26.725 29.6325 26.5977 29.6085 26.4741C29.5845 26.3506 29.5335 26.2339 29.4593 26.1322C29.3851 26.0306 29.2895 25.9465 29.1791 25.886L25.9954 24.0469ZM24.8323 9.35079C24.9768 9.50771 25.1698 9.61161 25.3803 9.64583C25.5909 9.68005 25.8069 9.64263 25.9936 9.53954L29.1809 7.69871C29.2908 7.63799 29.3861 7.55387 29.4599 7.45229C29.5337 7.35072 29.5844 7.23417 29.6082 7.11088C29.632 6.98759 29.6285 6.86057 29.5978 6.7388C29.5672 6.61703 29.5102 6.50348 29.4308 6.40616C26.9808 3.48043 23.5756 1.51484 19.8167 0.856682C19.6928 0.836654 19.5659 0.844091 19.4452 0.878468C19.3244 0.912844 19.2127 0.97332 19.1179 1.05562C19.023 1.13793 18.9474 1.24005 18.8964 1.35478C18.8454 1.46951 18.8202 1.59404 18.8226 1.71958V5.39586C18.8226 5.8345 19.1408 6.20482 19.5687 6.30909C21.5785 6.79734 23.4057 7.85318 24.8323 9.35079Z" fill="white"/>
<path fill-rule="evenodd" clip-rule="evenodd" d="M15.1957 3.86117C15.2453 4.09431 15.2002 4.33759 15.0704 4.5375C14.9406 4.73741 14.7367 4.87759 14.5036 4.9272C11.9969 5.45999 9.72325 6.77271 8.00852 8.67719C7.92944 8.76489 7.83385 8.83616 7.72722 8.88692C7.6206 8.93768 7.50501 8.96695 7.38708 8.97304C7.26914 8.97913 7.15116 8.96194 7.03987 8.92243C6.92858 8.88293 6.82616 8.82189 6.73845 8.74281C6.65075 8.66372 6.57948 8.56814 6.52872 8.46151C6.47796 8.35488 6.4487 8.2393 6.4426 8.12136C6.43651 8.00343 6.45371 7.88544 6.49321 7.77415C6.53271 7.66286 6.59375 7.56044 6.67284 7.47274C8.64173 5.28688 11.252 3.78036 14.1297 3.16906C14.3628 3.1195 14.6061 3.16458 14.806 3.29437C15.0059 3.42416 15.1461 3.62804 15.1957 3.86117Z" fill="white"/>
</svg>
