<svg width="127" height="66" viewBox="0 0 127 66" fill="none" xmlns="http://www.w3.org/2000/svg">
<g filter="url(#filter0_i_174_42836)">
<g clip-path="url(#clip0_174_42836)">
<rect width="127" height="66" rx="33" fill="#FFCABD"/>
<path d="M89.1187 -4.60648C89.6792 -4.28026 90.113 -3.77284 90.3491 -3.16712C90.5852 -2.56141 90.6098 -1.8932 90.4187 -1.27167L80.1043 32.3754H99.1353C99.6946 32.3752 100.242 32.5394 100.709 32.8478C101.176 33.1561 101.544 33.5951 101.765 34.1106C101.987 34.6261 102.054 35.1955 101.957 35.7485C101.86 36.3015 101.604 36.8139 101.22 37.2224L55.4035 86.0946C54.9601 86.5679 54.3702 86.8764 53.7299 86.97C53.0895 87.0636 52.4364 86.9367 51.8771 86.6099C51.3178 86.2831 50.8853 85.7758 50.6499 85.1706C50.4146 84.5654 50.3904 83.898 50.5813 83.2773L60.8957 49.6244H41.8647C41.3054 49.6247 40.7583 49.4604 40.2909 49.1521C39.8235 48.8437 39.4563 48.4047 39.2346 47.8892C39.0129 47.3737 38.9464 46.8044 39.0433 46.2514C39.1403 45.6984 39.3964 45.186 39.78 44.7775L85.5965 -4.09476C86.0393 -4.56739 86.6283 -4.87575 87.2678 -4.9697C87.9073 -5.06365 88.5596 -4.93766 89.1187 -4.61223V-4.60648Z" fill="#FFD5CB"/>
<path d="M44.0257 -10.8873C44.5029 -10.6109 44.8722 -10.1811 45.0732 -9.66791C45.2743 -9.15475 45.2952 -8.58866 45.1325 -8.0621L36.351 20.4434H52.5537C53.0298 20.4432 53.4956 20.5823 53.8936 20.8435C54.2915 21.1048 54.6041 21.4767 54.7929 21.9134C54.9816 22.3501 55.0382 22.8325 54.9557 23.301C54.8732 23.7695 54.6552 24.2036 54.3285 24.5497L15.3211 65.9537C14.9437 66.3547 14.4414 66.6161 13.8962 66.6954C13.351 66.7747 12.795 66.6671 12.3188 66.3903C11.8427 66.1134 11.4744 65.6836 11.274 65.1709C11.0737 64.6582 11.0531 64.0928 11.2156 63.5669L19.9971 35.0566H3.7944C3.31825 35.0568 2.85245 34.9176 2.45453 34.6564C2.0566 34.3952 1.74397 34.0232 1.55521 33.5865C1.36645 33.1498 1.30984 32.6674 1.39236 32.1989C1.47488 31.7305 1.69292 31.2964 2.01957 30.9503L41.027 -10.4538C41.404 -10.8542 41.9054 -11.1154 42.4499 -11.195C42.9943 -11.2746 43.5497 -11.1679 44.0257 -10.8922V-10.8873Z" fill="#FFD5CB"/>
<circle cx="91" cy="33" r="27" fill="#D94823"/>
<path d="M97.2973 16.1431C97.5019 16.2617 97.6603 16.4463 97.7465 16.6665C97.8327 16.8868 97.8417 17.1298 97.7719 17.3558L94.0063 29.5913H100.954C101.158 29.5913 101.358 29.651 101.529 29.7631C101.699 29.8752 101.833 30.0349 101.914 30.2223C101.995 30.4098 102.02 30.6168 101.984 30.8179C101.949 31.019 101.855 31.2053 101.715 31.3539L84.9886 49.126C84.8267 49.2981 84.6114 49.4103 84.3776 49.4443C84.1438 49.4784 83.9054 49.4322 83.7012 49.3134C83.497 49.1945 83.3391 49.0101 83.2532 48.79C83.1672 48.5699 83.1584 48.3272 83.2281 48.1015L86.9937 35.8638H80.0458C79.8417 35.8639 79.6419 35.8042 79.4713 35.6921C79.3007 35.5799 79.1666 35.4203 79.0857 35.2328C79.0047 35.0454 78.9804 34.8383 79.0158 34.6372C79.0512 34.4362 79.1447 34.2498 79.2848 34.1013L96.0114 16.3292C96.1731 16.1573 96.3881 16.0452 96.6216 16.011C96.855 15.9769 97.0932 16.0227 97.2973 16.141V16.1431Z" fill="#FFEAEA"/>
</g>
</g>
<defs>
<filter id="filter0_i_174_42836" x="0" y="0" width="127" height="70" filterUnits="userSpaceOnUse" color-interpolation-filters="sRGB">
<feFlood flood-opacity="0" result="BackgroundImageFix"/>
<feBlend mode="normal" in="SourceGraphic" in2="BackgroundImageFix" result="shape"/>
<feColorMatrix in="SourceAlpha" type="matrix" values="0 0 0 0 0 0 0 0 0 0 0 0 0 0 0 0 0 0 127 0" result="hardAlpha"/>
<feOffset dy="4"/>
<feGaussianBlur stdDeviation="10.9"/>
<feComposite in2="hardAlpha" operator="arithmetic" k2="-1" k3="1"/>
<feColorMatrix type="matrix" values="0 0 0 0 0 0 0 0 0 0 0 0 0 0 0 0 0 0 0.25 0"/>
<feBlend mode="normal" in2="shape" result="effect1_innerShadow_174_42836"/>
</filter>
<clipPath id="clip0_174_42836">
<rect width="127" height="66" rx="33" fill="white"/>
</clipPath>
</defs>
</svg>
